<?xml version="1.0" encoding="utf-8"?>
<svg xmlns="http://www.w3.org/2000/svg" xmlns:xlink="http://www.w3.org/1999/xlink" width="600" height="400" viewBox="0 0 2400 1600">
<defs>
  <clipPath id="clip120">
    <rect x="0" y="0" width="2400" height="1600"/>
  </clipPath>
</defs>
<path clip-path="url(#clip120)" d="M0 1600 L2400 1600 L2400 0 L0 0  Z" fill="#ffffff" fill-rule="evenodd" fill-opacity="1"/>
<defs>
  <clipPath id="clip121">
    <rect x="480" y="0" width="1681" height="1600"/>
  </clipPath>
</defs>
<path clip-path="url(#clip120)" d="M175.445 1423.18 L2352.76 1423.18 L2352.76 47.2441 L175.445 47.2441  Z" fill="#ffffff" fill-rule="evenodd" fill-opacity="1"/>
<defs>
  <clipPath id="clip122">
    <rect x="175" y="47" width="2178" height="1377"/>
  </clipPath>
</defs>
<polyline clip-path="url(#clip122)" style="stroke:#000000; stroke-linecap:round; stroke-linejoin:round; stroke-width:2; stroke-opacity:0.1; fill:none" points="182.651,1423.18 182.651,47.2441 "/>
<polyline clip-path="url(#clip122)" style="stroke:#000000; stroke-linecap:round; stroke-linejoin:round; stroke-width:2; stroke-opacity:0.1; fill:none" points="647.696,1423.18 647.696,47.2441 "/>
<polyline clip-path="url(#clip122)" style="stroke:#000000; stroke-linecap:round; stroke-linejoin:round; stroke-width:2; stroke-opacity:0.1; fill:none" points="1112.74,1423.18 1112.74,47.2441 "/>
<polyline clip-path="url(#clip122)" style="stroke:#000000; stroke-linecap:round; stroke-linejoin:round; stroke-width:2; stroke-opacity:0.1; fill:none" points="1577.79,1423.18 1577.79,47.2441 "/>
<polyline clip-path="url(#clip122)" style="stroke:#000000; stroke-linecap:round; stroke-linejoin:round; stroke-width:2; stroke-opacity:0.1; fill:none" points="2042.83,1423.18 2042.83,47.2441 "/>
<polyline clip-path="url(#clip120)" style="stroke:#000000; stroke-linecap:round; stroke-linejoin:round; stroke-width:4; stroke-opacity:1; fill:none" points="175.445,1423.18 2352.76,1423.18 "/>
<polyline clip-path="url(#clip120)" style="stroke:#000000; stroke-linecap:round; stroke-linejoin:round; stroke-width:4; stroke-opacity:1; fill:none" points="182.651,1423.18 182.651,1404.28 "/>
<polyline clip-path="url(#clip120)" style="stroke:#000000; stroke-linecap:round; stroke-linejoin:round; stroke-width:4; stroke-opacity:1; fill:none" points="647.696,1423.18 647.696,1404.28 "/>
<polyline clip-path="url(#clip120)" style="stroke:#000000; stroke-linecap:round; stroke-linejoin:round; stroke-width:4; stroke-opacity:1; fill:none" points="1112.74,1423.18 1112.74,1404.28 "/>
<polyline clip-path="url(#clip120)" style="stroke:#000000; stroke-linecap:round; stroke-linejoin:round; stroke-width:4; stroke-opacity:1; fill:none" points="1577.79,1423.18 1577.79,1404.28 "/>
<polyline clip-path="url(#clip120)" style="stroke:#000000; stroke-linecap:round; stroke-linejoin:round; stroke-width:4; stroke-opacity:1; fill:none" points="2042.83,1423.18 2042.83,1404.28 "/>
<path clip-path="url(#clip120)" d="M173.033 1481.64 L180.672 1481.64 L180.672 1455.28 L172.362 1456.95 L172.362 1452.69 L180.626 1451.02 L185.301 1451.02 L185.301 1481.64 L192.94 1481.64 L192.94 1485.58 L173.033 1485.58 L173.033 1481.64 Z" fill="#000000" fill-rule="nonzero" fill-opacity="1" /><path clip-path="url(#clip120)" d="M642.349 1481.64 L658.668 1481.64 L658.668 1485.58 L636.724 1485.58 L636.724 1481.64 Q639.386 1478.89 643.969 1474.26 Q648.576 1469.61 649.756 1468.27 Q652.002 1465.74 652.881 1464.01 Q653.784 1462.25 653.784 1460.56 Q653.784 1457.8 651.84 1456.07 Q649.918 1454.33 646.817 1454.33 Q644.618 1454.33 642.164 1455.09 Q639.733 1455.86 636.956 1457.41 L636.956 1452.69 Q639.78 1451.55 642.233 1450.97 Q644.687 1450.39 646.724 1450.39 Q652.094 1450.39 655.289 1453.08 Q658.483 1455.77 658.483 1460.26 Q658.483 1462.39 657.673 1464.31 Q656.886 1466.2 654.78 1468.8 Q654.201 1469.47 651.099 1472.69 Q647.997 1475.88 642.349 1481.64 Z" fill="#000000" fill-rule="nonzero" fill-opacity="1" /><path clip-path="url(#clip120)" d="M1116.99 1466.95 Q1120.35 1467.66 1122.22 1469.93 Q1124.12 1472.2 1124.12 1475.53 Q1124.12 1480.65 1120.6 1483.45 Q1117.08 1486.25 1110.6 1486.25 Q1108.42 1486.25 1106.11 1485.81 Q1103.82 1485.39 1101.36 1484.54 L1101.36 1480.02 Q1103.31 1481.16 1105.62 1481.74 Q1107.94 1482.32 1110.46 1482.32 Q1114.86 1482.32 1117.15 1480.58 Q1119.47 1478.84 1119.47 1475.53 Q1119.47 1472.48 1117.31 1470.77 Q1115.18 1469.03 1111.36 1469.03 L1107.34 1469.03 L1107.34 1465.19 L1111.55 1465.19 Q1115 1465.19 1116.83 1463.82 Q1118.66 1462.43 1118.66 1459.84 Q1118.66 1457.18 1116.76 1455.77 Q1114.88 1454.33 1111.36 1454.33 Q1109.44 1454.33 1107.24 1454.75 Q1105.04 1455.16 1102.41 1456.04 L1102.41 1451.88 Q1105.07 1451.14 1107.38 1450.77 Q1109.72 1450.39 1111.78 1450.39 Q1117.1 1450.39 1120.21 1452.83 Q1123.31 1455.23 1123.31 1459.35 Q1123.31 1462.22 1121.67 1464.21 Q1120.02 1466.18 1116.99 1466.95 Z" fill="#000000" fill-rule="nonzero" fill-opacity="1" /><path clip-path="url(#clip120)" d="M1580.8 1455.09 L1568.99 1473.54 L1580.8 1473.54 L1580.8 1455.09 M1579.57 1451.02 L1585.45 1451.02 L1585.45 1473.54 L1590.38 1473.54 L1590.38 1477.43 L1585.45 1477.43 L1585.45 1485.58 L1580.8 1485.58 L1580.8 1477.43 L1565.19 1477.43 L1565.19 1472.92 L1579.57 1451.02 Z" fill="#000000" fill-rule="nonzero" fill-opacity="1" /><path clip-path="url(#clip120)" d="M2033.11 1451.02 L2051.47 1451.02 L2051.47 1454.96 L2037.39 1454.96 L2037.39 1463.43 Q2038.41 1463.08 2039.43 1462.92 Q2040.45 1462.73 2041.47 1462.73 Q2047.25 1462.73 2050.63 1465.9 Q2054.01 1469.08 2054.01 1474.49 Q2054.01 1480.07 2050.54 1483.17 Q2047.07 1486.25 2040.75 1486.25 Q2038.57 1486.25 2036.3 1485.88 Q2034.06 1485.51 2031.65 1484.77 L2031.65 1480.07 Q2033.73 1481.2 2035.96 1481.76 Q2038.18 1482.32 2040.66 1482.32 Q2044.66 1482.32 2047 1480.21 Q2049.34 1478.1 2049.34 1474.49 Q2049.34 1470.88 2047 1468.77 Q2044.66 1466.67 2040.66 1466.67 Q2038.78 1466.67 2036.91 1467.08 Q2035.05 1467.5 2033.11 1468.38 L2033.11 1451.02 Z" fill="#000000" fill-rule="nonzero" fill-opacity="1" /><path clip-path="url(#clip120)" d="M1245.93 1520.52 L1252.83 1520.52 L1264.64 1538.19 L1276.51 1520.52 L1283.42 1520.52 L1268.14 1543.34 L1284.44 1568.04 L1277.53 1568.04 L1264.16 1547.83 L1250.7 1568.04 L1243.76 1568.04 L1260.73 1542.68 L1245.93 1520.52 Z" fill="#000000" fill-rule="nonzero" fill-opacity="1" /><polyline clip-path="url(#clip122)" style="stroke:#000000; stroke-linecap:round; stroke-linejoin:round; stroke-width:2; stroke-opacity:0.1; fill:none" points="175.445,1276.92 2352.76,1276.92 "/>
<polyline clip-path="url(#clip122)" style="stroke:#000000; stroke-linecap:round; stroke-linejoin:round; stroke-width:2; stroke-opacity:0.1; fill:none" points="175.445,1082.61 2352.76,1082.61 "/>
<polyline clip-path="url(#clip122)" style="stroke:#000000; stroke-linecap:round; stroke-linejoin:round; stroke-width:2; stroke-opacity:0.1; fill:none" points="175.445,888.305 2352.76,888.305 "/>
<polyline clip-path="url(#clip122)" style="stroke:#000000; stroke-linecap:round; stroke-linejoin:round; stroke-width:2; stroke-opacity:0.1; fill:none" points="175.445,693.997 2352.76,693.997 "/>
<polyline clip-path="url(#clip122)" style="stroke:#000000; stroke-linecap:round; stroke-linejoin:round; stroke-width:2; stroke-opacity:0.1; fill:none" points="175.445,499.688 2352.76,499.688 "/>
<polyline clip-path="url(#clip122)" style="stroke:#000000; stroke-linecap:round; stroke-linejoin:round; stroke-width:2; stroke-opacity:0.1; fill:none" points="175.445,305.38 2352.76,305.38 "/>
<polyline clip-path="url(#clip122)" style="stroke:#000000; stroke-linecap:round; stroke-linejoin:round; stroke-width:2; stroke-opacity:0.1; fill:none" points="175.445,111.071 2352.76,111.071 "/>
<polyline clip-path="url(#clip120)" style="stroke:#000000; stroke-linecap:round; stroke-linejoin:round; stroke-width:4; stroke-opacity:1; fill:none" points="175.445,1423.18 175.445,47.2441 "/>
<polyline clip-path="url(#clip120)" style="stroke:#000000; stroke-linecap:round; stroke-linejoin:round; stroke-width:4; stroke-opacity:1; fill:none" points="175.445,1276.92 194.343,1276.92 "/>
<polyline clip-path="url(#clip120)" style="stroke:#000000; stroke-linecap:round; stroke-linejoin:round; stroke-width:4; stroke-opacity:1; fill:none" points="175.445,1082.61 194.343,1082.61 "/>
<polyline clip-path="url(#clip120)" style="stroke:#000000; stroke-linecap:round; stroke-linejoin:round; stroke-width:4; stroke-opacity:1; fill:none" points="175.445,888.305 194.343,888.305 "/>
<polyline clip-path="url(#clip120)" style="stroke:#000000; stroke-linecap:round; stroke-linejoin:round; stroke-width:4; stroke-opacity:1; fill:none" points="175.445,693.997 194.343,693.997 "/>
<polyline clip-path="url(#clip120)" style="stroke:#000000; stroke-linecap:round; stroke-linejoin:round; stroke-width:4; stroke-opacity:1; fill:none" points="175.445,499.688 194.343,499.688 "/>
<polyline clip-path="url(#clip120)" style="stroke:#000000; stroke-linecap:round; stroke-linejoin:round; stroke-width:4; stroke-opacity:1; fill:none" points="175.445,305.38 194.343,305.38 "/>
<polyline clip-path="url(#clip120)" style="stroke:#000000; stroke-linecap:round; stroke-linejoin:round; stroke-width:4; stroke-opacity:1; fill:none" points="175.445,111.071 194.343,111.071 "/>
<path clip-path="url(#clip120)" d="M119.538 1290.27 L127.177 1290.27 L127.177 1263.9 L118.867 1265.57 L118.867 1261.31 L127.13 1259.64 L131.806 1259.64 L131.806 1290.27 L139.445 1290.27 L139.445 1294.2 L119.538 1294.2 L119.538 1290.27 Z" fill="#000000" fill-rule="nonzero" fill-opacity="1" /><path clip-path="url(#clip120)" d="M123.126 1095.96 L139.445 1095.96 L139.445 1099.89 L117.501 1099.89 L117.501 1095.96 Q120.163 1093.2 124.746 1088.57 Q129.353 1083.92 130.533 1082.58 Q132.779 1080.06 133.658 1078.32 Q134.561 1076.56 134.561 1074.87 Q134.561 1072.12 132.617 1070.38 Q130.695 1068.64 127.593 1068.64 Q125.394 1068.64 122.941 1069.41 Q120.51 1070.17 117.732 1071.72 L117.732 1067 Q120.556 1065.87 123.01 1065.29 Q125.464 1064.71 127.501 1064.71 Q132.871 1064.71 136.066 1067.39 Q139.26 1070.08 139.26 1074.57 Q139.26 1076.7 138.45 1078.62 Q137.663 1080.52 135.556 1083.11 Q134.978 1083.78 131.876 1087 Q128.774 1090.19 123.126 1095.96 Z" fill="#000000" fill-rule="nonzero" fill-opacity="1" /><path clip-path="url(#clip120)" d="M132.316 886.951 Q135.672 887.669 137.547 889.937 Q139.445 892.206 139.445 895.539 Q139.445 900.655 135.927 903.456 Q132.408 906.256 125.927 906.256 Q123.751 906.256 121.436 905.817 Q119.144 905.4 116.691 904.544 L116.691 900.03 Q118.635 901.164 120.95 901.743 Q123.265 902.321 125.788 902.321 Q130.186 902.321 132.478 900.585 Q134.792 898.849 134.792 895.539 Q134.792 892.483 132.64 890.77 Q130.51 889.034 126.691 889.034 L122.663 889.034 L122.663 885.192 L126.876 885.192 Q130.325 885.192 132.154 883.826 Q133.982 882.437 133.982 879.845 Q133.982 877.183 132.084 875.771 Q130.209 874.335 126.691 874.335 Q124.769 874.335 122.57 874.752 Q120.371 875.169 117.732 876.048 L117.732 871.882 Q120.394 871.141 122.709 870.771 Q125.047 870.4 127.107 870.4 Q132.431 870.4 135.533 872.831 Q138.635 875.238 138.635 879.358 Q138.635 882.229 136.992 884.22 Q135.348 886.187 132.316 886.951 Z" fill="#000000" fill-rule="nonzero" fill-opacity="1" /><path clip-path="url(#clip120)" d="M129.862 680.791 L118.056 699.24 L129.862 699.24 L129.862 680.791 M128.635 676.717 L134.515 676.717 L134.515 699.24 L139.445 699.24 L139.445 703.129 L134.515 703.129 L134.515 711.277 L129.862 711.277 L129.862 703.129 L114.26 703.129 L114.26 698.615 L128.635 676.717 Z" fill="#000000" fill-rule="nonzero" fill-opacity="1" /><path clip-path="url(#clip120)" d="M118.543 482.408 L136.899 482.408 L136.899 486.343 L122.825 486.343 L122.825 494.815 Q123.843 494.468 124.862 494.306 Q125.88 494.121 126.899 494.121 Q132.686 494.121 136.066 497.292 Q139.445 500.464 139.445 505.88 Q139.445 511.459 135.973 514.561 Q132.501 517.639 126.181 517.639 Q124.005 517.639 121.737 517.269 Q119.492 516.899 117.084 516.158 L117.084 511.459 Q119.168 512.593 121.39 513.149 Q123.612 513.704 126.089 513.704 Q130.093 513.704 132.431 511.598 Q134.769 509.491 134.769 505.88 Q134.769 502.269 132.431 500.163 Q130.093 498.056 126.089 498.056 Q124.214 498.056 122.339 498.473 Q120.487 498.889 118.543 499.769 L118.543 482.408 Z" fill="#000000" fill-rule="nonzero" fill-opacity="1" /><path clip-path="url(#clip120)" d="M127.917 303.516 Q124.769 303.516 122.918 305.669 Q121.089 307.822 121.089 311.572 Q121.089 315.298 122.918 317.474 Q124.769 319.627 127.917 319.627 Q131.066 319.627 132.894 317.474 Q134.746 315.298 134.746 311.572 Q134.746 307.822 132.894 305.669 Q131.066 303.516 127.917 303.516 M137.2 288.863 L137.2 293.123 Q135.441 292.289 133.635 291.849 Q131.853 291.41 130.093 291.41 Q125.464 291.41 123.01 294.535 Q120.58 297.66 120.232 303.979 Q121.598 301.965 123.658 300.9 Q125.718 299.812 128.195 299.812 Q133.404 299.812 136.413 302.984 Q139.445 306.132 139.445 311.572 Q139.445 316.896 136.297 320.113 Q133.149 323.331 127.917 323.331 Q121.922 323.331 118.751 318.747 Q115.58 314.141 115.58 305.414 Q115.58 297.22 119.468 292.359 Q123.357 287.475 129.908 287.475 Q131.667 287.475 133.45 287.822 Q135.255 288.169 137.2 288.863 Z" fill="#000000" fill-rule="nonzero" fill-opacity="1" /><path clip-path="url(#clip120)" d="M117.223 93.791 L139.445 93.791 L139.445 95.7817 L126.899 128.351 L122.015 128.351 L133.82 97.7261 L117.223 97.7261 L117.223 93.791 Z" fill="#000000" fill-rule="nonzero" fill-opacity="1" /><path clip-path="url(#clip120)" d="M16.4842 755.248 L16.4842 748.341 L36.0269 735.164 L16.4842 722.083 L16.4842 715.176 L41.3741 731.981 L64.0042 731.981 L64.0042 738.443 L41.3741 738.443 L16.4842 755.248 Z" fill="#000000" fill-rule="nonzero" fill-opacity="1" /><circle clip-path="url(#clip122)" cx="505.255" cy="930.329" r="14.4" fill="#009af9" fill-rule="evenodd" fill-opacity="1" stroke="#000000" stroke-opacity="1" stroke-width="3.2"/>
<circle clip-path="url(#clip122)" cx="431.069" cy="725.027" r="14.4" fill="#009af9" fill-rule="evenodd" fill-opacity="1" stroke="#000000" stroke-opacity="1" stroke-width="3.2"/>
<circle clip-path="url(#clip122)" cx="391.681" cy="1265.02" r="14.4" fill="#009af9" fill-rule="evenodd" fill-opacity="1" stroke="#000000" stroke-opacity="1" stroke-width="3.2"/>
<circle clip-path="url(#clip122)" cx="237.067" cy="1384.24" r="14.4" fill="#009af9" fill-rule="evenodd" fill-opacity="1" stroke="#000000" stroke-opacity="1" stroke-width="3.2"/>
<circle clip-path="url(#clip122)" cx="281.502" cy="1235.48" r="14.4" fill="#009af9" fill-rule="evenodd" fill-opacity="1" stroke="#000000" stroke-opacity="1" stroke-width="3.2"/>
<circle clip-path="url(#clip122)" cx="2130.13" cy="86.1857" r="14.4" fill="#e26f46" fill-rule="evenodd" fill-opacity="1" stroke="#000000" stroke-opacity="1" stroke-width="3.2"/>
<circle clip-path="url(#clip122)" cx="2248.8" cy="1304.32" r="14.4" fill="#e26f46" fill-rule="evenodd" fill-opacity="1" stroke="#000000" stroke-opacity="1" stroke-width="3.2"/>
<circle clip-path="url(#clip122)" cx="1694.52" cy="898.252" r="14.4" fill="#e26f46" fill-rule="evenodd" fill-opacity="1" stroke="#000000" stroke-opacity="1" stroke-width="3.2"/>
<circle clip-path="url(#clip122)" cx="1661.7" cy="1250.22" r="14.4" fill="#e26f46" fill-rule="evenodd" fill-opacity="1" stroke="#000000" stroke-opacity="1" stroke-width="3.2"/>
<circle clip-path="url(#clip122)" cx="2291.13" cy="427.84" r="14.4" fill="#e26f46" fill-rule="evenodd" fill-opacity="1" stroke="#000000" stroke-opacity="1" stroke-width="3.2"/>
<path clip-path="url(#clip120)" d="M248.022 248.629 L672.211 248.629 L672.211 93.1086 L248.022 93.1086  Z" fill="#ffffff" fill-rule="evenodd" fill-opacity="1"/>
<polyline clip-path="url(#clip120)" style="stroke:#000000; stroke-linecap:round; stroke-linejoin:round; stroke-width:4; stroke-opacity:1; fill:none" points="248.022,248.629 672.211,248.629 672.211,93.1086 248.022,93.1086 248.022,248.629 "/>
<circle clip-path="url(#clip120)" cx="344.792" cy="144.949" r="20.48" fill="#009af9" fill-rule="evenodd" fill-opacity="1" stroke="#000000" stroke-opacity="1" stroke-width="4.55111"/>
<path clip-path="url(#clip120)" d="M469.431 130.331 L469.431 135.261 Q467.07 133.062 464.385 131.974 Q461.723 130.886 458.714 130.886 Q452.788 130.886 449.64 134.52 Q446.491 138.132 446.491 144.983 Q446.491 151.812 449.64 155.446 Q452.788 159.057 458.714 159.057 Q461.723 159.057 464.385 157.969 Q467.07 156.881 469.431 154.682 L469.431 159.567 Q466.977 161.233 464.223 162.067 Q461.491 162.9 458.436 162.9 Q450.589 162.9 446.075 158.108 Q441.561 153.293 441.561 144.983 Q441.561 136.65 446.075 131.858 Q450.589 127.044 458.436 127.044 Q461.538 127.044 464.269 127.877 Q467.024 128.687 469.431 130.331 Z" fill="#000000" fill-rule="nonzero" fill-opacity="1" /><path clip-path="url(#clip120)" d="M476.468 126.21 L480.727 126.21 L480.727 162.229 L476.468 162.229 L476.468 126.21 Z" fill="#000000" fill-rule="nonzero" fill-opacity="1" /><path clip-path="url(#clip120)" d="M489.2 151.997 L489.2 136.303 L493.459 136.303 L493.459 151.835 Q493.459 155.516 494.894 157.368 Q496.329 159.196 499.2 159.196 Q502.649 159.196 504.639 156.997 Q506.653 154.798 506.653 151.002 L506.653 136.303 L510.912 136.303 L510.912 162.229 L506.653 162.229 L506.653 158.247 Q505.102 160.608 503.042 161.766 Q501.005 162.9 498.297 162.9 Q493.829 162.9 491.514 160.122 Q489.2 157.344 489.2 151.997 M499.917 135.678 L499.917 135.678 Z" fill="#000000" fill-rule="nonzero" fill-opacity="1" /><path clip-path="url(#clip120)" d="M536.213 137.067 L536.213 141.094 Q534.408 140.169 532.463 139.706 Q530.519 139.243 528.435 139.243 Q525.264 139.243 523.667 140.215 Q522.093 141.187 522.093 143.131 Q522.093 144.613 523.227 145.469 Q524.361 146.303 527.787 147.067 L529.246 147.391 Q533.783 148.363 535.681 150.145 Q537.602 151.905 537.602 155.076 Q537.602 158.687 534.732 160.793 Q531.885 162.9 526.885 162.9 Q524.801 162.9 522.533 162.483 Q520.287 162.09 517.787 161.28 L517.787 156.881 Q520.149 158.108 522.44 158.733 Q524.732 159.335 526.977 159.335 Q529.986 159.335 531.607 158.317 Q533.227 157.275 533.227 155.4 Q533.227 153.664 532.047 152.738 Q530.889 151.812 526.931 150.956 L525.449 150.608 Q521.491 149.775 519.732 148.062 Q517.973 146.326 517.973 143.317 Q517.973 139.659 520.565 137.669 Q523.158 135.678 527.926 135.678 Q530.287 135.678 532.371 136.025 Q534.454 136.372 536.213 137.067 Z" fill="#000000" fill-rule="nonzero" fill-opacity="1" /><path clip-path="url(#clip120)" d="M548.597 128.942 L548.597 136.303 L557.371 136.303 L557.371 139.613 L548.597 139.613 L548.597 153.687 Q548.597 156.858 549.454 157.761 Q550.334 158.664 552.996 158.664 L557.371 158.664 L557.371 162.229 L552.996 162.229 Q548.065 162.229 546.19 160.4 Q544.315 158.548 544.315 153.687 L544.315 139.613 L541.19 139.613 L541.19 136.303 L544.315 136.303 L544.315 128.942 L548.597 128.942 Z" fill="#000000" fill-rule="nonzero" fill-opacity="1" /><path clip-path="url(#clip120)" d="M585.148 148.201 L585.148 150.284 L565.565 150.284 Q565.843 154.682 568.204 156.997 Q570.588 159.289 574.824 159.289 Q577.278 159.289 579.569 158.687 Q581.884 158.085 584.153 156.881 L584.153 160.909 Q581.861 161.881 579.454 162.391 Q577.046 162.9 574.57 162.9 Q568.366 162.9 564.732 159.289 Q561.121 155.678 561.121 149.52 Q561.121 143.155 564.546 139.428 Q567.995 135.678 573.829 135.678 Q579.06 135.678 582.093 139.057 Q585.148 142.414 585.148 148.201 M580.889 146.951 Q580.843 143.456 578.921 141.372 Q577.023 139.289 573.875 139.289 Q570.31 139.289 568.158 141.303 Q566.028 143.317 565.704 146.974 L580.889 146.951 Z" fill="#000000" fill-rule="nonzero" fill-opacity="1" /><path clip-path="url(#clip120)" d="M607.162 140.284 Q606.444 139.868 605.588 139.682 Q604.755 139.474 603.736 139.474 Q600.125 139.474 598.18 141.835 Q596.259 144.173 596.259 148.571 L596.259 162.229 L591.977 162.229 L591.977 136.303 L596.259 136.303 L596.259 140.331 Q597.602 137.969 599.755 136.835 Q601.907 135.678 604.986 135.678 Q605.426 135.678 605.958 135.747 Q606.491 135.794 607.139 135.909 L607.162 140.284 Z" fill="#000000" fill-rule="nonzero" fill-opacity="1" /><path clip-path="url(#clip120)" d="M628.111 158.293 L635.75 158.293 L635.75 131.928 L627.44 133.595 L627.44 129.335 L635.703 127.669 L640.379 127.669 L640.379 158.293 L648.018 158.293 L648.018 162.229 L628.111 162.229 L628.111 158.293 Z" fill="#000000" fill-rule="nonzero" fill-opacity="1" /><circle clip-path="url(#clip120)" cx="344.792" cy="196.789" r="20.48" fill="#e26f46" fill-rule="evenodd" fill-opacity="1" stroke="#000000" stroke-opacity="1" stroke-width="4.55111"/>
<path clip-path="url(#clip120)" d="M469.431 182.171 L469.431 187.101 Q467.07 184.902 464.385 183.814 Q461.723 182.726 458.714 182.726 Q452.788 182.726 449.64 186.36 Q446.491 189.972 446.491 196.823 Q446.491 203.652 449.64 207.286 Q452.788 210.897 458.714 210.897 Q461.723 210.897 464.385 209.809 Q467.07 208.721 469.431 206.522 L469.431 211.407 Q466.977 213.073 464.223 213.907 Q461.491 214.74 458.436 214.74 Q450.589 214.74 446.075 209.948 Q441.561 205.133 441.561 196.823 Q441.561 188.49 446.075 183.698 Q450.589 178.884 458.436 178.884 Q461.538 178.884 464.269 179.717 Q467.024 180.527 469.431 182.171 Z" fill="#000000" fill-rule="nonzero" fill-opacity="1" /><path clip-path="url(#clip120)" d="M476.468 178.05 L480.727 178.05 L480.727 214.069 L476.468 214.069 L476.468 178.05 Z" fill="#000000" fill-rule="nonzero" fill-opacity="1" /><path clip-path="url(#clip120)" d="M489.2 203.837 L489.2 188.143 L493.459 188.143 L493.459 203.675 Q493.459 207.356 494.894 209.208 Q496.329 211.036 499.2 211.036 Q502.649 211.036 504.639 208.837 Q506.653 206.638 506.653 202.842 L506.653 188.143 L510.912 188.143 L510.912 214.069 L506.653 214.069 L506.653 210.087 Q505.102 212.448 503.042 213.606 Q501.005 214.74 498.297 214.74 Q493.829 214.74 491.514 211.962 Q489.2 209.184 489.2 203.837 M499.917 187.518 L499.917 187.518 Z" fill="#000000" fill-rule="nonzero" fill-opacity="1" /><path clip-path="url(#clip120)" d="M536.213 188.907 L536.213 192.934 Q534.408 192.009 532.463 191.546 Q530.519 191.083 528.435 191.083 Q525.264 191.083 523.667 192.055 Q522.093 193.027 522.093 194.971 Q522.093 196.453 523.227 197.309 Q524.361 198.143 527.787 198.907 L529.246 199.231 Q533.783 200.203 535.681 201.985 Q537.602 203.745 537.602 206.916 Q537.602 210.527 534.732 212.633 Q531.885 214.74 526.885 214.74 Q524.801 214.74 522.533 214.323 Q520.287 213.93 517.787 213.12 L517.787 208.721 Q520.149 209.948 522.44 210.573 Q524.732 211.175 526.977 211.175 Q529.986 211.175 531.607 210.157 Q533.227 209.115 533.227 207.24 Q533.227 205.504 532.047 204.578 Q530.889 203.652 526.931 202.796 L525.449 202.448 Q521.491 201.615 519.732 199.902 Q517.973 198.166 517.973 195.157 Q517.973 191.499 520.565 189.509 Q523.158 187.518 527.926 187.518 Q530.287 187.518 532.371 187.865 Q534.454 188.212 536.213 188.907 Z" fill="#000000" fill-rule="nonzero" fill-opacity="1" /><path clip-path="url(#clip120)" d="M548.597 180.782 L548.597 188.143 L557.371 188.143 L557.371 191.453 L548.597 191.453 L548.597 205.527 Q548.597 208.698 549.454 209.601 Q550.334 210.504 552.996 210.504 L557.371 210.504 L557.371 214.069 L552.996 214.069 Q548.065 214.069 546.19 212.24 Q544.315 210.388 544.315 205.527 L544.315 191.453 L541.19 191.453 L541.19 188.143 L544.315 188.143 L544.315 180.782 L548.597 180.782 Z" fill="#000000" fill-rule="nonzero" fill-opacity="1" /><path clip-path="url(#clip120)" d="M585.148 200.041 L585.148 202.124 L565.565 202.124 Q565.843 206.522 568.204 208.837 Q570.588 211.129 574.824 211.129 Q577.278 211.129 579.569 210.527 Q581.884 209.925 584.153 208.721 L584.153 212.749 Q581.861 213.721 579.454 214.231 Q577.046 214.74 574.57 214.74 Q568.366 214.74 564.732 211.129 Q561.121 207.518 561.121 201.36 Q561.121 194.995 564.546 191.268 Q567.995 187.518 573.829 187.518 Q579.06 187.518 582.093 190.897 Q585.148 194.254 585.148 200.041 M580.889 198.791 Q580.843 195.296 578.921 193.212 Q577.023 191.129 573.875 191.129 Q570.31 191.129 568.158 193.143 Q566.028 195.157 565.704 198.814 L580.889 198.791 Z" fill="#000000" fill-rule="nonzero" fill-opacity="1" /><path clip-path="url(#clip120)" d="M607.162 192.124 Q606.444 191.708 605.588 191.522 Q604.755 191.314 603.736 191.314 Q600.125 191.314 598.18 193.675 Q596.259 196.013 596.259 200.411 L596.259 214.069 L591.977 214.069 L591.977 188.143 L596.259 188.143 L596.259 192.171 Q597.602 189.809 599.755 188.675 Q601.907 187.518 604.986 187.518 Q605.426 187.518 605.958 187.587 Q606.491 187.634 607.139 187.749 L607.162 192.124 Z" fill="#000000" fill-rule="nonzero" fill-opacity="1" /><path clip-path="url(#clip120)" d="M631.328 210.133 L647.648 210.133 L647.648 214.069 L625.703 214.069 L625.703 210.133 Q628.366 207.379 632.949 202.749 Q637.555 198.096 638.736 196.754 Q640.981 194.231 641.861 192.495 Q642.764 190.735 642.764 189.046 Q642.764 186.291 640.819 184.555 Q638.898 182.819 635.796 182.819 Q633.597 182.819 631.143 183.583 Q628.713 184.347 625.935 185.897 L625.935 181.175 Q628.759 180.041 631.213 179.462 Q633.666 178.884 635.703 178.884 Q641.074 178.884 644.268 181.569 Q647.463 184.254 647.463 188.745 Q647.463 190.874 646.652 192.796 Q645.865 194.694 643.759 197.286 Q643.18 197.958 640.078 201.175 Q636.977 204.37 631.328 210.133 Z" fill="#000000" fill-rule="nonzero" fill-opacity="1" /></svg>
