<?xml version="1.0" encoding="utf-8"?>
<svg xmlns="http://www.w3.org/2000/svg" xmlns:xlink="http://www.w3.org/1999/xlink" width="600" height="400" viewBox="0 0 2400 1600">
<defs>
  <clipPath id="clip530">
    <rect x="0" y="0" width="2400" height="1600"/>
  </clipPath>
</defs>
<path clip-path="url(#clip530)" d="M0 1600 L2400 1600 L2400 0 L0 0  Z" fill="#ffffff" fill-rule="evenodd" fill-opacity="1"/>
<defs>
  <clipPath id="clip531">
    <rect x="480" y="0" width="1681" height="1600"/>
  </clipPath>
</defs>
<path clip-path="url(#clip530)" d="M112.177 1486.45 L2352.76 1486.45 L2352.76 47.2441 L112.177 47.2441  Z" fill="#ffffff" fill-rule="evenodd" fill-opacity="1"/>
<defs>
  <clipPath id="clip532">
    <rect x="112" y="47" width="2242" height="1440"/>
  </clipPath>
</defs>
<polyline clip-path="url(#clip530)" style="stroke:#000000; stroke-linecap:round; stroke-linejoin:round; stroke-width:4; stroke-opacity:1; fill:none" points="112.177,1486.45 2352.76,1486.45 "/>
<polyline clip-path="url(#clip530)" style="stroke:#ffffff; stroke-linecap:round; stroke-linejoin:round; stroke-width:4; stroke-opacity:1; fill:none" points="224.206,1486.45 224.206,1467.55 "/>
<polyline clip-path="url(#clip530)" style="stroke:#ffffff; stroke-linecap:round; stroke-linejoin:round; stroke-width:4; stroke-opacity:1; fill:none" points="448.264,1486.45 448.264,1467.55 "/>
<polyline clip-path="url(#clip530)" style="stroke:#ffffff; stroke-linecap:round; stroke-linejoin:round; stroke-width:4; stroke-opacity:1; fill:none" points="672.322,1486.45 672.322,1467.55 "/>
<polyline clip-path="url(#clip530)" style="stroke:#ffffff; stroke-linecap:round; stroke-linejoin:round; stroke-width:4; stroke-opacity:1; fill:none" points="896.38,1486.45 896.38,1467.55 "/>
<polyline clip-path="url(#clip530)" style="stroke:#ffffff; stroke-linecap:round; stroke-linejoin:round; stroke-width:4; stroke-opacity:1; fill:none" points="1120.44,1486.45 1120.44,1467.55 "/>
<polyline clip-path="url(#clip530)" style="stroke:#ffffff; stroke-linecap:round; stroke-linejoin:round; stroke-width:4; stroke-opacity:1; fill:none" points="1344.5,1486.45 1344.5,1467.55 "/>
<polyline clip-path="url(#clip530)" style="stroke:#ffffff; stroke-linecap:round; stroke-linejoin:round; stroke-width:4; stroke-opacity:1; fill:none" points="1568.55,1486.45 1568.55,1467.55 "/>
<polyline clip-path="url(#clip530)" style="stroke:#ffffff; stroke-linecap:round; stroke-linejoin:round; stroke-width:4; stroke-opacity:1; fill:none" points="1792.61,1486.45 1792.61,1467.55 "/>
<polyline clip-path="url(#clip530)" style="stroke:#ffffff; stroke-linecap:round; stroke-linejoin:round; stroke-width:4; stroke-opacity:1; fill:none" points="2016.67,1486.45 2016.67,1467.55 "/>
<polyline clip-path="url(#clip530)" style="stroke:#ffffff; stroke-linecap:round; stroke-linejoin:round; stroke-width:4; stroke-opacity:1; fill:none" points="2240.73,1486.45 2240.73,1467.55 "/>
<path clip-path="url(#clip530)" d="M224.206 1532.44 Q220.873 1532.44 218.952 1534.22 Q217.053 1536 217.053 1539.13 Q217.053 1542.25 218.952 1544.03 Q220.873 1545.82 224.206 1545.82 Q227.539 1545.82 229.461 1544.03 Q231.382 1542.23 231.382 1539.13 Q231.382 1536 229.461 1534.22 Q227.563 1532.44 224.206 1532.44 M219.53 1530.45 Q216.521 1529.7 214.831 1527.64 Q213.165 1525.58 213.165 1522.62 Q213.165 1518.48 216.104 1516.07 Q219.067 1513.66 224.206 1513.66 Q229.368 1513.66 232.308 1516.07 Q235.248 1518.48 235.248 1522.62 Q235.248 1525.58 233.558 1527.64 Q231.891 1529.7 228.905 1530.45 Q232.285 1531.23 234.16 1533.52 Q236.058 1535.82 236.058 1539.13 Q236.058 1544.15 232.979 1546.83 Q229.924 1549.52 224.206 1549.52 Q218.489 1549.52 215.41 1546.83 Q212.354 1544.15 212.354 1539.13 Q212.354 1535.82 214.252 1533.52 Q216.151 1531.23 219.53 1530.45 M217.817 1523.06 Q217.817 1525.75 219.484 1527.25 Q221.174 1528.76 224.206 1528.76 Q227.215 1528.76 228.905 1527.25 Q230.618 1525.75 230.618 1523.06 Q230.618 1520.38 228.905 1518.87 Q227.215 1517.37 224.206 1517.37 Q221.174 1517.37 219.484 1518.87 Q217.817 1520.38 217.817 1523.06 Z" fill="#000000" fill-rule="nonzero" fill-opacity="1" /><path clip-path="url(#clip530)" d="M448.669 1529.7 Q445.521 1529.7 443.669 1531.86 Q441.84 1534.01 441.84 1537.76 Q441.84 1541.49 443.669 1543.66 Q445.521 1545.82 448.669 1545.82 Q451.817 1545.82 453.646 1543.66 Q455.498 1541.49 455.498 1537.76 Q455.498 1534.01 453.646 1531.86 Q451.817 1529.7 448.669 1529.7 M457.951 1515.05 L457.951 1519.31 Q456.192 1518.48 454.387 1518.04 Q452.604 1517.6 450.845 1517.6 Q446.215 1517.6 443.762 1520.72 Q441.331 1523.85 440.984 1530.17 Q442.35 1528.15 444.41 1527.09 Q446.47 1526 448.947 1526 Q454.155 1526 457.164 1529.17 Q460.197 1532.32 460.197 1537.76 Q460.197 1543.08 457.049 1546.3 Q453.901 1549.52 448.669 1549.52 Q442.674 1549.52 439.502 1544.94 Q436.331 1540.33 436.331 1531.6 Q436.331 1523.41 440.22 1518.55 Q444.109 1513.66 450.66 1513.66 Q452.419 1513.66 454.201 1514.01 Q456.007 1514.36 457.951 1515.05 Z" fill="#000000" fill-rule="nonzero" fill-opacity="1" /><path clip-path="url(#clip530)" d="M661.211 1514.29 L683.433 1514.29 L683.433 1516.28 L670.887 1548.85 L666.002 1548.85 L677.808 1518.22 L661.211 1518.22 L661.211 1514.29 Z" fill="#000000" fill-rule="nonzero" fill-opacity="1" /><path clip-path="url(#clip530)" d="M886.681 1548.13 L886.681 1543.87 Q888.44 1544.7 890.246 1545.14 Q892.051 1545.58 893.787 1545.58 Q898.417 1545.58 900.847 1542.48 Q903.301 1539.36 903.648 1533.01 Q902.306 1535.01 900.245 1536.07 Q898.185 1537.13 895.685 1537.13 Q890.5 1537.13 887.468 1534.01 Q884.458 1530.86 884.458 1525.42 Q884.458 1520.1 887.607 1516.88 Q890.755 1513.66 895.986 1513.66 Q901.982 1513.66 905.13 1518.27 Q908.301 1522.85 908.301 1531.6 Q908.301 1539.77 904.412 1544.66 Q900.546 1549.52 893.995 1549.52 Q892.236 1549.52 890.431 1549.17 Q888.625 1548.82 886.681 1548.13 M895.986 1533.48 Q899.134 1533.48 900.963 1531.32 Q902.815 1529.17 902.815 1525.42 Q902.815 1521.7 900.963 1519.54 Q899.134 1517.37 895.986 1517.37 Q892.838 1517.37 890.986 1519.54 Q889.158 1521.7 889.158 1525.42 Q889.158 1529.17 890.986 1531.32 Q892.838 1533.48 895.986 1533.48 Z" fill="#000000" fill-rule="nonzero" fill-opacity="1" /><path clip-path="url(#clip530)" d="M1095.13 1544.91 L1102.76 1544.91 L1102.76 1518.55 L1094.45 1520.21 L1094.45 1515.95 L1102.72 1514.29 L1107.39 1514.29 L1107.39 1544.91 L1115.03 1544.91 L1115.03 1548.85 L1095.13 1548.85 L1095.13 1544.91 Z" fill="#000000" fill-rule="nonzero" fill-opacity="1" /><path clip-path="url(#clip530)" d="M1134.48 1517.37 Q1130.87 1517.37 1129.04 1520.93 Q1127.23 1524.47 1127.23 1531.6 Q1127.23 1538.71 1129.04 1542.27 Q1130.87 1545.82 1134.48 1545.82 Q1138.11 1545.82 1139.92 1542.27 Q1141.75 1538.71 1141.75 1531.6 Q1141.75 1524.47 1139.92 1520.93 Q1138.11 1517.37 1134.48 1517.37 M1134.48 1513.66 Q1140.29 1513.66 1143.34 1518.27 Q1146.42 1522.85 1146.42 1531.6 Q1146.42 1540.33 1143.34 1544.94 Q1140.29 1549.52 1134.48 1549.52 Q1128.67 1549.52 1125.59 1544.94 Q1122.53 1540.33 1122.53 1531.6 Q1122.53 1522.85 1125.59 1518.27 Q1128.67 1513.66 1134.48 1513.66 Z" fill="#000000" fill-rule="nonzero" fill-opacity="1" /><path clip-path="url(#clip530)" d="M1339.15 1544.91 L1355.47 1544.91 L1355.47 1548.85 L1333.52 1548.85 L1333.52 1544.91 Q1336.19 1542.16 1340.77 1537.53 Q1345.38 1532.88 1346.56 1531.53 Q1348.8 1529.01 1349.68 1527.27 Q1350.58 1525.51 1350.58 1523.82 Q1350.58 1521.07 1348.64 1519.33 Q1346.72 1517.6 1343.62 1517.6 Q1341.42 1517.6 1338.96 1518.36 Q1336.53 1519.13 1333.75 1520.68 L1333.75 1515.95 Q1336.58 1514.82 1339.03 1514.24 Q1341.49 1513.66 1343.52 1513.66 Q1348.89 1513.66 1352.09 1516.35 Q1355.28 1519.03 1355.28 1523.52 Q1355.28 1525.65 1354.47 1527.57 Q1353.69 1529.47 1351.58 1532.07 Q1351 1532.74 1347.9 1535.95 Q1344.8 1539.15 1339.15 1544.91 Z" fill="#000000" fill-rule="nonzero" fill-opacity="1" /><path clip-path="url(#clip530)" d="M1572.8 1530.21 Q1576.16 1530.93 1578.03 1533.2 Q1579.93 1535.47 1579.93 1538.8 Q1579.93 1543.92 1576.41 1546.72 Q1572.89 1549.52 1566.41 1549.52 Q1564.24 1549.52 1561.92 1549.08 Q1559.63 1548.66 1557.18 1547.81 L1557.18 1543.29 Q1559.12 1544.43 1561.44 1545.01 Q1563.75 1545.58 1566.27 1545.58 Q1570.67 1545.58 1572.96 1543.85 Q1575.28 1542.11 1575.28 1538.8 Q1575.28 1535.75 1573.13 1534.03 Q1571 1532.3 1567.18 1532.3 L1563.15 1532.3 L1563.15 1528.45 L1567.36 1528.45 Q1570.81 1528.45 1572.64 1527.09 Q1574.47 1525.7 1574.47 1523.11 Q1574.47 1520.45 1572.57 1519.03 Q1570.69 1517.6 1567.18 1517.6 Q1565.25 1517.6 1563.06 1518.01 Q1560.86 1518.43 1558.22 1519.31 L1558.22 1515.14 Q1560.88 1514.4 1563.19 1514.03 Q1565.53 1513.66 1567.59 1513.66 Q1572.92 1513.66 1576.02 1516.09 Q1579.12 1518.5 1579.12 1522.62 Q1579.12 1525.49 1577.48 1527.48 Q1575.83 1529.45 1572.8 1530.21 Z" fill="#000000" fill-rule="nonzero" fill-opacity="1" /><path clip-path="url(#clip530)" d="M1782.89 1514.29 L1801.25 1514.29 L1801.25 1518.22 L1787.17 1518.22 L1787.17 1526.7 Q1788.19 1526.35 1789.21 1526.19 Q1790.23 1526 1791.25 1526 Q1797.03 1526 1800.41 1529.17 Q1803.79 1532.34 1803.79 1537.76 Q1803.79 1543.34 1800.32 1546.44 Q1796.85 1549.52 1790.53 1549.52 Q1788.35 1549.52 1786.08 1549.15 Q1783.84 1548.78 1781.43 1548.04 L1781.43 1543.34 Q1783.51 1544.47 1785.74 1545.03 Q1787.96 1545.58 1790.44 1545.58 Q1794.44 1545.58 1796.78 1543.48 Q1799.12 1541.37 1799.12 1537.76 Q1799.12 1534.15 1796.78 1532.04 Q1794.44 1529.94 1790.44 1529.94 Q1788.56 1529.94 1786.69 1530.35 Q1784.83 1530.77 1782.89 1531.65 L1782.89 1514.29 Z" fill="#000000" fill-rule="nonzero" fill-opacity="1" /><path clip-path="url(#clip530)" d="M2007.05 1544.91 L2014.69 1544.91 L2014.69 1518.55 L2006.38 1520.21 L2006.38 1515.95 L2014.64 1514.29 L2019.32 1514.29 L2019.32 1544.91 L2026.96 1544.91 L2026.96 1548.85 L2007.05 1548.85 L2007.05 1544.91 Z" fill="#000000" fill-rule="nonzero" fill-opacity="1" /><path clip-path="url(#clip530)" d="M2243.74 1518.36 L2231.93 1536.81 L2243.74 1536.81 L2243.74 1518.36 M2242.51 1514.29 L2248.39 1514.29 L2248.39 1536.81 L2253.32 1536.81 L2253.32 1540.7 L2248.39 1540.7 L2248.39 1548.85 L2243.74 1548.85 L2243.74 1540.7 L2228.13 1540.7 L2228.13 1536.19 L2242.51 1514.29 Z" fill="#000000" fill-rule="nonzero" fill-opacity="1" /><polyline clip-path="url(#clip532)" style="stroke:#000000; stroke-linecap:round; stroke-linejoin:round; stroke-width:2; stroke-opacity:0.1; fill:none" points="112.177,1486.45 2352.76,1486.45 "/>
<polyline clip-path="url(#clip532)" style="stroke:#000000; stroke-linecap:round; stroke-linejoin:round; stroke-width:2; stroke-opacity:0.1; fill:none" points="112.177,1194.29 2352.76,1194.29 "/>
<polyline clip-path="url(#clip532)" style="stroke:#000000; stroke-linecap:round; stroke-linejoin:round; stroke-width:2; stroke-opacity:0.1; fill:none" points="112.177,902.129 2352.76,902.129 "/>
<polyline clip-path="url(#clip532)" style="stroke:#000000; stroke-linecap:round; stroke-linejoin:round; stroke-width:2; stroke-opacity:0.1; fill:none" points="112.177,609.97 2352.76,609.97 "/>
<polyline clip-path="url(#clip532)" style="stroke:#000000; stroke-linecap:round; stroke-linejoin:round; stroke-width:2; stroke-opacity:0.1; fill:none" points="112.177,317.811 2352.76,317.811 "/>
<polyline clip-path="url(#clip530)" style="stroke:#000000; stroke-linecap:round; stroke-linejoin:round; stroke-width:4; stroke-opacity:1; fill:none" points="112.177,1486.45 112.177,47.2441 "/>
<polyline clip-path="url(#clip530)" style="stroke:#000000; stroke-linecap:round; stroke-linejoin:round; stroke-width:4; stroke-opacity:1; fill:none" points="112.177,1486.45 131.075,1486.45 "/>
<polyline clip-path="url(#clip530)" style="stroke:#000000; stroke-linecap:round; stroke-linejoin:round; stroke-width:4; stroke-opacity:1; fill:none" points="112.177,1194.29 131.075,1194.29 "/>
<polyline clip-path="url(#clip530)" style="stroke:#000000; stroke-linecap:round; stroke-linejoin:round; stroke-width:4; stroke-opacity:1; fill:none" points="112.177,902.129 131.075,902.129 "/>
<polyline clip-path="url(#clip530)" style="stroke:#000000; stroke-linecap:round; stroke-linejoin:round; stroke-width:4; stroke-opacity:1; fill:none" points="112.177,609.97 131.075,609.97 "/>
<polyline clip-path="url(#clip530)" style="stroke:#000000; stroke-linecap:round; stroke-linejoin:round; stroke-width:4; stroke-opacity:1; fill:none" points="112.177,317.811 131.075,317.811 "/>
<path clip-path="url(#clip530)" d="M64.2328 1472.25 Q60.6217 1472.25 58.793 1475.81 Q56.9875 1479.35 56.9875 1486.48 Q56.9875 1493.59 58.793 1497.15 Q60.6217 1500.7 64.2328 1500.7 Q67.867 1500.7 69.6726 1497.15 Q71.5013 1493.59 71.5013 1486.48 Q71.5013 1479.35 69.6726 1475.81 Q67.867 1472.25 64.2328 1472.25 M64.2328 1468.54 Q70.0429 1468.54 73.0985 1473.15 Q76.1772 1477.73 76.1772 1486.48 Q76.1772 1495.21 73.0985 1499.82 Q70.0429 1504.4 64.2328 1504.4 Q58.4226 1504.4 55.344 1499.82 Q52.2884 1495.21 52.2884 1486.48 Q52.2884 1477.73 55.344 1473.15 Q58.4226 1468.54 64.2328 1468.54 Z" fill="#000000" fill-rule="nonzero" fill-opacity="1" /><path clip-path="url(#clip530)" d="M56.2699 1207.63 L63.9087 1207.63 L63.9087 1181.27 L55.5986 1182.93 L55.5986 1178.68 L63.8624 1177.01 L68.5383 1177.01 L68.5383 1207.63 L76.1772 1207.63 L76.1772 1211.57 L56.2699 1211.57 L56.2699 1207.63 Z" fill="#000000" fill-rule="nonzero" fill-opacity="1" /><path clip-path="url(#clip530)" d="M59.8578 915.474 L76.1772 915.474 L76.1772 919.409 L54.2328 919.409 L54.2328 915.474 Q56.8949 912.719 61.4782 908.09 Q66.0846 903.437 67.2652 902.094 Q69.5105 899.571 70.3902 897.835 Q71.2929 896.076 71.2929 894.386 Q71.2929 891.632 69.3485 889.895 Q67.4272 888.159 64.3254 888.159 Q62.1263 888.159 59.6726 888.923 Q57.2421 889.687 54.4643 891.238 L54.4643 886.516 Q57.2884 885.382 59.7421 884.803 Q62.1958 884.224 64.2328 884.224 Q69.6031 884.224 72.7976 886.909 Q75.992 889.595 75.992 894.085 Q75.992 896.215 75.1818 898.136 Q74.3948 900.034 72.2883 902.627 Q71.7096 903.298 68.6078 906.516 Q65.5059 909.71 59.8578 915.474 Z" fill="#000000" fill-rule="nonzero" fill-opacity="1" /><path clip-path="url(#clip530)" d="M69.0476 608.616 Q72.404 609.333 74.279 611.602 Q76.1772 613.87 76.1772 617.204 Q76.1772 622.319 72.6587 625.12 Q69.1402 627.921 62.6587 627.921 Q60.4828 627.921 58.168 627.481 Q55.8764 627.065 53.4227 626.208 L53.4227 621.694 Q55.3671 622.829 57.6819 623.407 Q59.9967 623.986 62.5198 623.986 Q66.918 623.986 69.2096 622.25 Q71.5244 620.514 71.5244 617.204 Q71.5244 614.148 69.3717 612.435 Q67.242 610.699 63.4226 610.699 L59.3949 610.699 L59.3949 606.856 L63.6078 606.856 Q67.0569 606.856 68.8855 605.491 Q70.7142 604.102 70.7142 601.509 Q70.7142 598.847 68.8161 597.435 Q66.9411 596 63.4226 596 Q61.5013 596 59.3023 596.417 Q57.1032 596.833 54.4643 597.713 L54.4643 593.546 Q57.1264 592.806 59.4412 592.435 Q61.7791 592.065 63.8393 592.065 Q69.1633 592.065 72.2652 594.495 Q75.367 596.903 75.367 601.023 Q75.367 603.894 73.7235 605.884 Q72.08 607.852 69.0476 608.616 Z" fill="#000000" fill-rule="nonzero" fill-opacity="1" /><path clip-path="url(#clip530)" d="M66.5939 304.605 L54.7884 323.054 L66.5939 323.054 L66.5939 304.605 M65.367 300.531 L71.2466 300.531 L71.2466 323.054 L76.1772 323.054 L76.1772 326.942 L71.2466 326.942 L71.2466 335.091 L66.5939 335.091 L66.5939 326.942 L50.9921 326.942 L50.9921 322.429 L65.367 300.531 Z" fill="#000000" fill-rule="nonzero" fill-opacity="1" /><polyline clip-path="url(#clip532)" style="stroke:#000000; stroke-linecap:round; stroke-linejoin:round; stroke-width:4; stroke-opacity:1; fill:none" points="1568.55,1486.45 1568.55,1438.61 1792.61,1438.61 1792.61,1486.45 "/>
<polyline clip-path="url(#clip532)" style="stroke:#000000; stroke-linecap:round; stroke-linejoin:round; stroke-width:4; stroke-opacity:1; fill:none" points="2016.67,1486.45 2016.67,1342.78 2240.73,1342.78 2240.73,1486.45 "/>
<polyline clip-path="url(#clip532)" style="stroke:#000000; stroke-linecap:round; stroke-linejoin:round; stroke-width:4; stroke-opacity:1; fill:none" points="1680.58,1438.61 1680.58,1303.52 2128.7,1303.52 2128.7,1342.78 "/>
<polyline clip-path="url(#clip532)" style="stroke:#000000; stroke-linecap:round; stroke-linejoin:round; stroke-width:4; stroke-opacity:1; fill:none" points="896.38,1486.45 896.38,1257.88 1120.44,1257.88 1120.44,1486.45 "/>
<polyline clip-path="url(#clip532)" style="stroke:#000000; stroke-linecap:round; stroke-linejoin:round; stroke-width:4; stroke-opacity:1; fill:none" points="448.264,1486.45 448.264,1110.17 672.322,1110.17 672.322,1486.45 "/>
<polyline clip-path="url(#clip532)" style="stroke:#000000; stroke-linecap:round; stroke-linejoin:round; stroke-width:4; stroke-opacity:1; fill:none" points="224.206,1486.45 224.206,912.385 560.293,912.385 560.293,1110.17 "/>
<polyline clip-path="url(#clip532)" style="stroke:#000000; stroke-linecap:round; stroke-linejoin:round; stroke-width:4; stroke-opacity:1; fill:none" points="1344.5,1486.45 1344.5,674.722 1904.64,674.722 1904.64,1303.52 "/>
<polyline clip-path="url(#clip532)" style="stroke:#000000; stroke-linecap:round; stroke-linejoin:round; stroke-width:4; stroke-opacity:1; fill:none" points="1008.41,1257.88 1008.41,622.376 1624.57,622.376 1624.57,674.722 "/>
<polyline clip-path="url(#clip532)" style="stroke:#000000; stroke-linecap:round; stroke-linejoin:round; stroke-width:4; stroke-opacity:1; fill:none" points="392.25,912.385 392.25,47.2441 1316.49,47.2441 1316.49,622.376 "/>
</svg>
