<?xml version="1.0" encoding="utf-8"?>
<svg xmlns="http://www.w3.org/2000/svg" xmlns:xlink="http://www.w3.org/1999/xlink" width="600" height="400" viewBox="0 0 2400 1600">
<defs>
  <clipPath id="clip080">
    <rect x="0" y="0" width="2400" height="1600"/>
  </clipPath>
</defs>
<path clip-path="url(#clip080)" d="M0 1600 L2400 1600 L2400 0 L0 0  Z" fill="#ffffff" fill-rule="evenodd" fill-opacity="1"/>
<defs>
  <clipPath id="clip081">
    <rect x="480" y="0" width="1681" height="1600"/>
  </clipPath>
</defs>
<path clip-path="url(#clip080)" d="M175.445 1423.18 L2352.76 1423.18 L2352.76 47.2441 L175.445 47.2441  Z" fill="#ffffff" fill-rule="evenodd" fill-opacity="1"/>
<defs>
  <clipPath id="clip082">
    <rect x="175" y="47" width="2178" height="1377"/>
  </clipPath>
</defs>
<polyline clip-path="url(#clip082)" style="stroke:#000000; stroke-linecap:round; stroke-linejoin:round; stroke-width:2; stroke-opacity:0.1; fill:none" points="495.686,1423.18 495.686,47.2441 "/>
<polyline clip-path="url(#clip082)" style="stroke:#000000; stroke-linecap:round; stroke-linejoin:round; stroke-width:2; stroke-opacity:0.1; fill:none" points="999.408,1423.18 999.408,47.2441 "/>
<polyline clip-path="url(#clip082)" style="stroke:#000000; stroke-linecap:round; stroke-linejoin:round; stroke-width:2; stroke-opacity:0.1; fill:none" points="1503.13,1423.18 1503.13,47.2441 "/>
<polyline clip-path="url(#clip082)" style="stroke:#000000; stroke-linecap:round; stroke-linejoin:round; stroke-width:2; stroke-opacity:0.1; fill:none" points="2006.85,1423.18 2006.85,47.2441 "/>
<polyline clip-path="url(#clip080)" style="stroke:#000000; stroke-linecap:round; stroke-linejoin:round; stroke-width:4; stroke-opacity:1; fill:none" points="175.445,1423.18 2352.76,1423.18 "/>
<polyline clip-path="url(#clip080)" style="stroke:#000000; stroke-linecap:round; stroke-linejoin:round; stroke-width:4; stroke-opacity:1; fill:none" points="495.686,1423.18 495.686,1404.28 "/>
<polyline clip-path="url(#clip080)" style="stroke:#000000; stroke-linecap:round; stroke-linejoin:round; stroke-width:4; stroke-opacity:1; fill:none" points="999.408,1423.18 999.408,1404.28 "/>
<polyline clip-path="url(#clip080)" style="stroke:#000000; stroke-linecap:round; stroke-linejoin:round; stroke-width:4; stroke-opacity:1; fill:none" points="1503.13,1423.18 1503.13,1404.28 "/>
<polyline clip-path="url(#clip080)" style="stroke:#000000; stroke-linecap:round; stroke-linejoin:round; stroke-width:4; stroke-opacity:1; fill:none" points="2006.85,1423.18 2006.85,1404.28 "/>
<path clip-path="url(#clip080)" d="M490.338 1481.64 L506.658 1481.64 L506.658 1485.58 L484.713 1485.58 L484.713 1481.64 Q487.375 1478.89 491.959 1474.26 Q496.565 1469.61 497.746 1468.27 Q499.991 1465.74 500.871 1464.01 Q501.773 1462.25 501.773 1460.56 Q501.773 1457.8 499.829 1456.07 Q497.908 1454.33 494.806 1454.33 Q492.607 1454.33 490.153 1455.09 Q487.723 1455.86 484.945 1457.41 L484.945 1452.69 Q487.769 1451.55 490.223 1450.97 Q492.676 1450.39 494.713 1450.39 Q500.084 1450.39 503.278 1453.08 Q506.473 1455.77 506.473 1460.26 Q506.473 1462.39 505.662 1464.31 Q504.875 1466.2 502.769 1468.8 Q502.19 1469.47 499.088 1472.69 Q495.986 1475.88 490.338 1481.64 Z" fill="#000000" fill-rule="nonzero" fill-opacity="1" /><path clip-path="url(#clip080)" d="M1003.66 1466.95 Q1007.01 1467.66 1008.89 1469.93 Q1010.79 1472.2 1010.79 1475.53 Q1010.79 1480.65 1007.27 1483.45 Q1003.75 1486.25 997.267 1486.25 Q995.091 1486.25 992.776 1485.81 Q990.484 1485.39 988.031 1484.54 L988.031 1480.02 Q989.975 1481.16 992.29 1481.74 Q994.605 1482.32 997.128 1482.32 Q1001.53 1482.32 1003.82 1480.58 Q1006.13 1478.84 1006.13 1475.53 Q1006.13 1472.48 1003.98 1470.77 Q1001.85 1469.03 998.031 1469.03 L994.003 1469.03 L994.003 1465.19 L998.216 1465.19 Q1001.66 1465.19 1003.49 1463.82 Q1005.32 1462.43 1005.32 1459.84 Q1005.32 1457.18 1003.42 1455.77 Q1001.55 1454.33 998.031 1454.33 Q996.109 1454.33 993.91 1454.75 Q991.711 1455.16 989.072 1456.04 L989.072 1451.88 Q991.734 1451.14 994.049 1450.77 Q996.387 1450.39 998.447 1450.39 Q1003.77 1450.39 1006.87 1452.83 Q1009.98 1455.23 1009.98 1459.35 Q1009.98 1462.22 1008.33 1464.21 Q1006.69 1466.18 1003.66 1466.95 Z" fill="#000000" fill-rule="nonzero" fill-opacity="1" /><path clip-path="url(#clip080)" d="M1506.14 1455.09 L1494.33 1473.54 L1506.14 1473.54 L1506.14 1455.09 M1504.91 1451.02 L1510.79 1451.02 L1510.79 1473.54 L1515.72 1473.54 L1515.72 1477.43 L1510.79 1477.43 L1510.79 1485.58 L1506.14 1485.58 L1506.14 1477.43 L1490.54 1477.43 L1490.54 1472.92 L1504.91 1451.02 Z" fill="#000000" fill-rule="nonzero" fill-opacity="1" /><path clip-path="url(#clip080)" d="M1997.13 1451.02 L2015.49 1451.02 L2015.49 1454.96 L2001.41 1454.96 L2001.41 1463.43 Q2002.43 1463.08 2003.45 1462.92 Q2004.47 1462.73 2005.49 1462.73 Q2011.27 1462.73 2014.65 1465.9 Q2018.03 1469.08 2018.03 1474.49 Q2018.03 1480.07 2014.56 1483.17 Q2011.09 1486.25 2004.77 1486.25 Q2002.59 1486.25 2000.33 1485.88 Q1998.08 1485.51 1995.67 1484.77 L1995.67 1480.07 Q1997.76 1481.2 1999.98 1481.76 Q2002.2 1482.32 2004.68 1482.32 Q2008.68 1482.32 2011.02 1480.21 Q2013.36 1478.1 2013.36 1474.49 Q2013.36 1470.88 2011.02 1468.77 Q2008.68 1466.67 2004.68 1466.67 Q2002.8 1466.67 2000.93 1467.08 Q1999.08 1467.5 1997.13 1468.38 L1997.13 1451.02 Z" fill="#000000" fill-rule="nonzero" fill-opacity="1" /><path clip-path="url(#clip080)" d="M1245.93 1520.52 L1252.83 1520.52 L1264.64 1538.19 L1276.51 1520.52 L1283.42 1520.52 L1268.14 1543.34 L1284.44 1568.04 L1277.53 1568.04 L1264.16 1547.83 L1250.7 1568.04 L1243.76 1568.04 L1260.73 1542.68 L1245.93 1520.52 Z" fill="#000000" fill-rule="nonzero" fill-opacity="1" /><polyline clip-path="url(#clip082)" style="stroke:#000000; stroke-linecap:round; stroke-linejoin:round; stroke-width:2; stroke-opacity:0.1; fill:none" points="175.445,1401.82 2352.76,1401.82 "/>
<polyline clip-path="url(#clip082)" style="stroke:#000000; stroke-linecap:round; stroke-linejoin:round; stroke-width:2; stroke-opacity:0.1; fill:none" points="175.445,1051.45 2352.76,1051.45 "/>
<polyline clip-path="url(#clip082)" style="stroke:#000000; stroke-linecap:round; stroke-linejoin:round; stroke-width:2; stroke-opacity:0.1; fill:none" points="175.445,701.088 2352.76,701.088 "/>
<polyline clip-path="url(#clip082)" style="stroke:#000000; stroke-linecap:round; stroke-linejoin:round; stroke-width:2; stroke-opacity:0.1; fill:none" points="175.445,350.721 2352.76,350.721 "/>
<polyline clip-path="url(#clip080)" style="stroke:#000000; stroke-linecap:round; stroke-linejoin:round; stroke-width:4; stroke-opacity:1; fill:none" points="175.445,1423.18 175.445,47.2441 "/>
<polyline clip-path="url(#clip080)" style="stroke:#000000; stroke-linecap:round; stroke-linejoin:round; stroke-width:4; stroke-opacity:1; fill:none" points="175.445,1401.82 194.343,1401.82 "/>
<polyline clip-path="url(#clip080)" style="stroke:#000000; stroke-linecap:round; stroke-linejoin:round; stroke-width:4; stroke-opacity:1; fill:none" points="175.445,1051.45 194.343,1051.45 "/>
<polyline clip-path="url(#clip080)" style="stroke:#000000; stroke-linecap:round; stroke-linejoin:round; stroke-width:4; stroke-opacity:1; fill:none" points="175.445,701.088 194.343,701.088 "/>
<polyline clip-path="url(#clip080)" style="stroke:#000000; stroke-linecap:round; stroke-linejoin:round; stroke-width:4; stroke-opacity:1; fill:none" points="175.445,350.721 194.343,350.721 "/>
<path clip-path="url(#clip080)" d="M127.501 1387.62 Q123.89 1387.62 122.061 1391.19 Q120.255 1394.73 120.255 1401.86 Q120.255 1408.96 122.061 1412.53 Q123.89 1416.07 127.501 1416.07 Q131.135 1416.07 132.941 1412.53 Q134.769 1408.96 134.769 1401.86 Q134.769 1394.73 132.941 1391.19 Q131.135 1387.62 127.501 1387.62 M127.501 1383.92 Q133.311 1383.92 136.367 1388.52 Q139.445 1393.11 139.445 1401.86 Q139.445 1410.58 136.367 1415.19 Q133.311 1419.77 127.501 1419.77 Q121.691 1419.77 118.612 1415.19 Q115.556 1410.58 115.556 1401.86 Q115.556 1393.11 118.612 1388.52 Q121.691 1383.92 127.501 1383.92 Z" fill="#000000" fill-rule="nonzero" fill-opacity="1" /><path clip-path="url(#clip080)" d="M123.126 1064.8 L139.445 1064.8 L139.445 1068.73 L117.501 1068.73 L117.501 1064.8 Q120.163 1062.05 124.746 1057.42 Q129.353 1052.76 130.533 1051.42 Q132.779 1048.9 133.658 1047.16 Q134.561 1045.4 134.561 1043.71 Q134.561 1040.96 132.617 1039.22 Q130.695 1037.49 127.593 1037.49 Q125.394 1037.49 122.941 1038.25 Q120.51 1039.01 117.732 1040.56 L117.732 1035.84 Q120.556 1034.71 123.01 1034.13 Q125.464 1033.55 127.501 1033.55 Q132.871 1033.55 136.066 1036.24 Q139.26 1038.92 139.26 1043.41 Q139.26 1045.54 138.45 1047.46 Q137.663 1049.36 135.556 1051.95 Q134.978 1052.62 131.876 1055.84 Q128.774 1059.04 123.126 1064.8 Z" fill="#000000" fill-rule="nonzero" fill-opacity="1" /><path clip-path="url(#clip080)" d="M129.862 687.882 L118.056 706.331 L129.862 706.331 L129.862 687.882 M128.635 683.808 L134.515 683.808 L134.515 706.331 L139.445 706.331 L139.445 710.22 L134.515 710.22 L134.515 718.368 L129.862 718.368 L129.862 710.22 L114.26 710.22 L114.26 705.706 L128.635 683.808 Z" fill="#000000" fill-rule="nonzero" fill-opacity="1" /><path clip-path="url(#clip080)" d="M127.917 348.857 Q124.769 348.857 122.918 351.01 Q121.089 353.163 121.089 356.913 Q121.089 360.64 122.918 362.816 Q124.769 364.969 127.917 364.969 Q131.066 364.969 132.894 362.816 Q134.746 360.64 134.746 356.913 Q134.746 353.163 132.894 351.01 Q131.066 348.857 127.917 348.857 M137.2 334.205 L137.2 338.464 Q135.441 337.631 133.635 337.191 Q131.853 336.751 130.093 336.751 Q125.464 336.751 123.01 339.876 Q120.58 343.001 120.232 349.32 Q121.598 347.307 123.658 346.242 Q125.718 345.154 128.195 345.154 Q133.404 345.154 136.413 348.325 Q139.445 351.473 139.445 356.913 Q139.445 362.237 136.297 365.455 Q133.149 368.672 127.917 368.672 Q121.922 368.672 118.751 364.089 Q115.58 359.482 115.58 350.756 Q115.58 342.561 119.468 337.7 Q123.357 332.816 129.908 332.816 Q131.667 332.816 133.45 333.163 Q135.255 333.51 137.2 334.205 Z" fill="#000000" fill-rule="nonzero" fill-opacity="1" /><path clip-path="url(#clip080)" d="M16.4842 755.248 L16.4842 748.341 L36.0269 735.164 L16.4842 722.083 L16.4842 715.176 L41.3741 731.981 L64.0042 731.981 L64.0042 738.443 L41.3741 738.443 L16.4842 755.248 Z" fill="#000000" fill-rule="nonzero" fill-opacity="1" /><circle clip-path="url(#clip082)" cx="253.212" cy="836.475" r="14.4" fill="#009af9" fill-rule="evenodd" fill-opacity="1" stroke="#000000" stroke-opacity="1" stroke-width="3.2"/>
<circle clip-path="url(#clip082)" cx="468.188" cy="1384.24" r="14.4" fill="#009af9" fill-rule="evenodd" fill-opacity="1" stroke="#000000" stroke-opacity="1" stroke-width="3.2"/>
<circle clip-path="url(#clip082)" cx="237.067" cy="951.984" r="14.4" fill="#009af9" fill-rule="evenodd" fill-opacity="1" stroke="#000000" stroke-opacity="1" stroke-width="3.2"/>
<circle clip-path="url(#clip082)" cx="480.155" cy="871.003" r="14.4" fill="#009af9" fill-rule="evenodd" fill-opacity="1" stroke="#000000" stroke-opacity="1" stroke-width="3.2"/>
<circle clip-path="url(#clip082)" cx="317.863" cy="946.208" r="14.4" fill="#009af9" fill-rule="evenodd" fill-opacity="1" stroke="#000000" stroke-opacity="1" stroke-width="3.2"/>
<circle clip-path="url(#clip082)" cx="2269.66" cy="330.191" r="14.4" fill="#e26f46" fill-rule="evenodd" fill-opacity="1" stroke="#000000" stroke-opacity="1" stroke-width="3.2"/>
<circle clip-path="url(#clip082)" cx="1855.59" cy="503.884" r="14.4" fill="#e26f46" fill-rule="evenodd" fill-opacity="1" stroke="#000000" stroke-opacity="1" stroke-width="3.2"/>
<circle clip-path="url(#clip082)" cx="2291.13" cy="86.1857" r="14.4" fill="#e26f46" fill-rule="evenodd" fill-opacity="1" stroke="#000000" stroke-opacity="1" stroke-width="3.2"/>
<circle clip-path="url(#clip082)" cx="1581.47" cy="899.433" r="14.4" fill="#e26f46" fill-rule="evenodd" fill-opacity="1" stroke="#000000" stroke-opacity="1" stroke-width="3.2"/>
<circle clip-path="url(#clip082)" cx="1857.3" cy="997.315" r="14.4" fill="#e26f46" fill-rule="evenodd" fill-opacity="1" stroke="#000000" stroke-opacity="1" stroke-width="3.2"/>
<path clip-path="url(#clip080)" d="M248.022 248.629 L672.211 248.629 L672.211 93.1086 L248.022 93.1086  Z" fill="#ffffff" fill-rule="evenodd" fill-opacity="1"/>
<polyline clip-path="url(#clip080)" style="stroke:#000000; stroke-linecap:round; stroke-linejoin:round; stroke-width:4; stroke-opacity:1; fill:none" points="248.022,248.629 672.211,248.629 672.211,93.1086 248.022,93.1086 248.022,248.629 "/>
<circle clip-path="url(#clip080)" cx="344.792" cy="144.949" r="20.48" fill="#009af9" fill-rule="evenodd" fill-opacity="1" stroke="#000000" stroke-opacity="1" stroke-width="4.55111"/>
<path clip-path="url(#clip080)" d="M469.431 130.331 L469.431 135.261 Q467.07 133.062 464.385 131.974 Q461.723 130.886 458.714 130.886 Q452.788 130.886 449.64 134.52 Q446.491 138.132 446.491 144.983 Q446.491 151.812 449.64 155.446 Q452.788 159.057 458.714 159.057 Q461.723 159.057 464.385 157.969 Q467.07 156.881 469.431 154.682 L469.431 159.567 Q466.977 161.233 464.223 162.067 Q461.491 162.9 458.436 162.9 Q450.589 162.9 446.075 158.108 Q441.561 153.293 441.561 144.983 Q441.561 136.65 446.075 131.858 Q450.589 127.044 458.436 127.044 Q461.538 127.044 464.269 127.877 Q467.024 128.687 469.431 130.331 Z" fill="#000000" fill-rule="nonzero" fill-opacity="1" /><path clip-path="url(#clip080)" d="M476.468 126.21 L480.727 126.21 L480.727 162.229 L476.468 162.229 L476.468 126.21 Z" fill="#000000" fill-rule="nonzero" fill-opacity="1" /><path clip-path="url(#clip080)" d="M489.2 151.997 L489.2 136.303 L493.459 136.303 L493.459 151.835 Q493.459 155.516 494.894 157.368 Q496.329 159.196 499.2 159.196 Q502.649 159.196 504.639 156.997 Q506.653 154.798 506.653 151.002 L506.653 136.303 L510.912 136.303 L510.912 162.229 L506.653 162.229 L506.653 158.247 Q505.102 160.608 503.042 161.766 Q501.005 162.9 498.297 162.9 Q493.829 162.9 491.514 160.122 Q489.2 157.344 489.2 151.997 M499.917 135.678 L499.917 135.678 Z" fill="#000000" fill-rule="nonzero" fill-opacity="1" /><path clip-path="url(#clip080)" d="M536.213 137.067 L536.213 141.094 Q534.408 140.169 532.463 139.706 Q530.519 139.243 528.435 139.243 Q525.264 139.243 523.667 140.215 Q522.093 141.187 522.093 143.131 Q522.093 144.613 523.227 145.469 Q524.361 146.303 527.787 147.067 L529.246 147.391 Q533.783 148.363 535.681 150.145 Q537.602 151.905 537.602 155.076 Q537.602 158.687 534.732 160.793 Q531.885 162.9 526.885 162.9 Q524.801 162.9 522.533 162.483 Q520.287 162.09 517.787 161.28 L517.787 156.881 Q520.149 158.108 522.44 158.733 Q524.732 159.335 526.977 159.335 Q529.986 159.335 531.607 158.317 Q533.227 157.275 533.227 155.4 Q533.227 153.664 532.047 152.738 Q530.889 151.812 526.931 150.956 L525.449 150.608 Q521.491 149.775 519.732 148.062 Q517.973 146.326 517.973 143.317 Q517.973 139.659 520.565 137.669 Q523.158 135.678 527.926 135.678 Q530.287 135.678 532.371 136.025 Q534.454 136.372 536.213 137.067 Z" fill="#000000" fill-rule="nonzero" fill-opacity="1" /><path clip-path="url(#clip080)" d="M548.597 128.942 L548.597 136.303 L557.371 136.303 L557.371 139.613 L548.597 139.613 L548.597 153.687 Q548.597 156.858 549.454 157.761 Q550.334 158.664 552.996 158.664 L557.371 158.664 L557.371 162.229 L552.996 162.229 Q548.065 162.229 546.19 160.4 Q544.315 158.548 544.315 153.687 L544.315 139.613 L541.19 139.613 L541.19 136.303 L544.315 136.303 L544.315 128.942 L548.597 128.942 Z" fill="#000000" fill-rule="nonzero" fill-opacity="1" /><path clip-path="url(#clip080)" d="M585.148 148.201 L585.148 150.284 L565.565 150.284 Q565.843 154.682 568.204 156.997 Q570.588 159.289 574.824 159.289 Q577.278 159.289 579.569 158.687 Q581.884 158.085 584.153 156.881 L584.153 160.909 Q581.861 161.881 579.454 162.391 Q577.046 162.9 574.57 162.9 Q568.366 162.9 564.732 159.289 Q561.121 155.678 561.121 149.52 Q561.121 143.155 564.546 139.428 Q567.995 135.678 573.829 135.678 Q579.06 135.678 582.093 139.057 Q585.148 142.414 585.148 148.201 M580.889 146.951 Q580.843 143.456 578.921 141.372 Q577.023 139.289 573.875 139.289 Q570.31 139.289 568.158 141.303 Q566.028 143.317 565.704 146.974 L580.889 146.951 Z" fill="#000000" fill-rule="nonzero" fill-opacity="1" /><path clip-path="url(#clip080)" d="M607.162 140.284 Q606.444 139.868 605.588 139.682 Q604.755 139.474 603.736 139.474 Q600.125 139.474 598.18 141.835 Q596.259 144.173 596.259 148.571 L596.259 162.229 L591.977 162.229 L591.977 136.303 L596.259 136.303 L596.259 140.331 Q597.602 137.969 599.755 136.835 Q601.907 135.678 604.986 135.678 Q605.426 135.678 605.958 135.747 Q606.491 135.794 607.139 135.909 L607.162 140.284 Z" fill="#000000" fill-rule="nonzero" fill-opacity="1" /><path clip-path="url(#clip080)" d="M628.111 158.293 L635.75 158.293 L635.75 131.928 L627.44 133.595 L627.44 129.335 L635.703 127.669 L640.379 127.669 L640.379 158.293 L648.018 158.293 L648.018 162.229 L628.111 162.229 L628.111 158.293 Z" fill="#000000" fill-rule="nonzero" fill-opacity="1" /><circle clip-path="url(#clip080)" cx="344.792" cy="196.789" r="20.48" fill="#e26f46" fill-rule="evenodd" fill-opacity="1" stroke="#000000" stroke-opacity="1" stroke-width="4.55111"/>
<path clip-path="url(#clip080)" d="M469.431 182.171 L469.431 187.101 Q467.07 184.902 464.385 183.814 Q461.723 182.726 458.714 182.726 Q452.788 182.726 449.64 186.36 Q446.491 189.972 446.491 196.823 Q446.491 203.652 449.64 207.286 Q452.788 210.897 458.714 210.897 Q461.723 210.897 464.385 209.809 Q467.07 208.721 469.431 206.522 L469.431 211.407 Q466.977 213.073 464.223 213.907 Q461.491 214.74 458.436 214.74 Q450.589 214.74 446.075 209.948 Q441.561 205.133 441.561 196.823 Q441.561 188.49 446.075 183.698 Q450.589 178.884 458.436 178.884 Q461.538 178.884 464.269 179.717 Q467.024 180.527 469.431 182.171 Z" fill="#000000" fill-rule="nonzero" fill-opacity="1" /><path clip-path="url(#clip080)" d="M476.468 178.05 L480.727 178.05 L480.727 214.069 L476.468 214.069 L476.468 178.05 Z" fill="#000000" fill-rule="nonzero" fill-opacity="1" /><path clip-path="url(#clip080)" d="M489.2 203.837 L489.2 188.143 L493.459 188.143 L493.459 203.675 Q493.459 207.356 494.894 209.208 Q496.329 211.036 499.2 211.036 Q502.649 211.036 504.639 208.837 Q506.653 206.638 506.653 202.842 L506.653 188.143 L510.912 188.143 L510.912 214.069 L506.653 214.069 L506.653 210.087 Q505.102 212.448 503.042 213.606 Q501.005 214.74 498.297 214.74 Q493.829 214.74 491.514 211.962 Q489.2 209.184 489.2 203.837 M499.917 187.518 L499.917 187.518 Z" fill="#000000" fill-rule="nonzero" fill-opacity="1" /><path clip-path="url(#clip080)" d="M536.213 188.907 L536.213 192.934 Q534.408 192.009 532.463 191.546 Q530.519 191.083 528.435 191.083 Q525.264 191.083 523.667 192.055 Q522.093 193.027 522.093 194.971 Q522.093 196.453 523.227 197.309 Q524.361 198.143 527.787 198.907 L529.246 199.231 Q533.783 200.203 535.681 201.985 Q537.602 203.745 537.602 206.916 Q537.602 210.527 534.732 212.633 Q531.885 214.74 526.885 214.74 Q524.801 214.74 522.533 214.323 Q520.287 213.93 517.787 213.12 L517.787 208.721 Q520.149 209.948 522.44 210.573 Q524.732 211.175 526.977 211.175 Q529.986 211.175 531.607 210.157 Q533.227 209.115 533.227 207.24 Q533.227 205.504 532.047 204.578 Q530.889 203.652 526.931 202.796 L525.449 202.448 Q521.491 201.615 519.732 199.902 Q517.973 198.166 517.973 195.157 Q517.973 191.499 520.565 189.509 Q523.158 187.518 527.926 187.518 Q530.287 187.518 532.371 187.865 Q534.454 188.212 536.213 188.907 Z" fill="#000000" fill-rule="nonzero" fill-opacity="1" /><path clip-path="url(#clip080)" d="M548.597 180.782 L548.597 188.143 L557.371 188.143 L557.371 191.453 L548.597 191.453 L548.597 205.527 Q548.597 208.698 549.454 209.601 Q550.334 210.504 552.996 210.504 L557.371 210.504 L557.371 214.069 L552.996 214.069 Q548.065 214.069 546.19 212.24 Q544.315 210.388 544.315 205.527 L544.315 191.453 L541.19 191.453 L541.19 188.143 L544.315 188.143 L544.315 180.782 L548.597 180.782 Z" fill="#000000" fill-rule="nonzero" fill-opacity="1" /><path clip-path="url(#clip080)" d="M585.148 200.041 L585.148 202.124 L565.565 202.124 Q565.843 206.522 568.204 208.837 Q570.588 211.129 574.824 211.129 Q577.278 211.129 579.569 210.527 Q581.884 209.925 584.153 208.721 L584.153 212.749 Q581.861 213.721 579.454 214.231 Q577.046 214.74 574.57 214.74 Q568.366 214.74 564.732 211.129 Q561.121 207.518 561.121 201.36 Q561.121 194.995 564.546 191.268 Q567.995 187.518 573.829 187.518 Q579.06 187.518 582.093 190.897 Q585.148 194.254 585.148 200.041 M580.889 198.791 Q580.843 195.296 578.921 193.212 Q577.023 191.129 573.875 191.129 Q570.31 191.129 568.158 193.143 Q566.028 195.157 565.704 198.814 L580.889 198.791 Z" fill="#000000" fill-rule="nonzero" fill-opacity="1" /><path clip-path="url(#clip080)" d="M607.162 192.124 Q606.444 191.708 605.588 191.522 Q604.755 191.314 603.736 191.314 Q600.125 191.314 598.18 193.675 Q596.259 196.013 596.259 200.411 L596.259 214.069 L591.977 214.069 L591.977 188.143 L596.259 188.143 L596.259 192.171 Q597.602 189.809 599.755 188.675 Q601.907 187.518 604.986 187.518 Q605.426 187.518 605.958 187.587 Q606.491 187.634 607.139 187.749 L607.162 192.124 Z" fill="#000000" fill-rule="nonzero" fill-opacity="1" /><path clip-path="url(#clip080)" d="M631.328 210.133 L647.648 210.133 L647.648 214.069 L625.703 214.069 L625.703 210.133 Q628.366 207.379 632.949 202.749 Q637.555 198.096 638.736 196.754 Q640.981 194.231 641.861 192.495 Q642.764 190.735 642.764 189.046 Q642.764 186.291 640.819 184.555 Q638.898 182.819 635.796 182.819 Q633.597 182.819 631.143 183.583 Q628.713 184.347 625.935 185.897 L625.935 181.175 Q628.759 180.041 631.213 179.462 Q633.666 178.884 635.703 178.884 Q641.074 178.884 644.268 181.569 Q647.463 184.254 647.463 188.745 Q647.463 190.874 646.652 192.796 Q645.865 194.694 643.759 197.286 Q643.18 197.958 640.078 201.175 Q636.977 204.37 631.328 210.133 Z" fill="#000000" fill-rule="nonzero" fill-opacity="1" /></svg>
