<?xml version="1.0" encoding="utf-8"?>
<svg xmlns="http://www.w3.org/2000/svg" xmlns:xlink="http://www.w3.org/1999/xlink" width="600" height="400" viewBox="0 0 2400 1600">
<defs>
  <clipPath id="clip090">
    <rect x="0" y="0" width="2400" height="1600"/>
  </clipPath>
</defs>
<path clip-path="url(#clip090)" d="M0 1600 L2400 1600 L2400 0 L0 0  Z" fill="#ffffff" fill-rule="evenodd" fill-opacity="1"/>
<defs>
  <clipPath id="clip091">
    <rect x="480" y="0" width="1681" height="1600"/>
  </clipPath>
</defs>
<path clip-path="url(#clip090)" d="M247.459 1423.18 L2352.76 1423.18 L2352.76 47.2441 L247.459 47.2441  Z" fill="#ffffff" fill-rule="evenodd" fill-opacity="1"/>
<defs>
  <clipPath id="clip092">
    <rect x="247" y="47" width="2106" height="1377"/>
  </clipPath>
</defs>
<polyline clip-path="url(#clip092)" style="stroke:#000000; stroke-linecap:round; stroke-linejoin:round; stroke-width:2; stroke-opacity:0.1; fill:none" points="280.693,1423.18 280.693,47.2441 "/>
<polyline clip-path="url(#clip092)" style="stroke:#000000; stroke-linecap:round; stroke-linejoin:round; stroke-width:2; stroke-opacity:0.1; fill:none" points="773.501,1423.18 773.501,47.2441 "/>
<polyline clip-path="url(#clip092)" style="stroke:#000000; stroke-linecap:round; stroke-linejoin:round; stroke-width:2; stroke-opacity:0.1; fill:none" points="1266.31,1423.18 1266.31,47.2441 "/>
<polyline clip-path="url(#clip092)" style="stroke:#000000; stroke-linecap:round; stroke-linejoin:round; stroke-width:2; stroke-opacity:0.1; fill:none" points="1759.12,1423.18 1759.12,47.2441 "/>
<polyline clip-path="url(#clip092)" style="stroke:#000000; stroke-linecap:round; stroke-linejoin:round; stroke-width:2; stroke-opacity:0.1; fill:none" points="2251.93,1423.18 2251.93,47.2441 "/>
<polyline clip-path="url(#clip090)" style="stroke:#000000; stroke-linecap:round; stroke-linejoin:round; stroke-width:4; stroke-opacity:1; fill:none" points="247.459,1423.18 2352.76,1423.18 "/>
<polyline clip-path="url(#clip090)" style="stroke:#000000; stroke-linecap:round; stroke-linejoin:round; stroke-width:4; stroke-opacity:1; fill:none" points="280.693,1423.18 280.693,1404.28 "/>
<polyline clip-path="url(#clip090)" style="stroke:#000000; stroke-linecap:round; stroke-linejoin:round; stroke-width:4; stroke-opacity:1; fill:none" points="773.501,1423.18 773.501,1404.28 "/>
<polyline clip-path="url(#clip090)" style="stroke:#000000; stroke-linecap:round; stroke-linejoin:round; stroke-width:4; stroke-opacity:1; fill:none" points="1266.31,1423.18 1266.31,1404.28 "/>
<polyline clip-path="url(#clip090)" style="stroke:#000000; stroke-linecap:round; stroke-linejoin:round; stroke-width:4; stroke-opacity:1; fill:none" points="1759.12,1423.18 1759.12,1404.28 "/>
<polyline clip-path="url(#clip090)" style="stroke:#000000; stroke-linecap:round; stroke-linejoin:round; stroke-width:4; stroke-opacity:1; fill:none" points="2251.93,1423.18 2251.93,1404.28 "/>
<path clip-path="url(#clip090)" d="M271.075 1481.64 L278.713 1481.64 L278.713 1455.28 L270.403 1456.95 L270.403 1452.69 L278.667 1451.02 L283.343 1451.02 L283.343 1481.64 L290.982 1481.64 L290.982 1485.58 L271.075 1485.58 L271.075 1481.64 Z" fill="#000000" fill-rule="nonzero" fill-opacity="1" /><path clip-path="url(#clip090)" d="M768.154 1481.64 L784.473 1481.64 L784.473 1485.58 L762.529 1485.58 L762.529 1481.64 Q765.191 1478.89 769.774 1474.26 Q774.381 1469.61 775.561 1468.27 Q777.807 1465.74 778.686 1464.01 Q779.589 1462.25 779.589 1460.56 Q779.589 1457.8 777.644 1456.07 Q775.723 1454.33 772.621 1454.33 Q770.422 1454.33 767.969 1455.09 Q765.538 1455.86 762.76 1457.41 L762.76 1452.69 Q765.584 1451.55 768.038 1450.97 Q770.492 1450.39 772.529 1450.39 Q777.899 1450.39 781.094 1453.08 Q784.288 1455.77 784.288 1460.26 Q784.288 1462.39 783.478 1464.31 Q782.691 1466.2 780.584 1468.8 Q780.006 1469.47 776.904 1472.69 Q773.802 1475.88 768.154 1481.64 Z" fill="#000000" fill-rule="nonzero" fill-opacity="1" /><path clip-path="url(#clip090)" d="M1270.56 1466.95 Q1273.91 1467.66 1275.79 1469.93 Q1277.69 1472.2 1277.69 1475.53 Q1277.69 1480.65 1274.17 1483.45 Q1270.65 1486.25 1264.17 1486.25 Q1261.99 1486.25 1259.68 1485.81 Q1257.39 1485.39 1254.93 1484.54 L1254.93 1480.02 Q1256.88 1481.16 1259.19 1481.74 Q1261.51 1482.32 1264.03 1482.32 Q1268.43 1482.32 1270.72 1480.58 Q1273.03 1478.84 1273.03 1475.53 Q1273.03 1472.48 1270.88 1470.77 Q1268.75 1469.03 1264.93 1469.03 L1260.9 1469.03 L1260.9 1465.19 L1265.12 1465.19 Q1268.57 1465.19 1270.4 1463.82 Q1272.22 1462.43 1272.22 1459.84 Q1272.22 1457.18 1270.33 1455.77 Q1268.45 1454.33 1264.93 1454.33 Q1263.01 1454.33 1260.81 1454.75 Q1258.61 1455.16 1255.97 1456.04 L1255.97 1451.88 Q1258.64 1451.14 1260.95 1450.77 Q1263.29 1450.39 1265.35 1450.39 Q1270.67 1450.39 1273.77 1452.83 Q1276.88 1455.23 1276.88 1459.35 Q1276.88 1462.22 1275.23 1464.21 Q1273.59 1466.18 1270.56 1466.95 Z" fill="#000000" fill-rule="nonzero" fill-opacity="1" /><path clip-path="url(#clip090)" d="M1762.13 1455.09 L1750.32 1473.54 L1762.13 1473.54 L1762.13 1455.09 M1760.9 1451.02 L1766.78 1451.02 L1766.78 1473.54 L1771.71 1473.54 L1771.71 1477.43 L1766.78 1477.43 L1766.78 1485.58 L1762.13 1485.58 L1762.13 1477.43 L1746.53 1477.43 L1746.53 1472.92 L1760.9 1451.02 Z" fill="#000000" fill-rule="nonzero" fill-opacity="1" /><path clip-path="url(#clip090)" d="M2242.2 1451.02 L2260.56 1451.02 L2260.56 1454.96 L2246.49 1454.96 L2246.49 1463.43 Q2247.51 1463.08 2248.52 1462.92 Q2249.54 1462.73 2250.56 1462.73 Q2256.35 1462.73 2259.73 1465.9 Q2263.11 1469.08 2263.11 1474.49 Q2263.11 1480.07 2259.63 1483.17 Q2256.16 1486.25 2249.84 1486.25 Q2247.67 1486.25 2245.4 1485.88 Q2243.15 1485.51 2240.75 1484.77 L2240.75 1480.07 Q2242.83 1481.2 2245.05 1481.76 Q2247.27 1482.32 2249.75 1482.32 Q2253.76 1482.32 2256.09 1480.21 Q2258.43 1478.1 2258.43 1474.49 Q2258.43 1470.88 2256.09 1468.77 Q2253.76 1466.67 2249.75 1466.67 Q2247.88 1466.67 2246 1467.08 Q2244.15 1467.5 2242.2 1468.38 L2242.2 1451.02 Z" fill="#000000" fill-rule="nonzero" fill-opacity="1" /><path clip-path="url(#clip090)" d="M1281.93 1520.52 L1288.84 1520.52 L1300.65 1538.19 L1312.52 1520.52 L1319.43 1520.52 L1304.15 1543.34 L1320.45 1568.04 L1313.54 1568.04 L1300.17 1547.83 L1286.71 1568.04 L1279.77 1568.04 L1296.73 1542.68 L1281.93 1520.52 Z" fill="#000000" fill-rule="nonzero" fill-opacity="1" /><polyline clip-path="url(#clip092)" style="stroke:#000000; stroke-linecap:round; stroke-linejoin:round; stroke-width:2; stroke-opacity:0.1; fill:none" points="247.459,1387.69 2352.76,1387.69 "/>
<polyline clip-path="url(#clip092)" style="stroke:#000000; stroke-linecap:round; stroke-linejoin:round; stroke-width:2; stroke-opacity:0.1; fill:none" points="247.459,1053.2 2352.76,1053.2 "/>
<polyline clip-path="url(#clip092)" style="stroke:#000000; stroke-linecap:round; stroke-linejoin:round; stroke-width:2; stroke-opacity:0.1; fill:none" points="247.459,718.719 2352.76,718.719 "/>
<polyline clip-path="url(#clip092)" style="stroke:#000000; stroke-linecap:round; stroke-linejoin:round; stroke-width:2; stroke-opacity:0.1; fill:none" points="247.459,384.233 2352.76,384.233 "/>
<polyline clip-path="url(#clip092)" style="stroke:#000000; stroke-linecap:round; stroke-linejoin:round; stroke-width:2; stroke-opacity:0.1; fill:none" points="247.459,49.7481 2352.76,49.7481 "/>
<polyline clip-path="url(#clip090)" style="stroke:#000000; stroke-linecap:round; stroke-linejoin:round; stroke-width:4; stroke-opacity:1; fill:none" points="247.459,1423.18 247.459,47.2441 "/>
<polyline clip-path="url(#clip090)" style="stroke:#000000; stroke-linecap:round; stroke-linejoin:round; stroke-width:4; stroke-opacity:1; fill:none" points="247.459,1387.69 266.356,1387.69 "/>
<polyline clip-path="url(#clip090)" style="stroke:#000000; stroke-linecap:round; stroke-linejoin:round; stroke-width:4; stroke-opacity:1; fill:none" points="247.459,1053.2 266.356,1053.2 "/>
<polyline clip-path="url(#clip090)" style="stroke:#000000; stroke-linecap:round; stroke-linejoin:round; stroke-width:4; stroke-opacity:1; fill:none" points="247.459,718.719 266.356,718.719 "/>
<polyline clip-path="url(#clip090)" style="stroke:#000000; stroke-linecap:round; stroke-linejoin:round; stroke-width:4; stroke-opacity:1; fill:none" points="247.459,384.233 266.356,384.233 "/>
<polyline clip-path="url(#clip090)" style="stroke:#000000; stroke-linecap:round; stroke-linejoin:round; stroke-width:4; stroke-opacity:1; fill:none" points="247.459,49.7481 266.356,49.7481 "/>
<path clip-path="url(#clip090)" d="M154.283 1373.49 Q150.672 1373.49 148.843 1377.05 Q147.038 1380.59 147.038 1387.72 Q147.038 1394.83 148.843 1398.4 Q150.672 1401.94 154.283 1401.94 Q157.917 1401.94 159.723 1398.4 Q161.552 1394.83 161.552 1387.72 Q161.552 1380.59 159.723 1377.05 Q157.917 1373.49 154.283 1373.49 M154.283 1369.78 Q160.093 1369.78 163.149 1374.39 Q166.227 1378.97 166.227 1387.72 Q166.227 1396.45 163.149 1401.06 Q160.093 1405.64 154.283 1405.64 Q148.473 1405.64 145.394 1401.06 Q142.339 1396.45 142.339 1387.72 Q142.339 1378.97 145.394 1374.39 Q148.473 1369.78 154.283 1369.78 Z" fill="#000000" fill-rule="nonzero" fill-opacity="1" /><path clip-path="url(#clip090)" d="M174.445 1399.09 L179.329 1399.09 L179.329 1404.97 L174.445 1404.97 L174.445 1399.09 Z" fill="#000000" fill-rule="nonzero" fill-opacity="1" /><path clip-path="url(#clip090)" d="M199.514 1373.49 Q195.903 1373.49 194.075 1377.05 Q192.269 1380.59 192.269 1387.72 Q192.269 1394.83 194.075 1398.4 Q195.903 1401.94 199.514 1401.94 Q203.149 1401.94 204.954 1398.4 Q206.783 1394.83 206.783 1387.72 Q206.783 1380.59 204.954 1377.05 Q203.149 1373.49 199.514 1373.49 M199.514 1369.78 Q205.324 1369.78 208.38 1374.39 Q211.459 1378.97 211.459 1387.72 Q211.459 1396.45 208.38 1401.06 Q205.324 1405.64 199.514 1405.64 Q193.704 1405.64 190.625 1401.06 Q187.57 1396.45 187.57 1387.72 Q187.57 1378.97 190.625 1374.39 Q193.704 1369.78 199.514 1369.78 Z" fill="#000000" fill-rule="nonzero" fill-opacity="1" /><path clip-path="url(#clip090)" d="M149.306 1066.55 L165.626 1066.55 L165.626 1070.48 L143.681 1070.48 L143.681 1066.55 Q146.343 1063.79 150.927 1059.16 Q155.533 1054.51 156.714 1053.17 Q158.959 1050.65 159.839 1048.91 Q160.741 1047.15 160.741 1045.46 Q160.741 1042.71 158.797 1040.97 Q156.876 1039.23 153.774 1039.23 Q151.575 1039.23 149.121 1040 Q146.691 1040.76 143.913 1042.31 L143.913 1037.59 Q146.737 1036.46 149.191 1035.88 Q151.644 1035.3 153.681 1035.3 Q159.052 1035.3 162.246 1037.98 Q165.44 1040.67 165.44 1045.16 Q165.44 1047.29 164.63 1049.21 Q163.843 1051.11 161.737 1053.7 Q161.158 1054.37 158.056 1057.59 Q154.954 1060.79 149.306 1066.55 Z" fill="#000000" fill-rule="nonzero" fill-opacity="1" /><path clip-path="url(#clip090)" d="M175.44 1064.6 L180.325 1064.6 L180.325 1070.48 L175.44 1070.48 L175.44 1064.6 Z" fill="#000000" fill-rule="nonzero" fill-opacity="1" /><path clip-path="url(#clip090)" d="M190.556 1035.92 L208.912 1035.92 L208.912 1039.86 L194.838 1039.86 L194.838 1048.33 Q195.857 1047.98 196.875 1047.82 Q197.894 1047.64 198.912 1047.64 Q204.699 1047.64 208.079 1050.81 Q211.459 1053.98 211.459 1059.4 Q211.459 1064.97 207.987 1068.08 Q204.514 1071.16 198.195 1071.16 Q196.019 1071.16 193.75 1070.78 Q191.505 1070.41 189.098 1069.67 L189.098 1064.97 Q191.181 1066.11 193.403 1066.66 Q195.625 1067.22 198.102 1067.22 Q202.107 1067.22 204.445 1065.11 Q206.783 1063.01 206.783 1059.4 Q206.783 1055.79 204.445 1053.68 Q202.107 1051.57 198.102 1051.57 Q196.227 1051.57 194.352 1051.99 Q192.5 1052.41 190.556 1053.29 L190.556 1035.92 Z" fill="#000000" fill-rule="nonzero" fill-opacity="1" /><path clip-path="url(#clip090)" d="M144.329 701.439 L162.686 701.439 L162.686 705.374 L148.612 705.374 L148.612 713.846 Q149.63 713.499 150.649 713.337 Q151.667 713.152 152.686 713.152 Q158.473 713.152 161.852 716.323 Q165.232 719.494 165.232 724.911 Q165.232 730.489 161.76 733.591 Q158.288 736.67 151.968 736.67 Q149.792 736.67 147.524 736.3 Q145.279 735.929 142.871 735.189 L142.871 730.489 Q144.954 731.624 147.177 732.179 Q149.399 732.735 151.876 732.735 Q155.88 732.735 158.218 730.628 Q160.556 728.522 160.556 724.911 Q160.556 721.3 158.218 719.193 Q155.88 717.087 151.876 717.087 Q150.001 717.087 148.126 717.503 Q146.274 717.92 144.329 718.8 L144.329 701.439 Z" fill="#000000" fill-rule="nonzero" fill-opacity="1" /><path clip-path="url(#clip090)" d="M174.445 730.119 L179.329 730.119 L179.329 735.999 L174.445 735.999 L174.445 730.119 Z" fill="#000000" fill-rule="nonzero" fill-opacity="1" /><path clip-path="url(#clip090)" d="M199.514 704.517 Q195.903 704.517 194.075 708.082 Q192.269 711.624 192.269 718.753 Q192.269 725.86 194.075 729.425 Q195.903 732.966 199.514 732.966 Q203.149 732.966 204.954 729.425 Q206.783 725.86 206.783 718.753 Q206.783 711.624 204.954 708.082 Q203.149 704.517 199.514 704.517 M199.514 700.814 Q205.324 700.814 208.38 705.42 Q211.459 710.003 211.459 718.753 Q211.459 727.48 208.38 732.087 Q205.324 736.67 199.514 736.67 Q193.704 736.67 190.625 732.087 Q187.57 727.48 187.57 718.753 Q187.57 710.003 190.625 705.42 Q193.704 700.814 199.514 700.814 Z" fill="#000000" fill-rule="nonzero" fill-opacity="1" /><path clip-path="url(#clip090)" d="M144.098 366.953 L166.32 366.953 L166.32 368.944 L153.774 401.513 L148.89 401.513 L160.695 370.889 L144.098 370.889 L144.098 366.953 Z" fill="#000000" fill-rule="nonzero" fill-opacity="1" /><path clip-path="url(#clip090)" d="M175.44 395.634 L180.325 395.634 L180.325 401.513 L175.44 401.513 L175.44 395.634 Z" fill="#000000" fill-rule="nonzero" fill-opacity="1" /><path clip-path="url(#clip090)" d="M190.556 366.953 L208.912 366.953 L208.912 370.889 L194.838 370.889 L194.838 379.361 Q195.857 379.014 196.875 378.852 Q197.894 378.666 198.912 378.666 Q204.699 378.666 208.079 381.838 Q211.459 385.009 211.459 390.426 Q211.459 396.004 207.987 399.106 Q204.514 402.185 198.195 402.185 Q196.019 402.185 193.75 401.814 Q191.505 401.444 189.098 400.703 L189.098 396.004 Q191.181 397.138 193.403 397.694 Q195.625 398.25 198.102 398.25 Q202.107 398.25 204.445 396.143 Q206.783 394.037 206.783 390.426 Q206.783 386.814 204.445 384.708 Q202.107 382.601 198.102 382.601 Q196.227 382.601 194.352 383.018 Q192.5 383.435 190.556 384.314 L190.556 366.953 Z" fill="#000000" fill-rule="nonzero" fill-opacity="1" /><path clip-path="url(#clip090)" d="M114.931 63.093 L122.57 63.093 L122.57 36.7274 L114.26 38.394 L114.26 34.1348 L122.524 32.4681 L127.2 32.4681 L127.2 63.093 L134.839 63.093 L134.839 67.0281 L114.931 67.0281 L114.931 63.093 Z" fill="#000000" fill-rule="nonzero" fill-opacity="1" /><path clip-path="url(#clip090)" d="M154.283 35.5468 Q150.672 35.5468 148.843 39.1116 Q147.038 42.6533 147.038 49.7829 Q147.038 56.8893 148.843 60.4541 Q150.672 63.9957 154.283 63.9957 Q157.917 63.9957 159.723 60.4541 Q161.552 56.8893 161.552 49.7829 Q161.552 42.6533 159.723 39.1116 Q157.917 35.5468 154.283 35.5468 M154.283 31.8431 Q160.093 31.8431 163.149 36.4496 Q166.227 41.0329 166.227 49.7829 Q166.227 58.5097 163.149 63.1161 Q160.093 67.6994 154.283 67.6994 Q148.473 67.6994 145.394 63.1161 Q142.339 58.5097 142.339 49.7829 Q142.339 41.0329 145.394 36.4496 Q148.473 31.8431 154.283 31.8431 Z" fill="#000000" fill-rule="nonzero" fill-opacity="1" /><path clip-path="url(#clip090)" d="M174.445 61.1485 L179.329 61.1485 L179.329 67.0281 L174.445 67.0281 L174.445 61.1485 Z" fill="#000000" fill-rule="nonzero" fill-opacity="1" /><path clip-path="url(#clip090)" d="M199.514 35.5468 Q195.903 35.5468 194.075 39.1116 Q192.269 42.6533 192.269 49.7829 Q192.269 56.8893 194.075 60.4541 Q195.903 63.9957 199.514 63.9957 Q203.149 63.9957 204.954 60.4541 Q206.783 56.8893 206.783 49.7829 Q206.783 42.6533 204.954 39.1116 Q203.149 35.5468 199.514 35.5468 M199.514 31.8431 Q205.324 31.8431 208.38 36.4496 Q211.459 41.0329 211.459 49.7829 Q211.459 58.5097 208.38 63.1161 Q205.324 67.6994 199.514 67.6994 Q193.704 67.6994 190.625 63.1161 Q187.57 58.5097 187.57 49.7829 Q187.57 41.0329 190.625 36.4496 Q193.704 31.8431 199.514 31.8431 Z" fill="#000000" fill-rule="nonzero" fill-opacity="1" /><path clip-path="url(#clip090)" d="M16.4842 755.248 L16.4842 748.341 L36.0269 735.164 L16.4842 722.083 L16.4842 715.176 L41.3741 731.981 L64.0042 731.981 L64.0042 738.443 L41.3741 738.443 L16.4842 755.248 Z" fill="#000000" fill-rule="nonzero" fill-opacity="1" /><circle clip-path="url(#clip092)" cx="704.778" cy="1321.3" r="14.4" fill="#009af9" fill-rule="evenodd" fill-opacity="1" stroke="#000000" stroke-opacity="1" stroke-width="3.2"/>
<circle clip-path="url(#clip092)" cx="307.043" cy="940.914" r="14.4" fill="#009af9" fill-rule="evenodd" fill-opacity="1" stroke="#000000" stroke-opacity="1" stroke-width="3.2"/>
<circle clip-path="url(#clip092)" cx="355.867" cy="920.012" r="14.4" fill="#009af9" fill-rule="evenodd" fill-opacity="1" stroke="#000000" stroke-opacity="1" stroke-width="3.2"/>
<circle clip-path="url(#clip092)" cx="711.037" cy="968.127" r="14.4" fill="#009af9" fill-rule="evenodd" fill-opacity="1" stroke="#000000" stroke-opacity="1" stroke-width="3.2"/>
<circle clip-path="url(#clip092)" cx="337.885" cy="970.117" r="14.4" fill="#009af9" fill-rule="evenodd" fill-opacity="1" stroke="#000000" stroke-opacity="1" stroke-width="3.2"/>
<circle clip-path="url(#clip092)" cx="2293.17" cy="263.284" r="14.4" fill="#e26f46" fill-rule="evenodd" fill-opacity="1" stroke="#000000" stroke-opacity="1" stroke-width="3.2"/>
<circle clip-path="url(#clip092)" cx="2051.01" cy="86.1857" r="14.4" fill="#e26f46" fill-rule="evenodd" fill-opacity="1" stroke="#000000" stroke-opacity="1" stroke-width="3.2"/>
<circle clip-path="url(#clip092)" cx="2078.98" cy="506.52" r="14.4" fill="#e26f46" fill-rule="evenodd" fill-opacity="1" stroke="#000000" stroke-opacity="1" stroke-width="3.2"/>
<circle clip-path="url(#clip092)" cx="1891.02" cy="527.988" r="14.4" fill="#e26f46" fill-rule="evenodd" fill-opacity="1" stroke="#000000" stroke-opacity="1" stroke-width="3.2"/>
<circle clip-path="url(#clip092)" cx="2132.51" cy="1384.24" r="14.4" fill="#e26f46" fill-rule="evenodd" fill-opacity="1" stroke="#000000" stroke-opacity="1" stroke-width="3.2"/>
<path clip-path="url(#clip090)" d="M317.635 248.629 L734.622 248.629 L734.622 93.1086 L317.635 93.1086  Z" fill="#ffffff" fill-rule="evenodd" fill-opacity="1"/>
<polyline clip-path="url(#clip090)" style="stroke:#000000; stroke-linecap:round; stroke-linejoin:round; stroke-width:4; stroke-opacity:1; fill:none" points="317.635,248.629 734.622,248.629 734.622,93.1086 317.635,93.1086 317.635,248.629 "/>
<circle clip-path="url(#clip090)" cx="411.204" cy="144.949" r="20.48" fill="#009af9" fill-rule="evenodd" fill-opacity="1" stroke="#000000" stroke-opacity="1" stroke-width="4.55111"/>
<path clip-path="url(#clip090)" d="M532.643 130.331 L532.643 135.261 Q530.282 133.062 527.597 131.974 Q524.935 130.886 521.925 130.886 Q516 130.886 512.851 134.52 Q509.703 138.132 509.703 144.983 Q509.703 151.812 512.851 155.446 Q516 159.057 521.925 159.057 Q524.935 159.057 527.597 157.969 Q530.282 156.881 532.643 154.682 L532.643 159.567 Q530.189 161.233 527.435 162.067 Q524.703 162.9 521.648 162.9 Q513.801 162.9 509.287 158.108 Q504.773 153.293 504.773 144.983 Q504.773 136.65 509.287 131.858 Q513.801 127.044 521.648 127.044 Q524.75 127.044 527.481 127.877 Q530.236 128.687 532.643 130.331 Z" fill="#000000" fill-rule="nonzero" fill-opacity="1" /><path clip-path="url(#clip090)" d="M539.68 126.21 L543.939 126.21 L543.939 162.229 L539.68 162.229 L539.68 126.21 Z" fill="#000000" fill-rule="nonzero" fill-opacity="1" /><path clip-path="url(#clip090)" d="M552.411 151.997 L552.411 136.303 L556.671 136.303 L556.671 151.835 Q556.671 155.516 558.106 157.368 Q559.541 159.196 562.411 159.196 Q565.86 159.196 567.851 156.997 Q569.865 154.798 569.865 151.002 L569.865 136.303 L574.124 136.303 L574.124 162.229 L569.865 162.229 L569.865 158.247 Q568.314 160.608 566.254 161.766 Q564.217 162.9 561.509 162.9 Q557.041 162.9 554.726 160.122 Q552.411 157.344 552.411 151.997 M563.129 135.678 L563.129 135.678 Z" fill="#000000" fill-rule="nonzero" fill-opacity="1" /><path clip-path="url(#clip090)" d="M599.425 137.067 L599.425 141.094 Q597.62 140.169 595.675 139.706 Q593.731 139.243 591.647 139.243 Q588.476 139.243 586.879 140.215 Q585.305 141.187 585.305 143.131 Q585.305 144.613 586.439 145.469 Q587.573 146.303 590.999 147.067 L592.458 147.391 Q596.995 148.363 598.893 150.145 Q600.814 151.905 600.814 155.076 Q600.814 158.687 597.944 160.793 Q595.096 162.9 590.096 162.9 Q588.013 162.9 585.745 162.483 Q583.499 162.09 580.999 161.28 L580.999 156.881 Q583.36 158.108 585.652 158.733 Q587.944 159.335 590.189 159.335 Q593.198 159.335 594.819 158.317 Q596.439 157.275 596.439 155.4 Q596.439 153.664 595.258 152.738 Q594.101 151.812 590.143 150.956 L588.661 150.608 Q584.703 149.775 582.944 148.062 Q581.184 146.326 581.184 143.317 Q581.184 139.659 583.777 137.669 Q586.37 135.678 591.138 135.678 Q593.499 135.678 595.583 136.025 Q597.666 136.372 599.425 137.067 Z" fill="#000000" fill-rule="nonzero" fill-opacity="1" /><path clip-path="url(#clip090)" d="M611.809 128.942 L611.809 136.303 L620.582 136.303 L620.582 139.613 L611.809 139.613 L611.809 153.687 Q611.809 156.858 612.666 157.761 Q613.545 158.664 616.207 158.664 L620.582 158.664 L620.582 162.229 L616.207 162.229 Q611.277 162.229 609.402 160.4 Q607.527 158.548 607.527 153.687 L607.527 139.613 L604.402 139.613 L604.402 136.303 L607.527 136.303 L607.527 128.942 L611.809 128.942 Z" fill="#000000" fill-rule="nonzero" fill-opacity="1" /><path clip-path="url(#clip090)" d="M648.36 148.201 L648.36 150.284 L628.777 150.284 Q629.055 154.682 631.416 156.997 Q633.8 159.289 638.036 159.289 Q640.49 159.289 642.781 158.687 Q645.096 158.085 647.365 156.881 L647.365 160.909 Q645.073 161.881 642.666 162.391 Q640.258 162.9 637.781 162.9 Q631.578 162.9 627.943 159.289 Q624.332 155.678 624.332 149.52 Q624.332 143.155 627.758 139.428 Q631.207 135.678 637.041 135.678 Q642.272 135.678 645.304 139.057 Q648.36 142.414 648.36 148.201 M644.101 146.951 Q644.054 143.456 642.133 141.372 Q640.235 139.289 637.087 139.289 Q633.522 139.289 631.369 141.303 Q629.24 143.317 628.916 146.974 L644.101 146.951 Z" fill="#000000" fill-rule="nonzero" fill-opacity="1" /><path clip-path="url(#clip090)" d="M670.374 140.284 Q669.656 139.868 668.8 139.682 Q667.966 139.474 666.948 139.474 Q663.337 139.474 661.392 141.835 Q659.471 144.173 659.471 148.571 L659.471 162.229 L655.189 162.229 L655.189 136.303 L659.471 136.303 L659.471 140.331 Q660.814 137.969 662.966 136.835 Q665.119 135.678 668.198 135.678 Q668.638 135.678 669.17 135.747 Q669.702 135.794 670.351 135.909 L670.374 140.284 Z" fill="#000000" fill-rule="nonzero" fill-opacity="1" /><path clip-path="url(#clip090)" d="M691.323 158.293 L698.962 158.293 L698.962 131.928 L690.651 133.595 L690.651 129.335 L698.915 127.669 L703.591 127.669 L703.591 158.293 L711.23 158.293 L711.23 162.229 L691.323 162.229 L691.323 158.293 Z" fill="#000000" fill-rule="nonzero" fill-opacity="1" /><circle clip-path="url(#clip090)" cx="411.204" cy="196.789" r="20.48" fill="#e26f46" fill-rule="evenodd" fill-opacity="1" stroke="#000000" stroke-opacity="1" stroke-width="4.55111"/>
<path clip-path="url(#clip090)" d="M532.643 182.171 L532.643 187.101 Q530.282 184.902 527.597 183.814 Q524.935 182.726 521.925 182.726 Q516 182.726 512.851 186.36 Q509.703 189.972 509.703 196.823 Q509.703 203.652 512.851 207.286 Q516 210.897 521.925 210.897 Q524.935 210.897 527.597 209.809 Q530.282 208.721 532.643 206.522 L532.643 211.407 Q530.189 213.073 527.435 213.907 Q524.703 214.74 521.648 214.74 Q513.801 214.74 509.287 209.948 Q504.773 205.133 504.773 196.823 Q504.773 188.49 509.287 183.698 Q513.801 178.884 521.648 178.884 Q524.75 178.884 527.481 179.717 Q530.236 180.527 532.643 182.171 Z" fill="#000000" fill-rule="nonzero" fill-opacity="1" /><path clip-path="url(#clip090)" d="M539.68 178.05 L543.939 178.05 L543.939 214.069 L539.68 214.069 L539.68 178.05 Z" fill="#000000" fill-rule="nonzero" fill-opacity="1" /><path clip-path="url(#clip090)" d="M552.411 203.837 L552.411 188.143 L556.671 188.143 L556.671 203.675 Q556.671 207.356 558.106 209.208 Q559.541 211.036 562.411 211.036 Q565.86 211.036 567.851 208.837 Q569.865 206.638 569.865 202.842 L569.865 188.143 L574.124 188.143 L574.124 214.069 L569.865 214.069 L569.865 210.087 Q568.314 212.448 566.254 213.606 Q564.217 214.74 561.509 214.74 Q557.041 214.74 554.726 211.962 Q552.411 209.184 552.411 203.837 M563.129 187.518 L563.129 187.518 Z" fill="#000000" fill-rule="nonzero" fill-opacity="1" /><path clip-path="url(#clip090)" d="M599.425 188.907 L599.425 192.934 Q597.62 192.009 595.675 191.546 Q593.731 191.083 591.647 191.083 Q588.476 191.083 586.879 192.055 Q585.305 193.027 585.305 194.971 Q585.305 196.453 586.439 197.309 Q587.573 198.143 590.999 198.907 L592.458 199.231 Q596.995 200.203 598.893 201.985 Q600.814 203.745 600.814 206.916 Q600.814 210.527 597.944 212.633 Q595.096 214.74 590.096 214.74 Q588.013 214.74 585.745 214.323 Q583.499 213.93 580.999 213.12 L580.999 208.721 Q583.36 209.948 585.652 210.573 Q587.944 211.175 590.189 211.175 Q593.198 211.175 594.819 210.157 Q596.439 209.115 596.439 207.24 Q596.439 205.504 595.258 204.578 Q594.101 203.652 590.143 202.796 L588.661 202.448 Q584.703 201.615 582.944 199.902 Q581.184 198.166 581.184 195.157 Q581.184 191.499 583.777 189.509 Q586.37 187.518 591.138 187.518 Q593.499 187.518 595.583 187.865 Q597.666 188.212 599.425 188.907 Z" fill="#000000" fill-rule="nonzero" fill-opacity="1" /><path clip-path="url(#clip090)" d="M611.809 180.782 L611.809 188.143 L620.582 188.143 L620.582 191.453 L611.809 191.453 L611.809 205.527 Q611.809 208.698 612.666 209.601 Q613.545 210.504 616.207 210.504 L620.582 210.504 L620.582 214.069 L616.207 214.069 Q611.277 214.069 609.402 212.24 Q607.527 210.388 607.527 205.527 L607.527 191.453 L604.402 191.453 L604.402 188.143 L607.527 188.143 L607.527 180.782 L611.809 180.782 Z" fill="#000000" fill-rule="nonzero" fill-opacity="1" /><path clip-path="url(#clip090)" d="M648.36 200.041 L648.36 202.124 L628.777 202.124 Q629.055 206.522 631.416 208.837 Q633.8 211.129 638.036 211.129 Q640.49 211.129 642.781 210.527 Q645.096 209.925 647.365 208.721 L647.365 212.749 Q645.073 213.721 642.666 214.231 Q640.258 214.74 637.781 214.74 Q631.578 214.74 627.943 211.129 Q624.332 207.518 624.332 201.36 Q624.332 194.995 627.758 191.268 Q631.207 187.518 637.041 187.518 Q642.272 187.518 645.304 190.897 Q648.36 194.254 648.36 200.041 M644.101 198.791 Q644.054 195.296 642.133 193.212 Q640.235 191.129 637.087 191.129 Q633.522 191.129 631.369 193.143 Q629.24 195.157 628.916 198.814 L644.101 198.791 Z" fill="#000000" fill-rule="nonzero" fill-opacity="1" /><path clip-path="url(#clip090)" d="M670.374 192.124 Q669.656 191.708 668.8 191.522 Q667.966 191.314 666.948 191.314 Q663.337 191.314 661.392 193.675 Q659.471 196.013 659.471 200.411 L659.471 214.069 L655.189 214.069 L655.189 188.143 L659.471 188.143 L659.471 192.171 Q660.814 189.809 662.966 188.675 Q665.119 187.518 668.198 187.518 Q668.638 187.518 669.17 187.587 Q669.702 187.634 670.351 187.749 L670.374 192.124 Z" fill="#000000" fill-rule="nonzero" fill-opacity="1" /><path clip-path="url(#clip090)" d="M694.54 210.133 L710.86 210.133 L710.86 214.069 L688.915 214.069 L688.915 210.133 Q691.577 207.379 696.161 202.749 Q700.767 198.096 701.948 196.754 Q704.193 194.231 705.073 192.495 Q705.975 190.735 705.975 189.046 Q705.975 186.291 704.031 184.555 Q702.11 182.819 699.008 182.819 Q696.809 182.819 694.355 183.583 Q691.925 184.347 689.147 185.897 L689.147 181.175 Q691.971 180.041 694.425 179.462 Q696.878 178.884 698.915 178.884 Q704.286 178.884 707.48 181.569 Q710.674 184.254 710.674 188.745 Q710.674 190.874 709.864 192.796 Q709.077 194.694 706.971 197.286 Q706.392 197.958 703.29 201.175 Q700.188 204.37 694.54 210.133 Z" fill="#000000" fill-rule="nonzero" fill-opacity="1" /></svg>
