<?xml version="1.0" encoding="utf-8"?>
<svg xmlns="http://www.w3.org/2000/svg" xmlns:xlink="http://www.w3.org/1999/xlink" width="600" height="400" viewBox="0 0 2400 1600">
<defs>
  <clipPath id="clip260">
    <rect x="0" y="0" width="2400" height="1600"/>
  </clipPath>
</defs>
<path clip-path="url(#clip260)" d="M0 1600 L2400 1600 L2400 0 L0 0  Z" fill="#ffffff" fill-rule="evenodd" fill-opacity="1"/>
<defs>
  <clipPath id="clip261">
    <rect x="480" y="0" width="1681" height="1600"/>
  </clipPath>
</defs>
<path clip-path="url(#clip260)" d="M202.227 1423.18 L2352.76 1423.18 L2352.76 47.2441 L202.227 47.2441  Z" fill="#ffffff" fill-rule="evenodd" fill-opacity="1"/>
<defs>
  <clipPath id="clip262">
    <rect x="202" y="47" width="2152" height="1377"/>
  </clipPath>
</defs>
<polyline clip-path="url(#clip262)" style="stroke:#000000; stroke-linecap:round; stroke-linejoin:round; stroke-width:2; stroke-opacity:0.1; fill:none" points="522.979,1423.18 522.979,47.2441 "/>
<polyline clip-path="url(#clip262)" style="stroke:#000000; stroke-linecap:round; stroke-linejoin:round; stroke-width:2; stroke-opacity:0.1; fill:none" points="984.474,1423.18 984.474,47.2441 "/>
<polyline clip-path="url(#clip262)" style="stroke:#000000; stroke-linecap:round; stroke-linejoin:round; stroke-width:2; stroke-opacity:0.1; fill:none" points="1445.97,1423.18 1445.97,47.2441 "/>
<polyline clip-path="url(#clip262)" style="stroke:#000000; stroke-linecap:round; stroke-linejoin:round; stroke-width:2; stroke-opacity:0.1; fill:none" points="1907.46,1423.18 1907.46,47.2441 "/>
<polyline clip-path="url(#clip260)" style="stroke:#000000; stroke-linecap:round; stroke-linejoin:round; stroke-width:4; stroke-opacity:1; fill:none" points="202.227,1423.18 2352.76,1423.18 "/>
<polyline clip-path="url(#clip260)" style="stroke:#000000; stroke-linecap:round; stroke-linejoin:round; stroke-width:4; stroke-opacity:1; fill:none" points="522.979,1423.18 522.979,1404.28 "/>
<polyline clip-path="url(#clip260)" style="stroke:#000000; stroke-linecap:round; stroke-linejoin:round; stroke-width:4; stroke-opacity:1; fill:none" points="984.474,1423.18 984.474,1404.28 "/>
<polyline clip-path="url(#clip260)" style="stroke:#000000; stroke-linecap:round; stroke-linejoin:round; stroke-width:4; stroke-opacity:1; fill:none" points="1445.97,1423.18 1445.97,1404.28 "/>
<polyline clip-path="url(#clip260)" style="stroke:#000000; stroke-linecap:round; stroke-linejoin:round; stroke-width:4; stroke-opacity:1; fill:none" points="1907.46,1423.18 1907.46,1404.28 "/>
<path clip-path="url(#clip260)" d="M517.632 1481.64 L533.952 1481.64 L533.952 1485.58 L512.007 1485.58 L512.007 1481.64 Q514.669 1478.89 519.253 1474.26 Q523.859 1469.61 525.04 1468.27 Q527.285 1465.74 528.165 1464.01 Q529.067 1462.25 529.067 1460.56 Q529.067 1457.8 527.123 1456.07 Q525.202 1454.33 522.1 1454.33 Q519.901 1454.33 517.447 1455.09 Q515.016 1455.86 512.239 1457.41 L512.239 1452.69 Q515.063 1451.55 517.516 1450.97 Q519.97 1450.39 522.007 1450.39 Q527.378 1450.39 530.572 1453.08 Q533.766 1455.77 533.766 1460.26 Q533.766 1462.39 532.956 1464.31 Q532.169 1466.2 530.063 1468.8 Q529.484 1469.47 526.382 1472.69 Q523.28 1475.88 517.632 1481.64 Z" fill="#000000" fill-rule="nonzero" fill-opacity="1" /><path clip-path="url(#clip260)" d="M988.722 1466.95 Q992.078 1467.66 993.953 1469.93 Q995.851 1472.2 995.851 1475.53 Q995.851 1480.65 992.333 1483.45 Q988.814 1486.25 982.333 1486.25 Q980.157 1486.25 977.842 1485.81 Q975.55 1485.39 973.097 1484.54 L973.097 1480.02 Q975.041 1481.16 977.356 1481.74 Q979.671 1482.32 982.194 1482.32 Q986.592 1482.32 988.884 1480.58 Q991.199 1478.84 991.199 1475.53 Q991.199 1472.48 989.046 1470.77 Q986.916 1469.03 983.097 1469.03 L979.069 1469.03 L979.069 1465.19 L983.282 1465.19 Q986.731 1465.19 988.56 1463.82 Q990.388 1462.43 990.388 1459.84 Q990.388 1457.18 988.49 1455.77 Q986.615 1454.33 983.097 1454.33 Q981.175 1454.33 978.976 1454.75 Q976.777 1455.16 974.138 1456.04 L974.138 1451.88 Q976.8 1451.14 979.115 1450.77 Q981.453 1450.39 983.513 1450.39 Q988.837 1450.39 991.939 1452.83 Q995.041 1455.23 995.041 1459.35 Q995.041 1462.22 993.398 1464.21 Q991.754 1466.18 988.722 1466.95 Z" fill="#000000" fill-rule="nonzero" fill-opacity="1" /><path clip-path="url(#clip260)" d="M1448.98 1455.09 L1437.17 1473.54 L1448.98 1473.54 L1448.98 1455.09 M1447.75 1451.02 L1453.63 1451.02 L1453.63 1473.54 L1458.56 1473.54 L1458.56 1477.43 L1453.63 1477.43 L1453.63 1485.58 L1448.98 1485.58 L1448.98 1477.43 L1433.38 1477.43 L1433.38 1472.92 L1447.75 1451.02 Z" fill="#000000" fill-rule="nonzero" fill-opacity="1" /><path clip-path="url(#clip260)" d="M1897.74 1451.02 L1916.1 1451.02 L1916.1 1454.96 L1902.02 1454.96 L1902.02 1463.43 Q1903.04 1463.08 1904.06 1462.92 Q1905.08 1462.73 1906.1 1462.73 Q1911.88 1462.73 1915.26 1465.9 Q1918.64 1469.08 1918.64 1474.49 Q1918.64 1480.07 1915.17 1483.17 Q1911.7 1486.25 1905.38 1486.25 Q1903.2 1486.25 1900.94 1485.88 Q1898.69 1485.51 1896.28 1484.77 L1896.28 1480.07 Q1898.37 1481.2 1900.59 1481.76 Q1902.81 1482.32 1905.29 1482.32 Q1909.29 1482.32 1911.63 1480.21 Q1913.97 1478.1 1913.97 1474.49 Q1913.97 1470.88 1911.63 1468.77 Q1909.29 1466.67 1905.29 1466.67 Q1903.41 1466.67 1901.54 1467.08 Q1899.69 1467.5 1897.74 1468.38 L1897.74 1451.02 Z" fill="#000000" fill-rule="nonzero" fill-opacity="1" /><path clip-path="url(#clip260)" d="M1259.32 1520.52 L1266.22 1520.52 L1278.03 1538.19 L1289.9 1520.52 L1296.81 1520.52 L1281.53 1543.34 L1297.83 1568.04 L1290.92 1568.04 L1277.56 1547.83 L1264.09 1568.04 L1257.15 1568.04 L1274.12 1542.68 L1259.32 1520.52 Z" fill="#000000" fill-rule="nonzero" fill-opacity="1" /><polyline clip-path="url(#clip262)" style="stroke:#000000; stroke-linecap:round; stroke-linejoin:round; stroke-width:2; stroke-opacity:0.1; fill:none" points="202.227,1196.52 2352.76,1196.52 "/>
<polyline clip-path="url(#clip262)" style="stroke:#000000; stroke-linecap:round; stroke-linejoin:round; stroke-width:2; stroke-opacity:0.1; fill:none" points="202.227,914.74 2352.76,914.74 "/>
<polyline clip-path="url(#clip262)" style="stroke:#000000; stroke-linecap:round; stroke-linejoin:round; stroke-width:2; stroke-opacity:0.1; fill:none" points="202.227,632.96 2352.76,632.96 "/>
<polyline clip-path="url(#clip262)" style="stroke:#000000; stroke-linecap:round; stroke-linejoin:round; stroke-width:2; stroke-opacity:0.1; fill:none" points="202.227,351.179 2352.76,351.179 "/>
<polyline clip-path="url(#clip262)" style="stroke:#000000; stroke-linecap:round; stroke-linejoin:round; stroke-width:2; stroke-opacity:0.1; fill:none" points="202.227,69.3989 2352.76,69.3989 "/>
<polyline clip-path="url(#clip260)" style="stroke:#000000; stroke-linecap:round; stroke-linejoin:round; stroke-width:4; stroke-opacity:1; fill:none" points="202.227,1423.18 202.227,47.2441 "/>
<polyline clip-path="url(#clip260)" style="stroke:#000000; stroke-linecap:round; stroke-linejoin:round; stroke-width:4; stroke-opacity:1; fill:none" points="202.227,1196.52 221.125,1196.52 "/>
<polyline clip-path="url(#clip260)" style="stroke:#000000; stroke-linecap:round; stroke-linejoin:round; stroke-width:4; stroke-opacity:1; fill:none" points="202.227,914.74 221.125,914.74 "/>
<polyline clip-path="url(#clip260)" style="stroke:#000000; stroke-linecap:round; stroke-linejoin:round; stroke-width:4; stroke-opacity:1; fill:none" points="202.227,632.96 221.125,632.96 "/>
<polyline clip-path="url(#clip260)" style="stroke:#000000; stroke-linecap:round; stroke-linejoin:round; stroke-width:4; stroke-opacity:1; fill:none" points="202.227,351.179 221.125,351.179 "/>
<polyline clip-path="url(#clip260)" style="stroke:#000000; stroke-linecap:round; stroke-linejoin:round; stroke-width:4; stroke-opacity:1; fill:none" points="202.227,69.3989 221.125,69.3989 "/>
<path clip-path="url(#clip260)" d="M149.908 1209.87 L166.227 1209.87 L166.227 1213.8 L144.283 1213.8 L144.283 1209.87 Q146.945 1207.11 151.528 1202.48 Q156.135 1197.83 157.315 1196.49 Q159.561 1193.96 160.44 1192.23 Q161.343 1190.47 161.343 1188.78 Q161.343 1186.02 159.399 1184.29 Q157.478 1182.55 154.376 1182.55 Q152.177 1182.55 149.723 1183.31 Q147.292 1184.08 144.515 1185.63 L144.515 1180.91 Q147.339 1179.77 149.792 1179.19 Q152.246 1178.62 154.283 1178.62 Q159.653 1178.62 162.848 1181.3 Q166.042 1183.99 166.042 1188.48 Q166.042 1190.61 165.232 1192.53 Q164.445 1194.43 162.339 1197.02 Q161.76 1197.69 158.658 1200.91 Q155.556 1204.1 149.908 1209.87 Z" fill="#000000" fill-rule="nonzero" fill-opacity="1" /><path clip-path="url(#clip260)" d="M156.644 901.534 L144.839 919.983 L156.644 919.983 L156.644 901.534 M155.417 897.46 L161.297 897.46 L161.297 919.983 L166.227 919.983 L166.227 923.872 L161.297 923.872 L161.297 932.02 L156.644 932.02 L156.644 923.872 L141.042 923.872 L141.042 919.358 L155.417 897.46 Z" fill="#000000" fill-rule="nonzero" fill-opacity="1" /><path clip-path="url(#clip260)" d="M154.7 631.096 Q151.552 631.096 149.7 633.249 Q147.871 635.402 147.871 639.152 Q147.871 642.879 149.7 645.055 Q151.552 647.207 154.7 647.207 Q157.848 647.207 159.677 645.055 Q161.528 642.879 161.528 639.152 Q161.528 635.402 159.677 633.249 Q157.848 631.096 154.7 631.096 M163.982 616.444 L163.982 620.703 Q162.223 619.87 160.417 619.43 Q158.635 618.99 156.876 618.99 Q152.246 618.99 149.792 622.115 Q147.362 625.24 147.015 631.559 Q148.38 629.545 150.441 628.481 Q152.501 627.393 154.978 627.393 Q160.186 627.393 163.195 630.564 Q166.227 633.712 166.227 639.152 Q166.227 644.476 163.079 647.694 Q159.931 650.911 154.7 650.911 Q148.704 650.911 145.533 646.328 Q142.362 641.721 142.362 632.995 Q142.362 624.8 146.251 619.939 Q150.14 615.055 156.69 615.055 Q158.45 615.055 160.232 615.402 Q162.038 615.749 163.982 616.444 Z" fill="#000000" fill-rule="nonzero" fill-opacity="1" /><path clip-path="url(#clip260)" d="M154.376 352.047 Q151.042 352.047 149.121 353.83 Q147.223 355.612 147.223 358.737 Q147.223 361.862 149.121 363.645 Q151.042 365.427 154.376 365.427 Q157.709 365.427 159.63 363.645 Q161.552 361.839 161.552 358.737 Q161.552 355.612 159.63 353.83 Q157.732 352.047 154.376 352.047 M149.7 350.057 Q146.691 349.316 145.001 347.256 Q143.334 345.196 143.334 342.233 Q143.334 338.089 146.274 335.682 Q149.237 333.274 154.376 333.274 Q159.538 333.274 162.477 335.682 Q165.417 338.089 165.417 342.233 Q165.417 345.196 163.727 347.256 Q162.061 349.316 159.075 350.057 Q162.454 350.844 164.329 353.135 Q166.227 355.427 166.227 358.737 Q166.227 363.76 163.149 366.445 Q160.093 369.131 154.376 369.131 Q148.658 369.131 145.579 366.445 Q142.524 363.76 142.524 358.737 Q142.524 355.427 144.422 353.135 Q146.32 350.844 149.7 350.057 M147.987 342.672 Q147.987 345.358 149.653 346.862 Q151.343 348.367 154.376 348.367 Q157.385 348.367 159.075 346.862 Q160.788 345.358 160.788 342.672 Q160.788 339.987 159.075 338.483 Q157.385 336.978 154.376 336.978 Q151.343 336.978 149.653 338.483 Q147.987 339.987 147.987 342.672 Z" fill="#000000" fill-rule="nonzero" fill-opacity="1" /><path clip-path="url(#clip260)" d="M114.931 82.7437 L122.57 82.7437 L122.57 56.3781 L114.26 58.0447 L114.26 53.7855 L122.524 52.1189 L127.2 52.1189 L127.2 82.7437 L134.839 82.7437 L134.839 86.6789 L114.931 86.6789 L114.931 82.7437 Z" fill="#000000" fill-rule="nonzero" fill-opacity="1" /><path clip-path="url(#clip260)" d="M154.283 55.1975 Q150.672 55.1975 148.843 58.7623 Q147.038 62.304 147.038 69.4336 Q147.038 76.54 148.843 80.1048 Q150.672 83.6465 154.283 83.6465 Q157.917 83.6465 159.723 80.1048 Q161.552 76.54 161.552 69.4336 Q161.552 62.304 159.723 58.7623 Q157.917 55.1975 154.283 55.1975 M154.283 51.4939 Q160.093 51.4939 163.149 56.1003 Q166.227 60.6836 166.227 69.4336 Q166.227 78.1604 163.149 82.7668 Q160.093 87.3501 154.283 87.3501 Q148.473 87.3501 145.394 82.7668 Q142.339 78.1604 142.339 69.4336 Q142.339 60.6836 145.394 56.1003 Q148.473 51.4939 154.283 51.4939 Z" fill="#000000" fill-rule="nonzero" fill-opacity="1" /><path clip-path="url(#clip260)" d="M16.4842 755.248 L16.4842 748.341 L36.0269 735.164 L16.4842 722.083 L16.4842 715.176 L41.3741 731.981 L64.0042 731.981 L64.0042 738.443 L41.3741 738.443 L16.4842 755.248 Z" fill="#000000" fill-rule="nonzero" fill-opacity="1" /><circle clip-path="url(#clip262)" cx="391.877" cy="1303.17" r="14.4" fill="#009af9" fill-rule="evenodd" fill-opacity="1" stroke="#000000" stroke-opacity="1" stroke-width="3.2"/>
<circle clip-path="url(#clip262)" cx="372.277" cy="939.553" r="14.4" fill="#009af9" fill-rule="evenodd" fill-opacity="1" stroke="#000000" stroke-opacity="1" stroke-width="3.2"/>
<circle clip-path="url(#clip262)" cx="380.33" cy="1384.24" r="14.4" fill="#009af9" fill-rule="evenodd" fill-opacity="1" stroke="#000000" stroke-opacity="1" stroke-width="3.2"/>
<circle clip-path="url(#clip262)" cx="263.091" cy="1229.73" r="14.4" fill="#009af9" fill-rule="evenodd" fill-opacity="1" stroke="#000000" stroke-opacity="1" stroke-width="3.2"/>
<circle clip-path="url(#clip262)" cx="514.296" cy="1319.37" r="14.4" fill="#009af9" fill-rule="evenodd" fill-opacity="1" stroke="#000000" stroke-opacity="1" stroke-width="3.2"/>
<circle clip-path="url(#clip262)" cx="2291.89" cy="813.262" r="14.4" fill="#009af9" fill-rule="evenodd" fill-opacity="1" stroke="#000000" stroke-opacity="1" stroke-width="3.2"/>
<circle clip-path="url(#clip262)" cx="1738.3" cy="671.913" r="14.4" fill="#009af9" fill-rule="evenodd" fill-opacity="1" stroke="#000000" stroke-opacity="1" stroke-width="3.2"/>
<circle clip-path="url(#clip262)" cx="1771.54" cy="86.1857" r="14.4" fill="#009af9" fill-rule="evenodd" fill-opacity="1" stroke="#000000" stroke-opacity="1" stroke-width="3.2"/>
<circle clip-path="url(#clip262)" cx="2208.33" cy="1148.42" r="14.4" fill="#009af9" fill-rule="evenodd" fill-opacity="1" stroke="#000000" stroke-opacity="1" stroke-width="3.2"/>
<circle clip-path="url(#clip262)" cx="1979.47" cy="831.315" r="14.4" fill="#009af9" fill-rule="evenodd" fill-opacity="1" stroke="#000000" stroke-opacity="1" stroke-width="3.2"/>
<circle clip-path="url(#clip262)" cx="453.087" cy="1311.27" r="14.4" fill="#e26f46" fill-rule="evenodd" fill-opacity="1" stroke="#000000" stroke-opacity="1" stroke-width="3.2"/>
<circle clip-path="url(#clip262)" cx="372.277" cy="939.553" r="14.4" fill="#e26f46" fill-rule="evenodd" fill-opacity="1" stroke="#000000" stroke-opacity="1" stroke-width="3.2"/>
<circle clip-path="url(#clip262)" cx="380.33" cy="1384.24" r="14.4" fill="#e26f46" fill-rule="evenodd" fill-opacity="1" stroke="#000000" stroke-opacity="1" stroke-width="3.2"/>
<circle clip-path="url(#clip262)" cx="263.091" cy="1229.73" r="14.4" fill="#e26f46" fill-rule="evenodd" fill-opacity="1" stroke="#000000" stroke-opacity="1" stroke-width="3.2"/>
<circle clip-path="url(#clip262)" cx="453.087" cy="1311.27" r="14.4" fill="#e26f46" fill-rule="evenodd" fill-opacity="1" stroke="#000000" stroke-opacity="1" stroke-width="3.2"/>
<circle clip-path="url(#clip262)" cx="2291.89" cy="813.262" r="14.4" fill="#e26f46" fill-rule="evenodd" fill-opacity="1" stroke="#000000" stroke-opacity="1" stroke-width="3.2"/>
<circle clip-path="url(#clip262)" cx="1738.3" cy="671.913" r="14.4" fill="#e26f46" fill-rule="evenodd" fill-opacity="1" stroke="#000000" stroke-opacity="1" stroke-width="3.2"/>
<circle clip-path="url(#clip262)" cx="1771.54" cy="86.1857" r="14.4" fill="#e26f46" fill-rule="evenodd" fill-opacity="1" stroke="#000000" stroke-opacity="1" stroke-width="3.2"/>
<circle clip-path="url(#clip262)" cx="2208.33" cy="1148.42" r="14.4" fill="#e26f46" fill-rule="evenodd" fill-opacity="1" stroke="#000000" stroke-opacity="1" stroke-width="3.2"/>
<circle clip-path="url(#clip262)" cx="1979.47" cy="831.315" r="14.4" fill="#e26f46" fill-rule="evenodd" fill-opacity="1" stroke="#000000" stroke-opacity="1" stroke-width="3.2"/>
<path clip-path="url(#clip260)" d="M1584.96 248.629 L2281.07 248.629 L2281.07 93.1086 L1584.96 93.1086  Z" fill="#ffffff" fill-rule="evenodd" fill-opacity="1"/>
<polyline clip-path="url(#clip260)" style="stroke:#000000; stroke-linecap:round; stroke-linejoin:round; stroke-width:4; stroke-opacity:1; fill:none" points="1584.96,248.629 2281.07,248.629 2281.07,93.1086 1584.96,93.1086 1584.96,248.629 "/>
<circle clip-path="url(#clip260)" cx="1680.54" cy="144.949" r="20.48" fill="#009af9" fill-rule="evenodd" fill-opacity="1" stroke="#000000" stroke-opacity="1" stroke-width="4.55111"/>
<path clip-path="url(#clip260)" d="M1792.13 130.84 Q1787.04 130.84 1784.03 134.636 Q1781.05 138.432 1781.05 144.983 Q1781.05 151.511 1784.03 155.307 Q1787.04 159.104 1792.13 159.104 Q1797.23 159.104 1800.19 155.307 Q1803.17 151.511 1803.17 144.983 Q1803.17 138.432 1800.19 134.636 Q1797.23 130.84 1792.13 130.84 M1792.13 127.044 Q1799.4 127.044 1803.75 131.928 Q1808.11 136.789 1808.11 144.983 Q1808.11 153.155 1803.75 158.039 Q1799.4 162.9 1792.13 162.9 Q1784.84 162.9 1780.47 158.039 Q1776.11 153.178 1776.11 144.983 Q1776.11 136.789 1780.47 131.928 Q1784.84 127.044 1792.13 127.044 Z" fill="#000000" fill-rule="nonzero" fill-opacity="1" /><path clip-path="url(#clip260)" d="M1830.26 140.284 Q1829.54 139.868 1828.68 139.682 Q1827.85 139.474 1826.83 139.474 Q1823.22 139.474 1821.28 141.835 Q1819.36 144.173 1819.36 148.571 L1819.36 162.229 L1815.07 162.229 L1815.07 136.303 L1819.36 136.303 L1819.36 140.331 Q1820.7 137.969 1822.85 136.835 Q1825 135.678 1828.08 135.678 Q1828.52 135.678 1829.05 135.747 Q1829.59 135.794 1830.23 135.909 L1830.26 140.284 Z" fill="#000000" fill-rule="nonzero" fill-opacity="1" /><path clip-path="url(#clip260)" d="M1834.73 136.303 L1838.98 136.303 L1838.98 162.229 L1834.73 162.229 L1834.73 136.303 M1834.73 126.21 L1838.98 126.21 L1838.98 131.604 L1834.73 131.604 L1834.73 126.21 Z" fill="#000000" fill-rule="nonzero" fill-opacity="1" /><path clip-path="url(#clip260)" d="M1864.96 148.965 Q1864.96 144.335 1863.04 141.789 Q1861.14 139.243 1857.69 139.243 Q1854.26 139.243 1852.34 141.789 Q1850.44 144.335 1850.44 148.965 Q1850.44 153.571 1852.34 156.118 Q1854.26 158.664 1857.69 158.664 Q1861.14 158.664 1863.04 156.118 Q1864.96 153.571 1864.96 148.965 M1869.22 159.011 Q1869.22 165.631 1866.28 168.849 Q1863.34 172.09 1857.27 172.09 Q1855.03 172.09 1853.04 171.742 Q1851.04 171.418 1849.17 170.724 L1849.17 166.58 Q1851.04 167.599 1852.87 168.085 Q1854.7 168.571 1856.6 168.571 Q1860.79 168.571 1862.87 166.372 Q1864.96 164.196 1864.96 159.775 L1864.96 157.668 Q1863.64 159.96 1861.58 161.094 Q1859.52 162.229 1856.65 162.229 Q1851.88 162.229 1848.96 158.594 Q1846.04 154.96 1846.04 148.965 Q1846.04 142.946 1848.96 139.312 Q1851.88 135.678 1856.65 135.678 Q1859.52 135.678 1861.58 136.812 Q1863.64 137.946 1864.96 140.238 L1864.96 136.303 L1869.22 136.303 L1869.22 159.011 Z" fill="#000000" fill-rule="nonzero" fill-opacity="1" /><path clip-path="url(#clip260)" d="M1877.99 136.303 L1882.25 136.303 L1882.25 162.229 L1877.99 162.229 L1877.99 136.303 M1877.99 126.21 L1882.25 126.21 L1882.25 131.604 L1877.99 131.604 L1877.99 126.21 Z" fill="#000000" fill-rule="nonzero" fill-opacity="1" /><path clip-path="url(#clip260)" d="M1912.71 146.581 L1912.71 162.229 L1908.45 162.229 L1908.45 146.719 Q1908.45 143.039 1907.02 141.21 Q1905.58 139.382 1902.71 139.382 Q1899.26 139.382 1897.27 141.581 Q1895.28 143.78 1895.28 147.576 L1895.28 162.229 L1891 162.229 L1891 136.303 L1895.28 136.303 L1895.28 140.331 Q1896.81 137.993 1898.87 136.835 Q1900.95 135.678 1903.66 135.678 Q1908.13 135.678 1910.42 138.456 Q1912.71 141.21 1912.71 146.581 Z" fill="#000000" fill-rule="nonzero" fill-opacity="1" /><path clip-path="url(#clip260)" d="M1932.99 149.196 Q1927.83 149.196 1925.84 150.377 Q1923.85 151.557 1923.85 154.405 Q1923.85 156.673 1925.33 158.016 Q1926.83 159.335 1929.4 159.335 Q1932.94 159.335 1935.07 156.835 Q1937.22 154.312 1937.22 150.145 L1937.22 149.196 L1932.99 149.196 M1941.48 147.437 L1941.48 162.229 L1937.22 162.229 L1937.22 158.293 Q1935.77 160.655 1933.59 161.789 Q1931.41 162.9 1928.27 162.9 Q1924.29 162.9 1921.92 160.678 Q1919.59 158.432 1919.59 154.682 Q1919.59 150.307 1922.5 148.085 Q1925.44 145.863 1931.25 145.863 L1937.22 145.863 L1937.22 145.446 Q1937.22 142.507 1935.28 140.909 Q1933.36 139.289 1929.86 139.289 Q1927.64 139.289 1925.54 139.821 Q1923.43 140.354 1921.48 141.419 L1921.48 137.483 Q1923.82 136.581 1926.02 136.141 Q1928.22 135.678 1930.3 135.678 Q1935.93 135.678 1938.71 138.594 Q1941.48 141.511 1941.48 147.437 Z" fill="#000000" fill-rule="nonzero" fill-opacity="1" /><path clip-path="url(#clip260)" d="M1950.26 126.21 L1954.52 126.21 L1954.52 162.229 L1950.26 162.229 L1950.26 126.21 Z" fill="#000000" fill-rule="nonzero" fill-opacity="1" /><path clip-path="url(#clip260)" d="M1995.56 140.238 L1995.56 126.21 L1999.82 126.21 L1999.82 162.229 L1995.56 162.229 L1995.56 158.34 Q1994.22 160.655 1992.16 161.789 Q1990.12 162.9 1987.25 162.9 Q1982.55 162.9 1979.59 159.15 Q1976.65 155.4 1976.65 149.289 Q1976.65 143.178 1979.59 139.428 Q1982.55 135.678 1987.25 135.678 Q1990.12 135.678 1992.16 136.812 Q1994.22 137.923 1995.56 140.238 M1981.04 149.289 Q1981.04 153.988 1982.97 156.673 Q1984.91 159.335 1988.29 159.335 Q1991.67 159.335 1993.61 156.673 Q1995.56 153.988 1995.56 149.289 Q1995.56 144.59 1993.61 141.928 Q1991.67 139.243 1988.29 139.243 Q1984.91 139.243 1982.97 141.928 Q1981.04 144.59 1981.04 149.289 Z" fill="#000000" fill-rule="nonzero" fill-opacity="1" /><path clip-path="url(#clip260)" d="M2020.37 149.196 Q2015.21 149.196 2013.22 150.377 Q2011.23 151.557 2011.23 154.405 Q2011.23 156.673 2012.71 158.016 Q2014.22 159.335 2016.78 159.335 Q2020.33 159.335 2022.46 156.835 Q2024.61 154.312 2024.61 150.145 L2024.61 149.196 L2020.37 149.196 M2028.87 147.437 L2028.87 162.229 L2024.61 162.229 L2024.61 158.293 Q2023.15 160.655 2020.97 161.789 Q2018.8 162.9 2015.65 162.9 Q2011.67 162.9 2009.31 160.678 Q2006.97 158.432 2006.97 154.682 Q2006.97 150.307 2009.89 148.085 Q2012.83 145.863 2018.64 145.863 L2024.61 145.863 L2024.61 145.446 Q2024.61 142.507 2022.66 140.909 Q2020.74 139.289 2017.25 139.289 Q2015.03 139.289 2012.92 139.821 Q2010.81 140.354 2008.87 141.419 L2008.87 137.483 Q2011.21 136.581 2013.41 136.141 Q2015.6 135.678 2017.69 135.678 Q2023.31 135.678 2026.09 138.594 Q2028.87 141.511 2028.87 147.437 Z" fill="#000000" fill-rule="nonzero" fill-opacity="1" /><path clip-path="url(#clip260)" d="M2041.85 128.942 L2041.85 136.303 L2050.63 136.303 L2050.63 139.613 L2041.85 139.613 L2041.85 153.687 Q2041.85 156.858 2042.71 157.761 Q2043.59 158.664 2046.25 158.664 L2050.63 158.664 L2050.63 162.229 L2046.25 162.229 Q2041.32 162.229 2039.45 160.4 Q2037.57 158.548 2037.57 153.687 L2037.57 139.613 L2034.45 139.613 L2034.45 136.303 L2037.57 136.303 L2037.57 128.942 L2041.85 128.942 Z" fill="#000000" fill-rule="nonzero" fill-opacity="1" /><path clip-path="url(#clip260)" d="M2068.01 149.196 Q2062.85 149.196 2060.86 150.377 Q2058.87 151.557 2058.87 154.405 Q2058.87 156.673 2060.35 158.016 Q2061.85 159.335 2064.42 159.335 Q2067.96 159.335 2070.09 156.835 Q2072.25 154.312 2072.25 150.145 L2072.25 149.196 L2068.01 149.196 M2076.51 147.437 L2076.51 162.229 L2072.25 162.229 L2072.25 158.293 Q2070.79 160.655 2068.61 161.789 Q2066.44 162.9 2063.29 162.9 Q2059.31 162.9 2056.95 160.678 Q2054.61 158.432 2054.61 154.682 Q2054.61 150.307 2057.53 148.085 Q2060.46 145.863 2066.28 145.863 L2072.25 145.863 L2072.25 145.446 Q2072.25 142.507 2070.3 140.909 Q2068.38 139.289 2064.89 139.289 Q2062.66 139.289 2060.56 139.821 Q2058.45 140.354 2056.51 141.419 L2056.51 137.483 Q2058.84 136.581 2061.04 136.141 Q2063.24 135.678 2065.33 135.678 Q2070.95 135.678 2073.73 138.594 Q2076.51 141.511 2076.51 147.437 Z" fill="#000000" fill-rule="nonzero" fill-opacity="1" /><circle clip-path="url(#clip260)" cx="1680.54" cy="196.789" r="20.48" fill="#e26f46" fill-rule="evenodd" fill-opacity="1" stroke="#000000" stroke-opacity="1" stroke-width="4.55111"/>
<path clip-path="url(#clip260)" d="M1780.79 183.351 L1780.79 210.226 L1786.44 210.226 Q1793.59 210.226 1796.9 206.985 Q1800.23 203.745 1800.23 196.754 Q1800.23 189.809 1796.9 186.592 Q1793.59 183.351 1786.44 183.351 L1780.79 183.351 M1776.11 179.509 L1785.72 179.509 Q1795.77 179.509 1800.47 183.698 Q1805.17 187.865 1805.17 196.754 Q1805.17 205.689 1800.44 209.879 Q1795.72 214.069 1785.72 214.069 L1776.11 214.069 L1776.11 179.509 Z" fill="#000000" fill-rule="nonzero" fill-opacity="1" /><path clip-path="url(#clip260)" d="M1824.22 201.036 Q1819.05 201.036 1817.06 202.217 Q1815.07 203.397 1815.07 206.245 Q1815.07 208.513 1816.55 209.856 Q1818.06 211.175 1820.63 211.175 Q1824.17 211.175 1826.3 208.675 Q1828.45 206.152 1828.45 201.985 L1828.45 201.036 L1824.22 201.036 M1832.71 199.277 L1832.71 214.069 L1828.45 214.069 L1828.45 210.133 Q1826.99 212.495 1824.82 213.629 Q1822.64 214.74 1819.49 214.74 Q1815.51 214.74 1813.15 212.518 Q1810.81 210.272 1810.81 206.522 Q1810.81 202.147 1813.73 199.925 Q1816.67 197.703 1822.48 197.703 L1828.45 197.703 L1828.45 197.286 Q1828.45 194.347 1826.51 192.749 Q1824.59 191.129 1821.09 191.129 Q1818.87 191.129 1816.76 191.661 Q1814.66 192.194 1812.71 193.259 L1812.71 189.323 Q1815.05 188.421 1817.25 187.981 Q1819.45 187.518 1821.53 187.518 Q1827.16 187.518 1829.93 190.434 Q1832.71 193.351 1832.71 199.277 Z" fill="#000000" fill-rule="nonzero" fill-opacity="1" /><path clip-path="url(#clip260)" d="M1845.7 180.782 L1845.7 188.143 L1854.47 188.143 L1854.47 191.453 L1845.7 191.453 L1845.7 205.527 Q1845.7 208.698 1846.55 209.601 Q1847.43 210.504 1850.1 210.504 L1854.47 210.504 L1854.47 214.069 L1850.1 214.069 Q1845.17 214.069 1843.29 212.24 Q1841.42 210.388 1841.42 205.527 L1841.42 191.453 L1838.29 191.453 L1838.29 188.143 L1841.42 188.143 L1841.42 180.782 L1845.7 180.782 Z" fill="#000000" fill-rule="nonzero" fill-opacity="1" /><path clip-path="url(#clip260)" d="M1871.85 201.036 Q1866.69 201.036 1864.7 202.217 Q1862.71 203.397 1862.71 206.245 Q1862.71 208.513 1864.19 209.856 Q1865.7 211.175 1868.27 211.175 Q1871.81 211.175 1873.94 208.675 Q1876.09 206.152 1876.09 201.985 L1876.09 201.036 L1871.85 201.036 M1880.35 199.277 L1880.35 214.069 L1876.09 214.069 L1876.09 210.133 Q1874.63 212.495 1872.46 213.629 Q1870.28 214.74 1867.13 214.74 Q1863.15 214.74 1860.79 212.518 Q1858.45 210.272 1858.45 206.522 Q1858.45 202.147 1861.37 199.925 Q1864.31 197.703 1870.12 197.703 L1876.09 197.703 L1876.09 197.286 Q1876.09 194.347 1874.15 192.749 Q1872.23 191.129 1868.73 191.129 Q1866.51 191.129 1864.4 191.661 Q1862.29 192.194 1860.35 193.259 L1860.35 189.323 Q1862.69 188.421 1864.89 187.981 Q1867.09 187.518 1869.17 187.518 Q1874.79 187.518 1877.57 190.434 Q1880.35 193.351 1880.35 199.277 Z" fill="#000000" fill-rule="nonzero" fill-opacity="1" /><path clip-path="url(#clip260)" d="M1915.97 201.036 Q1910.81 201.036 1908.82 202.217 Q1906.83 203.397 1906.83 206.245 Q1906.83 208.513 1908.31 209.856 Q1909.82 211.175 1912.39 211.175 Q1915.93 211.175 1918.06 208.675 Q1920.21 206.152 1920.21 201.985 L1920.21 201.036 L1915.97 201.036 M1924.47 199.277 L1924.47 214.069 L1920.21 214.069 L1920.21 210.133 Q1918.75 212.495 1916.58 213.629 Q1914.4 214.74 1911.25 214.74 Q1907.27 214.74 1904.91 212.518 Q1902.57 210.272 1902.57 206.522 Q1902.57 202.147 1905.49 199.925 Q1908.43 197.703 1914.24 197.703 L1920.21 197.703 L1920.21 197.286 Q1920.21 194.347 1918.27 192.749 Q1916.35 191.129 1912.85 191.129 Q1910.63 191.129 1908.52 191.661 Q1906.41 192.194 1904.47 193.259 L1904.47 189.323 Q1906.81 188.421 1909.01 187.981 Q1911.21 187.518 1913.29 187.518 Q1918.91 187.518 1921.69 190.434 Q1924.47 193.351 1924.47 199.277 Z" fill="#000000" fill-rule="nonzero" fill-opacity="1" /><path clip-path="url(#clip260)" d="M1946.37 178.05 L1946.37 181.592 L1942.29 181.592 Q1940 181.592 1939.1 182.518 Q1938.22 183.444 1938.22 185.851 L1938.22 188.143 L1945.23 188.143 L1945.23 191.453 L1938.22 191.453 L1938.22 214.069 L1933.94 214.069 L1933.94 191.453 L1929.86 191.453 L1929.86 188.143 L1933.94 188.143 L1933.94 186.337 Q1933.94 182.009 1935.95 180.041 Q1937.97 178.05 1942.34 178.05 L1946.37 178.05 Z" fill="#000000" fill-rule="nonzero" fill-opacity="1" /><path clip-path="url(#clip260)" d="M1953.31 180.782 L1953.31 188.143 L1962.09 188.143 L1962.09 191.453 L1953.31 191.453 L1953.31 205.527 Q1953.31 208.698 1954.17 209.601 Q1955.05 210.504 1957.71 210.504 L1962.09 210.504 L1962.09 214.069 L1957.71 214.069 Q1952.78 214.069 1950.91 212.24 Q1949.03 210.388 1949.03 205.527 L1949.03 191.453 L1945.91 191.453 L1945.91 188.143 L1949.03 188.143 L1949.03 180.782 L1953.31 180.782 Z" fill="#000000" fill-rule="nonzero" fill-opacity="1" /><path clip-path="url(#clip260)" d="M1989.86 200.041 L1989.86 202.124 L1970.28 202.124 Q1970.56 206.522 1972.92 208.837 Q1975.3 211.129 1979.54 211.129 Q1981.99 211.129 1984.28 210.527 Q1986.6 209.925 1988.87 208.721 L1988.87 212.749 Q1986.58 213.721 1984.17 214.231 Q1981.76 214.74 1979.28 214.74 Q1973.08 214.74 1969.45 211.129 Q1965.84 207.518 1965.84 201.36 Q1965.84 194.995 1969.26 191.268 Q1972.71 187.518 1978.54 187.518 Q1983.78 187.518 1986.81 190.897 Q1989.86 194.254 1989.86 200.041 M1985.6 198.791 Q1985.56 195.296 1983.64 193.212 Q1981.74 191.129 1978.59 191.129 Q1975.03 191.129 1972.87 193.143 Q1970.74 195.157 1970.42 198.814 L1985.6 198.791 Z" fill="#000000" fill-rule="nonzero" fill-opacity="1" /><path clip-path="url(#clip260)" d="M2011.88 192.124 Q2011.16 191.708 2010.3 191.522 Q2009.47 191.314 2008.45 191.314 Q2004.84 191.314 2002.9 193.675 Q2000.97 196.013 2000.97 200.411 L2000.97 214.069 L1996.69 214.069 L1996.69 188.143 L2000.97 188.143 L2000.97 192.171 Q2002.32 189.809 2004.47 188.675 Q2006.62 187.518 2009.7 187.518 Q2010.14 187.518 2010.67 187.587 Q2011.21 187.634 2011.85 187.749 L2011.88 192.124 Z" fill="#000000" fill-rule="nonzero" fill-opacity="1" /><path clip-path="url(#clip260)" d="M2050.07 189.138 L2050.07 193.12 Q2048.27 192.124 2046.44 191.638 Q2044.63 191.129 2042.78 191.129 Q2038.64 191.129 2036.34 193.768 Q2034.05 196.384 2034.05 201.129 Q2034.05 205.874 2036.34 208.513 Q2038.64 211.129 2042.78 211.129 Q2044.63 211.129 2046.44 210.643 Q2048.27 210.133 2050.07 209.138 L2050.07 213.073 Q2048.29 213.907 2046.37 214.323 Q2044.47 214.74 2042.32 214.74 Q2036.46 214.74 2033.01 211.059 Q2029.56 207.379 2029.56 201.129 Q2029.56 194.786 2033.03 191.152 Q2036.53 187.518 2042.59 187.518 Q2044.56 187.518 2046.44 187.935 Q2048.31 188.328 2050.07 189.138 Z" fill="#000000" fill-rule="nonzero" fill-opacity="1" /><path clip-path="url(#clip260)" d="M2057.48 178.05 L2061.74 178.05 L2061.74 214.069 L2057.48 214.069 L2057.48 178.05 Z" fill="#000000" fill-rule="nonzero" fill-opacity="1" /><path clip-path="url(#clip260)" d="M2070.21 203.837 L2070.21 188.143 L2074.47 188.143 L2074.47 203.675 Q2074.47 207.356 2075.9 209.208 Q2077.34 211.036 2080.21 211.036 Q2083.66 211.036 2085.65 208.837 Q2087.66 206.638 2087.66 202.842 L2087.66 188.143 L2091.92 188.143 L2091.92 214.069 L2087.66 214.069 L2087.66 210.087 Q2086.11 212.448 2084.05 213.606 Q2082.02 214.74 2079.31 214.74 Q2074.84 214.74 2072.53 211.962 Q2070.21 209.184 2070.21 203.837 M2080.93 187.518 L2080.93 187.518 Z" fill="#000000" fill-rule="nonzero" fill-opacity="1" /><path clip-path="url(#clip260)" d="M2117.22 188.907 L2117.22 192.934 Q2115.42 192.009 2113.47 191.546 Q2111.53 191.083 2109.45 191.083 Q2106.27 191.083 2104.68 192.055 Q2103.1 193.027 2103.1 194.971 Q2103.1 196.453 2104.24 197.309 Q2105.37 198.143 2108.8 198.907 L2110.26 199.231 Q2114.79 200.203 2116.69 201.985 Q2118.61 203.745 2118.61 206.916 Q2118.61 210.527 2115.74 212.633 Q2112.9 214.74 2107.9 214.74 Q2105.81 214.74 2103.54 214.323 Q2101.3 213.93 2098.8 213.12 L2098.8 208.721 Q2101.16 209.948 2103.45 210.573 Q2105.74 211.175 2107.99 211.175 Q2111 211.175 2112.62 210.157 Q2114.24 209.115 2114.24 207.24 Q2114.24 205.504 2113.06 204.578 Q2111.9 203.652 2107.94 202.796 L2106.46 202.448 Q2102.5 201.615 2100.74 199.902 Q2098.98 198.166 2098.98 195.157 Q2098.98 191.499 2101.58 189.509 Q2104.17 187.518 2108.94 187.518 Q2111.3 187.518 2113.38 187.865 Q2115.46 188.212 2117.22 188.907 Z" fill="#000000" fill-rule="nonzero" fill-opacity="1" /><path clip-path="url(#clip260)" d="M2129.61 180.782 L2129.61 188.143 L2138.38 188.143 L2138.38 191.453 L2129.61 191.453 L2129.61 205.527 Q2129.61 208.698 2130.46 209.601 Q2131.34 210.504 2134.01 210.504 L2138.38 210.504 L2138.38 214.069 L2134.01 214.069 Q2129.08 214.069 2127.2 212.24 Q2125.33 210.388 2125.33 205.527 L2125.33 191.453 L2122.2 191.453 L2122.2 188.143 L2125.33 188.143 L2125.33 180.782 L2129.61 180.782 Z" fill="#000000" fill-rule="nonzero" fill-opacity="1" /><path clip-path="url(#clip260)" d="M2166.16 200.041 L2166.16 202.124 L2146.58 202.124 Q2146.85 206.522 2149.21 208.837 Q2151.6 211.129 2155.83 211.129 Q2158.29 211.129 2160.58 210.527 Q2162.89 209.925 2165.16 208.721 L2165.16 212.749 Q2162.87 213.721 2160.46 214.231 Q2158.06 214.74 2155.58 214.74 Q2149.38 214.74 2145.74 211.129 Q2142.13 207.518 2142.13 201.36 Q2142.13 194.995 2145.56 191.268 Q2149.01 187.518 2154.84 187.518 Q2160.07 187.518 2163.1 190.897 Q2166.16 194.254 2166.16 200.041 M2161.9 198.791 Q2161.85 195.296 2159.93 193.212 Q2158.03 191.129 2154.89 191.129 Q2151.32 191.129 2149.17 193.143 Q2147.04 195.157 2146.71 198.814 L2161.9 198.791 Z" fill="#000000" fill-rule="nonzero" fill-opacity="1" /><path clip-path="url(#clip260)" d="M2188.17 192.124 Q2187.46 191.708 2186.6 191.522 Q2185.77 191.314 2184.75 191.314 Q2181.14 191.314 2179.19 193.675 Q2177.27 196.013 2177.27 200.411 L2177.27 214.069 L2172.99 214.069 L2172.99 188.143 L2177.27 188.143 L2177.27 192.171 Q2178.61 189.809 2180.77 188.675 Q2182.92 187.518 2186 187.518 Q2186.44 187.518 2186.97 187.587 Q2187.5 187.634 2188.15 187.749 L2188.17 192.124 Z" fill="#000000" fill-rule="nonzero" fill-opacity="1" /><path clip-path="url(#clip260)" d="M2192.64 188.143 L2196.9 188.143 L2196.9 214.069 L2192.64 214.069 L2192.64 188.143 M2192.64 178.05 L2196.9 178.05 L2196.9 183.444 L2192.64 183.444 L2192.64 178.05 Z" fill="#000000" fill-rule="nonzero" fill-opacity="1" /><path clip-path="url(#clip260)" d="M2227.36 198.421 L2227.36 214.069 L2223.1 214.069 L2223.1 198.559 Q2223.1 194.879 2221.67 193.05 Q2220.23 191.222 2217.36 191.222 Q2213.91 191.222 2211.92 193.421 Q2209.93 195.62 2209.93 199.416 L2209.93 214.069 L2205.65 214.069 L2205.65 188.143 L2209.93 188.143 L2209.93 192.171 Q2211.46 189.833 2213.52 188.675 Q2215.6 187.518 2218.31 187.518 Q2222.78 187.518 2225.07 190.296 Q2227.36 193.05 2227.36 198.421 Z" fill="#000000" fill-rule="nonzero" fill-opacity="1" /><path clip-path="url(#clip260)" d="M2252.92 200.805 Q2252.92 196.175 2251 193.629 Q2249.1 191.083 2245.65 191.083 Q2242.22 191.083 2240.3 193.629 Q2238.4 196.175 2238.4 200.805 Q2238.4 205.411 2240.3 207.958 Q2242.22 210.504 2245.65 210.504 Q2249.1 210.504 2251 207.958 Q2252.92 205.411 2252.92 200.805 M2257.18 210.851 Q2257.18 217.471 2254.24 220.689 Q2251.3 223.93 2245.23 223.93 Q2242.99 223.93 2241 223.582 Q2239.01 223.258 2237.13 222.564 L2237.13 218.42 Q2239.01 219.439 2240.83 219.925 Q2242.66 220.411 2244.56 220.411 Q2248.75 220.411 2250.83 218.212 Q2252.92 216.036 2252.92 211.615 L2252.92 209.508 Q2251.6 211.8 2249.54 212.934 Q2247.48 214.069 2244.61 214.069 Q2239.84 214.069 2236.92 210.434 Q2234.01 206.8 2234.01 200.805 Q2234.01 194.786 2236.92 191.152 Q2239.84 187.518 2244.61 187.518 Q2247.48 187.518 2249.54 188.652 Q2251.6 189.786 2252.92 192.078 L2252.92 188.143 L2257.18 188.143 L2257.18 210.851 Z" fill="#000000" fill-rule="nonzero" fill-opacity="1" /></svg>
