<?xml version="1.0" encoding="utf-8"?>
<svg xmlns="http://www.w3.org/2000/svg" xmlns:xlink="http://www.w3.org/1999/xlink" width="600" height="400" viewBox="0 0 2400 1600">
<defs>
  <clipPath id="clip390">
    <rect x="0" y="0" width="2400" height="1600"/>
  </clipPath>
</defs>
<path clip-path="url(#clip390)" d="M0 1600 L2400 1600 L2400 0 L0 0  Z" fill="#ffffff" fill-rule="evenodd" fill-opacity="1"/>
<defs>
  <clipPath id="clip391">
    <rect x="480" y="0" width="1681" height="1600"/>
  </clipPath>
</defs>
<path clip-path="url(#clip390)" d="M112.177 1486.45 L2352.76 1486.45 L2352.76 47.2441 L112.177 47.2441  Z" fill="#ffffff" fill-rule="evenodd" fill-opacity="1"/>
<defs>
  <clipPath id="clip392">
    <rect x="112" y="47" width="2242" height="1440"/>
  </clipPath>
</defs>
<polyline clip-path="url(#clip390)" style="stroke:#000000; stroke-linecap:round; stroke-linejoin:round; stroke-width:4; stroke-opacity:1; fill:none" points="112.177,1486.45 2352.76,1486.45 "/>
<polyline clip-path="url(#clip390)" style="stroke:#ffffff; stroke-linecap:round; stroke-linejoin:round; stroke-width:4; stroke-opacity:1; fill:none" points="224.206,1486.45 224.206,1467.55 "/>
<polyline clip-path="url(#clip390)" style="stroke:#ffffff; stroke-linecap:round; stroke-linejoin:round; stroke-width:4; stroke-opacity:1; fill:none" points="448.264,1486.45 448.264,1467.55 "/>
<polyline clip-path="url(#clip390)" style="stroke:#ffffff; stroke-linecap:round; stroke-linejoin:round; stroke-width:4; stroke-opacity:1; fill:none" points="672.322,1486.45 672.322,1467.55 "/>
<polyline clip-path="url(#clip390)" style="stroke:#ffffff; stroke-linecap:round; stroke-linejoin:round; stroke-width:4; stroke-opacity:1; fill:none" points="896.38,1486.45 896.38,1467.55 "/>
<polyline clip-path="url(#clip390)" style="stroke:#ffffff; stroke-linecap:round; stroke-linejoin:round; stroke-width:4; stroke-opacity:1; fill:none" points="1120.44,1486.45 1120.44,1467.55 "/>
<polyline clip-path="url(#clip390)" style="stroke:#ffffff; stroke-linecap:round; stroke-linejoin:round; stroke-width:4; stroke-opacity:1; fill:none" points="1344.5,1486.45 1344.5,1467.55 "/>
<polyline clip-path="url(#clip390)" style="stroke:#ffffff; stroke-linecap:round; stroke-linejoin:round; stroke-width:4; stroke-opacity:1; fill:none" points="1568.55,1486.45 1568.55,1467.55 "/>
<polyline clip-path="url(#clip390)" style="stroke:#ffffff; stroke-linecap:round; stroke-linejoin:round; stroke-width:4; stroke-opacity:1; fill:none" points="1792.61,1486.45 1792.61,1467.55 "/>
<polyline clip-path="url(#clip390)" style="stroke:#ffffff; stroke-linecap:round; stroke-linejoin:round; stroke-width:4; stroke-opacity:1; fill:none" points="2016.67,1486.45 2016.67,1467.55 "/>
<polyline clip-path="url(#clip390)" style="stroke:#ffffff; stroke-linecap:round; stroke-linejoin:round; stroke-width:4; stroke-opacity:1; fill:none" points="2240.73,1486.45 2240.73,1467.55 "/>
<path clip-path="url(#clip390)" d="M224.611 1529.7 Q221.463 1529.7 219.611 1531.86 Q217.783 1534.01 217.783 1537.76 Q217.783 1541.49 219.611 1543.66 Q221.463 1545.82 224.611 1545.82 Q227.759 1545.82 229.588 1543.66 Q231.44 1541.49 231.44 1537.76 Q231.44 1534.01 229.588 1531.86 Q227.759 1529.7 224.611 1529.7 M233.894 1515.05 L233.894 1519.31 Q232.134 1518.48 230.329 1518.04 Q228.546 1517.6 226.787 1517.6 Q222.158 1517.6 219.704 1520.72 Q217.273 1523.85 216.926 1530.17 Q218.292 1528.15 220.352 1527.09 Q222.412 1526 224.889 1526 Q230.097 1526 233.107 1529.17 Q236.139 1532.32 236.139 1537.76 Q236.139 1543.08 232.991 1546.3 Q229.843 1549.52 224.611 1549.52 Q218.616 1549.52 215.445 1544.94 Q212.273 1540.33 212.273 1531.6 Q212.273 1523.41 216.162 1518.55 Q220.051 1513.66 226.602 1513.66 Q228.361 1513.66 230.144 1514.01 Q231.949 1514.36 233.894 1515.05 Z" fill="#000000" fill-rule="nonzero" fill-opacity="1" /><path clip-path="url(#clip390)" d="M422.952 1544.91 L430.59 1544.91 L430.59 1518.55 L422.28 1520.21 L422.28 1515.95 L430.544 1514.29 L435.22 1514.29 L435.22 1544.91 L442.859 1544.91 L442.859 1548.85 L422.952 1548.85 L422.952 1544.91 Z" fill="#000000" fill-rule="nonzero" fill-opacity="1" /><path clip-path="url(#clip390)" d="M462.303 1517.37 Q458.692 1517.37 456.863 1520.93 Q455.058 1524.47 455.058 1531.6 Q455.058 1538.71 456.863 1542.27 Q458.692 1545.82 462.303 1545.82 Q465.938 1545.82 467.743 1542.27 Q469.572 1538.71 469.572 1531.6 Q469.572 1524.47 467.743 1520.93 Q465.938 1517.37 462.303 1517.37 M462.303 1513.66 Q468.113 1513.66 471.169 1518.27 Q474.248 1522.85 474.248 1531.6 Q474.248 1540.33 471.169 1544.94 Q468.113 1549.52 462.303 1549.52 Q456.493 1549.52 453.414 1544.94 Q450.359 1540.33 450.359 1531.6 Q450.359 1522.85 453.414 1518.27 Q456.493 1513.66 462.303 1513.66 Z" fill="#000000" fill-rule="nonzero" fill-opacity="1" /><path clip-path="url(#clip390)" d="M672.322 1532.44 Q668.989 1532.44 667.067 1534.22 Q665.169 1536 665.169 1539.13 Q665.169 1542.25 667.067 1544.03 Q668.989 1545.82 672.322 1545.82 Q675.655 1545.82 677.576 1544.03 Q679.498 1542.23 679.498 1539.13 Q679.498 1536 677.576 1534.22 Q675.678 1532.44 672.322 1532.44 M667.646 1530.45 Q664.637 1529.7 662.947 1527.64 Q661.28 1525.58 661.28 1522.62 Q661.28 1518.48 664.22 1516.07 Q667.183 1513.66 672.322 1513.66 Q677.484 1513.66 680.424 1516.07 Q683.363 1518.48 683.363 1522.62 Q683.363 1525.58 681.674 1527.64 Q680.007 1529.7 677.021 1530.45 Q680.401 1531.23 682.276 1533.52 Q684.174 1535.82 684.174 1539.13 Q684.174 1544.15 681.095 1546.83 Q678.039 1549.52 672.322 1549.52 Q666.604 1549.52 663.526 1546.83 Q660.47 1544.15 660.47 1539.13 Q660.47 1535.82 662.368 1533.52 Q664.266 1531.23 667.646 1530.45 M665.933 1523.06 Q665.933 1525.75 667.6 1527.25 Q669.289 1528.76 672.322 1528.76 Q675.331 1528.76 677.021 1527.25 Q678.734 1525.75 678.734 1523.06 Q678.734 1520.38 677.021 1518.87 Q675.331 1517.37 672.322 1517.37 Q669.289 1517.37 667.6 1518.87 Q665.933 1520.38 665.933 1523.06 Z" fill="#000000" fill-rule="nonzero" fill-opacity="1" /><path clip-path="url(#clip390)" d="M885.269 1514.29 L907.491 1514.29 L907.491 1516.28 L894.945 1548.85 L890.06 1548.85 L901.866 1518.22 L885.269 1518.22 L885.269 1514.29 Z" fill="#000000" fill-rule="nonzero" fill-opacity="1" /><path clip-path="url(#clip390)" d="M1110.74 1548.13 L1110.74 1543.87 Q1112.5 1544.7 1114.3 1545.14 Q1116.11 1545.58 1117.85 1545.58 Q1122.47 1545.58 1124.91 1542.48 Q1127.36 1539.36 1127.71 1533.01 Q1126.36 1535.01 1124.3 1536.07 Q1122.24 1537.13 1119.74 1537.13 Q1114.56 1537.13 1111.53 1534.01 Q1108.52 1530.86 1108.52 1525.42 Q1108.52 1520.1 1111.66 1516.88 Q1114.81 1513.66 1120.04 1513.66 Q1126.04 1513.66 1129.19 1518.27 Q1132.36 1522.85 1132.36 1531.6 Q1132.36 1539.77 1128.47 1544.66 Q1124.6 1549.52 1118.05 1549.52 Q1116.29 1549.52 1114.49 1549.17 Q1112.68 1548.82 1110.74 1548.13 M1120.04 1533.48 Q1123.19 1533.48 1125.02 1531.32 Q1126.87 1529.17 1126.87 1525.42 Q1126.87 1521.7 1125.02 1519.54 Q1123.19 1517.37 1120.04 1517.37 Q1116.9 1517.37 1115.04 1519.54 Q1113.22 1521.7 1113.22 1525.42 Q1113.22 1529.17 1115.04 1531.32 Q1116.9 1533.48 1120.04 1533.48 Z" fill="#000000" fill-rule="nonzero" fill-opacity="1" /><path clip-path="url(#clip390)" d="M1347.5 1518.36 L1335.7 1536.81 L1347.5 1536.81 L1347.5 1518.36 M1346.28 1514.29 L1352.16 1514.29 L1352.16 1536.81 L1357.09 1536.81 L1357.09 1540.7 L1352.16 1540.7 L1352.16 1548.85 L1347.5 1548.85 L1347.5 1540.7 L1331.9 1540.7 L1331.9 1536.19 L1346.28 1514.29 Z" fill="#000000" fill-rule="nonzero" fill-opacity="1" /><path clip-path="url(#clip390)" d="M1572.8 1530.21 Q1576.16 1530.93 1578.03 1533.2 Q1579.93 1535.47 1579.93 1538.8 Q1579.93 1543.92 1576.41 1546.72 Q1572.89 1549.52 1566.41 1549.52 Q1564.24 1549.52 1561.92 1549.08 Q1559.63 1548.66 1557.18 1547.81 L1557.18 1543.29 Q1559.12 1544.43 1561.44 1545.01 Q1563.75 1545.58 1566.27 1545.58 Q1570.67 1545.58 1572.96 1543.85 Q1575.28 1542.11 1575.28 1538.8 Q1575.28 1535.75 1573.13 1534.03 Q1571 1532.3 1567.18 1532.3 L1563.15 1532.3 L1563.15 1528.45 L1567.36 1528.45 Q1570.81 1528.45 1572.64 1527.09 Q1574.47 1525.7 1574.47 1523.11 Q1574.47 1520.45 1572.57 1519.03 Q1570.69 1517.6 1567.18 1517.6 Q1565.25 1517.6 1563.06 1518.01 Q1560.86 1518.43 1558.22 1519.31 L1558.22 1515.14 Q1560.88 1514.4 1563.19 1514.03 Q1565.53 1513.66 1567.59 1513.66 Q1572.92 1513.66 1576.02 1516.09 Q1579.12 1518.5 1579.12 1522.62 Q1579.12 1525.49 1577.48 1527.48 Q1575.83 1529.45 1572.8 1530.21 Z" fill="#000000" fill-rule="nonzero" fill-opacity="1" /><path clip-path="url(#clip390)" d="M1782.89 1514.29 L1801.25 1514.29 L1801.25 1518.22 L1787.17 1518.22 L1787.17 1526.7 Q1788.19 1526.35 1789.21 1526.19 Q1790.23 1526 1791.25 1526 Q1797.03 1526 1800.41 1529.17 Q1803.79 1532.34 1803.79 1537.76 Q1803.79 1543.34 1800.32 1546.44 Q1796.85 1549.52 1790.53 1549.52 Q1788.35 1549.52 1786.08 1549.15 Q1783.84 1548.78 1781.43 1548.04 L1781.43 1543.34 Q1783.51 1544.47 1785.74 1545.03 Q1787.96 1545.58 1790.44 1545.58 Q1794.44 1545.58 1796.78 1543.48 Q1799.12 1541.37 1799.12 1537.76 Q1799.12 1534.15 1796.78 1532.04 Q1794.44 1529.94 1790.44 1529.94 Q1788.56 1529.94 1786.69 1530.35 Q1784.83 1530.77 1782.89 1531.65 L1782.89 1514.29 Z" fill="#000000" fill-rule="nonzero" fill-opacity="1" /><path clip-path="url(#clip390)" d="M2007.05 1544.91 L2014.69 1544.91 L2014.69 1518.55 L2006.38 1520.21 L2006.38 1515.95 L2014.64 1514.29 L2019.32 1514.29 L2019.32 1544.91 L2026.96 1544.91 L2026.96 1548.85 L2007.05 1548.85 L2007.05 1544.91 Z" fill="#000000" fill-rule="nonzero" fill-opacity="1" /><path clip-path="url(#clip390)" d="M2235.38 1544.91 L2251.7 1544.91 L2251.7 1548.85 L2229.75 1548.85 L2229.75 1544.91 Q2232.42 1542.16 2237 1537.53 Q2241.61 1532.88 2242.79 1531.53 Q2245.03 1529.01 2245.91 1527.27 Q2246.81 1525.51 2246.81 1523.82 Q2246.81 1521.07 2244.87 1519.33 Q2242.95 1517.6 2239.85 1517.6 Q2237.65 1517.6 2235.19 1518.36 Q2232.76 1519.13 2229.99 1520.68 L2229.99 1515.95 Q2232.81 1514.82 2235.26 1514.24 Q2237.72 1513.66 2239.75 1513.66 Q2245.13 1513.66 2248.32 1516.35 Q2251.51 1519.03 2251.51 1523.52 Q2251.51 1525.65 2250.7 1527.57 Q2249.92 1529.47 2247.81 1532.07 Q2247.23 1532.74 2244.13 1535.95 Q2241.03 1539.15 2235.38 1544.91 Z" fill="#000000" fill-rule="nonzero" fill-opacity="1" /><polyline clip-path="url(#clip392)" style="stroke:#000000; stroke-linecap:round; stroke-linejoin:round; stroke-width:2; stroke-opacity:0.1; fill:none" points="112.177,1486.45 2352.76,1486.45 "/>
<polyline clip-path="url(#clip392)" style="stroke:#000000; stroke-linecap:round; stroke-linejoin:round; stroke-width:2; stroke-opacity:0.1; fill:none" points="112.177,1225.81 2352.76,1225.81 "/>
<polyline clip-path="url(#clip392)" style="stroke:#000000; stroke-linecap:round; stroke-linejoin:round; stroke-width:2; stroke-opacity:0.1; fill:none" points="112.177,965.178 2352.76,965.178 "/>
<polyline clip-path="url(#clip392)" style="stroke:#000000; stroke-linecap:round; stroke-linejoin:round; stroke-width:2; stroke-opacity:0.1; fill:none" points="112.177,704.543 2352.76,704.543 "/>
<polyline clip-path="url(#clip392)" style="stroke:#000000; stroke-linecap:round; stroke-linejoin:round; stroke-width:2; stroke-opacity:0.1; fill:none" points="112.177,443.908 2352.76,443.908 "/>
<polyline clip-path="url(#clip392)" style="stroke:#000000; stroke-linecap:round; stroke-linejoin:round; stroke-width:2; stroke-opacity:0.1; fill:none" points="112.177,183.272 2352.76,183.272 "/>
<polyline clip-path="url(#clip390)" style="stroke:#000000; stroke-linecap:round; stroke-linejoin:round; stroke-width:4; stroke-opacity:1; fill:none" points="112.177,1486.45 112.177,47.2441 "/>
<polyline clip-path="url(#clip390)" style="stroke:#000000; stroke-linecap:round; stroke-linejoin:round; stroke-width:4; stroke-opacity:1; fill:none" points="112.177,1486.45 131.075,1486.45 "/>
<polyline clip-path="url(#clip390)" style="stroke:#000000; stroke-linecap:round; stroke-linejoin:round; stroke-width:4; stroke-opacity:1; fill:none" points="112.177,1225.81 131.075,1225.81 "/>
<polyline clip-path="url(#clip390)" style="stroke:#000000; stroke-linecap:round; stroke-linejoin:round; stroke-width:4; stroke-opacity:1; fill:none" points="112.177,965.178 131.075,965.178 "/>
<polyline clip-path="url(#clip390)" style="stroke:#000000; stroke-linecap:round; stroke-linejoin:round; stroke-width:4; stroke-opacity:1; fill:none" points="112.177,704.543 131.075,704.543 "/>
<polyline clip-path="url(#clip390)" style="stroke:#000000; stroke-linecap:round; stroke-linejoin:round; stroke-width:4; stroke-opacity:1; fill:none" points="112.177,443.908 131.075,443.908 "/>
<polyline clip-path="url(#clip390)" style="stroke:#000000; stroke-linecap:round; stroke-linejoin:round; stroke-width:4; stroke-opacity:1; fill:none" points="112.177,183.272 131.075,183.272 "/>
<path clip-path="url(#clip390)" d="M64.2328 1472.25 Q60.6217 1472.25 58.793 1475.81 Q56.9875 1479.35 56.9875 1486.48 Q56.9875 1493.59 58.793 1497.15 Q60.6217 1500.7 64.2328 1500.7 Q67.867 1500.7 69.6726 1497.15 Q71.5013 1493.59 71.5013 1486.48 Q71.5013 1479.35 69.6726 1475.81 Q67.867 1472.25 64.2328 1472.25 M64.2328 1468.54 Q70.0429 1468.54 73.0985 1473.15 Q76.1772 1477.73 76.1772 1486.48 Q76.1772 1495.21 73.0985 1499.82 Q70.0429 1504.4 64.2328 1504.4 Q58.4226 1504.4 55.344 1499.82 Q52.2884 1495.21 52.2884 1486.48 Q52.2884 1477.73 55.344 1473.15 Q58.4226 1468.54 64.2328 1468.54 Z" fill="#000000" fill-rule="nonzero" fill-opacity="1" /><path clip-path="url(#clip390)" d="M56.2699 1239.16 L63.9087 1239.16 L63.9087 1212.79 L55.5986 1214.46 L55.5986 1210.2 L63.8624 1208.53 L68.5383 1208.53 L68.5383 1239.16 L76.1772 1239.16 L76.1772 1243.09 L56.2699 1243.09 L56.2699 1239.16 Z" fill="#000000" fill-rule="nonzero" fill-opacity="1" /><path clip-path="url(#clip390)" d="M59.8578 978.523 L76.1772 978.523 L76.1772 982.458 L54.2328 982.458 L54.2328 978.523 Q56.8949 975.768 61.4782 971.138 Q66.0846 966.486 67.2652 965.143 Q69.5105 962.62 70.3902 960.884 Q71.2929 959.124 71.2929 957.435 Q71.2929 954.68 69.3485 952.944 Q67.4272 951.208 64.3254 951.208 Q62.1263 951.208 59.6726 951.972 Q57.2421 952.736 54.4643 954.287 L54.4643 949.564 Q57.2884 948.43 59.7421 947.851 Q62.1958 947.273 64.2328 947.273 Q69.6031 947.273 72.7976 949.958 Q75.992 952.643 75.992 957.134 Q75.992 959.263 75.1818 961.185 Q74.3948 963.083 72.2883 965.675 Q71.7096 966.347 68.6078 969.564 Q65.5059 972.759 59.8578 978.523 Z" fill="#000000" fill-rule="nonzero" fill-opacity="1" /><path clip-path="url(#clip390)" d="M69.0476 703.188 Q72.404 703.906 74.279 706.175 Q76.1772 708.443 76.1772 711.776 Q76.1772 716.892 72.6587 719.693 Q69.1402 722.494 62.6587 722.494 Q60.4828 722.494 58.168 722.054 Q55.8764 721.637 53.4227 720.781 L53.4227 716.267 Q55.3671 717.401 57.6819 717.98 Q59.9967 718.559 62.5198 718.559 Q66.918 718.559 69.2096 716.823 Q71.5244 715.087 71.5244 711.776 Q71.5244 708.721 69.3717 707.008 Q67.242 705.272 63.4226 705.272 L59.3949 705.272 L59.3949 701.429 L63.6078 701.429 Q67.0569 701.429 68.8855 700.063 Q70.7142 698.675 70.7142 696.082 Q70.7142 693.42 68.8161 692.008 Q66.9411 690.573 63.4226 690.573 Q61.5013 690.573 59.3023 690.989 Q57.1032 691.406 54.4643 692.286 L54.4643 688.119 Q57.1264 687.378 59.4412 687.008 Q61.7791 686.638 63.8393 686.638 Q69.1633 686.638 72.2652 689.068 Q75.367 691.476 75.367 695.596 Q75.367 698.466 73.7235 700.457 Q72.08 702.425 69.0476 703.188 Z" fill="#000000" fill-rule="nonzero" fill-opacity="1" /><path clip-path="url(#clip390)" d="M66.5939 430.702 L54.7884 449.151 L66.5939 449.151 L66.5939 430.702 M65.367 426.628 L71.2466 426.628 L71.2466 449.151 L76.1772 449.151 L76.1772 453.039 L71.2466 453.039 L71.2466 461.188 L66.5939 461.188 L66.5939 453.039 L50.9921 453.039 L50.9921 448.526 L65.367 426.628 Z" fill="#000000" fill-rule="nonzero" fill-opacity="1" /><path clip-path="url(#clip390)" d="M55.2745 165.992 L73.6309 165.992 L73.6309 169.928 L59.5569 169.928 L59.5569 178.4 Q60.5754 178.053 61.5939 177.891 Q62.6124 177.705 63.6309 177.705 Q69.418 177.705 72.7976 180.877 Q76.1772 184.048 76.1772 189.465 Q76.1772 195.043 72.705 198.145 Q69.2328 201.224 62.9134 201.224 Q60.7374 201.224 58.4689 200.853 Q56.2236 200.483 53.8162 199.742 L53.8162 195.043 Q55.8995 196.177 58.1217 196.733 Q60.3439 197.289 62.8208 197.289 Q66.8254 197.289 69.1633 195.182 Q71.5013 193.076 71.5013 189.465 Q71.5013 185.853 69.1633 183.747 Q66.8254 181.641 62.8208 181.641 Q60.9458 181.641 59.0708 182.057 Q57.2189 182.474 55.2745 183.353 L55.2745 165.992 Z" fill="#000000" fill-rule="nonzero" fill-opacity="1" /><polyline clip-path="url(#clip392)" style="stroke:#000000; stroke-linecap:round; stroke-linejoin:round; stroke-width:4; stroke-opacity:1; fill:none" points="1568.55,1486.45 1568.55,1413.08 1792.61,1413.08 1792.61,1486.45 "/>
<polyline clip-path="url(#clip392)" style="stroke:#000000; stroke-linecap:round; stroke-linejoin:round; stroke-width:4; stroke-opacity:1; fill:none" points="1344.5,1486.45 1344.5,1294.97 1680.58,1294.97 1680.58,1413.08 "/>
<polyline clip-path="url(#clip392)" style="stroke:#000000; stroke-linecap:round; stroke-linejoin:round; stroke-width:4; stroke-opacity:1; fill:none" points="2016.67,1486.45 2016.67,1207.95 2240.73,1207.95 2240.73,1486.45 "/>
<polyline clip-path="url(#clip392)" style="stroke:#000000; stroke-linecap:round; stroke-linejoin:round; stroke-width:4; stroke-opacity:1; fill:none" points="896.38,1486.45 896.38,1149.5 1120.44,1149.5 1120.44,1486.45 "/>
<polyline clip-path="url(#clip392)" style="stroke:#000000; stroke-linecap:round; stroke-linejoin:round; stroke-width:4; stroke-opacity:1; fill:none" points="224.206,1486.45 224.206,1019.37 448.264,1019.37 448.264,1486.45 "/>
<polyline clip-path="url(#clip392)" style="stroke:#000000; stroke-linecap:round; stroke-linejoin:round; stroke-width:4; stroke-opacity:1; fill:none" points="672.322,1486.45 672.322,936.697 1008.41,936.697 1008.41,1149.5 "/>
<polyline clip-path="url(#clip392)" style="stroke:#000000; stroke-linecap:round; stroke-linejoin:round; stroke-width:4; stroke-opacity:1; fill:none" points="1512.54,1294.97 1512.54,850.778 2128.7,850.778 2128.7,1207.95 "/>
<polyline clip-path="url(#clip392)" style="stroke:#000000; stroke-linecap:round; stroke-linejoin:round; stroke-width:4; stroke-opacity:1; fill:none" points="840.365,936.697 840.365,554.516 1820.62,554.516 1820.62,850.778 "/>
<polyline clip-path="url(#clip392)" style="stroke:#000000; stroke-linecap:round; stroke-linejoin:round; stroke-width:4; stroke-opacity:1; fill:none" points="336.235,1019.37 336.235,47.2441 1330.49,47.2441 1330.49,554.516 "/>
</svg>
