<?xml version="1.0" encoding="utf-8"?>
<svg xmlns="http://www.w3.org/2000/svg" xmlns:xlink="http://www.w3.org/1999/xlink" width="600" height="400" viewBox="0 0 2400 1600">
<defs>
  <clipPath id="clip630">
    <rect x="0" y="0" width="2400" height="1600"/>
  </clipPath>
</defs>
<path clip-path="url(#clip630)" d="M0 1600 L2400 1600 L2400 0 L0 0  Z" fill="#ffffff" fill-rule="evenodd" fill-opacity="1"/>
<defs>
  <clipPath id="clip631">
    <rect x="480" y="0" width="1681" height="1600"/>
  </clipPath>
</defs>
<path clip-path="url(#clip630)" d="M112.177 1486.45 L2352.76 1486.45 L2352.76 47.2441 L112.177 47.2441  Z" fill="#ffffff" fill-rule="evenodd" fill-opacity="1"/>
<defs>
  <clipPath id="clip632">
    <rect x="112" y="47" width="2242" height="1440"/>
  </clipPath>
</defs>
<polyline clip-path="url(#clip630)" style="stroke:#000000; stroke-linecap:round; stroke-linejoin:round; stroke-width:4; stroke-opacity:1; fill:none" points="112.177,1486.45 2352.76,1486.45 "/>
<polyline clip-path="url(#clip630)" style="stroke:#ffffff; stroke-linecap:round; stroke-linejoin:round; stroke-width:4; stroke-opacity:1; fill:none" points="224.206,1486.45 224.206,1467.55 "/>
<polyline clip-path="url(#clip630)" style="stroke:#ffffff; stroke-linecap:round; stroke-linejoin:round; stroke-width:4; stroke-opacity:1; fill:none" points="448.264,1486.45 448.264,1467.55 "/>
<polyline clip-path="url(#clip630)" style="stroke:#ffffff; stroke-linecap:round; stroke-linejoin:round; stroke-width:4; stroke-opacity:1; fill:none" points="672.322,1486.45 672.322,1467.55 "/>
<polyline clip-path="url(#clip630)" style="stroke:#ffffff; stroke-linecap:round; stroke-linejoin:round; stroke-width:4; stroke-opacity:1; fill:none" points="896.38,1486.45 896.38,1467.55 "/>
<polyline clip-path="url(#clip630)" style="stroke:#ffffff; stroke-linecap:round; stroke-linejoin:round; stroke-width:4; stroke-opacity:1; fill:none" points="1120.44,1486.45 1120.44,1467.55 "/>
<polyline clip-path="url(#clip630)" style="stroke:#ffffff; stroke-linecap:round; stroke-linejoin:round; stroke-width:4; stroke-opacity:1; fill:none" points="1344.5,1486.45 1344.5,1467.55 "/>
<polyline clip-path="url(#clip630)" style="stroke:#ffffff; stroke-linecap:round; stroke-linejoin:round; stroke-width:4; stroke-opacity:1; fill:none" points="1568.55,1486.45 1568.55,1467.55 "/>
<polyline clip-path="url(#clip630)" style="stroke:#ffffff; stroke-linecap:round; stroke-linejoin:round; stroke-width:4; stroke-opacity:1; fill:none" points="1792.61,1486.45 1792.61,1467.55 "/>
<polyline clip-path="url(#clip630)" style="stroke:#ffffff; stroke-linecap:round; stroke-linejoin:round; stroke-width:4; stroke-opacity:1; fill:none" points="2016.67,1486.45 2016.67,1467.55 "/>
<polyline clip-path="url(#clip630)" style="stroke:#ffffff; stroke-linecap:round; stroke-linejoin:round; stroke-width:4; stroke-opacity:1; fill:none" points="2240.73,1486.45 2240.73,1467.55 "/>
<path clip-path="url(#clip630)" d="M224.206 1532.44 Q220.873 1532.44 218.952 1534.22 Q217.053 1536 217.053 1539.13 Q217.053 1542.25 218.952 1544.03 Q220.873 1545.82 224.206 1545.82 Q227.539 1545.82 229.461 1544.03 Q231.382 1542.23 231.382 1539.13 Q231.382 1536 229.461 1534.22 Q227.563 1532.44 224.206 1532.44 M219.53 1530.45 Q216.521 1529.7 214.831 1527.64 Q213.165 1525.58 213.165 1522.62 Q213.165 1518.48 216.104 1516.07 Q219.067 1513.66 224.206 1513.66 Q229.368 1513.66 232.308 1516.07 Q235.248 1518.48 235.248 1522.62 Q235.248 1525.58 233.558 1527.64 Q231.891 1529.7 228.905 1530.45 Q232.285 1531.23 234.16 1533.52 Q236.058 1535.82 236.058 1539.13 Q236.058 1544.15 232.979 1546.83 Q229.924 1549.52 224.206 1549.52 Q218.489 1549.52 215.41 1546.83 Q212.354 1544.15 212.354 1539.13 Q212.354 1535.82 214.252 1533.52 Q216.151 1531.23 219.53 1530.45 M217.817 1523.06 Q217.817 1525.75 219.484 1527.25 Q221.174 1528.76 224.206 1528.76 Q227.215 1528.76 228.905 1527.25 Q230.618 1525.75 230.618 1523.06 Q230.618 1520.38 228.905 1518.87 Q227.215 1517.37 224.206 1517.37 Q221.174 1517.37 219.484 1518.87 Q217.817 1520.38 217.817 1523.06 Z" fill="#000000" fill-rule="nonzero" fill-opacity="1" /><path clip-path="url(#clip630)" d="M438.565 1548.13 L438.565 1543.87 Q440.324 1544.7 442.13 1545.14 Q443.935 1545.58 445.671 1545.58 Q450.301 1545.58 452.732 1542.48 Q455.185 1539.36 455.532 1533.01 Q454.19 1535.01 452.13 1536.07 Q450.07 1537.13 447.57 1537.13 Q442.384 1537.13 439.352 1534.01 Q436.343 1530.86 436.343 1525.42 Q436.343 1520.1 439.491 1516.88 Q442.639 1513.66 447.87 1513.66 Q453.866 1513.66 457.014 1518.27 Q460.185 1522.85 460.185 1531.6 Q460.185 1539.77 456.296 1544.66 Q452.431 1549.52 445.88 1549.52 Q444.12 1549.52 442.315 1549.17 Q440.509 1548.82 438.565 1548.13 M447.87 1533.48 Q451.019 1533.48 452.847 1531.32 Q454.699 1529.17 454.699 1525.42 Q454.699 1521.7 452.847 1519.54 Q451.019 1517.37 447.87 1517.37 Q444.722 1517.37 442.87 1519.54 Q441.042 1521.7 441.042 1525.42 Q441.042 1529.17 442.87 1531.32 Q444.722 1533.48 447.87 1533.48 Z" fill="#000000" fill-rule="nonzero" fill-opacity="1" /><path clip-path="url(#clip630)" d="M672.727 1529.7 Q669.579 1529.7 667.727 1531.86 Q665.898 1534.01 665.898 1537.76 Q665.898 1541.49 667.727 1543.66 Q669.579 1545.82 672.727 1545.82 Q675.875 1545.82 677.704 1543.66 Q679.556 1541.49 679.556 1537.76 Q679.556 1534.01 677.704 1531.86 Q675.875 1529.7 672.727 1529.7 M682.009 1515.05 L682.009 1519.31 Q680.25 1518.48 678.445 1518.04 Q676.662 1517.6 674.903 1517.6 Q670.273 1517.6 667.82 1520.72 Q665.389 1523.85 665.042 1530.17 Q666.408 1528.15 668.468 1527.09 Q670.528 1526 673.005 1526 Q678.213 1526 681.222 1529.17 Q684.255 1532.32 684.255 1537.76 Q684.255 1543.08 681.107 1546.3 Q677.958 1549.52 672.727 1549.52 Q666.732 1549.52 663.56 1544.94 Q660.389 1540.33 660.389 1531.6 Q660.389 1523.41 664.278 1518.55 Q668.167 1513.66 674.718 1513.66 Q676.477 1513.66 678.259 1514.01 Q680.065 1514.36 682.009 1515.05 Z" fill="#000000" fill-rule="nonzero" fill-opacity="1" /><path clip-path="url(#clip630)" d="M885.269 1514.29 L907.491 1514.29 L907.491 1516.28 L894.945 1548.85 L890.06 1548.85 L901.866 1518.22 L885.269 1518.22 L885.269 1514.29 Z" fill="#000000" fill-rule="nonzero" fill-opacity="1" /><path clip-path="url(#clip630)" d="M1095.13 1544.91 L1102.76 1544.91 L1102.76 1518.55 L1094.45 1520.21 L1094.45 1515.95 L1102.72 1514.29 L1107.39 1514.29 L1107.39 1544.91 L1115.03 1544.91 L1115.03 1548.85 L1095.13 1548.85 L1095.13 1544.91 Z" fill="#000000" fill-rule="nonzero" fill-opacity="1" /><path clip-path="url(#clip630)" d="M1134.48 1517.37 Q1130.87 1517.37 1129.04 1520.93 Q1127.23 1524.47 1127.23 1531.6 Q1127.23 1538.71 1129.04 1542.27 Q1130.87 1545.82 1134.48 1545.82 Q1138.11 1545.82 1139.92 1542.27 Q1141.75 1538.71 1141.75 1531.6 Q1141.75 1524.47 1139.92 1520.93 Q1138.11 1517.37 1134.48 1517.37 M1134.48 1513.66 Q1140.29 1513.66 1143.34 1518.27 Q1146.42 1522.85 1146.42 1531.6 Q1146.42 1540.33 1143.34 1544.94 Q1140.29 1549.52 1134.48 1549.52 Q1128.67 1549.52 1125.59 1544.94 Q1122.53 1540.33 1122.53 1531.6 Q1122.53 1522.85 1125.59 1518.27 Q1128.67 1513.66 1134.48 1513.66 Z" fill="#000000" fill-rule="nonzero" fill-opacity="1" /><path clip-path="url(#clip630)" d="M1334.88 1544.91 L1342.52 1544.91 L1342.52 1518.55 L1334.21 1520.21 L1334.21 1515.95 L1342.47 1514.29 L1347.15 1514.29 L1347.15 1544.91 L1354.78 1544.91 L1354.78 1548.85 L1334.88 1548.85 L1334.88 1544.91 Z" fill="#000000" fill-rule="nonzero" fill-opacity="1" /><path clip-path="url(#clip630)" d="M1571.56 1518.36 L1559.76 1536.81 L1571.56 1536.81 L1571.56 1518.36 M1570.34 1514.29 L1576.22 1514.29 L1576.22 1536.81 L1581.15 1536.81 L1581.15 1540.7 L1576.22 1540.7 L1576.22 1548.85 L1571.56 1548.85 L1571.56 1540.7 L1555.96 1540.7 L1555.96 1536.19 L1570.34 1514.29 Z" fill="#000000" fill-rule="nonzero" fill-opacity="1" /><path clip-path="url(#clip630)" d="M1782.89 1514.29 L1801.25 1514.29 L1801.25 1518.22 L1787.17 1518.22 L1787.17 1526.7 Q1788.19 1526.35 1789.21 1526.19 Q1790.23 1526 1791.25 1526 Q1797.03 1526 1800.41 1529.17 Q1803.79 1532.34 1803.79 1537.76 Q1803.79 1543.34 1800.32 1546.44 Q1796.85 1549.52 1790.53 1549.52 Q1788.35 1549.52 1786.08 1549.15 Q1783.84 1548.78 1781.43 1548.04 L1781.43 1543.34 Q1783.51 1544.47 1785.74 1545.03 Q1787.96 1545.58 1790.44 1545.58 Q1794.44 1545.58 1796.78 1543.48 Q1799.12 1541.37 1799.12 1537.76 Q1799.12 1534.15 1796.78 1532.04 Q1794.44 1529.94 1790.44 1529.94 Q1788.56 1529.94 1786.69 1530.35 Q1784.83 1530.77 1782.89 1531.65 L1782.89 1514.29 Z" fill="#000000" fill-rule="nonzero" fill-opacity="1" /><path clip-path="url(#clip630)" d="M2011.32 1544.91 L2027.64 1544.91 L2027.64 1548.85 L2005.7 1548.85 L2005.7 1544.91 Q2008.36 1542.16 2012.94 1537.53 Q2017.55 1532.88 2018.73 1531.53 Q2020.97 1529.01 2021.85 1527.27 Q2022.76 1525.51 2022.76 1523.82 Q2022.76 1521.07 2020.81 1519.33 Q2018.89 1517.6 2015.79 1517.6 Q2013.59 1517.6 2011.14 1518.36 Q2008.71 1519.13 2005.93 1520.68 L2005.93 1515.95 Q2008.75 1514.82 2011.21 1514.24 Q2013.66 1513.66 2015.7 1513.66 Q2021.07 1513.66 2024.26 1516.35 Q2027.46 1519.03 2027.46 1523.52 Q2027.46 1525.65 2026.65 1527.57 Q2025.86 1529.47 2023.75 1532.07 Q2023.17 1532.74 2020.07 1535.95 Q2016.97 1539.15 2011.32 1544.91 Z" fill="#000000" fill-rule="nonzero" fill-opacity="1" /><path clip-path="url(#clip630)" d="M2244.97 1530.21 Q2248.33 1530.93 2250.21 1533.2 Q2252.1 1535.47 2252.1 1538.8 Q2252.1 1543.92 2248.59 1546.72 Q2245.07 1549.52 2238.59 1549.52 Q2236.41 1549.52 2234.1 1549.08 Q2231.8 1548.66 2229.35 1547.81 L2229.35 1543.29 Q2231.29 1544.43 2233.61 1545.01 Q2235.92 1545.58 2238.45 1545.58 Q2242.85 1545.58 2245.14 1543.85 Q2247.45 1542.11 2247.45 1538.8 Q2247.45 1535.75 2245.3 1534.03 Q2243.17 1532.3 2239.35 1532.3 L2235.32 1532.3 L2235.32 1528.45 L2239.53 1528.45 Q2242.98 1528.45 2244.81 1527.09 Q2246.64 1525.7 2246.64 1523.11 Q2246.64 1520.45 2244.74 1519.03 Q2242.87 1517.6 2239.35 1517.6 Q2237.43 1517.6 2235.23 1518.01 Q2233.03 1518.43 2230.39 1519.31 L2230.39 1515.14 Q2233.05 1514.4 2235.37 1514.03 Q2237.71 1513.66 2239.77 1513.66 Q2245.09 1513.66 2248.19 1516.09 Q2251.29 1518.5 2251.29 1522.62 Q2251.29 1525.49 2249.65 1527.48 Q2248.01 1529.45 2244.97 1530.21 Z" fill="#000000" fill-rule="nonzero" fill-opacity="1" /><polyline clip-path="url(#clip632)" style="stroke:#000000; stroke-linecap:round; stroke-linejoin:round; stroke-width:2; stroke-opacity:0.1; fill:none" points="112.177,1486.45 2352.76,1486.45 "/>
<polyline clip-path="url(#clip632)" style="stroke:#000000; stroke-linecap:round; stroke-linejoin:round; stroke-width:2; stroke-opacity:0.1; fill:none" points="112.177,1260.9 2352.76,1260.9 "/>
<polyline clip-path="url(#clip632)" style="stroke:#000000; stroke-linecap:round; stroke-linejoin:round; stroke-width:2; stroke-opacity:0.1; fill:none" points="112.177,1035.35 2352.76,1035.35 "/>
<polyline clip-path="url(#clip632)" style="stroke:#000000; stroke-linecap:round; stroke-linejoin:round; stroke-width:2; stroke-opacity:0.1; fill:none" points="112.177,809.803 2352.76,809.803 "/>
<polyline clip-path="url(#clip632)" style="stroke:#000000; stroke-linecap:round; stroke-linejoin:round; stroke-width:2; stroke-opacity:0.1; fill:none" points="112.177,584.255 2352.76,584.255 "/>
<polyline clip-path="url(#clip632)" style="stroke:#000000; stroke-linecap:round; stroke-linejoin:round; stroke-width:2; stroke-opacity:0.1; fill:none" points="112.177,358.707 2352.76,358.707 "/>
<polyline clip-path="url(#clip632)" style="stroke:#000000; stroke-linecap:round; stroke-linejoin:round; stroke-width:2; stroke-opacity:0.1; fill:none" points="112.177,133.158 2352.76,133.158 "/>
<polyline clip-path="url(#clip630)" style="stroke:#000000; stroke-linecap:round; stroke-linejoin:round; stroke-width:4; stroke-opacity:1; fill:none" points="112.177,1486.45 112.177,47.2441 "/>
<polyline clip-path="url(#clip630)" style="stroke:#000000; stroke-linecap:round; stroke-linejoin:round; stroke-width:4; stroke-opacity:1; fill:none" points="112.177,1486.45 131.075,1486.45 "/>
<polyline clip-path="url(#clip630)" style="stroke:#000000; stroke-linecap:round; stroke-linejoin:round; stroke-width:4; stroke-opacity:1; fill:none" points="112.177,1260.9 131.075,1260.9 "/>
<polyline clip-path="url(#clip630)" style="stroke:#000000; stroke-linecap:round; stroke-linejoin:round; stroke-width:4; stroke-opacity:1; fill:none" points="112.177,1035.35 131.075,1035.35 "/>
<polyline clip-path="url(#clip630)" style="stroke:#000000; stroke-linecap:round; stroke-linejoin:round; stroke-width:4; stroke-opacity:1; fill:none" points="112.177,809.803 131.075,809.803 "/>
<polyline clip-path="url(#clip630)" style="stroke:#000000; stroke-linecap:round; stroke-linejoin:round; stroke-width:4; stroke-opacity:1; fill:none" points="112.177,584.255 131.075,584.255 "/>
<polyline clip-path="url(#clip630)" style="stroke:#000000; stroke-linecap:round; stroke-linejoin:round; stroke-width:4; stroke-opacity:1; fill:none" points="112.177,358.707 131.075,358.707 "/>
<polyline clip-path="url(#clip630)" style="stroke:#000000; stroke-linecap:round; stroke-linejoin:round; stroke-width:4; stroke-opacity:1; fill:none" points="112.177,133.158 131.075,133.158 "/>
<path clip-path="url(#clip630)" d="M64.2328 1472.25 Q60.6217 1472.25 58.793 1475.81 Q56.9875 1479.35 56.9875 1486.48 Q56.9875 1493.59 58.793 1497.15 Q60.6217 1500.7 64.2328 1500.7 Q67.867 1500.7 69.6726 1497.15 Q71.5013 1493.59 71.5013 1486.48 Q71.5013 1479.35 69.6726 1475.81 Q67.867 1472.25 64.2328 1472.25 M64.2328 1468.54 Q70.0429 1468.54 73.0985 1473.15 Q76.1772 1477.73 76.1772 1486.48 Q76.1772 1495.21 73.0985 1499.82 Q70.0429 1504.4 64.2328 1504.4 Q58.4226 1504.4 55.344 1499.82 Q52.2884 1495.21 52.2884 1486.48 Q52.2884 1477.73 55.344 1473.15 Q58.4226 1468.54 64.2328 1468.54 Z" fill="#000000" fill-rule="nonzero" fill-opacity="1" /><path clip-path="url(#clip630)" d="M56.2699 1274.24 L63.9087 1274.24 L63.9087 1247.88 L55.5986 1249.55 L55.5986 1245.29 L63.8624 1243.62 L68.5383 1243.62 L68.5383 1274.24 L76.1772 1274.24 L76.1772 1278.18 L56.2699 1278.18 L56.2699 1274.24 Z" fill="#000000" fill-rule="nonzero" fill-opacity="1" /><path clip-path="url(#clip630)" d="M59.8578 1048.7 L76.1772 1048.7 L76.1772 1052.63 L54.2328 1052.63 L54.2328 1048.7 Q56.8949 1045.94 61.4782 1041.31 Q66.0846 1036.66 67.2652 1035.32 Q69.5105 1032.79 70.3902 1031.06 Q71.2929 1029.3 71.2929 1027.61 Q71.2929 1024.85 69.3485 1023.12 Q67.4272 1021.38 64.3254 1021.38 Q62.1263 1021.38 59.6726 1022.15 Q57.2421 1022.91 54.4643 1024.46 L54.4643 1019.74 Q57.2884 1018.6 59.7421 1018.03 Q62.1958 1017.45 64.2328 1017.45 Q69.6031 1017.45 72.7976 1020.13 Q75.992 1022.82 75.992 1027.31 Q75.992 1029.44 75.1818 1031.36 Q74.3948 1033.26 72.2883 1035.85 Q71.7096 1036.52 68.6078 1039.74 Q65.5059 1042.93 59.8578 1048.7 Z" fill="#000000" fill-rule="nonzero" fill-opacity="1" /><path clip-path="url(#clip630)" d="M69.0476 808.449 Q72.404 809.167 74.279 811.435 Q76.1772 813.704 76.1772 817.037 Q76.1772 822.153 72.6587 824.954 Q69.1402 827.754 62.6587 827.754 Q60.4828 827.754 58.168 827.315 Q55.8764 826.898 53.4227 826.042 L53.4227 821.528 Q55.3671 822.662 57.6819 823.241 Q59.9967 823.819 62.5198 823.819 Q66.918 823.819 69.2096 822.083 Q71.5244 820.347 71.5244 817.037 Q71.5244 813.981 69.3717 812.268 Q67.242 810.532 63.4226 810.532 L59.3949 810.532 L59.3949 806.69 L63.6078 806.69 Q67.0569 806.69 68.8855 805.324 Q70.7142 803.935 70.7142 801.343 Q70.7142 798.681 68.8161 797.269 Q66.9411 795.833 63.4226 795.833 Q61.5013 795.833 59.3023 796.25 Q57.1032 796.667 54.4643 797.546 L54.4643 793.38 Q57.1264 792.639 59.4412 792.269 Q61.7791 791.898 63.8393 791.898 Q69.1633 791.898 72.2652 794.329 Q75.367 796.736 75.367 800.856 Q75.367 803.727 73.7235 805.718 Q72.08 807.685 69.0476 808.449 Z" fill="#000000" fill-rule="nonzero" fill-opacity="1" /><path clip-path="url(#clip630)" d="M66.5939 571.049 L54.7884 589.498 L66.5939 589.498 L66.5939 571.049 M65.367 566.975 L71.2466 566.975 L71.2466 589.498 L76.1772 589.498 L76.1772 593.387 L71.2466 593.387 L71.2466 601.535 L66.5939 601.535 L66.5939 593.387 L50.9921 593.387 L50.9921 588.873 L65.367 566.975 Z" fill="#000000" fill-rule="nonzero" fill-opacity="1" /><path clip-path="url(#clip630)" d="M55.2745 341.427 L73.6309 341.427 L73.6309 345.362 L59.5569 345.362 L59.5569 353.834 Q60.5754 353.487 61.5939 353.325 Q62.6124 353.14 63.6309 353.14 Q69.418 353.14 72.7976 356.311 Q76.1772 359.482 76.1772 364.899 Q76.1772 370.477 72.705 373.579 Q69.2328 376.658 62.9134 376.658 Q60.7374 376.658 58.4689 376.288 Q56.2236 375.917 53.8162 375.177 L53.8162 370.477 Q55.8995 371.612 58.1217 372.167 Q60.3439 372.723 62.8208 372.723 Q66.8254 372.723 69.1633 370.616 Q71.5013 368.51 71.5013 364.899 Q71.5013 361.288 69.1633 359.181 Q66.8254 357.075 62.8208 357.075 Q60.9458 357.075 59.0708 357.491 Q57.2189 357.908 55.2745 358.788 L55.2745 341.427 Z" fill="#000000" fill-rule="nonzero" fill-opacity="1" /><path clip-path="url(#clip630)" d="M64.6495 131.295 Q61.5013 131.295 59.6495 133.448 Q57.8208 135.601 57.8208 139.351 Q57.8208 143.077 59.6495 145.253 Q61.5013 147.406 64.6495 147.406 Q67.7976 147.406 69.6263 145.253 Q71.4781 143.077 71.4781 139.351 Q71.4781 135.601 69.6263 133.448 Q67.7976 131.295 64.6495 131.295 M73.9318 116.642 L73.9318 120.902 Q72.1726 120.068 70.367 119.628 Q68.5846 119.189 66.8254 119.189 Q62.1958 119.189 59.7421 122.314 Q57.3115 125.439 56.9643 131.758 Q58.33 129.744 60.3902 128.679 Q62.4504 127.591 64.9272 127.591 Q70.1355 127.591 73.1448 130.763 Q76.1772 133.911 76.1772 139.351 Q76.1772 144.675 73.029 147.892 Q69.8809 151.11 64.6495 151.11 Q58.6541 151.11 55.4828 146.526 Q52.3116 141.92 52.3116 133.193 Q52.3116 124.999 56.2004 120.138 Q60.0893 115.253 66.6402 115.253 Q68.3994 115.253 70.1818 115.601 Q71.9874 115.948 73.9318 116.642 Z" fill="#000000" fill-rule="nonzero" fill-opacity="1" /><polyline clip-path="url(#clip632)" style="stroke:#000000; stroke-linecap:round; stroke-linejoin:round; stroke-width:4; stroke-opacity:1; fill:none" points="2016.67,1486.45 2016.67,1444.72 2240.73,1444.72 2240.73,1486.45 "/>
<polyline clip-path="url(#clip632)" style="stroke:#000000; stroke-linecap:round; stroke-linejoin:round; stroke-width:4; stroke-opacity:1; fill:none" points="1792.61,1486.45 1792.61,1418.41 2128.7,1418.41 2128.7,1444.72 "/>
<polyline clip-path="url(#clip632)" style="stroke:#000000; stroke-linecap:round; stroke-linejoin:round; stroke-width:4; stroke-opacity:1; fill:none" points="224.206,1486.45 224.206,1393.12 448.264,1393.12 448.264,1486.45 "/>
<polyline clip-path="url(#clip632)" style="stroke:#000000; stroke-linecap:round; stroke-linejoin:round; stroke-width:4; stroke-opacity:1; fill:none" points="1568.55,1486.45 1568.55,1305.45 1960.65,1305.45 1960.65,1418.41 "/>
<polyline clip-path="url(#clip632)" style="stroke:#000000; stroke-linecap:round; stroke-linejoin:round; stroke-width:4; stroke-opacity:1; fill:none" points="672.322,1486.45 672.322,1167.99 896.38,1167.99 896.38,1486.45 "/>
<polyline clip-path="url(#clip632)" style="stroke:#000000; stroke-linecap:round; stroke-linejoin:round; stroke-width:4; stroke-opacity:1; fill:none" points="336.235,1393.12 336.235,896.102 784.351,896.102 784.351,1167.99 "/>
<polyline clip-path="url(#clip632)" style="stroke:#000000; stroke-linecap:round; stroke-linejoin:round; stroke-width:4; stroke-opacity:1; fill:none" points="1344.5,1486.45 1344.5,843.339 1764.6,843.339 1764.6,1305.45 "/>
<polyline clip-path="url(#clip632)" style="stroke:#000000; stroke-linecap:round; stroke-linejoin:round; stroke-width:4; stroke-opacity:1; fill:none" points="1120.44,1486.45 1120.44,497.206 1554.55,497.206 1554.55,843.339 "/>
<polyline clip-path="url(#clip632)" style="stroke:#000000; stroke-linecap:round; stroke-linejoin:round; stroke-width:4; stroke-opacity:1; fill:none" points="560.293,896.102 560.293,47.2441 1337.49,47.2441 1337.49,497.206 "/>
</svg>
