<?xml version="1.0" encoding="utf-8"?>
<svg xmlns="http://www.w3.org/2000/svg" xmlns:xlink="http://www.w3.org/1999/xlink" width="600" height="400" viewBox="0 0 2400 1600">
<defs>
  <clipPath id="clip170">
    <rect x="0" y="0" width="2400" height="1600"/>
  </clipPath>
</defs>
<path clip-path="url(#clip170)" d="M0 1600 L2400 1600 L2400 0 L0 0  Z" fill="#ffffff" fill-rule="evenodd" fill-opacity="1"/>
<defs>
  <clipPath id="clip171">
    <rect x="480" y="0" width="1681" height="1600"/>
  </clipPath>
</defs>
<path clip-path="url(#clip170)" d="M202.227 1423.18 L2352.76 1423.18 L2352.76 47.2441 L202.227 47.2441  Z" fill="#ffffff" fill-rule="evenodd" fill-opacity="1"/>
<defs>
  <clipPath id="clip172">
    <rect x="202" y="47" width="2152" height="1377"/>
  </clipPath>
</defs>
<polyline clip-path="url(#clip172)" style="stroke:#000000; stroke-linecap:round; stroke-linejoin:round; stroke-width:2; stroke-opacity:0.1; fill:none" points="522.979,1423.18 522.979,47.2441 "/>
<polyline clip-path="url(#clip172)" style="stroke:#000000; stroke-linecap:round; stroke-linejoin:round; stroke-width:2; stroke-opacity:0.1; fill:none" points="984.474,1423.18 984.474,47.2441 "/>
<polyline clip-path="url(#clip172)" style="stroke:#000000; stroke-linecap:round; stroke-linejoin:round; stroke-width:2; stroke-opacity:0.1; fill:none" points="1445.97,1423.18 1445.97,47.2441 "/>
<polyline clip-path="url(#clip172)" style="stroke:#000000; stroke-linecap:round; stroke-linejoin:round; stroke-width:2; stroke-opacity:0.1; fill:none" points="1907.46,1423.18 1907.46,47.2441 "/>
<polyline clip-path="url(#clip170)" style="stroke:#000000; stroke-linecap:round; stroke-linejoin:round; stroke-width:4; stroke-opacity:1; fill:none" points="202.227,1423.18 2352.76,1423.18 "/>
<polyline clip-path="url(#clip170)" style="stroke:#000000; stroke-linecap:round; stroke-linejoin:round; stroke-width:4; stroke-opacity:1; fill:none" points="522.979,1423.18 522.979,1404.28 "/>
<polyline clip-path="url(#clip170)" style="stroke:#000000; stroke-linecap:round; stroke-linejoin:round; stroke-width:4; stroke-opacity:1; fill:none" points="984.474,1423.18 984.474,1404.28 "/>
<polyline clip-path="url(#clip170)" style="stroke:#000000; stroke-linecap:round; stroke-linejoin:round; stroke-width:4; stroke-opacity:1; fill:none" points="1445.97,1423.18 1445.97,1404.28 "/>
<polyline clip-path="url(#clip170)" style="stroke:#000000; stroke-linecap:round; stroke-linejoin:round; stroke-width:4; stroke-opacity:1; fill:none" points="1907.46,1423.18 1907.46,1404.28 "/>
<path clip-path="url(#clip170)" d="M517.632 1481.64 L533.952 1481.64 L533.952 1485.58 L512.007 1485.58 L512.007 1481.64 Q514.669 1478.89 519.253 1474.26 Q523.859 1469.61 525.04 1468.27 Q527.285 1465.74 528.165 1464.01 Q529.067 1462.25 529.067 1460.56 Q529.067 1457.8 527.123 1456.07 Q525.202 1454.33 522.1 1454.33 Q519.901 1454.33 517.447 1455.09 Q515.016 1455.86 512.239 1457.41 L512.239 1452.69 Q515.063 1451.55 517.516 1450.97 Q519.97 1450.39 522.007 1450.39 Q527.378 1450.39 530.572 1453.08 Q533.766 1455.77 533.766 1460.26 Q533.766 1462.39 532.956 1464.31 Q532.169 1466.2 530.063 1468.8 Q529.484 1469.47 526.382 1472.69 Q523.28 1475.88 517.632 1481.64 Z" fill="#000000" fill-rule="nonzero" fill-opacity="1" /><path clip-path="url(#clip170)" d="M988.722 1466.95 Q992.078 1467.66 993.953 1469.93 Q995.851 1472.2 995.851 1475.53 Q995.851 1480.65 992.333 1483.45 Q988.814 1486.25 982.333 1486.25 Q980.157 1486.25 977.842 1485.81 Q975.55 1485.39 973.097 1484.54 L973.097 1480.02 Q975.041 1481.16 977.356 1481.74 Q979.671 1482.32 982.194 1482.32 Q986.592 1482.32 988.884 1480.58 Q991.199 1478.84 991.199 1475.53 Q991.199 1472.48 989.046 1470.77 Q986.916 1469.03 983.097 1469.03 L979.069 1469.03 L979.069 1465.19 L983.282 1465.19 Q986.731 1465.19 988.56 1463.82 Q990.388 1462.43 990.388 1459.84 Q990.388 1457.18 988.49 1455.77 Q986.615 1454.33 983.097 1454.33 Q981.175 1454.33 978.976 1454.75 Q976.777 1455.16 974.138 1456.04 L974.138 1451.88 Q976.8 1451.14 979.115 1450.77 Q981.453 1450.39 983.513 1450.39 Q988.837 1450.39 991.939 1452.83 Q995.041 1455.23 995.041 1459.35 Q995.041 1462.22 993.398 1464.21 Q991.754 1466.18 988.722 1466.95 Z" fill="#000000" fill-rule="nonzero" fill-opacity="1" /><path clip-path="url(#clip170)" d="M1448.98 1455.09 L1437.17 1473.54 L1448.98 1473.54 L1448.98 1455.09 M1447.75 1451.02 L1453.63 1451.02 L1453.63 1473.54 L1458.56 1473.54 L1458.56 1477.43 L1453.63 1477.43 L1453.63 1485.58 L1448.98 1485.58 L1448.98 1477.43 L1433.38 1477.43 L1433.38 1472.92 L1447.75 1451.02 Z" fill="#000000" fill-rule="nonzero" fill-opacity="1" /><path clip-path="url(#clip170)" d="M1897.74 1451.02 L1916.1 1451.02 L1916.1 1454.96 L1902.02 1454.96 L1902.02 1463.43 Q1903.04 1463.08 1904.06 1462.92 Q1905.08 1462.73 1906.1 1462.73 Q1911.88 1462.73 1915.26 1465.9 Q1918.64 1469.08 1918.64 1474.49 Q1918.64 1480.07 1915.17 1483.17 Q1911.7 1486.25 1905.38 1486.25 Q1903.2 1486.25 1900.94 1485.88 Q1898.69 1485.51 1896.28 1484.77 L1896.28 1480.07 Q1898.37 1481.2 1900.59 1481.76 Q1902.81 1482.32 1905.29 1482.32 Q1909.29 1482.32 1911.63 1480.21 Q1913.97 1478.1 1913.97 1474.49 Q1913.97 1470.88 1911.63 1468.77 Q1909.29 1466.67 1905.29 1466.67 Q1903.41 1466.67 1901.54 1467.08 Q1899.69 1467.5 1897.74 1468.38 L1897.74 1451.02 Z" fill="#000000" fill-rule="nonzero" fill-opacity="1" /><path clip-path="url(#clip170)" d="M1259.32 1520.52 L1266.22 1520.52 L1278.03 1538.19 L1289.9 1520.52 L1296.81 1520.52 L1281.53 1543.34 L1297.83 1568.04 L1290.92 1568.04 L1277.56 1547.83 L1264.09 1568.04 L1257.15 1568.04 L1274.12 1542.68 L1259.32 1520.52 Z" fill="#000000" fill-rule="nonzero" fill-opacity="1" /><polyline clip-path="url(#clip172)" style="stroke:#000000; stroke-linecap:round; stroke-linejoin:round; stroke-width:2; stroke-opacity:0.1; fill:none" points="202.227,1196.52 2352.76,1196.52 "/>
<polyline clip-path="url(#clip172)" style="stroke:#000000; stroke-linecap:round; stroke-linejoin:round; stroke-width:2; stroke-opacity:0.1; fill:none" points="202.227,914.74 2352.76,914.74 "/>
<polyline clip-path="url(#clip172)" style="stroke:#000000; stroke-linecap:round; stroke-linejoin:round; stroke-width:2; stroke-opacity:0.1; fill:none" points="202.227,632.96 2352.76,632.96 "/>
<polyline clip-path="url(#clip172)" style="stroke:#000000; stroke-linecap:round; stroke-linejoin:round; stroke-width:2; stroke-opacity:0.1; fill:none" points="202.227,351.179 2352.76,351.179 "/>
<polyline clip-path="url(#clip172)" style="stroke:#000000; stroke-linecap:round; stroke-linejoin:round; stroke-width:2; stroke-opacity:0.1; fill:none" points="202.227,69.3989 2352.76,69.3989 "/>
<polyline clip-path="url(#clip170)" style="stroke:#000000; stroke-linecap:round; stroke-linejoin:round; stroke-width:4; stroke-opacity:1; fill:none" points="202.227,1423.18 202.227,47.2441 "/>
<polyline clip-path="url(#clip170)" style="stroke:#000000; stroke-linecap:round; stroke-linejoin:round; stroke-width:4; stroke-opacity:1; fill:none" points="202.227,1196.52 221.125,1196.52 "/>
<polyline clip-path="url(#clip170)" style="stroke:#000000; stroke-linecap:round; stroke-linejoin:round; stroke-width:4; stroke-opacity:1; fill:none" points="202.227,914.74 221.125,914.74 "/>
<polyline clip-path="url(#clip170)" style="stroke:#000000; stroke-linecap:round; stroke-linejoin:round; stroke-width:4; stroke-opacity:1; fill:none" points="202.227,632.96 221.125,632.96 "/>
<polyline clip-path="url(#clip170)" style="stroke:#000000; stroke-linecap:round; stroke-linejoin:round; stroke-width:4; stroke-opacity:1; fill:none" points="202.227,351.179 221.125,351.179 "/>
<polyline clip-path="url(#clip170)" style="stroke:#000000; stroke-linecap:round; stroke-linejoin:round; stroke-width:4; stroke-opacity:1; fill:none" points="202.227,69.3989 221.125,69.3989 "/>
<path clip-path="url(#clip170)" d="M149.908 1209.87 L166.227 1209.87 L166.227 1213.8 L144.283 1213.8 L144.283 1209.87 Q146.945 1207.11 151.528 1202.48 Q156.135 1197.83 157.315 1196.49 Q159.561 1193.96 160.44 1192.23 Q161.343 1190.47 161.343 1188.78 Q161.343 1186.02 159.399 1184.29 Q157.478 1182.55 154.376 1182.55 Q152.177 1182.55 149.723 1183.31 Q147.292 1184.08 144.515 1185.63 L144.515 1180.91 Q147.339 1179.77 149.792 1179.19 Q152.246 1178.62 154.283 1178.62 Q159.653 1178.62 162.848 1181.3 Q166.042 1183.99 166.042 1188.48 Q166.042 1190.61 165.232 1192.53 Q164.445 1194.43 162.339 1197.02 Q161.76 1197.69 158.658 1200.91 Q155.556 1204.1 149.908 1209.87 Z" fill="#000000" fill-rule="nonzero" fill-opacity="1" /><path clip-path="url(#clip170)" d="M156.644 901.534 L144.839 919.983 L156.644 919.983 L156.644 901.534 M155.417 897.46 L161.297 897.46 L161.297 919.983 L166.227 919.983 L166.227 923.872 L161.297 923.872 L161.297 932.02 L156.644 932.02 L156.644 923.872 L141.042 923.872 L141.042 919.358 L155.417 897.46 Z" fill="#000000" fill-rule="nonzero" fill-opacity="1" /><path clip-path="url(#clip170)" d="M154.7 631.096 Q151.552 631.096 149.7 633.249 Q147.871 635.402 147.871 639.152 Q147.871 642.879 149.7 645.055 Q151.552 647.207 154.7 647.207 Q157.848 647.207 159.677 645.055 Q161.528 642.879 161.528 639.152 Q161.528 635.402 159.677 633.249 Q157.848 631.096 154.7 631.096 M163.982 616.444 L163.982 620.703 Q162.223 619.87 160.417 619.43 Q158.635 618.99 156.876 618.99 Q152.246 618.99 149.792 622.115 Q147.362 625.24 147.015 631.559 Q148.38 629.545 150.441 628.481 Q152.501 627.393 154.978 627.393 Q160.186 627.393 163.195 630.564 Q166.227 633.712 166.227 639.152 Q166.227 644.476 163.079 647.694 Q159.931 650.911 154.7 650.911 Q148.704 650.911 145.533 646.328 Q142.362 641.721 142.362 632.995 Q142.362 624.8 146.251 619.939 Q150.14 615.055 156.69 615.055 Q158.45 615.055 160.232 615.402 Q162.038 615.749 163.982 616.444 Z" fill="#000000" fill-rule="nonzero" fill-opacity="1" /><path clip-path="url(#clip170)" d="M154.376 352.047 Q151.042 352.047 149.121 353.83 Q147.223 355.612 147.223 358.737 Q147.223 361.862 149.121 363.645 Q151.042 365.427 154.376 365.427 Q157.709 365.427 159.63 363.645 Q161.552 361.839 161.552 358.737 Q161.552 355.612 159.63 353.83 Q157.732 352.047 154.376 352.047 M149.7 350.057 Q146.691 349.316 145.001 347.256 Q143.334 345.196 143.334 342.233 Q143.334 338.089 146.274 335.682 Q149.237 333.274 154.376 333.274 Q159.538 333.274 162.477 335.682 Q165.417 338.089 165.417 342.233 Q165.417 345.196 163.727 347.256 Q162.061 349.316 159.075 350.057 Q162.454 350.844 164.329 353.135 Q166.227 355.427 166.227 358.737 Q166.227 363.76 163.149 366.445 Q160.093 369.131 154.376 369.131 Q148.658 369.131 145.579 366.445 Q142.524 363.76 142.524 358.737 Q142.524 355.427 144.422 353.135 Q146.32 350.844 149.7 350.057 M147.987 342.672 Q147.987 345.358 149.653 346.862 Q151.343 348.367 154.376 348.367 Q157.385 348.367 159.075 346.862 Q160.788 345.358 160.788 342.672 Q160.788 339.987 159.075 338.483 Q157.385 336.978 154.376 336.978 Q151.343 336.978 149.653 338.483 Q147.987 339.987 147.987 342.672 Z" fill="#000000" fill-rule="nonzero" fill-opacity="1" /><path clip-path="url(#clip170)" d="M114.931 82.7437 L122.57 82.7437 L122.57 56.3781 L114.26 58.0447 L114.26 53.7855 L122.524 52.1189 L127.2 52.1189 L127.2 82.7437 L134.839 82.7437 L134.839 86.6789 L114.931 86.6789 L114.931 82.7437 Z" fill="#000000" fill-rule="nonzero" fill-opacity="1" /><path clip-path="url(#clip170)" d="M154.283 55.1975 Q150.672 55.1975 148.843 58.7623 Q147.038 62.304 147.038 69.4336 Q147.038 76.54 148.843 80.1048 Q150.672 83.6465 154.283 83.6465 Q157.917 83.6465 159.723 80.1048 Q161.552 76.54 161.552 69.4336 Q161.552 62.304 159.723 58.7623 Q157.917 55.1975 154.283 55.1975 M154.283 51.4939 Q160.093 51.4939 163.149 56.1003 Q166.227 60.6836 166.227 69.4336 Q166.227 78.1604 163.149 82.7668 Q160.093 87.3501 154.283 87.3501 Q148.473 87.3501 145.394 82.7668 Q142.339 78.1604 142.339 69.4336 Q142.339 60.6836 145.394 56.1003 Q148.473 51.4939 154.283 51.4939 Z" fill="#000000" fill-rule="nonzero" fill-opacity="1" /><path clip-path="url(#clip170)" d="M16.4842 755.248 L16.4842 748.341 L36.0269 735.164 L16.4842 722.083 L16.4842 715.176 L41.3741 731.981 L64.0042 731.981 L64.0042 738.443 L41.3741 738.443 L16.4842 755.248 Z" fill="#000000" fill-rule="nonzero" fill-opacity="1" /><circle clip-path="url(#clip172)" cx="391.877" cy="1303.17" r="14.4" fill="#009af9" fill-rule="evenodd" fill-opacity="1" stroke="#000000" stroke-opacity="1" stroke-width="3.2"/>
<circle clip-path="url(#clip172)" cx="372.277" cy="939.553" r="14.4" fill="#009af9" fill-rule="evenodd" fill-opacity="1" stroke="#000000" stroke-opacity="1" stroke-width="3.2"/>
<circle clip-path="url(#clip172)" cx="380.33" cy="1384.24" r="14.4" fill="#009af9" fill-rule="evenodd" fill-opacity="1" stroke="#000000" stroke-opacity="1" stroke-width="3.2"/>
<circle clip-path="url(#clip172)" cx="263.091" cy="1229.73" r="14.4" fill="#009af9" fill-rule="evenodd" fill-opacity="1" stroke="#000000" stroke-opacity="1" stroke-width="3.2"/>
<circle clip-path="url(#clip172)" cx="514.296" cy="1319.37" r="14.4" fill="#009af9" fill-rule="evenodd" fill-opacity="1" stroke="#000000" stroke-opacity="1" stroke-width="3.2"/>
<circle clip-path="url(#clip172)" cx="2291.89" cy="813.262" r="14.4" fill="#e26f46" fill-rule="evenodd" fill-opacity="1" stroke="#000000" stroke-opacity="1" stroke-width="3.2"/>
<circle clip-path="url(#clip172)" cx="1738.3" cy="671.913" r="14.4" fill="#e26f46" fill-rule="evenodd" fill-opacity="1" stroke="#000000" stroke-opacity="1" stroke-width="3.2"/>
<circle clip-path="url(#clip172)" cx="1771.54" cy="86.1857" r="14.4" fill="#e26f46" fill-rule="evenodd" fill-opacity="1" stroke="#000000" stroke-opacity="1" stroke-width="3.2"/>
<circle clip-path="url(#clip172)" cx="2208.33" cy="1148.42" r="14.4" fill="#e26f46" fill-rule="evenodd" fill-opacity="1" stroke="#000000" stroke-opacity="1" stroke-width="3.2"/>
<circle clip-path="url(#clip172)" cx="1979.47" cy="831.315" r="14.4" fill="#e26f46" fill-rule="evenodd" fill-opacity="1" stroke="#000000" stroke-opacity="1" stroke-width="3.2"/>
<path clip-path="url(#clip170)" d="M1859.56 248.629 L2281.07 248.629 L2281.07 93.1086 L1859.56 93.1086  Z" fill="#ffffff" fill-rule="evenodd" fill-opacity="1"/>
<polyline clip-path="url(#clip170)" style="stroke:#000000; stroke-linecap:round; stroke-linejoin:round; stroke-width:4; stroke-opacity:1; fill:none" points="1859.56,248.629 2281.07,248.629 2281.07,93.1086 1859.56,93.1086 1859.56,248.629 "/>
<circle clip-path="url(#clip170)" cx="1955.14" cy="144.949" r="20.48" fill="#009af9" fill-rule="evenodd" fill-opacity="1" stroke="#000000" stroke-opacity="1" stroke-width="4.55111"/>
<path clip-path="url(#clip170)" d="M2078.59 130.331 L2078.59 135.261 Q2076.23 133.062 2073.54 131.974 Q2070.88 130.886 2067.87 130.886 Q2061.95 130.886 2058.8 134.52 Q2055.65 138.132 2055.65 144.983 Q2055.65 151.812 2058.8 155.446 Q2061.95 159.057 2067.87 159.057 Q2070.88 159.057 2073.54 157.969 Q2076.23 156.881 2078.59 154.682 L2078.59 159.567 Q2076.14 161.233 2073.38 162.067 Q2070.65 162.9 2067.59 162.9 Q2059.75 162.9 2055.23 158.108 Q2050.72 153.293 2050.72 144.983 Q2050.72 136.65 2055.23 131.858 Q2059.75 127.044 2067.59 127.044 Q2070.7 127.044 2073.43 127.877 Q2076.18 128.687 2078.59 130.331 Z" fill="#000000" fill-rule="nonzero" fill-opacity="1" /><path clip-path="url(#clip170)" d="M2085.63 126.21 L2089.89 126.21 L2089.89 162.229 L2085.63 162.229 L2085.63 126.21 Z" fill="#000000" fill-rule="nonzero" fill-opacity="1" /><path clip-path="url(#clip170)" d="M2098.36 151.997 L2098.36 136.303 L2102.62 136.303 L2102.62 151.835 Q2102.62 155.516 2104.05 157.368 Q2105.49 159.196 2108.36 159.196 Q2111.81 159.196 2113.8 156.997 Q2115.81 154.798 2115.81 151.002 L2115.81 136.303 L2120.07 136.303 L2120.07 162.229 L2115.81 162.229 L2115.81 158.247 Q2114.26 160.608 2112.2 161.766 Q2110.16 162.9 2107.46 162.9 Q2102.99 162.9 2100.67 160.122 Q2098.36 157.344 2098.36 151.997 M2109.08 135.678 L2109.08 135.678 Z" fill="#000000" fill-rule="nonzero" fill-opacity="1" /><path clip-path="url(#clip170)" d="M2145.37 137.067 L2145.37 141.094 Q2143.57 140.169 2141.62 139.706 Q2139.68 139.243 2137.59 139.243 Q2134.42 139.243 2132.83 140.215 Q2131.25 141.187 2131.25 143.131 Q2131.25 144.613 2132.39 145.469 Q2133.52 146.303 2136.95 147.067 L2138.4 147.391 Q2142.94 148.363 2144.84 150.145 Q2146.76 151.905 2146.76 155.076 Q2146.76 158.687 2143.89 160.793 Q2141.04 162.9 2136.04 162.9 Q2133.96 162.9 2131.69 162.483 Q2129.45 162.09 2126.95 161.28 L2126.95 156.881 Q2129.31 158.108 2131.6 158.733 Q2133.89 159.335 2136.14 159.335 Q2139.15 159.335 2140.77 158.317 Q2142.39 157.275 2142.39 155.4 Q2142.39 153.664 2141.21 152.738 Q2140.05 151.812 2136.09 150.956 L2134.61 150.608 Q2130.65 149.775 2128.89 148.062 Q2127.13 146.326 2127.13 143.317 Q2127.13 139.659 2129.72 137.669 Q2132.32 135.678 2137.08 135.678 Q2139.45 135.678 2141.53 136.025 Q2143.61 136.372 2145.37 137.067 Z" fill="#000000" fill-rule="nonzero" fill-opacity="1" /><path clip-path="url(#clip170)" d="M2157.76 128.942 L2157.76 136.303 L2166.53 136.303 L2166.53 139.613 L2157.76 139.613 L2157.76 153.687 Q2157.76 156.858 2158.61 157.761 Q2159.49 158.664 2162.15 158.664 L2166.53 158.664 L2166.53 162.229 L2162.15 162.229 Q2157.22 162.229 2155.35 160.4 Q2153.47 158.548 2153.47 153.687 L2153.47 139.613 L2150.35 139.613 L2150.35 136.303 L2153.47 136.303 L2153.47 128.942 L2157.76 128.942 Z" fill="#000000" fill-rule="nonzero" fill-opacity="1" /><path clip-path="url(#clip170)" d="M2194.31 148.201 L2194.31 150.284 L2174.72 150.284 Q2175 154.682 2177.36 156.997 Q2179.75 159.289 2183.98 159.289 Q2186.44 159.289 2188.73 158.687 Q2191.04 158.085 2193.31 156.881 L2193.31 160.909 Q2191.02 161.881 2188.61 162.391 Q2186.21 162.9 2183.73 162.9 Q2177.52 162.9 2173.89 159.289 Q2170.28 155.678 2170.28 149.52 Q2170.28 143.155 2173.71 139.428 Q2177.15 135.678 2182.99 135.678 Q2188.22 135.678 2191.25 139.057 Q2194.31 142.414 2194.31 148.201 M2190.05 146.951 Q2190 143.456 2188.08 141.372 Q2186.18 139.289 2183.03 139.289 Q2179.47 139.289 2177.32 141.303 Q2175.19 143.317 2174.86 146.974 L2190.05 146.951 Z" fill="#000000" fill-rule="nonzero" fill-opacity="1" /><path clip-path="url(#clip170)" d="M2216.32 140.284 Q2215.6 139.868 2214.75 139.682 Q2213.91 139.474 2212.89 139.474 Q2209.28 139.474 2207.34 141.835 Q2205.42 144.173 2205.42 148.571 L2205.42 162.229 L2201.14 162.229 L2201.14 136.303 L2205.42 136.303 L2205.42 140.331 Q2206.76 137.969 2208.91 136.835 Q2211.07 135.678 2214.14 135.678 Q2214.58 135.678 2215.12 135.747 Q2215.65 135.794 2216.3 135.909 L2216.32 140.284 Z" fill="#000000" fill-rule="nonzero" fill-opacity="1" /><path clip-path="url(#clip170)" d="M2237.27 158.293 L2244.91 158.293 L2244.91 131.928 L2236.6 133.595 L2236.6 129.335 L2244.86 127.669 L2249.54 127.669 L2249.54 158.293 L2257.18 158.293 L2257.18 162.229 L2237.27 162.229 L2237.27 158.293 Z" fill="#000000" fill-rule="nonzero" fill-opacity="1" /><circle clip-path="url(#clip170)" cx="1955.14" cy="196.789" r="20.48" fill="#e26f46" fill-rule="evenodd" fill-opacity="1" stroke="#000000" stroke-opacity="1" stroke-width="4.55111"/>
<path clip-path="url(#clip170)" d="M2078.59 182.171 L2078.59 187.101 Q2076.23 184.902 2073.54 183.814 Q2070.88 182.726 2067.87 182.726 Q2061.95 182.726 2058.8 186.36 Q2055.65 189.972 2055.65 196.823 Q2055.65 203.652 2058.8 207.286 Q2061.95 210.897 2067.87 210.897 Q2070.88 210.897 2073.54 209.809 Q2076.23 208.721 2078.59 206.522 L2078.59 211.407 Q2076.14 213.073 2073.38 213.907 Q2070.65 214.74 2067.59 214.74 Q2059.75 214.74 2055.23 209.948 Q2050.72 205.133 2050.72 196.823 Q2050.72 188.49 2055.23 183.698 Q2059.75 178.884 2067.59 178.884 Q2070.7 178.884 2073.43 179.717 Q2076.18 180.527 2078.59 182.171 Z" fill="#000000" fill-rule="nonzero" fill-opacity="1" /><path clip-path="url(#clip170)" d="M2085.63 178.05 L2089.89 178.05 L2089.89 214.069 L2085.63 214.069 L2085.63 178.05 Z" fill="#000000" fill-rule="nonzero" fill-opacity="1" /><path clip-path="url(#clip170)" d="M2098.36 203.837 L2098.36 188.143 L2102.62 188.143 L2102.62 203.675 Q2102.62 207.356 2104.05 209.208 Q2105.49 211.036 2108.36 211.036 Q2111.81 211.036 2113.8 208.837 Q2115.81 206.638 2115.81 202.842 L2115.81 188.143 L2120.07 188.143 L2120.07 214.069 L2115.81 214.069 L2115.81 210.087 Q2114.26 212.448 2112.2 213.606 Q2110.16 214.74 2107.46 214.74 Q2102.99 214.74 2100.67 211.962 Q2098.36 209.184 2098.36 203.837 M2109.08 187.518 L2109.08 187.518 Z" fill="#000000" fill-rule="nonzero" fill-opacity="1" /><path clip-path="url(#clip170)" d="M2145.37 188.907 L2145.37 192.934 Q2143.57 192.009 2141.62 191.546 Q2139.68 191.083 2137.59 191.083 Q2134.42 191.083 2132.83 192.055 Q2131.25 193.027 2131.25 194.971 Q2131.25 196.453 2132.39 197.309 Q2133.52 198.143 2136.95 198.907 L2138.4 199.231 Q2142.94 200.203 2144.84 201.985 Q2146.76 203.745 2146.76 206.916 Q2146.76 210.527 2143.89 212.633 Q2141.04 214.74 2136.04 214.74 Q2133.96 214.74 2131.69 214.323 Q2129.45 213.93 2126.95 213.12 L2126.95 208.721 Q2129.31 209.948 2131.6 210.573 Q2133.89 211.175 2136.14 211.175 Q2139.15 211.175 2140.77 210.157 Q2142.39 209.115 2142.39 207.24 Q2142.39 205.504 2141.21 204.578 Q2140.05 203.652 2136.09 202.796 L2134.61 202.448 Q2130.65 201.615 2128.89 199.902 Q2127.13 198.166 2127.13 195.157 Q2127.13 191.499 2129.72 189.509 Q2132.32 187.518 2137.08 187.518 Q2139.45 187.518 2141.53 187.865 Q2143.61 188.212 2145.37 188.907 Z" fill="#000000" fill-rule="nonzero" fill-opacity="1" /><path clip-path="url(#clip170)" d="M2157.76 180.782 L2157.76 188.143 L2166.53 188.143 L2166.53 191.453 L2157.76 191.453 L2157.76 205.527 Q2157.76 208.698 2158.61 209.601 Q2159.49 210.504 2162.15 210.504 L2166.53 210.504 L2166.53 214.069 L2162.15 214.069 Q2157.22 214.069 2155.35 212.24 Q2153.47 210.388 2153.47 205.527 L2153.47 191.453 L2150.35 191.453 L2150.35 188.143 L2153.47 188.143 L2153.47 180.782 L2157.76 180.782 Z" fill="#000000" fill-rule="nonzero" fill-opacity="1" /><path clip-path="url(#clip170)" d="M2194.31 200.041 L2194.31 202.124 L2174.72 202.124 Q2175 206.522 2177.36 208.837 Q2179.75 211.129 2183.98 211.129 Q2186.44 211.129 2188.73 210.527 Q2191.04 209.925 2193.31 208.721 L2193.31 212.749 Q2191.02 213.721 2188.61 214.231 Q2186.21 214.74 2183.73 214.74 Q2177.52 214.74 2173.89 211.129 Q2170.28 207.518 2170.28 201.36 Q2170.28 194.995 2173.71 191.268 Q2177.15 187.518 2182.99 187.518 Q2188.22 187.518 2191.25 190.897 Q2194.31 194.254 2194.31 200.041 M2190.05 198.791 Q2190 195.296 2188.08 193.212 Q2186.18 191.129 2183.03 191.129 Q2179.47 191.129 2177.32 193.143 Q2175.19 195.157 2174.86 198.814 L2190.05 198.791 Z" fill="#000000" fill-rule="nonzero" fill-opacity="1" /><path clip-path="url(#clip170)" d="M2216.32 192.124 Q2215.6 191.708 2214.75 191.522 Q2213.91 191.314 2212.89 191.314 Q2209.28 191.314 2207.34 193.675 Q2205.42 196.013 2205.42 200.411 L2205.42 214.069 L2201.14 214.069 L2201.14 188.143 L2205.42 188.143 L2205.42 192.171 Q2206.76 189.809 2208.91 188.675 Q2211.07 187.518 2214.14 187.518 Q2214.58 187.518 2215.12 187.587 Q2215.65 187.634 2216.3 187.749 L2216.32 192.124 Z" fill="#000000" fill-rule="nonzero" fill-opacity="1" /><path clip-path="url(#clip170)" d="M2240.49 210.133 L2256.81 210.133 L2256.81 214.069 L2234.86 214.069 L2234.86 210.133 Q2237.52 207.379 2242.11 202.749 Q2246.71 198.096 2247.89 196.754 Q2250.14 194.231 2251.02 192.495 Q2251.92 190.735 2251.92 189.046 Q2251.92 186.291 2249.98 184.555 Q2248.06 182.819 2244.95 182.819 Q2242.76 182.819 2240.3 183.583 Q2237.87 184.347 2235.09 185.897 L2235.09 181.175 Q2237.92 180.041 2240.37 179.462 Q2242.83 178.884 2244.86 178.884 Q2250.23 178.884 2253.43 181.569 Q2256.62 184.254 2256.62 188.745 Q2256.62 190.874 2255.81 192.796 Q2255.02 194.694 2252.92 197.286 Q2252.34 197.958 2249.24 201.175 Q2246.14 204.37 2240.49 210.133 Z" fill="#000000" fill-rule="nonzero" fill-opacity="1" /></svg>
