<?xml version="1.0" encoding="utf-8"?>
<svg xmlns="http://www.w3.org/2000/svg" xmlns:xlink="http://www.w3.org/1999/xlink" width="600" height="400" viewBox="0 0 2400 1600">
<defs>
  <clipPath id="clip260">
    <rect x="0" y="0" width="2400" height="1600"/>
  </clipPath>
</defs>
<path clip-path="url(#clip260)" d="M0 1600 L2400 1600 L2400 0 L0 0  Z" fill="#ffffff" fill-rule="evenodd" fill-opacity="1"/>
<defs>
  <clipPath id="clip261">
    <rect x="480" y="0" width="1681" height="1600"/>
  </clipPath>
</defs>
<path clip-path="url(#clip260)" d="M279.704 1423.18 L2352.76 1423.18 L2352.76 47.2441 L279.704 47.2441  Z" fill="#ffffff" fill-rule="evenodd" fill-opacity="1"/>
<defs>
  <clipPath id="clip262">
    <rect x="279" y="47" width="2074" height="1377"/>
  </clipPath>
</defs>
<polyline clip-path="url(#clip262)" style="stroke:#000000; stroke-linecap:round; stroke-linejoin:round; stroke-width:2; stroke-opacity:0.1; fill:none" points="584.61,1423.18 584.61,47.2441 "/>
<polyline clip-path="url(#clip262)" style="stroke:#000000; stroke-linecap:round; stroke-linejoin:round; stroke-width:2; stroke-opacity:0.1; fill:none" points="1064.21,1423.18 1064.21,47.2441 "/>
<polyline clip-path="url(#clip262)" style="stroke:#000000; stroke-linecap:round; stroke-linejoin:round; stroke-width:2; stroke-opacity:0.1; fill:none" points="1543.81,1423.18 1543.81,47.2441 "/>
<polyline clip-path="url(#clip262)" style="stroke:#000000; stroke-linecap:round; stroke-linejoin:round; stroke-width:2; stroke-opacity:0.1; fill:none" points="2023.42,1423.18 2023.42,47.2441 "/>
<polyline clip-path="url(#clip260)" style="stroke:#000000; stroke-linecap:round; stroke-linejoin:round; stroke-width:4; stroke-opacity:1; fill:none" points="279.704,1423.18 2352.76,1423.18 "/>
<polyline clip-path="url(#clip260)" style="stroke:#000000; stroke-linecap:round; stroke-linejoin:round; stroke-width:4; stroke-opacity:1; fill:none" points="584.61,1423.18 584.61,1404.28 "/>
<polyline clip-path="url(#clip260)" style="stroke:#000000; stroke-linecap:round; stroke-linejoin:round; stroke-width:4; stroke-opacity:1; fill:none" points="1064.21,1423.18 1064.21,1404.28 "/>
<polyline clip-path="url(#clip260)" style="stroke:#000000; stroke-linecap:round; stroke-linejoin:round; stroke-width:4; stroke-opacity:1; fill:none" points="1543.81,1423.18 1543.81,1404.28 "/>
<polyline clip-path="url(#clip260)" style="stroke:#000000; stroke-linecap:round; stroke-linejoin:round; stroke-width:4; stroke-opacity:1; fill:none" points="2023.42,1423.18 2023.42,1404.28 "/>
<path clip-path="url(#clip260)" d="M579.263 1481.64 L595.582 1481.64 L595.582 1485.58 L573.638 1485.58 L573.638 1481.64 Q576.3 1478.89 580.883 1474.26 Q585.489 1469.61 586.67 1468.27 Q588.915 1465.74 589.795 1464.01 Q590.698 1462.25 590.698 1460.56 Q590.698 1457.8 588.753 1456.07 Q586.832 1454.33 583.73 1454.33 Q581.531 1454.33 579.077 1455.09 Q576.647 1455.86 573.869 1457.41 L573.869 1452.69 Q576.693 1451.55 579.147 1450.97 Q581.601 1450.39 583.638 1450.39 Q589.008 1450.39 592.202 1453.08 Q595.397 1455.77 595.397 1460.26 Q595.397 1462.39 594.587 1464.31 Q593.8 1466.2 591.693 1468.8 Q591.114 1469.47 588.013 1472.69 Q584.911 1475.88 579.263 1481.64 Z" fill="#000000" fill-rule="nonzero" fill-opacity="1" /><path clip-path="url(#clip260)" d="M1068.46 1466.95 Q1071.82 1467.66 1073.69 1469.93 Q1075.59 1472.2 1075.59 1475.53 Q1075.59 1480.65 1072.07 1483.45 Q1068.55 1486.25 1062.07 1486.25 Q1059.89 1486.25 1057.58 1485.81 Q1055.29 1485.39 1052.83 1484.54 L1052.83 1480.02 Q1054.78 1481.16 1057.09 1481.74 Q1059.41 1482.32 1061.93 1482.32 Q1066.33 1482.32 1068.62 1480.58 Q1070.94 1478.84 1070.94 1475.53 Q1070.94 1472.48 1068.78 1470.77 Q1066.65 1469.03 1062.83 1469.03 L1058.81 1469.03 L1058.81 1465.19 L1063.02 1465.19 Q1066.47 1465.19 1068.3 1463.82 Q1070.13 1462.43 1070.13 1459.84 Q1070.13 1457.18 1068.23 1455.77 Q1066.35 1454.33 1062.83 1454.33 Q1060.91 1454.33 1058.71 1454.75 Q1056.52 1455.16 1053.88 1456.04 L1053.88 1451.88 Q1056.54 1451.14 1058.85 1450.77 Q1061.19 1450.39 1063.25 1450.39 Q1068.58 1450.39 1071.68 1452.83 Q1074.78 1455.23 1074.78 1459.35 Q1074.78 1462.22 1073.14 1464.21 Q1071.49 1466.18 1068.46 1466.95 Z" fill="#000000" fill-rule="nonzero" fill-opacity="1" /><path clip-path="url(#clip260)" d="M1546.82 1455.09 L1535.02 1473.54 L1546.82 1473.54 L1546.82 1455.09 M1545.6 1451.02 L1551.48 1451.02 L1551.48 1473.54 L1556.41 1473.54 L1556.41 1477.43 L1551.48 1477.43 L1551.48 1485.58 L1546.82 1485.58 L1546.82 1477.43 L1531.22 1477.43 L1531.22 1472.92 L1545.6 1451.02 Z" fill="#000000" fill-rule="nonzero" fill-opacity="1" /><path clip-path="url(#clip260)" d="M2013.69 1451.02 L2032.05 1451.02 L2032.05 1454.96 L2017.98 1454.96 L2017.98 1463.43 Q2018.99 1463.08 2020.01 1462.92 Q2021.03 1462.73 2022.05 1462.73 Q2027.84 1462.73 2031.22 1465.9 Q2034.6 1469.08 2034.6 1474.49 Q2034.6 1480.07 2031.12 1483.17 Q2027.65 1486.25 2021.33 1486.25 Q2019.16 1486.25 2016.89 1485.88 Q2014.64 1485.51 2012.24 1484.77 L2012.24 1480.07 Q2014.32 1481.2 2016.54 1481.76 Q2018.76 1482.32 2021.24 1482.32 Q2025.24 1482.32 2027.58 1480.21 Q2029.92 1478.1 2029.92 1474.49 Q2029.92 1470.88 2027.58 1468.77 Q2025.24 1466.67 2021.24 1466.67 Q2019.37 1466.67 2017.49 1467.08 Q2015.64 1467.5 2013.69 1468.38 L2013.69 1451.02 Z" fill="#000000" fill-rule="nonzero" fill-opacity="1" /><path clip-path="url(#clip260)" d="M1298.06 1520.52 L1304.96 1520.52 L1316.77 1538.19 L1328.64 1520.52 L1335.55 1520.52 L1320.27 1543.34 L1336.57 1568.04 L1329.66 1568.04 L1316.29 1547.83 L1302.83 1568.04 L1295.89 1568.04 L1312.86 1542.68 L1298.06 1520.52 Z" fill="#000000" fill-rule="nonzero" fill-opacity="1" /><polyline clip-path="url(#clip262)" style="stroke:#000000; stroke-linecap:round; stroke-linejoin:round; stroke-width:2; stroke-opacity:0.1; fill:none" points="279.704,1298.09 2352.76,1298.09 "/>
<polyline clip-path="url(#clip262)" style="stroke:#000000; stroke-linecap:round; stroke-linejoin:round; stroke-width:2; stroke-opacity:0.1; fill:none" points="279.704,985.382 2352.76,985.382 "/>
<polyline clip-path="url(#clip262)" style="stroke:#000000; stroke-linecap:round; stroke-linejoin:round; stroke-width:2; stroke-opacity:0.1; fill:none" points="279.704,672.669 2352.76,672.669 "/>
<polyline clip-path="url(#clip262)" style="stroke:#000000; stroke-linecap:round; stroke-linejoin:round; stroke-width:2; stroke-opacity:0.1; fill:none" points="279.704,359.957 2352.76,359.957 "/>
<polyline clip-path="url(#clip262)" style="stroke:#000000; stroke-linecap:round; stroke-linejoin:round; stroke-width:2; stroke-opacity:0.1; fill:none" points="279.704,47.2441 2352.76,47.2441 "/>
<polyline clip-path="url(#clip260)" style="stroke:#000000; stroke-linecap:round; stroke-linejoin:round; stroke-width:4; stroke-opacity:1; fill:none" points="279.704,1423.18 279.704,47.2441 "/>
<polyline clip-path="url(#clip260)" style="stroke:#000000; stroke-linecap:round; stroke-linejoin:round; stroke-width:4; stroke-opacity:1; fill:none" points="279.704,1298.09 298.602,1298.09 "/>
<polyline clip-path="url(#clip260)" style="stroke:#000000; stroke-linecap:round; stroke-linejoin:round; stroke-width:4; stroke-opacity:1; fill:none" points="279.704,985.382 298.602,985.382 "/>
<polyline clip-path="url(#clip260)" style="stroke:#000000; stroke-linecap:round; stroke-linejoin:round; stroke-width:4; stroke-opacity:1; fill:none" points="279.704,672.669 298.602,672.669 "/>
<polyline clip-path="url(#clip260)" style="stroke:#000000; stroke-linecap:round; stroke-linejoin:round; stroke-width:4; stroke-opacity:1; fill:none" points="279.704,359.957 298.602,359.957 "/>
<polyline clip-path="url(#clip260)" style="stroke:#000000; stroke-linecap:round; stroke-linejoin:round; stroke-width:4; stroke-opacity:1; fill:none" points="279.704,47.2441 298.602,47.2441 "/>
<path clip-path="url(#clip260)" d="M126.205 1283.89 Q122.593 1283.89 120.765 1287.46 Q118.959 1291 118.959 1298.13 Q118.959 1305.24 120.765 1308.8 Q122.593 1312.34 126.205 1312.34 Q129.839 1312.34 131.644 1308.8 Q133.473 1305.24 133.473 1298.13 Q133.473 1291 131.644 1287.46 Q129.839 1283.89 126.205 1283.89 M126.205 1280.19 Q132.015 1280.19 135.07 1284.8 Q138.149 1289.38 138.149 1298.13 Q138.149 1306.86 135.07 1311.46 Q132.015 1316.05 126.205 1316.05 Q120.394 1316.05 117.316 1311.46 Q114.26 1306.86 114.26 1298.13 Q114.26 1289.38 117.316 1284.8 Q120.394 1280.19 126.205 1280.19 Z" fill="#000000" fill-rule="nonzero" fill-opacity="1" /><path clip-path="url(#clip260)" d="M146.366 1309.5 L151.251 1309.5 L151.251 1315.37 L146.366 1315.37 L146.366 1309.5 Z" fill="#000000" fill-rule="nonzero" fill-opacity="1" /><path clip-path="url(#clip260)" d="M171.436 1283.89 Q167.825 1283.89 165.996 1287.46 Q164.19 1291 164.19 1298.13 Q164.19 1305.24 165.996 1308.8 Q167.825 1312.34 171.436 1312.34 Q175.07 1312.34 176.876 1308.8 Q178.704 1305.24 178.704 1298.13 Q178.704 1291 176.876 1287.46 Q175.07 1283.89 171.436 1283.89 M171.436 1280.19 Q177.246 1280.19 180.301 1284.8 Q183.38 1289.38 183.38 1298.13 Q183.38 1306.86 180.301 1311.46 Q177.246 1316.05 171.436 1316.05 Q165.626 1316.05 162.547 1311.46 Q159.491 1306.86 159.491 1298.13 Q159.491 1289.38 162.547 1284.8 Q165.626 1280.19 171.436 1280.19 Z" fill="#000000" fill-rule="nonzero" fill-opacity="1" /><path clip-path="url(#clip260)" d="M201.598 1283.89 Q197.987 1283.89 196.158 1287.46 Q194.352 1291 194.352 1298.13 Q194.352 1305.24 196.158 1308.8 Q197.987 1312.34 201.598 1312.34 Q205.232 1312.34 207.037 1308.8 Q208.866 1305.24 208.866 1298.13 Q208.866 1291 207.037 1287.46 Q205.232 1283.89 201.598 1283.89 M201.598 1280.19 Q207.408 1280.19 210.463 1284.8 Q213.542 1289.38 213.542 1298.13 Q213.542 1306.86 210.463 1311.46 Q207.408 1316.05 201.598 1316.05 Q195.787 1316.05 192.709 1311.46 Q189.653 1306.86 189.653 1298.13 Q189.653 1289.38 192.709 1284.8 Q195.787 1280.19 201.598 1280.19 Z" fill="#000000" fill-rule="nonzero" fill-opacity="1" /><path clip-path="url(#clip260)" d="M231.76 1283.89 Q228.148 1283.89 226.32 1287.46 Q224.514 1291 224.514 1298.13 Q224.514 1305.24 226.32 1308.8 Q228.148 1312.34 231.76 1312.34 Q235.394 1312.34 237.199 1308.8 Q239.028 1305.24 239.028 1298.13 Q239.028 1291 237.199 1287.46 Q235.394 1283.89 231.76 1283.89 M231.76 1280.19 Q237.57 1280.19 240.625 1284.8 Q243.704 1289.38 243.704 1298.13 Q243.704 1306.86 240.625 1311.46 Q237.57 1316.05 231.76 1316.05 Q225.949 1316.05 222.871 1311.46 Q219.815 1306.86 219.815 1298.13 Q219.815 1289.38 222.871 1284.8 Q225.949 1280.19 231.76 1280.19 Z" fill="#000000" fill-rule="nonzero" fill-opacity="1" /><path clip-path="url(#clip260)" d="M127.2 971.181 Q123.589 971.181 121.76 974.746 Q119.955 978.287 119.955 985.417 Q119.955 992.523 121.76 996.088 Q123.589 999.63 127.2 999.63 Q130.834 999.63 132.64 996.088 Q134.468 992.523 134.468 985.417 Q134.468 978.287 132.64 974.746 Q130.834 971.181 127.2 971.181 M127.2 967.477 Q133.01 967.477 136.066 972.084 Q139.144 976.667 139.144 985.417 Q139.144 994.144 136.066 998.75 Q133.01 1003.33 127.2 1003.33 Q121.39 1003.33 118.311 998.75 Q115.256 994.144 115.256 985.417 Q115.256 976.667 118.311 972.084 Q121.39 967.477 127.2 967.477 Z" fill="#000000" fill-rule="nonzero" fill-opacity="1" /><path clip-path="url(#clip260)" d="M147.362 996.783 L152.246 996.783 L152.246 1002.66 L147.362 1002.66 L147.362 996.783 Z" fill="#000000" fill-rule="nonzero" fill-opacity="1" /><path clip-path="url(#clip260)" d="M172.431 971.181 Q168.82 971.181 166.991 974.746 Q165.186 978.287 165.186 985.417 Q165.186 992.523 166.991 996.088 Q168.82 999.63 172.431 999.63 Q176.065 999.63 177.871 996.088 Q179.7 992.523 179.7 985.417 Q179.7 978.287 177.871 974.746 Q176.065 971.181 172.431 971.181 M172.431 967.477 Q178.241 967.477 181.297 972.084 Q184.376 976.667 184.376 985.417 Q184.376 994.144 181.297 998.75 Q178.241 1003.33 172.431 1003.33 Q166.621 1003.33 163.542 998.75 Q160.487 994.144 160.487 985.417 Q160.487 976.667 163.542 972.084 Q166.621 967.477 172.431 967.477 Z" fill="#000000" fill-rule="nonzero" fill-opacity="1" /><path clip-path="url(#clip260)" d="M196.621 998.727 L212.94 998.727 L212.94 1002.66 L190.996 1002.66 L190.996 998.727 Q193.658 995.972 198.241 991.343 Q202.848 986.69 204.028 985.347 Q206.274 982.824 207.153 981.088 Q208.056 979.329 208.056 977.639 Q208.056 974.884 206.112 973.148 Q204.19 971.412 201.088 971.412 Q198.889 971.412 196.436 972.176 Q194.005 972.94 191.227 974.491 L191.227 969.769 Q194.051 968.635 196.505 968.056 Q198.959 967.477 200.996 967.477 Q206.366 967.477 209.561 970.162 Q212.755 972.847 212.755 977.338 Q212.755 979.468 211.945 981.389 Q211.158 983.287 209.051 985.88 Q208.473 986.551 205.371 989.769 Q202.269 992.963 196.621 998.727 Z" fill="#000000" fill-rule="nonzero" fill-opacity="1" /><path clip-path="url(#clip260)" d="M222.801 968.102 L241.158 968.102 L241.158 972.037 L227.084 972.037 L227.084 980.509 Q228.102 980.162 229.121 980 Q230.139 979.815 231.158 979.815 Q236.945 979.815 240.324 982.986 Q243.704 986.158 243.704 991.574 Q243.704 997.153 240.232 1000.25 Q236.76 1003.33 230.44 1003.33 Q228.264 1003.33 225.996 1002.96 Q223.75 1002.59 221.343 1001.85 L221.343 997.153 Q223.426 998.287 225.648 998.843 Q227.871 999.398 230.347 999.398 Q234.352 999.398 236.69 997.292 Q239.028 995.185 239.028 991.574 Q239.028 987.963 236.69 985.857 Q234.352 983.75 230.347 983.75 Q228.473 983.75 226.598 984.167 Q224.746 984.583 222.801 985.463 L222.801 968.102 Z" fill="#000000" fill-rule="nonzero" fill-opacity="1" /><path clip-path="url(#clip260)" d="M126.205 658.468 Q122.593 658.468 120.765 662.033 Q118.959 665.575 118.959 672.704 Q118.959 679.811 120.765 683.375 Q122.593 686.917 126.205 686.917 Q129.839 686.917 131.644 683.375 Q133.473 679.811 133.473 672.704 Q133.473 665.575 131.644 662.033 Q129.839 658.468 126.205 658.468 M126.205 654.764 Q132.015 654.764 135.07 659.371 Q138.149 663.954 138.149 672.704 Q138.149 681.431 135.07 686.037 Q132.015 690.621 126.205 690.621 Q120.394 690.621 117.316 686.037 Q114.26 681.431 114.26 672.704 Q114.26 663.954 117.316 659.371 Q120.394 654.764 126.205 654.764 Z" fill="#000000" fill-rule="nonzero" fill-opacity="1" /><path clip-path="url(#clip260)" d="M146.366 684.07 L151.251 684.07 L151.251 689.949 L146.366 689.949 L146.366 684.07 Z" fill="#000000" fill-rule="nonzero" fill-opacity="1" /><path clip-path="url(#clip260)" d="M171.436 658.468 Q167.825 658.468 165.996 662.033 Q164.19 665.575 164.19 672.704 Q164.19 679.811 165.996 683.375 Q167.825 686.917 171.436 686.917 Q175.07 686.917 176.876 683.375 Q178.704 679.811 178.704 672.704 Q178.704 665.575 176.876 662.033 Q175.07 658.468 171.436 658.468 M171.436 654.764 Q177.246 654.764 180.301 659.371 Q183.38 663.954 183.38 672.704 Q183.38 681.431 180.301 686.037 Q177.246 690.621 171.436 690.621 Q165.626 690.621 162.547 686.037 Q159.491 681.431 159.491 672.704 Q159.491 663.954 162.547 659.371 Q165.626 654.764 171.436 654.764 Z" fill="#000000" fill-rule="nonzero" fill-opacity="1" /><path clip-path="url(#clip260)" d="M191.644 655.389 L210 655.389 L210 659.325 L195.926 659.325 L195.926 667.797 Q196.945 667.45 197.963 667.288 Q198.982 667.102 200 667.102 Q205.787 667.102 209.167 670.274 Q212.547 673.445 212.547 678.862 Q212.547 684.44 209.074 687.542 Q205.602 690.621 199.283 690.621 Q197.107 690.621 194.838 690.25 Q192.593 689.88 190.186 689.139 L190.186 684.44 Q192.269 685.574 194.491 686.13 Q196.713 686.686 199.19 686.686 Q203.195 686.686 205.533 684.579 Q207.871 682.473 207.871 678.862 Q207.871 675.25 205.533 673.144 Q203.195 671.037 199.19 671.037 Q197.315 671.037 195.44 671.454 Q193.588 671.871 191.644 672.75 L191.644 655.389 Z" fill="#000000" fill-rule="nonzero" fill-opacity="1" /><path clip-path="url(#clip260)" d="M231.76 658.468 Q228.148 658.468 226.32 662.033 Q224.514 665.575 224.514 672.704 Q224.514 679.811 226.32 683.375 Q228.148 686.917 231.76 686.917 Q235.394 686.917 237.199 683.375 Q239.028 679.811 239.028 672.704 Q239.028 665.575 237.199 662.033 Q235.394 658.468 231.76 658.468 M231.76 654.764 Q237.57 654.764 240.625 659.371 Q243.704 663.954 243.704 672.704 Q243.704 681.431 240.625 686.037 Q237.57 690.621 231.76 690.621 Q225.949 690.621 222.871 686.037 Q219.815 681.431 219.815 672.704 Q219.815 663.954 222.871 659.371 Q225.949 654.764 231.76 654.764 Z" fill="#000000" fill-rule="nonzero" fill-opacity="1" /><path clip-path="url(#clip260)" d="M127.2 345.755 Q123.589 345.755 121.76 349.32 Q119.955 352.862 119.955 359.991 Q119.955 367.098 121.76 370.663 Q123.589 374.204 127.2 374.204 Q130.834 374.204 132.64 370.663 Q134.468 367.098 134.468 359.991 Q134.468 352.862 132.64 349.32 Q130.834 345.755 127.2 345.755 M127.2 342.052 Q133.01 342.052 136.066 346.658 Q139.144 351.242 139.144 359.991 Q139.144 368.718 136.066 373.325 Q133.01 377.908 127.2 377.908 Q121.39 377.908 118.311 373.325 Q115.256 368.718 115.256 359.991 Q115.256 351.242 118.311 346.658 Q121.39 342.052 127.2 342.052 Z" fill="#000000" fill-rule="nonzero" fill-opacity="1" /><path clip-path="url(#clip260)" d="M147.362 371.357 L152.246 371.357 L152.246 377.237 L147.362 377.237 L147.362 371.357 Z" fill="#000000" fill-rule="nonzero" fill-opacity="1" /><path clip-path="url(#clip260)" d="M172.431 345.755 Q168.82 345.755 166.991 349.32 Q165.186 352.862 165.186 359.991 Q165.186 367.098 166.991 370.663 Q168.82 374.204 172.431 374.204 Q176.065 374.204 177.871 370.663 Q179.7 367.098 179.7 359.991 Q179.7 352.862 177.871 349.32 Q176.065 345.755 172.431 345.755 M172.431 342.052 Q178.241 342.052 181.297 346.658 Q184.376 351.242 184.376 359.991 Q184.376 368.718 181.297 373.325 Q178.241 377.908 172.431 377.908 Q166.621 377.908 163.542 373.325 Q160.487 368.718 160.487 359.991 Q160.487 351.242 163.542 346.658 Q166.621 342.052 172.431 342.052 Z" fill="#000000" fill-rule="nonzero" fill-opacity="1" /><path clip-path="url(#clip260)" d="M191.413 342.677 L213.635 342.677 L213.635 344.667 L201.088 377.237 L196.204 377.237 L208.01 346.612 L191.413 346.612 L191.413 342.677 Z" fill="#000000" fill-rule="nonzero" fill-opacity="1" /><path clip-path="url(#clip260)" d="M222.801 342.677 L241.158 342.677 L241.158 346.612 L227.084 346.612 L227.084 355.084 Q228.102 354.737 229.121 354.575 Q230.139 354.39 231.158 354.39 Q236.945 354.39 240.324 357.561 Q243.704 360.732 243.704 366.149 Q243.704 371.728 240.232 374.829 Q236.76 377.908 230.44 377.908 Q228.264 377.908 225.996 377.538 Q223.75 377.167 221.343 376.427 L221.343 371.728 Q223.426 372.862 225.648 373.417 Q227.871 373.973 230.347 373.973 Q234.352 373.973 236.69 371.866 Q239.028 369.76 239.028 366.149 Q239.028 362.538 236.69 360.431 Q234.352 358.325 230.347 358.325 Q228.473 358.325 226.598 358.741 Q224.746 359.158 222.801 360.038 L222.801 342.677 Z" fill="#000000" fill-rule="nonzero" fill-opacity="1" /><path clip-path="url(#clip260)" d="M126.205 33.0428 Q122.593 33.0428 120.765 36.6076 Q118.959 40.1492 118.959 47.2788 Q118.959 54.3853 120.765 57.9501 Q122.593 61.4917 126.205 61.4917 Q129.839 61.4917 131.644 57.9501 Q133.473 54.3853 133.473 47.2788 Q133.473 40.1492 131.644 36.6076 Q129.839 33.0428 126.205 33.0428 M126.205 29.3391 Q132.015 29.3391 135.07 33.9456 Q138.149 38.5289 138.149 47.2788 Q138.149 56.0056 135.07 60.6121 Q132.015 65.1954 126.205 65.1954 Q120.394 65.1954 117.316 60.6121 Q114.26 56.0056 114.26 47.2788 Q114.26 38.5289 117.316 33.9456 Q120.394 29.3391 126.205 29.3391 Z" fill="#000000" fill-rule="nonzero" fill-opacity="1" /><path clip-path="url(#clip260)" d="M146.366 58.6445 L151.251 58.6445 L151.251 64.5241 L146.366 64.5241 L146.366 58.6445 Z" fill="#000000" fill-rule="nonzero" fill-opacity="1" /><path clip-path="url(#clip260)" d="M162.246 60.5889 L169.885 60.5889 L169.885 34.2233 L161.575 35.89 L161.575 31.6308 L169.839 29.9641 L174.514 29.9641 L174.514 60.5889 L182.153 60.5889 L182.153 64.5241 L162.246 64.5241 L162.246 60.5889 Z" fill="#000000" fill-rule="nonzero" fill-opacity="1" /><path clip-path="url(#clip260)" d="M201.598 33.0428 Q197.987 33.0428 196.158 36.6076 Q194.352 40.1492 194.352 47.2788 Q194.352 54.3853 196.158 57.9501 Q197.987 61.4917 201.598 61.4917 Q205.232 61.4917 207.037 57.9501 Q208.866 54.3853 208.866 47.2788 Q208.866 40.1492 207.037 36.6076 Q205.232 33.0428 201.598 33.0428 M201.598 29.3391 Q207.408 29.3391 210.463 33.9456 Q213.542 38.5289 213.542 47.2788 Q213.542 56.0056 210.463 60.6121 Q207.408 65.1954 201.598 65.1954 Q195.787 65.1954 192.709 60.6121 Q189.653 56.0056 189.653 47.2788 Q189.653 38.5289 192.709 33.9456 Q195.787 29.3391 201.598 29.3391 Z" fill="#000000" fill-rule="nonzero" fill-opacity="1" /><path clip-path="url(#clip260)" d="M231.76 33.0428 Q228.148 33.0428 226.32 36.6076 Q224.514 40.1492 224.514 47.2788 Q224.514 54.3853 226.32 57.9501 Q228.148 61.4917 231.76 61.4917 Q235.394 61.4917 237.199 57.9501 Q239.028 54.3853 239.028 47.2788 Q239.028 40.1492 237.199 36.6076 Q235.394 33.0428 231.76 33.0428 M231.76 29.3391 Q237.57 29.3391 240.625 33.9456 Q243.704 38.5289 243.704 47.2788 Q243.704 56.0056 240.625 60.6121 Q237.57 65.1954 231.76 65.1954 Q225.949 65.1954 222.871 60.6121 Q219.815 56.0056 219.815 47.2788 Q219.815 38.5289 222.871 33.9456 Q225.949 29.3391 231.76 29.3391 Z" fill="#000000" fill-rule="nonzero" fill-opacity="1" /><path clip-path="url(#clip260)" d="M16.4842 755.248 L16.4842 748.341 L36.0269 735.164 L16.4842 722.083 L16.4842 715.176 L41.3741 731.981 L64.0042 731.981 L64.0042 738.443 L41.3741 738.443 L16.4842 755.248 Z" fill="#000000" fill-rule="nonzero" fill-opacity="1" /><circle clip-path="url(#clip262)" cx="353.747" cy="1298.09" r="14.4" fill="#009af9" fill-rule="evenodd" fill-opacity="1" stroke="#000000" stroke-opacity="1" stroke-width="3.2"/>
<circle clip-path="url(#clip262)" cx="558.429" cy="1298.09" r="14.4" fill="#009af9" fill-rule="evenodd" fill-opacity="1" stroke="#000000" stroke-opacity="1" stroke-width="3.2"/>
<circle clip-path="url(#clip262)" cx="338.375" cy="1298.09" r="14.4" fill="#009af9" fill-rule="evenodd" fill-opacity="1" stroke="#000000" stroke-opacity="1" stroke-width="3.2"/>
<circle clip-path="url(#clip262)" cx="569.823" cy="1298.09" r="14.4" fill="#009af9" fill-rule="evenodd" fill-opacity="1" stroke="#000000" stroke-opacity="1" stroke-width="3.2"/>
<circle clip-path="url(#clip262)" cx="415.302" cy="1298.09" r="14.4" fill="#009af9" fill-rule="evenodd" fill-opacity="1" stroke="#000000" stroke-opacity="1" stroke-width="3.2"/>
<circle clip-path="url(#clip262)" cx="2273.64" cy="1298.09" r="14.4" fill="#009af9" fill-rule="evenodd" fill-opacity="1" stroke="#000000" stroke-opacity="1" stroke-width="3.2"/>
<circle clip-path="url(#clip262)" cx="1879.39" cy="1298.09" r="14.4" fill="#009af9" fill-rule="evenodd" fill-opacity="1" stroke="#000000" stroke-opacity="1" stroke-width="3.2"/>
<circle clip-path="url(#clip262)" cx="2294.08" cy="1298.09" r="14.4" fill="#009af9" fill-rule="evenodd" fill-opacity="1" stroke="#000000" stroke-opacity="1" stroke-width="3.2"/>
<circle clip-path="url(#clip262)" cx="1618.4" cy="1298.09" r="14.4" fill="#009af9" fill-rule="evenodd" fill-opacity="1" stroke="#000000" stroke-opacity="1" stroke-width="3.2"/>
<circle clip-path="url(#clip262)" cx="1881.03" cy="1298.09" r="14.4" fill="#009af9" fill-rule="evenodd" fill-opacity="1" stroke="#000000" stroke-opacity="1" stroke-width="3.2"/>
<circle clip-path="url(#clip262)" cx="353.747" cy="1173.01" r="14.4" fill="#e26f46" fill-rule="evenodd" fill-opacity="1" stroke="#000000" stroke-opacity="1" stroke-width="3.2"/>
<circle clip-path="url(#clip262)" cx="558.429" cy="1173.01" r="14.4" fill="#e26f46" fill-rule="evenodd" fill-opacity="1" stroke="#000000" stroke-opacity="1" stroke-width="3.2"/>
<circle clip-path="url(#clip262)" cx="338.375" cy="1173.01" r="14.4" fill="#e26f46" fill-rule="evenodd" fill-opacity="1" stroke="#000000" stroke-opacity="1" stroke-width="3.2"/>
<circle clip-path="url(#clip262)" cx="569.823" cy="1173.01" r="14.4" fill="#e26f46" fill-rule="evenodd" fill-opacity="1" stroke="#000000" stroke-opacity="1" stroke-width="3.2"/>
<circle clip-path="url(#clip262)" cx="415.302" cy="1173.01" r="14.4" fill="#e26f46" fill-rule="evenodd" fill-opacity="1" stroke="#000000" stroke-opacity="1" stroke-width="3.2"/>
<circle clip-path="url(#clip262)" cx="2273.64" cy="1173.01" r="14.4" fill="#e26f46" fill-rule="evenodd" fill-opacity="1" stroke="#000000" stroke-opacity="1" stroke-width="3.2"/>
<circle clip-path="url(#clip262)" cx="1880.21" cy="1173.01" r="14.4" fill="#e26f46" fill-rule="evenodd" fill-opacity="1" stroke="#000000" stroke-opacity="1" stroke-width="3.2"/>
<circle clip-path="url(#clip262)" cx="2294.08" cy="1173.01" r="14.4" fill="#e26f46" fill-rule="evenodd" fill-opacity="1" stroke="#000000" stroke-opacity="1" stroke-width="3.2"/>
<circle clip-path="url(#clip262)" cx="1618.4" cy="1173.01" r="14.4" fill="#e26f46" fill-rule="evenodd" fill-opacity="1" stroke="#000000" stroke-opacity="1" stroke-width="3.2"/>
<circle clip-path="url(#clip262)" cx="1880.21" cy="1173.01" r="14.4" fill="#e26f46" fill-rule="evenodd" fill-opacity="1" stroke="#000000" stroke-opacity="1" stroke-width="3.2"/>
<path clip-path="url(#clip260)" d="M1595.29 248.629 L2283.65 248.629 L2283.65 93.1086 L1595.29 93.1086  Z" fill="#ffffff" fill-rule="evenodd" fill-opacity="1"/>
<polyline clip-path="url(#clip260)" style="stroke:#000000; stroke-linecap:round; stroke-linejoin:round; stroke-width:4; stroke-opacity:1; fill:none" points="1595.29,248.629 2283.65,248.629 2283.65,93.1086 1595.29,93.1086 1595.29,248.629 "/>
<circle clip-path="url(#clip260)" cx="1687.42" cy="144.949" r="20.48" fill="#009af9" fill-rule="evenodd" fill-opacity="1" stroke="#000000" stroke-opacity="1" stroke-width="4.55111"/>
<path clip-path="url(#clip260)" d="M1795.58 130.84 Q1790.48 130.84 1787.47 134.636 Q1784.49 138.432 1784.49 144.983 Q1784.49 151.511 1787.47 155.307 Q1790.48 159.104 1795.58 159.104 Q1800.67 159.104 1803.63 155.307 Q1806.62 151.511 1806.62 144.983 Q1806.62 138.432 1803.63 134.636 Q1800.67 130.84 1795.58 130.84 M1795.58 127.044 Q1802.84 127.044 1807.2 131.928 Q1811.55 136.789 1811.55 144.983 Q1811.55 153.155 1807.2 158.039 Q1802.84 162.9 1795.58 162.9 Q1788.28 162.9 1783.91 158.039 Q1779.56 153.178 1779.56 144.983 Q1779.56 136.789 1783.91 131.928 Q1788.28 127.044 1795.58 127.044 Z" fill="#000000" fill-rule="nonzero" fill-opacity="1" /><path clip-path="url(#clip260)" d="M1833.7 140.284 Q1832.98 139.868 1832.13 139.682 Q1831.29 139.474 1830.28 139.474 Q1826.66 139.474 1824.72 141.835 Q1822.8 144.173 1822.8 148.571 L1822.8 162.229 L1818.52 162.229 L1818.52 136.303 L1822.8 136.303 L1822.8 140.331 Q1824.14 137.969 1826.29 136.835 Q1828.45 135.678 1831.53 135.678 Q1831.97 135.678 1832.5 135.747 Q1833.03 135.794 1833.68 135.909 L1833.7 140.284 Z" fill="#000000" fill-rule="nonzero" fill-opacity="1" /><path clip-path="url(#clip260)" d="M1838.17 136.303 L1842.43 136.303 L1842.43 162.229 L1838.17 162.229 L1838.17 136.303 M1838.17 126.21 L1842.43 126.21 L1842.43 131.604 L1838.17 131.604 L1838.17 126.21 Z" fill="#000000" fill-rule="nonzero" fill-opacity="1" /><path clip-path="url(#clip260)" d="M1868.4 148.965 Q1868.4 144.335 1866.48 141.789 Q1864.58 139.243 1861.13 139.243 Q1857.71 139.243 1855.78 141.789 Q1853.89 144.335 1853.89 148.965 Q1853.89 153.571 1855.78 156.118 Q1857.71 158.664 1861.13 158.664 Q1864.58 158.664 1866.48 156.118 Q1868.4 153.571 1868.4 148.965 M1872.66 159.011 Q1872.66 165.631 1869.72 168.849 Q1866.78 172.09 1860.71 172.09 Q1858.47 172.09 1856.48 171.742 Q1854.49 171.418 1852.61 170.724 L1852.61 166.58 Q1854.49 167.599 1856.32 168.085 Q1858.15 168.571 1860.04 168.571 Q1864.23 168.571 1866.32 166.372 Q1868.4 164.196 1868.4 159.775 L1868.4 157.668 Q1867.08 159.96 1865.02 161.094 Q1862.96 162.229 1860.09 162.229 Q1855.32 162.229 1852.4 158.594 Q1849.49 154.96 1849.49 148.965 Q1849.49 142.946 1852.4 139.312 Q1855.32 135.678 1860.09 135.678 Q1862.96 135.678 1865.02 136.812 Q1867.08 137.946 1868.4 140.238 L1868.4 136.303 L1872.66 136.303 L1872.66 159.011 Z" fill="#000000" fill-rule="nonzero" fill-opacity="1" /><path clip-path="url(#clip260)" d="M1881.43 136.303 L1885.69 136.303 L1885.69 162.229 L1881.43 162.229 L1881.43 136.303 M1881.43 126.21 L1885.69 126.21 L1885.69 131.604 L1881.43 131.604 L1881.43 126.21 Z" fill="#000000" fill-rule="nonzero" fill-opacity="1" /><path clip-path="url(#clip260)" d="M1916.15 146.581 L1916.15 162.229 L1911.9 162.229 L1911.9 146.719 Q1911.9 143.039 1910.46 141.21 Q1909.02 139.382 1906.15 139.382 Q1902.71 139.382 1900.71 141.581 Q1898.72 143.78 1898.72 147.576 L1898.72 162.229 L1894.44 162.229 L1894.44 136.303 L1898.72 136.303 L1898.72 140.331 Q1900.25 137.993 1902.31 136.835 Q1904.4 135.678 1907.1 135.678 Q1911.57 135.678 1913.86 138.456 Q1916.15 141.21 1916.15 146.581 Z" fill="#000000" fill-rule="nonzero" fill-opacity="1" /><path clip-path="url(#clip260)" d="M1936.43 149.196 Q1931.27 149.196 1929.28 150.377 Q1927.29 151.557 1927.29 154.405 Q1927.29 156.673 1928.77 158.016 Q1930.27 159.335 1932.84 159.335 Q1936.39 159.335 1938.52 156.835 Q1940.67 154.312 1940.67 150.145 L1940.67 149.196 L1936.43 149.196 M1944.93 147.437 L1944.93 162.229 L1940.67 162.229 L1940.67 158.293 Q1939.21 160.655 1937.03 161.789 Q1934.86 162.9 1931.71 162.9 Q1927.73 162.9 1925.37 160.678 Q1923.03 158.432 1923.03 154.682 Q1923.03 150.307 1925.95 148.085 Q1928.89 145.863 1934.7 145.863 L1940.67 145.863 L1940.67 145.446 Q1940.67 142.507 1938.72 140.909 Q1936.8 139.289 1933.31 139.289 Q1931.08 139.289 1928.98 139.821 Q1926.87 140.354 1924.93 141.419 L1924.93 137.483 Q1927.27 136.581 1929.46 136.141 Q1931.66 135.678 1933.75 135.678 Q1939.37 135.678 1942.15 138.594 Q1944.93 141.511 1944.93 147.437 Z" fill="#000000" fill-rule="nonzero" fill-opacity="1" /><path clip-path="url(#clip260)" d="M1953.7 126.21 L1957.96 126.21 L1957.96 162.229 L1953.7 162.229 L1953.7 126.21 Z" fill="#000000" fill-rule="nonzero" fill-opacity="1" /><path clip-path="url(#clip260)" d="M1999 140.238 L1999 126.21 L2003.26 126.21 L2003.26 162.229 L1999 162.229 L1999 158.34 Q1997.66 160.655 1995.6 161.789 Q1993.56 162.9 1990.69 162.9 Q1985.99 162.9 1983.03 159.15 Q1980.09 155.4 1980.09 149.289 Q1980.09 143.178 1983.03 139.428 Q1985.99 135.678 1990.69 135.678 Q1993.56 135.678 1995.6 136.812 Q1997.66 137.923 1999 140.238 M1984.49 149.289 Q1984.49 153.988 1986.41 156.673 Q1988.35 159.335 1991.73 159.335 Q1995.11 159.335 1997.06 156.673 Q1999 153.988 1999 149.289 Q1999 144.59 1997.06 141.928 Q1995.11 139.243 1991.73 139.243 Q1988.35 139.243 1986.41 141.928 Q1984.49 144.59 1984.49 149.289 Z" fill="#000000" fill-rule="nonzero" fill-opacity="1" /><path clip-path="url(#clip260)" d="M2023.82 149.196 Q2018.65 149.196 2016.66 150.377 Q2014.67 151.557 2014.67 154.405 Q2014.67 156.673 2016.15 158.016 Q2017.66 159.335 2020.23 159.335 Q2023.77 159.335 2025.9 156.835 Q2028.05 154.312 2028.05 150.145 L2028.05 149.196 L2023.82 149.196 M2032.31 147.437 L2032.31 162.229 L2028.05 162.229 L2028.05 158.293 Q2026.59 160.655 2024.42 161.789 Q2022.24 162.9 2019.09 162.9 Q2015.11 162.9 2012.75 160.678 Q2010.41 158.432 2010.41 154.682 Q2010.41 150.307 2013.33 148.085 Q2016.27 145.863 2022.08 145.863 L2028.05 145.863 L2028.05 145.446 Q2028.05 142.507 2026.11 140.909 Q2024.19 139.289 2020.69 139.289 Q2018.47 139.289 2016.36 139.821 Q2014.26 140.354 2012.31 141.419 L2012.31 137.483 Q2014.65 136.581 2016.85 136.141 Q2019.05 135.678 2021.13 135.678 Q2026.76 135.678 2029.53 138.594 Q2032.31 141.511 2032.31 147.437 Z" fill="#000000" fill-rule="nonzero" fill-opacity="1" /><path clip-path="url(#clip260)" d="M2045.3 128.942 L2045.3 136.303 L2054.07 136.303 L2054.07 139.613 L2045.3 139.613 L2045.3 153.687 Q2045.3 156.858 2046.15 157.761 Q2047.03 158.664 2049.7 158.664 L2054.07 158.664 L2054.07 162.229 L2049.7 162.229 Q2044.76 162.229 2042.89 160.4 Q2041.01 158.548 2041.01 153.687 L2041.01 139.613 L2037.89 139.613 L2037.89 136.303 L2041.01 136.303 L2041.01 128.942 L2045.3 128.942 Z" fill="#000000" fill-rule="nonzero" fill-opacity="1" /><path clip-path="url(#clip260)" d="M2071.45 149.196 Q2066.29 149.196 2064.3 150.377 Q2062.31 151.557 2062.31 154.405 Q2062.31 156.673 2063.79 158.016 Q2065.3 159.335 2067.87 159.335 Q2071.41 159.335 2073.54 156.835 Q2075.69 154.312 2075.69 150.145 L2075.69 149.196 L2071.45 149.196 M2079.95 147.437 L2079.95 162.229 L2075.69 162.229 L2075.69 158.293 Q2074.23 160.655 2072.06 161.789 Q2069.88 162.9 2066.73 162.9 Q2062.75 162.9 2060.39 160.678 Q2058.05 158.432 2058.05 154.682 Q2058.05 150.307 2060.97 148.085 Q2063.91 145.863 2069.72 145.863 L2075.69 145.863 L2075.69 145.446 Q2075.69 142.507 2073.75 140.909 Q2071.82 139.289 2068.33 139.289 Q2066.11 139.289 2064 139.821 Q2061.89 140.354 2059.95 141.419 L2059.95 137.483 Q2062.29 136.581 2064.49 136.141 Q2066.69 135.678 2068.77 135.678 Q2074.39 135.678 2077.17 138.594 Q2079.95 141.511 2079.95 147.437 Z" fill="#000000" fill-rule="nonzero" fill-opacity="1" /><circle clip-path="url(#clip260)" cx="1687.42" cy="196.789" r="20.48" fill="#e26f46" fill-rule="evenodd" fill-opacity="1" stroke="#000000" stroke-opacity="1" stroke-width="4.55111"/>
<path clip-path="url(#clip260)" d="M1784.23 183.351 L1784.23 210.226 L1789.88 210.226 Q1797.03 210.226 1800.34 206.985 Q1803.68 203.745 1803.68 196.754 Q1803.68 189.809 1800.34 186.592 Q1797.03 183.351 1789.88 183.351 L1784.23 183.351 M1779.56 179.509 L1789.16 179.509 Q1799.21 179.509 1803.91 183.698 Q1808.61 187.865 1808.61 196.754 Q1808.61 205.689 1803.89 209.879 Q1799.16 214.069 1789.16 214.069 L1779.56 214.069 L1779.56 179.509 Z" fill="#000000" fill-rule="nonzero" fill-opacity="1" /><path clip-path="url(#clip260)" d="M1827.66 201.036 Q1822.5 201.036 1820.51 202.217 Q1818.52 203.397 1818.52 206.245 Q1818.52 208.513 1820 209.856 Q1821.5 211.175 1824.07 211.175 Q1827.61 211.175 1829.74 208.675 Q1831.9 206.152 1831.9 201.985 L1831.9 201.036 L1827.66 201.036 M1836.15 199.277 L1836.15 214.069 L1831.9 214.069 L1831.9 210.133 Q1830.44 212.495 1828.26 213.629 Q1826.09 214.74 1822.94 214.74 Q1818.96 214.74 1816.59 212.518 Q1814.26 210.272 1814.26 206.522 Q1814.26 202.147 1817.17 199.925 Q1820.11 197.703 1825.92 197.703 L1831.9 197.703 L1831.9 197.286 Q1831.9 194.347 1829.95 192.749 Q1828.03 191.129 1824.53 191.129 Q1822.31 191.129 1820.21 191.661 Q1818.1 192.194 1816.16 193.259 L1816.16 189.323 Q1818.49 188.421 1820.69 187.981 Q1822.89 187.518 1824.97 187.518 Q1830.6 187.518 1833.38 190.434 Q1836.15 193.351 1836.15 199.277 Z" fill="#000000" fill-rule="nonzero" fill-opacity="1" /><path clip-path="url(#clip260)" d="M1849.14 180.782 L1849.14 188.143 L1857.91 188.143 L1857.91 191.453 L1849.14 191.453 L1849.14 205.527 Q1849.14 208.698 1850 209.601 Q1850.88 210.504 1853.54 210.504 L1857.91 210.504 L1857.91 214.069 L1853.54 214.069 Q1848.61 214.069 1846.73 212.24 Q1844.86 210.388 1844.86 205.527 L1844.86 191.453 L1841.73 191.453 L1841.73 188.143 L1844.86 188.143 L1844.86 180.782 L1849.14 180.782 Z" fill="#000000" fill-rule="nonzero" fill-opacity="1" /><path clip-path="url(#clip260)" d="M1875.3 201.036 Q1870.14 201.036 1868.15 202.217 Q1866.15 203.397 1866.15 206.245 Q1866.15 208.513 1867.64 209.856 Q1869.14 211.175 1871.71 211.175 Q1875.25 211.175 1877.38 208.675 Q1879.53 206.152 1879.53 201.985 L1879.53 201.036 L1875.3 201.036 M1883.79 199.277 L1883.79 214.069 L1879.53 214.069 L1879.53 210.133 Q1878.08 212.495 1875.9 213.629 Q1873.72 214.74 1870.58 214.74 Q1866.59 214.74 1864.23 212.518 Q1861.9 210.272 1861.9 206.522 Q1861.9 202.147 1864.81 199.925 Q1867.75 197.703 1873.56 197.703 L1879.53 197.703 L1879.53 197.286 Q1879.53 194.347 1877.59 192.749 Q1875.67 191.129 1872.17 191.129 Q1869.95 191.129 1867.84 191.661 Q1865.74 192.194 1863.79 193.259 L1863.79 189.323 Q1866.13 188.421 1868.33 187.981 Q1870.53 187.518 1872.61 187.518 Q1878.24 187.518 1881.02 190.434 Q1883.79 193.351 1883.79 199.277 Z" fill="#000000" fill-rule="nonzero" fill-opacity="1" /><path clip-path="url(#clip260)" d="M1919.42 201.036 Q1914.26 201.036 1912.27 202.217 Q1910.27 203.397 1910.27 206.245 Q1910.27 208.513 1911.76 209.856 Q1913.26 211.175 1915.83 211.175 Q1919.37 211.175 1921.5 208.675 Q1923.65 206.152 1923.65 201.985 L1923.65 201.036 L1919.42 201.036 M1927.91 199.277 L1927.91 214.069 L1923.65 214.069 L1923.65 210.133 Q1922.2 212.495 1920.02 213.629 Q1917.84 214.74 1914.7 214.74 Q1910.71 214.74 1908.35 212.518 Q1906.02 210.272 1906.02 206.522 Q1906.02 202.147 1908.93 199.925 Q1911.87 197.703 1917.68 197.703 L1923.65 197.703 L1923.65 197.286 Q1923.65 194.347 1921.71 192.749 Q1919.79 191.129 1916.29 191.129 Q1914.07 191.129 1911.96 191.661 Q1909.86 192.194 1907.91 193.259 L1907.91 189.323 Q1910.25 188.421 1912.45 187.981 Q1914.65 187.518 1916.73 187.518 Q1922.36 187.518 1925.14 190.434 Q1927.91 193.351 1927.91 199.277 Z" fill="#000000" fill-rule="nonzero" fill-opacity="1" /><path clip-path="url(#clip260)" d="M1949.81 178.05 L1949.81 181.592 L1945.74 181.592 Q1943.45 181.592 1942.54 182.518 Q1941.66 183.444 1941.66 185.851 L1941.66 188.143 L1948.68 188.143 L1948.68 191.453 L1941.66 191.453 L1941.66 214.069 L1937.38 214.069 L1937.38 191.453 L1933.31 191.453 L1933.31 188.143 L1937.38 188.143 L1937.38 186.337 Q1937.38 182.009 1939.4 180.041 Q1941.41 178.05 1945.78 178.05 L1949.81 178.05 Z" fill="#000000" fill-rule="nonzero" fill-opacity="1" /><path clip-path="url(#clip260)" d="M1956.76 180.782 L1956.76 188.143 L1965.53 188.143 L1965.53 191.453 L1956.76 191.453 L1956.76 205.527 Q1956.76 208.698 1957.61 209.601 Q1958.49 210.504 1961.15 210.504 L1965.53 210.504 L1965.53 214.069 L1961.15 214.069 Q1956.22 214.069 1954.35 212.24 Q1952.47 210.388 1952.47 205.527 L1952.47 191.453 L1949.35 191.453 L1949.35 188.143 L1952.47 188.143 L1952.47 180.782 L1956.76 180.782 Z" fill="#000000" fill-rule="nonzero" fill-opacity="1" /><path clip-path="url(#clip260)" d="M1993.31 200.041 L1993.31 202.124 L1973.72 202.124 Q1974 206.522 1976.36 208.837 Q1978.75 211.129 1982.98 211.129 Q1985.44 211.129 1987.73 210.527 Q1990.04 209.925 1992.31 208.721 L1992.31 212.749 Q1990.02 213.721 1987.61 214.231 Q1985.21 214.74 1982.73 214.74 Q1976.52 214.74 1972.89 211.129 Q1969.28 207.518 1969.28 201.36 Q1969.28 194.995 1972.71 191.268 Q1976.15 187.518 1981.99 187.518 Q1987.22 187.518 1990.25 190.897 Q1993.31 194.254 1993.31 200.041 M1989.05 198.791 Q1989 195.296 1987.08 193.212 Q1985.18 191.129 1982.03 191.129 Q1978.47 191.129 1976.32 193.143 Q1974.19 195.157 1973.86 198.814 L1989.05 198.791 Z" fill="#000000" fill-rule="nonzero" fill-opacity="1" /><path clip-path="url(#clip260)" d="M2015.32 192.124 Q2014.6 191.708 2013.75 191.522 Q2012.91 191.314 2011.89 191.314 Q2008.28 191.314 2006.34 193.675 Q2004.42 196.013 2004.42 200.411 L2004.42 214.069 L2000.14 214.069 L2000.14 188.143 L2004.42 188.143 L2004.42 192.171 Q2005.76 189.809 2007.91 188.675 Q2010.07 187.518 2013.14 187.518 Q2013.58 187.518 2014.12 187.587 Q2014.65 187.634 2015.3 187.749 L2015.32 192.124 Z" fill="#000000" fill-rule="nonzero" fill-opacity="1" /><path clip-path="url(#clip260)" d="M2053.51 189.138 L2053.51 193.12 Q2051.71 192.124 2049.88 191.638 Q2048.08 191.129 2046.22 191.129 Q2042.08 191.129 2039.79 193.768 Q2037.5 196.384 2037.5 201.129 Q2037.5 205.874 2039.79 208.513 Q2042.08 211.129 2046.22 211.129 Q2048.08 211.129 2049.88 210.643 Q2051.71 210.133 2053.51 209.138 L2053.51 213.073 Q2051.73 213.907 2049.81 214.323 Q2047.91 214.74 2045.76 214.74 Q2039.9 214.74 2036.45 211.059 Q2033.01 207.379 2033.01 201.129 Q2033.01 194.786 2036.48 191.152 Q2039.97 187.518 2046.04 187.518 Q2048.01 187.518 2049.88 187.935 Q2051.76 188.328 2053.51 189.138 Z" fill="#000000" fill-rule="nonzero" fill-opacity="1" /><path clip-path="url(#clip260)" d="M2060.92 178.05 L2065.18 178.05 L2065.18 214.069 L2060.92 214.069 L2060.92 178.05 Z" fill="#000000" fill-rule="nonzero" fill-opacity="1" /><path clip-path="url(#clip260)" d="M2073.65 203.837 L2073.65 188.143 L2077.91 188.143 L2077.91 203.675 Q2077.91 207.356 2079.35 209.208 Q2080.78 211.036 2083.65 211.036 Q2087.1 211.036 2089.09 208.837 Q2091.11 206.638 2091.11 202.842 L2091.11 188.143 L2095.37 188.143 L2095.37 214.069 L2091.11 214.069 L2091.11 210.087 Q2089.56 212.448 2087.5 213.606 Q2085.46 214.74 2082.75 214.74 Q2078.28 214.74 2075.97 211.962 Q2073.65 209.184 2073.65 203.837 M2084.37 187.518 L2084.37 187.518 Z" fill="#000000" fill-rule="nonzero" fill-opacity="1" /><path clip-path="url(#clip260)" d="M2120.67 188.907 L2120.67 192.934 Q2118.86 192.009 2116.92 191.546 Q2114.97 191.083 2112.89 191.083 Q2109.72 191.083 2108.12 192.055 Q2106.55 193.027 2106.55 194.971 Q2106.55 196.453 2107.68 197.309 Q2108.82 198.143 2112.24 198.907 L2113.7 199.231 Q2118.24 200.203 2120.13 201.985 Q2122.06 203.745 2122.06 206.916 Q2122.06 210.527 2119.19 212.633 Q2116.34 214.74 2111.34 214.74 Q2109.26 214.74 2106.99 214.323 Q2104.74 213.93 2102.24 213.12 L2102.24 208.721 Q2104.6 209.948 2106.89 210.573 Q2109.19 211.175 2111.43 211.175 Q2114.44 211.175 2116.06 210.157 Q2117.68 209.115 2117.68 207.24 Q2117.68 205.504 2116.5 204.578 Q2115.34 203.652 2111.38 202.796 L2109.9 202.448 Q2105.95 201.615 2104.19 199.902 Q2102.43 198.166 2102.43 195.157 Q2102.43 191.499 2105.02 189.509 Q2107.61 187.518 2112.38 187.518 Q2114.74 187.518 2116.82 187.865 Q2118.91 188.212 2120.67 188.907 Z" fill="#000000" fill-rule="nonzero" fill-opacity="1" /><path clip-path="url(#clip260)" d="M2133.05 180.782 L2133.05 188.143 L2141.82 188.143 L2141.82 191.453 L2133.05 191.453 L2133.05 205.527 Q2133.05 208.698 2133.91 209.601 Q2134.79 210.504 2137.45 210.504 L2141.82 210.504 L2141.82 214.069 L2137.45 214.069 Q2132.52 214.069 2130.64 212.24 Q2128.77 210.388 2128.77 205.527 L2128.77 191.453 L2125.64 191.453 L2125.64 188.143 L2128.77 188.143 L2128.77 180.782 L2133.05 180.782 Z" fill="#000000" fill-rule="nonzero" fill-opacity="1" /><path clip-path="url(#clip260)" d="M2169.6 200.041 L2169.6 202.124 L2150.02 202.124 Q2150.3 206.522 2152.66 208.837 Q2155.04 211.129 2159.28 211.129 Q2161.73 211.129 2164.02 210.527 Q2166.34 209.925 2168.61 208.721 L2168.61 212.749 Q2166.32 213.721 2163.91 214.231 Q2161.5 214.74 2159.02 214.74 Q2152.82 214.74 2149.19 211.129 Q2145.57 207.518 2145.57 201.36 Q2145.57 194.995 2149 191.268 Q2152.45 187.518 2158.28 187.518 Q2163.51 187.518 2166.55 190.897 Q2169.6 194.254 2169.6 200.041 M2165.34 198.791 Q2165.3 195.296 2163.38 193.212 Q2161.48 191.129 2158.33 191.129 Q2154.76 191.129 2152.61 193.143 Q2150.48 195.157 2150.16 198.814 L2165.34 198.791 Z" fill="#000000" fill-rule="nonzero" fill-opacity="1" /><path clip-path="url(#clip260)" d="M2191.62 192.124 Q2190.9 191.708 2190.04 191.522 Q2189.21 191.314 2188.19 191.314 Q2184.58 191.314 2182.63 193.675 Q2180.71 196.013 2180.71 200.411 L2180.71 214.069 L2176.43 214.069 L2176.43 188.143 L2180.71 188.143 L2180.71 192.171 Q2182.06 189.809 2184.21 188.675 Q2186.36 187.518 2189.44 187.518 Q2189.88 187.518 2190.41 187.587 Q2190.94 187.634 2191.59 187.749 L2191.62 192.124 Z" fill="#000000" fill-rule="nonzero" fill-opacity="1" /><path clip-path="url(#clip260)" d="M2196.08 188.143 L2200.34 188.143 L2200.34 214.069 L2196.08 214.069 L2196.08 188.143 M2196.08 178.05 L2200.34 178.05 L2200.34 183.444 L2196.08 183.444 L2196.08 178.05 Z" fill="#000000" fill-rule="nonzero" fill-opacity="1" /><path clip-path="url(#clip260)" d="M2230.81 198.421 L2230.81 214.069 L2226.55 214.069 L2226.55 198.559 Q2226.55 194.879 2225.11 193.05 Q2223.68 191.222 2220.81 191.222 Q2217.36 191.222 2215.37 193.421 Q2213.38 195.62 2213.38 199.416 L2213.38 214.069 L2209.09 214.069 L2209.09 188.143 L2213.38 188.143 L2213.38 192.171 Q2214.9 189.833 2216.96 188.675 Q2219.05 187.518 2221.75 187.518 Q2226.22 187.518 2228.51 190.296 Q2230.81 193.05 2230.81 198.421 Z" fill="#000000" fill-rule="nonzero" fill-opacity="1" /><path clip-path="url(#clip260)" d="M2256.36 200.805 Q2256.36 196.175 2254.44 193.629 Q2252.54 191.083 2249.09 191.083 Q2245.67 191.083 2243.75 193.629 Q2241.85 196.175 2241.85 200.805 Q2241.85 205.411 2243.75 207.958 Q2245.67 210.504 2249.09 210.504 Q2252.54 210.504 2254.44 207.958 Q2256.36 205.411 2256.36 200.805 M2260.62 210.851 Q2260.62 217.471 2257.68 220.689 Q2254.74 223.93 2248.68 223.93 Q2246.43 223.93 2244.44 223.582 Q2242.45 223.258 2240.57 222.564 L2240.57 218.42 Q2242.45 219.439 2244.28 219.925 Q2246.11 220.411 2248 220.411 Q2252.19 220.411 2254.28 218.212 Q2256.36 216.036 2256.36 211.615 L2256.36 209.508 Q2255.04 211.8 2252.98 212.934 Q2250.92 214.069 2248.05 214.069 Q2243.28 214.069 2240.37 210.434 Q2237.45 206.8 2237.45 200.805 Q2237.45 194.786 2240.37 191.152 Q2243.28 187.518 2248.05 187.518 Q2250.92 187.518 2252.98 188.652 Q2255.04 189.786 2256.36 192.078 L2256.36 188.143 L2260.62 188.143 L2260.62 210.851 Z" fill="#000000" fill-rule="nonzero" fill-opacity="1" /></svg>
