<?xml version="1.0" encoding="utf-8"?>
<svg xmlns="http://www.w3.org/2000/svg" xmlns:xlink="http://www.w3.org/1999/xlink" width="600" height="400" viewBox="0 0 2400 1600">
<defs>
  <clipPath id="clip440">
    <rect x="0" y="0" width="2400" height="1600"/>
  </clipPath>
</defs>
<path clip-path="url(#clip440)" d="M0 1600 L2400 1600 L2400 0 L0 0  Z" fill="#ffffff" fill-rule="evenodd" fill-opacity="1"/>
<defs>
  <clipPath id="clip441">
    <rect x="480" y="0" width="1681" height="1600"/>
  </clipPath>
</defs>
<path clip-path="url(#clip440)" d="M112.177 1486.45 L2352.76 1486.45 L2352.76 47.2441 L112.177 47.2441  Z" fill="#ffffff" fill-rule="evenodd" fill-opacity="1"/>
<defs>
  <clipPath id="clip442">
    <rect x="112" y="47" width="2242" height="1440"/>
  </clipPath>
</defs>
<polyline clip-path="url(#clip440)" style="stroke:#000000; stroke-linecap:round; stroke-linejoin:round; stroke-width:4; stroke-opacity:1; fill:none" points="112.177,1486.45 2352.76,1486.45 "/>
<polyline clip-path="url(#clip440)" style="stroke:#ffffff; stroke-linecap:round; stroke-linejoin:round; stroke-width:4; stroke-opacity:1; fill:none" points="224.206,1486.45 224.206,1467.55 "/>
<polyline clip-path="url(#clip440)" style="stroke:#ffffff; stroke-linecap:round; stroke-linejoin:round; stroke-width:4; stroke-opacity:1; fill:none" points="448.264,1486.45 448.264,1467.55 "/>
<polyline clip-path="url(#clip440)" style="stroke:#ffffff; stroke-linecap:round; stroke-linejoin:round; stroke-width:4; stroke-opacity:1; fill:none" points="672.322,1486.45 672.322,1467.55 "/>
<polyline clip-path="url(#clip440)" style="stroke:#ffffff; stroke-linecap:round; stroke-linejoin:round; stroke-width:4; stroke-opacity:1; fill:none" points="896.38,1486.45 896.38,1467.55 "/>
<polyline clip-path="url(#clip440)" style="stroke:#ffffff; stroke-linecap:round; stroke-linejoin:round; stroke-width:4; stroke-opacity:1; fill:none" points="1120.44,1486.45 1120.44,1467.55 "/>
<polyline clip-path="url(#clip440)" style="stroke:#ffffff; stroke-linecap:round; stroke-linejoin:round; stroke-width:4; stroke-opacity:1; fill:none" points="1344.5,1486.45 1344.5,1467.55 "/>
<polyline clip-path="url(#clip440)" style="stroke:#ffffff; stroke-linecap:round; stroke-linejoin:round; stroke-width:4; stroke-opacity:1; fill:none" points="1568.55,1486.45 1568.55,1467.55 "/>
<polyline clip-path="url(#clip440)" style="stroke:#ffffff; stroke-linecap:round; stroke-linejoin:round; stroke-width:4; stroke-opacity:1; fill:none" points="1792.61,1486.45 1792.61,1467.55 "/>
<polyline clip-path="url(#clip440)" style="stroke:#ffffff; stroke-linecap:round; stroke-linejoin:round; stroke-width:4; stroke-opacity:1; fill:none" points="2016.67,1486.45 2016.67,1467.55 "/>
<polyline clip-path="url(#clip440)" style="stroke:#ffffff; stroke-linecap:round; stroke-linejoin:round; stroke-width:4; stroke-opacity:1; fill:none" points="2240.73,1486.45 2240.73,1467.55 "/>
<path clip-path="url(#clip440)" d="M224.206 1532.44 Q220.873 1532.44 218.952 1534.22 Q217.053 1536 217.053 1539.13 Q217.053 1542.25 218.952 1544.03 Q220.873 1545.82 224.206 1545.82 Q227.539 1545.82 229.461 1544.03 Q231.382 1542.23 231.382 1539.13 Q231.382 1536 229.461 1534.22 Q227.563 1532.44 224.206 1532.44 M219.53 1530.45 Q216.521 1529.7 214.831 1527.64 Q213.165 1525.58 213.165 1522.62 Q213.165 1518.48 216.104 1516.07 Q219.067 1513.66 224.206 1513.66 Q229.368 1513.66 232.308 1516.07 Q235.248 1518.48 235.248 1522.62 Q235.248 1525.58 233.558 1527.64 Q231.891 1529.7 228.905 1530.45 Q232.285 1531.23 234.16 1533.52 Q236.058 1535.82 236.058 1539.13 Q236.058 1544.15 232.979 1546.83 Q229.924 1549.52 224.206 1549.52 Q218.489 1549.52 215.41 1546.83 Q212.354 1544.15 212.354 1539.13 Q212.354 1535.82 214.252 1533.52 Q216.151 1531.23 219.53 1530.45 M217.817 1523.06 Q217.817 1525.75 219.484 1527.25 Q221.174 1528.76 224.206 1528.76 Q227.215 1528.76 228.905 1527.25 Q230.618 1525.75 230.618 1523.06 Q230.618 1520.38 228.905 1518.87 Q227.215 1517.37 224.206 1517.37 Q221.174 1517.37 219.484 1518.87 Q217.817 1520.38 217.817 1523.06 Z" fill="#000000" fill-rule="nonzero" fill-opacity="1" /><path clip-path="url(#clip440)" d="M442.917 1544.91 L459.236 1544.91 L459.236 1548.85 L437.292 1548.85 L437.292 1544.91 Q439.954 1542.16 444.537 1537.53 Q449.144 1532.88 450.324 1531.53 Q452.57 1529.01 453.449 1527.27 Q454.352 1525.51 454.352 1523.82 Q454.352 1521.07 452.407 1519.33 Q450.486 1517.6 447.384 1517.6 Q445.185 1517.6 442.732 1518.36 Q440.301 1519.13 437.523 1520.68 L437.523 1515.95 Q440.347 1514.82 442.801 1514.24 Q445.255 1513.66 447.292 1513.66 Q452.662 1513.66 455.857 1516.35 Q459.051 1519.03 459.051 1523.52 Q459.051 1525.65 458.241 1527.57 Q457.454 1529.47 455.347 1532.07 Q454.769 1532.74 451.667 1535.95 Q448.565 1539.15 442.917 1544.91 Z" fill="#000000" fill-rule="nonzero" fill-opacity="1" /><path clip-path="url(#clip440)" d="M675.331 1518.36 L663.526 1536.81 L675.331 1536.81 L675.331 1518.36 M674.104 1514.29 L679.984 1514.29 L679.984 1536.81 L684.914 1536.81 L684.914 1540.7 L679.984 1540.7 L679.984 1548.85 L675.331 1548.85 L675.331 1540.7 L659.729 1540.7 L659.729 1536.19 L674.104 1514.29 Z" fill="#000000" fill-rule="nonzero" fill-opacity="1" /><path clip-path="url(#clip440)" d="M900.627 1530.21 Q903.984 1530.93 905.859 1533.2 Q907.757 1535.47 907.757 1538.8 Q907.757 1543.92 904.238 1546.72 Q900.72 1549.52 894.239 1549.52 Q892.063 1549.52 889.748 1549.08 Q887.456 1548.66 885.002 1547.81 L885.002 1543.29 Q886.947 1544.43 889.262 1545.01 Q891.577 1545.58 894.1 1545.58 Q898.498 1545.58 900.789 1543.85 Q903.104 1542.11 903.104 1538.8 Q903.104 1535.75 900.951 1534.03 Q898.822 1532.3 895.002 1532.3 L890.975 1532.3 L890.975 1528.45 L895.188 1528.45 Q898.637 1528.45 900.465 1527.09 Q902.294 1525.7 902.294 1523.11 Q902.294 1520.45 900.396 1519.03 Q898.521 1517.6 895.002 1517.6 Q893.081 1517.6 890.882 1518.01 Q888.683 1518.43 886.044 1519.31 L886.044 1515.14 Q888.706 1514.4 891.021 1514.03 Q893.359 1513.66 895.419 1513.66 Q900.743 1513.66 903.845 1516.09 Q906.947 1518.5 906.947 1522.62 Q906.947 1525.49 905.303 1527.48 Q903.66 1529.45 900.627 1530.21 Z" fill="#000000" fill-rule="nonzero" fill-opacity="1" /><path clip-path="url(#clip440)" d="M1110.82 1544.91 L1118.46 1544.91 L1118.46 1518.55 L1110.15 1520.21 L1110.15 1515.95 L1118.41 1514.29 L1123.09 1514.29 L1123.09 1544.91 L1130.73 1544.91 L1130.73 1548.85 L1110.82 1548.85 L1110.82 1544.91 Z" fill="#000000" fill-rule="nonzero" fill-opacity="1" /><path clip-path="url(#clip440)" d="M1334.77 1514.29 L1353.13 1514.29 L1353.13 1518.22 L1339.06 1518.22 L1339.06 1526.7 Q1340.07 1526.35 1341.09 1526.19 Q1342.11 1526 1343.13 1526 Q1348.92 1526 1352.3 1529.17 Q1355.68 1532.34 1355.68 1537.76 Q1355.68 1543.34 1352.2 1546.44 Q1348.73 1549.52 1342.41 1549.52 Q1340.24 1549.52 1337.97 1549.15 Q1335.72 1548.78 1333.31 1548.04 L1333.31 1543.34 Q1335.4 1544.47 1337.62 1545.03 Q1339.84 1545.58 1342.32 1545.58 Q1346.32 1545.58 1348.66 1543.48 Q1351 1541.37 1351 1537.76 Q1351 1534.15 1348.66 1532.04 Q1346.32 1529.94 1342.32 1529.94 Q1340.44 1529.94 1338.57 1530.35 Q1336.72 1530.77 1334.77 1531.65 L1334.77 1514.29 Z" fill="#000000" fill-rule="nonzero" fill-opacity="1" /><path clip-path="url(#clip440)" d="M1558.85 1548.13 L1558.85 1543.87 Q1560.61 1544.7 1562.42 1545.14 Q1564.22 1545.58 1565.96 1545.58 Q1570.59 1545.58 1573.02 1542.48 Q1575.47 1539.36 1575.82 1533.01 Q1574.48 1535.01 1572.42 1536.07 Q1570.36 1537.13 1567.86 1537.13 Q1562.67 1537.13 1559.64 1534.01 Q1556.63 1530.86 1556.63 1525.42 Q1556.63 1520.1 1559.78 1516.88 Q1562.93 1513.66 1568.16 1513.66 Q1574.16 1513.66 1577.3 1518.27 Q1580.47 1522.85 1580.47 1531.6 Q1580.47 1539.77 1576.59 1544.66 Q1572.72 1549.52 1566.17 1549.52 Q1564.41 1549.52 1562.6 1549.17 Q1560.8 1548.82 1558.85 1548.13 M1568.16 1533.48 Q1571.31 1533.48 1573.14 1531.32 Q1574.99 1529.17 1574.99 1525.42 Q1574.99 1521.7 1573.14 1519.54 Q1571.31 1517.37 1568.16 1517.37 Q1565.01 1517.37 1563.16 1519.54 Q1561.33 1521.7 1561.33 1525.42 Q1561.33 1529.17 1563.16 1531.32 Q1565.01 1533.48 1568.16 1533.48 Z" fill="#000000" fill-rule="nonzero" fill-opacity="1" /><path clip-path="url(#clip440)" d="M1781.5 1514.29 L1803.72 1514.29 L1803.72 1516.28 L1791.18 1548.85 L1786.29 1548.85 L1798.1 1518.22 L1781.5 1518.22 L1781.5 1514.29 Z" fill="#000000" fill-rule="nonzero" fill-opacity="1" /><path clip-path="url(#clip440)" d="M2017.07 1529.7 Q2013.93 1529.7 2012.07 1531.86 Q2010.25 1534.01 2010.25 1537.76 Q2010.25 1541.49 2012.07 1543.66 Q2013.93 1545.82 2017.07 1545.82 Q2020.22 1545.82 2022.05 1543.66 Q2023.9 1541.49 2023.9 1537.76 Q2023.9 1534.01 2022.05 1531.86 Q2020.22 1529.7 2017.07 1529.7 M2026.36 1515.05 L2026.36 1519.31 Q2024.6 1518.48 2022.79 1518.04 Q2021.01 1517.6 2019.25 1517.6 Q2014.62 1517.6 2012.17 1520.72 Q2009.74 1523.85 2009.39 1530.17 Q2010.75 1528.15 2012.81 1527.09 Q2014.88 1526 2017.35 1526 Q2022.56 1526 2025.57 1529.17 Q2028.6 1532.32 2028.6 1537.76 Q2028.6 1543.08 2025.45 1546.3 Q2022.31 1549.52 2017.07 1549.52 Q2011.08 1549.52 2007.91 1544.94 Q2004.74 1540.33 2004.74 1531.6 Q2004.74 1523.41 2008.63 1518.55 Q2012.51 1513.66 2019.06 1513.66 Q2020.82 1513.66 2022.61 1514.01 Q2024.41 1514.36 2026.36 1515.05 Z" fill="#000000" fill-rule="nonzero" fill-opacity="1" /><path clip-path="url(#clip440)" d="M2215.41 1544.91 L2223.05 1544.91 L2223.05 1518.55 L2214.74 1520.21 L2214.74 1515.95 L2223.01 1514.29 L2227.68 1514.29 L2227.68 1544.91 L2235.32 1544.91 L2235.32 1548.85 L2215.41 1548.85 L2215.41 1544.91 Z" fill="#000000" fill-rule="nonzero" fill-opacity="1" /><path clip-path="url(#clip440)" d="M2254.77 1517.37 Q2251.16 1517.37 2249.33 1520.93 Q2247.52 1524.47 2247.52 1531.6 Q2247.52 1538.71 2249.33 1542.27 Q2251.16 1545.82 2254.77 1545.82 Q2258.4 1545.82 2260.21 1542.27 Q2262.03 1538.71 2262.03 1531.6 Q2262.03 1524.47 2260.21 1520.93 Q2258.4 1517.37 2254.77 1517.37 M2254.77 1513.66 Q2260.58 1513.66 2263.63 1518.27 Q2266.71 1522.85 2266.71 1531.6 Q2266.71 1540.33 2263.63 1544.94 Q2260.58 1549.52 2254.77 1549.52 Q2248.96 1549.52 2245.88 1544.94 Q2242.82 1540.33 2242.82 1531.6 Q2242.82 1522.85 2245.88 1518.27 Q2248.96 1513.66 2254.77 1513.66 Z" fill="#000000" fill-rule="nonzero" fill-opacity="1" /><polyline clip-path="url(#clip442)" style="stroke:#000000; stroke-linecap:round; stroke-linejoin:round; stroke-width:2; stroke-opacity:0.1; fill:none" points="112.177,1486.45 2352.76,1486.45 "/>
<polyline clip-path="url(#clip442)" style="stroke:#000000; stroke-linecap:round; stroke-linejoin:round; stroke-width:2; stroke-opacity:0.1; fill:none" points="112.177,1093.17 2352.76,1093.17 "/>
<polyline clip-path="url(#clip442)" style="stroke:#000000; stroke-linecap:round; stroke-linejoin:round; stroke-width:2; stroke-opacity:0.1; fill:none" points="112.177,699.898 2352.76,699.898 "/>
<polyline clip-path="url(#clip442)" style="stroke:#000000; stroke-linecap:round; stroke-linejoin:round; stroke-width:2; stroke-opacity:0.1; fill:none" points="112.177,306.622 2352.76,306.622 "/>
<polyline clip-path="url(#clip440)" style="stroke:#000000; stroke-linecap:round; stroke-linejoin:round; stroke-width:4; stroke-opacity:1; fill:none" points="112.177,1486.45 112.177,47.2441 "/>
<polyline clip-path="url(#clip440)" style="stroke:#000000; stroke-linecap:round; stroke-linejoin:round; stroke-width:4; stroke-opacity:1; fill:none" points="112.177,1486.45 131.075,1486.45 "/>
<polyline clip-path="url(#clip440)" style="stroke:#000000; stroke-linecap:round; stroke-linejoin:round; stroke-width:4; stroke-opacity:1; fill:none" points="112.177,1093.17 131.075,1093.17 "/>
<polyline clip-path="url(#clip440)" style="stroke:#000000; stroke-linecap:round; stroke-linejoin:round; stroke-width:4; stroke-opacity:1; fill:none" points="112.177,699.898 131.075,699.898 "/>
<polyline clip-path="url(#clip440)" style="stroke:#000000; stroke-linecap:round; stroke-linejoin:round; stroke-width:4; stroke-opacity:1; fill:none" points="112.177,306.622 131.075,306.622 "/>
<path clip-path="url(#clip440)" d="M64.2328 1472.25 Q60.6217 1472.25 58.793 1475.81 Q56.9875 1479.35 56.9875 1486.48 Q56.9875 1493.59 58.793 1497.15 Q60.6217 1500.7 64.2328 1500.7 Q67.867 1500.7 69.6726 1497.15 Q71.5013 1493.59 71.5013 1486.48 Q71.5013 1479.35 69.6726 1475.81 Q67.867 1472.25 64.2328 1472.25 M64.2328 1468.54 Q70.0429 1468.54 73.0985 1473.15 Q76.1772 1477.73 76.1772 1486.48 Q76.1772 1495.21 73.0985 1499.82 Q70.0429 1504.4 64.2328 1504.4 Q58.4226 1504.4 55.344 1499.82 Q52.2884 1495.21 52.2884 1486.48 Q52.2884 1477.73 55.344 1473.15 Q58.4226 1468.54 64.2328 1468.54 Z" fill="#000000" fill-rule="nonzero" fill-opacity="1" /><path clip-path="url(#clip440)" d="M59.8578 1106.52 L76.1772 1106.52 L76.1772 1110.45 L54.2328 1110.45 L54.2328 1106.52 Q56.8949 1103.76 61.4782 1099.13 Q66.0846 1094.48 67.2652 1093.14 Q69.5105 1090.61 70.3902 1088.88 Q71.2929 1087.12 71.2929 1085.43 Q71.2929 1082.68 69.3485 1080.94 Q67.4272 1079.2 64.3254 1079.2 Q62.1263 1079.2 59.6726 1079.97 Q57.2421 1080.73 54.4643 1082.28 L54.4643 1077.56 Q57.2884 1076.43 59.7421 1075.85 Q62.1958 1075.27 64.2328 1075.27 Q69.6031 1075.27 72.7976 1077.95 Q75.992 1080.64 75.992 1085.13 Q75.992 1087.26 75.1818 1089.18 Q74.3948 1091.08 72.2883 1093.67 Q71.7096 1094.34 68.6078 1097.56 Q65.5059 1100.75 59.8578 1106.52 Z" fill="#000000" fill-rule="nonzero" fill-opacity="1" /><path clip-path="url(#clip440)" d="M66.5939 686.692 L54.7884 705.141 L66.5939 705.141 L66.5939 686.692 M65.367 682.618 L71.2466 682.618 L71.2466 705.141 L76.1772 705.141 L76.1772 709.029 L71.2466 709.029 L71.2466 717.178 L66.5939 717.178 L66.5939 709.029 L50.9921 709.029 L50.9921 704.516 L65.367 682.618 Z" fill="#000000" fill-rule="nonzero" fill-opacity="1" /><path clip-path="url(#clip440)" d="M64.6495 304.759 Q61.5013 304.759 59.6495 306.912 Q57.8208 309.065 57.8208 312.815 Q57.8208 316.541 59.6495 318.717 Q61.5013 320.87 64.6495 320.87 Q67.7976 320.87 69.6263 318.717 Q71.4781 316.541 71.4781 312.815 Q71.4781 309.065 69.6263 306.912 Q67.7976 304.759 64.6495 304.759 M73.9318 290.106 L73.9318 294.366 Q72.1726 293.532 70.367 293.092 Q68.5846 292.653 66.8254 292.653 Q62.1958 292.653 59.7421 295.778 Q57.3115 298.903 56.9643 305.222 Q58.33 303.208 60.3902 302.143 Q62.4504 301.055 64.9272 301.055 Q70.1355 301.055 73.1448 304.227 Q76.1772 307.375 76.1772 312.815 Q76.1772 318.139 73.029 321.356 Q69.8809 324.574 64.6495 324.574 Q58.6541 324.574 55.4828 319.99 Q52.3116 315.384 52.3116 306.657 Q52.3116 298.463 56.2004 293.602 Q60.0893 288.717 66.6402 288.717 Q68.3994 288.717 70.1818 289.065 Q71.9874 289.412 73.9318 290.106 Z" fill="#000000" fill-rule="nonzero" fill-opacity="1" /><polyline clip-path="url(#clip442)" style="stroke:#000000; stroke-linecap:round; stroke-linejoin:round; stroke-width:4; stroke-opacity:1; fill:none" points="1120.44,1486.45 1120.44,1429.6 1344.5,1429.6 1344.5,1486.45 "/>
<polyline clip-path="url(#clip442)" style="stroke:#000000; stroke-linecap:round; stroke-linejoin:round; stroke-width:4; stroke-opacity:1; fill:none" points="896.38,1486.45 896.38,1376.31 1232.47,1376.31 1232.47,1429.6 "/>
<polyline clip-path="url(#clip442)" style="stroke:#000000; stroke-linecap:round; stroke-linejoin:round; stroke-width:4; stroke-opacity:1; fill:none" points="2016.67,1486.45 2016.67,1350.96 2240.73,1350.96 2240.73,1486.45 "/>
<polyline clip-path="url(#clip442)" style="stroke:#000000; stroke-linecap:round; stroke-linejoin:round; stroke-width:4; stroke-opacity:1; fill:none" points="672.322,1486.45 672.322,1319.02 1064.42,1319.02 1064.42,1376.31 "/>
<polyline clip-path="url(#clip442)" style="stroke:#000000; stroke-linecap:round; stroke-linejoin:round; stroke-width:4; stroke-opacity:1; fill:none" points="1792.61,1486.45 1792.61,1210.17 2128.7,1210.17 2128.7,1350.96 "/>
<polyline clip-path="url(#clip442)" style="stroke:#000000; stroke-linecap:round; stroke-linejoin:round; stroke-width:4; stroke-opacity:1; fill:none" points="448.264,1486.45 448.264,969.097 868.372,969.097 868.372,1319.02 "/>
<polyline clip-path="url(#clip442)" style="stroke:#000000; stroke-linecap:round; stroke-linejoin:round; stroke-width:4; stroke-opacity:1; fill:none" points="1568.55,1486.45 1568.55,947.486 1960.65,947.486 1960.65,1210.17 "/>
<polyline clip-path="url(#clip442)" style="stroke:#000000; stroke-linecap:round; stroke-linejoin:round; stroke-width:4; stroke-opacity:1; fill:none" points="658.318,969.097 658.318,554.011 1764.6,554.011 1764.6,947.486 "/>
<polyline clip-path="url(#clip442)" style="stroke:#000000; stroke-linecap:round; stroke-linejoin:round; stroke-width:4; stroke-opacity:1; fill:none" points="224.206,1486.45 224.206,47.2441 1211.46,47.2441 1211.46,554.011 "/>
</svg>
