<?xml version="1.0" encoding="utf-8"?>
<svg xmlns="http://www.w3.org/2000/svg" xmlns:xlink="http://www.w3.org/1999/xlink" width="600" height="400" viewBox="0 0 2400 1600">
<defs>
  <clipPath id="clip570">
    <rect x="0" y="0" width="2400" height="1600"/>
  </clipPath>
</defs>
<path clip-path="url(#clip570)" d="M0 1600 L2400 1600 L2400 0 L0 0  Z" fill="#ffffff" fill-rule="evenodd" fill-opacity="1"/>
<defs>
  <clipPath id="clip571">
    <rect x="480" y="0" width="1681" height="1600"/>
  </clipPath>
</defs>
<path clip-path="url(#clip570)" d="M247.459 1423.18 L2352.76 1423.18 L2352.76 47.2441 L247.459 47.2441  Z" fill="#ffffff" fill-rule="evenodd" fill-opacity="1"/>
<defs>
  <clipPath id="clip572">
    <rect x="247" y="47" width="2106" height="1377"/>
  </clipPath>
</defs>
<polyline clip-path="url(#clip572)" style="stroke:#000000; stroke-linecap:round; stroke-linejoin:round; stroke-width:2; stroke-opacity:0.1; fill:none" points="517.37,1423.18 517.37,47.2441 "/>
<polyline clip-path="url(#clip572)" style="stroke:#000000; stroke-linecap:round; stroke-linejoin:round; stroke-width:2; stroke-opacity:0.1; fill:none" points="980.813,1423.18 980.813,47.2441 "/>
<polyline clip-path="url(#clip572)" style="stroke:#000000; stroke-linecap:round; stroke-linejoin:round; stroke-width:2; stroke-opacity:0.1; fill:none" points="1444.26,1423.18 1444.26,47.2441 "/>
<polyline clip-path="url(#clip572)" style="stroke:#000000; stroke-linecap:round; stroke-linejoin:round; stroke-width:2; stroke-opacity:0.1; fill:none" points="1907.7,1423.18 1907.7,47.2441 "/>
<polyline clip-path="url(#clip570)" style="stroke:#000000; stroke-linecap:round; stroke-linejoin:round; stroke-width:4; stroke-opacity:1; fill:none" points="247.459,1423.18 2352.76,1423.18 "/>
<polyline clip-path="url(#clip570)" style="stroke:#000000; stroke-linecap:round; stroke-linejoin:round; stroke-width:4; stroke-opacity:1; fill:none" points="517.37,1423.18 517.37,1404.28 "/>
<polyline clip-path="url(#clip570)" style="stroke:#000000; stroke-linecap:round; stroke-linejoin:round; stroke-width:4; stroke-opacity:1; fill:none" points="980.813,1423.18 980.813,1404.28 "/>
<polyline clip-path="url(#clip570)" style="stroke:#000000; stroke-linecap:round; stroke-linejoin:round; stroke-width:4; stroke-opacity:1; fill:none" points="1444.26,1423.18 1444.26,1404.28 "/>
<polyline clip-path="url(#clip570)" style="stroke:#000000; stroke-linecap:round; stroke-linejoin:round; stroke-width:4; stroke-opacity:1; fill:none" points="1907.7,1423.18 1907.7,1404.28 "/>
<path clip-path="url(#clip570)" d="M512.023 1481.64 L528.342 1481.64 L528.342 1485.58 L506.398 1485.58 L506.398 1481.64 Q509.06 1478.89 513.643 1474.26 Q518.25 1469.61 519.43 1468.27 Q521.675 1465.74 522.555 1464.01 Q523.458 1462.25 523.458 1460.56 Q523.458 1457.8 521.513 1456.07 Q519.592 1454.33 516.49 1454.33 Q514.291 1454.33 511.838 1455.09 Q509.407 1455.86 506.629 1457.41 L506.629 1452.69 Q509.453 1451.55 511.907 1450.97 Q514.361 1450.39 516.398 1450.39 Q521.768 1450.39 524.962 1453.08 Q528.157 1455.77 528.157 1460.26 Q528.157 1462.39 527.347 1464.31 Q526.56 1466.2 524.453 1468.8 Q523.875 1469.47 520.773 1472.69 Q517.671 1475.88 512.023 1481.64 Z" fill="#000000" fill-rule="nonzero" fill-opacity="1" /><path clip-path="url(#clip570)" d="M983.822 1455.09 L972.017 1473.54 L983.822 1473.54 L983.822 1455.09 M982.595 1451.02 L988.475 1451.02 L988.475 1473.54 L993.406 1473.54 L993.406 1477.43 L988.475 1477.43 L988.475 1485.58 L983.822 1485.58 L983.822 1477.43 L968.22 1477.43 L968.22 1472.92 L982.595 1451.02 Z" fill="#000000" fill-rule="nonzero" fill-opacity="1" /><path clip-path="url(#clip570)" d="M1444.66 1466.44 Q1441.51 1466.44 1439.66 1468.59 Q1437.83 1470.74 1437.83 1474.49 Q1437.83 1478.22 1439.66 1480.39 Q1441.51 1482.55 1444.66 1482.55 Q1447.81 1482.55 1449.64 1480.39 Q1451.49 1478.22 1451.49 1474.49 Q1451.49 1470.74 1449.64 1468.59 Q1447.81 1466.44 1444.66 1466.44 M1453.94 1451.78 L1453.94 1456.04 Q1452.18 1455.21 1450.38 1454.77 Q1448.6 1454.33 1446.84 1454.33 Q1442.21 1454.33 1439.75 1457.45 Q1437.32 1460.58 1436.98 1466.9 Q1438.34 1464.89 1440.4 1463.82 Q1442.46 1462.73 1444.94 1462.73 Q1450.15 1462.73 1453.16 1465.9 Q1456.19 1469.05 1456.19 1474.49 Q1456.19 1479.82 1453.04 1483.03 Q1449.89 1486.25 1444.66 1486.25 Q1438.67 1486.25 1435.49 1481.67 Q1432.32 1477.06 1432.32 1468.33 Q1432.32 1460.14 1436.21 1455.28 Q1440.1 1450.39 1446.65 1450.39 Q1448.41 1450.39 1450.19 1450.74 Q1452 1451.09 1453.94 1451.78 Z" fill="#000000" fill-rule="nonzero" fill-opacity="1" /><path clip-path="url(#clip570)" d="M1907.7 1469.17 Q1904.37 1469.17 1902.44 1470.95 Q1900.55 1472.73 1900.55 1475.86 Q1900.55 1478.98 1902.44 1480.77 Q1904.37 1482.55 1907.7 1482.55 Q1911.03 1482.55 1912.95 1480.77 Q1914.88 1478.96 1914.88 1475.86 Q1914.88 1472.73 1912.95 1470.95 Q1911.06 1469.17 1907.7 1469.17 M1903.02 1467.18 Q1900.01 1466.44 1898.32 1464.38 Q1896.66 1462.32 1896.66 1459.35 Q1896.66 1455.21 1899.6 1452.8 Q1902.56 1450.39 1907.7 1450.39 Q1912.86 1450.39 1915.8 1452.8 Q1918.74 1455.21 1918.74 1459.35 Q1918.74 1462.32 1917.05 1464.38 Q1915.38 1466.44 1912.4 1467.18 Q1915.78 1467.96 1917.65 1470.26 Q1919.55 1472.55 1919.55 1475.86 Q1919.55 1480.88 1916.47 1483.57 Q1913.42 1486.25 1907.7 1486.25 Q1901.98 1486.25 1898.9 1483.57 Q1895.85 1480.88 1895.85 1475.86 Q1895.85 1472.55 1897.75 1470.26 Q1899.64 1467.96 1903.02 1467.18 M1901.31 1459.79 Q1901.31 1462.48 1902.98 1463.98 Q1904.67 1465.49 1907.7 1465.49 Q1910.71 1465.49 1912.4 1463.98 Q1914.11 1462.48 1914.11 1459.79 Q1914.11 1457.11 1912.4 1455.6 Q1910.71 1454.1 1907.7 1454.1 Q1904.67 1454.1 1902.98 1455.6 Q1901.31 1457.11 1901.31 1459.79 Z" fill="#000000" fill-rule="nonzero" fill-opacity="1" /><path clip-path="url(#clip570)" d="M1281.93 1520.52 L1288.84 1520.52 L1300.65 1538.19 L1312.52 1520.52 L1319.43 1520.52 L1304.15 1543.34 L1320.45 1568.04 L1313.54 1568.04 L1300.17 1547.83 L1286.71 1568.04 L1279.77 1568.04 L1296.73 1542.68 L1281.93 1520.52 Z" fill="#000000" fill-rule="nonzero" fill-opacity="1" /><polyline clip-path="url(#clip572)" style="stroke:#000000; stroke-linecap:round; stroke-linejoin:round; stroke-width:2; stroke-opacity:0.1; fill:none" points="247.459,1303 2352.76,1303 "/>
<polyline clip-path="url(#clip572)" style="stroke:#000000; stroke-linecap:round; stroke-linejoin:round; stroke-width:2; stroke-opacity:0.1; fill:none" points="247.459,1121.96 2352.76,1121.96 "/>
<polyline clip-path="url(#clip572)" style="stroke:#000000; stroke-linecap:round; stroke-linejoin:round; stroke-width:2; stroke-opacity:0.1; fill:none" points="247.459,940.934 2352.76,940.934 "/>
<polyline clip-path="url(#clip572)" style="stroke:#000000; stroke-linecap:round; stroke-linejoin:round; stroke-width:2; stroke-opacity:0.1; fill:none" points="247.459,759.904 2352.76,759.904 "/>
<polyline clip-path="url(#clip572)" style="stroke:#000000; stroke-linecap:round; stroke-linejoin:round; stroke-width:2; stroke-opacity:0.1; fill:none" points="247.459,578.873 2352.76,578.873 "/>
<polyline clip-path="url(#clip572)" style="stroke:#000000; stroke-linecap:round; stroke-linejoin:round; stroke-width:2; stroke-opacity:0.1; fill:none" points="247.459,397.842 2352.76,397.842 "/>
<polyline clip-path="url(#clip572)" style="stroke:#000000; stroke-linecap:round; stroke-linejoin:round; stroke-width:2; stroke-opacity:0.1; fill:none" points="247.459,216.812 2352.76,216.812 "/>
<polyline clip-path="url(#clip570)" style="stroke:#000000; stroke-linecap:round; stroke-linejoin:round; stroke-width:4; stroke-opacity:1; fill:none" points="247.459,1423.18 247.459,47.2441 "/>
<polyline clip-path="url(#clip570)" style="stroke:#000000; stroke-linecap:round; stroke-linejoin:round; stroke-width:4; stroke-opacity:1; fill:none" points="247.459,1303 266.356,1303 "/>
<polyline clip-path="url(#clip570)" style="stroke:#000000; stroke-linecap:round; stroke-linejoin:round; stroke-width:4; stroke-opacity:1; fill:none" points="247.459,1121.96 266.356,1121.96 "/>
<polyline clip-path="url(#clip570)" style="stroke:#000000; stroke-linecap:round; stroke-linejoin:round; stroke-width:4; stroke-opacity:1; fill:none" points="247.459,940.934 266.356,940.934 "/>
<polyline clip-path="url(#clip570)" style="stroke:#000000; stroke-linecap:round; stroke-linejoin:round; stroke-width:4; stroke-opacity:1; fill:none" points="247.459,759.904 266.356,759.904 "/>
<polyline clip-path="url(#clip570)" style="stroke:#000000; stroke-linecap:round; stroke-linejoin:round; stroke-width:4; stroke-opacity:1; fill:none" points="247.459,578.873 266.356,578.873 "/>
<polyline clip-path="url(#clip570)" style="stroke:#000000; stroke-linecap:round; stroke-linejoin:round; stroke-width:4; stroke-opacity:1; fill:none" points="247.459,397.842 266.356,397.842 "/>
<polyline clip-path="url(#clip570)" style="stroke:#000000; stroke-linecap:round; stroke-linejoin:round; stroke-width:4; stroke-opacity:1; fill:none" points="247.459,216.812 266.356,216.812 "/>
<path clip-path="url(#clip570)" d="M149.306 1316.34 L165.626 1316.34 L165.626 1320.28 L143.681 1320.28 L143.681 1316.34 Q146.343 1313.59 150.927 1308.96 Q155.533 1304.3 156.714 1302.96 Q158.959 1300.44 159.839 1298.7 Q160.741 1296.94 160.741 1295.25 Q160.741 1292.5 158.797 1290.76 Q156.876 1289.03 153.774 1289.03 Q151.575 1289.03 149.121 1289.79 Q146.691 1290.55 143.913 1292.1 L143.913 1287.38 Q146.737 1286.25 149.191 1285.67 Q151.644 1285.09 153.681 1285.09 Q159.052 1285.09 162.246 1287.78 Q165.44 1290.46 165.44 1294.95 Q165.44 1297.08 164.63 1299 Q163.843 1300.9 161.737 1303.49 Q161.158 1304.16 158.056 1307.38 Q154.954 1310.58 149.306 1316.34 Z" fill="#000000" fill-rule="nonzero" fill-opacity="1" /><path clip-path="url(#clip570)" d="M175.44 1314.4 L180.325 1314.4 L180.325 1320.28 L175.44 1320.28 L175.44 1314.4 Z" fill="#000000" fill-rule="nonzero" fill-opacity="1" /><path clip-path="url(#clip570)" d="M190.556 1285.72 L208.912 1285.72 L208.912 1289.65 L194.838 1289.65 L194.838 1298.12 Q195.857 1297.78 196.875 1297.61 Q197.894 1297.43 198.912 1297.43 Q204.699 1297.43 208.079 1300.6 Q211.459 1303.77 211.459 1309.19 Q211.459 1314.77 207.987 1317.87 Q204.514 1320.95 198.195 1320.95 Q196.019 1320.95 193.75 1320.58 Q191.505 1320.21 189.098 1319.47 L189.098 1314.77 Q191.181 1315.9 193.403 1316.46 Q195.625 1317.01 198.102 1317.01 Q202.107 1317.01 204.445 1314.91 Q206.783 1312.8 206.783 1309.19 Q206.783 1305.58 204.445 1303.47 Q202.107 1301.36 198.102 1301.36 Q196.227 1301.36 194.352 1301.78 Q192.5 1302.2 190.556 1303.08 L190.556 1285.72 Z" fill="#000000" fill-rule="nonzero" fill-opacity="1" /><path clip-path="url(#clip570)" d="M144.329 1104.68 L162.686 1104.68 L162.686 1108.62 L148.612 1108.62 L148.612 1117.09 Q149.63 1116.74 150.649 1116.58 Q151.667 1116.4 152.686 1116.4 Q158.473 1116.4 161.852 1119.57 Q165.232 1122.74 165.232 1128.16 Q165.232 1133.74 161.76 1136.84 Q158.288 1139.92 151.968 1139.92 Q149.792 1139.92 147.524 1139.55 Q145.279 1139.18 142.871 1138.43 L142.871 1133.74 Q144.954 1134.87 147.177 1135.43 Q149.399 1135.98 151.876 1135.98 Q155.88 1135.98 158.218 1133.87 Q160.556 1131.77 160.556 1128.16 Q160.556 1124.55 158.218 1122.44 Q155.88 1120.33 151.876 1120.33 Q150.001 1120.33 148.126 1120.75 Q146.274 1121.17 144.329 1122.05 L144.329 1104.68 Z" fill="#000000" fill-rule="nonzero" fill-opacity="1" /><path clip-path="url(#clip570)" d="M174.445 1133.37 L179.329 1133.37 L179.329 1139.24 L174.445 1139.24 L174.445 1133.37 Z" fill="#000000" fill-rule="nonzero" fill-opacity="1" /><path clip-path="url(#clip570)" d="M199.514 1107.76 Q195.903 1107.76 194.075 1111.33 Q192.269 1114.87 192.269 1122 Q192.269 1129.11 194.075 1132.67 Q195.903 1136.21 199.514 1136.21 Q203.149 1136.21 204.954 1132.67 Q206.783 1129.11 206.783 1122 Q206.783 1114.87 204.954 1111.33 Q203.149 1107.76 199.514 1107.76 M199.514 1104.06 Q205.324 1104.06 208.38 1108.67 Q211.459 1113.25 211.459 1122 Q211.459 1130.73 208.38 1135.33 Q205.324 1139.92 199.514 1139.92 Q193.704 1139.92 190.625 1135.33 Q187.57 1130.73 187.57 1122 Q187.57 1113.25 190.625 1108.67 Q193.704 1104.06 199.514 1104.06 Z" fill="#000000" fill-rule="nonzero" fill-opacity="1" /><path clip-path="url(#clip570)" d="M144.098 923.654 L166.32 923.654 L166.32 925.645 L153.774 958.214 L148.89 958.214 L160.695 927.589 L144.098 927.589 L144.098 923.654 Z" fill="#000000" fill-rule="nonzero" fill-opacity="1" /><path clip-path="url(#clip570)" d="M175.44 952.335 L180.325 952.335 L180.325 958.214 L175.44 958.214 L175.44 952.335 Z" fill="#000000" fill-rule="nonzero" fill-opacity="1" /><path clip-path="url(#clip570)" d="M190.556 923.654 L208.912 923.654 L208.912 927.589 L194.838 927.589 L194.838 936.061 Q195.857 935.714 196.875 935.552 Q197.894 935.367 198.912 935.367 Q204.699 935.367 208.079 938.538 Q211.459 941.71 211.459 947.126 Q211.459 952.705 207.987 955.807 Q204.514 958.885 198.195 958.885 Q196.019 958.885 193.75 958.515 Q191.505 958.145 189.098 957.404 L189.098 952.705 Q191.181 953.839 193.403 954.395 Q195.625 954.95 198.102 954.95 Q202.107 954.95 204.445 952.844 Q206.783 950.737 206.783 947.126 Q206.783 943.515 204.445 941.409 Q202.107 939.302 198.102 939.302 Q196.227 939.302 194.352 939.719 Q192.5 940.136 190.556 941.015 L190.556 923.654 Z" fill="#000000" fill-rule="nonzero" fill-opacity="1" /><path clip-path="url(#clip570)" d="M114.931 773.248 L122.57 773.248 L122.57 746.883 L114.26 748.549 L114.26 744.29 L122.524 742.624 L127.2 742.624 L127.2 773.248 L134.839 773.248 L134.839 777.184 L114.931 777.184 L114.931 773.248 Z" fill="#000000" fill-rule="nonzero" fill-opacity="1" /><path clip-path="url(#clip570)" d="M154.283 745.702 Q150.672 745.702 148.843 749.267 Q147.038 752.809 147.038 759.938 Q147.038 767.045 148.843 770.609 Q150.672 774.151 154.283 774.151 Q157.917 774.151 159.723 770.609 Q161.552 767.045 161.552 759.938 Q161.552 752.809 159.723 749.267 Q157.917 745.702 154.283 745.702 M154.283 741.999 Q160.093 741.999 163.149 746.605 Q166.227 751.188 166.227 759.938 Q166.227 768.665 163.149 773.271 Q160.093 777.855 154.283 777.855 Q148.473 777.855 145.394 773.271 Q142.339 768.665 142.339 759.938 Q142.339 751.188 145.394 746.605 Q148.473 741.999 154.283 741.999 Z" fill="#000000" fill-rule="nonzero" fill-opacity="1" /><path clip-path="url(#clip570)" d="M174.445 771.304 L179.329 771.304 L179.329 777.184 L174.445 777.184 L174.445 771.304 Z" fill="#000000" fill-rule="nonzero" fill-opacity="1" /><path clip-path="url(#clip570)" d="M199.514 745.702 Q195.903 745.702 194.075 749.267 Q192.269 752.809 192.269 759.938 Q192.269 767.045 194.075 770.609 Q195.903 774.151 199.514 774.151 Q203.149 774.151 204.954 770.609 Q206.783 767.045 206.783 759.938 Q206.783 752.809 204.954 749.267 Q203.149 745.702 199.514 745.702 M199.514 741.999 Q205.324 741.999 208.38 746.605 Q211.459 751.188 211.459 759.938 Q211.459 768.665 208.38 773.271 Q205.324 777.855 199.514 777.855 Q193.704 777.855 190.625 773.271 Q187.57 768.665 187.57 759.938 Q187.57 751.188 190.625 746.605 Q193.704 741.999 199.514 741.999 Z" fill="#000000" fill-rule="nonzero" fill-opacity="1" /><path clip-path="url(#clip570)" d="M115.927 592.218 L123.566 592.218 L123.566 565.852 L115.256 567.519 L115.256 563.26 L123.519 561.593 L128.195 561.593 L128.195 592.218 L135.834 592.218 L135.834 596.153 L115.927 596.153 L115.927 592.218 Z" fill="#000000" fill-rule="nonzero" fill-opacity="1" /><path clip-path="url(#clip570)" d="M149.306 592.218 L165.626 592.218 L165.626 596.153 L143.681 596.153 L143.681 592.218 Q146.343 589.463 150.927 584.833 Q155.533 580.181 156.714 578.838 Q158.959 576.315 159.839 574.579 Q160.741 572.82 160.741 571.13 Q160.741 568.375 158.797 566.639 Q156.876 564.903 153.774 564.903 Q151.575 564.903 149.121 565.667 Q146.691 566.431 143.913 567.982 L143.913 563.26 Q146.737 562.125 149.191 561.547 Q151.644 560.968 153.681 560.968 Q159.052 560.968 162.246 563.653 Q165.44 566.338 165.44 570.829 Q165.44 572.959 164.63 574.88 Q163.843 576.778 161.737 579.371 Q161.158 580.042 158.056 583.259 Q154.954 586.454 149.306 592.218 Z" fill="#000000" fill-rule="nonzero" fill-opacity="1" /><path clip-path="url(#clip570)" d="M175.44 590.273 L180.325 590.273 L180.325 596.153 L175.44 596.153 L175.44 590.273 Z" fill="#000000" fill-rule="nonzero" fill-opacity="1" /><path clip-path="url(#clip570)" d="M190.556 561.593 L208.912 561.593 L208.912 565.528 L194.838 565.528 L194.838 574 Q195.857 573.653 196.875 573.491 Q197.894 573.306 198.912 573.306 Q204.699 573.306 208.079 576.477 Q211.459 579.648 211.459 585.065 Q211.459 590.644 207.987 593.745 Q204.514 596.824 198.195 596.824 Q196.019 596.824 193.75 596.454 Q191.505 596.083 189.098 595.343 L189.098 590.644 Q191.181 591.778 193.403 592.333 Q195.625 592.889 198.102 592.889 Q202.107 592.889 204.445 590.783 Q206.783 588.676 206.783 585.065 Q206.783 581.454 204.445 579.347 Q202.107 577.241 198.102 577.241 Q196.227 577.241 194.352 577.658 Q192.5 578.074 190.556 578.954 L190.556 561.593 Z" fill="#000000" fill-rule="nonzero" fill-opacity="1" /><path clip-path="url(#clip570)" d="M114.931 411.187 L122.57 411.187 L122.57 384.821 L114.26 386.488 L114.26 382.229 L122.524 380.562 L127.2 380.562 L127.2 411.187 L134.839 411.187 L134.839 415.122 L114.931 415.122 L114.931 411.187 Z" fill="#000000" fill-rule="nonzero" fill-opacity="1" /><path clip-path="url(#clip570)" d="M144.329 380.562 L162.686 380.562 L162.686 384.497 L148.612 384.497 L148.612 392.97 Q149.63 392.622 150.649 392.46 Q151.667 392.275 152.686 392.275 Q158.473 392.275 161.852 395.446 Q165.232 398.618 165.232 404.034 Q165.232 409.613 161.76 412.715 Q158.288 415.794 151.968 415.794 Q149.792 415.794 147.524 415.423 Q145.279 415.053 142.871 414.312 L142.871 409.613 Q144.954 410.747 147.177 411.303 Q149.399 411.858 151.876 411.858 Q155.88 411.858 158.218 409.752 Q160.556 407.645 160.556 404.034 Q160.556 400.423 158.218 398.317 Q155.88 396.21 151.876 396.21 Q150.001 396.21 148.126 396.627 Q146.274 397.044 144.329 397.923 L144.329 380.562 Z" fill="#000000" fill-rule="nonzero" fill-opacity="1" /><path clip-path="url(#clip570)" d="M174.445 409.243 L179.329 409.243 L179.329 415.122 L174.445 415.122 L174.445 409.243 Z" fill="#000000" fill-rule="nonzero" fill-opacity="1" /><path clip-path="url(#clip570)" d="M199.514 383.641 Q195.903 383.641 194.075 387.206 Q192.269 390.747 192.269 397.877 Q192.269 404.983 194.075 408.548 Q195.903 412.09 199.514 412.09 Q203.149 412.09 204.954 408.548 Q206.783 404.983 206.783 397.877 Q206.783 390.747 204.954 387.206 Q203.149 383.641 199.514 383.641 M199.514 379.937 Q205.324 379.937 208.38 384.544 Q211.459 389.127 211.459 397.877 Q211.459 406.604 208.38 411.21 Q205.324 415.794 199.514 415.794 Q193.704 415.794 190.625 411.21 Q187.57 406.604 187.57 397.877 Q187.57 389.127 190.625 384.544 Q193.704 379.937 199.514 379.937 Z" fill="#000000" fill-rule="nonzero" fill-opacity="1" /><path clip-path="url(#clip570)" d="M115.927 230.156 L123.566 230.156 L123.566 203.791 L115.256 205.457 L115.256 201.198 L123.519 199.532 L128.195 199.532 L128.195 230.156 L135.834 230.156 L135.834 234.092 L115.927 234.092 L115.927 230.156 Z" fill="#000000" fill-rule="nonzero" fill-opacity="1" /><path clip-path="url(#clip570)" d="M144.098 199.532 L166.32 199.532 L166.32 201.522 L153.774 234.092 L148.89 234.092 L160.695 203.467 L144.098 203.467 L144.098 199.532 Z" fill="#000000" fill-rule="nonzero" fill-opacity="1" /><path clip-path="url(#clip570)" d="M175.44 228.212 L180.325 228.212 L180.325 234.092 L175.44 234.092 L175.44 228.212 Z" fill="#000000" fill-rule="nonzero" fill-opacity="1" /><path clip-path="url(#clip570)" d="M190.556 199.532 L208.912 199.532 L208.912 203.467 L194.838 203.467 L194.838 211.939 Q195.857 211.592 196.875 211.43 Q197.894 211.244 198.912 211.244 Q204.699 211.244 208.079 214.416 Q211.459 217.587 211.459 223.004 Q211.459 228.582 207.987 231.684 Q204.514 234.763 198.195 234.763 Q196.019 234.763 193.75 234.393 Q191.505 234.022 189.098 233.281 L189.098 228.582 Q191.181 229.717 193.403 230.272 Q195.625 230.828 198.102 230.828 Q202.107 230.828 204.445 228.721 Q206.783 226.615 206.783 223.004 Q206.783 219.393 204.445 217.286 Q202.107 215.18 198.102 215.18 Q196.227 215.18 194.352 215.596 Q192.5 216.013 190.556 216.893 L190.556 199.532 Z" fill="#000000" fill-rule="nonzero" fill-opacity="1" /><path clip-path="url(#clip570)" d="M16.4842 755.248 L16.4842 748.341 L36.0269 735.164 L16.4842 722.083 L16.4842 715.176 L41.3741 731.981 L64.0042 731.981 L64.0042 738.443 L41.3741 738.443 L16.4842 755.248 Z" fill="#000000" fill-rule="nonzero" fill-opacity="1" /><circle clip-path="url(#clip572)" cx="468.174" cy="1274.94" r="14.4" fill="#009af9" fill-rule="evenodd" fill-opacity="1" stroke="#000000" stroke-opacity="1" stroke-width="3.2"/>
<circle clip-path="url(#clip572)" cx="313.732" cy="1379.27" r="14.4" fill="#009af9" fill-rule="evenodd" fill-opacity="1" stroke="#000000" stroke-opacity="1" stroke-width="3.2"/>
<circle clip-path="url(#clip572)" cx="307.043" cy="1366.05" r="14.4" fill="#009af9" fill-rule="evenodd" fill-opacity="1" stroke="#000000" stroke-opacity="1" stroke-width="3.2"/>
<circle clip-path="url(#clip572)" cx="468.919" cy="1201.82" r="14.4" fill="#009af9" fill-rule="evenodd" fill-opacity="1" stroke="#000000" stroke-opacity="1" stroke-width="3.2"/>
<circle clip-path="url(#clip572)" cx="481.507" cy="1331.3" r="14.4" fill="#009af9" fill-rule="evenodd" fill-opacity="1" stroke="#000000" stroke-opacity="1" stroke-width="3.2"/>
<circle clip-path="url(#clip572)" cx="2293.17" cy="810.76" r="14.4" fill="#009af9" fill-rule="evenodd" fill-opacity="1" stroke="#000000" stroke-opacity="1" stroke-width="3.2"/>
<circle clip-path="url(#clip572)" cx="1762.55" cy="124.8" r="14.4" fill="#009af9" fill-rule="evenodd" fill-opacity="1" stroke="#000000" stroke-opacity="1" stroke-width="3.2"/>
<circle clip-path="url(#clip572)" cx="2270.13" cy="1384.24" r="14.4" fill="#009af9" fill-rule="evenodd" fill-opacity="1" stroke="#000000" stroke-opacity="1" stroke-width="3.2"/>
<circle clip-path="url(#clip572)" cx="1774.78" cy="486.535" r="14.4" fill="#009af9" fill-rule="evenodd" fill-opacity="1" stroke="#000000" stroke-opacity="1" stroke-width="3.2"/>
<circle clip-path="url(#clip572)" cx="1689.66" cy="86.1857" r="14.4" fill="#009af9" fill-rule="evenodd" fill-opacity="1" stroke="#000000" stroke-opacity="1" stroke-width="3.2"/>
<circle clip-path="url(#clip572)" cx="1762.55" cy="124.8" r="14.4" fill="#e26f46" fill-rule="evenodd" fill-opacity="1" stroke="#000000" stroke-opacity="1" stroke-width="3.2"/>
<circle clip-path="url(#clip572)" cx="1762.55" cy="124.8" r="14.4" fill="#e26f46" fill-rule="evenodd" fill-opacity="1" stroke="#000000" stroke-opacity="1" stroke-width="3.2"/>
<path clip-path="url(#clip570)" d="M317.635 248.629 L749.506 248.629 L749.506 93.1086 L317.635 93.1086  Z" fill="#ffffff" fill-rule="evenodd" fill-opacity="1"/>
<polyline clip-path="url(#clip570)" style="stroke:#000000; stroke-linecap:round; stroke-linejoin:round; stroke-width:4; stroke-opacity:1; fill:none" points="317.635,248.629 749.506,248.629 749.506,93.1086 317.635,93.1086 317.635,248.629 "/>
<circle clip-path="url(#clip570)" cx="411.204" cy="144.949" r="20.48" fill="#009af9" fill-rule="evenodd" fill-opacity="1" stroke="#000000" stroke-opacity="1" stroke-width="4.55111"/>
<path clip-path="url(#clip570)" d="M523.685 140.238 L523.685 126.21 L527.944 126.21 L527.944 162.229 L523.685 162.229 L523.685 158.34 Q522.342 160.655 520.282 161.789 Q518.245 162.9 515.375 162.9 Q510.676 162.9 507.713 159.15 Q504.773 155.4 504.773 149.289 Q504.773 143.178 507.713 139.428 Q510.676 135.678 515.375 135.678 Q518.245 135.678 520.282 136.812 Q522.342 137.923 523.685 140.238 M509.171 149.289 Q509.171 153.988 511.092 156.673 Q513.037 159.335 516.416 159.335 Q519.796 159.335 521.74 156.673 Q523.685 153.988 523.685 149.289 Q523.685 144.59 521.74 141.928 Q519.796 139.243 516.416 139.243 Q513.037 139.243 511.092 141.928 Q509.171 144.59 509.171 149.289 Z" fill="#000000" fill-rule="nonzero" fill-opacity="1" /><path clip-path="url(#clip570)" d="M548.499 149.196 Q543.337 149.196 541.347 150.377 Q539.356 151.557 539.356 154.405 Q539.356 156.673 540.837 158.016 Q542.342 159.335 544.911 159.335 Q548.453 159.335 550.583 156.835 Q552.736 154.312 552.736 150.145 L552.736 149.196 L548.499 149.196 M556.995 147.437 L556.995 162.229 L552.736 162.229 L552.736 158.293 Q551.277 160.655 549.101 161.789 Q546.925 162.9 543.777 162.9 Q539.796 162.9 537.435 160.678 Q535.097 158.432 535.097 154.682 Q535.097 150.307 538.013 148.085 Q540.953 145.863 546.763 145.863 L552.736 145.863 L552.736 145.446 Q552.736 142.507 550.791 140.909 Q548.87 139.289 545.374 139.289 Q543.152 139.289 541.046 139.821 Q538.939 140.354 536.995 141.419 L536.995 137.483 Q539.333 136.581 541.532 136.141 Q543.731 135.678 545.814 135.678 Q551.439 135.678 554.217 138.594 Q556.995 141.511 556.995 147.437 Z" fill="#000000" fill-rule="nonzero" fill-opacity="1" /><path clip-path="url(#clip570)" d="M569.981 128.942 L569.981 136.303 L578.754 136.303 L578.754 139.613 L569.981 139.613 L569.981 153.687 Q569.981 156.858 570.837 157.761 Q571.717 158.664 574.379 158.664 L578.754 158.664 L578.754 162.229 L574.379 162.229 Q569.448 162.229 567.573 160.4 Q565.698 158.548 565.698 153.687 L565.698 139.613 L562.573 139.613 L562.573 136.303 L565.698 136.303 L565.698 128.942 L569.981 128.942 Z" fill="#000000" fill-rule="nonzero" fill-opacity="1" /><path clip-path="url(#clip570)" d="M596.138 149.196 Q590.976 149.196 588.985 150.377 Q586.995 151.557 586.995 154.405 Q586.995 156.673 588.476 158.016 Q589.981 159.335 592.55 159.335 Q596.092 159.335 598.221 156.835 Q600.374 154.312 600.374 150.145 L600.374 149.196 L596.138 149.196 M604.633 147.437 L604.633 162.229 L600.374 162.229 L600.374 158.293 Q598.916 160.655 596.74 161.789 Q594.564 162.9 591.416 162.9 Q587.434 162.9 585.073 160.678 Q582.735 158.432 582.735 154.682 Q582.735 150.307 585.652 148.085 Q588.592 145.863 594.402 145.863 L600.374 145.863 L600.374 145.446 Q600.374 142.507 598.43 140.909 Q596.508 139.289 593.013 139.289 Q590.791 139.289 588.684 139.821 Q586.578 140.354 584.633 141.419 L584.633 137.483 Q586.971 136.581 589.171 136.141 Q591.37 135.678 593.453 135.678 Q599.078 135.678 601.856 138.594 Q604.633 141.511 604.633 147.437 Z" fill="#000000" fill-rule="nonzero" fill-opacity="1" /><path clip-path="url(#clip570)" d="M633.105 170.099 L633.105 173.409 L608.476 173.409 L608.476 170.099 L633.105 170.099 Z" fill="#000000" fill-rule="nonzero" fill-opacity="1" /><path clip-path="url(#clip570)" d="M653.638 137.067 L653.638 141.094 Q651.832 140.169 649.888 139.706 Q647.943 139.243 645.86 139.243 Q642.689 139.243 641.092 140.215 Q639.517 141.187 639.517 143.131 Q639.517 144.613 640.652 145.469 Q641.786 146.303 645.212 147.067 L646.67 147.391 Q651.207 148.363 653.105 150.145 Q655.027 151.905 655.027 155.076 Q655.027 158.687 652.156 160.793 Q649.309 162.9 644.309 162.9 Q642.226 162.9 639.957 162.483 Q637.712 162.09 635.212 161.28 L635.212 156.881 Q637.573 158.108 639.865 158.733 Q642.156 159.335 644.402 159.335 Q647.411 159.335 649.031 158.317 Q650.652 157.275 650.652 155.4 Q650.652 153.664 649.471 152.738 Q648.314 151.812 644.355 150.956 L642.874 150.608 Q638.916 149.775 637.156 148.062 Q635.397 146.326 635.397 143.317 Q635.397 139.659 637.99 137.669 Q640.582 135.678 645.351 135.678 Q647.712 135.678 649.795 136.025 Q651.879 136.372 653.638 137.067 Z" fill="#000000" fill-rule="nonzero" fill-opacity="1" /><circle clip-path="url(#clip570)" cx="411.204" cy="196.789" r="20.48" fill="#e26f46" fill-rule="evenodd" fill-opacity="1" stroke="#000000" stroke-opacity="1" stroke-width="4.55111"/>
<path clip-path="url(#clip570)" d="M532.643 182.171 L532.643 187.101 Q530.282 184.902 527.597 183.814 Q524.935 182.726 521.925 182.726 Q516 182.726 512.851 186.36 Q509.703 189.972 509.703 196.823 Q509.703 203.652 512.851 207.286 Q516 210.897 521.925 210.897 Q524.935 210.897 527.597 209.809 Q530.282 208.721 532.643 206.522 L532.643 211.407 Q530.189 213.073 527.435 213.907 Q524.703 214.74 521.648 214.74 Q513.801 214.74 509.287 209.948 Q504.773 205.133 504.773 196.823 Q504.773 188.49 509.287 183.698 Q513.801 178.884 521.648 178.884 Q524.75 178.884 527.481 179.717 Q530.236 180.527 532.643 182.171 Z" fill="#000000" fill-rule="nonzero" fill-opacity="1" /><path clip-path="url(#clip570)" d="M561.856 200.041 L561.856 202.124 L542.273 202.124 Q542.55 206.522 544.911 208.837 Q547.296 211.129 551.532 211.129 Q553.986 211.129 556.277 210.527 Q558.592 209.925 560.86 208.721 L560.86 212.749 Q558.569 213.721 556.161 214.231 Q553.754 214.74 551.277 214.74 Q545.074 214.74 541.439 211.129 Q537.828 207.518 537.828 201.36 Q537.828 194.995 541.254 191.268 Q544.703 187.518 550.536 187.518 Q555.768 187.518 558.8 190.897 Q561.856 194.254 561.856 200.041 M557.597 198.791 Q557.55 195.296 555.629 193.212 Q553.731 191.129 550.583 191.129 Q547.018 191.129 544.865 193.143 Q542.736 195.157 542.411 198.814 L557.597 198.791 Z" fill="#000000" fill-rule="nonzero" fill-opacity="1" /><path clip-path="url(#clip570)" d="M590.397 198.421 L590.397 214.069 L586.138 214.069 L586.138 198.559 Q586.138 194.879 584.703 193.05 Q583.268 191.222 580.397 191.222 Q576.948 191.222 574.958 193.421 Q572.967 195.62 572.967 199.416 L572.967 214.069 L568.685 214.069 L568.685 188.143 L572.967 188.143 L572.967 192.171 Q574.495 189.833 576.555 188.675 Q578.638 187.518 581.346 187.518 Q585.814 187.518 588.106 190.296 Q590.397 193.05 590.397 198.421 Z" fill="#000000" fill-rule="nonzero" fill-opacity="1" /><path clip-path="url(#clip570)" d="M603.106 180.782 L603.106 188.143 L611.879 188.143 L611.879 191.453 L603.106 191.453 L603.106 205.527 Q603.106 208.698 603.962 209.601 Q604.842 210.504 607.504 210.504 L611.879 210.504 L611.879 214.069 L607.504 214.069 Q602.573 214.069 600.698 212.24 Q598.823 210.388 598.823 205.527 L598.823 191.453 L595.698 191.453 L595.698 188.143 L598.823 188.143 L598.823 180.782 L603.106 180.782 Z" fill="#000000" fill-rule="nonzero" fill-opacity="1" /><path clip-path="url(#clip570)" d="M632.504 192.124 Q631.786 191.708 630.93 191.522 Q630.096 191.314 629.078 191.314 Q625.467 191.314 623.522 193.675 Q621.601 196.013 621.601 200.411 L621.601 214.069 L617.319 214.069 L617.319 188.143 L621.601 188.143 L621.601 192.171 Q622.943 189.809 625.096 188.675 Q627.249 187.518 630.328 187.518 Q630.768 187.518 631.3 187.587 Q631.832 187.634 632.48 187.749 L632.504 192.124 Z" fill="#000000" fill-rule="nonzero" fill-opacity="1" /><path clip-path="url(#clip570)" d="M645.976 191.129 Q642.55 191.129 640.559 193.814 Q638.568 196.476 638.568 201.129 Q638.568 205.782 640.536 208.467 Q642.527 211.129 645.976 211.129 Q649.379 211.129 651.369 208.444 Q653.36 205.758 653.36 201.129 Q653.36 196.522 651.369 193.837 Q649.379 191.129 645.976 191.129 M645.976 187.518 Q651.531 187.518 654.703 191.129 Q657.874 194.74 657.874 201.129 Q657.874 207.495 654.703 211.129 Q651.531 214.74 645.976 214.74 Q640.397 214.74 637.226 211.129 Q634.078 207.495 634.078 201.129 Q634.078 194.74 637.226 191.129 Q640.397 187.518 645.976 187.518 Z" fill="#000000" fill-rule="nonzero" fill-opacity="1" /><path clip-path="url(#clip570)" d="M664.934 188.143 L669.193 188.143 L669.193 214.069 L664.934 214.069 L664.934 188.143 M664.934 178.05 L669.193 178.05 L669.193 183.444 L664.934 183.444 L664.934 178.05 Z" fill="#000000" fill-rule="nonzero" fill-opacity="1" /><path clip-path="url(#clip570)" d="M695.165 192.078 L695.165 178.05 L699.425 178.05 L699.425 214.069 L695.165 214.069 L695.165 210.18 Q693.823 212.495 691.763 213.629 Q689.726 214.74 686.855 214.74 Q682.156 214.74 679.193 210.99 Q676.253 207.24 676.253 201.129 Q676.253 195.018 679.193 191.268 Q682.156 187.518 686.855 187.518 Q689.726 187.518 691.763 188.652 Q693.823 189.763 695.165 192.078 M680.651 201.129 Q680.651 205.828 682.573 208.513 Q684.517 211.175 687.897 211.175 Q691.276 211.175 693.221 208.513 Q695.165 205.828 695.165 201.129 Q695.165 196.43 693.221 193.768 Q691.276 191.083 687.897 191.083 Q684.517 191.083 682.573 193.768 Q680.651 196.43 680.651 201.129 Z" fill="#000000" fill-rule="nonzero" fill-opacity="1" /><path clip-path="url(#clip570)" d="M724.725 188.907 L724.725 192.934 Q722.92 192.009 720.975 191.546 Q719.031 191.083 716.948 191.083 Q713.776 191.083 712.179 192.055 Q710.605 193.027 710.605 194.971 Q710.605 196.453 711.739 197.309 Q712.874 198.143 716.299 198.907 L717.758 199.231 Q722.295 200.203 724.193 201.985 Q726.114 203.745 726.114 206.916 Q726.114 210.527 723.244 212.633 Q720.397 214.74 715.397 214.74 Q713.313 214.74 711.045 214.323 Q708.799 213.93 706.3 213.12 L706.3 208.721 Q708.661 209.948 710.952 210.573 Q713.244 211.175 715.489 211.175 Q718.499 211.175 720.119 210.157 Q721.739 209.115 721.739 207.24 Q721.739 205.504 720.559 204.578 Q719.401 203.652 715.443 202.796 L713.962 202.448 Q710.003 201.615 708.244 199.902 Q706.485 198.166 706.485 195.157 Q706.485 191.499 709.077 189.509 Q711.67 187.518 716.438 187.518 Q718.799 187.518 720.883 187.865 Q722.966 188.212 724.725 188.907 Z" fill="#000000" fill-rule="nonzero" fill-opacity="1" /></svg>
