<?xml version="1.0" encoding="utf-8"?>
<svg xmlns="http://www.w3.org/2000/svg" xmlns:xlink="http://www.w3.org/1999/xlink" width="600" height="400" viewBox="0 0 2400 1600">
<defs>
  <clipPath id="clip620">
    <rect x="0" y="0" width="2400" height="1600"/>
  </clipPath>
</defs>
<path clip-path="url(#clip620)" d="M0 1600 L2400 1600 L2400 0 L0 0  Z" fill="#ffffff" fill-rule="evenodd" fill-opacity="1"/>
<defs>
  <clipPath id="clip621">
    <rect x="480" y="0" width="1681" height="1600"/>
  </clipPath>
</defs>
<path clip-path="url(#clip620)" d="M202.227 1423.18 L2352.76 1423.18 L2352.76 47.2441 L202.227 47.2441  Z" fill="#ffffff" fill-rule="evenodd" fill-opacity="1"/>
<defs>
  <clipPath id="clip622">
    <rect x="202" y="47" width="2152" height="1377"/>
  </clipPath>
</defs>
<polyline clip-path="url(#clip622)" style="stroke:#000000; stroke-linecap:round; stroke-linejoin:round; stroke-width:2; stroke-opacity:0.1; fill:none" points="467.447,1423.18 467.447,47.2441 "/>
<polyline clip-path="url(#clip622)" style="stroke:#000000; stroke-linecap:round; stroke-linejoin:round; stroke-width:2; stroke-opacity:0.1; fill:none" points="941.39,1423.18 941.39,47.2441 "/>
<polyline clip-path="url(#clip622)" style="stroke:#000000; stroke-linecap:round; stroke-linejoin:round; stroke-width:2; stroke-opacity:0.1; fill:none" points="1415.33,1423.18 1415.33,47.2441 "/>
<polyline clip-path="url(#clip622)" style="stroke:#000000; stroke-linecap:round; stroke-linejoin:round; stroke-width:2; stroke-opacity:0.1; fill:none" points="1889.28,1423.18 1889.28,47.2441 "/>
<polyline clip-path="url(#clip620)" style="stroke:#000000; stroke-linecap:round; stroke-linejoin:round; stroke-width:4; stroke-opacity:1; fill:none" points="202.227,1423.18 2352.76,1423.18 "/>
<polyline clip-path="url(#clip620)" style="stroke:#000000; stroke-linecap:round; stroke-linejoin:round; stroke-width:4; stroke-opacity:1; fill:none" points="467.447,1423.18 467.447,1404.28 "/>
<polyline clip-path="url(#clip620)" style="stroke:#000000; stroke-linecap:round; stroke-linejoin:round; stroke-width:4; stroke-opacity:1; fill:none" points="941.39,1423.18 941.39,1404.28 "/>
<polyline clip-path="url(#clip620)" style="stroke:#000000; stroke-linecap:round; stroke-linejoin:round; stroke-width:4; stroke-opacity:1; fill:none" points="1415.33,1423.18 1415.33,1404.28 "/>
<polyline clip-path="url(#clip620)" style="stroke:#000000; stroke-linecap:round; stroke-linejoin:round; stroke-width:4; stroke-opacity:1; fill:none" points="1889.28,1423.18 1889.28,1404.28 "/>
<path clip-path="url(#clip620)" d="M462.1 1481.64 L478.419 1481.64 L478.419 1485.58 L456.475 1485.58 L456.475 1481.64 Q459.137 1478.89 463.72 1474.26 Q468.327 1469.61 469.507 1468.27 Q471.753 1465.74 472.632 1464.01 Q473.535 1462.25 473.535 1460.56 Q473.535 1457.8 471.591 1456.07 Q469.669 1454.33 466.568 1454.33 Q464.369 1454.33 461.915 1455.09 Q459.484 1455.86 456.707 1457.41 L456.707 1452.69 Q459.531 1451.55 461.984 1450.97 Q464.438 1450.39 466.475 1450.39 Q471.845 1450.39 475.04 1453.08 Q478.234 1455.77 478.234 1460.26 Q478.234 1462.39 477.424 1464.31 Q476.637 1466.2 474.531 1468.8 Q473.952 1469.47 470.85 1472.69 Q467.748 1475.88 462.1 1481.64 Z" fill="#000000" fill-rule="nonzero" fill-opacity="1" /><path clip-path="url(#clip620)" d="M944.4 1455.09 L932.594 1473.54 L944.4 1473.54 L944.4 1455.09 M943.173 1451.02 L949.052 1451.02 L949.052 1473.54 L953.983 1473.54 L953.983 1477.43 L949.052 1477.43 L949.052 1485.58 L944.4 1485.58 L944.4 1477.43 L928.798 1477.43 L928.798 1472.92 L943.173 1451.02 Z" fill="#000000" fill-rule="nonzero" fill-opacity="1" /><path clip-path="url(#clip620)" d="M1415.74 1466.44 Q1412.59 1466.44 1410.74 1468.59 Q1408.91 1470.74 1408.91 1474.49 Q1408.91 1478.22 1410.74 1480.39 Q1412.59 1482.55 1415.74 1482.55 Q1418.89 1482.55 1420.72 1480.39 Q1422.57 1478.22 1422.57 1474.49 Q1422.57 1470.74 1420.72 1468.59 Q1418.89 1466.44 1415.74 1466.44 M1425.02 1451.78 L1425.02 1456.04 Q1423.26 1455.21 1421.46 1454.77 Q1419.67 1454.33 1417.91 1454.33 Q1413.28 1454.33 1410.83 1457.45 Q1408.4 1460.58 1408.05 1466.9 Q1409.42 1464.89 1411.48 1463.82 Q1413.54 1462.73 1416.02 1462.73 Q1421.22 1462.73 1424.23 1465.9 Q1427.27 1469.05 1427.27 1474.49 Q1427.27 1479.82 1424.12 1483.03 Q1420.97 1486.25 1415.74 1486.25 Q1409.74 1486.25 1406.57 1481.67 Q1403.4 1477.06 1403.4 1468.33 Q1403.4 1460.14 1407.29 1455.28 Q1411.18 1450.39 1417.73 1450.39 Q1419.49 1450.39 1421.27 1450.74 Q1423.08 1451.09 1425.02 1451.78 Z" fill="#000000" fill-rule="nonzero" fill-opacity="1" /><path clip-path="url(#clip620)" d="M1889.28 1469.17 Q1885.94 1469.17 1884.02 1470.95 Q1882.12 1472.73 1882.12 1475.86 Q1882.12 1478.98 1884.02 1480.77 Q1885.94 1482.55 1889.28 1482.55 Q1892.61 1482.55 1894.53 1480.77 Q1896.45 1478.96 1896.45 1475.86 Q1896.45 1472.73 1894.53 1470.95 Q1892.63 1469.17 1889.28 1469.17 M1884.6 1467.18 Q1881.59 1466.44 1879.9 1464.38 Q1878.23 1462.32 1878.23 1459.35 Q1878.23 1455.21 1881.17 1452.8 Q1884.14 1450.39 1889.28 1450.39 Q1894.44 1450.39 1897.38 1452.8 Q1900.32 1455.21 1900.32 1459.35 Q1900.32 1462.32 1898.63 1464.38 Q1896.96 1466.44 1893.98 1467.18 Q1897.36 1467.96 1899.23 1470.26 Q1901.13 1472.55 1901.13 1475.86 Q1901.13 1480.88 1898.05 1483.57 Q1894.99 1486.25 1889.28 1486.25 Q1883.56 1486.25 1880.48 1483.57 Q1877.42 1480.88 1877.42 1475.86 Q1877.42 1472.55 1879.32 1470.26 Q1881.22 1467.96 1884.6 1467.18 M1882.89 1459.79 Q1882.89 1462.48 1884.55 1463.98 Q1886.24 1465.49 1889.28 1465.49 Q1892.29 1465.49 1893.98 1463.98 Q1895.69 1462.48 1895.69 1459.79 Q1895.69 1457.11 1893.98 1455.6 Q1892.29 1454.1 1889.28 1454.1 Q1886.24 1454.1 1884.55 1455.6 Q1882.89 1457.11 1882.89 1459.79 Z" fill="#000000" fill-rule="nonzero" fill-opacity="1" /><path clip-path="url(#clip620)" d="M1259.32 1520.52 L1266.22 1520.52 L1278.03 1538.19 L1289.9 1520.52 L1296.81 1520.52 L1281.53 1543.34 L1297.83 1568.04 L1290.92 1568.04 L1277.56 1547.83 L1264.09 1568.04 L1257.15 1568.04 L1274.12 1542.68 L1259.32 1520.52 Z" fill="#000000" fill-rule="nonzero" fill-opacity="1" /><polyline clip-path="url(#clip622)" style="stroke:#000000; stroke-linecap:round; stroke-linejoin:round; stroke-width:2; stroke-opacity:0.1; fill:none" points="202.227,1413 2352.76,1413 "/>
<polyline clip-path="url(#clip622)" style="stroke:#000000; stroke-linecap:round; stroke-linejoin:round; stroke-width:2; stroke-opacity:0.1; fill:none" points="202.227,1068.36 2352.76,1068.36 "/>
<polyline clip-path="url(#clip622)" style="stroke:#000000; stroke-linecap:round; stroke-linejoin:round; stroke-width:2; stroke-opacity:0.1; fill:none" points="202.227,723.722 2352.76,723.722 "/>
<polyline clip-path="url(#clip622)" style="stroke:#000000; stroke-linecap:round; stroke-linejoin:round; stroke-width:2; stroke-opacity:0.1; fill:none" points="202.227,379.083 2352.76,379.083 "/>
<polyline clip-path="url(#clip620)" style="stroke:#000000; stroke-linecap:round; stroke-linejoin:round; stroke-width:4; stroke-opacity:1; fill:none" points="202.227,1423.18 202.227,47.2441 "/>
<polyline clip-path="url(#clip620)" style="stroke:#000000; stroke-linecap:round; stroke-linejoin:round; stroke-width:4; stroke-opacity:1; fill:none" points="202.227,1413 221.125,1413 "/>
<polyline clip-path="url(#clip620)" style="stroke:#000000; stroke-linecap:round; stroke-linejoin:round; stroke-width:4; stroke-opacity:1; fill:none" points="202.227,1068.36 221.125,1068.36 "/>
<polyline clip-path="url(#clip620)" style="stroke:#000000; stroke-linecap:round; stroke-linejoin:round; stroke-width:4; stroke-opacity:1; fill:none" points="202.227,723.722 221.125,723.722 "/>
<polyline clip-path="url(#clip620)" style="stroke:#000000; stroke-linecap:round; stroke-linejoin:round; stroke-width:4; stroke-opacity:1; fill:none" points="202.227,379.083 221.125,379.083 "/>
<path clip-path="url(#clip620)" d="M154.283 1398.8 Q150.672 1398.8 148.843 1402.36 Q147.038 1405.9 147.038 1413.03 Q147.038 1420.14 148.843 1423.71 Q150.672 1427.25 154.283 1427.25 Q157.917 1427.25 159.723 1423.71 Q161.552 1420.14 161.552 1413.03 Q161.552 1405.9 159.723 1402.36 Q157.917 1398.8 154.283 1398.8 M154.283 1395.09 Q160.093 1395.09 163.149 1399.7 Q166.227 1404.28 166.227 1413.03 Q166.227 1421.76 163.149 1426.37 Q160.093 1430.95 154.283 1430.95 Q148.473 1430.95 145.394 1426.37 Q142.339 1421.76 142.339 1413.03 Q142.339 1404.28 145.394 1399.7 Q148.473 1395.09 154.283 1395.09 Z" fill="#000000" fill-rule="nonzero" fill-opacity="1" /><path clip-path="url(#clip620)" d="M145.325 1051.08 L163.681 1051.08 L163.681 1055.02 L149.607 1055.02 L149.607 1063.49 Q150.626 1063.14 151.644 1062.98 Q152.663 1062.79 153.681 1062.79 Q159.468 1062.79 162.848 1065.97 Q166.227 1069.14 166.227 1074.55 Q166.227 1080.13 162.755 1083.23 Q159.283 1086.31 152.964 1086.31 Q150.788 1086.31 148.519 1085.94 Q146.274 1085.57 143.866 1084.83 L143.866 1080.13 Q145.95 1081.27 148.172 1081.82 Q150.394 1082.38 152.871 1082.38 Q156.876 1082.38 159.214 1080.27 Q161.552 1078.16 161.552 1074.55 Q161.552 1070.94 159.214 1068.84 Q156.876 1066.73 152.871 1066.73 Q150.996 1066.73 149.121 1067.15 Q147.269 1067.56 145.325 1068.44 L145.325 1051.08 Z" fill="#000000" fill-rule="nonzero" fill-opacity="1" /><path clip-path="url(#clip620)" d="M114.931 737.067 L122.57 737.067 L122.57 710.701 L114.26 712.368 L114.26 708.109 L122.524 706.442 L127.2 706.442 L127.2 737.067 L134.839 737.067 L134.839 741.002 L114.931 741.002 L114.931 737.067 Z" fill="#000000" fill-rule="nonzero" fill-opacity="1" /><path clip-path="url(#clip620)" d="M154.283 709.521 Q150.672 709.521 148.843 713.085 Q147.038 716.627 147.038 723.757 Q147.038 730.863 148.843 734.428 Q150.672 737.97 154.283 737.97 Q157.917 737.97 159.723 734.428 Q161.552 730.863 161.552 723.757 Q161.552 716.627 159.723 713.085 Q157.917 709.521 154.283 709.521 M154.283 705.817 Q160.093 705.817 163.149 710.423 Q166.227 715.007 166.227 723.757 Q166.227 732.484 163.149 737.09 Q160.093 741.673 154.283 741.673 Q148.473 741.673 145.394 737.09 Q142.339 732.484 142.339 723.757 Q142.339 715.007 145.394 710.423 Q148.473 705.817 154.283 705.817 Z" fill="#000000" fill-rule="nonzero" fill-opacity="1" /><path clip-path="url(#clip620)" d="M115.927 392.428 L123.566 392.428 L123.566 366.062 L115.256 367.729 L115.256 363.47 L123.519 361.803 L128.195 361.803 L128.195 392.428 L135.834 392.428 L135.834 396.363 L115.927 396.363 L115.927 392.428 Z" fill="#000000" fill-rule="nonzero" fill-opacity="1" /><path clip-path="url(#clip620)" d="M145.325 361.803 L163.681 361.803 L163.681 365.738 L149.607 365.738 L149.607 374.211 Q150.626 373.863 151.644 373.701 Q152.663 373.516 153.681 373.516 Q159.468 373.516 162.848 376.687 Q166.227 379.859 166.227 385.275 Q166.227 390.854 162.755 393.956 Q159.283 397.034 152.964 397.034 Q150.788 397.034 148.519 396.664 Q146.274 396.294 143.866 395.553 L143.866 390.854 Q145.95 391.988 148.172 392.544 Q150.394 393.099 152.871 393.099 Q156.876 393.099 159.214 390.993 Q161.552 388.886 161.552 385.275 Q161.552 381.664 159.214 379.558 Q156.876 377.451 152.871 377.451 Q150.996 377.451 149.121 377.868 Q147.269 378.285 145.325 379.164 L145.325 361.803 Z" fill="#000000" fill-rule="nonzero" fill-opacity="1" /><path clip-path="url(#clip620)" d="M16.4842 755.248 L16.4842 748.341 L36.0269 735.164 L16.4842 722.083 L16.4842 715.176 L41.3741 731.981 L64.0042 731.981 L64.0042 738.443 L41.3741 738.443 L16.4842 755.248 Z" fill="#000000" fill-rule="nonzero" fill-opacity="1" /><circle clip-path="url(#clip622)" cx="263.091" cy="1344.28" r="14.4" fill="#009af9" fill-rule="evenodd" fill-opacity="1" stroke="#000000" stroke-opacity="1" stroke-width="3.2"/>
<circle clip-path="url(#clip622)" cx="365.305" cy="1283.06" r="14.4" fill="#009af9" fill-rule="evenodd" fill-opacity="1" stroke="#000000" stroke-opacity="1" stroke-width="3.2"/>
<circle clip-path="url(#clip622)" cx="465.847" cy="1384.24" r="14.4" fill="#009af9" fill-rule="evenodd" fill-opacity="1" stroke="#000000" stroke-opacity="1" stroke-width="3.2"/>
<circle clip-path="url(#clip622)" cx="325.133" cy="1142" r="14.4" fill="#009af9" fill-rule="evenodd" fill-opacity="1" stroke="#000000" stroke-opacity="1" stroke-width="3.2"/>
<circle clip-path="url(#clip622)" cx="323.791" cy="1382.65" r="14.4" fill="#009af9" fill-rule="evenodd" fill-opacity="1" stroke="#000000" stroke-opacity="1" stroke-width="3.2"/>
<circle clip-path="url(#clip622)" cx="2291.89" cy="856.338" r="14.4" fill="#009af9" fill-rule="evenodd" fill-opacity="1" stroke="#000000" stroke-opacity="1" stroke-width="3.2"/>
<circle clip-path="url(#clip622)" cx="1576.33" cy="86.1857" r="14.4" fill="#009af9" fill-rule="evenodd" fill-opacity="1" stroke="#000000" stroke-opacity="1" stroke-width="3.2"/>
<circle clip-path="url(#clip622)" cx="2288.62" cy="977.245" r="14.4" fill="#009af9" fill-rule="evenodd" fill-opacity="1" stroke="#000000" stroke-opacity="1" stroke-width="3.2"/>
<circle clip-path="url(#clip622)" cx="2232.66" cy="389.018" r="14.4" fill="#009af9" fill-rule="evenodd" fill-opacity="1" stroke="#000000" stroke-opacity="1" stroke-width="3.2"/>
<circle clip-path="url(#clip622)" cx="1595.16" cy="981.878" r="14.4" fill="#009af9" fill-rule="evenodd" fill-opacity="1" stroke="#000000" stroke-opacity="1" stroke-width="3.2"/>
<circle clip-path="url(#clip622)" cx="1576.33" cy="86.1857" r="14.4" fill="#e26f46" fill-rule="evenodd" fill-opacity="1" stroke="#000000" stroke-opacity="1" stroke-width="3.2"/>
<circle clip-path="url(#clip622)" cx="2288.62" cy="977.245" r="14.4" fill="#e26f46" fill-rule="evenodd" fill-opacity="1" stroke="#000000" stroke-opacity="1" stroke-width="3.2"/>
<path clip-path="url(#clip620)" d="M273.912 248.629 L710.306 248.629 L710.306 93.1086 L273.912 93.1086  Z" fill="#ffffff" fill-rule="evenodd" fill-opacity="1"/>
<polyline clip-path="url(#clip620)" style="stroke:#000000; stroke-linecap:round; stroke-linejoin:round; stroke-width:4; stroke-opacity:1; fill:none" points="273.912,248.629 710.306,248.629 710.306,93.1086 273.912,93.1086 273.912,248.629 "/>
<circle clip-path="url(#clip620)" cx="369.491" cy="144.949" r="20.48" fill="#009af9" fill-rule="evenodd" fill-opacity="1" stroke="#000000" stroke-opacity="1" stroke-width="4.55111"/>
<path clip-path="url(#clip620)" d="M483.982 140.238 L483.982 126.21 L488.241 126.21 L488.241 162.229 L483.982 162.229 L483.982 158.34 Q482.639 160.655 480.579 161.789 Q478.542 162.9 475.672 162.9 Q470.973 162.9 468.01 159.15 Q465.07 155.4 465.07 149.289 Q465.07 143.178 468.01 139.428 Q470.973 135.678 475.672 135.678 Q478.542 135.678 480.579 136.812 Q482.639 137.923 483.982 140.238 M469.468 149.289 Q469.468 153.988 471.389 156.673 Q473.334 159.335 476.713 159.335 Q480.093 159.335 482.037 156.673 Q483.982 153.988 483.982 149.289 Q483.982 144.59 482.037 141.928 Q480.093 139.243 476.713 139.243 Q473.334 139.243 471.389 141.928 Q469.468 144.59 469.468 149.289 Z" fill="#000000" fill-rule="nonzero" fill-opacity="1" /><path clip-path="url(#clip620)" d="M508.796 149.196 Q503.634 149.196 501.644 150.377 Q499.653 151.557 499.653 154.405 Q499.653 156.673 501.134 158.016 Q502.639 159.335 505.209 159.335 Q508.75 159.335 510.88 156.835 Q513.033 154.312 513.033 150.145 L513.033 149.196 L508.796 149.196 M517.292 147.437 L517.292 162.229 L513.033 162.229 L513.033 158.293 Q511.574 160.655 509.398 161.789 Q507.222 162.9 504.074 162.9 Q500.093 162.9 497.732 160.678 Q495.394 158.432 495.394 154.682 Q495.394 150.307 498.31 148.085 Q501.25 145.863 507.06 145.863 L513.033 145.863 L513.033 145.446 Q513.033 142.507 511.088 140.909 Q509.167 139.289 505.671 139.289 Q503.449 139.289 501.343 139.821 Q499.236 140.354 497.292 141.419 L497.292 137.483 Q499.63 136.581 501.829 136.141 Q504.028 135.678 506.111 135.678 Q511.736 135.678 514.514 138.594 Q517.292 141.511 517.292 147.437 Z" fill="#000000" fill-rule="nonzero" fill-opacity="1" /><path clip-path="url(#clip620)" d="M530.278 128.942 L530.278 136.303 L539.051 136.303 L539.051 139.613 L530.278 139.613 L530.278 153.687 Q530.278 156.858 531.134 157.761 Q532.014 158.664 534.676 158.664 L539.051 158.664 L539.051 162.229 L534.676 162.229 Q529.745 162.229 527.87 160.4 Q525.995 158.548 525.995 153.687 L525.995 139.613 L522.87 139.613 L522.87 136.303 L525.995 136.303 L525.995 128.942 L530.278 128.942 Z" fill="#000000" fill-rule="nonzero" fill-opacity="1" /><path clip-path="url(#clip620)" d="M556.435 149.196 Q551.273 149.196 549.282 150.377 Q547.292 151.557 547.292 154.405 Q547.292 156.673 548.773 158.016 Q550.278 159.335 552.847 159.335 Q556.389 159.335 558.518 156.835 Q560.671 154.312 560.671 150.145 L560.671 149.196 L556.435 149.196 M564.93 147.437 L564.93 162.229 L560.671 162.229 L560.671 158.293 Q559.213 160.655 557.037 161.789 Q554.861 162.9 551.713 162.9 Q547.731 162.9 545.37 160.678 Q543.032 158.432 543.032 154.682 Q543.032 150.307 545.949 148.085 Q548.889 145.863 554.699 145.863 L560.671 145.863 L560.671 145.446 Q560.671 142.507 558.727 140.909 Q556.805 139.289 553.31 139.289 Q551.088 139.289 548.981 139.821 Q546.875 140.354 544.931 141.419 L544.931 137.483 Q547.268 136.581 549.468 136.141 Q551.667 135.678 553.75 135.678 Q559.375 135.678 562.153 138.594 Q564.93 141.511 564.93 147.437 Z" fill="#000000" fill-rule="nonzero" fill-opacity="1" /><path clip-path="url(#clip620)" d="M593.402 170.099 L593.402 173.409 L568.773 173.409 L568.773 170.099 L593.402 170.099 Z" fill="#000000" fill-rule="nonzero" fill-opacity="1" /><path clip-path="url(#clip620)" d="M613.935 137.067 L613.935 141.094 Q612.129 140.169 610.185 139.706 Q608.24 139.243 606.157 139.243 Q602.986 139.243 601.389 140.215 Q599.814 141.187 599.814 143.131 Q599.814 144.613 600.949 145.469 Q602.083 146.303 605.509 147.067 L606.967 147.391 Q611.504 148.363 613.402 150.145 Q615.324 151.905 615.324 155.076 Q615.324 158.687 612.453 160.793 Q609.606 162.9 604.606 162.9 Q602.523 162.9 600.254 162.483 Q598.009 162.09 595.509 161.28 L595.509 156.881 Q597.87 158.108 600.162 158.733 Q602.453 159.335 604.699 159.335 Q607.708 159.335 609.328 158.317 Q610.949 157.275 610.949 155.4 Q610.949 153.664 609.768 152.738 Q608.611 151.812 604.652 150.956 L603.171 150.608 Q599.213 149.775 597.453 148.062 Q595.694 146.326 595.694 143.317 Q595.694 139.659 598.287 137.669 Q600.879 135.678 605.648 135.678 Q608.009 135.678 610.092 136.025 Q612.176 136.372 613.935 137.067 Z" fill="#000000" fill-rule="nonzero" fill-opacity="1" /><circle clip-path="url(#clip620)" cx="369.491" cy="196.789" r="20.48" fill="#e26f46" fill-rule="evenodd" fill-opacity="1" stroke="#000000" stroke-opacity="1" stroke-width="4.55111"/>
<path clip-path="url(#clip620)" d="M492.94 182.171 L492.94 187.101 Q490.579 184.902 487.894 183.814 Q485.232 182.726 482.223 182.726 Q476.297 182.726 473.148 186.36 Q470 189.972 470 196.823 Q470 203.652 473.148 207.286 Q476.297 210.897 482.223 210.897 Q485.232 210.897 487.894 209.809 Q490.579 208.721 492.94 206.522 L492.94 211.407 Q490.486 213.073 487.732 213.907 Q485 214.74 481.945 214.74 Q474.098 214.74 469.584 209.948 Q465.07 205.133 465.07 196.823 Q465.07 188.49 469.584 183.698 Q474.098 178.884 481.945 178.884 Q485.047 178.884 487.778 179.717 Q490.533 180.527 492.94 182.171 Z" fill="#000000" fill-rule="nonzero" fill-opacity="1" /><path clip-path="url(#clip620)" d="M522.153 200.041 L522.153 202.124 L502.57 202.124 Q502.847 206.522 505.209 208.837 Q507.593 211.129 511.829 211.129 Q514.283 211.129 516.574 210.527 Q518.889 209.925 521.157 208.721 L521.157 212.749 Q518.866 213.721 516.458 214.231 Q514.051 214.74 511.574 214.74 Q505.371 214.74 501.736 211.129 Q498.125 207.518 498.125 201.36 Q498.125 194.995 501.551 191.268 Q505 187.518 510.833 187.518 Q516.065 187.518 519.097 190.897 Q522.153 194.254 522.153 200.041 M517.894 198.791 Q517.847 195.296 515.926 193.212 Q514.028 191.129 510.88 191.129 Q507.315 191.129 505.162 193.143 Q503.033 195.157 502.709 198.814 L517.894 198.791 Z" fill="#000000" fill-rule="nonzero" fill-opacity="1" /><path clip-path="url(#clip620)" d="M550.694 198.421 L550.694 214.069 L546.435 214.069 L546.435 198.559 Q546.435 194.879 545 193.05 Q543.565 191.222 540.694 191.222 Q537.245 191.222 535.255 193.421 Q533.264 195.62 533.264 199.416 L533.264 214.069 L528.982 214.069 L528.982 188.143 L533.264 188.143 L533.264 192.171 Q534.792 189.833 536.852 188.675 Q538.935 187.518 541.643 187.518 Q546.111 187.518 548.403 190.296 Q550.694 193.05 550.694 198.421 Z" fill="#000000" fill-rule="nonzero" fill-opacity="1" /><path clip-path="url(#clip620)" d="M563.403 180.782 L563.403 188.143 L572.176 188.143 L572.176 191.453 L563.403 191.453 L563.403 205.527 Q563.403 208.698 564.259 209.601 Q565.139 210.504 567.801 210.504 L572.176 210.504 L572.176 214.069 L567.801 214.069 Q562.87 214.069 560.995 212.24 Q559.12 210.388 559.12 205.527 L559.12 191.453 L555.995 191.453 L555.995 188.143 L559.12 188.143 L559.12 180.782 L563.403 180.782 Z" fill="#000000" fill-rule="nonzero" fill-opacity="1" /><path clip-path="url(#clip620)" d="M592.801 192.124 Q592.083 191.708 591.227 191.522 Q590.393 191.314 589.375 191.314 Q585.764 191.314 583.819 193.675 Q581.898 196.013 581.898 200.411 L581.898 214.069 L577.616 214.069 L577.616 188.143 L581.898 188.143 L581.898 192.171 Q583.24 189.809 585.393 188.675 Q587.546 187.518 590.625 187.518 Q591.065 187.518 591.597 187.587 Q592.129 187.634 592.777 187.749 L592.801 192.124 Z" fill="#000000" fill-rule="nonzero" fill-opacity="1" /><path clip-path="url(#clip620)" d="M606.273 191.129 Q602.847 191.129 600.856 193.814 Q598.865 196.476 598.865 201.129 Q598.865 205.782 600.833 208.467 Q602.824 211.129 606.273 211.129 Q609.676 211.129 611.666 208.444 Q613.657 205.758 613.657 201.129 Q613.657 196.522 611.666 193.837 Q609.676 191.129 606.273 191.129 M606.273 187.518 Q611.828 187.518 615 191.129 Q618.171 194.74 618.171 201.129 Q618.171 207.495 615 211.129 Q611.828 214.74 606.273 214.74 Q600.694 214.74 597.523 211.129 Q594.375 207.495 594.375 201.129 Q594.375 194.74 597.523 191.129 Q600.694 187.518 606.273 187.518 Z" fill="#000000" fill-rule="nonzero" fill-opacity="1" /><path clip-path="url(#clip620)" d="M625.231 188.143 L629.49 188.143 L629.49 214.069 L625.231 214.069 L625.231 188.143 M625.231 178.05 L629.49 178.05 L629.49 183.444 L625.231 183.444 L625.231 178.05 Z" fill="#000000" fill-rule="nonzero" fill-opacity="1" /><path clip-path="url(#clip620)" d="M655.462 192.078 L655.462 178.05 L659.722 178.05 L659.722 214.069 L655.462 214.069 L655.462 210.18 Q654.12 212.495 652.06 213.629 Q650.023 214.74 647.152 214.74 Q642.453 214.74 639.49 210.99 Q636.55 207.24 636.55 201.129 Q636.55 195.018 639.49 191.268 Q642.453 187.518 647.152 187.518 Q650.023 187.518 652.06 188.652 Q654.12 189.763 655.462 192.078 M640.949 201.129 Q640.949 205.828 642.87 208.513 Q644.814 211.175 648.194 211.175 Q651.573 211.175 653.518 208.513 Q655.462 205.828 655.462 201.129 Q655.462 196.43 653.518 193.768 Q651.573 191.083 648.194 191.083 Q644.814 191.083 642.87 193.768 Q640.949 196.43 640.949 201.129 Z" fill="#000000" fill-rule="nonzero" fill-opacity="1" /><path clip-path="url(#clip620)" d="M685.022 188.907 L685.022 192.934 Q683.217 192.009 681.272 191.546 Q679.328 191.083 677.245 191.083 Q674.073 191.083 672.476 192.055 Q670.902 193.027 670.902 194.971 Q670.902 196.453 672.036 197.309 Q673.171 198.143 676.596 198.907 L678.055 199.231 Q682.592 200.203 684.49 201.985 Q686.411 203.745 686.411 206.916 Q686.411 210.527 683.541 212.633 Q680.694 214.74 675.694 214.74 Q673.61 214.74 671.342 214.323 Q669.097 213.93 666.597 213.12 L666.597 208.721 Q668.958 209.948 671.249 210.573 Q673.541 211.175 675.786 211.175 Q678.796 211.175 680.416 210.157 Q682.036 209.115 682.036 207.24 Q682.036 205.504 680.856 204.578 Q679.698 203.652 675.74 202.796 L674.259 202.448 Q670.3 201.615 668.541 199.902 Q666.782 198.166 666.782 195.157 Q666.782 191.499 669.374 189.509 Q671.967 187.518 676.735 187.518 Q679.096 187.518 681.18 187.865 Q683.263 188.212 685.022 188.907 Z" fill="#000000" fill-rule="nonzero" fill-opacity="1" /></svg>
