<?xml version="1.0" encoding="utf-8"?>
<svg xmlns="http://www.w3.org/2000/svg" xmlns:xlink="http://www.w3.org/1999/xlink" width="600" height="400" viewBox="0 0 2400 1600">
<defs>
  <clipPath id="clip980">
    <rect x="0" y="0" width="2400" height="1600"/>
  </clipPath>
</defs>
<path clip-path="url(#clip980)" d="M0 1600 L2400 1600 L2400 0 L0 0  Z" fill="#ffffff" fill-rule="evenodd" fill-opacity="1"/>
<defs>
  <clipPath id="clip981">
    <rect x="480" y="0" width="1681" height="1600"/>
  </clipPath>
</defs>
<path clip-path="url(#clip980)" d="M202.227 1423.18 L2352.76 1423.18 L2352.76 47.2441 L202.227 47.2441  Z" fill="#ffffff" fill-rule="evenodd" fill-opacity="1"/>
<defs>
  <clipPath id="clip982">
    <rect x="202" y="47" width="2152" height="1377"/>
  </clipPath>
</defs>
<polyline clip-path="url(#clip982)" style="stroke:#000000; stroke-linecap:round; stroke-linejoin:round; stroke-width:2; stroke-opacity:0.1; fill:none" points="467.447,1423.18 467.447,47.2441 "/>
<polyline clip-path="url(#clip982)" style="stroke:#000000; stroke-linecap:round; stroke-linejoin:round; stroke-width:2; stroke-opacity:0.1; fill:none" points="941.39,1423.18 941.39,47.2441 "/>
<polyline clip-path="url(#clip982)" style="stroke:#000000; stroke-linecap:round; stroke-linejoin:round; stroke-width:2; stroke-opacity:0.1; fill:none" points="1415.33,1423.18 1415.33,47.2441 "/>
<polyline clip-path="url(#clip982)" style="stroke:#000000; stroke-linecap:round; stroke-linejoin:round; stroke-width:2; stroke-opacity:0.1; fill:none" points="1889.28,1423.18 1889.28,47.2441 "/>
<polyline clip-path="url(#clip980)" style="stroke:#000000; stroke-linecap:round; stroke-linejoin:round; stroke-width:4; stroke-opacity:1; fill:none" points="202.227,1423.18 2352.76,1423.18 "/>
<polyline clip-path="url(#clip980)" style="stroke:#000000; stroke-linecap:round; stroke-linejoin:round; stroke-width:4; stroke-opacity:1; fill:none" points="467.447,1423.18 467.447,1404.28 "/>
<polyline clip-path="url(#clip980)" style="stroke:#000000; stroke-linecap:round; stroke-linejoin:round; stroke-width:4; stroke-opacity:1; fill:none" points="941.39,1423.18 941.39,1404.28 "/>
<polyline clip-path="url(#clip980)" style="stroke:#000000; stroke-linecap:round; stroke-linejoin:round; stroke-width:4; stroke-opacity:1; fill:none" points="1415.33,1423.18 1415.33,1404.28 "/>
<polyline clip-path="url(#clip980)" style="stroke:#000000; stroke-linecap:round; stroke-linejoin:round; stroke-width:4; stroke-opacity:1; fill:none" points="1889.28,1423.18 1889.28,1404.28 "/>
<path clip-path="url(#clip980)" d="M462.1 1481.64 L478.419 1481.64 L478.419 1485.58 L456.475 1485.58 L456.475 1481.64 Q459.137 1478.89 463.72 1474.26 Q468.327 1469.61 469.507 1468.27 Q471.753 1465.74 472.632 1464.01 Q473.535 1462.25 473.535 1460.56 Q473.535 1457.8 471.591 1456.07 Q469.669 1454.33 466.568 1454.33 Q464.369 1454.33 461.915 1455.09 Q459.484 1455.86 456.707 1457.41 L456.707 1452.69 Q459.531 1451.55 461.984 1450.97 Q464.438 1450.39 466.475 1450.39 Q471.845 1450.39 475.04 1453.08 Q478.234 1455.77 478.234 1460.26 Q478.234 1462.39 477.424 1464.31 Q476.637 1466.2 474.531 1468.8 Q473.952 1469.47 470.85 1472.69 Q467.748 1475.88 462.1 1481.64 Z" fill="#000000" fill-rule="nonzero" fill-opacity="1" /><path clip-path="url(#clip980)" d="M944.4 1455.09 L932.594 1473.54 L944.4 1473.54 L944.4 1455.09 M943.173 1451.02 L949.052 1451.02 L949.052 1473.54 L953.983 1473.54 L953.983 1477.43 L949.052 1477.43 L949.052 1485.58 L944.4 1485.58 L944.4 1477.43 L928.798 1477.43 L928.798 1472.92 L943.173 1451.02 Z" fill="#000000" fill-rule="nonzero" fill-opacity="1" /><path clip-path="url(#clip980)" d="M1415.74 1466.44 Q1412.59 1466.44 1410.74 1468.59 Q1408.91 1470.74 1408.91 1474.49 Q1408.91 1478.22 1410.74 1480.39 Q1412.59 1482.55 1415.74 1482.55 Q1418.89 1482.55 1420.72 1480.39 Q1422.57 1478.22 1422.57 1474.49 Q1422.57 1470.74 1420.72 1468.59 Q1418.89 1466.44 1415.74 1466.44 M1425.02 1451.78 L1425.02 1456.04 Q1423.26 1455.21 1421.46 1454.77 Q1419.67 1454.33 1417.91 1454.33 Q1413.28 1454.33 1410.83 1457.45 Q1408.4 1460.58 1408.05 1466.9 Q1409.42 1464.89 1411.48 1463.82 Q1413.54 1462.73 1416.02 1462.73 Q1421.22 1462.73 1424.23 1465.9 Q1427.27 1469.05 1427.27 1474.49 Q1427.27 1479.82 1424.12 1483.03 Q1420.97 1486.25 1415.74 1486.25 Q1409.74 1486.25 1406.57 1481.67 Q1403.4 1477.06 1403.4 1468.33 Q1403.4 1460.14 1407.29 1455.28 Q1411.18 1450.39 1417.73 1450.39 Q1419.49 1450.39 1421.27 1450.74 Q1423.08 1451.09 1425.02 1451.78 Z" fill="#000000" fill-rule="nonzero" fill-opacity="1" /><path clip-path="url(#clip980)" d="M1889.28 1469.17 Q1885.94 1469.17 1884.02 1470.95 Q1882.12 1472.73 1882.12 1475.86 Q1882.12 1478.98 1884.02 1480.77 Q1885.94 1482.55 1889.28 1482.55 Q1892.61 1482.55 1894.53 1480.77 Q1896.45 1478.96 1896.45 1475.86 Q1896.45 1472.73 1894.53 1470.95 Q1892.63 1469.17 1889.28 1469.17 M1884.6 1467.18 Q1881.59 1466.44 1879.9 1464.38 Q1878.23 1462.32 1878.23 1459.35 Q1878.23 1455.21 1881.17 1452.8 Q1884.14 1450.39 1889.28 1450.39 Q1894.44 1450.39 1897.38 1452.8 Q1900.32 1455.21 1900.32 1459.35 Q1900.32 1462.32 1898.63 1464.38 Q1896.96 1466.44 1893.98 1467.18 Q1897.36 1467.96 1899.23 1470.26 Q1901.13 1472.55 1901.13 1475.86 Q1901.13 1480.88 1898.05 1483.57 Q1894.99 1486.25 1889.28 1486.25 Q1883.56 1486.25 1880.48 1483.57 Q1877.42 1480.88 1877.42 1475.86 Q1877.42 1472.55 1879.32 1470.26 Q1881.22 1467.96 1884.6 1467.18 M1882.89 1459.79 Q1882.89 1462.48 1884.55 1463.98 Q1886.24 1465.49 1889.28 1465.49 Q1892.29 1465.49 1893.98 1463.98 Q1895.69 1462.48 1895.69 1459.79 Q1895.69 1457.11 1893.98 1455.6 Q1892.29 1454.1 1889.28 1454.1 Q1886.24 1454.1 1884.55 1455.6 Q1882.89 1457.11 1882.89 1459.79 Z" fill="#000000" fill-rule="nonzero" fill-opacity="1" /><path clip-path="url(#clip980)" d="M1259.32 1520.52 L1266.22 1520.52 L1278.03 1538.19 L1289.9 1520.52 L1296.81 1520.52 L1281.53 1543.34 L1297.83 1568.04 L1290.92 1568.04 L1277.56 1547.83 L1264.09 1568.04 L1257.15 1568.04 L1274.12 1542.68 L1259.32 1520.52 Z" fill="#000000" fill-rule="nonzero" fill-opacity="1" /><polyline clip-path="url(#clip982)" style="stroke:#000000; stroke-linecap:round; stroke-linejoin:round; stroke-width:2; stroke-opacity:0.1; fill:none" points="202.227,1413 2352.76,1413 "/>
<polyline clip-path="url(#clip982)" style="stroke:#000000; stroke-linecap:round; stroke-linejoin:round; stroke-width:2; stroke-opacity:0.1; fill:none" points="202.227,1068.36 2352.76,1068.36 "/>
<polyline clip-path="url(#clip982)" style="stroke:#000000; stroke-linecap:round; stroke-linejoin:round; stroke-width:2; stroke-opacity:0.1; fill:none" points="202.227,723.722 2352.76,723.722 "/>
<polyline clip-path="url(#clip982)" style="stroke:#000000; stroke-linecap:round; stroke-linejoin:round; stroke-width:2; stroke-opacity:0.1; fill:none" points="202.227,379.083 2352.76,379.083 "/>
<polyline clip-path="url(#clip980)" style="stroke:#000000; stroke-linecap:round; stroke-linejoin:round; stroke-width:4; stroke-opacity:1; fill:none" points="202.227,1423.18 202.227,47.2441 "/>
<polyline clip-path="url(#clip980)" style="stroke:#000000; stroke-linecap:round; stroke-linejoin:round; stroke-width:4; stroke-opacity:1; fill:none" points="202.227,1413 221.125,1413 "/>
<polyline clip-path="url(#clip980)" style="stroke:#000000; stroke-linecap:round; stroke-linejoin:round; stroke-width:4; stroke-opacity:1; fill:none" points="202.227,1068.36 221.125,1068.36 "/>
<polyline clip-path="url(#clip980)" style="stroke:#000000; stroke-linecap:round; stroke-linejoin:round; stroke-width:4; stroke-opacity:1; fill:none" points="202.227,723.722 221.125,723.722 "/>
<polyline clip-path="url(#clip980)" style="stroke:#000000; stroke-linecap:round; stroke-linejoin:round; stroke-width:4; stroke-opacity:1; fill:none" points="202.227,379.083 221.125,379.083 "/>
<path clip-path="url(#clip980)" d="M154.283 1398.8 Q150.672 1398.8 148.843 1402.36 Q147.038 1405.9 147.038 1413.03 Q147.038 1420.14 148.843 1423.71 Q150.672 1427.25 154.283 1427.25 Q157.917 1427.25 159.723 1423.71 Q161.552 1420.14 161.552 1413.03 Q161.552 1405.9 159.723 1402.36 Q157.917 1398.8 154.283 1398.8 M154.283 1395.09 Q160.093 1395.09 163.149 1399.7 Q166.227 1404.28 166.227 1413.03 Q166.227 1421.76 163.149 1426.37 Q160.093 1430.95 154.283 1430.95 Q148.473 1430.95 145.394 1426.37 Q142.339 1421.76 142.339 1413.03 Q142.339 1404.28 145.394 1399.7 Q148.473 1395.09 154.283 1395.09 Z" fill="#000000" fill-rule="nonzero" fill-opacity="1" /><path clip-path="url(#clip980)" d="M145.325 1051.08 L163.681 1051.08 L163.681 1055.02 L149.607 1055.02 L149.607 1063.49 Q150.626 1063.14 151.644 1062.98 Q152.663 1062.79 153.681 1062.79 Q159.468 1062.79 162.848 1065.97 Q166.227 1069.14 166.227 1074.55 Q166.227 1080.13 162.755 1083.23 Q159.283 1086.31 152.964 1086.31 Q150.788 1086.31 148.519 1085.94 Q146.274 1085.57 143.866 1084.83 L143.866 1080.13 Q145.95 1081.27 148.172 1081.82 Q150.394 1082.38 152.871 1082.38 Q156.876 1082.38 159.214 1080.27 Q161.552 1078.16 161.552 1074.55 Q161.552 1070.94 159.214 1068.84 Q156.876 1066.73 152.871 1066.73 Q150.996 1066.73 149.121 1067.15 Q147.269 1067.56 145.325 1068.44 L145.325 1051.08 Z" fill="#000000" fill-rule="nonzero" fill-opacity="1" /><path clip-path="url(#clip980)" d="M114.931 737.067 L122.57 737.067 L122.57 710.701 L114.26 712.368 L114.26 708.109 L122.524 706.442 L127.2 706.442 L127.2 737.067 L134.839 737.067 L134.839 741.002 L114.931 741.002 L114.931 737.067 Z" fill="#000000" fill-rule="nonzero" fill-opacity="1" /><path clip-path="url(#clip980)" d="M154.283 709.521 Q150.672 709.521 148.843 713.085 Q147.038 716.627 147.038 723.757 Q147.038 730.863 148.843 734.428 Q150.672 737.97 154.283 737.97 Q157.917 737.97 159.723 734.428 Q161.552 730.863 161.552 723.757 Q161.552 716.627 159.723 713.085 Q157.917 709.521 154.283 709.521 M154.283 705.817 Q160.093 705.817 163.149 710.423 Q166.227 715.007 166.227 723.757 Q166.227 732.484 163.149 737.09 Q160.093 741.673 154.283 741.673 Q148.473 741.673 145.394 737.09 Q142.339 732.484 142.339 723.757 Q142.339 715.007 145.394 710.423 Q148.473 705.817 154.283 705.817 Z" fill="#000000" fill-rule="nonzero" fill-opacity="1" /><path clip-path="url(#clip980)" d="M115.927 392.428 L123.566 392.428 L123.566 366.062 L115.256 367.729 L115.256 363.47 L123.519 361.803 L128.195 361.803 L128.195 392.428 L135.834 392.428 L135.834 396.363 L115.927 396.363 L115.927 392.428 Z" fill="#000000" fill-rule="nonzero" fill-opacity="1" /><path clip-path="url(#clip980)" d="M145.325 361.803 L163.681 361.803 L163.681 365.738 L149.607 365.738 L149.607 374.211 Q150.626 373.863 151.644 373.701 Q152.663 373.516 153.681 373.516 Q159.468 373.516 162.848 376.687 Q166.227 379.859 166.227 385.275 Q166.227 390.854 162.755 393.956 Q159.283 397.034 152.964 397.034 Q150.788 397.034 148.519 396.664 Q146.274 396.294 143.866 395.553 L143.866 390.854 Q145.95 391.988 148.172 392.544 Q150.394 393.099 152.871 393.099 Q156.876 393.099 159.214 390.993 Q161.552 388.886 161.552 385.275 Q161.552 381.664 159.214 379.558 Q156.876 377.451 152.871 377.451 Q150.996 377.451 149.121 377.868 Q147.269 378.285 145.325 379.164 L145.325 361.803 Z" fill="#000000" fill-rule="nonzero" fill-opacity="1" /><path clip-path="url(#clip980)" d="M16.4842 755.248 L16.4842 748.341 L36.0269 735.164 L16.4842 722.083 L16.4842 715.176 L41.3741 731.981 L64.0042 731.981 L64.0042 738.443 L41.3741 738.443 L16.4842 755.248 Z" fill="#000000" fill-rule="nonzero" fill-opacity="1" /><circle clip-path="url(#clip982)" cx="2291.89" cy="856.338" r="14.4" fill="#009af9" fill-rule="evenodd" fill-opacity="1" stroke="#000000" stroke-opacity="1" stroke-width="3.2"/>
<circle clip-path="url(#clip982)" cx="1576.33" cy="86.1857" r="14.4" fill="#009af9" fill-rule="evenodd" fill-opacity="1" stroke="#000000" stroke-opacity="1" stroke-width="3.2"/>
<circle clip-path="url(#clip982)" cx="2288.62" cy="977.245" r="14.4" fill="#009af9" fill-rule="evenodd" fill-opacity="1" stroke="#000000" stroke-opacity="1" stroke-width="3.2"/>
<circle clip-path="url(#clip982)" cx="2232.66" cy="389.018" r="14.4" fill="#009af9" fill-rule="evenodd" fill-opacity="1" stroke="#000000" stroke-opacity="1" stroke-width="3.2"/>
<circle clip-path="url(#clip982)" cx="1595.16" cy="981.878" r="14.4" fill="#009af9" fill-rule="evenodd" fill-opacity="1" stroke="#000000" stroke-opacity="1" stroke-width="3.2"/>
<circle clip-path="url(#clip982)" cx="263.091" cy="1344.28" r="14.4" fill="#e26f46" fill-rule="evenodd" fill-opacity="1" stroke="#000000" stroke-opacity="1" stroke-width="3.2"/>
<circle clip-path="url(#clip982)" cx="365.305" cy="1283.06" r="14.4" fill="#e26f46" fill-rule="evenodd" fill-opacity="1" stroke="#000000" stroke-opacity="1" stroke-width="3.2"/>
<circle clip-path="url(#clip982)" cx="465.847" cy="1384.24" r="14.4" fill="#e26f46" fill-rule="evenodd" fill-opacity="1" stroke="#000000" stroke-opacity="1" stroke-width="3.2"/>
<circle clip-path="url(#clip982)" cx="325.133" cy="1142" r="14.4" fill="#e26f46" fill-rule="evenodd" fill-opacity="1" stroke="#000000" stroke-opacity="1" stroke-width="3.2"/>
<circle clip-path="url(#clip982)" cx="323.791" cy="1382.65" r="14.4" fill="#e26f46" fill-rule="evenodd" fill-opacity="1" stroke="#000000" stroke-opacity="1" stroke-width="3.2"/>
<circle clip-path="url(#clip982)" cx="1996.93" cy="658.133" r="14.4" fill="#3da44d" fill-rule="evenodd" fill-opacity="1" stroke="#000000" stroke-opacity="1" stroke-width="3.2"/>
<circle clip-path="url(#clip982)" cx="348.633" cy="1307.25" r="14.4" fill="#3da44d" fill-rule="evenodd" fill-opacity="1" stroke="#000000" stroke-opacity="1" stroke-width="3.2"/>
<path clip-path="url(#clip980)" d="M273.912 300.469 L710.306 300.469 L710.306 93.1086 L273.912 93.1086  Z" fill="#ffffff" fill-rule="evenodd" fill-opacity="1"/>
<polyline clip-path="url(#clip980)" style="stroke:#000000; stroke-linecap:round; stroke-linejoin:round; stroke-width:4; stroke-opacity:1; fill:none" points="273.912,300.469 710.306,300.469 710.306,93.1086 273.912,93.1086 273.912,300.469 "/>
<circle clip-path="url(#clip980)" cx="369.491" cy="144.949" r="20.48" fill="#009af9" fill-rule="evenodd" fill-opacity="1" stroke="#000000" stroke-opacity="1" stroke-width="4.55111"/>
<path clip-path="url(#clip980)" d="M477.014 130.747 Q473.403 130.747 471.574 134.312 Q469.769 137.854 469.769 144.983 Q469.769 152.09 471.574 155.655 Q473.403 159.196 477.014 159.196 Q480.648 159.196 482.454 155.655 Q484.283 152.09 484.283 144.983 Q484.283 137.854 482.454 134.312 Q480.648 130.747 477.014 130.747 M477.014 127.044 Q482.824 127.044 485.88 131.65 Q488.959 136.233 488.959 144.983 Q488.959 153.71 485.88 158.317 Q482.824 162.9 477.014 162.9 Q471.204 162.9 468.125 158.317 Q465.07 153.71 465.07 144.983 Q465.07 136.233 468.125 131.65 Q471.204 127.044 477.014 127.044 Z" fill="#000000" fill-rule="nonzero" fill-opacity="1" /><circle clip-path="url(#clip980)" cx="369.491" cy="196.789" r="20.48" fill="#e26f46" fill-rule="evenodd" fill-opacity="1" stroke="#000000" stroke-opacity="1" stroke-width="4.55111"/>
<path clip-path="url(#clip980)" d="M465.741 210.133 L473.38 210.133 L473.38 183.768 L465.07 185.435 L465.07 181.175 L473.334 179.509 L478.01 179.509 L478.01 210.133 L485.648 210.133 L485.648 214.069 L465.741 214.069 L465.741 210.133 Z" fill="#000000" fill-rule="nonzero" fill-opacity="1" /><circle clip-path="url(#clip980)" cx="369.491" cy="248.629" r="20.48" fill="#3da44d" fill-rule="evenodd" fill-opacity="1" stroke="#000000" stroke-opacity="1" stroke-width="4.55111"/>
<path clip-path="url(#clip980)" d="M492.94 234.011 L492.94 238.941 Q490.579 236.742 487.894 235.654 Q485.232 234.566 482.223 234.566 Q476.297 234.566 473.148 238.2 Q470 241.812 470 248.663 Q470 255.492 473.148 259.126 Q476.297 262.737 482.223 262.737 Q485.232 262.737 487.894 261.649 Q490.579 260.561 492.94 258.362 L492.94 263.247 Q490.486 264.913 487.732 265.747 Q485 266.58 481.945 266.58 Q474.098 266.58 469.584 261.788 Q465.07 256.973 465.07 248.663 Q465.07 240.33 469.584 235.538 Q474.098 230.724 481.945 230.724 Q485.047 230.724 487.778 231.557 Q490.533 232.367 492.94 234.011 Z" fill="#000000" fill-rule="nonzero" fill-opacity="1" /><path clip-path="url(#clip980)" d="M522.153 251.881 L522.153 253.964 L502.57 253.964 Q502.847 258.362 505.209 260.677 Q507.593 262.969 511.829 262.969 Q514.283 262.969 516.574 262.367 Q518.889 261.765 521.157 260.561 L521.157 264.589 Q518.866 265.561 516.458 266.071 Q514.051 266.58 511.574 266.58 Q505.371 266.58 501.736 262.969 Q498.125 259.358 498.125 253.2 Q498.125 246.835 501.551 243.108 Q505 239.358 510.833 239.358 Q516.065 239.358 519.097 242.737 Q522.153 246.094 522.153 251.881 M517.894 250.631 Q517.847 247.136 515.926 245.052 Q514.028 242.969 510.88 242.969 Q507.315 242.969 505.162 244.983 Q503.033 246.997 502.709 250.654 L517.894 250.631 Z" fill="#000000" fill-rule="nonzero" fill-opacity="1" /><path clip-path="url(#clip980)" d="M550.694 250.261 L550.694 265.909 L546.435 265.909 L546.435 250.399 Q546.435 246.719 545 244.89 Q543.565 243.062 540.694 243.062 Q537.245 243.062 535.255 245.261 Q533.264 247.46 533.264 251.256 L533.264 265.909 L528.982 265.909 L528.982 239.983 L533.264 239.983 L533.264 244.011 Q534.792 241.673 536.852 240.515 Q538.935 239.358 541.643 239.358 Q546.111 239.358 548.403 242.136 Q550.694 244.89 550.694 250.261 Z" fill="#000000" fill-rule="nonzero" fill-opacity="1" /><path clip-path="url(#clip980)" d="M563.403 232.622 L563.403 239.983 L572.176 239.983 L572.176 243.293 L563.403 243.293 L563.403 257.367 Q563.403 260.538 564.259 261.441 Q565.139 262.344 567.801 262.344 L572.176 262.344 L572.176 265.909 L567.801 265.909 Q562.87 265.909 560.995 264.08 Q559.12 262.228 559.12 257.367 L559.12 243.293 L555.995 243.293 L555.995 239.983 L559.12 239.983 L559.12 232.622 L563.403 232.622 Z" fill="#000000" fill-rule="nonzero" fill-opacity="1" /><path clip-path="url(#clip980)" d="M592.801 243.964 Q592.083 243.548 591.227 243.362 Q590.393 243.154 589.375 243.154 Q585.764 243.154 583.819 245.515 Q581.898 247.853 581.898 252.251 L581.898 265.909 L577.616 265.909 L577.616 239.983 L581.898 239.983 L581.898 244.011 Q583.24 241.649 585.393 240.515 Q587.546 239.358 590.625 239.358 Q591.065 239.358 591.597 239.427 Q592.129 239.474 592.777 239.589 L592.801 243.964 Z" fill="#000000" fill-rule="nonzero" fill-opacity="1" /><path clip-path="url(#clip980)" d="M606.273 242.969 Q602.847 242.969 600.856 245.654 Q598.865 248.316 598.865 252.969 Q598.865 257.622 600.833 260.307 Q602.824 262.969 606.273 262.969 Q609.676 262.969 611.666 260.284 Q613.657 257.598 613.657 252.969 Q613.657 248.362 611.666 245.677 Q609.676 242.969 606.273 242.969 M606.273 239.358 Q611.828 239.358 615 242.969 Q618.171 246.58 618.171 252.969 Q618.171 259.335 615 262.969 Q611.828 266.58 606.273 266.58 Q600.694 266.58 597.523 262.969 Q594.375 259.335 594.375 252.969 Q594.375 246.58 597.523 242.969 Q600.694 239.358 606.273 239.358 Z" fill="#000000" fill-rule="nonzero" fill-opacity="1" /><path clip-path="url(#clip980)" d="M625.231 239.983 L629.49 239.983 L629.49 265.909 L625.231 265.909 L625.231 239.983 M625.231 229.89 L629.49 229.89 L629.49 235.284 L625.231 235.284 L625.231 229.89 Z" fill="#000000" fill-rule="nonzero" fill-opacity="1" /><path clip-path="url(#clip980)" d="M655.462 243.918 L655.462 229.89 L659.722 229.89 L659.722 265.909 L655.462 265.909 L655.462 262.02 Q654.12 264.335 652.06 265.469 Q650.023 266.58 647.152 266.58 Q642.453 266.58 639.49 262.83 Q636.55 259.08 636.55 252.969 Q636.55 246.858 639.49 243.108 Q642.453 239.358 647.152 239.358 Q650.023 239.358 652.06 240.492 Q654.12 241.603 655.462 243.918 M640.949 252.969 Q640.949 257.668 642.87 260.353 Q644.814 263.015 648.194 263.015 Q651.573 263.015 653.518 260.353 Q655.462 257.668 655.462 252.969 Q655.462 248.27 653.518 245.608 Q651.573 242.923 648.194 242.923 Q644.814 242.923 642.87 245.608 Q640.949 248.27 640.949 252.969 Z" fill="#000000" fill-rule="nonzero" fill-opacity="1" /><path clip-path="url(#clip980)" d="M685.022 240.747 L685.022 244.774 Q683.217 243.849 681.272 243.386 Q679.328 242.923 677.245 242.923 Q674.073 242.923 672.476 243.895 Q670.902 244.867 670.902 246.811 Q670.902 248.293 672.036 249.149 Q673.171 249.983 676.596 250.747 L678.055 251.071 Q682.592 252.043 684.49 253.825 Q686.411 255.585 686.411 258.756 Q686.411 262.367 683.541 264.473 Q680.694 266.58 675.694 266.58 Q673.61 266.58 671.342 266.163 Q669.097 265.77 666.597 264.96 L666.597 260.561 Q668.958 261.788 671.249 262.413 Q673.541 263.015 675.786 263.015 Q678.796 263.015 680.416 261.997 Q682.036 260.955 682.036 259.08 Q682.036 257.344 680.856 256.418 Q679.698 255.492 675.74 254.636 L674.259 254.288 Q670.3 253.455 668.541 251.742 Q666.782 250.006 666.782 246.997 Q666.782 243.339 669.374 241.349 Q671.967 239.358 676.735 239.358 Q679.096 239.358 681.18 239.705 Q683.263 240.052 685.022 240.747 Z" fill="#000000" fill-rule="nonzero" fill-opacity="1" /></svg>
