<?xml version="1.0" encoding="utf-8"?>
<svg xmlns="http://www.w3.org/2000/svg" xmlns:xlink="http://www.w3.org/1999/xlink" width="600" height="400" viewBox="0 0 2400 1600">
<defs>
  <clipPath id="clip530">
    <rect x="0" y="0" width="2400" height="1600"/>
  </clipPath>
</defs>
<path clip-path="url(#clip530)" d="M0 1600 L2400 1600 L2400 0 L0 0  Z" fill="#ffffff" fill-rule="evenodd" fill-opacity="1"/>
<defs>
  <clipPath id="clip531">
    <rect x="480" y="0" width="1681" height="1600"/>
  </clipPath>
</defs>
<path clip-path="url(#clip530)" d="M202.227 1423.18 L2352.76 1423.18 L2352.76 47.2441 L202.227 47.2441  Z" fill="#ffffff" fill-rule="evenodd" fill-opacity="1"/>
<defs>
  <clipPath id="clip532">
    <rect x="202" y="47" width="2152" height="1377"/>
  </clipPath>
</defs>
<polyline clip-path="url(#clip532)" style="stroke:#000000; stroke-linecap:round; stroke-linejoin:round; stroke-width:2; stroke-opacity:0.1; fill:none" points="467.447,1423.18 467.447,47.2441 "/>
<polyline clip-path="url(#clip532)" style="stroke:#000000; stroke-linecap:round; stroke-linejoin:round; stroke-width:2; stroke-opacity:0.1; fill:none" points="941.39,1423.18 941.39,47.2441 "/>
<polyline clip-path="url(#clip532)" style="stroke:#000000; stroke-linecap:round; stroke-linejoin:round; stroke-width:2; stroke-opacity:0.1; fill:none" points="1415.33,1423.18 1415.33,47.2441 "/>
<polyline clip-path="url(#clip532)" style="stroke:#000000; stroke-linecap:round; stroke-linejoin:round; stroke-width:2; stroke-opacity:0.1; fill:none" points="1889.28,1423.18 1889.28,47.2441 "/>
<polyline clip-path="url(#clip530)" style="stroke:#000000; stroke-linecap:round; stroke-linejoin:round; stroke-width:4; stroke-opacity:1; fill:none" points="202.227,1423.18 2352.76,1423.18 "/>
<polyline clip-path="url(#clip530)" style="stroke:#000000; stroke-linecap:round; stroke-linejoin:round; stroke-width:4; stroke-opacity:1; fill:none" points="467.447,1423.18 467.447,1404.28 "/>
<polyline clip-path="url(#clip530)" style="stroke:#000000; stroke-linecap:round; stroke-linejoin:round; stroke-width:4; stroke-opacity:1; fill:none" points="941.39,1423.18 941.39,1404.28 "/>
<polyline clip-path="url(#clip530)" style="stroke:#000000; stroke-linecap:round; stroke-linejoin:round; stroke-width:4; stroke-opacity:1; fill:none" points="1415.33,1423.18 1415.33,1404.28 "/>
<polyline clip-path="url(#clip530)" style="stroke:#000000; stroke-linecap:round; stroke-linejoin:round; stroke-width:4; stroke-opacity:1; fill:none" points="1889.28,1423.18 1889.28,1404.28 "/>
<path clip-path="url(#clip530)" d="M462.1 1481.64 L478.419 1481.64 L478.419 1485.58 L456.475 1485.58 L456.475 1481.64 Q459.137 1478.89 463.72 1474.26 Q468.327 1469.61 469.507 1468.27 Q471.753 1465.74 472.632 1464.01 Q473.535 1462.25 473.535 1460.56 Q473.535 1457.8 471.591 1456.07 Q469.669 1454.33 466.568 1454.33 Q464.369 1454.33 461.915 1455.09 Q459.484 1455.86 456.707 1457.41 L456.707 1452.69 Q459.531 1451.55 461.984 1450.97 Q464.438 1450.39 466.475 1450.39 Q471.845 1450.39 475.04 1453.08 Q478.234 1455.77 478.234 1460.26 Q478.234 1462.39 477.424 1464.31 Q476.637 1466.2 474.531 1468.8 Q473.952 1469.47 470.85 1472.69 Q467.748 1475.88 462.1 1481.64 Z" fill="#000000" fill-rule="nonzero" fill-opacity="1" /><path clip-path="url(#clip530)" d="M944.4 1455.09 L932.594 1473.54 L944.4 1473.54 L944.4 1455.09 M943.173 1451.02 L949.052 1451.02 L949.052 1473.54 L953.983 1473.54 L953.983 1477.43 L949.052 1477.43 L949.052 1485.58 L944.4 1485.58 L944.4 1477.43 L928.798 1477.43 L928.798 1472.92 L943.173 1451.02 Z" fill="#000000" fill-rule="nonzero" fill-opacity="1" /><path clip-path="url(#clip530)" d="M1415.74 1466.44 Q1412.59 1466.44 1410.74 1468.59 Q1408.91 1470.74 1408.91 1474.49 Q1408.91 1478.22 1410.74 1480.39 Q1412.59 1482.55 1415.74 1482.55 Q1418.89 1482.55 1420.72 1480.39 Q1422.57 1478.22 1422.57 1474.49 Q1422.57 1470.74 1420.72 1468.59 Q1418.89 1466.44 1415.74 1466.44 M1425.02 1451.78 L1425.02 1456.04 Q1423.26 1455.21 1421.46 1454.77 Q1419.67 1454.33 1417.91 1454.33 Q1413.28 1454.33 1410.83 1457.45 Q1408.4 1460.58 1408.05 1466.9 Q1409.42 1464.89 1411.48 1463.82 Q1413.54 1462.73 1416.02 1462.73 Q1421.22 1462.73 1424.23 1465.9 Q1427.27 1469.05 1427.27 1474.49 Q1427.27 1479.82 1424.12 1483.03 Q1420.97 1486.25 1415.74 1486.25 Q1409.74 1486.25 1406.57 1481.67 Q1403.4 1477.06 1403.4 1468.33 Q1403.4 1460.14 1407.29 1455.28 Q1411.18 1450.39 1417.73 1450.39 Q1419.49 1450.39 1421.27 1450.74 Q1423.08 1451.09 1425.02 1451.78 Z" fill="#000000" fill-rule="nonzero" fill-opacity="1" /><path clip-path="url(#clip530)" d="M1889.28 1469.17 Q1885.94 1469.17 1884.02 1470.95 Q1882.12 1472.73 1882.12 1475.86 Q1882.12 1478.98 1884.02 1480.77 Q1885.94 1482.55 1889.28 1482.55 Q1892.61 1482.55 1894.53 1480.77 Q1896.45 1478.96 1896.45 1475.86 Q1896.45 1472.73 1894.53 1470.95 Q1892.63 1469.17 1889.28 1469.17 M1884.6 1467.18 Q1881.59 1466.44 1879.9 1464.38 Q1878.23 1462.32 1878.23 1459.35 Q1878.23 1455.21 1881.17 1452.8 Q1884.14 1450.39 1889.28 1450.39 Q1894.44 1450.39 1897.38 1452.8 Q1900.32 1455.21 1900.32 1459.35 Q1900.32 1462.32 1898.63 1464.38 Q1896.96 1466.44 1893.98 1467.18 Q1897.36 1467.96 1899.23 1470.26 Q1901.13 1472.55 1901.13 1475.86 Q1901.13 1480.88 1898.05 1483.57 Q1894.99 1486.25 1889.28 1486.25 Q1883.56 1486.25 1880.48 1483.57 Q1877.42 1480.88 1877.42 1475.86 Q1877.42 1472.55 1879.32 1470.26 Q1881.22 1467.96 1884.6 1467.18 M1882.89 1459.79 Q1882.89 1462.48 1884.55 1463.98 Q1886.24 1465.49 1889.28 1465.49 Q1892.29 1465.49 1893.98 1463.98 Q1895.69 1462.48 1895.69 1459.79 Q1895.69 1457.11 1893.98 1455.6 Q1892.29 1454.1 1889.28 1454.1 Q1886.24 1454.1 1884.55 1455.6 Q1882.89 1457.11 1882.89 1459.79 Z" fill="#000000" fill-rule="nonzero" fill-opacity="1" /><path clip-path="url(#clip530)" d="M1259.32 1520.52 L1266.22 1520.52 L1278.03 1538.19 L1289.9 1520.52 L1296.81 1520.52 L1281.53 1543.34 L1297.83 1568.04 L1290.92 1568.04 L1277.56 1547.83 L1264.09 1568.04 L1257.15 1568.04 L1274.12 1542.68 L1259.32 1520.52 Z" fill="#000000" fill-rule="nonzero" fill-opacity="1" /><polyline clip-path="url(#clip532)" style="stroke:#000000; stroke-linecap:round; stroke-linejoin:round; stroke-width:2; stroke-opacity:0.1; fill:none" points="202.227,1413 2352.76,1413 "/>
<polyline clip-path="url(#clip532)" style="stroke:#000000; stroke-linecap:round; stroke-linejoin:round; stroke-width:2; stroke-opacity:0.1; fill:none" points="202.227,1068.36 2352.76,1068.36 "/>
<polyline clip-path="url(#clip532)" style="stroke:#000000; stroke-linecap:round; stroke-linejoin:round; stroke-width:2; stroke-opacity:0.1; fill:none" points="202.227,723.722 2352.76,723.722 "/>
<polyline clip-path="url(#clip532)" style="stroke:#000000; stroke-linecap:round; stroke-linejoin:round; stroke-width:2; stroke-opacity:0.1; fill:none" points="202.227,379.083 2352.76,379.083 "/>
<polyline clip-path="url(#clip530)" style="stroke:#000000; stroke-linecap:round; stroke-linejoin:round; stroke-width:4; stroke-opacity:1; fill:none" points="202.227,1423.18 202.227,47.2441 "/>
<polyline clip-path="url(#clip530)" style="stroke:#000000; stroke-linecap:round; stroke-linejoin:round; stroke-width:4; stroke-opacity:1; fill:none" points="202.227,1413 221.125,1413 "/>
<polyline clip-path="url(#clip530)" style="stroke:#000000; stroke-linecap:round; stroke-linejoin:round; stroke-width:4; stroke-opacity:1; fill:none" points="202.227,1068.36 221.125,1068.36 "/>
<polyline clip-path="url(#clip530)" style="stroke:#000000; stroke-linecap:round; stroke-linejoin:round; stroke-width:4; stroke-opacity:1; fill:none" points="202.227,723.722 221.125,723.722 "/>
<polyline clip-path="url(#clip530)" style="stroke:#000000; stroke-linecap:round; stroke-linejoin:round; stroke-width:4; stroke-opacity:1; fill:none" points="202.227,379.083 221.125,379.083 "/>
<path clip-path="url(#clip530)" d="M154.283 1398.8 Q150.672 1398.8 148.843 1402.36 Q147.038 1405.9 147.038 1413.03 Q147.038 1420.14 148.843 1423.71 Q150.672 1427.25 154.283 1427.25 Q157.917 1427.25 159.723 1423.71 Q161.552 1420.14 161.552 1413.03 Q161.552 1405.9 159.723 1402.36 Q157.917 1398.8 154.283 1398.8 M154.283 1395.09 Q160.093 1395.09 163.149 1399.7 Q166.227 1404.28 166.227 1413.03 Q166.227 1421.76 163.149 1426.37 Q160.093 1430.95 154.283 1430.95 Q148.473 1430.95 145.394 1426.37 Q142.339 1421.76 142.339 1413.03 Q142.339 1404.28 145.394 1399.7 Q148.473 1395.09 154.283 1395.09 Z" fill="#000000" fill-rule="nonzero" fill-opacity="1" /><path clip-path="url(#clip530)" d="M145.325 1051.08 L163.681 1051.08 L163.681 1055.02 L149.607 1055.02 L149.607 1063.49 Q150.626 1063.14 151.644 1062.98 Q152.663 1062.79 153.681 1062.79 Q159.468 1062.79 162.848 1065.97 Q166.227 1069.14 166.227 1074.55 Q166.227 1080.13 162.755 1083.23 Q159.283 1086.31 152.964 1086.31 Q150.788 1086.31 148.519 1085.94 Q146.274 1085.57 143.866 1084.83 L143.866 1080.13 Q145.95 1081.27 148.172 1081.82 Q150.394 1082.38 152.871 1082.38 Q156.876 1082.38 159.214 1080.27 Q161.552 1078.16 161.552 1074.55 Q161.552 1070.94 159.214 1068.84 Q156.876 1066.73 152.871 1066.73 Q150.996 1066.73 149.121 1067.15 Q147.269 1067.56 145.325 1068.44 L145.325 1051.08 Z" fill="#000000" fill-rule="nonzero" fill-opacity="1" /><path clip-path="url(#clip530)" d="M114.931 737.067 L122.57 737.067 L122.57 710.701 L114.26 712.368 L114.26 708.109 L122.524 706.442 L127.2 706.442 L127.2 737.067 L134.839 737.067 L134.839 741.002 L114.931 741.002 L114.931 737.067 Z" fill="#000000" fill-rule="nonzero" fill-opacity="1" /><path clip-path="url(#clip530)" d="M154.283 709.521 Q150.672 709.521 148.843 713.085 Q147.038 716.627 147.038 723.757 Q147.038 730.863 148.843 734.428 Q150.672 737.97 154.283 737.97 Q157.917 737.97 159.723 734.428 Q161.552 730.863 161.552 723.757 Q161.552 716.627 159.723 713.085 Q157.917 709.521 154.283 709.521 M154.283 705.817 Q160.093 705.817 163.149 710.423 Q166.227 715.007 166.227 723.757 Q166.227 732.484 163.149 737.09 Q160.093 741.673 154.283 741.673 Q148.473 741.673 145.394 737.09 Q142.339 732.484 142.339 723.757 Q142.339 715.007 145.394 710.423 Q148.473 705.817 154.283 705.817 Z" fill="#000000" fill-rule="nonzero" fill-opacity="1" /><path clip-path="url(#clip530)" d="M115.927 392.428 L123.566 392.428 L123.566 366.062 L115.256 367.729 L115.256 363.47 L123.519 361.803 L128.195 361.803 L128.195 392.428 L135.834 392.428 L135.834 396.363 L115.927 396.363 L115.927 392.428 Z" fill="#000000" fill-rule="nonzero" fill-opacity="1" /><path clip-path="url(#clip530)" d="M145.325 361.803 L163.681 361.803 L163.681 365.738 L149.607 365.738 L149.607 374.211 Q150.626 373.863 151.644 373.701 Q152.663 373.516 153.681 373.516 Q159.468 373.516 162.848 376.687 Q166.227 379.859 166.227 385.275 Q166.227 390.854 162.755 393.956 Q159.283 397.034 152.964 397.034 Q150.788 397.034 148.519 396.664 Q146.274 396.294 143.866 395.553 L143.866 390.854 Q145.95 391.988 148.172 392.544 Q150.394 393.099 152.871 393.099 Q156.876 393.099 159.214 390.993 Q161.552 388.886 161.552 385.275 Q161.552 381.664 159.214 379.558 Q156.876 377.451 152.871 377.451 Q150.996 377.451 149.121 377.868 Q147.269 378.285 145.325 379.164 L145.325 361.803 Z" fill="#000000" fill-rule="nonzero" fill-opacity="1" /><path clip-path="url(#clip530)" d="M16.4842 755.248 L16.4842 748.341 L36.0269 735.164 L16.4842 722.083 L16.4842 715.176 L41.3741 731.981 L64.0042 731.981 L64.0042 738.443 L41.3741 738.443 L16.4842 755.248 Z" fill="#000000" fill-rule="nonzero" fill-opacity="1" /><circle clip-path="url(#clip532)" cx="263.091" cy="1344.28" r="14.4" fill="#009af9" fill-rule="evenodd" fill-opacity="1" stroke="#000000" stroke-opacity="1" stroke-width="3.2"/>
<circle clip-path="url(#clip532)" cx="365.305" cy="1283.06" r="14.4" fill="#009af9" fill-rule="evenodd" fill-opacity="1" stroke="#000000" stroke-opacity="1" stroke-width="3.2"/>
<circle clip-path="url(#clip532)" cx="465.847" cy="1384.24" r="14.4" fill="#009af9" fill-rule="evenodd" fill-opacity="1" stroke="#000000" stroke-opacity="1" stroke-width="3.2"/>
<circle clip-path="url(#clip532)" cx="325.133" cy="1142" r="14.4" fill="#009af9" fill-rule="evenodd" fill-opacity="1" stroke="#000000" stroke-opacity="1" stroke-width="3.2"/>
<circle clip-path="url(#clip532)" cx="323.791" cy="1382.65" r="14.4" fill="#009af9" fill-rule="evenodd" fill-opacity="1" stroke="#000000" stroke-opacity="1" stroke-width="3.2"/>
<circle clip-path="url(#clip532)" cx="2291.89" cy="856.338" r="14.4" fill="#009af9" fill-rule="evenodd" fill-opacity="1" stroke="#000000" stroke-opacity="1" stroke-width="3.2"/>
<circle clip-path="url(#clip532)" cx="1576.33" cy="86.1857" r="14.4" fill="#009af9" fill-rule="evenodd" fill-opacity="1" stroke="#000000" stroke-opacity="1" stroke-width="3.2"/>
<circle clip-path="url(#clip532)" cx="2288.62" cy="977.245" r="14.4" fill="#009af9" fill-rule="evenodd" fill-opacity="1" stroke="#000000" stroke-opacity="1" stroke-width="3.2"/>
<circle clip-path="url(#clip532)" cx="2232.66" cy="389.018" r="14.4" fill="#009af9" fill-rule="evenodd" fill-opacity="1" stroke="#000000" stroke-opacity="1" stroke-width="3.2"/>
<circle clip-path="url(#clip532)" cx="1595.16" cy="981.878" r="14.4" fill="#009af9" fill-rule="evenodd" fill-opacity="1" stroke="#000000" stroke-opacity="1" stroke-width="3.2"/>
</svg>
