<?xml version="1.0" encoding="utf-8"?>
<svg xmlns="http://www.w3.org/2000/svg" xmlns:xlink="http://www.w3.org/1999/xlink" width="600" height="400" viewBox="0 0 2400 1600">
<defs>
  <clipPath id="clip710">
    <rect x="0" y="0" width="2400" height="1600"/>
  </clipPath>
</defs>
<path clip-path="url(#clip710)" d="M0 1600 L2400 1600 L2400 0 L0 0  Z" fill="#ffffff" fill-rule="evenodd" fill-opacity="1"/>
<defs>
  <clipPath id="clip711">
    <rect x="480" y="0" width="1681" height="1600"/>
  </clipPath>
</defs>
<path clip-path="url(#clip710)" d="M202.227 1423.18 L2352.76 1423.18 L2352.76 47.2441 L202.227 47.2441  Z" fill="#ffffff" fill-rule="evenodd" fill-opacity="1"/>
<defs>
  <clipPath id="clip712">
    <rect x="202" y="47" width="2152" height="1377"/>
  </clipPath>
</defs>
<polyline clip-path="url(#clip712)" style="stroke:#000000; stroke-linecap:round; stroke-linejoin:round; stroke-width:2; stroke-opacity:0.1; fill:none" points="467.447,1423.18 467.447,47.2441 "/>
<polyline clip-path="url(#clip712)" style="stroke:#000000; stroke-linecap:round; stroke-linejoin:round; stroke-width:2; stroke-opacity:0.1; fill:none" points="941.39,1423.18 941.39,47.2441 "/>
<polyline clip-path="url(#clip712)" style="stroke:#000000; stroke-linecap:round; stroke-linejoin:round; stroke-width:2; stroke-opacity:0.1; fill:none" points="1415.33,1423.18 1415.33,47.2441 "/>
<polyline clip-path="url(#clip712)" style="stroke:#000000; stroke-linecap:round; stroke-linejoin:round; stroke-width:2; stroke-opacity:0.1; fill:none" points="1889.28,1423.18 1889.28,47.2441 "/>
<polyline clip-path="url(#clip710)" style="stroke:#000000; stroke-linecap:round; stroke-linejoin:round; stroke-width:4; stroke-opacity:1; fill:none" points="202.227,1423.18 2352.76,1423.18 "/>
<polyline clip-path="url(#clip710)" style="stroke:#000000; stroke-linecap:round; stroke-linejoin:round; stroke-width:4; stroke-opacity:1; fill:none" points="467.447,1423.18 467.447,1404.28 "/>
<polyline clip-path="url(#clip710)" style="stroke:#000000; stroke-linecap:round; stroke-linejoin:round; stroke-width:4; stroke-opacity:1; fill:none" points="941.39,1423.18 941.39,1404.28 "/>
<polyline clip-path="url(#clip710)" style="stroke:#000000; stroke-linecap:round; stroke-linejoin:round; stroke-width:4; stroke-opacity:1; fill:none" points="1415.33,1423.18 1415.33,1404.28 "/>
<polyline clip-path="url(#clip710)" style="stroke:#000000; stroke-linecap:round; stroke-linejoin:round; stroke-width:4; stroke-opacity:1; fill:none" points="1889.28,1423.18 1889.28,1404.28 "/>
<path clip-path="url(#clip710)" d="M462.1 1481.64 L478.419 1481.64 L478.419 1485.58 L456.475 1485.58 L456.475 1481.64 Q459.137 1478.89 463.72 1474.26 Q468.327 1469.61 469.507 1468.27 Q471.753 1465.74 472.632 1464.01 Q473.535 1462.25 473.535 1460.56 Q473.535 1457.8 471.591 1456.07 Q469.669 1454.33 466.568 1454.33 Q464.369 1454.33 461.915 1455.09 Q459.484 1455.86 456.707 1457.41 L456.707 1452.69 Q459.531 1451.55 461.984 1450.97 Q464.438 1450.39 466.475 1450.39 Q471.845 1450.39 475.04 1453.08 Q478.234 1455.77 478.234 1460.26 Q478.234 1462.39 477.424 1464.31 Q476.637 1466.2 474.531 1468.8 Q473.952 1469.47 470.85 1472.69 Q467.748 1475.88 462.1 1481.64 Z" fill="#000000" fill-rule="nonzero" fill-opacity="1" /><path clip-path="url(#clip710)" d="M944.4 1455.09 L932.594 1473.54 L944.4 1473.54 L944.4 1455.09 M943.173 1451.02 L949.052 1451.02 L949.052 1473.54 L953.983 1473.54 L953.983 1477.43 L949.052 1477.43 L949.052 1485.58 L944.4 1485.58 L944.4 1477.43 L928.798 1477.43 L928.798 1472.92 L943.173 1451.02 Z" fill="#000000" fill-rule="nonzero" fill-opacity="1" /><path clip-path="url(#clip710)" d="M1415.74 1466.44 Q1412.59 1466.44 1410.74 1468.59 Q1408.91 1470.74 1408.91 1474.49 Q1408.91 1478.22 1410.74 1480.39 Q1412.59 1482.55 1415.74 1482.55 Q1418.89 1482.55 1420.72 1480.39 Q1422.57 1478.22 1422.57 1474.49 Q1422.57 1470.74 1420.72 1468.59 Q1418.89 1466.44 1415.74 1466.44 M1425.02 1451.78 L1425.02 1456.04 Q1423.26 1455.21 1421.46 1454.77 Q1419.67 1454.33 1417.91 1454.33 Q1413.28 1454.33 1410.83 1457.45 Q1408.4 1460.58 1408.05 1466.9 Q1409.42 1464.89 1411.48 1463.82 Q1413.54 1462.73 1416.02 1462.73 Q1421.22 1462.73 1424.23 1465.9 Q1427.27 1469.05 1427.27 1474.49 Q1427.27 1479.82 1424.12 1483.03 Q1420.97 1486.25 1415.74 1486.25 Q1409.74 1486.25 1406.57 1481.67 Q1403.4 1477.06 1403.4 1468.33 Q1403.4 1460.14 1407.29 1455.28 Q1411.18 1450.39 1417.73 1450.39 Q1419.49 1450.39 1421.27 1450.74 Q1423.08 1451.09 1425.02 1451.78 Z" fill="#000000" fill-rule="nonzero" fill-opacity="1" /><path clip-path="url(#clip710)" d="M1889.28 1469.17 Q1885.94 1469.17 1884.02 1470.95 Q1882.12 1472.73 1882.12 1475.86 Q1882.12 1478.98 1884.02 1480.77 Q1885.94 1482.55 1889.28 1482.55 Q1892.61 1482.55 1894.53 1480.77 Q1896.45 1478.96 1896.45 1475.86 Q1896.45 1472.73 1894.53 1470.95 Q1892.63 1469.17 1889.28 1469.17 M1884.6 1467.18 Q1881.59 1466.44 1879.9 1464.38 Q1878.23 1462.32 1878.23 1459.35 Q1878.23 1455.21 1881.17 1452.8 Q1884.14 1450.39 1889.28 1450.39 Q1894.44 1450.39 1897.38 1452.8 Q1900.32 1455.21 1900.32 1459.35 Q1900.32 1462.32 1898.63 1464.38 Q1896.96 1466.44 1893.98 1467.18 Q1897.36 1467.96 1899.23 1470.26 Q1901.13 1472.55 1901.13 1475.86 Q1901.13 1480.88 1898.05 1483.57 Q1894.99 1486.25 1889.28 1486.25 Q1883.56 1486.25 1880.48 1483.57 Q1877.42 1480.88 1877.42 1475.86 Q1877.42 1472.55 1879.32 1470.26 Q1881.22 1467.96 1884.6 1467.18 M1882.89 1459.79 Q1882.89 1462.48 1884.55 1463.98 Q1886.24 1465.49 1889.28 1465.49 Q1892.29 1465.49 1893.98 1463.98 Q1895.69 1462.48 1895.69 1459.79 Q1895.69 1457.11 1893.98 1455.6 Q1892.29 1454.1 1889.28 1454.1 Q1886.24 1454.1 1884.55 1455.6 Q1882.89 1457.11 1882.89 1459.79 Z" fill="#000000" fill-rule="nonzero" fill-opacity="1" /><path clip-path="url(#clip710)" d="M1259.32 1520.52 L1266.22 1520.52 L1278.03 1538.19 L1289.9 1520.52 L1296.81 1520.52 L1281.53 1543.34 L1297.83 1568.04 L1290.92 1568.04 L1277.56 1547.83 L1264.09 1568.04 L1257.15 1568.04 L1274.12 1542.68 L1259.32 1520.52 Z" fill="#000000" fill-rule="nonzero" fill-opacity="1" /><polyline clip-path="url(#clip712)" style="stroke:#000000; stroke-linecap:round; stroke-linejoin:round; stroke-width:2; stroke-opacity:0.1; fill:none" points="202.227,1413 2352.76,1413 "/>
<polyline clip-path="url(#clip712)" style="stroke:#000000; stroke-linecap:round; stroke-linejoin:round; stroke-width:2; stroke-opacity:0.1; fill:none" points="202.227,1068.36 2352.76,1068.36 "/>
<polyline clip-path="url(#clip712)" style="stroke:#000000; stroke-linecap:round; stroke-linejoin:round; stroke-width:2; stroke-opacity:0.1; fill:none" points="202.227,723.722 2352.76,723.722 "/>
<polyline clip-path="url(#clip712)" style="stroke:#000000; stroke-linecap:round; stroke-linejoin:round; stroke-width:2; stroke-opacity:0.1; fill:none" points="202.227,379.083 2352.76,379.083 "/>
<polyline clip-path="url(#clip710)" style="stroke:#000000; stroke-linecap:round; stroke-linejoin:round; stroke-width:4; stroke-opacity:1; fill:none" points="202.227,1423.18 202.227,47.2441 "/>
<polyline clip-path="url(#clip710)" style="stroke:#000000; stroke-linecap:round; stroke-linejoin:round; stroke-width:4; stroke-opacity:1; fill:none" points="202.227,1413 221.125,1413 "/>
<polyline clip-path="url(#clip710)" style="stroke:#000000; stroke-linecap:round; stroke-linejoin:round; stroke-width:4; stroke-opacity:1; fill:none" points="202.227,1068.36 221.125,1068.36 "/>
<polyline clip-path="url(#clip710)" style="stroke:#000000; stroke-linecap:round; stroke-linejoin:round; stroke-width:4; stroke-opacity:1; fill:none" points="202.227,723.722 221.125,723.722 "/>
<polyline clip-path="url(#clip710)" style="stroke:#000000; stroke-linecap:round; stroke-linejoin:round; stroke-width:4; stroke-opacity:1; fill:none" points="202.227,379.083 221.125,379.083 "/>
<path clip-path="url(#clip710)" d="M154.283 1398.8 Q150.672 1398.8 148.843 1402.36 Q147.038 1405.9 147.038 1413.03 Q147.038 1420.14 148.843 1423.71 Q150.672 1427.25 154.283 1427.25 Q157.917 1427.25 159.723 1423.71 Q161.552 1420.14 161.552 1413.03 Q161.552 1405.9 159.723 1402.36 Q157.917 1398.8 154.283 1398.8 M154.283 1395.09 Q160.093 1395.09 163.149 1399.7 Q166.227 1404.28 166.227 1413.03 Q166.227 1421.76 163.149 1426.37 Q160.093 1430.95 154.283 1430.95 Q148.473 1430.95 145.394 1426.37 Q142.339 1421.76 142.339 1413.03 Q142.339 1404.28 145.394 1399.7 Q148.473 1395.09 154.283 1395.09 Z" fill="#000000" fill-rule="nonzero" fill-opacity="1" /><path clip-path="url(#clip710)" d="M145.325 1051.08 L163.681 1051.08 L163.681 1055.02 L149.607 1055.02 L149.607 1063.49 Q150.626 1063.14 151.644 1062.98 Q152.663 1062.79 153.681 1062.79 Q159.468 1062.79 162.848 1065.97 Q166.227 1069.14 166.227 1074.55 Q166.227 1080.13 162.755 1083.23 Q159.283 1086.31 152.964 1086.31 Q150.788 1086.31 148.519 1085.94 Q146.274 1085.57 143.866 1084.83 L143.866 1080.13 Q145.95 1081.27 148.172 1081.82 Q150.394 1082.38 152.871 1082.38 Q156.876 1082.38 159.214 1080.27 Q161.552 1078.16 161.552 1074.55 Q161.552 1070.94 159.214 1068.84 Q156.876 1066.73 152.871 1066.73 Q150.996 1066.73 149.121 1067.15 Q147.269 1067.56 145.325 1068.44 L145.325 1051.08 Z" fill="#000000" fill-rule="nonzero" fill-opacity="1" /><path clip-path="url(#clip710)" d="M114.931 737.067 L122.57 737.067 L122.57 710.701 L114.26 712.368 L114.26 708.109 L122.524 706.442 L127.2 706.442 L127.2 737.067 L134.839 737.067 L134.839 741.002 L114.931 741.002 L114.931 737.067 Z" fill="#000000" fill-rule="nonzero" fill-opacity="1" /><path clip-path="url(#clip710)" d="M154.283 709.521 Q150.672 709.521 148.843 713.085 Q147.038 716.627 147.038 723.757 Q147.038 730.863 148.843 734.428 Q150.672 737.97 154.283 737.97 Q157.917 737.97 159.723 734.428 Q161.552 730.863 161.552 723.757 Q161.552 716.627 159.723 713.085 Q157.917 709.521 154.283 709.521 M154.283 705.817 Q160.093 705.817 163.149 710.423 Q166.227 715.007 166.227 723.757 Q166.227 732.484 163.149 737.09 Q160.093 741.673 154.283 741.673 Q148.473 741.673 145.394 737.09 Q142.339 732.484 142.339 723.757 Q142.339 715.007 145.394 710.423 Q148.473 705.817 154.283 705.817 Z" fill="#000000" fill-rule="nonzero" fill-opacity="1" /><path clip-path="url(#clip710)" d="M115.927 392.428 L123.566 392.428 L123.566 366.062 L115.256 367.729 L115.256 363.47 L123.519 361.803 L128.195 361.803 L128.195 392.428 L135.834 392.428 L135.834 396.363 L115.927 396.363 L115.927 392.428 Z" fill="#000000" fill-rule="nonzero" fill-opacity="1" /><path clip-path="url(#clip710)" d="M145.325 361.803 L163.681 361.803 L163.681 365.738 L149.607 365.738 L149.607 374.211 Q150.626 373.863 151.644 373.701 Q152.663 373.516 153.681 373.516 Q159.468 373.516 162.848 376.687 Q166.227 379.859 166.227 385.275 Q166.227 390.854 162.755 393.956 Q159.283 397.034 152.964 397.034 Q150.788 397.034 148.519 396.664 Q146.274 396.294 143.866 395.553 L143.866 390.854 Q145.95 391.988 148.172 392.544 Q150.394 393.099 152.871 393.099 Q156.876 393.099 159.214 390.993 Q161.552 388.886 161.552 385.275 Q161.552 381.664 159.214 379.558 Q156.876 377.451 152.871 377.451 Q150.996 377.451 149.121 377.868 Q147.269 378.285 145.325 379.164 L145.325 361.803 Z" fill="#000000" fill-rule="nonzero" fill-opacity="1" /><path clip-path="url(#clip710)" d="M16.4842 755.248 L16.4842 748.341 L36.0269 735.164 L16.4842 722.083 L16.4842 715.176 L41.3741 731.981 L64.0042 731.981 L64.0042 738.443 L41.3741 738.443 L16.4842 755.248 Z" fill="#000000" fill-rule="nonzero" fill-opacity="1" /><circle clip-path="url(#clip712)" cx="1576.33" cy="86.1857" r="14.4" fill="#009af9" fill-rule="evenodd" fill-opacity="1" stroke="#000000" stroke-opacity="1" stroke-width="3.2"/>
<circle clip-path="url(#clip712)" cx="2232.66" cy="389.018" r="14.4" fill="#009af9" fill-rule="evenodd" fill-opacity="1" stroke="#000000" stroke-opacity="1" stroke-width="3.2"/>
<circle clip-path="url(#clip712)" cx="263.091" cy="1344.28" r="14.4" fill="#e26f46" fill-rule="evenodd" fill-opacity="1" stroke="#000000" stroke-opacity="1" stroke-width="3.2"/>
<circle clip-path="url(#clip712)" cx="365.305" cy="1283.06" r="14.4" fill="#e26f46" fill-rule="evenodd" fill-opacity="1" stroke="#000000" stroke-opacity="1" stroke-width="3.2"/>
<circle clip-path="url(#clip712)" cx="465.847" cy="1384.24" r="14.4" fill="#e26f46" fill-rule="evenodd" fill-opacity="1" stroke="#000000" stroke-opacity="1" stroke-width="3.2"/>
<circle clip-path="url(#clip712)" cx="325.133" cy="1142" r="14.4" fill="#e26f46" fill-rule="evenodd" fill-opacity="1" stroke="#000000" stroke-opacity="1" stroke-width="3.2"/>
<circle clip-path="url(#clip712)" cx="323.791" cy="1382.65" r="14.4" fill="#e26f46" fill-rule="evenodd" fill-opacity="1" stroke="#000000" stroke-opacity="1" stroke-width="3.2"/>
<circle clip-path="url(#clip712)" cx="2291.89" cy="856.338" r="14.4" fill="#e26f46" fill-rule="evenodd" fill-opacity="1" stroke="#000000" stroke-opacity="1" stroke-width="3.2"/>
<circle clip-path="url(#clip712)" cx="2288.62" cy="977.245" r="14.4" fill="#e26f46" fill-rule="evenodd" fill-opacity="1" stroke="#000000" stroke-opacity="1" stroke-width="3.2"/>
<circle clip-path="url(#clip712)" cx="1595.16" cy="981.878" r="14.4" fill="#e26f46" fill-rule="evenodd" fill-opacity="1" stroke="#000000" stroke-opacity="1" stroke-width="3.2"/>
<circle clip-path="url(#clip712)" cx="1576.33" cy="86.1857" r="14.4" fill="#3da44d" fill-rule="evenodd" fill-opacity="1" stroke="#000000" stroke-opacity="1" stroke-width="3.2"/>
<circle clip-path="url(#clip712)" cx="2288.62" cy="977.245" r="14.4" fill="#3da44d" fill-rule="evenodd" fill-opacity="1" stroke="#000000" stroke-opacity="1" stroke-width="3.2"/>
<path clip-path="url(#clip710)" d="M273.912 300.469 L710.306 300.469 L710.306 93.1086 L273.912 93.1086  Z" fill="#ffffff" fill-rule="evenodd" fill-opacity="1"/>
<polyline clip-path="url(#clip710)" style="stroke:#000000; stroke-linecap:round; stroke-linejoin:round; stroke-width:4; stroke-opacity:1; fill:none" points="273.912,300.469 710.306,300.469 710.306,93.1086 273.912,93.1086 273.912,300.469 "/>
<circle clip-path="url(#clip710)" cx="369.491" cy="144.949" r="20.48" fill="#009af9" fill-rule="evenodd" fill-opacity="1" stroke="#000000" stroke-opacity="1" stroke-width="4.55111"/>
<path clip-path="url(#clip710)" d="M492.94 130.331 L492.94 135.261 Q490.579 133.062 487.894 131.974 Q485.232 130.886 482.223 130.886 Q476.297 130.886 473.148 134.52 Q470 138.132 470 144.983 Q470 151.812 473.148 155.446 Q476.297 159.057 482.223 159.057 Q485.232 159.057 487.894 157.969 Q490.579 156.881 492.94 154.682 L492.94 159.567 Q490.486 161.233 487.732 162.067 Q485 162.9 481.945 162.9 Q474.098 162.9 469.584 158.108 Q465.07 153.293 465.07 144.983 Q465.07 136.65 469.584 131.858 Q474.098 127.044 481.945 127.044 Q485.047 127.044 487.778 127.877 Q490.533 128.687 492.94 130.331 Z" fill="#000000" fill-rule="nonzero" fill-opacity="1" /><path clip-path="url(#clip710)" d="M499.977 126.21 L504.236 126.21 L504.236 162.229 L499.977 162.229 L499.977 126.21 Z" fill="#000000" fill-rule="nonzero" fill-opacity="1" /><path clip-path="url(#clip710)" d="M512.708 151.997 L512.708 136.303 L516.968 136.303 L516.968 151.835 Q516.968 155.516 518.403 157.368 Q519.838 159.196 522.708 159.196 Q526.157 159.196 528.148 156.997 Q530.162 154.798 530.162 151.002 L530.162 136.303 L534.421 136.303 L534.421 162.229 L530.162 162.229 L530.162 158.247 Q528.611 160.608 526.551 161.766 Q524.514 162.9 521.806 162.9 Q517.338 162.9 515.023 160.122 Q512.708 157.344 512.708 151.997 M523.426 135.678 L523.426 135.678 Z" fill="#000000" fill-rule="nonzero" fill-opacity="1" /><path clip-path="url(#clip710)" d="M559.722 137.067 L559.722 141.094 Q557.917 140.169 555.972 139.706 Q554.028 139.243 551.944 139.243 Q548.773 139.243 547.176 140.215 Q545.602 141.187 545.602 143.131 Q545.602 144.613 546.736 145.469 Q547.87 146.303 551.296 147.067 L552.755 147.391 Q557.292 148.363 559.19 150.145 Q561.111 151.905 561.111 155.076 Q561.111 158.687 558.241 160.793 Q555.393 162.9 550.393 162.9 Q548.31 162.9 546.042 162.483 Q543.796 162.09 541.296 161.28 L541.296 156.881 Q543.657 158.108 545.949 158.733 Q548.241 159.335 550.486 159.335 Q553.495 159.335 555.116 158.317 Q556.736 157.275 556.736 155.4 Q556.736 153.664 555.555 152.738 Q554.398 151.812 550.44 150.956 L548.958 150.608 Q545 149.775 543.241 148.062 Q541.481 146.326 541.481 143.317 Q541.481 139.659 544.074 137.669 Q546.667 135.678 551.435 135.678 Q553.796 135.678 555.88 136.025 Q557.963 136.372 559.722 137.067 Z" fill="#000000" fill-rule="nonzero" fill-opacity="1" /><path clip-path="url(#clip710)" d="M572.106 128.942 L572.106 136.303 L580.879 136.303 L580.879 139.613 L572.106 139.613 L572.106 153.687 Q572.106 156.858 572.963 157.761 Q573.842 158.664 576.504 158.664 L580.879 158.664 L580.879 162.229 L576.504 162.229 Q571.574 162.229 569.699 160.4 Q567.824 158.548 567.824 153.687 L567.824 139.613 L564.699 139.613 L564.699 136.303 L567.824 136.303 L567.824 128.942 L572.106 128.942 Z" fill="#000000" fill-rule="nonzero" fill-opacity="1" /><path clip-path="url(#clip710)" d="M608.657 148.201 L608.657 150.284 L589.074 150.284 Q589.352 154.682 591.713 156.997 Q594.097 159.289 598.333 159.289 Q600.787 159.289 603.078 158.687 Q605.393 158.085 607.662 156.881 L607.662 160.909 Q605.37 161.881 602.963 162.391 Q600.555 162.9 598.078 162.9 Q591.875 162.9 588.24 159.289 Q584.629 155.678 584.629 149.52 Q584.629 143.155 588.055 139.428 Q591.504 135.678 597.338 135.678 Q602.569 135.678 605.601 139.057 Q608.657 142.414 608.657 148.201 M604.398 146.951 Q604.351 143.456 602.43 141.372 Q600.532 139.289 597.384 139.289 Q593.819 139.289 591.666 141.303 Q589.537 143.317 589.213 146.974 L604.398 146.951 Z" fill="#000000" fill-rule="nonzero" fill-opacity="1" /><path clip-path="url(#clip710)" d="M630.671 140.284 Q629.953 139.868 629.097 139.682 Q628.263 139.474 627.245 139.474 Q623.634 139.474 621.689 141.835 Q619.768 144.173 619.768 148.571 L619.768 162.229 L615.486 162.229 L615.486 136.303 L619.768 136.303 L619.768 140.331 Q621.111 137.969 623.263 136.835 Q625.416 135.678 628.495 135.678 Q628.935 135.678 629.467 135.747 Q630 135.794 630.648 135.909 L630.671 140.284 Z" fill="#000000" fill-rule="nonzero" fill-opacity="1" /><path clip-path="url(#clip710)" d="M651.62 158.293 L659.259 158.293 L659.259 131.928 L650.948 133.595 L650.948 129.335 L659.212 127.669 L663.888 127.669 L663.888 158.293 L671.527 158.293 L671.527 162.229 L651.62 162.229 L651.62 158.293 Z" fill="#000000" fill-rule="nonzero" fill-opacity="1" /><circle clip-path="url(#clip710)" cx="369.491" cy="196.789" r="20.48" fill="#e26f46" fill-rule="evenodd" fill-opacity="1" stroke="#000000" stroke-opacity="1" stroke-width="4.55111"/>
<path clip-path="url(#clip710)" d="M492.94 182.171 L492.94 187.101 Q490.579 184.902 487.894 183.814 Q485.232 182.726 482.223 182.726 Q476.297 182.726 473.148 186.36 Q470 189.972 470 196.823 Q470 203.652 473.148 207.286 Q476.297 210.897 482.223 210.897 Q485.232 210.897 487.894 209.809 Q490.579 208.721 492.94 206.522 L492.94 211.407 Q490.486 213.073 487.732 213.907 Q485 214.74 481.945 214.74 Q474.098 214.74 469.584 209.948 Q465.07 205.133 465.07 196.823 Q465.07 188.49 469.584 183.698 Q474.098 178.884 481.945 178.884 Q485.047 178.884 487.778 179.717 Q490.533 180.527 492.94 182.171 Z" fill="#000000" fill-rule="nonzero" fill-opacity="1" /><path clip-path="url(#clip710)" d="M499.977 178.05 L504.236 178.05 L504.236 214.069 L499.977 214.069 L499.977 178.05 Z" fill="#000000" fill-rule="nonzero" fill-opacity="1" /><path clip-path="url(#clip710)" d="M512.708 203.837 L512.708 188.143 L516.968 188.143 L516.968 203.675 Q516.968 207.356 518.403 209.208 Q519.838 211.036 522.708 211.036 Q526.157 211.036 528.148 208.837 Q530.162 206.638 530.162 202.842 L530.162 188.143 L534.421 188.143 L534.421 214.069 L530.162 214.069 L530.162 210.087 Q528.611 212.448 526.551 213.606 Q524.514 214.74 521.806 214.74 Q517.338 214.74 515.023 211.962 Q512.708 209.184 512.708 203.837 M523.426 187.518 L523.426 187.518 Z" fill="#000000" fill-rule="nonzero" fill-opacity="1" /><path clip-path="url(#clip710)" d="M559.722 188.907 L559.722 192.934 Q557.917 192.009 555.972 191.546 Q554.028 191.083 551.944 191.083 Q548.773 191.083 547.176 192.055 Q545.602 193.027 545.602 194.971 Q545.602 196.453 546.736 197.309 Q547.87 198.143 551.296 198.907 L552.755 199.231 Q557.292 200.203 559.19 201.985 Q561.111 203.745 561.111 206.916 Q561.111 210.527 558.241 212.633 Q555.393 214.74 550.393 214.74 Q548.31 214.74 546.042 214.323 Q543.796 213.93 541.296 213.12 L541.296 208.721 Q543.657 209.948 545.949 210.573 Q548.241 211.175 550.486 211.175 Q553.495 211.175 555.116 210.157 Q556.736 209.115 556.736 207.24 Q556.736 205.504 555.555 204.578 Q554.398 203.652 550.44 202.796 L548.958 202.448 Q545 201.615 543.241 199.902 Q541.481 198.166 541.481 195.157 Q541.481 191.499 544.074 189.509 Q546.667 187.518 551.435 187.518 Q553.796 187.518 555.88 187.865 Q557.963 188.212 559.722 188.907 Z" fill="#000000" fill-rule="nonzero" fill-opacity="1" /><path clip-path="url(#clip710)" d="M572.106 180.782 L572.106 188.143 L580.879 188.143 L580.879 191.453 L572.106 191.453 L572.106 205.527 Q572.106 208.698 572.963 209.601 Q573.842 210.504 576.504 210.504 L580.879 210.504 L580.879 214.069 L576.504 214.069 Q571.574 214.069 569.699 212.24 Q567.824 210.388 567.824 205.527 L567.824 191.453 L564.699 191.453 L564.699 188.143 L567.824 188.143 L567.824 180.782 L572.106 180.782 Z" fill="#000000" fill-rule="nonzero" fill-opacity="1" /><path clip-path="url(#clip710)" d="M608.657 200.041 L608.657 202.124 L589.074 202.124 Q589.352 206.522 591.713 208.837 Q594.097 211.129 598.333 211.129 Q600.787 211.129 603.078 210.527 Q605.393 209.925 607.662 208.721 L607.662 212.749 Q605.37 213.721 602.963 214.231 Q600.555 214.74 598.078 214.74 Q591.875 214.74 588.24 211.129 Q584.629 207.518 584.629 201.36 Q584.629 194.995 588.055 191.268 Q591.504 187.518 597.338 187.518 Q602.569 187.518 605.601 190.897 Q608.657 194.254 608.657 200.041 M604.398 198.791 Q604.351 195.296 602.43 193.212 Q600.532 191.129 597.384 191.129 Q593.819 191.129 591.666 193.143 Q589.537 195.157 589.213 198.814 L604.398 198.791 Z" fill="#000000" fill-rule="nonzero" fill-opacity="1" /><path clip-path="url(#clip710)" d="M630.671 192.124 Q629.953 191.708 629.097 191.522 Q628.263 191.314 627.245 191.314 Q623.634 191.314 621.689 193.675 Q619.768 196.013 619.768 200.411 L619.768 214.069 L615.486 214.069 L615.486 188.143 L619.768 188.143 L619.768 192.171 Q621.111 189.809 623.263 188.675 Q625.416 187.518 628.495 187.518 Q628.935 187.518 629.467 187.587 Q630 187.634 630.648 187.749 L630.671 192.124 Z" fill="#000000" fill-rule="nonzero" fill-opacity="1" /><path clip-path="url(#clip710)" d="M654.837 210.133 L671.157 210.133 L671.157 214.069 L649.212 214.069 L649.212 210.133 Q651.874 207.379 656.458 202.749 Q661.064 198.096 662.245 196.754 Q664.49 194.231 665.37 192.495 Q666.272 190.735 666.272 189.046 Q666.272 186.291 664.328 184.555 Q662.407 182.819 659.305 182.819 Q657.106 182.819 654.652 183.583 Q652.222 184.347 649.444 185.897 L649.444 181.175 Q652.268 180.041 654.722 179.462 Q657.175 178.884 659.212 178.884 Q664.583 178.884 667.777 181.569 Q670.972 184.254 670.972 188.745 Q670.972 190.874 670.161 192.796 Q669.374 194.694 667.268 197.286 Q666.689 197.958 663.587 201.175 Q660.485 204.37 654.837 210.133 Z" fill="#000000" fill-rule="nonzero" fill-opacity="1" /><circle clip-path="url(#clip710)" cx="369.491" cy="248.629" r="20.48" fill="#3da44d" fill-rule="evenodd" fill-opacity="1" stroke="#000000" stroke-opacity="1" stroke-width="4.55111"/>
<path clip-path="url(#clip710)" d="M492.94 234.011 L492.94 238.941 Q490.579 236.742 487.894 235.654 Q485.232 234.566 482.223 234.566 Q476.297 234.566 473.148 238.2 Q470 241.812 470 248.663 Q470 255.492 473.148 259.126 Q476.297 262.737 482.223 262.737 Q485.232 262.737 487.894 261.649 Q490.579 260.561 492.94 258.362 L492.94 263.247 Q490.486 264.913 487.732 265.747 Q485 266.58 481.945 266.58 Q474.098 266.58 469.584 261.788 Q465.07 256.973 465.07 248.663 Q465.07 240.33 469.584 235.538 Q474.098 230.724 481.945 230.724 Q485.047 230.724 487.778 231.557 Q490.533 232.367 492.94 234.011 Z" fill="#000000" fill-rule="nonzero" fill-opacity="1" /><path clip-path="url(#clip710)" d="M522.153 251.881 L522.153 253.964 L502.57 253.964 Q502.847 258.362 505.209 260.677 Q507.593 262.969 511.829 262.969 Q514.283 262.969 516.574 262.367 Q518.889 261.765 521.157 260.561 L521.157 264.589 Q518.866 265.561 516.458 266.071 Q514.051 266.58 511.574 266.58 Q505.371 266.58 501.736 262.969 Q498.125 259.358 498.125 253.2 Q498.125 246.835 501.551 243.108 Q505 239.358 510.833 239.358 Q516.065 239.358 519.097 242.737 Q522.153 246.094 522.153 251.881 M517.894 250.631 Q517.847 247.136 515.926 245.052 Q514.028 242.969 510.88 242.969 Q507.315 242.969 505.162 244.983 Q503.033 246.997 502.709 250.654 L517.894 250.631 Z" fill="#000000" fill-rule="nonzero" fill-opacity="1" /><path clip-path="url(#clip710)" d="M550.694 250.261 L550.694 265.909 L546.435 265.909 L546.435 250.399 Q546.435 246.719 545 244.89 Q543.565 243.062 540.694 243.062 Q537.245 243.062 535.255 245.261 Q533.264 247.46 533.264 251.256 L533.264 265.909 L528.982 265.909 L528.982 239.983 L533.264 239.983 L533.264 244.011 Q534.792 241.673 536.852 240.515 Q538.935 239.358 541.643 239.358 Q546.111 239.358 548.403 242.136 Q550.694 244.89 550.694 250.261 Z" fill="#000000" fill-rule="nonzero" fill-opacity="1" /><path clip-path="url(#clip710)" d="M563.403 232.622 L563.403 239.983 L572.176 239.983 L572.176 243.293 L563.403 243.293 L563.403 257.367 Q563.403 260.538 564.259 261.441 Q565.139 262.344 567.801 262.344 L572.176 262.344 L572.176 265.909 L567.801 265.909 Q562.87 265.909 560.995 264.08 Q559.12 262.228 559.12 257.367 L559.12 243.293 L555.995 243.293 L555.995 239.983 L559.12 239.983 L559.12 232.622 L563.403 232.622 Z" fill="#000000" fill-rule="nonzero" fill-opacity="1" /><path clip-path="url(#clip710)" d="M592.801 243.964 Q592.083 243.548 591.227 243.362 Q590.393 243.154 589.375 243.154 Q585.764 243.154 583.819 245.515 Q581.898 247.853 581.898 252.251 L581.898 265.909 L577.616 265.909 L577.616 239.983 L581.898 239.983 L581.898 244.011 Q583.24 241.649 585.393 240.515 Q587.546 239.358 590.625 239.358 Q591.065 239.358 591.597 239.427 Q592.129 239.474 592.777 239.589 L592.801 243.964 Z" fill="#000000" fill-rule="nonzero" fill-opacity="1" /><path clip-path="url(#clip710)" d="M606.273 242.969 Q602.847 242.969 600.856 245.654 Q598.865 248.316 598.865 252.969 Q598.865 257.622 600.833 260.307 Q602.824 262.969 606.273 262.969 Q609.676 262.969 611.666 260.284 Q613.657 257.598 613.657 252.969 Q613.657 248.362 611.666 245.677 Q609.676 242.969 606.273 242.969 M606.273 239.358 Q611.828 239.358 615 242.969 Q618.171 246.58 618.171 252.969 Q618.171 259.335 615 262.969 Q611.828 266.58 606.273 266.58 Q600.694 266.58 597.523 262.969 Q594.375 259.335 594.375 252.969 Q594.375 246.58 597.523 242.969 Q600.694 239.358 606.273 239.358 Z" fill="#000000" fill-rule="nonzero" fill-opacity="1" /><path clip-path="url(#clip710)" d="M625.231 239.983 L629.49 239.983 L629.49 265.909 L625.231 265.909 L625.231 239.983 M625.231 229.89 L629.49 229.89 L629.49 235.284 L625.231 235.284 L625.231 229.89 Z" fill="#000000" fill-rule="nonzero" fill-opacity="1" /><path clip-path="url(#clip710)" d="M655.462 243.918 L655.462 229.89 L659.722 229.89 L659.722 265.909 L655.462 265.909 L655.462 262.02 Q654.12 264.335 652.06 265.469 Q650.023 266.58 647.152 266.58 Q642.453 266.58 639.49 262.83 Q636.55 259.08 636.55 252.969 Q636.55 246.858 639.49 243.108 Q642.453 239.358 647.152 239.358 Q650.023 239.358 652.06 240.492 Q654.12 241.603 655.462 243.918 M640.949 252.969 Q640.949 257.668 642.87 260.353 Q644.814 263.015 648.194 263.015 Q651.573 263.015 653.518 260.353 Q655.462 257.668 655.462 252.969 Q655.462 248.27 653.518 245.608 Q651.573 242.923 648.194 242.923 Q644.814 242.923 642.87 245.608 Q640.949 248.27 640.949 252.969 Z" fill="#000000" fill-rule="nonzero" fill-opacity="1" /><path clip-path="url(#clip710)" d="M685.022 240.747 L685.022 244.774 Q683.217 243.849 681.272 243.386 Q679.328 242.923 677.245 242.923 Q674.073 242.923 672.476 243.895 Q670.902 244.867 670.902 246.811 Q670.902 248.293 672.036 249.149 Q673.171 249.983 676.596 250.747 L678.055 251.071 Q682.592 252.043 684.49 253.825 Q686.411 255.585 686.411 258.756 Q686.411 262.367 683.541 264.473 Q680.694 266.58 675.694 266.58 Q673.61 266.58 671.342 266.163 Q669.097 265.77 666.597 264.96 L666.597 260.561 Q668.958 261.788 671.249 262.413 Q673.541 263.015 675.786 263.015 Q678.796 263.015 680.416 261.997 Q682.036 260.955 682.036 259.08 Q682.036 257.344 680.856 256.418 Q679.698 255.492 675.74 254.636 L674.259 254.288 Q670.3 253.455 668.541 251.742 Q666.782 250.006 666.782 246.997 Q666.782 243.339 669.374 241.349 Q671.967 239.358 676.735 239.358 Q679.096 239.358 681.18 239.705 Q683.263 240.052 685.022 240.747 Z" fill="#000000" fill-rule="nonzero" fill-opacity="1" /></svg>
