<?xml version="1.0" encoding="utf-8"?>
<svg xmlns="http://www.w3.org/2000/svg" xmlns:xlink="http://www.w3.org/1999/xlink" width="600" height="400" viewBox="0 0 2400 1600">
<defs>
  <clipPath id="clip480">
    <rect x="0" y="0" width="2400" height="1600"/>
  </clipPath>
</defs>
<path clip-path="url(#clip480)" d="M0 1600 L2400 1600 L2400 0 L0 0  Z" fill="#ffffff" fill-rule="evenodd" fill-opacity="1"/>
<defs>
  <clipPath id="clip481">
    <rect x="480" y="0" width="1681" height="1600"/>
  </clipPath>
</defs>
<path clip-path="url(#clip480)" d="M247.459 1423.18 L2352.76 1423.18 L2352.76 47.2441 L247.459 47.2441  Z" fill="#ffffff" fill-rule="evenodd" fill-opacity="1"/>
<defs>
  <clipPath id="clip482">
    <rect x="247" y="47" width="2106" height="1377"/>
  </clipPath>
</defs>
<polyline clip-path="url(#clip482)" style="stroke:#000000; stroke-linecap:round; stroke-linejoin:round; stroke-width:2; stroke-opacity:0.1; fill:none" points="517.37,1423.18 517.37,47.2441 "/>
<polyline clip-path="url(#clip482)" style="stroke:#000000; stroke-linecap:round; stroke-linejoin:round; stroke-width:2; stroke-opacity:0.1; fill:none" points="980.813,1423.18 980.813,47.2441 "/>
<polyline clip-path="url(#clip482)" style="stroke:#000000; stroke-linecap:round; stroke-linejoin:round; stroke-width:2; stroke-opacity:0.1; fill:none" points="1444.26,1423.18 1444.26,47.2441 "/>
<polyline clip-path="url(#clip482)" style="stroke:#000000; stroke-linecap:round; stroke-linejoin:round; stroke-width:2; stroke-opacity:0.1; fill:none" points="1907.7,1423.18 1907.7,47.2441 "/>
<polyline clip-path="url(#clip480)" style="stroke:#000000; stroke-linecap:round; stroke-linejoin:round; stroke-width:4; stroke-opacity:1; fill:none" points="247.459,1423.18 2352.76,1423.18 "/>
<polyline clip-path="url(#clip480)" style="stroke:#000000; stroke-linecap:round; stroke-linejoin:round; stroke-width:4; stroke-opacity:1; fill:none" points="517.37,1423.18 517.37,1404.28 "/>
<polyline clip-path="url(#clip480)" style="stroke:#000000; stroke-linecap:round; stroke-linejoin:round; stroke-width:4; stroke-opacity:1; fill:none" points="980.813,1423.18 980.813,1404.28 "/>
<polyline clip-path="url(#clip480)" style="stroke:#000000; stroke-linecap:round; stroke-linejoin:round; stroke-width:4; stroke-opacity:1; fill:none" points="1444.26,1423.18 1444.26,1404.28 "/>
<polyline clip-path="url(#clip480)" style="stroke:#000000; stroke-linecap:round; stroke-linejoin:round; stroke-width:4; stroke-opacity:1; fill:none" points="1907.7,1423.18 1907.7,1404.28 "/>
<path clip-path="url(#clip480)" d="M512.023 1481.64 L528.342 1481.64 L528.342 1485.58 L506.398 1485.58 L506.398 1481.64 Q509.06 1478.89 513.643 1474.26 Q518.25 1469.61 519.43 1468.27 Q521.675 1465.74 522.555 1464.01 Q523.458 1462.25 523.458 1460.56 Q523.458 1457.8 521.513 1456.07 Q519.592 1454.33 516.49 1454.33 Q514.291 1454.33 511.838 1455.09 Q509.407 1455.86 506.629 1457.41 L506.629 1452.69 Q509.453 1451.55 511.907 1450.97 Q514.361 1450.39 516.398 1450.39 Q521.768 1450.39 524.962 1453.08 Q528.157 1455.77 528.157 1460.26 Q528.157 1462.39 527.347 1464.31 Q526.56 1466.2 524.453 1468.8 Q523.875 1469.47 520.773 1472.69 Q517.671 1475.88 512.023 1481.64 Z" fill="#000000" fill-rule="nonzero" fill-opacity="1" /><path clip-path="url(#clip480)" d="M983.822 1455.09 L972.017 1473.54 L983.822 1473.54 L983.822 1455.09 M982.595 1451.02 L988.475 1451.02 L988.475 1473.54 L993.406 1473.54 L993.406 1477.43 L988.475 1477.43 L988.475 1485.58 L983.822 1485.58 L983.822 1477.43 L968.22 1477.43 L968.22 1472.92 L982.595 1451.02 Z" fill="#000000" fill-rule="nonzero" fill-opacity="1" /><path clip-path="url(#clip480)" d="M1444.66 1466.44 Q1441.51 1466.44 1439.66 1468.59 Q1437.83 1470.74 1437.83 1474.49 Q1437.83 1478.22 1439.66 1480.39 Q1441.51 1482.55 1444.66 1482.55 Q1447.81 1482.55 1449.64 1480.39 Q1451.49 1478.22 1451.49 1474.49 Q1451.49 1470.74 1449.64 1468.59 Q1447.81 1466.44 1444.66 1466.44 M1453.94 1451.78 L1453.94 1456.04 Q1452.18 1455.21 1450.38 1454.77 Q1448.6 1454.33 1446.84 1454.33 Q1442.21 1454.33 1439.75 1457.45 Q1437.32 1460.58 1436.98 1466.9 Q1438.34 1464.89 1440.4 1463.82 Q1442.46 1462.73 1444.94 1462.73 Q1450.15 1462.73 1453.16 1465.9 Q1456.19 1469.05 1456.19 1474.49 Q1456.19 1479.82 1453.04 1483.03 Q1449.89 1486.25 1444.66 1486.25 Q1438.67 1486.25 1435.49 1481.67 Q1432.32 1477.06 1432.32 1468.33 Q1432.32 1460.14 1436.21 1455.28 Q1440.1 1450.39 1446.65 1450.39 Q1448.41 1450.39 1450.19 1450.74 Q1452 1451.09 1453.94 1451.78 Z" fill="#000000" fill-rule="nonzero" fill-opacity="1" /><path clip-path="url(#clip480)" d="M1907.7 1469.17 Q1904.37 1469.17 1902.44 1470.95 Q1900.55 1472.73 1900.55 1475.86 Q1900.55 1478.98 1902.44 1480.77 Q1904.37 1482.55 1907.7 1482.55 Q1911.03 1482.55 1912.95 1480.77 Q1914.88 1478.96 1914.88 1475.86 Q1914.88 1472.73 1912.95 1470.95 Q1911.06 1469.17 1907.7 1469.17 M1903.02 1467.18 Q1900.01 1466.44 1898.32 1464.38 Q1896.66 1462.32 1896.66 1459.35 Q1896.66 1455.21 1899.6 1452.8 Q1902.56 1450.39 1907.7 1450.39 Q1912.86 1450.39 1915.8 1452.8 Q1918.74 1455.21 1918.74 1459.35 Q1918.74 1462.32 1917.05 1464.38 Q1915.38 1466.44 1912.4 1467.18 Q1915.78 1467.96 1917.65 1470.26 Q1919.55 1472.55 1919.55 1475.86 Q1919.55 1480.88 1916.47 1483.57 Q1913.42 1486.25 1907.7 1486.25 Q1901.98 1486.25 1898.9 1483.57 Q1895.85 1480.88 1895.85 1475.86 Q1895.85 1472.55 1897.75 1470.26 Q1899.64 1467.96 1903.02 1467.18 M1901.31 1459.79 Q1901.31 1462.48 1902.98 1463.98 Q1904.67 1465.49 1907.7 1465.49 Q1910.71 1465.49 1912.4 1463.98 Q1914.11 1462.48 1914.11 1459.79 Q1914.11 1457.11 1912.4 1455.6 Q1910.71 1454.1 1907.7 1454.1 Q1904.67 1454.1 1902.98 1455.6 Q1901.31 1457.11 1901.31 1459.79 Z" fill="#000000" fill-rule="nonzero" fill-opacity="1" /><path clip-path="url(#clip480)" d="M1281.93 1520.52 L1288.84 1520.52 L1300.65 1538.19 L1312.52 1520.52 L1319.43 1520.52 L1304.15 1543.34 L1320.45 1568.04 L1313.54 1568.04 L1300.17 1547.83 L1286.71 1568.04 L1279.77 1568.04 L1296.73 1542.68 L1281.93 1520.52 Z" fill="#000000" fill-rule="nonzero" fill-opacity="1" /><polyline clip-path="url(#clip482)" style="stroke:#000000; stroke-linecap:round; stroke-linejoin:round; stroke-width:2; stroke-opacity:0.1; fill:none" points="247.459,1303 2352.76,1303 "/>
<polyline clip-path="url(#clip482)" style="stroke:#000000; stroke-linecap:round; stroke-linejoin:round; stroke-width:2; stroke-opacity:0.1; fill:none" points="247.459,1121.96 2352.76,1121.96 "/>
<polyline clip-path="url(#clip482)" style="stroke:#000000; stroke-linecap:round; stroke-linejoin:round; stroke-width:2; stroke-opacity:0.1; fill:none" points="247.459,940.934 2352.76,940.934 "/>
<polyline clip-path="url(#clip482)" style="stroke:#000000; stroke-linecap:round; stroke-linejoin:round; stroke-width:2; stroke-opacity:0.1; fill:none" points="247.459,759.904 2352.76,759.904 "/>
<polyline clip-path="url(#clip482)" style="stroke:#000000; stroke-linecap:round; stroke-linejoin:round; stroke-width:2; stroke-opacity:0.1; fill:none" points="247.459,578.873 2352.76,578.873 "/>
<polyline clip-path="url(#clip482)" style="stroke:#000000; stroke-linecap:round; stroke-linejoin:round; stroke-width:2; stroke-opacity:0.1; fill:none" points="247.459,397.842 2352.76,397.842 "/>
<polyline clip-path="url(#clip482)" style="stroke:#000000; stroke-linecap:round; stroke-linejoin:round; stroke-width:2; stroke-opacity:0.1; fill:none" points="247.459,216.812 2352.76,216.812 "/>
<polyline clip-path="url(#clip480)" style="stroke:#000000; stroke-linecap:round; stroke-linejoin:round; stroke-width:4; stroke-opacity:1; fill:none" points="247.459,1423.18 247.459,47.2441 "/>
<polyline clip-path="url(#clip480)" style="stroke:#000000; stroke-linecap:round; stroke-linejoin:round; stroke-width:4; stroke-opacity:1; fill:none" points="247.459,1303 266.356,1303 "/>
<polyline clip-path="url(#clip480)" style="stroke:#000000; stroke-linecap:round; stroke-linejoin:round; stroke-width:4; stroke-opacity:1; fill:none" points="247.459,1121.96 266.356,1121.96 "/>
<polyline clip-path="url(#clip480)" style="stroke:#000000; stroke-linecap:round; stroke-linejoin:round; stroke-width:4; stroke-opacity:1; fill:none" points="247.459,940.934 266.356,940.934 "/>
<polyline clip-path="url(#clip480)" style="stroke:#000000; stroke-linecap:round; stroke-linejoin:round; stroke-width:4; stroke-opacity:1; fill:none" points="247.459,759.904 266.356,759.904 "/>
<polyline clip-path="url(#clip480)" style="stroke:#000000; stroke-linecap:round; stroke-linejoin:round; stroke-width:4; stroke-opacity:1; fill:none" points="247.459,578.873 266.356,578.873 "/>
<polyline clip-path="url(#clip480)" style="stroke:#000000; stroke-linecap:round; stroke-linejoin:round; stroke-width:4; stroke-opacity:1; fill:none" points="247.459,397.842 266.356,397.842 "/>
<polyline clip-path="url(#clip480)" style="stroke:#000000; stroke-linecap:round; stroke-linejoin:round; stroke-width:4; stroke-opacity:1; fill:none" points="247.459,216.812 266.356,216.812 "/>
<path clip-path="url(#clip480)" d="M149.306 1316.34 L165.626 1316.34 L165.626 1320.28 L143.681 1320.28 L143.681 1316.34 Q146.343 1313.59 150.927 1308.96 Q155.533 1304.3 156.714 1302.96 Q158.959 1300.44 159.839 1298.7 Q160.741 1296.94 160.741 1295.25 Q160.741 1292.5 158.797 1290.76 Q156.876 1289.03 153.774 1289.03 Q151.575 1289.03 149.121 1289.79 Q146.691 1290.55 143.913 1292.1 L143.913 1287.38 Q146.737 1286.25 149.191 1285.67 Q151.644 1285.09 153.681 1285.09 Q159.052 1285.09 162.246 1287.78 Q165.44 1290.46 165.44 1294.95 Q165.44 1297.08 164.63 1299 Q163.843 1300.9 161.737 1303.49 Q161.158 1304.16 158.056 1307.38 Q154.954 1310.58 149.306 1316.34 Z" fill="#000000" fill-rule="nonzero" fill-opacity="1" /><path clip-path="url(#clip480)" d="M175.44 1314.4 L180.325 1314.4 L180.325 1320.28 L175.44 1320.28 L175.44 1314.4 Z" fill="#000000" fill-rule="nonzero" fill-opacity="1" /><path clip-path="url(#clip480)" d="M190.556 1285.72 L208.912 1285.72 L208.912 1289.65 L194.838 1289.65 L194.838 1298.12 Q195.857 1297.78 196.875 1297.61 Q197.894 1297.43 198.912 1297.43 Q204.699 1297.43 208.079 1300.6 Q211.459 1303.77 211.459 1309.19 Q211.459 1314.77 207.987 1317.87 Q204.514 1320.95 198.195 1320.95 Q196.019 1320.95 193.75 1320.58 Q191.505 1320.21 189.098 1319.47 L189.098 1314.77 Q191.181 1315.9 193.403 1316.46 Q195.625 1317.01 198.102 1317.01 Q202.107 1317.01 204.445 1314.91 Q206.783 1312.8 206.783 1309.19 Q206.783 1305.58 204.445 1303.47 Q202.107 1301.36 198.102 1301.36 Q196.227 1301.36 194.352 1301.78 Q192.5 1302.2 190.556 1303.08 L190.556 1285.72 Z" fill="#000000" fill-rule="nonzero" fill-opacity="1" /><path clip-path="url(#clip480)" d="M144.329 1104.68 L162.686 1104.68 L162.686 1108.62 L148.612 1108.62 L148.612 1117.09 Q149.63 1116.74 150.649 1116.58 Q151.667 1116.4 152.686 1116.4 Q158.473 1116.4 161.852 1119.57 Q165.232 1122.74 165.232 1128.16 Q165.232 1133.74 161.76 1136.84 Q158.288 1139.92 151.968 1139.92 Q149.792 1139.92 147.524 1139.55 Q145.279 1139.18 142.871 1138.43 L142.871 1133.74 Q144.954 1134.87 147.177 1135.43 Q149.399 1135.98 151.876 1135.98 Q155.88 1135.98 158.218 1133.87 Q160.556 1131.77 160.556 1128.16 Q160.556 1124.55 158.218 1122.44 Q155.88 1120.33 151.876 1120.33 Q150.001 1120.33 148.126 1120.75 Q146.274 1121.17 144.329 1122.05 L144.329 1104.68 Z" fill="#000000" fill-rule="nonzero" fill-opacity="1" /><path clip-path="url(#clip480)" d="M174.445 1133.37 L179.329 1133.37 L179.329 1139.24 L174.445 1139.24 L174.445 1133.37 Z" fill="#000000" fill-rule="nonzero" fill-opacity="1" /><path clip-path="url(#clip480)" d="M199.514 1107.76 Q195.903 1107.76 194.075 1111.33 Q192.269 1114.87 192.269 1122 Q192.269 1129.11 194.075 1132.67 Q195.903 1136.21 199.514 1136.21 Q203.149 1136.21 204.954 1132.67 Q206.783 1129.11 206.783 1122 Q206.783 1114.87 204.954 1111.33 Q203.149 1107.76 199.514 1107.76 M199.514 1104.06 Q205.324 1104.06 208.38 1108.67 Q211.459 1113.25 211.459 1122 Q211.459 1130.73 208.38 1135.33 Q205.324 1139.92 199.514 1139.92 Q193.704 1139.92 190.625 1135.33 Q187.57 1130.73 187.57 1122 Q187.57 1113.25 190.625 1108.67 Q193.704 1104.06 199.514 1104.06 Z" fill="#000000" fill-rule="nonzero" fill-opacity="1" /><path clip-path="url(#clip480)" d="M144.098 923.654 L166.32 923.654 L166.32 925.645 L153.774 958.214 L148.89 958.214 L160.695 927.589 L144.098 927.589 L144.098 923.654 Z" fill="#000000" fill-rule="nonzero" fill-opacity="1" /><path clip-path="url(#clip480)" d="M175.44 952.335 L180.325 952.335 L180.325 958.214 L175.44 958.214 L175.44 952.335 Z" fill="#000000" fill-rule="nonzero" fill-opacity="1" /><path clip-path="url(#clip480)" d="M190.556 923.654 L208.912 923.654 L208.912 927.589 L194.838 927.589 L194.838 936.061 Q195.857 935.714 196.875 935.552 Q197.894 935.367 198.912 935.367 Q204.699 935.367 208.079 938.538 Q211.459 941.71 211.459 947.126 Q211.459 952.705 207.987 955.807 Q204.514 958.885 198.195 958.885 Q196.019 958.885 193.75 958.515 Q191.505 958.145 189.098 957.404 L189.098 952.705 Q191.181 953.839 193.403 954.395 Q195.625 954.95 198.102 954.95 Q202.107 954.95 204.445 952.844 Q206.783 950.737 206.783 947.126 Q206.783 943.515 204.445 941.409 Q202.107 939.302 198.102 939.302 Q196.227 939.302 194.352 939.719 Q192.5 940.136 190.556 941.015 L190.556 923.654 Z" fill="#000000" fill-rule="nonzero" fill-opacity="1" /><path clip-path="url(#clip480)" d="M114.931 773.248 L122.57 773.248 L122.57 746.883 L114.26 748.549 L114.26 744.29 L122.524 742.624 L127.2 742.624 L127.2 773.248 L134.839 773.248 L134.839 777.184 L114.931 777.184 L114.931 773.248 Z" fill="#000000" fill-rule="nonzero" fill-opacity="1" /><path clip-path="url(#clip480)" d="M154.283 745.702 Q150.672 745.702 148.843 749.267 Q147.038 752.809 147.038 759.938 Q147.038 767.045 148.843 770.609 Q150.672 774.151 154.283 774.151 Q157.917 774.151 159.723 770.609 Q161.552 767.045 161.552 759.938 Q161.552 752.809 159.723 749.267 Q157.917 745.702 154.283 745.702 M154.283 741.999 Q160.093 741.999 163.149 746.605 Q166.227 751.188 166.227 759.938 Q166.227 768.665 163.149 773.271 Q160.093 777.855 154.283 777.855 Q148.473 777.855 145.394 773.271 Q142.339 768.665 142.339 759.938 Q142.339 751.188 145.394 746.605 Q148.473 741.999 154.283 741.999 Z" fill="#000000" fill-rule="nonzero" fill-opacity="1" /><path clip-path="url(#clip480)" d="M174.445 771.304 L179.329 771.304 L179.329 777.184 L174.445 777.184 L174.445 771.304 Z" fill="#000000" fill-rule="nonzero" fill-opacity="1" /><path clip-path="url(#clip480)" d="M199.514 745.702 Q195.903 745.702 194.075 749.267 Q192.269 752.809 192.269 759.938 Q192.269 767.045 194.075 770.609 Q195.903 774.151 199.514 774.151 Q203.149 774.151 204.954 770.609 Q206.783 767.045 206.783 759.938 Q206.783 752.809 204.954 749.267 Q203.149 745.702 199.514 745.702 M199.514 741.999 Q205.324 741.999 208.38 746.605 Q211.459 751.188 211.459 759.938 Q211.459 768.665 208.38 773.271 Q205.324 777.855 199.514 777.855 Q193.704 777.855 190.625 773.271 Q187.57 768.665 187.57 759.938 Q187.57 751.188 190.625 746.605 Q193.704 741.999 199.514 741.999 Z" fill="#000000" fill-rule="nonzero" fill-opacity="1" /><path clip-path="url(#clip480)" d="M115.927 592.218 L123.566 592.218 L123.566 565.852 L115.256 567.519 L115.256 563.26 L123.519 561.593 L128.195 561.593 L128.195 592.218 L135.834 592.218 L135.834 596.153 L115.927 596.153 L115.927 592.218 Z" fill="#000000" fill-rule="nonzero" fill-opacity="1" /><path clip-path="url(#clip480)" d="M149.306 592.218 L165.626 592.218 L165.626 596.153 L143.681 596.153 L143.681 592.218 Q146.343 589.463 150.927 584.833 Q155.533 580.181 156.714 578.838 Q158.959 576.315 159.839 574.579 Q160.741 572.82 160.741 571.13 Q160.741 568.375 158.797 566.639 Q156.876 564.903 153.774 564.903 Q151.575 564.903 149.121 565.667 Q146.691 566.431 143.913 567.982 L143.913 563.26 Q146.737 562.125 149.191 561.547 Q151.644 560.968 153.681 560.968 Q159.052 560.968 162.246 563.653 Q165.44 566.338 165.44 570.829 Q165.44 572.959 164.63 574.88 Q163.843 576.778 161.737 579.371 Q161.158 580.042 158.056 583.259 Q154.954 586.454 149.306 592.218 Z" fill="#000000" fill-rule="nonzero" fill-opacity="1" /><path clip-path="url(#clip480)" d="M175.44 590.273 L180.325 590.273 L180.325 596.153 L175.44 596.153 L175.44 590.273 Z" fill="#000000" fill-rule="nonzero" fill-opacity="1" /><path clip-path="url(#clip480)" d="M190.556 561.593 L208.912 561.593 L208.912 565.528 L194.838 565.528 L194.838 574 Q195.857 573.653 196.875 573.491 Q197.894 573.306 198.912 573.306 Q204.699 573.306 208.079 576.477 Q211.459 579.648 211.459 585.065 Q211.459 590.644 207.987 593.745 Q204.514 596.824 198.195 596.824 Q196.019 596.824 193.75 596.454 Q191.505 596.083 189.098 595.343 L189.098 590.644 Q191.181 591.778 193.403 592.333 Q195.625 592.889 198.102 592.889 Q202.107 592.889 204.445 590.783 Q206.783 588.676 206.783 585.065 Q206.783 581.454 204.445 579.347 Q202.107 577.241 198.102 577.241 Q196.227 577.241 194.352 577.658 Q192.5 578.074 190.556 578.954 L190.556 561.593 Z" fill="#000000" fill-rule="nonzero" fill-opacity="1" /><path clip-path="url(#clip480)" d="M114.931 411.187 L122.57 411.187 L122.57 384.821 L114.26 386.488 L114.26 382.229 L122.524 380.562 L127.2 380.562 L127.2 411.187 L134.839 411.187 L134.839 415.122 L114.931 415.122 L114.931 411.187 Z" fill="#000000" fill-rule="nonzero" fill-opacity="1" /><path clip-path="url(#clip480)" d="M144.329 380.562 L162.686 380.562 L162.686 384.497 L148.612 384.497 L148.612 392.97 Q149.63 392.622 150.649 392.46 Q151.667 392.275 152.686 392.275 Q158.473 392.275 161.852 395.446 Q165.232 398.618 165.232 404.034 Q165.232 409.613 161.76 412.715 Q158.288 415.794 151.968 415.794 Q149.792 415.794 147.524 415.423 Q145.279 415.053 142.871 414.312 L142.871 409.613 Q144.954 410.747 147.177 411.303 Q149.399 411.858 151.876 411.858 Q155.88 411.858 158.218 409.752 Q160.556 407.645 160.556 404.034 Q160.556 400.423 158.218 398.317 Q155.88 396.21 151.876 396.21 Q150.001 396.21 148.126 396.627 Q146.274 397.044 144.329 397.923 L144.329 380.562 Z" fill="#000000" fill-rule="nonzero" fill-opacity="1" /><path clip-path="url(#clip480)" d="M174.445 409.243 L179.329 409.243 L179.329 415.122 L174.445 415.122 L174.445 409.243 Z" fill="#000000" fill-rule="nonzero" fill-opacity="1" /><path clip-path="url(#clip480)" d="M199.514 383.641 Q195.903 383.641 194.075 387.206 Q192.269 390.747 192.269 397.877 Q192.269 404.983 194.075 408.548 Q195.903 412.09 199.514 412.09 Q203.149 412.09 204.954 408.548 Q206.783 404.983 206.783 397.877 Q206.783 390.747 204.954 387.206 Q203.149 383.641 199.514 383.641 M199.514 379.937 Q205.324 379.937 208.38 384.544 Q211.459 389.127 211.459 397.877 Q211.459 406.604 208.38 411.21 Q205.324 415.794 199.514 415.794 Q193.704 415.794 190.625 411.21 Q187.57 406.604 187.57 397.877 Q187.57 389.127 190.625 384.544 Q193.704 379.937 199.514 379.937 Z" fill="#000000" fill-rule="nonzero" fill-opacity="1" /><path clip-path="url(#clip480)" d="M115.927 230.156 L123.566 230.156 L123.566 203.791 L115.256 205.457 L115.256 201.198 L123.519 199.532 L128.195 199.532 L128.195 230.156 L135.834 230.156 L135.834 234.092 L115.927 234.092 L115.927 230.156 Z" fill="#000000" fill-rule="nonzero" fill-opacity="1" /><path clip-path="url(#clip480)" d="M144.098 199.532 L166.32 199.532 L166.32 201.522 L153.774 234.092 L148.89 234.092 L160.695 203.467 L144.098 203.467 L144.098 199.532 Z" fill="#000000" fill-rule="nonzero" fill-opacity="1" /><path clip-path="url(#clip480)" d="M175.44 228.212 L180.325 228.212 L180.325 234.092 L175.44 234.092 L175.44 228.212 Z" fill="#000000" fill-rule="nonzero" fill-opacity="1" /><path clip-path="url(#clip480)" d="M190.556 199.532 L208.912 199.532 L208.912 203.467 L194.838 203.467 L194.838 211.939 Q195.857 211.592 196.875 211.43 Q197.894 211.244 198.912 211.244 Q204.699 211.244 208.079 214.416 Q211.459 217.587 211.459 223.004 Q211.459 228.582 207.987 231.684 Q204.514 234.763 198.195 234.763 Q196.019 234.763 193.75 234.393 Q191.505 234.022 189.098 233.281 L189.098 228.582 Q191.181 229.717 193.403 230.272 Q195.625 230.828 198.102 230.828 Q202.107 230.828 204.445 228.721 Q206.783 226.615 206.783 223.004 Q206.783 219.393 204.445 217.286 Q202.107 215.18 198.102 215.18 Q196.227 215.18 194.352 215.596 Q192.5 216.013 190.556 216.893 L190.556 199.532 Z" fill="#000000" fill-rule="nonzero" fill-opacity="1" /><path clip-path="url(#clip480)" d="M16.4842 755.248 L16.4842 748.341 L36.0269 735.164 L16.4842 722.083 L16.4842 715.176 L41.3741 731.981 L64.0042 731.981 L64.0042 738.443 L41.3741 738.443 L16.4842 755.248 Z" fill="#000000" fill-rule="nonzero" fill-opacity="1" /><circle clip-path="url(#clip482)" cx="468.174" cy="1274.94" r="14.4" fill="#009af9" fill-rule="evenodd" fill-opacity="1" stroke="#000000" stroke-opacity="1" stroke-width="3.2"/>
<circle clip-path="url(#clip482)" cx="313.732" cy="1379.27" r="14.4" fill="#009af9" fill-rule="evenodd" fill-opacity="1" stroke="#000000" stroke-opacity="1" stroke-width="3.2"/>
<circle clip-path="url(#clip482)" cx="307.043" cy="1366.05" r="14.4" fill="#009af9" fill-rule="evenodd" fill-opacity="1" stroke="#000000" stroke-opacity="1" stroke-width="3.2"/>
<circle clip-path="url(#clip482)" cx="468.919" cy="1201.82" r="14.4" fill="#009af9" fill-rule="evenodd" fill-opacity="1" stroke="#000000" stroke-opacity="1" stroke-width="3.2"/>
<circle clip-path="url(#clip482)" cx="481.507" cy="1331.3" r="14.4" fill="#009af9" fill-rule="evenodd" fill-opacity="1" stroke="#000000" stroke-opacity="1" stroke-width="3.2"/>
<circle clip-path="url(#clip482)" cx="2293.17" cy="810.76" r="14.4" fill="#009af9" fill-rule="evenodd" fill-opacity="1" stroke="#000000" stroke-opacity="1" stroke-width="3.2"/>
<circle clip-path="url(#clip482)" cx="1762.55" cy="124.8" r="14.4" fill="#009af9" fill-rule="evenodd" fill-opacity="1" stroke="#000000" stroke-opacity="1" stroke-width="3.2"/>
<circle clip-path="url(#clip482)" cx="2270.13" cy="1384.24" r="14.4" fill="#009af9" fill-rule="evenodd" fill-opacity="1" stroke="#000000" stroke-opacity="1" stroke-width="3.2"/>
<circle clip-path="url(#clip482)" cx="1774.78" cy="486.535" r="14.4" fill="#009af9" fill-rule="evenodd" fill-opacity="1" stroke="#000000" stroke-opacity="1" stroke-width="3.2"/>
<circle clip-path="url(#clip482)" cx="1689.66" cy="86.1857" r="14.4" fill="#009af9" fill-rule="evenodd" fill-opacity="1" stroke="#000000" stroke-opacity="1" stroke-width="3.2"/>
</svg>
