<?xml version="1.0" encoding="utf-8"?>
<svg xmlns="http://www.w3.org/2000/svg" xmlns:xlink="http://www.w3.org/1999/xlink" width="600" height="400" viewBox="0 0 2400 1600">
<defs>
  <clipPath id="clip750">
    <rect x="0" y="0" width="2400" height="1600"/>
  </clipPath>
</defs>
<path clip-path="url(#clip750)" d="M0 1600 L2400 1600 L2400 0 L0 0  Z" fill="#ffffff" fill-rule="evenodd" fill-opacity="1"/>
<defs>
  <clipPath id="clip751">
    <rect x="480" y="0" width="1681" height="1600"/>
  </clipPath>
</defs>
<path clip-path="url(#clip750)" d="M247.459 1423.18 L2352.76 1423.18 L2352.76 47.2441 L247.459 47.2441  Z" fill="#ffffff" fill-rule="evenodd" fill-opacity="1"/>
<defs>
  <clipPath id="clip752">
    <rect x="247" y="47" width="2106" height="1377"/>
  </clipPath>
</defs>
<polyline clip-path="url(#clip752)" style="stroke:#000000; stroke-linecap:round; stroke-linejoin:round; stroke-width:2; stroke-opacity:0.1; fill:none" points="517.37,1423.18 517.37,47.2441 "/>
<polyline clip-path="url(#clip752)" style="stroke:#000000; stroke-linecap:round; stroke-linejoin:round; stroke-width:2; stroke-opacity:0.1; fill:none" points="980.813,1423.18 980.813,47.2441 "/>
<polyline clip-path="url(#clip752)" style="stroke:#000000; stroke-linecap:round; stroke-linejoin:round; stroke-width:2; stroke-opacity:0.1; fill:none" points="1444.26,1423.18 1444.26,47.2441 "/>
<polyline clip-path="url(#clip752)" style="stroke:#000000; stroke-linecap:round; stroke-linejoin:round; stroke-width:2; stroke-opacity:0.1; fill:none" points="1907.7,1423.18 1907.7,47.2441 "/>
<polyline clip-path="url(#clip750)" style="stroke:#000000; stroke-linecap:round; stroke-linejoin:round; stroke-width:4; stroke-opacity:1; fill:none" points="247.459,1423.18 2352.76,1423.18 "/>
<polyline clip-path="url(#clip750)" style="stroke:#000000; stroke-linecap:round; stroke-linejoin:round; stroke-width:4; stroke-opacity:1; fill:none" points="517.37,1423.18 517.37,1404.28 "/>
<polyline clip-path="url(#clip750)" style="stroke:#000000; stroke-linecap:round; stroke-linejoin:round; stroke-width:4; stroke-opacity:1; fill:none" points="980.813,1423.18 980.813,1404.28 "/>
<polyline clip-path="url(#clip750)" style="stroke:#000000; stroke-linecap:round; stroke-linejoin:round; stroke-width:4; stroke-opacity:1; fill:none" points="1444.26,1423.18 1444.26,1404.28 "/>
<polyline clip-path="url(#clip750)" style="stroke:#000000; stroke-linecap:round; stroke-linejoin:round; stroke-width:4; stroke-opacity:1; fill:none" points="1907.7,1423.18 1907.7,1404.28 "/>
<path clip-path="url(#clip750)" d="M512.023 1481.64 L528.342 1481.64 L528.342 1485.58 L506.398 1485.58 L506.398 1481.64 Q509.06 1478.89 513.643 1474.26 Q518.25 1469.61 519.43 1468.27 Q521.675 1465.74 522.555 1464.01 Q523.458 1462.25 523.458 1460.56 Q523.458 1457.8 521.513 1456.07 Q519.592 1454.33 516.49 1454.33 Q514.291 1454.33 511.838 1455.09 Q509.407 1455.86 506.629 1457.41 L506.629 1452.69 Q509.453 1451.55 511.907 1450.97 Q514.361 1450.39 516.398 1450.39 Q521.768 1450.39 524.962 1453.08 Q528.157 1455.77 528.157 1460.26 Q528.157 1462.39 527.347 1464.31 Q526.56 1466.2 524.453 1468.8 Q523.875 1469.47 520.773 1472.69 Q517.671 1475.88 512.023 1481.64 Z" fill="#000000" fill-rule="nonzero" fill-opacity="1" /><path clip-path="url(#clip750)" d="M983.822 1455.09 L972.017 1473.54 L983.822 1473.54 L983.822 1455.09 M982.595 1451.02 L988.475 1451.02 L988.475 1473.54 L993.406 1473.54 L993.406 1477.43 L988.475 1477.43 L988.475 1485.58 L983.822 1485.58 L983.822 1477.43 L968.22 1477.43 L968.22 1472.92 L982.595 1451.02 Z" fill="#000000" fill-rule="nonzero" fill-opacity="1" /><path clip-path="url(#clip750)" d="M1444.66 1466.44 Q1441.51 1466.44 1439.66 1468.59 Q1437.83 1470.74 1437.83 1474.49 Q1437.83 1478.22 1439.66 1480.39 Q1441.51 1482.55 1444.66 1482.55 Q1447.81 1482.55 1449.64 1480.39 Q1451.49 1478.22 1451.49 1474.49 Q1451.49 1470.74 1449.64 1468.59 Q1447.81 1466.44 1444.66 1466.44 M1453.94 1451.78 L1453.94 1456.04 Q1452.18 1455.21 1450.38 1454.77 Q1448.6 1454.33 1446.84 1454.33 Q1442.21 1454.33 1439.75 1457.45 Q1437.32 1460.58 1436.98 1466.9 Q1438.34 1464.89 1440.4 1463.82 Q1442.46 1462.73 1444.94 1462.73 Q1450.15 1462.73 1453.16 1465.9 Q1456.19 1469.05 1456.19 1474.49 Q1456.19 1479.82 1453.04 1483.03 Q1449.89 1486.25 1444.66 1486.25 Q1438.67 1486.25 1435.49 1481.67 Q1432.32 1477.06 1432.32 1468.33 Q1432.32 1460.14 1436.21 1455.28 Q1440.1 1450.39 1446.65 1450.39 Q1448.41 1450.39 1450.19 1450.74 Q1452 1451.09 1453.94 1451.78 Z" fill="#000000" fill-rule="nonzero" fill-opacity="1" /><path clip-path="url(#clip750)" d="M1907.7 1469.17 Q1904.37 1469.17 1902.44 1470.95 Q1900.55 1472.73 1900.55 1475.86 Q1900.55 1478.98 1902.44 1480.77 Q1904.37 1482.55 1907.7 1482.55 Q1911.03 1482.55 1912.95 1480.77 Q1914.88 1478.96 1914.88 1475.86 Q1914.88 1472.73 1912.95 1470.95 Q1911.06 1469.17 1907.7 1469.17 M1903.02 1467.18 Q1900.01 1466.44 1898.32 1464.38 Q1896.66 1462.32 1896.66 1459.35 Q1896.66 1455.21 1899.6 1452.8 Q1902.56 1450.39 1907.7 1450.39 Q1912.86 1450.39 1915.8 1452.8 Q1918.74 1455.21 1918.74 1459.35 Q1918.74 1462.32 1917.05 1464.38 Q1915.38 1466.44 1912.4 1467.18 Q1915.78 1467.96 1917.65 1470.26 Q1919.55 1472.55 1919.55 1475.86 Q1919.55 1480.88 1916.47 1483.57 Q1913.42 1486.25 1907.7 1486.25 Q1901.98 1486.25 1898.9 1483.57 Q1895.85 1480.88 1895.85 1475.86 Q1895.85 1472.55 1897.75 1470.26 Q1899.64 1467.96 1903.02 1467.18 M1901.31 1459.79 Q1901.31 1462.48 1902.98 1463.98 Q1904.67 1465.49 1907.7 1465.49 Q1910.71 1465.49 1912.4 1463.98 Q1914.11 1462.48 1914.11 1459.79 Q1914.11 1457.11 1912.4 1455.6 Q1910.71 1454.1 1907.7 1454.1 Q1904.67 1454.1 1902.98 1455.6 Q1901.31 1457.11 1901.31 1459.79 Z" fill="#000000" fill-rule="nonzero" fill-opacity="1" /><path clip-path="url(#clip750)" d="M1281.93 1520.52 L1288.84 1520.52 L1300.65 1538.19 L1312.52 1520.52 L1319.43 1520.52 L1304.15 1543.34 L1320.45 1568.04 L1313.54 1568.04 L1300.17 1547.83 L1286.71 1568.04 L1279.77 1568.04 L1296.73 1542.68 L1281.93 1520.52 Z" fill="#000000" fill-rule="nonzero" fill-opacity="1" /><polyline clip-path="url(#clip752)" style="stroke:#000000; stroke-linecap:round; stroke-linejoin:round; stroke-width:2; stroke-opacity:0.1; fill:none" points="247.459,1303 2352.76,1303 "/>
<polyline clip-path="url(#clip752)" style="stroke:#000000; stroke-linecap:round; stroke-linejoin:round; stroke-width:2; stroke-opacity:0.1; fill:none" points="247.459,1121.96 2352.76,1121.96 "/>
<polyline clip-path="url(#clip752)" style="stroke:#000000; stroke-linecap:round; stroke-linejoin:round; stroke-width:2; stroke-opacity:0.1; fill:none" points="247.459,940.934 2352.76,940.934 "/>
<polyline clip-path="url(#clip752)" style="stroke:#000000; stroke-linecap:round; stroke-linejoin:round; stroke-width:2; stroke-opacity:0.1; fill:none" points="247.459,759.904 2352.76,759.904 "/>
<polyline clip-path="url(#clip752)" style="stroke:#000000; stroke-linecap:round; stroke-linejoin:round; stroke-width:2; stroke-opacity:0.1; fill:none" points="247.459,578.873 2352.76,578.873 "/>
<polyline clip-path="url(#clip752)" style="stroke:#000000; stroke-linecap:round; stroke-linejoin:round; stroke-width:2; stroke-opacity:0.1; fill:none" points="247.459,397.842 2352.76,397.842 "/>
<polyline clip-path="url(#clip752)" style="stroke:#000000; stroke-linecap:round; stroke-linejoin:round; stroke-width:2; stroke-opacity:0.1; fill:none" points="247.459,216.812 2352.76,216.812 "/>
<polyline clip-path="url(#clip750)" style="stroke:#000000; stroke-linecap:round; stroke-linejoin:round; stroke-width:4; stroke-opacity:1; fill:none" points="247.459,1423.18 247.459,47.2441 "/>
<polyline clip-path="url(#clip750)" style="stroke:#000000; stroke-linecap:round; stroke-linejoin:round; stroke-width:4; stroke-opacity:1; fill:none" points="247.459,1303 266.356,1303 "/>
<polyline clip-path="url(#clip750)" style="stroke:#000000; stroke-linecap:round; stroke-linejoin:round; stroke-width:4; stroke-opacity:1; fill:none" points="247.459,1121.96 266.356,1121.96 "/>
<polyline clip-path="url(#clip750)" style="stroke:#000000; stroke-linecap:round; stroke-linejoin:round; stroke-width:4; stroke-opacity:1; fill:none" points="247.459,940.934 266.356,940.934 "/>
<polyline clip-path="url(#clip750)" style="stroke:#000000; stroke-linecap:round; stroke-linejoin:round; stroke-width:4; stroke-opacity:1; fill:none" points="247.459,759.904 266.356,759.904 "/>
<polyline clip-path="url(#clip750)" style="stroke:#000000; stroke-linecap:round; stroke-linejoin:round; stroke-width:4; stroke-opacity:1; fill:none" points="247.459,578.873 266.356,578.873 "/>
<polyline clip-path="url(#clip750)" style="stroke:#000000; stroke-linecap:round; stroke-linejoin:round; stroke-width:4; stroke-opacity:1; fill:none" points="247.459,397.842 266.356,397.842 "/>
<polyline clip-path="url(#clip750)" style="stroke:#000000; stroke-linecap:round; stroke-linejoin:round; stroke-width:4; stroke-opacity:1; fill:none" points="247.459,216.812 266.356,216.812 "/>
<path clip-path="url(#clip750)" d="M149.306 1316.34 L165.626 1316.34 L165.626 1320.28 L143.681 1320.28 L143.681 1316.34 Q146.343 1313.59 150.927 1308.96 Q155.533 1304.3 156.714 1302.96 Q158.959 1300.44 159.839 1298.7 Q160.741 1296.94 160.741 1295.25 Q160.741 1292.5 158.797 1290.76 Q156.876 1289.03 153.774 1289.03 Q151.575 1289.03 149.121 1289.79 Q146.691 1290.55 143.913 1292.1 L143.913 1287.38 Q146.737 1286.25 149.191 1285.67 Q151.644 1285.09 153.681 1285.09 Q159.052 1285.09 162.246 1287.78 Q165.44 1290.46 165.44 1294.95 Q165.44 1297.08 164.63 1299 Q163.843 1300.9 161.737 1303.49 Q161.158 1304.16 158.056 1307.38 Q154.954 1310.58 149.306 1316.34 Z" fill="#000000" fill-rule="nonzero" fill-opacity="1" /><path clip-path="url(#clip750)" d="M175.44 1314.4 L180.325 1314.4 L180.325 1320.28 L175.44 1320.28 L175.44 1314.4 Z" fill="#000000" fill-rule="nonzero" fill-opacity="1" /><path clip-path="url(#clip750)" d="M190.556 1285.72 L208.912 1285.72 L208.912 1289.65 L194.838 1289.65 L194.838 1298.12 Q195.857 1297.78 196.875 1297.61 Q197.894 1297.43 198.912 1297.43 Q204.699 1297.43 208.079 1300.6 Q211.459 1303.77 211.459 1309.19 Q211.459 1314.77 207.987 1317.87 Q204.514 1320.95 198.195 1320.95 Q196.019 1320.95 193.75 1320.58 Q191.505 1320.21 189.098 1319.47 L189.098 1314.77 Q191.181 1315.9 193.403 1316.46 Q195.625 1317.01 198.102 1317.01 Q202.107 1317.01 204.445 1314.91 Q206.783 1312.8 206.783 1309.19 Q206.783 1305.58 204.445 1303.47 Q202.107 1301.36 198.102 1301.36 Q196.227 1301.36 194.352 1301.78 Q192.5 1302.2 190.556 1303.08 L190.556 1285.72 Z" fill="#000000" fill-rule="nonzero" fill-opacity="1" /><path clip-path="url(#clip750)" d="M144.329 1104.68 L162.686 1104.68 L162.686 1108.62 L148.612 1108.62 L148.612 1117.09 Q149.63 1116.74 150.649 1116.58 Q151.667 1116.4 152.686 1116.4 Q158.473 1116.4 161.852 1119.57 Q165.232 1122.74 165.232 1128.16 Q165.232 1133.74 161.76 1136.84 Q158.288 1139.92 151.968 1139.92 Q149.792 1139.92 147.524 1139.55 Q145.279 1139.18 142.871 1138.43 L142.871 1133.74 Q144.954 1134.87 147.177 1135.43 Q149.399 1135.98 151.876 1135.98 Q155.88 1135.98 158.218 1133.87 Q160.556 1131.77 160.556 1128.16 Q160.556 1124.55 158.218 1122.44 Q155.88 1120.33 151.876 1120.33 Q150.001 1120.33 148.126 1120.75 Q146.274 1121.17 144.329 1122.05 L144.329 1104.68 Z" fill="#000000" fill-rule="nonzero" fill-opacity="1" /><path clip-path="url(#clip750)" d="M174.445 1133.37 L179.329 1133.37 L179.329 1139.24 L174.445 1139.24 L174.445 1133.37 Z" fill="#000000" fill-rule="nonzero" fill-opacity="1" /><path clip-path="url(#clip750)" d="M199.514 1107.76 Q195.903 1107.76 194.075 1111.33 Q192.269 1114.87 192.269 1122 Q192.269 1129.11 194.075 1132.67 Q195.903 1136.21 199.514 1136.21 Q203.149 1136.21 204.954 1132.67 Q206.783 1129.11 206.783 1122 Q206.783 1114.87 204.954 1111.33 Q203.149 1107.76 199.514 1107.76 M199.514 1104.06 Q205.324 1104.06 208.38 1108.67 Q211.459 1113.25 211.459 1122 Q211.459 1130.73 208.38 1135.33 Q205.324 1139.92 199.514 1139.92 Q193.704 1139.92 190.625 1135.33 Q187.57 1130.73 187.57 1122 Q187.57 1113.25 190.625 1108.67 Q193.704 1104.06 199.514 1104.06 Z" fill="#000000" fill-rule="nonzero" fill-opacity="1" /><path clip-path="url(#clip750)" d="M144.098 923.654 L166.32 923.654 L166.32 925.645 L153.774 958.214 L148.89 958.214 L160.695 927.589 L144.098 927.589 L144.098 923.654 Z" fill="#000000" fill-rule="nonzero" fill-opacity="1" /><path clip-path="url(#clip750)" d="M175.44 952.335 L180.325 952.335 L180.325 958.214 L175.44 958.214 L175.44 952.335 Z" fill="#000000" fill-rule="nonzero" fill-opacity="1" /><path clip-path="url(#clip750)" d="M190.556 923.654 L208.912 923.654 L208.912 927.589 L194.838 927.589 L194.838 936.061 Q195.857 935.714 196.875 935.552 Q197.894 935.367 198.912 935.367 Q204.699 935.367 208.079 938.538 Q211.459 941.71 211.459 947.126 Q211.459 952.705 207.987 955.807 Q204.514 958.885 198.195 958.885 Q196.019 958.885 193.75 958.515 Q191.505 958.145 189.098 957.404 L189.098 952.705 Q191.181 953.839 193.403 954.395 Q195.625 954.95 198.102 954.95 Q202.107 954.95 204.445 952.844 Q206.783 950.737 206.783 947.126 Q206.783 943.515 204.445 941.409 Q202.107 939.302 198.102 939.302 Q196.227 939.302 194.352 939.719 Q192.5 940.136 190.556 941.015 L190.556 923.654 Z" fill="#000000" fill-rule="nonzero" fill-opacity="1" /><path clip-path="url(#clip750)" d="M114.931 773.248 L122.57 773.248 L122.57 746.883 L114.26 748.549 L114.26 744.29 L122.524 742.624 L127.2 742.624 L127.2 773.248 L134.839 773.248 L134.839 777.184 L114.931 777.184 L114.931 773.248 Z" fill="#000000" fill-rule="nonzero" fill-opacity="1" /><path clip-path="url(#clip750)" d="M154.283 745.702 Q150.672 745.702 148.843 749.267 Q147.038 752.809 147.038 759.938 Q147.038 767.045 148.843 770.609 Q150.672 774.151 154.283 774.151 Q157.917 774.151 159.723 770.609 Q161.552 767.045 161.552 759.938 Q161.552 752.809 159.723 749.267 Q157.917 745.702 154.283 745.702 M154.283 741.999 Q160.093 741.999 163.149 746.605 Q166.227 751.188 166.227 759.938 Q166.227 768.665 163.149 773.271 Q160.093 777.855 154.283 777.855 Q148.473 777.855 145.394 773.271 Q142.339 768.665 142.339 759.938 Q142.339 751.188 145.394 746.605 Q148.473 741.999 154.283 741.999 Z" fill="#000000" fill-rule="nonzero" fill-opacity="1" /><path clip-path="url(#clip750)" d="M174.445 771.304 L179.329 771.304 L179.329 777.184 L174.445 777.184 L174.445 771.304 Z" fill="#000000" fill-rule="nonzero" fill-opacity="1" /><path clip-path="url(#clip750)" d="M199.514 745.702 Q195.903 745.702 194.075 749.267 Q192.269 752.809 192.269 759.938 Q192.269 767.045 194.075 770.609 Q195.903 774.151 199.514 774.151 Q203.149 774.151 204.954 770.609 Q206.783 767.045 206.783 759.938 Q206.783 752.809 204.954 749.267 Q203.149 745.702 199.514 745.702 M199.514 741.999 Q205.324 741.999 208.38 746.605 Q211.459 751.188 211.459 759.938 Q211.459 768.665 208.38 773.271 Q205.324 777.855 199.514 777.855 Q193.704 777.855 190.625 773.271 Q187.57 768.665 187.57 759.938 Q187.57 751.188 190.625 746.605 Q193.704 741.999 199.514 741.999 Z" fill="#000000" fill-rule="nonzero" fill-opacity="1" /><path clip-path="url(#clip750)" d="M115.927 592.218 L123.566 592.218 L123.566 565.852 L115.256 567.519 L115.256 563.26 L123.519 561.593 L128.195 561.593 L128.195 592.218 L135.834 592.218 L135.834 596.153 L115.927 596.153 L115.927 592.218 Z" fill="#000000" fill-rule="nonzero" fill-opacity="1" /><path clip-path="url(#clip750)" d="M149.306 592.218 L165.626 592.218 L165.626 596.153 L143.681 596.153 L143.681 592.218 Q146.343 589.463 150.927 584.833 Q155.533 580.181 156.714 578.838 Q158.959 576.315 159.839 574.579 Q160.741 572.82 160.741 571.13 Q160.741 568.375 158.797 566.639 Q156.876 564.903 153.774 564.903 Q151.575 564.903 149.121 565.667 Q146.691 566.431 143.913 567.982 L143.913 563.26 Q146.737 562.125 149.191 561.547 Q151.644 560.968 153.681 560.968 Q159.052 560.968 162.246 563.653 Q165.44 566.338 165.44 570.829 Q165.44 572.959 164.63 574.88 Q163.843 576.778 161.737 579.371 Q161.158 580.042 158.056 583.259 Q154.954 586.454 149.306 592.218 Z" fill="#000000" fill-rule="nonzero" fill-opacity="1" /><path clip-path="url(#clip750)" d="M175.44 590.273 L180.325 590.273 L180.325 596.153 L175.44 596.153 L175.44 590.273 Z" fill="#000000" fill-rule="nonzero" fill-opacity="1" /><path clip-path="url(#clip750)" d="M190.556 561.593 L208.912 561.593 L208.912 565.528 L194.838 565.528 L194.838 574 Q195.857 573.653 196.875 573.491 Q197.894 573.306 198.912 573.306 Q204.699 573.306 208.079 576.477 Q211.459 579.648 211.459 585.065 Q211.459 590.644 207.987 593.745 Q204.514 596.824 198.195 596.824 Q196.019 596.824 193.75 596.454 Q191.505 596.083 189.098 595.343 L189.098 590.644 Q191.181 591.778 193.403 592.333 Q195.625 592.889 198.102 592.889 Q202.107 592.889 204.445 590.783 Q206.783 588.676 206.783 585.065 Q206.783 581.454 204.445 579.347 Q202.107 577.241 198.102 577.241 Q196.227 577.241 194.352 577.658 Q192.5 578.074 190.556 578.954 L190.556 561.593 Z" fill="#000000" fill-rule="nonzero" fill-opacity="1" /><path clip-path="url(#clip750)" d="M114.931 411.187 L122.57 411.187 L122.57 384.821 L114.26 386.488 L114.26 382.229 L122.524 380.562 L127.2 380.562 L127.2 411.187 L134.839 411.187 L134.839 415.122 L114.931 415.122 L114.931 411.187 Z" fill="#000000" fill-rule="nonzero" fill-opacity="1" /><path clip-path="url(#clip750)" d="M144.329 380.562 L162.686 380.562 L162.686 384.497 L148.612 384.497 L148.612 392.97 Q149.63 392.622 150.649 392.46 Q151.667 392.275 152.686 392.275 Q158.473 392.275 161.852 395.446 Q165.232 398.618 165.232 404.034 Q165.232 409.613 161.76 412.715 Q158.288 415.794 151.968 415.794 Q149.792 415.794 147.524 415.423 Q145.279 415.053 142.871 414.312 L142.871 409.613 Q144.954 410.747 147.177 411.303 Q149.399 411.858 151.876 411.858 Q155.88 411.858 158.218 409.752 Q160.556 407.645 160.556 404.034 Q160.556 400.423 158.218 398.317 Q155.88 396.21 151.876 396.21 Q150.001 396.21 148.126 396.627 Q146.274 397.044 144.329 397.923 L144.329 380.562 Z" fill="#000000" fill-rule="nonzero" fill-opacity="1" /><path clip-path="url(#clip750)" d="M174.445 409.243 L179.329 409.243 L179.329 415.122 L174.445 415.122 L174.445 409.243 Z" fill="#000000" fill-rule="nonzero" fill-opacity="1" /><path clip-path="url(#clip750)" d="M199.514 383.641 Q195.903 383.641 194.075 387.206 Q192.269 390.747 192.269 397.877 Q192.269 404.983 194.075 408.548 Q195.903 412.09 199.514 412.09 Q203.149 412.09 204.954 408.548 Q206.783 404.983 206.783 397.877 Q206.783 390.747 204.954 387.206 Q203.149 383.641 199.514 383.641 M199.514 379.937 Q205.324 379.937 208.38 384.544 Q211.459 389.127 211.459 397.877 Q211.459 406.604 208.38 411.21 Q205.324 415.794 199.514 415.794 Q193.704 415.794 190.625 411.21 Q187.57 406.604 187.57 397.877 Q187.57 389.127 190.625 384.544 Q193.704 379.937 199.514 379.937 Z" fill="#000000" fill-rule="nonzero" fill-opacity="1" /><path clip-path="url(#clip750)" d="M115.927 230.156 L123.566 230.156 L123.566 203.791 L115.256 205.457 L115.256 201.198 L123.519 199.532 L128.195 199.532 L128.195 230.156 L135.834 230.156 L135.834 234.092 L115.927 234.092 L115.927 230.156 Z" fill="#000000" fill-rule="nonzero" fill-opacity="1" /><path clip-path="url(#clip750)" d="M144.098 199.532 L166.32 199.532 L166.32 201.522 L153.774 234.092 L148.89 234.092 L160.695 203.467 L144.098 203.467 L144.098 199.532 Z" fill="#000000" fill-rule="nonzero" fill-opacity="1" /><path clip-path="url(#clip750)" d="M175.44 228.212 L180.325 228.212 L180.325 234.092 L175.44 234.092 L175.44 228.212 Z" fill="#000000" fill-rule="nonzero" fill-opacity="1" /><path clip-path="url(#clip750)" d="M190.556 199.532 L208.912 199.532 L208.912 203.467 L194.838 203.467 L194.838 211.939 Q195.857 211.592 196.875 211.43 Q197.894 211.244 198.912 211.244 Q204.699 211.244 208.079 214.416 Q211.459 217.587 211.459 223.004 Q211.459 228.582 207.987 231.684 Q204.514 234.763 198.195 234.763 Q196.019 234.763 193.75 234.393 Q191.505 234.022 189.098 233.281 L189.098 228.582 Q191.181 229.717 193.403 230.272 Q195.625 230.828 198.102 230.828 Q202.107 230.828 204.445 228.721 Q206.783 226.615 206.783 223.004 Q206.783 219.393 204.445 217.286 Q202.107 215.18 198.102 215.18 Q196.227 215.18 194.352 215.596 Q192.5 216.013 190.556 216.893 L190.556 199.532 Z" fill="#000000" fill-rule="nonzero" fill-opacity="1" /><path clip-path="url(#clip750)" d="M16.4842 755.248 L16.4842 748.341 L36.0269 735.164 L16.4842 722.083 L16.4842 715.176 L41.3741 731.981 L64.0042 731.981 L64.0042 738.443 L41.3741 738.443 L16.4842 755.248 Z" fill="#000000" fill-rule="nonzero" fill-opacity="1" /><circle clip-path="url(#clip752)" cx="468.174" cy="1274.94" r="14.4" fill="#009af9" fill-rule="evenodd" fill-opacity="1" stroke="#000000" stroke-opacity="1" stroke-width="3.2"/>
<circle clip-path="url(#clip752)" cx="313.732" cy="1379.27" r="14.4" fill="#009af9" fill-rule="evenodd" fill-opacity="1" stroke="#000000" stroke-opacity="1" stroke-width="3.2"/>
<circle clip-path="url(#clip752)" cx="307.043" cy="1366.05" r="14.4" fill="#009af9" fill-rule="evenodd" fill-opacity="1" stroke="#000000" stroke-opacity="1" stroke-width="3.2"/>
<circle clip-path="url(#clip752)" cx="468.919" cy="1201.82" r="14.4" fill="#009af9" fill-rule="evenodd" fill-opacity="1" stroke="#000000" stroke-opacity="1" stroke-width="3.2"/>
<circle clip-path="url(#clip752)" cx="481.507" cy="1331.3" r="14.4" fill="#009af9" fill-rule="evenodd" fill-opacity="1" stroke="#000000" stroke-opacity="1" stroke-width="3.2"/>
<circle clip-path="url(#clip752)" cx="2293.17" cy="810.76" r="14.4" fill="#009af9" fill-rule="evenodd" fill-opacity="1" stroke="#000000" stroke-opacity="1" stroke-width="3.2"/>
<circle clip-path="url(#clip752)" cx="1762.55" cy="124.8" r="14.4" fill="#009af9" fill-rule="evenodd" fill-opacity="1" stroke="#000000" stroke-opacity="1" stroke-width="3.2"/>
<circle clip-path="url(#clip752)" cx="2270.13" cy="1384.24" r="14.4" fill="#009af9" fill-rule="evenodd" fill-opacity="1" stroke="#000000" stroke-opacity="1" stroke-width="3.2"/>
<circle clip-path="url(#clip752)" cx="1774.78" cy="486.535" r="14.4" fill="#009af9" fill-rule="evenodd" fill-opacity="1" stroke="#000000" stroke-opacity="1" stroke-width="3.2"/>
<circle clip-path="url(#clip752)" cx="1689.66" cy="86.1857" r="14.4" fill="#009af9" fill-rule="evenodd" fill-opacity="1" stroke="#000000" stroke-opacity="1" stroke-width="3.2"/>
<circle clip-path="url(#clip752)" cx="1762.55" cy="124.8" r="14.4" fill="#3da44d" fill-rule="evenodd" fill-opacity="1" stroke="#000000" stroke-opacity="1" stroke-width="3.2"/>
<circle clip-path="url(#clip752)" cx="1762.55" cy="124.8" r="14.4" fill="#3da44d" fill-rule="evenodd" fill-opacity="1" stroke="#000000" stroke-opacity="1" stroke-width="3.2"/>
<circle clip-path="url(#clip752)" cx="1182.97" cy="944.59" r="14.4" fill="#c271d2" fill-rule="evenodd" fill-opacity="1" stroke="#000000" stroke-opacity="1" stroke-width="3.2"/>
<path clip-path="url(#clip750)" d="M317.635 352.309 L858.95 352.309 L858.95 93.1086 L317.635 93.1086  Z" fill="#ffffff" fill-rule="evenodd" fill-opacity="1"/>
<polyline clip-path="url(#clip750)" style="stroke:#000000; stroke-linecap:round; stroke-linejoin:round; stroke-width:4; stroke-opacity:1; fill:none" points="317.635,352.309 858.95,352.309 858.95,93.1086 317.635,93.1086 317.635,352.309 "/>
<circle clip-path="url(#clip750)" cx="411.204" cy="144.949" r="20.48" fill="#009af9" fill-rule="evenodd" fill-opacity="1" stroke="#000000" stroke-opacity="1" stroke-width="4.55111"/>
<path clip-path="url(#clip750)" d="M532.643 130.331 L532.643 135.261 Q530.282 133.062 527.597 131.974 Q524.935 130.886 521.925 130.886 Q516 130.886 512.851 134.52 Q509.703 138.132 509.703 144.983 Q509.703 151.812 512.851 155.446 Q516 159.057 521.925 159.057 Q524.935 159.057 527.597 157.969 Q530.282 156.881 532.643 154.682 L532.643 159.567 Q530.189 161.233 527.435 162.067 Q524.703 162.9 521.648 162.9 Q513.801 162.9 509.287 158.108 Q504.773 153.293 504.773 144.983 Q504.773 136.65 509.287 131.858 Q513.801 127.044 521.648 127.044 Q524.75 127.044 527.481 127.877 Q530.236 128.687 532.643 130.331 Z" fill="#000000" fill-rule="nonzero" fill-opacity="1" /><path clip-path="url(#clip750)" d="M539.68 126.21 L543.939 126.21 L543.939 162.229 L539.68 162.229 L539.68 126.21 Z" fill="#000000" fill-rule="nonzero" fill-opacity="1" /><path clip-path="url(#clip750)" d="M552.411 151.997 L552.411 136.303 L556.671 136.303 L556.671 151.835 Q556.671 155.516 558.106 157.368 Q559.541 159.196 562.411 159.196 Q565.86 159.196 567.851 156.997 Q569.865 154.798 569.865 151.002 L569.865 136.303 L574.124 136.303 L574.124 162.229 L569.865 162.229 L569.865 158.247 Q568.314 160.608 566.254 161.766 Q564.217 162.9 561.509 162.9 Q557.041 162.9 554.726 160.122 Q552.411 157.344 552.411 151.997 M563.129 135.678 L563.129 135.678 Z" fill="#000000" fill-rule="nonzero" fill-opacity="1" /><path clip-path="url(#clip750)" d="M599.425 137.067 L599.425 141.094 Q597.62 140.169 595.675 139.706 Q593.731 139.243 591.647 139.243 Q588.476 139.243 586.879 140.215 Q585.305 141.187 585.305 143.131 Q585.305 144.613 586.439 145.469 Q587.573 146.303 590.999 147.067 L592.458 147.391 Q596.995 148.363 598.893 150.145 Q600.814 151.905 600.814 155.076 Q600.814 158.687 597.944 160.793 Q595.096 162.9 590.096 162.9 Q588.013 162.9 585.745 162.483 Q583.499 162.09 580.999 161.28 L580.999 156.881 Q583.36 158.108 585.652 158.733 Q587.944 159.335 590.189 159.335 Q593.198 159.335 594.819 158.317 Q596.439 157.275 596.439 155.4 Q596.439 153.664 595.258 152.738 Q594.101 151.812 590.143 150.956 L588.661 150.608 Q584.703 149.775 582.944 148.062 Q581.184 146.326 581.184 143.317 Q581.184 139.659 583.777 137.669 Q586.37 135.678 591.138 135.678 Q593.499 135.678 595.583 136.025 Q597.666 136.372 599.425 137.067 Z" fill="#000000" fill-rule="nonzero" fill-opacity="1" /><path clip-path="url(#clip750)" d="M611.809 128.942 L611.809 136.303 L620.582 136.303 L620.582 139.613 L611.809 139.613 L611.809 153.687 Q611.809 156.858 612.666 157.761 Q613.545 158.664 616.207 158.664 L620.582 158.664 L620.582 162.229 L616.207 162.229 Q611.277 162.229 609.402 160.4 Q607.527 158.548 607.527 153.687 L607.527 139.613 L604.402 139.613 L604.402 136.303 L607.527 136.303 L607.527 128.942 L611.809 128.942 Z" fill="#000000" fill-rule="nonzero" fill-opacity="1" /><path clip-path="url(#clip750)" d="M648.36 148.201 L648.36 150.284 L628.777 150.284 Q629.055 154.682 631.416 156.997 Q633.8 159.289 638.036 159.289 Q640.49 159.289 642.781 158.687 Q645.096 158.085 647.365 156.881 L647.365 160.909 Q645.073 161.881 642.666 162.391 Q640.258 162.9 637.781 162.9 Q631.578 162.9 627.943 159.289 Q624.332 155.678 624.332 149.52 Q624.332 143.155 627.758 139.428 Q631.207 135.678 637.041 135.678 Q642.272 135.678 645.304 139.057 Q648.36 142.414 648.36 148.201 M644.101 146.951 Q644.054 143.456 642.133 141.372 Q640.235 139.289 637.087 139.289 Q633.522 139.289 631.369 141.303 Q629.24 143.317 628.916 146.974 L644.101 146.951 Z" fill="#000000" fill-rule="nonzero" fill-opacity="1" /><path clip-path="url(#clip750)" d="M670.374 140.284 Q669.656 139.868 668.8 139.682 Q667.966 139.474 666.948 139.474 Q663.337 139.474 661.392 141.835 Q659.471 144.173 659.471 148.571 L659.471 162.229 L655.189 162.229 L655.189 136.303 L659.471 136.303 L659.471 140.331 Q660.814 137.969 662.966 136.835 Q665.119 135.678 668.198 135.678 Q668.638 135.678 669.17 135.747 Q669.702 135.794 670.351 135.909 L670.374 140.284 Z" fill="#000000" fill-rule="nonzero" fill-opacity="1" /><path clip-path="url(#clip750)" d="M691.323 158.293 L698.962 158.293 L698.962 131.928 L690.651 133.595 L690.651 129.335 L698.915 127.669 L703.591 127.669 L703.591 158.293 L711.23 158.293 L711.23 162.229 L691.323 162.229 L691.323 158.293 Z" fill="#000000" fill-rule="nonzero" fill-opacity="1" /><circle clip-path="url(#clip750)" cx="411.204" cy="196.789" r="20.48" fill="#e26f46" fill-rule="evenodd" fill-opacity="1" stroke="#000000" stroke-opacity="1" stroke-width="4.55111"/>
<path clip-path="url(#clip750)" d="M532.643 182.171 L532.643 187.101 Q530.282 184.902 527.597 183.814 Q524.935 182.726 521.925 182.726 Q516 182.726 512.851 186.36 Q509.703 189.972 509.703 196.823 Q509.703 203.652 512.851 207.286 Q516 210.897 521.925 210.897 Q524.935 210.897 527.597 209.809 Q530.282 208.721 532.643 206.522 L532.643 211.407 Q530.189 213.073 527.435 213.907 Q524.703 214.74 521.648 214.74 Q513.801 214.74 509.287 209.948 Q504.773 205.133 504.773 196.823 Q504.773 188.49 509.287 183.698 Q513.801 178.884 521.648 178.884 Q524.75 178.884 527.481 179.717 Q530.236 180.527 532.643 182.171 Z" fill="#000000" fill-rule="nonzero" fill-opacity="1" /><path clip-path="url(#clip750)" d="M539.68 178.05 L543.939 178.05 L543.939 214.069 L539.68 214.069 L539.68 178.05 Z" fill="#000000" fill-rule="nonzero" fill-opacity="1" /><path clip-path="url(#clip750)" d="M552.411 203.837 L552.411 188.143 L556.671 188.143 L556.671 203.675 Q556.671 207.356 558.106 209.208 Q559.541 211.036 562.411 211.036 Q565.86 211.036 567.851 208.837 Q569.865 206.638 569.865 202.842 L569.865 188.143 L574.124 188.143 L574.124 214.069 L569.865 214.069 L569.865 210.087 Q568.314 212.448 566.254 213.606 Q564.217 214.74 561.509 214.74 Q557.041 214.74 554.726 211.962 Q552.411 209.184 552.411 203.837 M563.129 187.518 L563.129 187.518 Z" fill="#000000" fill-rule="nonzero" fill-opacity="1" /><path clip-path="url(#clip750)" d="M599.425 188.907 L599.425 192.934 Q597.62 192.009 595.675 191.546 Q593.731 191.083 591.647 191.083 Q588.476 191.083 586.879 192.055 Q585.305 193.027 585.305 194.971 Q585.305 196.453 586.439 197.309 Q587.573 198.143 590.999 198.907 L592.458 199.231 Q596.995 200.203 598.893 201.985 Q600.814 203.745 600.814 206.916 Q600.814 210.527 597.944 212.633 Q595.096 214.74 590.096 214.74 Q588.013 214.74 585.745 214.323 Q583.499 213.93 580.999 213.12 L580.999 208.721 Q583.36 209.948 585.652 210.573 Q587.944 211.175 590.189 211.175 Q593.198 211.175 594.819 210.157 Q596.439 209.115 596.439 207.24 Q596.439 205.504 595.258 204.578 Q594.101 203.652 590.143 202.796 L588.661 202.448 Q584.703 201.615 582.944 199.902 Q581.184 198.166 581.184 195.157 Q581.184 191.499 583.777 189.509 Q586.37 187.518 591.138 187.518 Q593.499 187.518 595.583 187.865 Q597.666 188.212 599.425 188.907 Z" fill="#000000" fill-rule="nonzero" fill-opacity="1" /><path clip-path="url(#clip750)" d="M611.809 180.782 L611.809 188.143 L620.582 188.143 L620.582 191.453 L611.809 191.453 L611.809 205.527 Q611.809 208.698 612.666 209.601 Q613.545 210.504 616.207 210.504 L620.582 210.504 L620.582 214.069 L616.207 214.069 Q611.277 214.069 609.402 212.24 Q607.527 210.388 607.527 205.527 L607.527 191.453 L604.402 191.453 L604.402 188.143 L607.527 188.143 L607.527 180.782 L611.809 180.782 Z" fill="#000000" fill-rule="nonzero" fill-opacity="1" /><path clip-path="url(#clip750)" d="M648.36 200.041 L648.36 202.124 L628.777 202.124 Q629.055 206.522 631.416 208.837 Q633.8 211.129 638.036 211.129 Q640.49 211.129 642.781 210.527 Q645.096 209.925 647.365 208.721 L647.365 212.749 Q645.073 213.721 642.666 214.231 Q640.258 214.74 637.781 214.74 Q631.578 214.74 627.943 211.129 Q624.332 207.518 624.332 201.36 Q624.332 194.995 627.758 191.268 Q631.207 187.518 637.041 187.518 Q642.272 187.518 645.304 190.897 Q648.36 194.254 648.36 200.041 M644.101 198.791 Q644.054 195.296 642.133 193.212 Q640.235 191.129 637.087 191.129 Q633.522 191.129 631.369 193.143 Q629.24 195.157 628.916 198.814 L644.101 198.791 Z" fill="#000000" fill-rule="nonzero" fill-opacity="1" /><path clip-path="url(#clip750)" d="M670.374 192.124 Q669.656 191.708 668.8 191.522 Q667.966 191.314 666.948 191.314 Q663.337 191.314 661.392 193.675 Q659.471 196.013 659.471 200.411 L659.471 214.069 L655.189 214.069 L655.189 188.143 L659.471 188.143 L659.471 192.171 Q660.814 189.809 662.966 188.675 Q665.119 187.518 668.198 187.518 Q668.638 187.518 669.17 187.587 Q669.702 187.634 670.351 187.749 L670.374 192.124 Z" fill="#000000" fill-rule="nonzero" fill-opacity="1" /><path clip-path="url(#clip750)" d="M694.54 210.133 L710.86 210.133 L710.86 214.069 L688.915 214.069 L688.915 210.133 Q691.577 207.379 696.161 202.749 Q700.767 198.096 701.948 196.754 Q704.193 194.231 705.073 192.495 Q705.975 190.735 705.975 189.046 Q705.975 186.291 704.031 184.555 Q702.11 182.819 699.008 182.819 Q696.809 182.819 694.355 183.583 Q691.925 184.347 689.147 185.897 L689.147 181.175 Q691.971 180.041 694.425 179.462 Q696.878 178.884 698.915 178.884 Q704.286 178.884 707.48 181.569 Q710.674 184.254 710.674 188.745 Q710.674 190.874 709.864 192.796 Q709.077 194.694 706.971 197.286 Q706.392 197.958 703.29 201.175 Q700.188 204.37 694.54 210.133 Z" fill="#000000" fill-rule="nonzero" fill-opacity="1" /><circle clip-path="url(#clip750)" cx="411.204" cy="248.629" r="20.48" fill="#3da44d" fill-rule="evenodd" fill-opacity="1" stroke="#000000" stroke-opacity="1" stroke-width="4.55111"/>
<path clip-path="url(#clip750)" d="M532.643 234.011 L532.643 238.941 Q530.282 236.742 527.597 235.654 Q524.935 234.566 521.925 234.566 Q516 234.566 512.851 238.2 Q509.703 241.812 509.703 248.663 Q509.703 255.492 512.851 259.126 Q516 262.737 521.925 262.737 Q524.935 262.737 527.597 261.649 Q530.282 260.561 532.643 258.362 L532.643 263.247 Q530.189 264.913 527.435 265.747 Q524.703 266.58 521.648 266.58 Q513.801 266.58 509.287 261.788 Q504.773 256.973 504.773 248.663 Q504.773 240.33 509.287 235.538 Q513.801 230.724 521.648 230.724 Q524.75 230.724 527.481 231.557 Q530.236 232.367 532.643 234.011 Z" fill="#000000" fill-rule="nonzero" fill-opacity="1" /><path clip-path="url(#clip750)" d="M561.856 251.881 L561.856 253.964 L542.273 253.964 Q542.55 258.362 544.911 260.677 Q547.296 262.969 551.532 262.969 Q553.986 262.969 556.277 262.367 Q558.592 261.765 560.86 260.561 L560.86 264.589 Q558.569 265.561 556.161 266.071 Q553.754 266.58 551.277 266.58 Q545.074 266.58 541.439 262.969 Q537.828 259.358 537.828 253.2 Q537.828 246.835 541.254 243.108 Q544.703 239.358 550.536 239.358 Q555.768 239.358 558.8 242.737 Q561.856 246.094 561.856 251.881 M557.597 250.631 Q557.55 247.136 555.629 245.052 Q553.731 242.969 550.583 242.969 Q547.018 242.969 544.865 244.983 Q542.736 246.997 542.411 250.654 L557.597 250.631 Z" fill="#000000" fill-rule="nonzero" fill-opacity="1" /><path clip-path="url(#clip750)" d="M590.397 250.261 L590.397 265.909 L586.138 265.909 L586.138 250.399 Q586.138 246.719 584.703 244.89 Q583.268 243.062 580.397 243.062 Q576.948 243.062 574.958 245.261 Q572.967 247.46 572.967 251.256 L572.967 265.909 L568.685 265.909 L568.685 239.983 L572.967 239.983 L572.967 244.011 Q574.495 241.673 576.555 240.515 Q578.638 239.358 581.346 239.358 Q585.814 239.358 588.106 242.136 Q590.397 244.89 590.397 250.261 Z" fill="#000000" fill-rule="nonzero" fill-opacity="1" /><path clip-path="url(#clip750)" d="M603.106 232.622 L603.106 239.983 L611.879 239.983 L611.879 243.293 L603.106 243.293 L603.106 257.367 Q603.106 260.538 603.962 261.441 Q604.842 262.344 607.504 262.344 L611.879 262.344 L611.879 265.909 L607.504 265.909 Q602.573 265.909 600.698 264.08 Q598.823 262.228 598.823 257.367 L598.823 243.293 L595.698 243.293 L595.698 239.983 L598.823 239.983 L598.823 232.622 L603.106 232.622 Z" fill="#000000" fill-rule="nonzero" fill-opacity="1" /><path clip-path="url(#clip750)" d="M632.504 243.964 Q631.786 243.548 630.93 243.362 Q630.096 243.154 629.078 243.154 Q625.467 243.154 623.522 245.515 Q621.601 247.853 621.601 252.251 L621.601 265.909 L617.319 265.909 L617.319 239.983 L621.601 239.983 L621.601 244.011 Q622.943 241.649 625.096 240.515 Q627.249 239.358 630.328 239.358 Q630.768 239.358 631.3 239.427 Q631.832 239.474 632.48 239.589 L632.504 243.964 Z" fill="#000000" fill-rule="nonzero" fill-opacity="1" /><path clip-path="url(#clip750)" d="M645.976 242.969 Q642.55 242.969 640.559 245.654 Q638.568 248.316 638.568 252.969 Q638.568 257.622 640.536 260.307 Q642.527 262.969 645.976 262.969 Q649.379 262.969 651.369 260.284 Q653.36 257.598 653.36 252.969 Q653.36 248.362 651.369 245.677 Q649.379 242.969 645.976 242.969 M645.976 239.358 Q651.531 239.358 654.703 242.969 Q657.874 246.58 657.874 252.969 Q657.874 259.335 654.703 262.969 Q651.531 266.58 645.976 266.58 Q640.397 266.58 637.226 262.969 Q634.078 259.335 634.078 252.969 Q634.078 246.58 637.226 242.969 Q640.397 239.358 645.976 239.358 Z" fill="#000000" fill-rule="nonzero" fill-opacity="1" /><path clip-path="url(#clip750)" d="M664.934 239.983 L669.193 239.983 L669.193 265.909 L664.934 265.909 L664.934 239.983 M664.934 229.89 L669.193 229.89 L669.193 235.284 L664.934 235.284 L664.934 229.89 Z" fill="#000000" fill-rule="nonzero" fill-opacity="1" /><path clip-path="url(#clip750)" d="M695.165 243.918 L695.165 229.89 L699.425 229.89 L699.425 265.909 L695.165 265.909 L695.165 262.02 Q693.823 264.335 691.763 265.469 Q689.726 266.58 686.855 266.58 Q682.156 266.58 679.193 262.83 Q676.253 259.08 676.253 252.969 Q676.253 246.858 679.193 243.108 Q682.156 239.358 686.855 239.358 Q689.726 239.358 691.763 240.492 Q693.823 241.603 695.165 243.918 M680.651 252.969 Q680.651 257.668 682.573 260.353 Q684.517 263.015 687.897 263.015 Q691.276 263.015 693.221 260.353 Q695.165 257.668 695.165 252.969 Q695.165 248.27 693.221 245.608 Q691.276 242.923 687.897 242.923 Q684.517 242.923 682.573 245.608 Q680.651 248.27 680.651 252.969 Z" fill="#000000" fill-rule="nonzero" fill-opacity="1" /><path clip-path="url(#clip750)" d="M724.725 240.747 L724.725 244.774 Q722.92 243.849 720.975 243.386 Q719.031 242.923 716.948 242.923 Q713.776 242.923 712.179 243.895 Q710.605 244.867 710.605 246.811 Q710.605 248.293 711.739 249.149 Q712.874 249.983 716.299 250.747 L717.758 251.071 Q722.295 252.043 724.193 253.825 Q726.114 255.585 726.114 258.756 Q726.114 262.367 723.244 264.473 Q720.397 266.58 715.397 266.58 Q713.313 266.58 711.045 266.163 Q708.799 265.77 706.3 264.96 L706.3 260.561 Q708.661 261.788 710.952 262.413 Q713.244 263.015 715.489 263.015 Q718.499 263.015 720.119 261.997 Q721.739 260.955 721.739 259.08 Q721.739 257.344 720.559 256.418 Q719.401 255.492 715.443 254.636 L713.962 254.288 Q710.003 253.455 708.244 251.742 Q706.485 250.006 706.485 246.997 Q706.485 243.339 709.077 241.349 Q711.67 239.358 716.438 239.358 Q718.799 239.358 720.883 239.705 Q722.966 240.052 724.725 240.747 Z" fill="#000000" fill-rule="nonzero" fill-opacity="1" /><circle clip-path="url(#clip750)" cx="411.204" cy="300.469" r="20.48" fill="#c271d2" fill-rule="evenodd" fill-opacity="1" stroke="#000000" stroke-opacity="1" stroke-width="4.55111"/>
<path clip-path="url(#clip750)" d="M504.773 283.189 L511.069 283.189 L526.393 312.101 L526.393 283.189 L530.93 283.189 L530.93 317.749 L524.634 317.749 L509.31 288.837 L509.31 317.749 L504.773 317.749 L504.773 283.189 Z" fill="#000000" fill-rule="nonzero" fill-opacity="1" /><path clip-path="url(#clip750)" d="M562.226 303.721 L562.226 305.804 L542.643 305.804 Q542.921 310.202 545.282 312.517 Q547.666 314.809 551.902 314.809 Q554.356 314.809 556.648 314.207 Q558.962 313.605 561.231 312.401 L561.231 316.429 Q558.939 317.401 556.532 317.911 Q554.124 318.42 551.648 318.42 Q545.444 318.42 541.81 314.809 Q538.199 311.198 538.199 305.04 Q538.199 298.675 541.624 294.948 Q545.074 291.198 550.907 291.198 Q556.138 291.198 559.171 294.577 Q562.226 297.934 562.226 303.721 M557.967 302.471 Q557.921 298.976 555.999 296.892 Q554.101 294.809 550.953 294.809 Q547.388 294.809 545.236 296.823 Q543.106 298.837 542.782 302.494 L557.967 302.471 Z" fill="#000000" fill-rule="nonzero" fill-opacity="1" /><path clip-path="url(#clip750)" d="M566.74 291.823 L570.999 291.823 L576.323 312.054 L581.624 291.823 L586.647 291.823 L591.971 312.054 L597.272 291.823 L601.532 291.823 L594.749 317.749 L589.726 317.749 L584.147 296.499 L578.546 317.749 L573.522 317.749 L566.74 291.823 Z" fill="#000000" fill-rule="nonzero" fill-opacity="1" /><path clip-path="url(#clip750)" d="M641.717 292.818 L641.717 296.8 Q639.911 295.804 638.082 295.318 Q636.277 294.809 634.425 294.809 Q630.281 294.809 627.99 297.448 Q625.698 300.064 625.698 304.809 Q625.698 309.554 627.99 312.193 Q630.281 314.809 634.425 314.809 Q636.277 314.809 638.082 314.323 Q639.911 313.813 641.717 312.818 L641.717 316.753 Q639.934 317.587 638.013 318.003 Q636.115 318.42 633.962 318.42 Q628.105 318.42 624.656 314.739 Q621.207 311.059 621.207 304.809 Q621.207 298.466 624.68 294.832 Q628.175 291.198 634.24 291.198 Q636.207 291.198 638.082 291.615 Q639.957 292.008 641.717 292.818 Z" fill="#000000" fill-rule="nonzero" fill-opacity="1" /><path clip-path="url(#clip750)" d="M671.3 303.721 L671.3 305.804 L651.716 305.804 Q651.994 310.202 654.355 312.517 Q656.74 314.809 660.976 314.809 Q663.429 314.809 665.721 314.207 Q668.036 313.605 670.304 312.401 L670.304 316.429 Q668.013 317.401 665.605 317.911 Q663.198 318.42 660.721 318.42 Q654.517 318.42 650.883 314.809 Q647.272 311.198 647.272 305.04 Q647.272 298.675 650.698 294.948 Q654.147 291.198 659.98 291.198 Q665.212 291.198 668.244 294.577 Q671.3 297.934 671.3 303.721 M667.04 302.471 Q666.994 298.976 665.073 296.892 Q663.175 294.809 660.027 294.809 Q656.462 294.809 654.309 296.823 Q652.179 298.837 651.855 302.494 L667.04 302.471 Z" fill="#000000" fill-rule="nonzero" fill-opacity="1" /><path clip-path="url(#clip750)" d="M699.841 302.101 L699.841 317.749 L695.582 317.749 L695.582 302.239 Q695.582 298.559 694.147 296.73 Q692.712 294.902 689.841 294.902 Q686.392 294.902 684.401 297.101 Q682.411 299.3 682.411 303.096 L682.411 317.749 L678.128 317.749 L678.128 291.823 L682.411 291.823 L682.411 295.851 Q683.939 293.513 685.999 292.355 Q688.082 291.198 690.79 291.198 Q695.258 291.198 697.55 293.976 Q699.841 296.73 699.841 302.101 Z" fill="#000000" fill-rule="nonzero" fill-opacity="1" /><path clip-path="url(#clip750)" d="M712.549 284.462 L712.549 291.823 L721.323 291.823 L721.323 295.133 L712.549 295.133 L712.549 309.207 Q712.549 312.378 713.406 313.281 Q714.286 314.184 716.948 314.184 L721.323 314.184 L721.323 317.749 L716.948 317.749 Q712.017 317.749 710.142 315.92 Q708.267 314.068 708.267 309.207 L708.267 295.133 L705.142 295.133 L705.142 291.823 L708.267 291.823 L708.267 284.462 L712.549 284.462 Z" fill="#000000" fill-rule="nonzero" fill-opacity="1" /><path clip-path="url(#clip750)" d="M741.947 295.804 Q741.23 295.388 740.373 295.202 Q739.54 294.994 738.522 294.994 Q734.91 294.994 732.966 297.355 Q731.045 299.693 731.045 304.091 L731.045 317.749 L726.762 317.749 L726.762 291.823 L731.045 291.823 L731.045 295.851 Q732.387 293.489 734.54 292.355 Q736.693 291.198 739.772 291.198 Q740.211 291.198 740.744 291.267 Q741.276 291.314 741.924 291.429 L741.947 295.804 Z" fill="#000000" fill-rule="nonzero" fill-opacity="1" /><path clip-path="url(#clip750)" d="M755.42 294.809 Q751.994 294.809 750.003 297.494 Q748.012 300.156 748.012 304.809 Q748.012 309.462 749.98 312.147 Q751.971 314.809 755.42 314.809 Q758.822 314.809 760.813 312.124 Q762.804 309.438 762.804 304.809 Q762.804 300.202 760.813 297.517 Q758.822 294.809 755.42 294.809 M755.42 291.198 Q760.975 291.198 764.146 294.809 Q767.318 298.42 767.318 304.809 Q767.318 311.175 764.146 314.809 Q760.975 318.42 755.42 318.42 Q749.841 318.42 746.67 314.809 Q743.522 311.175 743.522 304.809 Q743.522 298.42 746.67 294.809 Q749.841 291.198 755.42 291.198 Z" fill="#000000" fill-rule="nonzero" fill-opacity="1" /><path clip-path="url(#clip750)" d="M774.378 291.823 L778.637 291.823 L778.637 317.749 L774.378 317.749 L774.378 291.823 M774.378 281.73 L778.637 281.73 L778.637 287.124 L774.378 287.124 L774.378 281.73 Z" fill="#000000" fill-rule="nonzero" fill-opacity="1" /><path clip-path="url(#clip750)" d="M804.609 295.758 L804.609 281.73 L808.868 281.73 L808.868 317.749 L804.609 317.749 L804.609 313.86 Q803.267 316.175 801.206 317.309 Q799.169 318.42 796.299 318.42 Q791.6 318.42 788.637 314.67 Q785.697 310.92 785.697 304.809 Q785.697 298.698 788.637 294.948 Q791.6 291.198 796.299 291.198 Q799.169 291.198 801.206 292.332 Q803.267 293.443 804.609 295.758 M790.095 304.809 Q790.095 309.508 792.017 312.193 Q793.961 314.855 797.341 314.855 Q800.72 314.855 802.665 312.193 Q804.609 309.508 804.609 304.809 Q804.609 300.11 802.665 297.448 Q800.72 294.763 797.341 294.763 Q793.961 294.763 792.017 297.448 Q790.095 300.11 790.095 304.809 Z" fill="#000000" fill-rule="nonzero" fill-opacity="1" /><path clip-path="url(#clip750)" d="M834.169 292.587 L834.169 296.614 Q832.364 295.689 830.419 295.226 Q828.475 294.763 826.391 294.763 Q823.22 294.763 821.623 295.735 Q820.049 296.707 820.049 298.651 Q820.049 300.133 821.183 300.989 Q822.317 301.823 825.743 302.587 L827.202 302.911 Q831.739 303.883 833.637 305.665 Q835.558 307.425 835.558 310.596 Q835.558 314.207 832.688 316.313 Q829.841 318.42 824.841 318.42 Q822.757 318.42 820.489 318.003 Q818.243 317.61 815.743 316.8 L815.743 312.401 Q818.104 313.628 820.396 314.253 Q822.688 314.855 824.933 314.855 Q827.942 314.855 829.563 313.837 Q831.183 312.795 831.183 310.92 Q831.183 309.184 830.003 308.258 Q828.845 307.332 824.887 306.476 L823.405 306.128 Q819.447 305.295 817.688 303.582 Q815.929 301.846 815.929 298.837 Q815.929 295.179 818.521 293.189 Q821.114 291.198 825.882 291.198 Q828.243 291.198 830.327 291.545 Q832.41 291.892 834.169 292.587 Z" fill="#000000" fill-rule="nonzero" fill-opacity="1" /></svg>
