<?xml version="1.0" encoding="utf-8"?>
<svg xmlns="http://www.w3.org/2000/svg" xmlns:xlink="http://www.w3.org/1999/xlink" width="600" height="400" viewBox="0 0 2400 1600">
<defs>
  <clipPath id="clip810">
    <rect x="0" y="0" width="2400" height="1600"/>
  </clipPath>
</defs>
<path clip-path="url(#clip810)" d="M0 1600 L2400 1600 L2400 0 L0 0  Z" fill="#ffffff" fill-rule="evenodd" fill-opacity="1"/>
<defs>
  <clipPath id="clip811">
    <rect x="480" y="0" width="1681" height="1600"/>
  </clipPath>
</defs>
<path clip-path="url(#clip810)" d="M247.459 1423.18 L2352.76 1423.18 L2352.76 47.2441 L247.459 47.2441  Z" fill="#ffffff" fill-rule="evenodd" fill-opacity="1"/>
<defs>
  <clipPath id="clip812">
    <rect x="247" y="47" width="2106" height="1377"/>
  </clipPath>
</defs>
<polyline clip-path="url(#clip812)" style="stroke:#000000; stroke-linecap:round; stroke-linejoin:round; stroke-width:2; stroke-opacity:0.1; fill:none" points="553.979,1423.18 553.979,47.2441 "/>
<polyline clip-path="url(#clip812)" style="stroke:#000000; stroke-linecap:round; stroke-linejoin:round; stroke-width:2; stroke-opacity:0.1; fill:none" points="1077.44,1423.18 1077.44,47.2441 "/>
<polyline clip-path="url(#clip812)" style="stroke:#000000; stroke-linecap:round; stroke-linejoin:round; stroke-width:2; stroke-opacity:0.1; fill:none" points="1600.91,1423.18 1600.91,47.2441 "/>
<polyline clip-path="url(#clip812)" style="stroke:#000000; stroke-linecap:round; stroke-linejoin:round; stroke-width:2; stroke-opacity:0.1; fill:none" points="2124.37,1423.18 2124.37,47.2441 "/>
<polyline clip-path="url(#clip810)" style="stroke:#000000; stroke-linecap:round; stroke-linejoin:round; stroke-width:4; stroke-opacity:1; fill:none" points="247.459,1423.18 2352.76,1423.18 "/>
<polyline clip-path="url(#clip810)" style="stroke:#000000; stroke-linecap:round; stroke-linejoin:round; stroke-width:4; stroke-opacity:1; fill:none" points="553.979,1423.18 553.979,1404.28 "/>
<polyline clip-path="url(#clip810)" style="stroke:#000000; stroke-linecap:round; stroke-linejoin:round; stroke-width:4; stroke-opacity:1; fill:none" points="1077.44,1423.18 1077.44,1404.28 "/>
<polyline clip-path="url(#clip810)" style="stroke:#000000; stroke-linecap:round; stroke-linejoin:round; stroke-width:4; stroke-opacity:1; fill:none" points="1600.91,1423.18 1600.91,1404.28 "/>
<polyline clip-path="url(#clip810)" style="stroke:#000000; stroke-linecap:round; stroke-linejoin:round; stroke-width:4; stroke-opacity:1; fill:none" points="2124.37,1423.18 2124.37,1404.28 "/>
<path clip-path="url(#clip810)" d="M548.631 1481.64 L564.951 1481.64 L564.951 1485.58 L543.006 1485.58 L543.006 1481.64 Q545.668 1478.89 550.252 1474.26 Q554.858 1469.61 556.039 1468.27 Q558.284 1465.74 559.164 1464.01 Q560.067 1462.25 560.067 1460.56 Q560.067 1457.8 558.122 1456.07 Q556.201 1454.33 553.099 1454.33 Q550.9 1454.33 548.446 1455.09 Q546.016 1455.86 543.238 1457.41 L543.238 1452.69 Q546.062 1451.55 548.516 1450.97 Q550.969 1450.39 553.006 1450.39 Q558.377 1450.39 561.571 1453.08 Q564.766 1455.77 564.766 1460.26 Q564.766 1462.39 563.955 1464.31 Q563.168 1466.2 561.062 1468.8 Q560.483 1469.47 557.381 1472.69 Q554.28 1475.88 548.631 1481.64 Z" fill="#000000" fill-rule="nonzero" fill-opacity="1" /><path clip-path="url(#clip810)" d="M1080.45 1455.09 L1068.65 1473.54 L1080.45 1473.54 L1080.45 1455.09 M1079.23 1451.02 L1085.11 1451.02 L1085.11 1473.54 L1090.04 1473.54 L1090.04 1477.43 L1085.11 1477.43 L1085.11 1485.58 L1080.45 1485.58 L1080.45 1477.43 L1064.85 1477.43 L1064.85 1472.92 L1079.23 1451.02 Z" fill="#000000" fill-rule="nonzero" fill-opacity="1" /><path clip-path="url(#clip810)" d="M1601.31 1466.44 Q1598.17 1466.44 1596.31 1468.59 Q1594.49 1470.74 1594.49 1474.49 Q1594.49 1478.22 1596.31 1480.39 Q1598.17 1482.55 1601.31 1482.55 Q1604.46 1482.55 1606.29 1480.39 Q1608.14 1478.22 1608.14 1474.49 Q1608.14 1470.74 1606.29 1468.59 Q1604.46 1466.44 1601.31 1466.44 M1610.6 1451.78 L1610.6 1456.04 Q1608.84 1455.21 1607.03 1454.77 Q1605.25 1454.33 1603.49 1454.33 Q1598.86 1454.33 1596.41 1457.45 Q1593.98 1460.58 1593.63 1466.9 Q1595 1464.89 1597.06 1463.82 Q1599.12 1462.73 1601.59 1462.73 Q1606.8 1462.73 1609.81 1465.9 Q1612.84 1469.05 1612.84 1474.49 Q1612.84 1479.82 1609.69 1483.03 Q1606.55 1486.25 1601.31 1486.25 Q1595.32 1486.25 1592.15 1481.67 Q1588.98 1477.06 1588.98 1468.33 Q1588.98 1460.14 1592.87 1455.28 Q1596.75 1450.39 1603.31 1450.39 Q1605.06 1450.39 1606.85 1450.74 Q1608.65 1451.09 1610.6 1451.78 Z" fill="#000000" fill-rule="nonzero" fill-opacity="1" /><path clip-path="url(#clip810)" d="M2124.37 1469.17 Q2121.04 1469.17 2119.12 1470.95 Q2117.22 1472.73 2117.22 1475.86 Q2117.22 1478.98 2119.12 1480.77 Q2121.04 1482.55 2124.37 1482.55 Q2127.71 1482.55 2129.63 1480.77 Q2131.55 1478.96 2131.55 1475.86 Q2131.55 1472.73 2129.63 1470.95 Q2127.73 1469.17 2124.37 1469.17 M2119.7 1467.18 Q2116.69 1466.44 2115 1464.38 Q2113.33 1462.32 2113.33 1459.35 Q2113.33 1455.21 2116.27 1452.8 Q2119.24 1450.39 2124.37 1450.39 Q2129.54 1450.39 2132.48 1452.8 Q2135.42 1455.21 2135.42 1459.35 Q2135.42 1462.32 2133.73 1464.38 Q2132.06 1466.44 2129.07 1467.18 Q2132.45 1467.96 2134.33 1470.26 Q2136.23 1472.55 2136.23 1475.86 Q2136.23 1480.88 2133.15 1483.57 Q2130.09 1486.25 2124.37 1486.25 Q2118.66 1486.25 2115.58 1483.57 Q2112.52 1480.88 2112.52 1475.86 Q2112.52 1472.55 2114.42 1470.26 Q2116.32 1467.96 2119.7 1467.18 M2117.99 1459.79 Q2117.99 1462.48 2119.65 1463.98 Q2121.34 1465.49 2124.37 1465.49 Q2127.38 1465.49 2129.07 1463.98 Q2130.79 1462.48 2130.79 1459.79 Q2130.79 1457.11 2129.07 1455.6 Q2127.38 1454.1 2124.37 1454.1 Q2121.34 1454.1 2119.65 1455.6 Q2117.99 1457.11 2117.99 1459.79 Z" fill="#000000" fill-rule="nonzero" fill-opacity="1" /><path clip-path="url(#clip810)" d="M1281.93 1520.52 L1288.84 1520.52 L1300.65 1538.19 L1312.52 1520.52 L1319.43 1520.52 L1304.15 1543.34 L1320.45 1568.04 L1313.54 1568.04 L1300.17 1547.83 L1286.71 1568.04 L1279.77 1568.04 L1296.73 1542.68 L1281.93 1520.52 Z" fill="#000000" fill-rule="nonzero" fill-opacity="1" /><polyline clip-path="url(#clip812)" style="stroke:#000000; stroke-linecap:round; stroke-linejoin:round; stroke-width:2; stroke-opacity:0.1; fill:none" points="247.459,1327.73 2352.76,1327.73 "/>
<polyline clip-path="url(#clip812)" style="stroke:#000000; stroke-linecap:round; stroke-linejoin:round; stroke-width:2; stroke-opacity:0.1; fill:none" points="247.459,1039.94 2352.76,1039.94 "/>
<polyline clip-path="url(#clip812)" style="stroke:#000000; stroke-linecap:round; stroke-linejoin:round; stroke-width:2; stroke-opacity:0.1; fill:none" points="247.459,752.147 2352.76,752.147 "/>
<polyline clip-path="url(#clip812)" style="stroke:#000000; stroke-linecap:round; stroke-linejoin:round; stroke-width:2; stroke-opacity:0.1; fill:none" points="247.459,464.354 2352.76,464.354 "/>
<polyline clip-path="url(#clip812)" style="stroke:#000000; stroke-linecap:round; stroke-linejoin:round; stroke-width:2; stroke-opacity:0.1; fill:none" points="247.459,176.562 2352.76,176.562 "/>
<polyline clip-path="url(#clip810)" style="stroke:#000000; stroke-linecap:round; stroke-linejoin:round; stroke-width:4; stroke-opacity:1; fill:none" points="247.459,1423.18 247.459,47.2441 "/>
<polyline clip-path="url(#clip810)" style="stroke:#000000; stroke-linecap:round; stroke-linejoin:round; stroke-width:4; stroke-opacity:1; fill:none" points="247.459,1327.73 266.356,1327.73 "/>
<polyline clip-path="url(#clip810)" style="stroke:#000000; stroke-linecap:round; stroke-linejoin:round; stroke-width:4; stroke-opacity:1; fill:none" points="247.459,1039.94 266.356,1039.94 "/>
<polyline clip-path="url(#clip810)" style="stroke:#000000; stroke-linecap:round; stroke-linejoin:round; stroke-width:4; stroke-opacity:1; fill:none" points="247.459,752.147 266.356,752.147 "/>
<polyline clip-path="url(#clip810)" style="stroke:#000000; stroke-linecap:round; stroke-linejoin:round; stroke-width:4; stroke-opacity:1; fill:none" points="247.459,464.354 266.356,464.354 "/>
<polyline clip-path="url(#clip810)" style="stroke:#000000; stroke-linecap:round; stroke-linejoin:round; stroke-width:4; stroke-opacity:1; fill:none" points="247.459,176.562 266.356,176.562 "/>
<path clip-path="url(#clip810)" d="M149.306 1341.08 L165.626 1341.08 L165.626 1345.01 L143.681 1345.01 L143.681 1341.08 Q146.343 1338.32 150.927 1333.69 Q155.533 1329.04 156.714 1327.7 Q158.959 1325.17 159.839 1323.44 Q160.741 1321.68 160.741 1319.99 Q160.741 1317.23 158.797 1315.5 Q156.876 1313.76 153.774 1313.76 Q151.575 1313.76 149.121 1314.53 Q146.691 1315.29 143.913 1316.84 L143.913 1312.12 Q146.737 1310.98 149.191 1310.41 Q151.644 1309.83 153.681 1309.83 Q159.052 1309.83 162.246 1312.51 Q165.44 1315.2 165.44 1319.69 Q165.44 1321.82 164.63 1323.74 Q163.843 1325.64 161.737 1328.23 Q161.158 1328.9 158.056 1332.12 Q154.954 1335.31 149.306 1341.08 Z" fill="#000000" fill-rule="nonzero" fill-opacity="1" /><path clip-path="url(#clip810)" d="M175.44 1339.13 L180.325 1339.13 L180.325 1345.01 L175.44 1345.01 L175.44 1339.13 Z" fill="#000000" fill-rule="nonzero" fill-opacity="1" /><path clip-path="url(#clip810)" d="M190.556 1310.45 L208.912 1310.45 L208.912 1314.39 L194.838 1314.39 L194.838 1322.86 Q195.857 1322.51 196.875 1322.35 Q197.894 1322.17 198.912 1322.17 Q204.699 1322.17 208.079 1325.34 Q211.459 1328.51 211.459 1333.92 Q211.459 1339.5 207.987 1342.61 Q204.514 1345.68 198.195 1345.68 Q196.019 1345.68 193.75 1345.31 Q191.505 1344.94 189.098 1344.2 L189.098 1339.5 Q191.181 1340.64 193.403 1341.19 Q195.625 1341.75 198.102 1341.75 Q202.107 1341.75 204.445 1339.64 Q206.783 1337.54 206.783 1333.92 Q206.783 1330.31 204.445 1328.21 Q202.107 1326.1 198.102 1326.1 Q196.227 1326.1 194.352 1326.52 Q192.5 1326.93 190.556 1327.81 L190.556 1310.45 Z" fill="#000000" fill-rule="nonzero" fill-opacity="1" /><path clip-path="url(#clip810)" d="M144.329 1022.66 L162.686 1022.66 L162.686 1026.59 L148.612 1026.59 L148.612 1035.07 Q149.63 1034.72 150.649 1034.56 Q151.667 1034.37 152.686 1034.37 Q158.473 1034.37 161.852 1037.54 Q165.232 1040.72 165.232 1046.13 Q165.232 1051.71 161.76 1054.81 Q158.288 1057.89 151.968 1057.89 Q149.792 1057.89 147.524 1057.52 Q145.279 1057.15 142.871 1056.41 L142.871 1051.71 Q144.954 1052.84 147.177 1053.4 Q149.399 1053.96 151.876 1053.96 Q155.88 1053.96 158.218 1051.85 Q160.556 1049.74 160.556 1046.13 Q160.556 1042.52 158.218 1040.41 Q155.88 1038.31 151.876 1038.31 Q150.001 1038.31 148.126 1038.72 Q146.274 1039.14 144.329 1040.02 L144.329 1022.66 Z" fill="#000000" fill-rule="nonzero" fill-opacity="1" /><path clip-path="url(#clip810)" d="M174.445 1051.34 L179.329 1051.34 L179.329 1057.22 L174.445 1057.22 L174.445 1051.34 Z" fill="#000000" fill-rule="nonzero" fill-opacity="1" /><path clip-path="url(#clip810)" d="M199.514 1025.74 Q195.903 1025.74 194.075 1029.3 Q192.269 1032.84 192.269 1039.97 Q192.269 1047.08 194.075 1050.65 Q195.903 1054.19 199.514 1054.19 Q203.149 1054.19 204.954 1050.65 Q206.783 1047.08 206.783 1039.97 Q206.783 1032.84 204.954 1029.3 Q203.149 1025.74 199.514 1025.74 M199.514 1022.03 Q205.324 1022.03 208.38 1026.64 Q211.459 1031.22 211.459 1039.97 Q211.459 1048.7 208.38 1053.31 Q205.324 1057.89 199.514 1057.89 Q193.704 1057.89 190.625 1053.31 Q187.57 1048.7 187.57 1039.97 Q187.57 1031.22 190.625 1026.64 Q193.704 1022.03 199.514 1022.03 Z" fill="#000000" fill-rule="nonzero" fill-opacity="1" /><path clip-path="url(#clip810)" d="M144.098 734.867 L166.32 734.867 L166.32 736.858 L153.774 769.427 L148.89 769.427 L160.695 738.802 L144.098 738.802 L144.098 734.867 Z" fill="#000000" fill-rule="nonzero" fill-opacity="1" /><path clip-path="url(#clip810)" d="M175.44 763.547 L180.325 763.547 L180.325 769.427 L175.44 769.427 L175.44 763.547 Z" fill="#000000" fill-rule="nonzero" fill-opacity="1" /><path clip-path="url(#clip810)" d="M190.556 734.867 L208.912 734.867 L208.912 738.802 L194.838 738.802 L194.838 747.274 Q195.857 746.927 196.875 746.765 Q197.894 746.58 198.912 746.58 Q204.699 746.58 208.079 749.751 Q211.459 752.923 211.459 758.339 Q211.459 763.918 207.987 767.02 Q204.514 770.098 198.195 770.098 Q196.019 770.098 193.75 769.728 Q191.505 769.358 189.098 768.617 L189.098 763.918 Q191.181 765.052 193.403 765.608 Q195.625 766.163 198.102 766.163 Q202.107 766.163 204.445 764.057 Q206.783 761.95 206.783 758.339 Q206.783 754.728 204.445 752.622 Q202.107 750.515 198.102 750.515 Q196.227 750.515 194.352 750.932 Q192.5 751.348 190.556 752.228 L190.556 734.867 Z" fill="#000000" fill-rule="nonzero" fill-opacity="1" /><path clip-path="url(#clip810)" d="M114.931 477.699 L122.57 477.699 L122.57 451.334 L114.26 453 L114.26 448.741 L122.524 447.074 L127.2 447.074 L127.2 477.699 L134.839 477.699 L134.839 481.634 L114.931 481.634 L114.931 477.699 Z" fill="#000000" fill-rule="nonzero" fill-opacity="1" /><path clip-path="url(#clip810)" d="M154.283 450.153 Q150.672 450.153 148.843 453.718 Q147.038 457.26 147.038 464.389 Q147.038 471.496 148.843 475.06 Q150.672 478.602 154.283 478.602 Q157.917 478.602 159.723 475.06 Q161.552 471.496 161.552 464.389 Q161.552 457.26 159.723 453.718 Q157.917 450.153 154.283 450.153 M154.283 446.449 Q160.093 446.449 163.149 451.056 Q166.227 455.639 166.227 464.389 Q166.227 473.116 163.149 477.722 Q160.093 482.306 154.283 482.306 Q148.473 482.306 145.394 477.722 Q142.339 473.116 142.339 464.389 Q142.339 455.639 145.394 451.056 Q148.473 446.449 154.283 446.449 Z" fill="#000000" fill-rule="nonzero" fill-opacity="1" /><path clip-path="url(#clip810)" d="M174.445 475.755 L179.329 475.755 L179.329 481.634 L174.445 481.634 L174.445 475.755 Z" fill="#000000" fill-rule="nonzero" fill-opacity="1" /><path clip-path="url(#clip810)" d="M199.514 450.153 Q195.903 450.153 194.075 453.718 Q192.269 457.26 192.269 464.389 Q192.269 471.496 194.075 475.06 Q195.903 478.602 199.514 478.602 Q203.149 478.602 204.954 475.06 Q206.783 471.496 206.783 464.389 Q206.783 457.26 204.954 453.718 Q203.149 450.153 199.514 450.153 M199.514 446.449 Q205.324 446.449 208.38 451.056 Q211.459 455.639 211.459 464.389 Q211.459 473.116 208.38 477.722 Q205.324 482.306 199.514 482.306 Q193.704 482.306 190.625 477.722 Q187.57 473.116 187.57 464.389 Q187.57 455.639 190.625 451.056 Q193.704 446.449 199.514 446.449 Z" fill="#000000" fill-rule="nonzero" fill-opacity="1" /><path clip-path="url(#clip810)" d="M115.927 189.907 L123.566 189.907 L123.566 163.541 L115.256 165.208 L115.256 160.948 L123.519 159.282 L128.195 159.282 L128.195 189.907 L135.834 189.907 L135.834 193.842 L115.927 193.842 L115.927 189.907 Z" fill="#000000" fill-rule="nonzero" fill-opacity="1" /><path clip-path="url(#clip810)" d="M149.306 189.907 L165.626 189.907 L165.626 193.842 L143.681 193.842 L143.681 189.907 Q146.343 187.152 150.927 182.522 Q155.533 177.87 156.714 176.527 Q158.959 174.004 159.839 172.268 Q160.741 170.509 160.741 168.819 Q160.741 166.064 158.797 164.328 Q156.876 162.592 153.774 162.592 Q151.575 162.592 149.121 163.356 Q146.691 164.12 143.913 165.671 L143.913 160.948 Q146.737 159.814 149.191 159.235 Q151.644 158.657 153.681 158.657 Q159.052 158.657 162.246 161.342 Q165.44 164.027 165.44 168.518 Q165.44 170.647 164.63 172.569 Q163.843 174.467 161.737 177.059 Q161.158 177.731 158.056 180.948 Q154.954 184.143 149.306 189.907 Z" fill="#000000" fill-rule="nonzero" fill-opacity="1" /><path clip-path="url(#clip810)" d="M175.44 187.962 L180.325 187.962 L180.325 193.842 L175.44 193.842 L175.44 187.962 Z" fill="#000000" fill-rule="nonzero" fill-opacity="1" /><path clip-path="url(#clip810)" d="M190.556 159.282 L208.912 159.282 L208.912 163.217 L194.838 163.217 L194.838 171.689 Q195.857 171.342 196.875 171.18 Q197.894 170.995 198.912 170.995 Q204.699 170.995 208.079 174.166 Q211.459 177.337 211.459 182.754 Q211.459 188.333 207.987 191.434 Q204.514 194.513 198.195 194.513 Q196.019 194.513 193.75 194.143 Q191.505 193.772 189.098 193.032 L189.098 188.333 Q191.181 189.467 193.403 190.022 Q195.625 190.578 198.102 190.578 Q202.107 190.578 204.445 188.471 Q206.783 186.365 206.783 182.754 Q206.783 179.143 204.445 177.036 Q202.107 174.93 198.102 174.93 Q196.227 174.93 194.352 175.346 Q192.5 175.763 190.556 176.643 L190.556 159.282 Z" fill="#000000" fill-rule="nonzero" fill-opacity="1" /><path clip-path="url(#clip810)" d="M16.4842 755.248 L16.4842 748.341 L36.0269 735.164 L16.4842 722.083 L16.4842 715.176 L41.3741 731.981 L64.0042 731.981 L64.0042 738.443 L41.3741 738.443 L16.4842 755.248 Z" fill="#000000" fill-rule="nonzero" fill-opacity="1" /><circle clip-path="url(#clip812)" cx="460.02" cy="1375.28" r="14.4" fill="#009af9" fill-rule="evenodd" fill-opacity="1" stroke="#000000" stroke-opacity="1" stroke-width="3.2"/>
<circle clip-path="url(#clip812)" cx="489.565" cy="1216.85" r="14.4" fill="#009af9" fill-rule="evenodd" fill-opacity="1" stroke="#000000" stroke-opacity="1" stroke-width="3.2"/>
<circle clip-path="url(#clip812)" cx="391.275" cy="1254.96" r="14.4" fill="#009af9" fill-rule="evenodd" fill-opacity="1" stroke="#000000" stroke-opacity="1" stroke-width="3.2"/>
<circle clip-path="url(#clip812)" cx="307.043" cy="1322.57" r="14.4" fill="#009af9" fill-rule="evenodd" fill-opacity="1" stroke="#000000" stroke-opacity="1" stroke-width="3.2"/>
<circle clip-path="url(#clip812)" cx="334.564" cy="1384.24" r="14.4" fill="#009af9" fill-rule="evenodd" fill-opacity="1" stroke="#000000" stroke-opacity="1" stroke-width="3.2"/>
<circle clip-path="url(#clip812)" cx="1964.12" cy="1153.34" r="14.4" fill="#009af9" fill-rule="evenodd" fill-opacity="1" stroke="#000000" stroke-opacity="1" stroke-width="3.2"/>
<circle clip-path="url(#clip812)" cx="2293.17" cy="1315.12" r="14.4" fill="#009af9" fill-rule="evenodd" fill-opacity="1" stroke="#000000" stroke-opacity="1" stroke-width="3.2"/>
<circle clip-path="url(#clip812)" cx="2164.61" cy="86.1857" r="14.4" fill="#009af9" fill-rule="evenodd" fill-opacity="1" stroke="#000000" stroke-opacity="1" stroke-width="3.2"/>
<circle clip-path="url(#clip812)" cx="1961.28" cy="605.776" r="14.4" fill="#009af9" fill-rule="evenodd" fill-opacity="1" stroke="#000000" stroke-opacity="1" stroke-width="3.2"/>
<circle clip-path="url(#clip812)" cx="2243.56" cy="1265.97" r="14.4" fill="#009af9" fill-rule="evenodd" fill-opacity="1" stroke="#000000" stroke-opacity="1" stroke-width="3.2"/>
<circle clip-path="url(#clip812)" cx="1961.28" cy="605.776" r="14.4" fill="#e26f46" fill-rule="evenodd" fill-opacity="1" stroke="#000000" stroke-opacity="1" stroke-width="3.2"/>
<circle clip-path="url(#clip812)" cx="1961.28" cy="605.776" r="14.4" fill="#e26f46" fill-rule="evenodd" fill-opacity="1" stroke="#000000" stroke-opacity="1" stroke-width="3.2"/>
<path clip-path="url(#clip810)" d="M317.635 248.629 L749.506 248.629 L749.506 93.1086 L317.635 93.1086  Z" fill="#ffffff" fill-rule="evenodd" fill-opacity="1"/>
<polyline clip-path="url(#clip810)" style="stroke:#000000; stroke-linecap:round; stroke-linejoin:round; stroke-width:4; stroke-opacity:1; fill:none" points="317.635,248.629 749.506,248.629 749.506,93.1086 317.635,93.1086 317.635,248.629 "/>
<circle clip-path="url(#clip810)" cx="411.204" cy="144.949" r="20.48" fill="#009af9" fill-rule="evenodd" fill-opacity="1" stroke="#000000" stroke-opacity="1" stroke-width="4.55111"/>
<path clip-path="url(#clip810)" d="M523.685 140.238 L523.685 126.21 L527.944 126.21 L527.944 162.229 L523.685 162.229 L523.685 158.34 Q522.342 160.655 520.282 161.789 Q518.245 162.9 515.375 162.9 Q510.676 162.9 507.713 159.15 Q504.773 155.4 504.773 149.289 Q504.773 143.178 507.713 139.428 Q510.676 135.678 515.375 135.678 Q518.245 135.678 520.282 136.812 Q522.342 137.923 523.685 140.238 M509.171 149.289 Q509.171 153.988 511.092 156.673 Q513.037 159.335 516.416 159.335 Q519.796 159.335 521.74 156.673 Q523.685 153.988 523.685 149.289 Q523.685 144.59 521.74 141.928 Q519.796 139.243 516.416 139.243 Q513.037 139.243 511.092 141.928 Q509.171 144.59 509.171 149.289 Z" fill="#000000" fill-rule="nonzero" fill-opacity="1" /><path clip-path="url(#clip810)" d="M548.499 149.196 Q543.337 149.196 541.347 150.377 Q539.356 151.557 539.356 154.405 Q539.356 156.673 540.837 158.016 Q542.342 159.335 544.911 159.335 Q548.453 159.335 550.583 156.835 Q552.736 154.312 552.736 150.145 L552.736 149.196 L548.499 149.196 M556.995 147.437 L556.995 162.229 L552.736 162.229 L552.736 158.293 Q551.277 160.655 549.101 161.789 Q546.925 162.9 543.777 162.9 Q539.796 162.9 537.435 160.678 Q535.097 158.432 535.097 154.682 Q535.097 150.307 538.013 148.085 Q540.953 145.863 546.763 145.863 L552.736 145.863 L552.736 145.446 Q552.736 142.507 550.791 140.909 Q548.87 139.289 545.374 139.289 Q543.152 139.289 541.046 139.821 Q538.939 140.354 536.995 141.419 L536.995 137.483 Q539.333 136.581 541.532 136.141 Q543.731 135.678 545.814 135.678 Q551.439 135.678 554.217 138.594 Q556.995 141.511 556.995 147.437 Z" fill="#000000" fill-rule="nonzero" fill-opacity="1" /><path clip-path="url(#clip810)" d="M569.981 128.942 L569.981 136.303 L578.754 136.303 L578.754 139.613 L569.981 139.613 L569.981 153.687 Q569.981 156.858 570.837 157.761 Q571.717 158.664 574.379 158.664 L578.754 158.664 L578.754 162.229 L574.379 162.229 Q569.448 162.229 567.573 160.4 Q565.698 158.548 565.698 153.687 L565.698 139.613 L562.573 139.613 L562.573 136.303 L565.698 136.303 L565.698 128.942 L569.981 128.942 Z" fill="#000000" fill-rule="nonzero" fill-opacity="1" /><path clip-path="url(#clip810)" d="M596.138 149.196 Q590.976 149.196 588.985 150.377 Q586.995 151.557 586.995 154.405 Q586.995 156.673 588.476 158.016 Q589.981 159.335 592.55 159.335 Q596.092 159.335 598.221 156.835 Q600.374 154.312 600.374 150.145 L600.374 149.196 L596.138 149.196 M604.633 147.437 L604.633 162.229 L600.374 162.229 L600.374 158.293 Q598.916 160.655 596.74 161.789 Q594.564 162.9 591.416 162.9 Q587.434 162.9 585.073 160.678 Q582.735 158.432 582.735 154.682 Q582.735 150.307 585.652 148.085 Q588.592 145.863 594.402 145.863 L600.374 145.863 L600.374 145.446 Q600.374 142.507 598.43 140.909 Q596.508 139.289 593.013 139.289 Q590.791 139.289 588.684 139.821 Q586.578 140.354 584.633 141.419 L584.633 137.483 Q586.971 136.581 589.171 136.141 Q591.37 135.678 593.453 135.678 Q599.078 135.678 601.856 138.594 Q604.633 141.511 604.633 147.437 Z" fill="#000000" fill-rule="nonzero" fill-opacity="1" /><path clip-path="url(#clip810)" d="M633.105 170.099 L633.105 173.409 L608.476 173.409 L608.476 170.099 L633.105 170.099 Z" fill="#000000" fill-rule="nonzero" fill-opacity="1" /><path clip-path="url(#clip810)" d="M653.638 137.067 L653.638 141.094 Q651.832 140.169 649.888 139.706 Q647.943 139.243 645.86 139.243 Q642.689 139.243 641.092 140.215 Q639.517 141.187 639.517 143.131 Q639.517 144.613 640.652 145.469 Q641.786 146.303 645.212 147.067 L646.67 147.391 Q651.207 148.363 653.105 150.145 Q655.027 151.905 655.027 155.076 Q655.027 158.687 652.156 160.793 Q649.309 162.9 644.309 162.9 Q642.226 162.9 639.957 162.483 Q637.712 162.09 635.212 161.28 L635.212 156.881 Q637.573 158.108 639.865 158.733 Q642.156 159.335 644.402 159.335 Q647.411 159.335 649.031 158.317 Q650.652 157.275 650.652 155.4 Q650.652 153.664 649.471 152.738 Q648.314 151.812 644.355 150.956 L642.874 150.608 Q638.916 149.775 637.156 148.062 Q635.397 146.326 635.397 143.317 Q635.397 139.659 637.99 137.669 Q640.582 135.678 645.351 135.678 Q647.712 135.678 649.795 136.025 Q651.879 136.372 653.638 137.067 Z" fill="#000000" fill-rule="nonzero" fill-opacity="1" /><circle clip-path="url(#clip810)" cx="411.204" cy="196.789" r="20.48" fill="#e26f46" fill-rule="evenodd" fill-opacity="1" stroke="#000000" stroke-opacity="1" stroke-width="4.55111"/>
<path clip-path="url(#clip810)" d="M532.643 182.171 L532.643 187.101 Q530.282 184.902 527.597 183.814 Q524.935 182.726 521.925 182.726 Q516 182.726 512.851 186.36 Q509.703 189.972 509.703 196.823 Q509.703 203.652 512.851 207.286 Q516 210.897 521.925 210.897 Q524.935 210.897 527.597 209.809 Q530.282 208.721 532.643 206.522 L532.643 211.407 Q530.189 213.073 527.435 213.907 Q524.703 214.74 521.648 214.74 Q513.801 214.74 509.287 209.948 Q504.773 205.133 504.773 196.823 Q504.773 188.49 509.287 183.698 Q513.801 178.884 521.648 178.884 Q524.75 178.884 527.481 179.717 Q530.236 180.527 532.643 182.171 Z" fill="#000000" fill-rule="nonzero" fill-opacity="1" /><path clip-path="url(#clip810)" d="M561.856 200.041 L561.856 202.124 L542.273 202.124 Q542.55 206.522 544.911 208.837 Q547.296 211.129 551.532 211.129 Q553.986 211.129 556.277 210.527 Q558.592 209.925 560.86 208.721 L560.86 212.749 Q558.569 213.721 556.161 214.231 Q553.754 214.74 551.277 214.74 Q545.074 214.74 541.439 211.129 Q537.828 207.518 537.828 201.36 Q537.828 194.995 541.254 191.268 Q544.703 187.518 550.536 187.518 Q555.768 187.518 558.8 190.897 Q561.856 194.254 561.856 200.041 M557.597 198.791 Q557.55 195.296 555.629 193.212 Q553.731 191.129 550.583 191.129 Q547.018 191.129 544.865 193.143 Q542.736 195.157 542.411 198.814 L557.597 198.791 Z" fill="#000000" fill-rule="nonzero" fill-opacity="1" /><path clip-path="url(#clip810)" d="M590.397 198.421 L590.397 214.069 L586.138 214.069 L586.138 198.559 Q586.138 194.879 584.703 193.05 Q583.268 191.222 580.397 191.222 Q576.948 191.222 574.958 193.421 Q572.967 195.62 572.967 199.416 L572.967 214.069 L568.685 214.069 L568.685 188.143 L572.967 188.143 L572.967 192.171 Q574.495 189.833 576.555 188.675 Q578.638 187.518 581.346 187.518 Q585.814 187.518 588.106 190.296 Q590.397 193.05 590.397 198.421 Z" fill="#000000" fill-rule="nonzero" fill-opacity="1" /><path clip-path="url(#clip810)" d="M603.106 180.782 L603.106 188.143 L611.879 188.143 L611.879 191.453 L603.106 191.453 L603.106 205.527 Q603.106 208.698 603.962 209.601 Q604.842 210.504 607.504 210.504 L611.879 210.504 L611.879 214.069 L607.504 214.069 Q602.573 214.069 600.698 212.24 Q598.823 210.388 598.823 205.527 L598.823 191.453 L595.698 191.453 L595.698 188.143 L598.823 188.143 L598.823 180.782 L603.106 180.782 Z" fill="#000000" fill-rule="nonzero" fill-opacity="1" /><path clip-path="url(#clip810)" d="M632.504 192.124 Q631.786 191.708 630.93 191.522 Q630.096 191.314 629.078 191.314 Q625.467 191.314 623.522 193.675 Q621.601 196.013 621.601 200.411 L621.601 214.069 L617.319 214.069 L617.319 188.143 L621.601 188.143 L621.601 192.171 Q622.943 189.809 625.096 188.675 Q627.249 187.518 630.328 187.518 Q630.768 187.518 631.3 187.587 Q631.832 187.634 632.48 187.749 L632.504 192.124 Z" fill="#000000" fill-rule="nonzero" fill-opacity="1" /><path clip-path="url(#clip810)" d="M645.976 191.129 Q642.55 191.129 640.559 193.814 Q638.568 196.476 638.568 201.129 Q638.568 205.782 640.536 208.467 Q642.527 211.129 645.976 211.129 Q649.379 211.129 651.369 208.444 Q653.36 205.758 653.36 201.129 Q653.36 196.522 651.369 193.837 Q649.379 191.129 645.976 191.129 M645.976 187.518 Q651.531 187.518 654.703 191.129 Q657.874 194.74 657.874 201.129 Q657.874 207.495 654.703 211.129 Q651.531 214.74 645.976 214.74 Q640.397 214.74 637.226 211.129 Q634.078 207.495 634.078 201.129 Q634.078 194.74 637.226 191.129 Q640.397 187.518 645.976 187.518 Z" fill="#000000" fill-rule="nonzero" fill-opacity="1" /><path clip-path="url(#clip810)" d="M664.934 188.143 L669.193 188.143 L669.193 214.069 L664.934 214.069 L664.934 188.143 M664.934 178.05 L669.193 178.05 L669.193 183.444 L664.934 183.444 L664.934 178.05 Z" fill="#000000" fill-rule="nonzero" fill-opacity="1" /><path clip-path="url(#clip810)" d="M695.165 192.078 L695.165 178.05 L699.425 178.05 L699.425 214.069 L695.165 214.069 L695.165 210.18 Q693.823 212.495 691.763 213.629 Q689.726 214.74 686.855 214.74 Q682.156 214.74 679.193 210.99 Q676.253 207.24 676.253 201.129 Q676.253 195.018 679.193 191.268 Q682.156 187.518 686.855 187.518 Q689.726 187.518 691.763 188.652 Q693.823 189.763 695.165 192.078 M680.651 201.129 Q680.651 205.828 682.573 208.513 Q684.517 211.175 687.897 211.175 Q691.276 211.175 693.221 208.513 Q695.165 205.828 695.165 201.129 Q695.165 196.43 693.221 193.768 Q691.276 191.083 687.897 191.083 Q684.517 191.083 682.573 193.768 Q680.651 196.43 680.651 201.129 Z" fill="#000000" fill-rule="nonzero" fill-opacity="1" /><path clip-path="url(#clip810)" d="M724.725 188.907 L724.725 192.934 Q722.92 192.009 720.975 191.546 Q719.031 191.083 716.948 191.083 Q713.776 191.083 712.179 192.055 Q710.605 193.027 710.605 194.971 Q710.605 196.453 711.739 197.309 Q712.874 198.143 716.299 198.907 L717.758 199.231 Q722.295 200.203 724.193 201.985 Q726.114 203.745 726.114 206.916 Q726.114 210.527 723.244 212.633 Q720.397 214.74 715.397 214.74 Q713.313 214.74 711.045 214.323 Q708.799 213.93 706.3 213.12 L706.3 208.721 Q708.661 209.948 710.952 210.573 Q713.244 211.175 715.489 211.175 Q718.499 211.175 720.119 210.157 Q721.739 209.115 721.739 207.24 Q721.739 205.504 720.559 204.578 Q719.401 203.652 715.443 202.796 L713.962 202.448 Q710.003 201.615 708.244 199.902 Q706.485 198.166 706.485 195.157 Q706.485 191.499 709.077 189.509 Q711.67 187.518 716.438 187.518 Q718.799 187.518 720.883 187.865 Q722.966 188.212 724.725 188.907 Z" fill="#000000" fill-rule="nonzero" fill-opacity="1" /></svg>
