<?xml version="1.0" encoding="utf-8"?>
<svg xmlns="http://www.w3.org/2000/svg" xmlns:xlink="http://www.w3.org/1999/xlink" width="600" height="400" viewBox="0 0 2400 1600">
<defs>
  <clipPath id="clip280">
    <rect x="0" y="0" width="2400" height="1600"/>
  </clipPath>
</defs>
<path clip-path="url(#clip280)" d="M0 1600 L2400 1600 L2400 0 L0 0  Z" fill="#ffffff" fill-rule="evenodd" fill-opacity="1"/>
<defs>
  <clipPath id="clip281">
    <rect x="480" y="0" width="1681" height="1600"/>
  </clipPath>
</defs>
<path clip-path="url(#clip280)" d="M249.542 1423.18 L2352.76 1423.18 L2352.76 47.2441 L249.542 47.2441  Z" fill="#ffffff" fill-rule="evenodd" fill-opacity="1"/>
<defs>
  <clipPath id="clip282">
    <rect x="249" y="47" width="2104" height="1377"/>
  </clipPath>
</defs>
<polyline clip-path="url(#clip282)" style="stroke:#000000; stroke-linecap:round; stroke-linejoin:round; stroke-width:2; stroke-opacity:0.1; fill:none" points="312.309,1423.18 312.309,47.2441 "/>
<polyline clip-path="url(#clip282)" style="stroke:#000000; stroke-linecap:round; stroke-linejoin:round; stroke-width:2; stroke-opacity:0.1; fill:none" points="662.513,1423.18 662.513,47.2441 "/>
<polyline clip-path="url(#clip282)" style="stroke:#000000; stroke-linecap:round; stroke-linejoin:round; stroke-width:2; stroke-opacity:0.1; fill:none" points="1012.72,1423.18 1012.72,47.2441 "/>
<polyline clip-path="url(#clip282)" style="stroke:#000000; stroke-linecap:round; stroke-linejoin:round; stroke-width:2; stroke-opacity:0.1; fill:none" points="1362.92,1423.18 1362.92,47.2441 "/>
<polyline clip-path="url(#clip282)" style="stroke:#000000; stroke-linecap:round; stroke-linejoin:round; stroke-width:2; stroke-opacity:0.1; fill:none" points="1713.12,1423.18 1713.12,47.2441 "/>
<polyline clip-path="url(#clip282)" style="stroke:#000000; stroke-linecap:round; stroke-linejoin:round; stroke-width:2; stroke-opacity:0.1; fill:none" points="2063.33,1423.18 2063.33,47.2441 "/>
<polyline clip-path="url(#clip280)" style="stroke:#000000; stroke-linecap:round; stroke-linejoin:round; stroke-width:4; stroke-opacity:1; fill:none" points="249.542,1423.18 2352.76,1423.18 "/>
<polyline clip-path="url(#clip280)" style="stroke:#000000; stroke-linecap:round; stroke-linejoin:round; stroke-width:4; stroke-opacity:1; fill:none" points="312.309,1423.18 312.309,1404.28 "/>
<polyline clip-path="url(#clip280)" style="stroke:#000000; stroke-linecap:round; stroke-linejoin:round; stroke-width:4; stroke-opacity:1; fill:none" points="662.513,1423.18 662.513,1404.28 "/>
<polyline clip-path="url(#clip280)" style="stroke:#000000; stroke-linecap:round; stroke-linejoin:round; stroke-width:4; stroke-opacity:1; fill:none" points="1012.72,1423.18 1012.72,1404.28 "/>
<polyline clip-path="url(#clip280)" style="stroke:#000000; stroke-linecap:round; stroke-linejoin:round; stroke-width:4; stroke-opacity:1; fill:none" points="1362.92,1423.18 1362.92,1404.28 "/>
<polyline clip-path="url(#clip280)" style="stroke:#000000; stroke-linecap:round; stroke-linejoin:round; stroke-width:4; stroke-opacity:1; fill:none" points="1713.12,1423.18 1713.12,1404.28 "/>
<polyline clip-path="url(#clip280)" style="stroke:#000000; stroke-linecap:round; stroke-linejoin:round; stroke-width:4; stroke-opacity:1; fill:none" points="2063.33,1423.18 2063.33,1404.28 "/>
<path clip-path="url(#clip280)" d="M266.372 1468.75 L296.048 1468.75 L296.048 1472.69 L266.372 1472.69 L266.372 1468.75 Z" fill="#000000" fill-rule="nonzero" fill-opacity="1" /><path clip-path="url(#clip280)" d="M306.95 1481.64 L314.589 1481.64 L314.589 1455.28 L306.279 1456.95 L306.279 1452.69 L314.543 1451.02 L319.219 1451.02 L319.219 1481.64 L326.858 1481.64 L326.858 1485.58 L306.95 1485.58 L306.95 1481.64 Z" fill="#000000" fill-rule="nonzero" fill-opacity="1" /><path clip-path="url(#clip280)" d="M346.302 1454.1 Q342.691 1454.1 340.862 1457.66 Q339.057 1461.2 339.057 1468.33 Q339.057 1475.44 340.862 1479.01 Q342.691 1482.55 346.302 1482.55 Q349.936 1482.55 351.742 1479.01 Q353.57 1475.44 353.57 1468.33 Q353.57 1461.2 351.742 1457.66 Q349.936 1454.1 346.302 1454.1 M346.302 1450.39 Q352.112 1450.39 355.168 1455 Q358.246 1459.58 358.246 1468.33 Q358.246 1477.06 355.168 1481.67 Q352.112 1486.25 346.302 1486.25 Q340.492 1486.25 337.413 1481.67 Q334.358 1477.06 334.358 1468.33 Q334.358 1459.58 337.413 1455 Q340.492 1450.39 346.302 1450.39 Z" fill="#000000" fill-rule="nonzero" fill-opacity="1" /><path clip-path="url(#clip280)" d="M632.154 1468.75 L661.83 1468.75 L661.83 1472.69 L632.154 1472.69 L632.154 1468.75 Z" fill="#000000" fill-rule="nonzero" fill-opacity="1" /><path clip-path="url(#clip280)" d="M671.969 1451.02 L690.325 1451.02 L690.325 1454.96 L676.251 1454.96 L676.251 1463.43 Q677.27 1463.08 678.288 1462.92 Q679.307 1462.73 680.325 1462.73 Q686.112 1462.73 689.492 1465.9 Q692.872 1469.08 692.872 1474.49 Q692.872 1480.07 689.399 1483.17 Q685.927 1486.25 679.608 1486.25 Q677.432 1486.25 675.163 1485.88 Q672.918 1485.51 670.511 1484.77 L670.511 1480.07 Q672.594 1481.2 674.816 1481.76 Q677.038 1482.32 679.515 1482.32 Q683.52 1482.32 685.858 1480.21 Q688.196 1478.1 688.196 1474.49 Q688.196 1470.88 685.858 1468.77 Q683.52 1466.67 679.515 1466.67 Q677.64 1466.67 675.765 1467.08 Q673.913 1467.5 671.969 1468.38 L671.969 1451.02 Z" fill="#000000" fill-rule="nonzero" fill-opacity="1" /><path clip-path="url(#clip280)" d="M1012.72 1454.1 Q1009.11 1454.1 1007.28 1457.66 Q1005.47 1461.2 1005.47 1468.33 Q1005.47 1475.44 1007.28 1479.01 Q1009.11 1482.55 1012.72 1482.55 Q1016.35 1482.55 1018.16 1479.01 Q1019.99 1475.44 1019.99 1468.33 Q1019.99 1461.2 1018.16 1457.66 Q1016.35 1454.1 1012.72 1454.1 M1012.72 1450.39 Q1018.53 1450.39 1021.58 1455 Q1024.66 1459.58 1024.66 1468.33 Q1024.66 1477.06 1021.58 1481.67 Q1018.53 1486.25 1012.72 1486.25 Q1006.91 1486.25 1003.83 1481.67 Q1000.77 1477.06 1000.77 1468.33 Q1000.77 1459.58 1003.83 1455 Q1006.91 1450.39 1012.72 1450.39 Z" fill="#000000" fill-rule="nonzero" fill-opacity="1" /><path clip-path="url(#clip280)" d="M1353.2 1451.02 L1371.56 1451.02 L1371.56 1454.96 L1357.48 1454.96 L1357.48 1463.43 Q1358.5 1463.08 1359.52 1462.92 Q1360.54 1462.73 1361.56 1462.73 Q1367.34 1462.73 1370.72 1465.9 Q1374.1 1469.08 1374.1 1474.49 Q1374.1 1480.07 1370.63 1483.17 Q1367.16 1486.25 1360.84 1486.25 Q1358.66 1486.25 1356.39 1485.88 Q1354.15 1485.51 1351.74 1484.77 L1351.74 1480.07 Q1353.82 1481.2 1356.05 1481.76 Q1358.27 1482.32 1360.75 1482.32 Q1364.75 1482.32 1367.09 1480.21 Q1369.43 1478.1 1369.43 1474.49 Q1369.43 1470.88 1367.09 1468.77 Q1364.75 1466.67 1360.75 1466.67 Q1358.87 1466.67 1357 1467.08 Q1355.14 1467.5 1353.2 1468.38 L1353.2 1451.02 Z" fill="#000000" fill-rule="nonzero" fill-opacity="1" /><path clip-path="url(#clip280)" d="M1687.81 1481.64 L1695.45 1481.64 L1695.45 1455.28 L1687.14 1456.95 L1687.14 1452.69 L1695.41 1451.02 L1700.08 1451.02 L1700.08 1481.64 L1707.72 1481.64 L1707.72 1485.58 L1687.81 1485.58 L1687.81 1481.64 Z" fill="#000000" fill-rule="nonzero" fill-opacity="1" /><path clip-path="url(#clip280)" d="M1727.16 1454.1 Q1723.55 1454.1 1721.72 1457.66 Q1719.92 1461.2 1719.92 1468.33 Q1719.92 1475.44 1721.72 1479.01 Q1723.55 1482.55 1727.16 1482.55 Q1730.8 1482.55 1732.6 1479.01 Q1734.43 1475.44 1734.43 1468.33 Q1734.43 1461.2 1732.6 1457.66 Q1730.8 1454.1 1727.16 1454.1 M1727.16 1450.39 Q1732.97 1450.39 1736.03 1455 Q1739.11 1459.58 1739.11 1468.33 Q1739.11 1477.06 1736.03 1481.67 Q1732.97 1486.25 1727.16 1486.25 Q1721.35 1486.25 1718.28 1481.67 Q1715.22 1477.06 1715.22 1468.33 Q1715.22 1459.58 1718.28 1455 Q1721.35 1450.39 1727.16 1450.39 Z" fill="#000000" fill-rule="nonzero" fill-opacity="1" /><path clip-path="url(#clip280)" d="M2038.51 1481.64 L2046.15 1481.64 L2046.15 1455.28 L2037.84 1456.95 L2037.84 1452.69 L2046.11 1451.02 L2050.78 1451.02 L2050.78 1481.64 L2058.42 1481.64 L2058.42 1485.58 L2038.51 1485.58 L2038.51 1481.64 Z" fill="#000000" fill-rule="nonzero" fill-opacity="1" /><path clip-path="url(#clip280)" d="M2067.91 1451.02 L2086.27 1451.02 L2086.27 1454.96 L2072.19 1454.96 L2072.19 1463.43 Q2073.21 1463.08 2074.23 1462.92 Q2075.25 1462.73 2076.27 1462.73 Q2082.06 1462.73 2085.44 1465.9 Q2088.81 1469.08 2088.81 1474.49 Q2088.81 1480.07 2085.34 1483.17 Q2081.87 1486.25 2075.55 1486.25 Q2073.38 1486.25 2071.11 1485.88 Q2068.86 1485.51 2066.45 1484.77 L2066.45 1480.07 Q2068.54 1481.2 2070.76 1481.76 Q2072.98 1482.32 2075.46 1482.32 Q2079.46 1482.32 2081.8 1480.21 Q2084.14 1478.1 2084.14 1474.49 Q2084.14 1470.88 2081.8 1468.77 Q2079.46 1466.67 2075.46 1466.67 Q2073.58 1466.67 2071.71 1467.08 Q2069.86 1467.5 2067.91 1468.38 L2067.91 1451.02 Z" fill="#000000" fill-rule="nonzero" fill-opacity="1" /><path clip-path="url(#clip280)" d="M1015.68 1524.18 L1015.68 1530.96 Q1012.43 1527.94 1008.74 1526.44 Q1005.08 1524.95 1000.94 1524.95 Q992.794 1524.95 988.465 1529.95 Q984.137 1534.91 984.137 1544.33 Q984.137 1553.72 988.465 1558.72 Q992.794 1563.68 1000.94 1563.68 Q1005.08 1563.68 1008.74 1562.19 Q1012.43 1560.69 1015.68 1557.67 L1015.68 1564.38 Q1012.31 1566.68 1008.52 1567.82 Q1004.76 1568.97 1000.56 1568.97 Q989.77 1568.97 983.564 1562.38 Q977.357 1555.76 977.357 1544.33 Q977.357 1532.87 983.564 1526.28 Q989.77 1519.66 1000.56 1519.66 Q1004.83 1519.66 1008.58 1520.81 Q1012.37 1521.92 1015.68 1524.18 Z" fill="#000000" fill-rule="nonzero" fill-opacity="1" /><path clip-path="url(#clip280)" d="M1039.17 1536.5 Q1034.46 1536.5 1031.72 1540.19 Q1028.98 1543.85 1028.98 1550.25 Q1028.98 1556.65 1031.69 1560.34 Q1034.43 1564 1039.17 1564 Q1043.85 1564 1046.58 1560.31 Q1049.32 1556.62 1049.32 1550.25 Q1049.32 1543.92 1046.58 1540.23 Q1043.85 1536.5 1039.17 1536.5 M1039.17 1531.54 Q1046.81 1531.54 1051.17 1536.5 Q1055.53 1541.47 1055.53 1550.25 Q1055.53 1559 1051.17 1564 Q1046.81 1568.97 1039.17 1568.97 Q1031.5 1568.97 1027.14 1564 Q1022.81 1559 1022.81 1550.25 Q1022.81 1541.47 1027.14 1536.5 Q1031.5 1531.54 1039.17 1531.54 Z" fill="#000000" fill-rule="nonzero" fill-opacity="1" /><path clip-path="url(#clip280)" d="M1094.87 1546.53 L1094.87 1568.04 L1089.01 1568.04 L1089.01 1546.72 Q1089.01 1541.66 1087.04 1539.14 Q1085.07 1536.63 1081.12 1536.63 Q1076.38 1536.63 1073.64 1539.65 Q1070.9 1542.68 1070.9 1547.9 L1070.9 1568.04 L1065.01 1568.04 L1065.01 1532.4 L1070.9 1532.4 L1070.9 1537.93 Q1073 1534.72 1075.83 1533.13 Q1078.7 1531.54 1082.42 1531.54 Q1088.57 1531.54 1091.72 1535.36 Q1094.87 1539.14 1094.87 1546.53 Z" fill="#000000" fill-rule="nonzero" fill-opacity="1" /><path clip-path="url(#clip280)" d="M1132.2 1533.76 L1132.2 1539.24 Q1129.72 1537.87 1127.21 1537.2 Q1124.72 1536.5 1122.18 1536.5 Q1116.48 1536.5 1113.33 1540.13 Q1110.18 1543.73 1110.18 1550.25 Q1110.18 1556.78 1113.33 1560.4 Q1116.48 1564 1122.18 1564 Q1124.72 1564 1127.21 1563.33 Q1129.72 1562.63 1132.2 1561.26 L1132.2 1566.68 Q1129.75 1567.82 1127.11 1568.39 Q1124.5 1568.97 1121.54 1568.97 Q1113.49 1568.97 1108.75 1563.91 Q1104 1558.85 1104 1550.25 Q1104 1541.53 1108.78 1536.53 Q1113.58 1531.54 1121.92 1531.54 Q1124.63 1531.54 1127.21 1532.11 Q1129.78 1532.65 1132.2 1533.76 Z" fill="#000000" fill-rule="nonzero" fill-opacity="1" /><path clip-path="url(#clip280)" d="M1172.88 1548.76 L1172.88 1551.62 L1145.95 1551.62 Q1146.33 1557.67 1149.58 1560.85 Q1152.86 1564 1158.68 1564 Q1162.06 1564 1165.21 1563.17 Q1168.39 1562.35 1171.51 1560.69 L1171.51 1566.23 Q1168.36 1567.57 1165.05 1568.27 Q1161.74 1568.97 1158.33 1568.97 Q1149.8 1568.97 1144.81 1564 Q1139.84 1559.04 1139.84 1550.57 Q1139.84 1541.82 1144.55 1536.69 Q1149.3 1531.54 1157.32 1531.54 Q1164.51 1531.54 1168.68 1536.18 Q1172.88 1540.8 1172.88 1548.76 M1167.02 1547.04 Q1166.96 1542.23 1164.32 1539.37 Q1161.71 1536.5 1157.38 1536.5 Q1152.48 1536.5 1149.52 1539.27 Q1146.59 1542.04 1146.14 1547.07 L1167.02 1547.04 Z" fill="#000000" fill-rule="nonzero" fill-opacity="1" /><path clip-path="url(#clip280)" d="M1212.12 1546.53 L1212.12 1568.04 L1206.27 1568.04 L1206.27 1546.72 Q1206.27 1541.66 1204.29 1539.14 Q1202.32 1536.63 1198.37 1536.63 Q1193.63 1536.63 1190.89 1539.65 Q1188.16 1542.68 1188.16 1547.9 L1188.16 1568.04 L1182.27 1568.04 L1182.27 1532.4 L1188.16 1532.4 L1188.16 1537.93 Q1190.26 1534.72 1193.09 1533.13 Q1195.96 1531.54 1199.68 1531.54 Q1205.82 1531.54 1208.97 1535.36 Q1212.12 1539.14 1212.12 1546.53 Z" fill="#000000" fill-rule="nonzero" fill-opacity="1" /><path clip-path="url(#clip280)" d="M1229.6 1522.27 L1229.6 1532.4 L1241.66 1532.4 L1241.66 1536.95 L1229.6 1536.95 L1229.6 1556.3 Q1229.6 1560.66 1230.78 1561.9 Q1231.99 1563.14 1235.65 1563.14 L1241.66 1563.14 L1241.66 1568.04 L1235.65 1568.04 Q1228.87 1568.04 1226.29 1565.53 Q1223.71 1562.98 1223.71 1556.3 L1223.71 1536.95 L1219.41 1536.95 L1219.41 1532.4 L1223.71 1532.4 L1223.71 1522.27 L1229.6 1522.27 Z" fill="#000000" fill-rule="nonzero" fill-opacity="1" /><path clip-path="url(#clip280)" d="M1270.02 1537.87 Q1269.03 1537.3 1267.86 1537.04 Q1266.71 1536.76 1265.31 1536.76 Q1260.34 1536.76 1257.67 1540 Q1255.03 1543.22 1255.03 1549.27 L1255.03 1568.04 L1249.14 1568.04 L1249.14 1532.4 L1255.03 1532.4 L1255.03 1537.93 Q1256.88 1534.69 1259.84 1533.13 Q1262.8 1531.54 1267.03 1531.54 Q1267.63 1531.54 1268.37 1531.63 Q1269.1 1531.7 1269.99 1531.85 L1270.02 1537.87 Z" fill="#000000" fill-rule="nonzero" fill-opacity="1" /><path clip-path="url(#clip280)" d="M1292.36 1550.12 Q1285.27 1550.12 1282.53 1551.75 Q1279.79 1553.37 1279.79 1557.29 Q1279.79 1560.4 1281.83 1562.25 Q1283.9 1564.07 1287.43 1564.07 Q1292.3 1564.07 1295.23 1560.63 Q1298.19 1557.16 1298.19 1551.43 L1298.19 1550.12 L1292.36 1550.12 M1304.05 1547.71 L1304.05 1568.04 L1298.19 1568.04 L1298.19 1562.63 Q1296.18 1565.88 1293.19 1567.44 Q1290.2 1568.97 1285.87 1568.97 Q1280.4 1568.97 1277.15 1565.91 Q1273.94 1562.82 1273.94 1557.67 Q1273.94 1551.65 1277.95 1548.6 Q1281.99 1545.54 1289.98 1545.54 L1298.19 1545.54 L1298.19 1544.97 Q1298.19 1540.93 1295.52 1538.73 Q1292.87 1536.5 1288.07 1536.5 Q1285.01 1536.5 1282.12 1537.23 Q1279.22 1537.97 1276.55 1539.43 L1276.55 1534.02 Q1279.76 1532.78 1282.78 1532.17 Q1285.81 1531.54 1288.67 1531.54 Q1296.41 1531.54 1300.23 1535.55 Q1304.05 1539.56 1304.05 1547.71 Z" fill="#000000" fill-rule="nonzero" fill-opacity="1" /><path clip-path="url(#clip280)" d="M1321.9 1522.27 L1321.9 1532.4 L1333.96 1532.4 L1333.96 1536.95 L1321.9 1536.95 L1321.9 1556.3 Q1321.9 1560.66 1323.08 1561.9 Q1324.29 1563.14 1327.95 1563.14 L1333.96 1563.14 L1333.96 1568.04 L1327.95 1568.04 Q1321.17 1568.04 1318.59 1565.53 Q1316.01 1562.98 1316.01 1556.3 L1316.01 1536.95 L1311.72 1536.95 L1311.72 1532.4 L1316.01 1532.4 L1316.01 1522.27 L1321.9 1522.27 Z" fill="#000000" fill-rule="nonzero" fill-opacity="1" /><path clip-path="url(#clip280)" d="M1341.67 1532.4 L1347.52 1532.4 L1347.52 1568.04 L1341.67 1568.04 L1341.67 1532.4 M1341.67 1518.52 L1347.52 1518.52 L1347.52 1525.93 L1341.67 1525.93 L1341.67 1518.52 Z" fill="#000000" fill-rule="nonzero" fill-opacity="1" /><path clip-path="url(#clip280)" d="M1373.59 1536.5 Q1368.88 1536.5 1366.14 1540.19 Q1363.41 1543.85 1363.41 1550.25 Q1363.41 1556.65 1366.11 1560.34 Q1368.85 1564 1373.59 1564 Q1378.27 1564 1381.01 1560.31 Q1383.74 1556.62 1383.74 1550.25 Q1383.74 1543.92 1381.01 1540.23 Q1378.27 1536.5 1373.59 1536.5 M1373.59 1531.54 Q1381.23 1531.54 1385.59 1536.5 Q1389.95 1541.47 1389.95 1550.25 Q1389.95 1559 1385.59 1564 Q1381.23 1568.97 1373.59 1568.97 Q1365.92 1568.97 1361.56 1564 Q1357.23 1559 1357.23 1550.25 Q1357.23 1541.47 1361.56 1536.5 Q1365.92 1531.54 1373.59 1531.54 Z" fill="#000000" fill-rule="nonzero" fill-opacity="1" /><path clip-path="url(#clip280)" d="M1429.29 1546.53 L1429.29 1568.04 L1423.43 1568.04 L1423.43 1546.72 Q1423.43 1541.66 1421.46 1539.14 Q1419.49 1536.63 1415.54 1536.63 Q1410.8 1536.63 1408.06 1539.65 Q1405.32 1542.68 1405.32 1547.9 L1405.32 1568.04 L1399.44 1568.04 L1399.44 1532.4 L1405.32 1532.4 L1405.32 1537.93 Q1407.42 1534.72 1410.26 1533.13 Q1413.12 1531.54 1416.85 1531.54 Q1422.99 1531.54 1426.14 1535.36 Q1429.29 1539.14 1429.29 1546.53 Z" fill="#000000" fill-rule="nonzero" fill-opacity="1" /><path clip-path="url(#clip280)" d="M1475.76 1518.58 Q1471.5 1525.9 1469.43 1533.06 Q1467.36 1540.23 1467.36 1547.58 Q1467.36 1554.93 1469.43 1562.16 Q1471.53 1569.35 1475.76 1576.64 L1470.67 1576.64 Q1465.89 1569.16 1463.51 1561.93 Q1461.15 1554.71 1461.15 1547.58 Q1461.15 1540.48 1463.51 1533.29 Q1465.86 1526.09 1470.67 1518.58 L1475.76 1518.58 Z" fill="#000000" fill-rule="nonzero" fill-opacity="1" /><path clip-path="url(#clip280)" d="M1492.79 1562.7 L1492.79 1581.6 L1486.9 1581.6 L1486.9 1532.4 L1492.79 1532.4 L1492.79 1537.81 Q1494.63 1534.62 1497.44 1533.1 Q1500.27 1531.54 1504.18 1531.54 Q1510.68 1531.54 1514.72 1536.69 Q1518.79 1541.85 1518.79 1550.25 Q1518.79 1558.65 1514.72 1563.81 Q1510.68 1568.97 1504.18 1568.97 Q1500.27 1568.97 1497.44 1567.44 Q1494.63 1565.88 1492.79 1562.7 M1512.71 1550.25 Q1512.71 1543.79 1510.04 1540.13 Q1507.4 1536.44 1502.75 1536.44 Q1498.1 1536.44 1495.43 1540.13 Q1492.79 1543.79 1492.79 1550.25 Q1492.79 1556.71 1495.43 1560.4 Q1498.1 1564.07 1502.75 1564.07 Q1507.4 1564.07 1510.04 1560.4 Q1512.71 1556.71 1512.71 1550.25 Z" fill="#000000" fill-rule="nonzero" fill-opacity="1" /><path clip-path="url(#clip280)" d="M1534.17 1562.7 L1534.17 1581.6 L1528.28 1581.6 L1528.28 1532.4 L1534.17 1532.4 L1534.17 1537.81 Q1536.01 1534.62 1538.81 1533.1 Q1541.65 1531.54 1545.56 1531.54 Q1552.05 1531.54 1556.1 1536.69 Q1560.17 1541.85 1560.17 1550.25 Q1560.17 1558.65 1556.1 1563.81 Q1552.05 1568.97 1545.56 1568.97 Q1541.65 1568.97 1538.81 1567.44 Q1536.01 1565.88 1534.17 1562.7 M1554.09 1550.25 Q1554.09 1543.79 1551.42 1540.13 Q1548.77 1536.44 1544.13 1536.44 Q1539.48 1536.44 1536.81 1540.13 Q1534.17 1543.79 1534.17 1550.25 Q1534.17 1556.71 1536.81 1560.4 Q1539.48 1564.07 1544.13 1564.07 Q1548.77 1564.07 1551.42 1560.4 Q1554.09 1556.71 1554.09 1550.25 Z" fill="#000000" fill-rule="nonzero" fill-opacity="1" /><path clip-path="url(#clip280)" d="M1595.47 1550.25 Q1595.47 1543.79 1592.79 1540.13 Q1590.15 1536.44 1585.51 1536.44 Q1580.86 1536.44 1578.18 1540.13 Q1575.54 1543.79 1575.54 1550.25 Q1575.54 1556.71 1578.18 1560.4 Q1580.86 1564.07 1585.51 1564.07 Q1590.15 1564.07 1592.79 1560.4 Q1595.47 1556.71 1595.47 1550.25 M1575.54 1537.81 Q1577.39 1534.62 1580.19 1533.1 Q1583.02 1531.54 1586.94 1531.54 Q1593.43 1531.54 1597.47 1536.69 Q1601.55 1541.85 1601.55 1550.25 Q1601.55 1558.65 1597.47 1563.81 Q1593.43 1568.97 1586.94 1568.97 Q1583.02 1568.97 1580.19 1567.44 Q1577.39 1565.88 1575.54 1562.7 L1575.54 1568.04 L1569.65 1568.04 L1569.65 1518.52 L1575.54 1518.52 L1575.54 1537.81 Z" fill="#000000" fill-rule="nonzero" fill-opacity="1" /><path clip-path="url(#clip280)" d="M1610.33 1518.58 L1615.42 1518.58 Q1620.2 1526.09 1622.55 1533.29 Q1624.94 1540.48 1624.94 1547.58 Q1624.94 1554.71 1622.55 1561.93 Q1620.2 1569.16 1615.42 1576.64 L1610.33 1576.64 Q1614.56 1569.35 1616.63 1562.16 Q1618.73 1554.93 1618.73 1547.58 Q1618.73 1540.23 1616.63 1533.06 Q1614.56 1525.9 1610.33 1518.58 Z" fill="#000000" fill-rule="nonzero" fill-opacity="1" /><polyline clip-path="url(#clip282)" style="stroke:#000000; stroke-linecap:round; stroke-linejoin:round; stroke-width:2; stroke-opacity:0.1; fill:none" points="249.542,1423.18 2352.76,1423.18 "/>
<polyline clip-path="url(#clip282)" style="stroke:#000000; stroke-linecap:round; stroke-linejoin:round; stroke-width:2; stroke-opacity:0.1; fill:none" points="249.542,1226.62 2352.76,1226.62 "/>
<polyline clip-path="url(#clip282)" style="stroke:#000000; stroke-linecap:round; stroke-linejoin:round; stroke-width:2; stroke-opacity:0.1; fill:none" points="249.542,1030.06 2352.76,1030.06 "/>
<polyline clip-path="url(#clip282)" style="stroke:#000000; stroke-linecap:round; stroke-linejoin:round; stroke-width:2; stroke-opacity:0.1; fill:none" points="249.542,833.493 2352.76,833.493 "/>
<polyline clip-path="url(#clip282)" style="stroke:#000000; stroke-linecap:round; stroke-linejoin:round; stroke-width:2; stroke-opacity:0.1; fill:none" points="249.542,636.931 2352.76,636.931 "/>
<polyline clip-path="url(#clip282)" style="stroke:#000000; stroke-linecap:round; stroke-linejoin:round; stroke-width:2; stroke-opacity:0.1; fill:none" points="249.542,440.369 2352.76,440.369 "/>
<polyline clip-path="url(#clip282)" style="stroke:#000000; stroke-linecap:round; stroke-linejoin:round; stroke-width:2; stroke-opacity:0.1; fill:none" points="249.542,243.806 2352.76,243.806 "/>
<polyline clip-path="url(#clip282)" style="stroke:#000000; stroke-linecap:round; stroke-linejoin:round; stroke-width:2; stroke-opacity:0.1; fill:none" points="249.542,47.2441 2352.76,47.2441 "/>
<polyline clip-path="url(#clip280)" style="stroke:#000000; stroke-linecap:round; stroke-linejoin:round; stroke-width:4; stroke-opacity:1; fill:none" points="249.542,1423.18 249.542,47.2441 "/>
<polyline clip-path="url(#clip280)" style="stroke:#000000; stroke-linecap:round; stroke-linejoin:round; stroke-width:4; stroke-opacity:1; fill:none" points="249.542,1423.18 268.44,1423.18 "/>
<polyline clip-path="url(#clip280)" style="stroke:#000000; stroke-linecap:round; stroke-linejoin:round; stroke-width:4; stroke-opacity:1; fill:none" points="249.542,1226.62 268.44,1226.62 "/>
<polyline clip-path="url(#clip280)" style="stroke:#000000; stroke-linecap:round; stroke-linejoin:round; stroke-width:4; stroke-opacity:1; fill:none" points="249.542,1030.06 268.44,1030.06 "/>
<polyline clip-path="url(#clip280)" style="stroke:#000000; stroke-linecap:round; stroke-linejoin:round; stroke-width:4; stroke-opacity:1; fill:none" points="249.542,833.493 268.44,833.493 "/>
<polyline clip-path="url(#clip280)" style="stroke:#000000; stroke-linecap:round; stroke-linejoin:round; stroke-width:4; stroke-opacity:1; fill:none" points="249.542,636.931 268.44,636.931 "/>
<polyline clip-path="url(#clip280)" style="stroke:#000000; stroke-linecap:round; stroke-linejoin:round; stroke-width:4; stroke-opacity:1; fill:none" points="249.542,440.369 268.44,440.369 "/>
<polyline clip-path="url(#clip280)" style="stroke:#000000; stroke-linecap:round; stroke-linejoin:round; stroke-width:4; stroke-opacity:1; fill:none" points="249.542,243.806 268.44,243.806 "/>
<polyline clip-path="url(#clip280)" style="stroke:#000000; stroke-linecap:round; stroke-linejoin:round; stroke-width:4; stroke-opacity:1; fill:none" points="249.542,47.2441 268.44,47.2441 "/>
<path clip-path="url(#clip280)" d="M126.205 1408.98 Q122.593 1408.98 120.765 1412.54 Q118.959 1416.08 118.959 1423.21 Q118.959 1430.32 120.765 1433.89 Q122.593 1437.43 126.205 1437.43 Q129.839 1437.43 131.644 1433.89 Q133.473 1430.32 133.473 1423.21 Q133.473 1416.08 131.644 1412.54 Q129.839 1408.98 126.205 1408.98 M126.205 1405.27 Q132.015 1405.27 135.07 1409.88 Q138.149 1414.46 138.149 1423.21 Q138.149 1431.94 135.07 1436.55 Q132.015 1441.13 126.205 1441.13 Q120.394 1441.13 117.316 1436.55 Q114.26 1431.94 114.26 1423.21 Q114.26 1414.46 117.316 1409.88 Q120.394 1405.27 126.205 1405.27 Z" fill="#000000" fill-rule="nonzero" fill-opacity="1" /><path clip-path="url(#clip280)" d="M146.366 1434.58 L151.251 1434.58 L151.251 1440.46 L146.366 1440.46 L146.366 1434.58 Z" fill="#000000" fill-rule="nonzero" fill-opacity="1" /><path clip-path="url(#clip280)" d="M171.436 1408.98 Q167.825 1408.98 165.996 1412.54 Q164.19 1416.08 164.19 1423.21 Q164.19 1430.32 165.996 1433.89 Q167.825 1437.43 171.436 1437.43 Q175.07 1437.43 176.876 1433.89 Q178.704 1430.32 178.704 1423.21 Q178.704 1416.08 176.876 1412.54 Q175.07 1408.98 171.436 1408.98 M171.436 1405.27 Q177.246 1405.27 180.301 1409.88 Q183.38 1414.46 183.38 1423.21 Q183.38 1431.94 180.301 1436.55 Q177.246 1441.13 171.436 1441.13 Q165.626 1441.13 162.547 1436.55 Q159.491 1431.94 159.491 1423.21 Q159.491 1414.46 162.547 1409.88 Q165.626 1405.27 171.436 1405.27 Z" fill="#000000" fill-rule="nonzero" fill-opacity="1" /><path clip-path="url(#clip280)" d="M201.598 1408.98 Q197.987 1408.98 196.158 1412.54 Q194.352 1416.08 194.352 1423.21 Q194.352 1430.32 196.158 1433.89 Q197.987 1437.43 201.598 1437.43 Q205.232 1437.43 207.037 1433.89 Q208.866 1430.32 208.866 1423.21 Q208.866 1416.08 207.037 1412.54 Q205.232 1408.98 201.598 1408.98 M201.598 1405.27 Q207.408 1405.27 210.463 1409.88 Q213.542 1414.46 213.542 1423.21 Q213.542 1431.94 210.463 1436.55 Q207.408 1441.13 201.598 1441.13 Q195.787 1441.13 192.709 1436.55 Q189.653 1431.94 189.653 1423.21 Q189.653 1414.46 192.709 1409.88 Q195.787 1405.27 201.598 1405.27 Z" fill="#000000" fill-rule="nonzero" fill-opacity="1" /><path clip-path="url(#clip280)" d="M127.2 1212.42 Q123.589 1212.42 121.76 1215.98 Q119.955 1219.52 119.955 1226.65 Q119.955 1233.76 121.76 1237.32 Q123.589 1240.87 127.2 1240.87 Q130.834 1240.87 132.64 1237.32 Q134.468 1233.76 134.468 1226.65 Q134.468 1219.52 132.64 1215.98 Q130.834 1212.42 127.2 1212.42 M127.2 1208.71 Q133.01 1208.71 136.066 1213.32 Q139.144 1217.9 139.144 1226.65 Q139.144 1235.38 136.066 1239.99 Q133.01 1244.57 127.2 1244.57 Q121.39 1244.57 118.311 1239.99 Q115.256 1235.38 115.256 1226.65 Q115.256 1217.9 118.311 1213.32 Q121.39 1208.71 127.2 1208.71 Z" fill="#000000" fill-rule="nonzero" fill-opacity="1" /><path clip-path="url(#clip280)" d="M147.362 1238.02 L152.246 1238.02 L152.246 1243.9 L147.362 1243.9 L147.362 1238.02 Z" fill="#000000" fill-rule="nonzero" fill-opacity="1" /><path clip-path="url(#clip280)" d="M172.431 1212.42 Q168.82 1212.42 166.991 1215.98 Q165.186 1219.52 165.186 1226.65 Q165.186 1233.76 166.991 1237.32 Q168.82 1240.87 172.431 1240.87 Q176.065 1240.87 177.871 1237.32 Q179.7 1233.76 179.7 1226.65 Q179.7 1219.52 177.871 1215.98 Q176.065 1212.42 172.431 1212.42 M172.431 1208.71 Q178.241 1208.71 181.297 1213.32 Q184.376 1217.9 184.376 1226.65 Q184.376 1235.38 181.297 1239.99 Q178.241 1244.57 172.431 1244.57 Q166.621 1244.57 163.542 1239.99 Q160.487 1235.38 160.487 1226.65 Q160.487 1217.9 163.542 1213.32 Q166.621 1208.71 172.431 1208.71 Z" fill="#000000" fill-rule="nonzero" fill-opacity="1" /><path clip-path="url(#clip280)" d="M192.639 1209.34 L210.996 1209.34 L210.996 1213.27 L196.922 1213.27 L196.922 1221.74 Q197.94 1221.4 198.959 1221.24 Q199.977 1221.05 200.996 1221.05 Q206.783 1221.05 210.162 1224.22 Q213.542 1227.39 213.542 1232.81 Q213.542 1238.39 210.07 1241.49 Q206.598 1244.57 200.278 1244.57 Q198.102 1244.57 195.834 1244.2 Q193.588 1243.83 191.181 1243.09 L191.181 1238.39 Q193.264 1239.52 195.487 1240.08 Q197.709 1240.63 200.186 1240.63 Q204.19 1240.63 206.528 1238.53 Q208.866 1236.42 208.866 1232.81 Q208.866 1229.2 206.528 1227.09 Q204.19 1224.99 200.186 1224.99 Q198.311 1224.99 196.436 1225.4 Q194.584 1225.82 192.639 1226.7 L192.639 1209.34 Z" fill="#000000" fill-rule="nonzero" fill-opacity="1" /><path clip-path="url(#clip280)" d="M126.205 1015.85 Q122.593 1015.85 120.765 1019.42 Q118.959 1022.96 118.959 1030.09 Q118.959 1037.2 120.765 1040.76 Q122.593 1044.3 126.205 1044.3 Q129.839 1044.3 131.644 1040.76 Q133.473 1037.2 133.473 1030.09 Q133.473 1022.96 131.644 1019.42 Q129.839 1015.85 126.205 1015.85 M126.205 1012.15 Q132.015 1012.15 135.07 1016.76 Q138.149 1021.34 138.149 1030.09 Q138.149 1038.82 135.07 1043.42 Q132.015 1048.01 126.205 1048.01 Q120.394 1048.01 117.316 1043.42 Q114.26 1038.82 114.26 1030.09 Q114.26 1021.34 117.316 1016.76 Q120.394 1012.15 126.205 1012.15 Z" fill="#000000" fill-rule="nonzero" fill-opacity="1" /><path clip-path="url(#clip280)" d="M146.366 1041.46 L151.251 1041.46 L151.251 1047.34 L146.366 1047.34 L146.366 1041.46 Z" fill="#000000" fill-rule="nonzero" fill-opacity="1" /><path clip-path="url(#clip280)" d="M162.246 1043.4 L169.885 1043.4 L169.885 1017.03 L161.575 1018.7 L161.575 1014.44 L169.839 1012.78 L174.514 1012.78 L174.514 1043.4 L182.153 1043.4 L182.153 1047.34 L162.246 1047.34 L162.246 1043.4 Z" fill="#000000" fill-rule="nonzero" fill-opacity="1" /><path clip-path="url(#clip280)" d="M201.598 1015.85 Q197.987 1015.85 196.158 1019.42 Q194.352 1022.96 194.352 1030.09 Q194.352 1037.2 196.158 1040.76 Q197.987 1044.3 201.598 1044.3 Q205.232 1044.3 207.037 1040.76 Q208.866 1037.2 208.866 1030.09 Q208.866 1022.96 207.037 1019.42 Q205.232 1015.85 201.598 1015.85 M201.598 1012.15 Q207.408 1012.15 210.463 1016.76 Q213.542 1021.34 213.542 1030.09 Q213.542 1038.82 210.463 1043.42 Q207.408 1048.01 201.598 1048.01 Q195.787 1048.01 192.709 1043.42 Q189.653 1038.82 189.653 1030.09 Q189.653 1021.34 192.709 1016.76 Q195.787 1012.15 201.598 1012.15 Z" fill="#000000" fill-rule="nonzero" fill-opacity="1" /><path clip-path="url(#clip280)" d="M127.2 819.292 Q123.589 819.292 121.76 822.857 Q119.955 826.398 119.955 833.528 Q119.955 840.634 121.76 844.199 Q123.589 847.741 127.2 847.741 Q130.834 847.741 132.64 844.199 Q134.468 840.634 134.468 833.528 Q134.468 826.398 132.64 822.857 Q130.834 819.292 127.2 819.292 M127.2 815.588 Q133.01 815.588 136.066 820.195 Q139.144 824.778 139.144 833.528 Q139.144 842.255 136.066 846.861 Q133.01 851.444 127.2 851.444 Q121.39 851.444 118.311 846.861 Q115.256 842.255 115.256 833.528 Q115.256 824.778 118.311 820.195 Q121.39 815.588 127.2 815.588 Z" fill="#000000" fill-rule="nonzero" fill-opacity="1" /><path clip-path="url(#clip280)" d="M147.362 844.893 L152.246 844.893 L152.246 850.773 L147.362 850.773 L147.362 844.893 Z" fill="#000000" fill-rule="nonzero" fill-opacity="1" /><path clip-path="url(#clip280)" d="M163.241 846.838 L170.88 846.838 L170.88 820.472 L162.57 822.139 L162.57 817.88 L170.834 816.213 L175.51 816.213 L175.51 846.838 L183.149 846.838 L183.149 850.773 L163.241 850.773 L163.241 846.838 Z" fill="#000000" fill-rule="nonzero" fill-opacity="1" /><path clip-path="url(#clip280)" d="M192.639 816.213 L210.996 816.213 L210.996 820.148 L196.922 820.148 L196.922 828.62 Q197.94 828.273 198.959 828.111 Q199.977 827.926 200.996 827.926 Q206.783 827.926 210.162 831.097 Q213.542 834.269 213.542 839.685 Q213.542 845.264 210.07 848.366 Q206.598 851.444 200.278 851.444 Q198.102 851.444 195.834 851.074 Q193.588 850.704 191.181 849.963 L191.181 845.264 Q193.264 846.398 195.487 846.954 Q197.709 847.509 200.186 847.509 Q204.19 847.509 206.528 845.403 Q208.866 843.296 208.866 839.685 Q208.866 836.074 206.528 833.968 Q204.19 831.861 200.186 831.861 Q198.311 831.861 196.436 832.278 Q194.584 832.694 192.639 833.574 L192.639 816.213 Z" fill="#000000" fill-rule="nonzero" fill-opacity="1" /><path clip-path="url(#clip280)" d="M126.205 622.73 Q122.593 622.73 120.765 626.294 Q118.959 629.836 118.959 636.966 Q118.959 644.072 120.765 647.637 Q122.593 651.178 126.205 651.178 Q129.839 651.178 131.644 647.637 Q133.473 644.072 133.473 636.966 Q133.473 629.836 131.644 626.294 Q129.839 622.73 126.205 622.73 M126.205 619.026 Q132.015 619.026 135.07 623.632 Q138.149 628.216 138.149 636.966 Q138.149 645.692 135.07 650.299 Q132.015 654.882 126.205 654.882 Q120.394 654.882 117.316 650.299 Q114.26 645.692 114.26 636.966 Q114.26 628.216 117.316 623.632 Q120.394 619.026 126.205 619.026 Z" fill="#000000" fill-rule="nonzero" fill-opacity="1" /><path clip-path="url(#clip280)" d="M146.366 648.331 L151.251 648.331 L151.251 654.211 L146.366 654.211 L146.366 648.331 Z" fill="#000000" fill-rule="nonzero" fill-opacity="1" /><path clip-path="url(#clip280)" d="M165.464 650.276 L181.783 650.276 L181.783 654.211 L159.839 654.211 L159.839 650.276 Q162.501 647.521 167.084 642.891 Q171.69 638.239 172.871 636.896 Q175.116 634.373 175.996 632.637 Q176.899 630.878 176.899 629.188 Q176.899 626.433 174.954 624.697 Q173.033 622.961 169.931 622.961 Q167.732 622.961 165.278 623.725 Q162.848 624.489 160.07 626.04 L160.07 621.318 Q162.894 620.183 165.348 619.605 Q167.802 619.026 169.839 619.026 Q175.209 619.026 178.403 621.711 Q181.598 624.396 181.598 628.887 Q181.598 631.017 180.788 632.938 Q180.001 634.836 177.894 637.429 Q177.315 638.1 174.214 641.317 Q171.112 644.512 165.464 650.276 Z" fill="#000000" fill-rule="nonzero" fill-opacity="1" /><path clip-path="url(#clip280)" d="M201.598 622.73 Q197.987 622.73 196.158 626.294 Q194.352 629.836 194.352 636.966 Q194.352 644.072 196.158 647.637 Q197.987 651.178 201.598 651.178 Q205.232 651.178 207.037 647.637 Q208.866 644.072 208.866 636.966 Q208.866 629.836 207.037 626.294 Q205.232 622.73 201.598 622.73 M201.598 619.026 Q207.408 619.026 210.463 623.632 Q213.542 628.216 213.542 636.966 Q213.542 645.692 210.463 650.299 Q207.408 654.882 201.598 654.882 Q195.787 654.882 192.709 650.299 Q189.653 645.692 189.653 636.966 Q189.653 628.216 192.709 623.632 Q195.787 619.026 201.598 619.026 Z" fill="#000000" fill-rule="nonzero" fill-opacity="1" /><path clip-path="url(#clip280)" d="M127.2 426.167 Q123.589 426.167 121.76 429.732 Q119.955 433.274 119.955 440.403 Q119.955 447.51 121.76 451.075 Q123.589 454.616 127.2 454.616 Q130.834 454.616 132.64 451.075 Q134.468 447.51 134.468 440.403 Q134.468 433.274 132.64 429.732 Q130.834 426.167 127.2 426.167 M127.2 422.464 Q133.01 422.464 136.066 427.07 Q139.144 431.653 139.144 440.403 Q139.144 449.13 136.066 453.737 Q133.01 458.32 127.2 458.32 Q121.39 458.32 118.311 453.737 Q115.256 449.13 115.256 440.403 Q115.256 431.653 118.311 427.07 Q121.39 422.464 127.2 422.464 Z" fill="#000000" fill-rule="nonzero" fill-opacity="1" /><path clip-path="url(#clip280)" d="M147.362 451.769 L152.246 451.769 L152.246 457.649 L147.362 457.649 L147.362 451.769 Z" fill="#000000" fill-rule="nonzero" fill-opacity="1" /><path clip-path="url(#clip280)" d="M166.459 453.713 L182.778 453.713 L182.778 457.649 L160.834 457.649 L160.834 453.713 Q163.496 450.959 168.079 446.329 Q172.686 441.676 173.866 440.334 Q176.112 437.811 176.991 436.075 Q177.894 434.315 177.894 432.626 Q177.894 429.871 175.95 428.135 Q174.028 426.399 170.927 426.399 Q168.727 426.399 166.274 427.163 Q163.843 427.927 161.065 429.477 L161.065 424.755 Q163.89 423.621 166.343 423.042 Q168.797 422.464 170.834 422.464 Q176.204 422.464 179.399 425.149 Q182.593 427.834 182.593 432.325 Q182.593 434.454 181.783 436.376 Q180.996 438.274 178.889 440.866 Q178.311 441.538 175.209 444.755 Q172.107 447.95 166.459 453.713 Z" fill="#000000" fill-rule="nonzero" fill-opacity="1" /><path clip-path="url(#clip280)" d="M192.639 423.089 L210.996 423.089 L210.996 427.024 L196.922 427.024 L196.922 435.496 Q197.94 435.149 198.959 434.987 Q199.977 434.801 200.996 434.801 Q206.783 434.801 210.162 437.973 Q213.542 441.144 213.542 446.561 Q213.542 452.139 210.07 455.241 Q206.598 458.32 200.278 458.32 Q198.102 458.32 195.834 457.95 Q193.588 457.579 191.181 456.838 L191.181 452.139 Q193.264 453.274 195.487 453.829 Q197.709 454.385 200.186 454.385 Q204.19 454.385 206.528 452.278 Q208.866 450.172 208.866 446.561 Q208.866 442.95 206.528 440.843 Q204.19 438.737 200.186 438.737 Q198.311 438.737 196.436 439.153 Q194.584 439.57 192.639 440.45 L192.639 423.089 Z" fill="#000000" fill-rule="nonzero" fill-opacity="1" /><path clip-path="url(#clip280)" d="M126.205 229.605 Q122.593 229.605 120.765 233.17 Q118.959 236.711 118.959 243.841 Q118.959 250.948 120.765 254.512 Q122.593 258.054 126.205 258.054 Q129.839 258.054 131.644 254.512 Q133.473 250.948 133.473 243.841 Q133.473 236.711 131.644 233.17 Q129.839 229.605 126.205 229.605 M126.205 225.901 Q132.015 225.901 135.07 230.508 Q138.149 235.091 138.149 243.841 Q138.149 252.568 135.07 257.174 Q132.015 261.758 126.205 261.758 Q120.394 261.758 117.316 257.174 Q114.26 252.568 114.26 243.841 Q114.26 235.091 117.316 230.508 Q120.394 225.901 126.205 225.901 Z" fill="#000000" fill-rule="nonzero" fill-opacity="1" /><path clip-path="url(#clip280)" d="M146.366 255.207 L151.251 255.207 L151.251 261.086 L146.366 261.086 L146.366 255.207 Z" fill="#000000" fill-rule="nonzero" fill-opacity="1" /><path clip-path="url(#clip280)" d="M175.602 242.452 Q178.959 243.17 180.834 245.438 Q182.732 247.707 182.732 251.04 Q182.732 256.156 179.214 258.957 Q175.695 261.758 169.214 261.758 Q167.038 261.758 164.723 261.318 Q162.431 260.901 159.978 260.045 L159.978 255.531 Q161.922 256.665 164.237 257.244 Q166.552 257.822 169.075 257.822 Q173.473 257.822 175.764 256.086 Q178.079 254.35 178.079 251.04 Q178.079 247.985 175.926 246.272 Q173.797 244.536 169.977 244.536 L165.95 244.536 L165.95 240.693 L170.163 240.693 Q173.612 240.693 175.44 239.327 Q177.269 237.938 177.269 235.346 Q177.269 232.684 175.371 231.272 Q173.496 229.837 169.977 229.837 Q168.056 229.837 165.857 230.253 Q163.658 230.67 161.019 231.549 L161.019 227.383 Q163.681 226.642 165.996 226.272 Q168.334 225.901 170.394 225.901 Q175.718 225.901 178.82 228.332 Q181.922 230.739 181.922 234.86 Q181.922 237.73 180.278 239.721 Q178.635 241.688 175.602 242.452 Z" fill="#000000" fill-rule="nonzero" fill-opacity="1" /><path clip-path="url(#clip280)" d="M201.598 229.605 Q197.987 229.605 196.158 233.17 Q194.352 236.711 194.352 243.841 Q194.352 250.948 196.158 254.512 Q197.987 258.054 201.598 258.054 Q205.232 258.054 207.037 254.512 Q208.866 250.948 208.866 243.841 Q208.866 236.711 207.037 233.17 Q205.232 229.605 201.598 229.605 M201.598 225.901 Q207.408 225.901 210.463 230.508 Q213.542 235.091 213.542 243.841 Q213.542 252.568 210.463 257.174 Q207.408 261.758 201.598 261.758 Q195.787 261.758 192.709 257.174 Q189.653 252.568 189.653 243.841 Q189.653 235.091 192.709 230.508 Q195.787 225.901 201.598 225.901 Z" fill="#000000" fill-rule="nonzero" fill-opacity="1" /><path clip-path="url(#clip280)" d="M127.2 33.0428 Q123.589 33.0428 121.76 36.6076 Q119.955 40.1492 119.955 47.2788 Q119.955 54.3853 121.76 57.9501 Q123.589 61.4917 127.2 61.4917 Q130.834 61.4917 132.64 57.9501 Q134.468 54.3853 134.468 47.2788 Q134.468 40.1492 132.64 36.6076 Q130.834 33.0428 127.2 33.0428 M127.2 29.3391 Q133.01 29.3391 136.066 33.9456 Q139.144 38.5289 139.144 47.2788 Q139.144 56.0056 136.066 60.6121 Q133.01 65.1954 127.2 65.1954 Q121.39 65.1954 118.311 60.6121 Q115.256 56.0056 115.256 47.2788 Q115.256 38.5289 118.311 33.9456 Q121.39 29.3391 127.2 29.3391 Z" fill="#000000" fill-rule="nonzero" fill-opacity="1" /><path clip-path="url(#clip280)" d="M147.362 58.6445 L152.246 58.6445 L152.246 64.5241 L147.362 64.5241 L147.362 58.6445 Z" fill="#000000" fill-rule="nonzero" fill-opacity="1" /><path clip-path="url(#clip280)" d="M176.598 45.8899 Q179.954 46.6075 181.829 48.876 Q183.727 51.1445 183.727 54.4779 Q183.727 59.5936 180.209 62.3945 Q176.69 65.1954 170.209 65.1954 Q168.033 65.1954 165.718 64.7556 Q163.427 64.3389 160.973 63.4824 L160.973 58.9686 Q162.917 60.1028 165.232 60.6815 Q167.547 61.2602 170.07 61.2602 Q174.468 61.2602 176.76 59.5241 Q179.075 57.788 179.075 54.4779 Q179.075 51.4223 176.922 49.7094 Q174.792 47.9733 170.973 47.9733 L166.945 47.9733 L166.945 44.1307 L171.158 44.1307 Q174.607 44.1307 176.436 42.765 Q178.264 41.3761 178.264 38.7835 Q178.264 36.1215 176.366 34.7094 Q174.491 33.2743 170.973 33.2743 Q169.052 33.2743 166.852 33.6909 Q164.653 34.1076 162.015 34.9872 L162.015 30.8206 Q164.677 30.0798 166.991 29.7095 Q169.329 29.3391 171.389 29.3391 Q176.714 29.3391 179.815 31.7696 Q182.917 34.177 182.917 38.2974 Q182.917 41.1677 181.274 43.1585 Q179.63 45.1261 176.598 45.8899 Z" fill="#000000" fill-rule="nonzero" fill-opacity="1" /><path clip-path="url(#clip280)" d="M192.639 29.9641 L210.996 29.9641 L210.996 33.8993 L196.922 33.8993 L196.922 42.3714 Q197.94 42.0242 198.959 41.8622 Q199.977 41.677 200.996 41.677 Q206.783 41.677 210.162 44.8483 Q213.542 48.0196 213.542 53.4362 Q213.542 59.0149 210.07 62.1167 Q206.598 65.1954 200.278 65.1954 Q198.102 65.1954 195.834 64.825 Q193.588 64.4547 191.181 63.7139 L191.181 59.0149 Q193.264 60.1491 195.487 60.7047 Q197.709 61.2602 200.186 61.2602 Q204.19 61.2602 206.528 59.1538 Q208.866 57.0473 208.866 53.4362 Q208.866 49.8251 206.528 47.7186 Q204.19 45.6122 200.186 45.6122 Q198.311 45.6122 196.436 46.0288 Q194.584 46.4455 192.639 47.3251 L192.639 29.9641 Z" fill="#000000" fill-rule="nonzero" fill-opacity="1" /><path clip-path="url(#clip280)" d="M21.7677 896.901 L39.6235 896.901 L39.6235 888.816 Q39.6235 884.329 37.3 881.878 Q34.9765 879.427 30.6797 879.427 Q26.4147 879.427 24.0912 881.878 Q21.7677 884.329 21.7677 888.816 L21.7677 896.901 M16.4842 903.33 L16.4842 888.816 Q16.4842 880.828 20.1126 876.753 Q23.7092 872.648 30.6797 872.648 Q37.7138 872.648 41.3104 876.753 Q44.907 880.828 44.907 888.816 L44.907 896.901 L64.0042 896.901 L64.0042 903.33 L16.4842 903.33 Z" fill="#000000" fill-rule="nonzero" fill-opacity="1" /><path clip-path="url(#clip280)" d="M33.8307 844.766 Q33.2578 845.752 33.0032 846.93 Q32.7167 848.076 32.7167 849.476 Q32.7167 854.442 35.9632 857.115 Q39.1779 859.757 45.2253 859.757 L64.0042 859.757 L64.0042 865.645 L28.3562 865.645 L28.3562 859.757 L33.8944 859.757 Q30.6479 857.911 29.0883 854.951 Q27.4968 851.991 27.4968 847.758 Q27.4968 847.153 27.5923 846.421 Q27.656 845.689 27.8151 844.798 L33.8307 844.766 Z" fill="#000000" fill-rule="nonzero" fill-opacity="1" /><path clip-path="url(#clip280)" d="M32.4621 826.242 Q32.4621 830.952 36.1542 833.689 Q39.8145 836.427 46.212 836.427 Q52.6095 836.427 56.3017 833.721 Q59.9619 830.984 59.9619 826.242 Q59.9619 821.563 56.2698 818.826 Q52.5777 816.088 46.212 816.088 Q39.8781 816.088 36.186 818.826 Q32.4621 821.563 32.4621 826.242 M27.4968 826.242 Q27.4968 818.603 32.4621 814.242 Q37.4273 809.882 46.212 809.882 Q54.9649 809.882 59.9619 814.242 Q64.9272 818.603 64.9272 826.242 Q64.9272 833.912 59.9619 838.273 Q54.9649 842.601 46.212 842.601 Q37.4273 842.601 32.4621 838.273 Q27.4968 833.912 27.4968 826.242 Z" fill="#000000" fill-rule="nonzero" fill-opacity="1" /><path clip-path="url(#clip280)" d="M46.212 774.584 Q39.7508 774.584 36.0905 777.257 Q32.3984 779.899 32.3984 784.546 Q32.3984 789.193 36.0905 791.867 Q39.7508 794.509 46.212 794.509 Q52.6732 794.509 56.3653 791.867 Q60.0256 789.193 60.0256 784.546 Q60.0256 779.899 56.3653 777.257 Q52.6732 774.584 46.212 774.584 M33.7671 794.509 Q30.5842 792.662 29.0564 789.862 Q27.4968 787.029 27.4968 783.114 Q27.4968 776.621 32.6531 772.579 Q37.8093 768.505 46.212 768.505 Q54.6147 768.505 59.771 772.579 Q64.9272 776.621 64.9272 783.114 Q64.9272 787.029 63.3994 789.862 Q61.8398 792.662 58.657 794.509 L64.0042 794.509 L64.0042 800.397 L14.479 800.397 L14.479 794.509 L33.7671 794.509 Z" fill="#000000" fill-rule="nonzero" fill-opacity="1" /><path clip-path="url(#clip280)" d="M46.0847 742.596 Q46.0847 749.694 47.7079 752.431 Q49.3312 755.168 53.2461 755.168 Q56.3653 755.168 58.2114 753.131 Q60.0256 751.063 60.0256 747.53 Q60.0256 742.66 56.5881 739.732 Q53.1188 736.772 47.3897 736.772 L46.0847 736.772 L46.0847 742.596 M43.6657 730.915 L64.0042 730.915 L64.0042 736.772 L58.5933 736.772 Q61.8398 738.777 63.3994 741.769 Q64.9272 744.761 64.9272 749.089 Q64.9272 754.564 61.8716 757.81 Q58.7843 761.025 53.6281 761.025 Q47.6125 761.025 44.5569 757.015 Q41.5014 752.972 41.5014 744.983 L41.5014 736.772 L40.9285 736.772 Q36.8862 736.772 34.6901 739.445 Q32.4621 742.087 32.4621 746.893 Q32.4621 749.949 33.1941 752.845 Q33.9262 755.741 35.3903 758.415 L29.9795 758.415 Q28.7381 755.2 28.1334 752.177 Q27.4968 749.153 27.4968 746.288 Q27.4968 738.554 31.5072 734.735 Q35.5176 730.915 43.6657 730.915 Z" fill="#000000" fill-rule="nonzero" fill-opacity="1" /><path clip-path="url(#clip280)" d="M46.212 693.262 Q39.7508 693.262 36.0905 695.936 Q32.3984 698.577 32.3984 703.224 Q32.3984 707.871 36.0905 710.545 Q39.7508 713.187 46.212 713.187 Q52.6732 713.187 56.3653 710.545 Q60.0256 707.871 60.0256 703.224 Q60.0256 698.577 56.3653 695.936 Q52.6732 693.262 46.212 693.262 M33.7671 713.187 Q30.5842 711.341 29.0564 708.54 Q27.4968 705.707 27.4968 701.792 Q27.4968 695.299 32.6531 691.257 Q37.8093 687.183 46.212 687.183 Q54.6147 687.183 59.771 691.257 Q64.9272 695.299 64.9272 701.792 Q64.9272 705.707 63.3994 708.54 Q61.8398 711.341 58.657 713.187 L64.0042 713.187 L64.0042 719.075 L14.479 719.075 L14.479 713.187 L33.7671 713.187 Z" fill="#000000" fill-rule="nonzero" fill-opacity="1" /><path clip-path="url(#clip280)" d="M28.3562 677.475 L28.3562 671.619 L64.0042 671.619 L64.0042 677.475 L28.3562 677.475 M14.479 677.475 L14.479 671.619 L21.895 671.619 L21.895 677.475 L14.479 677.475 Z" fill="#000000" fill-rule="nonzero" fill-opacity="1" /><path clip-path="url(#clip280)" d="M14.479 659.365 L14.479 653.508 L64.0042 653.508 L64.0042 659.365 L14.479 659.365 Z" fill="#000000" fill-rule="nonzero" fill-opacity="1" /><path clip-path="url(#clip280)" d="M28.3562 641.254 L28.3562 635.398 L64.0042 635.398 L64.0042 641.254 L28.3562 641.254 M14.479 641.254 L14.479 635.398 L21.895 635.398 L21.895 641.254 L14.479 641.254 Z" fill="#000000" fill-rule="nonzero" fill-opacity="1" /><path clip-path="url(#clip280)" d="M18.2347 617.351 L28.3562 617.351 L28.3562 605.288 L32.9077 605.288 L32.9077 617.351 L52.2594 617.351 Q56.6199 617.351 57.8613 616.173 Q59.1026 614.964 59.1026 611.303 L59.1026 605.288 L64.0042 605.288 L64.0042 611.303 Q64.0042 618.083 61.4897 620.661 Q58.9434 623.239 52.2594 623.239 L32.9077 623.239 L32.9077 627.536 L28.3562 627.536 L28.3562 623.239 L18.2347 623.239 L18.2347 617.351 Z" fill="#000000" fill-rule="nonzero" fill-opacity="1" /><path clip-path="url(#clip280)" d="M67.3143 582.753 Q73.68 585.236 75.6216 587.591 Q77.5631 589.947 77.5631 593.893 L77.5631 598.572 L72.6615 598.572 L72.6615 595.135 Q72.6615 592.716 71.5157 591.379 Q70.3699 590.042 66.1048 588.419 L63.4312 587.368 L28.3562 601.787 L28.3562 595.58 L56.238 584.44 L28.3562 573.3 L28.3562 567.094 L67.3143 582.753 Z" fill="#000000" fill-rule="nonzero" fill-opacity="1" /><path clip-path="url(#clip282)" d="M1012.72 833.493 L1012.72 1423.18 L1152.8 1423.18 L1152.8 833.493 L1012.72 833.493 L1012.72 833.493  Z" fill="#009af9" fill-rule="evenodd" fill-opacity="1"/>
<polyline clip-path="url(#clip282)" style="stroke:#000000; stroke-linecap:round; stroke-linejoin:round; stroke-width:4; stroke-opacity:1; fill:none" points="1012.72,833.493 1012.72,1423.18 1152.8,1423.18 1152.8,833.493 1012.72,833.493 "/>
<path clip-path="url(#clip282)" d="M1152.8 47.2441 L1152.8 1423.18 L1292.88 1423.18 L1292.88 47.2441 L1152.8 47.2441 L1152.8 47.2441  Z" fill="#009af9" fill-rule="evenodd" fill-opacity="1"/>
<polyline clip-path="url(#clip282)" style="stroke:#000000; stroke-linecap:round; stroke-linejoin:round; stroke-width:4; stroke-opacity:1; fill:none" points="1152.8,47.2441 1152.8,1423.18 1292.88,1423.18 1292.88,47.2441 1152.8,47.2441 "/>
<path clip-path="url(#clip282)" d="M1292.88 1030.06 L1292.88 1423.18 L1432.96 1423.18 L1432.96 1030.06 L1292.88 1030.06 L1292.88 1030.06  Z" fill="#009af9" fill-rule="evenodd" fill-opacity="1"/>
<polyline clip-path="url(#clip282)" style="stroke:#000000; stroke-linecap:round; stroke-linejoin:round; stroke-width:4; stroke-opacity:1; fill:none" points="1292.88,1030.06 1292.88,1423.18 1432.96,1423.18 1432.96,1030.06 1292.88,1030.06 "/>
<path clip-path="url(#clip282)" d="M1432.96 1030.06 L1432.96 1423.18 L1573.04 1423.18 L1573.04 1030.06 L1432.96 1030.06 L1432.96 1030.06  Z" fill="#009af9" fill-rule="evenodd" fill-opacity="1"/>
<polyline clip-path="url(#clip282)" style="stroke:#000000; stroke-linecap:round; stroke-linejoin:round; stroke-width:4; stroke-opacity:1; fill:none" points="1432.96,1030.06 1432.96,1423.18 1573.04,1423.18 1573.04,1030.06 1432.96,1030.06 "/>
<path clip-path="url(#clip282)" d="M1573.04 440.369 L1573.04 1423.18 L1713.12 1423.18 L1713.12 440.369 L1573.04 440.369 L1573.04 440.369  Z" fill="#009af9" fill-rule="evenodd" fill-opacity="1"/>
<polyline clip-path="url(#clip282)" style="stroke:#000000; stroke-linecap:round; stroke-linejoin:round; stroke-width:4; stroke-opacity:1; fill:none" points="1573.04,440.369 1573.04,1423.18 1713.12,1423.18 1713.12,440.369 1573.04,440.369 "/>
<path clip-path="url(#clip282)" d="M1713.12 1226.62 L1713.12 1423.18 L1853.21 1423.18 L1853.21 1226.62 L1713.12 1226.62 L1713.12 1226.62  Z" fill="#009af9" fill-rule="evenodd" fill-opacity="1"/>
<polyline clip-path="url(#clip282)" style="stroke:#000000; stroke-linecap:round; stroke-linejoin:round; stroke-width:4; stroke-opacity:1; fill:none" points="1713.12,1226.62 1713.12,1423.18 1853.21,1423.18 1853.21,1226.62 1713.12,1226.62 "/>
<circle clip-path="url(#clip282)" style="fill:#009af9; stroke:none; fill-opacity:0" cx="1082.76" cy="833.493" r="2"/>
<circle clip-path="url(#clip282)" style="fill:#009af9; stroke:none; fill-opacity:0" cx="1222.84" cy="47.2441" r="2"/>
<circle clip-path="url(#clip282)" style="fill:#009af9; stroke:none; fill-opacity:0" cx="1362.92" cy="1030.06" r="2"/>
<circle clip-path="url(#clip282)" style="fill:#009af9; stroke:none; fill-opacity:0" cx="1503" cy="1030.06" r="2"/>
<circle clip-path="url(#clip282)" style="fill:#009af9; stroke:none; fill-opacity:0" cx="1643.08" cy="440.369" r="2"/>
<circle clip-path="url(#clip282)" style="fill:#009af9; stroke:none; fill-opacity:0" cx="1783.17" cy="1226.62" r="2"/>
<polyline clip-path="url(#clip282)" style="stroke:#e26f46; stroke-linecap:round; stroke-linejoin:round; stroke-width:4; stroke-opacity:1; fill:none" points="1062.98,1422.52 1066.98,1422.46 1070.99,1422.39 1108.02,1421.43 1145.05,1419.49 1167.3,1417.54 1189.56,1414.71 1208.37,1411.41 1227.19,1407.02 1237.41,1404.1 1247.62,1400.72 1257.84,1396.86 1268.06,1392.44 1277.48,1387.84 1286.91,1382.67 1296.33,1376.91 1305.75,1370.49 1315.85,1362.84 1325.95,1354.33 1336.05,1344.92 1346.15,1334.55 1357.85,1321.28 1369.56,1306.61 1381.26,1290.49 1392.96,1272.91 1403.36,1256.03 1413.76,1238 1424.16,1218.83 1434.56,1198.56 1443.68,1179.93 1452.8,1160.56 1461.92,1140.5 1471.04,1119.84 1490.92,1073.11 1510.81,1024.98 1530.81,976.438 1550.82,929.263 1556.35,916.675 1561.88,904.346 1567.41,892.31 1572.94,880.602 1578.46,869.255 1583.99,858.302 1589.52,847.777 1595.05,837.709 1600.31,828.584 1605.57,819.928 1610.84,811.764 1616.1,804.117 1621.36,797.007 1626.62,790.456 1631.88,784.484 1637.14,779.107 1642.61,774.165 1648.08,769.899 1653.55,766.325 1659.02,763.453 1664.49,761.293 1669.96,759.851 1675.43,759.134 1680.9,759.142 1685.51,759.712 1690.11,760.794 1694.72,762.388 1699.32,764.488 1703.92,767.09 1708.53,770.189 1713.13,773.776 1717.74,777.844 1723.36,783.448 1728.98,789.736 1734.6,796.686 1740.23,804.276 1745.85,812.479 1751.47,821.27 1757.09,830.619 1762.71,840.496 1773.01,859.858 1783.31,880.685 1788.46,891.581 1793.61,902.763 1798.76,914.204 1803.91,925.876 1822.94,970.542 1841.96,1016.61 1861.24,1063.39 1880.51,1109.07 1891.31,1133.81 1902.11,1157.74 1912.91,1180.72 1923.71,1202.65 1933.49,1221.55 1943.28,1239.48 1953.06,1256.39 1962.85,1272.28 1974.05,1289.2 1985.26,1304.77 1996.46,1319 2007.67,1331.95 2018.04,1342.82 2028.42,1352.68 2038.79,1361.57 2049.16,1369.55 2059.39,1376.59 2069.62,1382.86 2079.85,1388.41 2090.08,1393.32 2100.01,1397.51 2109.94,1401.2 2119.87,1404.42 2129.8,1407.23 2150.16,1411.87 2170.52,1415.28 2192.82,1417.94 2215.13,1419.77 2247.53,1421.41 2279.94,1422.29 2286.58,1422.42 2293.23,1422.52 "/>
<polyline clip-path="url(#clip282)" style="stroke:#000000; stroke-linecap:round; stroke-linejoin:round; stroke-width:4; stroke-opacity:1; fill:none" points="309.067,1422.72 314.788,1422.68 320.509,1422.63 373.41,1421.96 426.31,1420.6 458.101,1419.23 489.892,1417.25 516.771,1414.94 543.649,1411.87 558.248,1409.82 572.847,1407.46 587.446,1404.75 602.045,1401.66 615.504,1398.44 628.963,1394.82 642.422,1390.79 655.881,1386.3 670.31,1380.94 684.74,1374.98 699.169,1368.4 713.599,1361.14 730.317,1351.85 747.034,1341.58 763.752,1330.3 780.47,1317.99 795.327,1306.18 810.184,1293.55 825.041,1280.13 839.898,1265.94 852.926,1252.91 865.954,1239.35 878.982,1225.31 892.01,1210.84 920.419,1178.13 948.827,1144.44 977.404,1110.46 1005.98,1077.44 1013.88,1068.63 1021.78,1060 1029.68,1051.57 1037.58,1043.38 1045.48,1035.43 1053.38,1027.77 1061.27,1020.4 1069.17,1013.35 1076.69,1006.96 1084.2,1000.9 1091.72,995.189 1099.24,989.836 1106.75,984.859 1114.27,980.273 1121.78,976.093 1129.3,972.329 1137.11,968.869 1144.93,965.884 1152.74,963.381 1160.56,961.371 1168.37,959.859 1176.19,958.85 1184,958.348 1191.81,958.353 1198.39,958.752 1204.97,959.51 1211.55,960.625 1218.13,962.096 1224.71,963.917 1231.28,966.086 1237.86,968.597 1244.44,971.444 1252.47,975.368 1260.5,979.769 1268.53,984.634 1276.56,989.947 1284.6,995.689 1292.63,1001.84 1300.66,1008.39 1308.69,1015.3 1323.4,1028.85 1338.12,1043.43 1345.47,1051.06 1352.83,1058.89 1360.19,1066.9 1367.55,1075.07 1394.73,1106.33 1421.9,1138.58 1449.44,1171.32 1476.97,1203.31 1492.4,1220.62 1507.82,1237.37 1523.25,1253.46 1538.68,1268.81 1552.66,1282.04 1566.64,1294.59 1580.62,1306.43 1594.6,1317.55 1610.61,1329.39 1626.61,1340.29 1642.62,1350.26 1658.62,1359.32 1673.44,1366.93 1688.26,1373.83 1703.08,1380.05 1717.9,1385.64 1732.52,1390.57 1747.13,1394.95 1761.74,1398.84 1776.35,1402.28 1790.53,1405.21 1804.72,1407.79 1818.91,1410.05 1833.09,1412.01 1862.18,1415.26 1891.26,1417.65 1923.13,1419.51 1955,1420.79 2001.29,1421.94 2047.58,1422.56 2057.07,1422.64 2066.57,1422.72 "/>
<path clip-path="url(#clip280)" d="M1862.21 248.629 L2282.65 248.629 L2282.65 93.1086 L1862.21 93.1086  Z" fill="#ffffff" fill-rule="evenodd" fill-opacity="1"/>
<polyline clip-path="url(#clip280)" style="stroke:#000000; stroke-linecap:round; stroke-linejoin:round; stroke-width:4; stroke-opacity:1; fill:none" points="1862.21,248.629 2282.65,248.629 2282.65,93.1086 1862.21,93.1086 1862.21,248.629 "/>
<polyline clip-path="url(#clip280)" style="stroke:#e26f46; stroke-linecap:round; stroke-linejoin:round; stroke-width:4; stroke-opacity:1; fill:none" points="1885.58,144.949 2025.8,144.949 "/>
<path clip-path="url(#clip280)" d="M2049.17 127.669 L2078.4 127.669 L2078.4 131.604 L2066.13 131.604 L2066.13 162.229 L2061.43 162.229 L2061.43 131.604 L2049.17 131.604 L2049.17 127.669 Z" fill="#000000" fill-rule="nonzero" fill-opacity="1" /><path clip-path="url(#clip280)" d="M2084.72 139.289 Q2081.29 139.289 2079.3 141.974 Q2077.31 144.636 2077.31 149.289 Q2077.31 153.942 2079.28 156.627 Q2081.27 159.289 2084.72 159.289 Q2088.12 159.289 2090.11 156.604 Q2092.1 153.918 2092.1 149.289 Q2092.1 144.682 2090.11 141.997 Q2088.12 139.289 2084.72 139.289 M2084.72 135.678 Q2090.28 135.678 2093.45 139.289 Q2096.62 142.9 2096.62 149.289 Q2096.62 155.655 2093.45 159.289 Q2090.28 162.9 2084.72 162.9 Q2079.14 162.9 2075.97 159.289 Q2072.82 155.655 2072.82 149.289 Q2072.82 142.9 2075.97 139.289 Q2079.14 135.678 2084.72 135.678 Z" fill="#000000" fill-rule="nonzero" fill-opacity="1" /><path clip-path="url(#clip280)" d="M2123.77 136.303 L2114.4 148.919 L2124.26 162.229 L2119.23 162.229 L2111.69 152.043 L2104.14 162.229 L2099.12 162.229 L2109.19 148.664 L2099.98 136.303 L2105 136.303 L2111.87 145.539 L2118.75 136.303 L2123.77 136.303 Z" fill="#000000" fill-rule="nonzero" fill-opacity="1" /><path clip-path="url(#clip280)" d="M2130.28 136.303 L2134.54 136.303 L2134.54 162.229 L2130.28 162.229 L2130.28 136.303 M2130.28 126.21 L2134.54 126.21 L2134.54 131.604 L2130.28 131.604 L2130.28 126.21 Z" fill="#000000" fill-rule="nonzero" fill-opacity="1" /><path clip-path="url(#clip280)" d="M2162.1 137.298 L2162.1 141.28 Q2160.3 140.284 2158.47 139.798 Q2156.66 139.289 2154.81 139.289 Q2150.67 139.289 2148.38 141.928 Q2146.09 144.544 2146.09 149.289 Q2146.09 154.034 2148.38 156.673 Q2150.67 159.289 2154.81 159.289 Q2156.66 159.289 2158.47 158.803 Q2160.3 158.293 2162.1 157.298 L2162.1 161.233 Q2160.32 162.067 2158.4 162.483 Q2156.5 162.9 2154.35 162.9 Q2148.49 162.9 2145.04 159.219 Q2141.6 155.539 2141.6 149.289 Q2141.6 142.946 2145.07 139.312 Q2148.56 135.678 2154.63 135.678 Q2156.6 135.678 2158.47 136.095 Q2160.35 136.488 2162.1 137.298 Z" fill="#000000" fill-rule="nonzero" fill-opacity="1" /><polyline clip-path="url(#clip280)" style="stroke:#000000; stroke-linecap:round; stroke-linejoin:round; stroke-width:4; stroke-opacity:1; fill:none" points="1885.58,196.789 2025.8,196.789 "/>
<path clip-path="url(#clip280)" d="M2049.17 179.509 L2055.46 179.509 L2070.79 208.421 L2070.79 179.509 L2075.32 179.509 L2075.32 214.069 L2069.03 214.069 L2053.7 185.157 L2053.7 214.069 L2049.17 214.069 L2049.17 179.509 Z" fill="#000000" fill-rule="nonzero" fill-opacity="1" /><path clip-path="url(#clip280)" d="M2094.49 191.129 Q2091.06 191.129 2089.07 193.814 Q2087.08 196.476 2087.08 201.129 Q2087.08 205.782 2089.05 208.467 Q2091.04 211.129 2094.49 211.129 Q2097.89 211.129 2099.88 208.444 Q2101.87 205.758 2101.87 201.129 Q2101.87 196.522 2099.88 193.837 Q2097.89 191.129 2094.49 191.129 M2094.49 187.518 Q2100.04 187.518 2103.22 191.129 Q2106.39 194.74 2106.39 201.129 Q2106.39 207.495 2103.22 211.129 Q2100.04 214.74 2094.49 214.74 Q2088.91 214.74 2085.74 211.129 Q2082.59 207.495 2082.59 201.129 Q2082.59 194.74 2085.74 191.129 Q2088.91 187.518 2094.49 187.518 Z" fill="#000000" fill-rule="nonzero" fill-opacity="1" /><path clip-path="url(#clip280)" d="M2150.69 200.041 L2150.69 202.124 L2131.11 202.124 Q2131.39 206.522 2133.75 208.837 Q2136.13 211.129 2140.37 211.129 Q2142.82 211.129 2145.11 210.527 Q2147.43 209.925 2149.7 208.721 L2149.7 212.749 Q2147.41 213.721 2145 214.231 Q2142.59 214.74 2140.11 214.74 Q2133.91 214.74 2130.28 211.129 Q2126.66 207.518 2126.66 201.36 Q2126.66 194.995 2130.09 191.268 Q2133.54 187.518 2139.37 187.518 Q2144.6 187.518 2147.64 190.897 Q2150.69 194.254 2150.69 200.041 M2146.43 198.791 Q2146.39 195.296 2144.47 193.212 Q2142.57 191.129 2139.42 191.129 Q2135.85 191.129 2133.7 193.143 Q2131.57 195.157 2131.25 198.814 L2146.43 198.791 Z" fill="#000000" fill-rule="nonzero" fill-opacity="1" /><path clip-path="url(#clip280)" d="M2170.81 178.05 L2170.81 181.592 L2166.73 181.592 Q2164.44 181.592 2163.54 182.518 Q2162.66 183.444 2162.66 185.851 L2162.66 188.143 L2169.67 188.143 L2169.67 191.453 L2162.66 191.453 L2162.66 214.069 L2158.38 214.069 L2158.38 191.453 L2154.3 191.453 L2154.3 188.143 L2158.38 188.143 L2158.38 186.337 Q2158.38 182.009 2160.39 180.041 Q2162.41 178.05 2166.78 178.05 L2170.81 178.05 Z" fill="#000000" fill-rule="nonzero" fill-opacity="1" /><path clip-path="url(#clip280)" d="M2187.5 178.05 L2187.5 181.592 L2183.42 181.592 Q2181.13 181.592 2180.23 182.518 Q2179.35 183.444 2179.35 185.851 L2179.35 188.143 L2186.36 188.143 L2186.36 191.453 L2179.35 191.453 L2179.35 214.069 L2175.07 214.069 L2175.07 191.453 L2170.99 191.453 L2170.99 188.143 L2175.07 188.143 L2175.07 186.337 Q2175.07 182.009 2177.08 180.041 Q2179.09 178.05 2183.47 178.05 L2187.5 178.05 Z" fill="#000000" fill-rule="nonzero" fill-opacity="1" /><path clip-path="url(#clip280)" d="M2213.24 200.041 L2213.24 202.124 L2193.66 202.124 Q2193.93 206.522 2196.29 208.837 Q2198.68 211.129 2202.91 211.129 Q2205.37 211.129 2207.66 210.527 Q2209.97 209.925 2212.24 208.721 L2212.24 212.749 Q2209.95 213.721 2207.54 214.231 Q2205.14 214.74 2202.66 214.74 Q2196.46 214.74 2192.82 211.129 Q2189.21 207.518 2189.21 201.36 Q2189.21 194.995 2192.64 191.268 Q2196.09 187.518 2201.92 187.518 Q2207.15 187.518 2210.18 190.897 Q2213.24 194.254 2213.24 200.041 M2208.98 198.791 Q2208.93 195.296 2207.01 193.212 Q2205.11 191.129 2201.97 191.129 Q2198.4 191.129 2196.25 193.143 Q2194.12 195.157 2193.79 198.814 L2208.98 198.791 Z" fill="#000000" fill-rule="nonzero" fill-opacity="1" /><path clip-path="url(#clip280)" d="M2238.89 189.138 L2238.89 193.12 Q2237.08 192.124 2235.25 191.638 Q2233.45 191.129 2231.59 191.129 Q2227.45 191.129 2225.16 193.768 Q2222.87 196.384 2222.87 201.129 Q2222.87 205.874 2225.16 208.513 Q2227.45 211.129 2231.59 211.129 Q2233.45 211.129 2235.25 210.643 Q2237.08 210.133 2238.89 209.138 L2238.89 213.073 Q2237.1 213.907 2235.18 214.323 Q2233.28 214.74 2231.13 214.74 Q2225.28 214.74 2221.83 211.059 Q2218.38 207.379 2218.38 201.129 Q2218.38 194.786 2221.85 191.152 Q2225.34 187.518 2231.41 187.518 Q2233.38 187.518 2235.25 187.935 Q2237.13 188.328 2238.89 189.138 Z" fill="#000000" fill-rule="nonzero" fill-opacity="1" /><path clip-path="url(#clip280)" d="M2250.51 180.782 L2250.51 188.143 L2259.28 188.143 L2259.28 191.453 L2250.51 191.453 L2250.51 205.527 Q2250.51 208.698 2251.36 209.601 Q2252.24 210.504 2254.9 210.504 L2259.28 210.504 L2259.28 214.069 L2254.9 214.069 Q2249.97 214.069 2248.1 212.24 Q2246.22 210.388 2246.22 205.527 L2246.22 191.453 L2243.1 191.453 L2243.1 188.143 L2246.22 188.143 L2246.22 180.782 L2250.51 180.782 Z" fill="#000000" fill-rule="nonzero" fill-opacity="1" /></svg>
