<?xml version="1.0" encoding="utf-8"?>
<svg xmlns="http://www.w3.org/2000/svg" xmlns:xlink="http://www.w3.org/1999/xlink" width="600" height="400" viewBox="0 0 2400 1600">
<defs>
  <clipPath id="clip100">
    <rect x="0" y="0" width="2400" height="1600"/>
  </clipPath>
</defs>
<path clip-path="url(#clip100)" d="M0 1600 L2400 1600 L2400 0 L0 0  Z" fill="#ffffff" fill-rule="evenodd" fill-opacity="1"/>
<defs>
  <clipPath id="clip101">
    <rect x="480" y="0" width="1681" height="1600"/>
  </clipPath>
</defs>
<path clip-path="url(#clip100)" d="M112.177 1486.45 L2352.76 1486.45 L2352.76 47.2441 L112.177 47.2441  Z" fill="#ffffff" fill-rule="evenodd" fill-opacity="1"/>
<defs>
  <clipPath id="clip102">
    <rect x="112" y="47" width="2242" height="1440"/>
  </clipPath>
</defs>
<polyline clip-path="url(#clip102)" style="stroke:#000000; stroke-linecap:round; stroke-linejoin:round; stroke-width:2; stroke-opacity:0.1; fill:none" points="439.809,1486.45 439.809,47.2441 "/>
<polyline clip-path="url(#clip102)" style="stroke:#000000; stroke-linecap:round; stroke-linejoin:round; stroke-width:2; stroke-opacity:0.1; fill:none" points="968.247,1486.45 968.247,47.2441 "/>
<polyline clip-path="url(#clip102)" style="stroke:#000000; stroke-linecap:round; stroke-linejoin:round; stroke-width:2; stroke-opacity:0.1; fill:none" points="1496.69,1486.45 1496.69,47.2441 "/>
<polyline clip-path="url(#clip102)" style="stroke:#000000; stroke-linecap:round; stroke-linejoin:round; stroke-width:2; stroke-opacity:0.1; fill:none" points="2025.12,1486.45 2025.12,47.2441 "/>
<polyline clip-path="url(#clip100)" style="stroke:#000000; stroke-linecap:round; stroke-linejoin:round; stroke-width:4; stroke-opacity:1; fill:none" points="112.177,1486.45 2352.76,1486.45 "/>
<polyline clip-path="url(#clip100)" style="stroke:#000000; stroke-linecap:round; stroke-linejoin:round; stroke-width:4; stroke-opacity:1; fill:none" points="439.809,1486.45 439.809,1467.55 "/>
<polyline clip-path="url(#clip100)" style="stroke:#000000; stroke-linecap:round; stroke-linejoin:round; stroke-width:4; stroke-opacity:1; fill:none" points="968.247,1486.45 968.247,1467.55 "/>
<polyline clip-path="url(#clip100)" style="stroke:#000000; stroke-linecap:round; stroke-linejoin:round; stroke-width:4; stroke-opacity:1; fill:none" points="1496.69,1486.45 1496.69,1467.55 "/>
<polyline clip-path="url(#clip100)" style="stroke:#000000; stroke-linecap:round; stroke-linejoin:round; stroke-width:4; stroke-opacity:1; fill:none" points="2025.12,1486.45 2025.12,1467.55 "/>
<path clip-path="url(#clip100)" d="M434.462 1544.91 L450.781 1544.91 L450.781 1548.85 L428.837 1548.85 L428.837 1544.91 Q431.499 1542.16 436.082 1537.53 Q440.689 1532.88 441.869 1531.53 Q444.115 1529.01 444.994 1527.27 Q445.897 1525.51 445.897 1523.82 Q445.897 1521.07 443.952 1519.33 Q442.031 1517.6 438.929 1517.6 Q436.73 1517.6 434.277 1518.36 Q431.846 1519.13 429.068 1520.68 L429.068 1515.95 Q431.892 1514.82 434.346 1514.24 Q436.8 1513.66 438.837 1513.66 Q444.207 1513.66 447.402 1516.35 Q450.596 1519.03 450.596 1523.52 Q450.596 1525.65 449.786 1527.57 Q448.999 1529.47 446.892 1532.07 Q446.314 1532.74 443.212 1535.95 Q440.11 1539.15 434.462 1544.91 Z" fill="#000000" fill-rule="nonzero" fill-opacity="1" /><path clip-path="url(#clip100)" d="M971.257 1518.36 L959.451 1536.81 L971.257 1536.81 L971.257 1518.36 M970.03 1514.29 L975.909 1514.29 L975.909 1536.81 L980.84 1536.81 L980.84 1540.7 L975.909 1540.7 L975.909 1548.85 L971.257 1548.85 L971.257 1540.7 L955.655 1540.7 L955.655 1536.19 L970.03 1514.29 Z" fill="#000000" fill-rule="nonzero" fill-opacity="1" /><path clip-path="url(#clip100)" d="M1497.09 1529.7 Q1493.94 1529.7 1492.09 1531.86 Q1490.26 1534.01 1490.26 1537.76 Q1490.26 1541.49 1492.09 1543.66 Q1493.94 1545.82 1497.09 1545.82 Q1500.24 1545.82 1502.07 1543.66 Q1503.92 1541.49 1503.92 1537.76 Q1503.92 1534.01 1502.07 1531.86 Q1500.24 1529.7 1497.09 1529.7 M1506.37 1515.05 L1506.37 1519.31 Q1504.61 1518.48 1502.81 1518.04 Q1501.03 1517.6 1499.27 1517.6 Q1494.64 1517.6 1492.18 1520.72 Q1489.75 1523.85 1489.41 1530.17 Q1490.77 1528.15 1492.83 1527.09 Q1494.89 1526 1497.37 1526 Q1502.58 1526 1505.59 1529.17 Q1508.62 1532.32 1508.62 1537.76 Q1508.62 1543.08 1505.47 1546.3 Q1502.32 1549.52 1497.09 1549.52 Q1491.1 1549.52 1487.92 1544.94 Q1484.75 1540.33 1484.75 1531.6 Q1484.75 1523.41 1488.64 1518.55 Q1492.53 1513.66 1499.08 1513.66 Q1500.84 1513.66 1502.62 1514.01 Q1504.43 1514.36 1506.37 1515.05 Z" fill="#000000" fill-rule="nonzero" fill-opacity="1" /><path clip-path="url(#clip100)" d="M2025.12 1532.44 Q2021.79 1532.44 2019.87 1534.22 Q2017.97 1536 2017.97 1539.13 Q2017.97 1542.25 2019.87 1544.03 Q2021.79 1545.82 2025.12 1545.82 Q2028.46 1545.82 2030.38 1544.03 Q2032.3 1542.23 2032.3 1539.13 Q2032.3 1536 2030.38 1534.22 Q2028.48 1532.44 2025.12 1532.44 M2020.45 1530.45 Q2017.44 1529.7 2015.75 1527.64 Q2014.08 1525.58 2014.08 1522.62 Q2014.08 1518.48 2017.02 1516.07 Q2019.99 1513.66 2025.12 1513.66 Q2030.29 1513.66 2033.23 1516.07 Q2036.17 1518.48 2036.17 1522.62 Q2036.17 1525.58 2034.48 1527.64 Q2032.81 1529.7 2029.82 1530.45 Q2033.2 1531.23 2035.08 1533.52 Q2036.98 1535.82 2036.98 1539.13 Q2036.98 1544.15 2033.9 1546.83 Q2030.84 1549.52 2025.12 1549.52 Q2019.41 1549.52 2016.33 1546.83 Q2013.27 1544.15 2013.27 1539.13 Q2013.27 1535.82 2015.17 1533.52 Q2017.07 1531.23 2020.45 1530.45 M2018.74 1523.06 Q2018.74 1525.75 2020.4 1527.25 Q2022.09 1528.76 2025.12 1528.76 Q2028.13 1528.76 2029.82 1527.25 Q2031.54 1525.75 2031.54 1523.06 Q2031.54 1520.38 2029.82 1518.87 Q2028.13 1517.37 2025.12 1517.37 Q2022.09 1517.37 2020.4 1518.87 Q2018.74 1520.38 2018.74 1523.06 Z" fill="#000000" fill-rule="nonzero" fill-opacity="1" /><polyline clip-path="url(#clip102)" style="stroke:#000000; stroke-linecap:round; stroke-linejoin:round; stroke-width:2; stroke-opacity:0.1; fill:none" points="112.177,1445.72 2352.76,1445.72 "/>
<polyline clip-path="url(#clip102)" style="stroke:#000000; stroke-linecap:round; stroke-linejoin:round; stroke-width:2; stroke-opacity:0.1; fill:none" points="112.177,1174.17 2352.76,1174.17 "/>
<polyline clip-path="url(#clip102)" style="stroke:#000000; stroke-linecap:round; stroke-linejoin:round; stroke-width:2; stroke-opacity:0.1; fill:none" points="112.177,902.62 2352.76,902.62 "/>
<polyline clip-path="url(#clip102)" style="stroke:#000000; stroke-linecap:round; stroke-linejoin:round; stroke-width:2; stroke-opacity:0.1; fill:none" points="112.177,631.072 2352.76,631.072 "/>
<polyline clip-path="url(#clip102)" style="stroke:#000000; stroke-linecap:round; stroke-linejoin:round; stroke-width:2; stroke-opacity:0.1; fill:none" points="112.177,359.524 2352.76,359.524 "/>
<polyline clip-path="url(#clip102)" style="stroke:#000000; stroke-linecap:round; stroke-linejoin:round; stroke-width:2; stroke-opacity:0.1; fill:none" points="112.177,87.9763 2352.76,87.9763 "/>
<polyline clip-path="url(#clip100)" style="stroke:#000000; stroke-linecap:round; stroke-linejoin:round; stroke-width:4; stroke-opacity:1; fill:none" points="112.177,1486.45 112.177,47.2441 "/>
<polyline clip-path="url(#clip100)" style="stroke:#000000; stroke-linecap:round; stroke-linejoin:round; stroke-width:4; stroke-opacity:1; fill:none" points="112.177,1445.72 131.075,1445.72 "/>
<polyline clip-path="url(#clip100)" style="stroke:#000000; stroke-linecap:round; stroke-linejoin:round; stroke-width:4; stroke-opacity:1; fill:none" points="112.177,1174.17 131.075,1174.17 "/>
<polyline clip-path="url(#clip100)" style="stroke:#000000; stroke-linecap:round; stroke-linejoin:round; stroke-width:4; stroke-opacity:1; fill:none" points="112.177,902.62 131.075,902.62 "/>
<polyline clip-path="url(#clip100)" style="stroke:#000000; stroke-linecap:round; stroke-linejoin:round; stroke-width:4; stroke-opacity:1; fill:none" points="112.177,631.072 131.075,631.072 "/>
<polyline clip-path="url(#clip100)" style="stroke:#000000; stroke-linecap:round; stroke-linejoin:round; stroke-width:4; stroke-opacity:1; fill:none" points="112.177,359.524 131.075,359.524 "/>
<polyline clip-path="url(#clip100)" style="stroke:#000000; stroke-linecap:round; stroke-linejoin:round; stroke-width:4; stroke-opacity:1; fill:none" points="112.177,87.9763 131.075,87.9763 "/>
<path clip-path="url(#clip100)" d="M56.2699 1459.06 L63.9087 1459.06 L63.9087 1432.69 L55.5986 1434.36 L55.5986 1430.1 L63.8624 1428.44 L68.5383 1428.44 L68.5383 1459.06 L76.1772 1459.06 L76.1772 1463 L56.2699 1463 L56.2699 1459.06 Z" fill="#000000" fill-rule="nonzero" fill-opacity="1" /><path clip-path="url(#clip100)" d="M59.8578 1187.51 L76.1772 1187.51 L76.1772 1191.45 L54.2328 1191.45 L54.2328 1187.51 Q56.8949 1184.76 61.4782 1180.13 Q66.0846 1175.48 67.2652 1174.13 Q69.5105 1171.61 70.3902 1169.87 Q71.2929 1168.11 71.2929 1166.42 Q71.2929 1163.67 69.3485 1161.93 Q67.4272 1160.2 64.3254 1160.2 Q62.1263 1160.2 59.6726 1160.96 Q57.2421 1161.73 54.4643 1163.28 L54.4643 1158.55 Q57.2884 1157.42 59.7421 1156.84 Q62.1958 1156.26 64.2328 1156.26 Q69.6031 1156.26 72.7976 1158.95 Q75.992 1161.63 75.992 1166.12 Q75.992 1168.25 75.1818 1170.17 Q74.3948 1172.07 72.2883 1174.67 Q71.7096 1175.34 68.6078 1178.55 Q65.5059 1181.75 59.8578 1187.51 Z" fill="#000000" fill-rule="nonzero" fill-opacity="1" /><path clip-path="url(#clip100)" d="M69.0476 901.266 Q72.404 901.983 74.279 904.252 Q76.1772 906.52 76.1772 909.854 Q76.1772 914.969 72.6587 917.77 Q69.1402 920.571 62.6587 920.571 Q60.4828 920.571 58.168 920.131 Q55.8764 919.715 53.4227 918.858 L53.4227 914.344 Q55.3671 915.479 57.6819 916.057 Q59.9967 916.636 62.5198 916.636 Q66.918 916.636 69.2096 914.9 Q71.5244 913.164 71.5244 909.854 Q71.5244 906.798 69.3717 905.085 Q67.242 903.349 63.4226 903.349 L59.3949 903.349 L59.3949 899.507 L63.6078 899.507 Q67.0569 899.507 68.8855 898.141 Q70.7142 896.752 70.7142 894.159 Q70.7142 891.497 68.8161 890.085 Q66.9411 888.65 63.4226 888.65 Q61.5013 888.65 59.3023 889.067 Q57.1032 889.483 54.4643 890.363 L54.4643 886.196 Q57.1264 885.456 59.4412 885.085 Q61.7791 884.715 63.8393 884.715 Q69.1633 884.715 72.2652 887.145 Q75.367 889.553 75.367 893.673 Q75.367 896.544 73.7235 898.534 Q72.08 900.502 69.0476 901.266 Z" fill="#000000" fill-rule="nonzero" fill-opacity="1" /><path clip-path="url(#clip100)" d="M66.5939 617.866 L54.7884 636.315 L66.5939 636.315 L66.5939 617.866 M65.367 613.792 L71.2466 613.792 L71.2466 636.315 L76.1772 636.315 L76.1772 640.204 L71.2466 640.204 L71.2466 648.352 L66.5939 648.352 L66.5939 640.204 L50.9921 640.204 L50.9921 635.69 L65.367 613.792 Z" fill="#000000" fill-rule="nonzero" fill-opacity="1" /><path clip-path="url(#clip100)" d="M55.2745 342.244 L73.6309 342.244 L73.6309 346.179 L59.5569 346.179 L59.5569 354.652 Q60.5754 354.304 61.5939 354.142 Q62.6124 353.957 63.6309 353.957 Q69.418 353.957 72.7976 357.128 Q76.1772 360.3 76.1772 365.716 Q76.1772 371.295 72.705 374.397 Q69.2328 377.475 62.9134 377.475 Q60.7374 377.475 58.4689 377.105 Q56.2236 376.735 53.8162 375.994 L53.8162 371.295 Q55.8995 372.429 58.1217 372.985 Q60.3439 373.54 62.8208 373.54 Q66.8254 373.54 69.1633 371.434 Q71.5013 369.327 71.5013 365.716 Q71.5013 362.105 69.1633 359.999 Q66.8254 357.892 62.8208 357.892 Q60.9458 357.892 59.0708 358.309 Q57.2189 358.726 55.2745 359.605 L55.2745 342.244 Z" fill="#000000" fill-rule="nonzero" fill-opacity="1" /><path clip-path="url(#clip100)" d="M64.6495 86.1129 Q61.5013 86.1129 59.6495 88.2656 Q57.8208 90.4184 57.8208 94.1684 Q57.8208 97.8952 59.6495 100.071 Q61.5013 102.224 64.6495 102.224 Q67.7976 102.224 69.6263 100.071 Q71.4781 97.8952 71.4781 94.1684 Q71.4781 90.4184 69.6263 88.2656 Q67.7976 86.1129 64.6495 86.1129 M73.9318 71.4602 L73.9318 75.7194 Q72.1726 74.8861 70.367 74.4463 Q68.5846 74.0064 66.8254 74.0064 Q62.1958 74.0064 59.7421 77.1314 Q57.3115 80.2564 56.9643 86.5758 Q58.33 84.5619 60.3902 83.4971 Q62.4504 82.4092 64.9272 82.4092 Q70.1355 82.4092 73.1448 85.5805 Q76.1772 88.7286 76.1772 94.1684 Q76.1772 99.4924 73.029 102.71 Q69.8809 105.928 64.6495 105.928 Q58.6541 105.928 55.4828 101.344 Q52.3116 96.7378 52.3116 88.011 Q52.3116 79.8166 56.2004 74.9555 Q60.0893 70.0713 66.6402 70.0713 Q68.3994 70.0713 70.1818 70.4185 Q71.9874 70.7657 73.9318 71.4602 Z" fill="#000000" fill-rule="nonzero" fill-opacity="1" /><polyline clip-path="url(#clip102)" style="stroke:#0000ff; stroke-linecap:round; stroke-linejoin:round; stroke-width:4; stroke-opacity:1; fill:none" points="175.59,1445.72 175.59,87.9763 "/>
<polyline clip-path="url(#clip102)" style="stroke:#0000ff; stroke-linecap:round; stroke-linejoin:round; stroke-width:4; stroke-opacity:1; fill:none" points="175.59,1445.72 2289.34,1445.72 "/>
<polyline clip-path="url(#clip102)" style="stroke:#0000ff; stroke-linecap:round; stroke-linejoin:round; stroke-width:4; stroke-opacity:1; fill:none" points="2289.34,1445.72 2289.34,87.9763 "/>
<polyline clip-path="url(#clip102)" style="stroke:#0000ff; stroke-linecap:round; stroke-linejoin:round; stroke-width:4; stroke-opacity:1; fill:none" points="175.59,87.9763 2289.34,87.9763 "/>
<polyline clip-path="url(#clip102)" style="stroke:#ff0000; stroke-linecap:round; stroke-linejoin:round; stroke-width:4; stroke-opacity:1; fill:none" points="704.028,1445.72 704.028,87.9763 "/>
<polyline clip-path="url(#clip102)" style="stroke:#008000; stroke-linecap:round; stroke-linejoin:round; stroke-width:4; stroke-opacity:1; fill:none" points="175.59,766.846 704.028,766.846 "/>
<polyline clip-path="url(#clip102)" style="stroke:#ffa500; stroke-linecap:round; stroke-linejoin:round; stroke-width:4; stroke-opacity:1; fill:none" points="704.028,766.846 1232.47,766.846 "/>
<polyline clip-path="url(#clip102)" style="stroke:#ffa500; stroke-linecap:round; stroke-linejoin:round; stroke-width:4; stroke-opacity:1; fill:none" points="1232.47,766.846 1232.47,87.9763 "/>
<path clip-path="url(#clip100)" d="M1776.93 198.898 L2278.07 198.898 L2278.07 95.2176 L1776.93 95.2176  Z" fill="#ffffff" fill-rule="evenodd" fill-opacity="1"/>
<polyline clip-path="url(#clip100)" style="stroke:#000000; stroke-linecap:round; stroke-linejoin:round; stroke-width:4; stroke-opacity:1; fill:none" points="1776.93,198.898 2278.07,198.898 2278.07,95.2176 1776.93,95.2176 1776.93,198.898 "/>
<polyline clip-path="url(#clip100)" style="stroke:#0000ff; stroke-linecap:round; stroke-linejoin:round; stroke-width:4; stroke-opacity:1; fill:none" points="1801.83,147.058 1951.2,147.058 "/>
<path clip-path="url(#clip100)" d="M1991.93 134.384 L1985.58 151.583 L1998.29 151.583 L1991.93 134.384 M1989.29 129.778 L1994.59 129.778 L2007.76 164.338 L2002.9 164.338 L1999.75 155.472 L1984.17 155.472 L1981.02 164.338 L1976.09 164.338 L1989.29 129.778 Z" fill="#000000" fill-rule="nonzero" fill-opacity="1" /><path clip-path="url(#clip100)" d="M2012.62 128.319 L2016.88 128.319 L2016.88 164.338 L2012.62 164.338 L2012.62 128.319 Z" fill="#000000" fill-rule="nonzero" fill-opacity="1" /><path clip-path="url(#clip100)" d="M2025.79 128.319 L2030.05 128.319 L2030.05 164.338 L2025.79 164.338 L2025.79 128.319 Z" fill="#000000" fill-rule="nonzero" fill-opacity="1" /><path clip-path="url(#clip100)" d="M2070.56 139.176 L2070.56 143.203 Q2068.75 142.277 2066.81 141.815 Q2064.87 141.352 2062.78 141.352 Q2059.61 141.352 2058.01 142.324 Q2056.44 143.296 2056.44 145.24 Q2056.44 146.722 2057.57 147.578 Q2058.71 148.412 2062.13 149.176 L2063.59 149.5 Q2068.13 150.472 2070.03 152.254 Q2071.95 154.014 2071.95 157.185 Q2071.95 160.796 2069.08 162.902 Q2066.23 165.009 2061.23 165.009 Q2059.15 165.009 2056.88 164.592 Q2054.63 164.199 2052.13 163.388 L2052.13 158.99 Q2054.5 160.217 2056.79 160.842 Q2059.08 161.444 2061.32 161.444 Q2064.33 161.444 2065.95 160.426 Q2067.57 159.384 2067.57 157.509 Q2067.57 155.773 2066.39 154.847 Q2065.24 153.921 2061.28 153.064 L2059.8 152.717 Q2055.84 151.884 2054.08 150.171 Q2052.32 148.435 2052.32 145.426 Q2052.32 141.768 2054.91 139.778 Q2057.5 137.787 2062.27 137.787 Q2064.63 137.787 2066.72 138.134 Q2068.8 138.481 2070.56 139.176 Z" fill="#000000" fill-rule="nonzero" fill-opacity="1" /><path clip-path="url(#clip100)" d="M2082.94 131.051 L2082.94 138.412 L2091.72 138.412 L2091.72 141.722 L2082.94 141.722 L2082.94 155.796 Q2082.94 158.967 2083.8 159.87 Q2084.68 160.773 2087.34 160.773 L2091.72 160.773 L2091.72 164.338 L2087.34 164.338 Q2082.41 164.338 2080.54 162.509 Q2078.66 160.657 2078.66 155.796 L2078.66 141.722 L2075.54 141.722 L2075.54 138.412 L2078.66 138.412 L2078.66 131.051 L2082.94 131.051 Z" fill="#000000" fill-rule="nonzero" fill-opacity="1" /><path clip-path="url(#clip100)" d="M2096.88 154.106 L2096.88 138.412 L2101.14 138.412 L2101.14 153.944 Q2101.14 157.625 2102.57 159.476 Q2104.01 161.305 2106.88 161.305 Q2110.33 161.305 2112.32 159.106 Q2114.33 156.907 2114.33 153.111 L2114.33 138.412 L2118.59 138.412 L2118.59 164.338 L2114.33 164.338 L2114.33 160.356 Q2112.78 162.717 2110.72 163.875 Q2108.68 165.009 2105.98 165.009 Q2101.51 165.009 2099.19 162.231 Q2096.88 159.453 2096.88 154.106 M2107.6 137.787 L2107.6 137.787 Z" fill="#000000" fill-rule="nonzero" fill-opacity="1" /><path clip-path="url(#clip100)" d="M2144.43 142.347 L2144.43 128.319 L2148.68 128.319 L2148.68 164.338 L2144.43 164.338 L2144.43 160.449 Q2143.08 162.763 2141.02 163.898 Q2138.99 165.009 2136.12 165.009 Q2131.42 165.009 2128.45 161.259 Q2125.51 157.509 2125.51 151.398 Q2125.51 145.287 2128.45 141.537 Q2131.42 137.787 2136.12 137.787 Q2138.99 137.787 2141.02 138.921 Q2143.08 140.032 2144.43 142.347 M2129.91 151.398 Q2129.91 156.097 2131.83 158.782 Q2133.78 161.444 2137.16 161.444 Q2140.54 161.444 2142.48 158.782 Q2144.43 156.097 2144.43 151.398 Q2144.43 146.699 2142.48 144.037 Q2140.54 141.352 2137.16 141.352 Q2133.78 141.352 2131.83 144.037 Q2129.91 146.699 2129.91 151.398 Z" fill="#000000" fill-rule="nonzero" fill-opacity="1" /><path clip-path="url(#clip100)" d="M2179.63 150.31 L2179.63 152.393 L2160.05 152.393 Q2160.33 156.791 2162.69 159.106 Q2165.07 161.398 2169.31 161.398 Q2171.76 161.398 2174.05 160.796 Q2176.37 160.194 2178.64 158.99 L2178.64 163.018 Q2176.35 163.99 2173.94 164.5 Q2171.53 165.009 2169.05 165.009 Q2162.85 165.009 2159.22 161.398 Q2155.61 157.787 2155.61 151.629 Q2155.61 145.264 2159.03 141.537 Q2162.48 137.787 2168.31 137.787 Q2173.55 137.787 2176.58 141.166 Q2179.63 144.523 2179.63 150.31 M2175.37 149.06 Q2175.33 145.565 2173.41 143.481 Q2171.51 141.398 2168.36 141.398 Q2164.8 141.398 2162.64 143.412 Q2160.51 145.426 2160.19 149.083 L2175.37 149.06 Z" fill="#000000" fill-rule="nonzero" fill-opacity="1" /><path clip-path="url(#clip100)" d="M2208.17 148.689 L2208.17 164.338 L2203.92 164.338 L2203.92 148.828 Q2203.92 145.148 2202.48 143.319 Q2201.05 141.49 2198.17 141.49 Q2194.73 141.49 2192.74 143.69 Q2190.74 145.889 2190.74 149.685 L2190.74 164.338 L2186.46 164.338 L2186.46 138.412 L2190.74 138.412 L2190.74 142.44 Q2192.27 140.102 2194.33 138.944 Q2196.42 137.787 2199.12 137.787 Q2203.59 137.787 2205.88 140.565 Q2208.17 143.319 2208.17 148.689 Z" fill="#000000" fill-rule="nonzero" fill-opacity="1" /><path clip-path="url(#clip100)" d="M2220.88 131.051 L2220.88 138.412 L2229.66 138.412 L2229.66 141.722 L2220.88 141.722 L2220.88 155.796 Q2220.88 158.967 2221.74 159.87 Q2222.62 160.773 2225.28 160.773 L2229.66 160.773 L2229.66 164.338 L2225.28 164.338 Q2220.35 164.338 2218.48 162.509 Q2216.6 160.657 2216.6 155.796 L2216.6 141.722 L2213.48 141.722 L2213.48 138.412 L2216.6 138.412 L2216.6 131.051 L2220.88 131.051 Z" fill="#000000" fill-rule="nonzero" fill-opacity="1" /><path clip-path="url(#clip100)" d="M2251.79 139.176 L2251.79 143.203 Q2249.98 142.277 2248.04 141.815 Q2246.09 141.352 2244.01 141.352 Q2240.84 141.352 2239.24 142.324 Q2237.67 143.296 2237.67 145.24 Q2237.67 146.722 2238.8 147.578 Q2239.93 148.412 2243.36 149.176 L2244.82 149.5 Q2249.36 150.472 2251.25 152.254 Q2253.17 154.014 2253.17 157.185 Q2253.17 160.796 2250.3 162.902 Q2247.46 165.009 2242.46 165.009 Q2240.37 165.009 2238.11 164.592 Q2235.86 164.199 2233.36 163.388 L2233.36 158.99 Q2235.72 160.217 2238.01 160.842 Q2240.3 161.444 2242.55 161.444 Q2245.56 161.444 2247.18 160.426 Q2248.8 159.384 2248.8 157.509 Q2248.8 155.773 2247.62 154.847 Q2246.46 153.921 2242.5 153.064 L2241.02 152.717 Q2237.06 151.884 2235.3 150.171 Q2233.55 148.435 2233.55 145.426 Q2233.55 141.768 2236.14 139.778 Q2238.73 137.787 2243.5 137.787 Q2245.86 137.787 2247.94 138.134 Q2250.03 138.481 2251.79 139.176 Z" fill="#000000" fill-rule="nonzero" fill-opacity="1" /><path clip-path="url(#clip100)" d="M235.137 361.408 Q237.77 362.299 240.241 365.216 Q242.753 368.132 245.264 373.236 L253.569 389.764 L244.778 389.764 L237.041 374.249 Q234.043 368.173 231.208 366.188 Q228.413 364.203 223.551 364.203 L214.639 364.203 L214.639 389.764 L206.457 389.764 L206.457 329.284 L224.929 329.284 Q235.299 329.284 240.403 333.619 Q245.507 337.953 245.507 346.703 Q245.507 352.415 242.834 356.182 Q240.201 359.95 235.137 361.408 M214.639 336.009 L214.639 357.478 L224.929 357.478 Q230.843 357.478 233.841 354.764 Q236.879 352.01 236.879 346.703 Q236.879 341.396 233.841 338.723 Q230.843 336.009 224.929 336.009 L214.639 336.009 Z" fill="#000000" fill-rule="nonzero" fill-opacity="1" /><path clip-path="url(#clip100)" d="M259.28 371.859 L259.28 344.394 L266.734 344.394 L266.734 371.576 Q266.734 378.017 269.246 381.257 Q271.757 384.457 276.78 384.457 Q282.816 384.457 286.3 380.609 Q289.824 376.761 289.824 370.117 L289.824 344.394 L297.278 344.394 L297.278 389.764 L289.824 389.764 L289.824 382.797 Q287.11 386.929 283.505 388.954 Q279.94 390.939 275.2 390.939 Q267.382 390.939 263.331 386.078 Q259.28 381.217 259.28 371.859 M278.036 343.3 L278.036 343.3 Z" fill="#000000" fill-rule="nonzero" fill-opacity="1" /><path clip-path="url(#clip100)" d="M342.486 366.552 Q342.486 358.451 339.124 353.995 Q335.802 349.539 329.766 349.539 Q323.771 349.539 320.409 353.995 Q317.087 358.451 317.087 366.552 Q317.087 374.614 320.409 379.07 Q323.771 383.526 329.766 383.526 Q335.802 383.526 339.124 379.07 Q342.486 374.614 342.486 366.552 M349.94 384.133 Q349.94 395.719 344.795 401.35 Q339.65 407.021 329.037 407.021 Q325.108 407.021 321.624 406.413 Q318.14 405.846 314.859 404.631 L314.859 397.38 Q318.14 399.162 321.34 400.013 Q324.54 400.864 327.862 400.864 Q335.194 400.864 338.84 397.015 Q342.486 393.207 342.486 385.47 L342.486 381.784 Q340.177 385.794 336.572 387.779 Q332.966 389.764 327.943 389.764 Q319.598 389.764 314.494 383.404 Q309.39 377.044 309.39 366.552 Q309.39 356.02 314.494 349.66 Q319.598 343.3 327.943 343.3 Q332.966 343.3 336.572 345.285 Q340.177 347.27 342.486 351.281 L342.486 344.394 L349.94 344.394 L349.94 384.133 Z" fill="#000000" fill-rule="nonzero" fill-opacity="1" /><path clip-path="url(#clip100)" d="M397.862 367.12 Q397.862 358.896 394.459 354.238 Q391.097 349.539 385.183 349.539 Q379.268 349.539 375.865 354.238 Q372.503 358.896 372.503 367.12 Q372.503 375.343 375.865 380.042 Q379.268 384.701 385.183 384.701 Q391.097 384.701 394.459 380.042 Q397.862 375.343 397.862 367.12 M372.503 351.281 Q374.853 347.23 378.418 345.285 Q382.023 343.3 387.005 343.3 Q395.269 343.3 400.414 349.863 Q405.599 356.425 405.599 367.12 Q405.599 377.814 400.414 384.376 Q395.269 390.939 387.005 390.939 Q382.023 390.939 378.418 388.994 Q374.853 387.01 372.503 382.959 L372.503 389.764 L365.009 389.764 L365.009 326.732 L372.503 326.732 L372.503 351.281 Z" fill="#000000" fill-rule="nonzero" fill-opacity="1" /><path clip-path="url(#clip100)" d="M436.832 393.977 Q433.672 402.079 430.674 404.55 Q427.677 407.021 422.653 407.021 L416.699 407.021 L416.699 400.783 L421.074 400.783 Q424.152 400.783 425.854 399.324 Q427.555 397.866 429.621 392.438 L430.958 389.035 L412.607 344.394 L420.506 344.394 L434.685 379.88 L448.863 344.394 L456.762 344.394 L436.832 393.977 Z" fill="#000000" fill-rule="nonzero" fill-opacity="1" /><path clip-path="url(#clip100)" d="M518.295 334.834 Q509.383 334.834 504.117 341.477 Q498.891 348.121 498.891 359.585 Q498.891 371.008 504.117 377.652 Q509.383 384.295 518.295 384.295 Q527.207 384.295 532.392 377.652 Q537.618 371.008 537.618 359.585 Q537.618 348.121 532.392 341.477 Q527.207 334.834 518.295 334.834 M518.295 328.19 Q531.015 328.19 538.631 336.738 Q546.246 345.245 546.246 359.585 Q546.246 373.885 538.631 382.432 Q531.015 390.939 518.295 390.939 Q505.535 390.939 497.879 382.432 Q490.263 373.925 490.263 359.585 Q490.263 345.245 497.879 336.738 Q505.535 328.19 518.295 328.19 Z" fill="#000000" fill-rule="nonzero" fill-opacity="1" /><path clip-path="url(#clip100)" d="M596.437 362.38 L596.437 389.764 L588.984 389.764 L588.984 362.623 Q588.984 356.182 586.472 352.982 Q583.96 349.782 578.937 349.782 Q572.901 349.782 569.418 353.63 Q565.934 357.478 565.934 364.122 L565.934 389.764 L558.44 389.764 L558.44 344.394 L565.934 344.394 L565.934 351.443 Q568.607 347.351 572.213 345.326 Q575.859 343.3 580.598 343.3 Q588.416 343.3 592.427 348.161 Q596.437 352.982 596.437 362.38 Z" fill="#000000" fill-rule="nonzero" fill-opacity="1" /><path clip-path="url(#clip100)" d="M611.304 326.732 L618.758 326.732 L618.758 389.764 L611.304 389.764 L611.304 326.732 Z" fill="#000000" fill-rule="nonzero" fill-opacity="1" /><path clip-path="url(#clip100)" d="M653.231 393.977 Q650.071 402.079 647.073 404.55 Q644.076 407.021 639.053 407.021 L633.098 407.021 L633.098 400.783 L637.473 400.783 Q640.552 400.783 642.253 399.324 Q643.954 397.866 646.02 392.438 L647.357 389.035 L629.006 344.394 L636.906 344.394 L651.084 379.88 L665.262 344.394 L673.161 344.394 L653.231 393.977 Z" fill="#000000" fill-rule="nonzero" fill-opacity="1" /><path clip-path="url(#clip100)" d="M887.634 360.881 L887.634 383.04 L900.759 383.04 Q907.362 383.04 910.522 380.326 Q913.722 377.571 913.722 371.94 Q913.722 366.269 910.522 363.595 Q907.362 360.881 900.759 360.881 L887.634 360.881 M887.634 336.009 L887.634 354.238 L899.747 354.238 Q905.742 354.238 908.659 352.01 Q911.616 349.741 911.616 345.123 Q911.616 340.546 908.659 338.277 Q905.742 336.009 899.747 336.009 L887.634 336.009 M879.452 329.284 L900.354 329.284 Q909.712 329.284 914.775 333.173 Q919.839 337.062 919.839 344.232 Q919.839 349.782 917.246 353.063 Q914.654 356.344 909.631 357.154 Q915.667 358.451 918.988 362.583 Q922.351 366.674 922.351 372.831 Q922.351 380.933 916.841 385.349 Q911.332 389.764 901.164 389.764 L879.452 389.764 L879.452 329.284 Z" fill="#000000" fill-rule="nonzero" fill-opacity="1" /><path clip-path="url(#clip100)" d="M953.624 349.62 Q947.628 349.62 944.144 354.319 Q940.661 358.977 940.661 367.12 Q940.661 375.262 944.104 379.961 Q947.588 384.62 953.624 384.62 Q959.578 384.62 963.062 379.92 Q966.546 375.221 966.546 367.12 Q966.546 359.058 963.062 354.359 Q959.578 349.62 953.624 349.62 M953.624 343.3 Q963.346 343.3 968.895 349.62 Q974.445 355.939 974.445 367.12 Q974.445 378.26 968.895 384.62 Q963.346 390.939 953.624 390.939 Q943.861 390.939 938.311 384.62 Q932.802 378.26 932.802 367.12 Q932.802 355.939 938.311 349.62 Q943.861 343.3 953.624 343.3 Z" fill="#000000" fill-rule="nonzero" fill-opacity="1" /><path clip-path="url(#clip100)" d="M994.173 331.512 L994.173 344.394 L1009.53 344.394 L1009.53 350.187 L994.173 350.187 L994.173 374.816 Q994.173 380.366 995.672 381.946 Q997.211 383.526 1001.87 383.526 L1009.53 383.526 L1009.53 389.764 L1001.87 389.764 Q993.241 389.764 989.96 386.564 Q986.679 383.323 986.679 374.816 L986.679 350.187 L981.21 350.187 L981.21 344.394 L986.679 344.394 L986.679 331.512 L994.173 331.512 Z" fill="#000000" fill-rule="nonzero" fill-opacity="1" /><path clip-path="url(#clip100)" d="M1057.04 362.38 L1057.04 389.764 L1049.59 389.764 L1049.59 362.623 Q1049.59 356.182 1047.08 352.982 Q1044.57 349.782 1039.54 349.782 Q1033.51 349.782 1030.02 353.63 Q1026.54 357.478 1026.54 364.122 L1026.54 389.764 L1019.05 389.764 L1019.05 326.732 L1026.54 326.732 L1026.54 351.443 Q1029.21 347.351 1032.82 345.326 Q1036.46 343.3 1041.2 343.3 Q1049.02 343.3 1053.03 348.161 Q1057.04 352.982 1057.04 362.38 Z" fill="#000000" fill-rule="nonzero" fill-opacity="1" /><path clip-path="url(#clip100)" d="M337.868 1143.93 L348.886 1143.93 L375.703 1194.52 L375.703 1143.93 L383.643 1143.93 L383.643 1204.41 L372.625 1204.41 L345.808 1153.81 L345.808 1204.41 L337.868 1204.41 L337.868 1143.93 Z" fill="#000000" fill-rule="nonzero" fill-opacity="1" /><path clip-path="url(#clip100)" d="M417.185 1164.26 Q411.189 1164.26 407.706 1168.96 Q404.222 1173.62 404.222 1181.76 Q404.222 1189.91 407.665 1194.6 Q411.149 1199.26 417.185 1199.26 Q423.14 1199.26 426.623 1194.56 Q430.107 1189.87 430.107 1181.76 Q430.107 1173.7 426.623 1169 Q423.14 1164.26 417.185 1164.26 M417.185 1157.94 Q426.907 1157.94 432.457 1164.26 Q438.006 1170.58 438.006 1181.76 Q438.006 1192.9 432.457 1199.26 Q426.907 1205.58 417.185 1205.58 Q407.422 1205.58 401.872 1199.26 Q396.363 1192.9 396.363 1181.76 Q396.363 1170.58 401.872 1164.26 Q407.422 1157.94 417.185 1157.94 Z" fill="#000000" fill-rule="nonzero" fill-opacity="1" /><path clip-path="url(#clip100)" d="M488.075 1177.02 L488.075 1204.41 L480.622 1204.41 L480.622 1177.27 Q480.622 1170.83 478.11 1167.63 Q475.599 1164.43 470.576 1164.43 Q464.54 1164.43 461.056 1168.27 Q457.572 1172.12 457.572 1178.77 L457.572 1204.41 L450.078 1204.41 L450.078 1159.04 L457.572 1159.04 L457.572 1166.09 Q460.246 1161.99 463.851 1159.97 Q467.497 1157.94 472.236 1157.94 Q480.055 1157.94 484.065 1162.81 Q488.075 1167.63 488.075 1177.02 Z" fill="#000000" fill-rule="nonzero" fill-opacity="1" /><path clip-path="url(#clip100)" d="M541.75 1179.86 L541.75 1183.51 L507.479 1183.51 Q507.965 1191.2 512.097 1195.25 Q516.27 1199.26 523.683 1199.26 Q527.977 1199.26 531.987 1198.21 Q536.038 1197.16 540.008 1195.05 L540.008 1202.1 Q535.998 1203.8 531.785 1204.69 Q527.572 1205.58 523.237 1205.58 Q512.381 1205.58 506.021 1199.26 Q499.702 1192.94 499.702 1182.17 Q499.702 1171.03 505.697 1164.51 Q511.733 1157.94 521.941 1157.94 Q531.096 1157.94 536.403 1163.86 Q541.75 1169.73 541.75 1179.86 M534.296 1177.67 Q534.215 1171.55 530.853 1167.91 Q527.531 1164.26 522.022 1164.26 Q515.784 1164.26 512.016 1167.79 Q508.29 1171.31 507.722 1177.71 L534.296 1177.67 Z" fill="#000000" fill-rule="nonzero" fill-opacity="1" /><path clip-path="url(#clip100)" d="M1229.59 1143.93 L1264.35 1143.93 L1264.35 1150.81 L1237.77 1150.81 L1237.77 1168.64 L1261.75 1168.64 L1261.75 1175.52 L1237.77 1175.52 L1237.77 1204.41 L1229.59 1204.41 L1229.59 1143.93 Z" fill="#000000" fill-rule="nonzero" fill-opacity="1" /><path clip-path="url(#clip100)" d="M1291.61 1164.26 Q1285.61 1164.26 1282.13 1168.96 Q1278.65 1173.62 1278.65 1181.76 Q1278.65 1189.91 1282.09 1194.6 Q1285.57 1199.26 1291.61 1199.26 Q1297.56 1199.26 1301.05 1194.56 Q1304.53 1189.87 1304.53 1181.76 Q1304.53 1173.7 1301.05 1169 Q1297.56 1164.26 1291.61 1164.26 M1291.61 1157.94 Q1301.33 1157.94 1306.88 1164.26 Q1312.43 1170.58 1312.43 1181.76 Q1312.43 1192.9 1306.88 1199.26 Q1301.33 1205.58 1291.61 1205.58 Q1281.85 1205.58 1276.3 1199.26 Q1270.79 1192.9 1270.79 1181.76 Q1270.79 1170.58 1276.3 1164.26 Q1281.85 1157.94 1291.61 1157.94 Z" fill="#000000" fill-rule="nonzero" fill-opacity="1" /><path clip-path="url(#clip100)" d="M1342.37 1164.26 Q1336.37 1164.26 1332.89 1168.96 Q1329.4 1173.62 1329.4 1181.76 Q1329.4 1189.91 1332.85 1194.6 Q1336.33 1199.26 1342.37 1199.26 Q1348.32 1199.26 1351.81 1194.56 Q1355.29 1189.87 1355.29 1181.76 Q1355.29 1173.7 1351.81 1169 Q1348.32 1164.26 1342.37 1164.26 M1342.37 1157.94 Q1352.09 1157.94 1357.64 1164.26 Q1363.19 1170.58 1363.19 1181.76 Q1363.19 1192.9 1357.64 1199.26 Q1352.09 1205.58 1342.37 1205.58 Q1332.6 1205.58 1327.05 1199.26 Q1321.54 1192.9 1321.54 1181.76 Q1321.54 1170.58 1327.05 1164.26 Q1332.6 1157.94 1342.37 1157.94 Z" fill="#000000" fill-rule="nonzero" fill-opacity="1" /><path clip-path="url(#clip100)" d="M1382.92 1146.16 L1382.92 1159.04 L1398.27 1159.04 L1398.27 1164.83 L1382.92 1164.83 L1382.92 1189.46 Q1382.92 1195.01 1384.41 1196.59 Q1385.95 1198.17 1390.61 1198.17 L1398.27 1198.17 L1398.27 1204.41 L1390.61 1204.41 Q1381.98 1204.41 1378.7 1201.21 Q1375.42 1197.97 1375.42 1189.46 L1375.42 1164.83 L1369.95 1164.83 L1369.95 1159.04 L1375.42 1159.04 L1375.42 1146.16 L1382.92 1146.16 Z" fill="#000000" fill-rule="nonzero" fill-opacity="1" /><path clip-path="url(#clip100)" d="M1440.64 1181.76 Q1440.64 1173.54 1437.24 1168.88 Q1433.88 1164.18 1427.96 1164.18 Q1422.05 1164.18 1418.65 1168.88 Q1415.28 1173.54 1415.28 1181.76 Q1415.28 1189.99 1418.65 1194.69 Q1422.05 1199.34 1427.96 1199.34 Q1433.88 1199.34 1437.24 1194.69 Q1440.64 1189.99 1440.64 1181.76 M1415.28 1165.92 Q1417.63 1161.87 1421.2 1159.93 Q1424.8 1157.94 1429.79 1157.94 Q1438.05 1157.94 1443.19 1164.51 Q1448.38 1171.07 1448.38 1181.76 Q1448.38 1192.46 1443.19 1199.02 Q1438.05 1205.58 1429.79 1205.58 Q1424.8 1205.58 1421.2 1203.64 Q1417.63 1201.65 1415.28 1197.6 L1415.28 1204.41 L1407.79 1204.41 L1407.79 1141.38 L1415.28 1141.38 L1415.28 1165.92 Z" fill="#000000" fill-rule="nonzero" fill-opacity="1" /><path clip-path="url(#clip100)" d="M1481.35 1181.6 Q1472.32 1181.6 1468.84 1183.67 Q1465.35 1185.73 1465.35 1190.72 Q1465.35 1194.69 1467.94 1197.04 Q1470.58 1199.34 1475.07 1199.34 Q1481.27 1199.34 1485 1194.97 Q1488.77 1190.55 1488.77 1183.26 L1488.77 1181.6 L1481.35 1181.6 M1496.22 1178.52 L1496.22 1204.41 L1488.77 1204.41 L1488.77 1197.52 Q1486.21 1201.65 1482.41 1203.64 Q1478.6 1205.58 1473.09 1205.58 Q1466.12 1205.58 1461.99 1201.69 Q1457.9 1197.76 1457.9 1191.2 Q1457.9 1183.55 1463 1179.66 Q1468.15 1175.77 1478.31 1175.77 L1488.77 1175.77 L1488.77 1175.04 Q1488.77 1169.89 1485.36 1167.1 Q1482 1164.26 1475.88 1164.26 Q1472 1164.26 1468.31 1165.2 Q1464.62 1166.13 1461.22 1167.99 L1461.22 1161.1 Q1465.31 1159.52 1469.16 1158.75 Q1473.01 1157.94 1476.65 1157.94 Q1486.5 1157.94 1491.36 1163.05 Q1496.22 1168.15 1496.22 1178.52 Z" fill="#000000" fill-rule="nonzero" fill-opacity="1" /><path clip-path="url(#clip100)" d="M1511.57 1141.38 L1519.03 1141.38 L1519.03 1204.41 L1511.57 1204.41 L1511.57 1141.38 Z" fill="#000000" fill-rule="nonzero" fill-opacity="1" /><path clip-path="url(#clip100)" d="M1534.62 1141.38 L1542.08 1141.38 L1542.08 1204.41 L1534.62 1204.41 L1534.62 1141.38 Z" fill="#000000" fill-rule="nonzero" fill-opacity="1" /><path clip-path="url(#clip100)" d="M1608.92 1149.48 Q1600 1149.48 1594.74 1156.12 Q1589.51 1162.76 1589.51 1174.23 Q1589.51 1185.65 1594.74 1192.3 Q1600 1198.94 1608.92 1198.94 Q1617.83 1198.94 1623.01 1192.3 Q1628.24 1185.65 1628.24 1174.23 Q1628.24 1162.76 1623.01 1156.12 Q1617.83 1149.48 1608.92 1149.48 M1608.92 1142.83 Q1621.64 1142.83 1629.25 1151.38 Q1636.87 1159.89 1636.87 1174.23 Q1636.87 1188.53 1629.25 1197.08 Q1621.64 1205.58 1608.92 1205.58 Q1596.16 1205.58 1588.5 1197.08 Q1580.88 1188.57 1580.88 1174.23 Q1580.88 1159.89 1588.5 1151.38 Q1596.16 1142.83 1608.92 1142.83 Z" fill="#000000" fill-rule="nonzero" fill-opacity="1" /><path clip-path="url(#clip100)" d="M1687.06 1177.02 L1687.06 1204.41 L1679.6 1204.41 L1679.6 1177.27 Q1679.6 1170.83 1677.09 1167.63 Q1674.58 1164.43 1669.56 1164.43 Q1663.52 1164.43 1660.04 1168.27 Q1656.55 1172.12 1656.55 1178.77 L1656.55 1204.41 L1649.06 1204.41 L1649.06 1159.04 L1656.55 1159.04 L1656.55 1166.09 Q1659.23 1161.99 1662.83 1159.97 Q1666.48 1157.94 1671.22 1157.94 Q1679.04 1157.94 1683.05 1162.81 Q1687.06 1167.63 1687.06 1177.02 Z" fill="#000000" fill-rule="nonzero" fill-opacity="1" /><path clip-path="url(#clip100)" d="M1701.92 1141.38 L1709.38 1141.38 L1709.38 1204.41 L1701.92 1204.41 L1701.92 1141.38 Z" fill="#000000" fill-rule="nonzero" fill-opacity="1" /><path clip-path="url(#clip100)" d="M1743.85 1208.62 Q1740.69 1216.72 1737.69 1219.19 Q1734.7 1221.66 1729.67 1221.66 L1723.72 1221.66 L1723.72 1215.43 L1728.09 1215.43 Q1731.17 1215.43 1732.87 1213.97 Q1734.58 1212.51 1736.64 1207.08 L1737.98 1203.68 L1719.63 1159.04 L1727.53 1159.04 L1741.7 1194.52 L1755.88 1159.04 L1763.78 1159.04 L1743.85 1208.62 Z" fill="#000000" fill-rule="nonzero" fill-opacity="1" /></svg>
