<?xml version="1.0" encoding="utf-8"?>
<svg xmlns="http://www.w3.org/2000/svg" xmlns:xlink="http://www.w3.org/1999/xlink" width="600" height="400" viewBox="0 0 2400 1600">
<defs>
  <clipPath id="clip640">
    <rect x="0" y="0" width="2400" height="1600"/>
  </clipPath>
</defs>
<path clip-path="url(#clip640)" d="M0 1600 L2400 1600 L2400 0 L0 0  Z" fill="#ffffff" fill-rule="evenodd" fill-opacity="1"/>
<defs>
  <clipPath id="clip641">
    <rect x="480" y="0" width="1681" height="1600"/>
  </clipPath>
</defs>
<path clip-path="url(#clip640)" d="M249.542 1423.18 L2352.76 1423.18 L2352.76 47.2441 L249.542 47.2441  Z" fill="#ffffff" fill-rule="evenodd" fill-opacity="1"/>
<defs>
  <clipPath id="clip642">
    <rect x="249" y="47" width="2104" height="1377"/>
  </clipPath>
</defs>
<polyline clip-path="url(#clip642)" style="stroke:#000000; stroke-linecap:round; stroke-linejoin:round; stroke-width:2; stroke-opacity:0.1; fill:none" points="497.837,1423.18 497.837,47.2441 "/>
<polyline clip-path="url(#clip642)" style="stroke:#000000; stroke-linecap:round; stroke-linejoin:round; stroke-width:2; stroke-opacity:0.1; fill:none" points="893.206,1423.18 893.206,47.2441 "/>
<polyline clip-path="url(#clip642)" style="stroke:#000000; stroke-linecap:round; stroke-linejoin:round; stroke-width:2; stroke-opacity:0.1; fill:none" points="1288.57,1423.18 1288.57,47.2441 "/>
<polyline clip-path="url(#clip642)" style="stroke:#000000; stroke-linecap:round; stroke-linejoin:round; stroke-width:2; stroke-opacity:0.1; fill:none" points="1683.94,1423.18 1683.94,47.2441 "/>
<polyline clip-path="url(#clip642)" style="stroke:#000000; stroke-linecap:round; stroke-linejoin:round; stroke-width:2; stroke-opacity:0.1; fill:none" points="2079.31,1423.18 2079.31,47.2441 "/>
<polyline clip-path="url(#clip640)" style="stroke:#000000; stroke-linecap:round; stroke-linejoin:round; stroke-width:4; stroke-opacity:1; fill:none" points="249.542,1423.18 2352.76,1423.18 "/>
<polyline clip-path="url(#clip640)" style="stroke:#000000; stroke-linecap:round; stroke-linejoin:round; stroke-width:4; stroke-opacity:1; fill:none" points="497.837,1423.18 497.837,1404.28 "/>
<polyline clip-path="url(#clip640)" style="stroke:#000000; stroke-linecap:round; stroke-linejoin:round; stroke-width:4; stroke-opacity:1; fill:none" points="893.206,1423.18 893.206,1404.28 "/>
<polyline clip-path="url(#clip640)" style="stroke:#000000; stroke-linecap:round; stroke-linejoin:round; stroke-width:4; stroke-opacity:1; fill:none" points="1288.57,1423.18 1288.57,1404.28 "/>
<polyline clip-path="url(#clip640)" style="stroke:#000000; stroke-linecap:round; stroke-linejoin:round; stroke-width:4; stroke-opacity:1; fill:none" points="1683.94,1423.18 1683.94,1404.28 "/>
<polyline clip-path="url(#clip640)" style="stroke:#000000; stroke-linecap:round; stroke-linejoin:round; stroke-width:4; stroke-opacity:1; fill:none" points="2079.31,1423.18 2079.31,1404.28 "/>
<path clip-path="url(#clip640)" d="M467.479 1468.75 L497.154 1468.75 L497.154 1472.69 L467.479 1472.69 L467.479 1468.75 Z" fill="#000000" fill-rule="nonzero" fill-opacity="1" /><path clip-path="url(#clip640)" d="M507.293 1451.02 L525.65 1451.02 L525.65 1454.96 L511.576 1454.96 L511.576 1463.43 Q512.594 1463.08 513.613 1462.92 Q514.631 1462.73 515.65 1462.73 Q521.437 1462.73 524.816 1465.9 Q528.196 1469.08 528.196 1474.49 Q528.196 1480.07 524.724 1483.17 Q521.252 1486.25 514.932 1486.25 Q512.756 1486.25 510.488 1485.88 Q508.242 1485.51 505.835 1484.77 L505.835 1480.07 Q507.918 1481.2 510.14 1481.76 Q512.363 1482.32 514.84 1482.32 Q518.844 1482.32 521.182 1480.21 Q523.52 1478.1 523.52 1474.49 Q523.52 1470.88 521.182 1468.77 Q518.844 1466.67 514.84 1466.67 Q512.965 1466.67 511.09 1467.08 Q509.238 1467.5 507.293 1468.38 L507.293 1451.02 Z" fill="#000000" fill-rule="nonzero" fill-opacity="1" /><path clip-path="url(#clip640)" d="M893.206 1454.1 Q889.595 1454.1 887.766 1457.66 Q885.961 1461.2 885.961 1468.33 Q885.961 1475.44 887.766 1479.01 Q889.595 1482.55 893.206 1482.55 Q896.84 1482.55 898.646 1479.01 Q900.474 1475.44 900.474 1468.33 Q900.474 1461.2 898.646 1457.66 Q896.84 1454.1 893.206 1454.1 M893.206 1450.39 Q899.016 1450.39 902.072 1455 Q905.15 1459.58 905.15 1468.33 Q905.15 1477.06 902.072 1481.67 Q899.016 1486.25 893.206 1486.25 Q887.396 1486.25 884.317 1481.67 Q881.262 1477.06 881.262 1468.33 Q881.262 1459.58 884.317 1455 Q887.396 1450.39 893.206 1450.39 Z" fill="#000000" fill-rule="nonzero" fill-opacity="1" /><path clip-path="url(#clip640)" d="M1278.85 1451.02 L1297.21 1451.02 L1297.21 1454.96 L1283.13 1454.96 L1283.13 1463.43 Q1284.15 1463.08 1285.17 1462.92 Q1286.19 1462.73 1287.21 1462.73 Q1293 1462.73 1296.38 1465.9 Q1299.76 1469.08 1299.76 1474.49 Q1299.76 1480.07 1296.28 1483.17 Q1292.81 1486.25 1286.49 1486.25 Q1284.32 1486.25 1282.05 1485.88 Q1279.8 1485.51 1277.39 1484.77 L1277.39 1480.07 Q1279.48 1481.2 1281.7 1481.76 Q1283.92 1482.32 1286.4 1482.32 Q1290.4 1482.32 1292.74 1480.21 Q1295.08 1478.1 1295.08 1474.49 Q1295.08 1470.88 1292.74 1468.77 Q1290.4 1466.67 1286.4 1466.67 Q1284.52 1466.67 1282.65 1467.08 Q1280.8 1467.5 1278.85 1468.38 L1278.85 1451.02 Z" fill="#000000" fill-rule="nonzero" fill-opacity="1" /><path clip-path="url(#clip640)" d="M1658.63 1481.64 L1666.27 1481.64 L1666.27 1455.28 L1657.96 1456.95 L1657.96 1452.69 L1666.22 1451.02 L1670.9 1451.02 L1670.9 1481.64 L1678.54 1481.64 L1678.54 1485.58 L1658.63 1485.58 L1658.63 1481.64 Z" fill="#000000" fill-rule="nonzero" fill-opacity="1" /><path clip-path="url(#clip640)" d="M1697.98 1454.1 Q1694.37 1454.1 1692.54 1457.66 Q1690.74 1461.2 1690.74 1468.33 Q1690.74 1475.44 1692.54 1479.01 Q1694.37 1482.55 1697.98 1482.55 Q1701.62 1482.55 1703.42 1479.01 Q1705.25 1475.44 1705.25 1468.33 Q1705.25 1461.2 1703.42 1457.66 Q1701.62 1454.1 1697.98 1454.1 M1697.98 1450.39 Q1703.79 1450.39 1706.85 1455 Q1709.93 1459.58 1709.93 1468.33 Q1709.93 1477.06 1706.85 1481.67 Q1703.79 1486.25 1697.98 1486.25 Q1692.17 1486.25 1689.09 1481.67 Q1686.04 1477.06 1686.04 1468.33 Q1686.04 1459.58 1689.09 1455 Q1692.17 1450.39 1697.98 1450.39 Z" fill="#000000" fill-rule="nonzero" fill-opacity="1" /><path clip-path="url(#clip640)" d="M2054.5 1481.64 L2062.14 1481.64 L2062.14 1455.28 L2053.83 1456.95 L2053.83 1452.69 L2062.09 1451.02 L2066.77 1451.02 L2066.77 1481.64 L2074.4 1481.64 L2074.4 1485.58 L2054.5 1485.58 L2054.5 1481.64 Z" fill="#000000" fill-rule="nonzero" fill-opacity="1" /><path clip-path="url(#clip640)" d="M2083.9 1451.02 L2102.25 1451.02 L2102.25 1454.96 L2088.18 1454.96 L2088.18 1463.43 Q2089.2 1463.08 2090.21 1462.92 Q2091.23 1462.73 2092.25 1462.73 Q2098.04 1462.73 2101.42 1465.9 Q2104.8 1469.08 2104.8 1474.49 Q2104.8 1480.07 2101.33 1483.17 Q2097.85 1486.25 2091.53 1486.25 Q2089.36 1486.25 2087.09 1485.88 Q2084.84 1485.51 2082.44 1484.77 L2082.44 1480.07 Q2084.52 1481.2 2086.74 1481.76 Q2088.96 1482.32 2091.44 1482.32 Q2095.45 1482.32 2097.78 1480.21 Q2100.12 1478.1 2100.12 1474.49 Q2100.12 1470.88 2097.78 1468.77 Q2095.45 1466.67 2091.44 1466.67 Q2089.57 1466.67 2087.69 1467.08 Q2085.84 1467.5 2083.9 1468.38 L2083.9 1451.02 Z" fill="#000000" fill-rule="nonzero" fill-opacity="1" /><path clip-path="url(#clip640)" d="M1015.68 1524.18 L1015.68 1530.96 Q1012.43 1527.94 1008.74 1526.44 Q1005.08 1524.95 1000.94 1524.95 Q992.794 1524.95 988.465 1529.95 Q984.137 1534.91 984.137 1544.33 Q984.137 1553.72 988.465 1558.72 Q992.794 1563.68 1000.94 1563.68 Q1005.08 1563.68 1008.74 1562.19 Q1012.43 1560.69 1015.68 1557.67 L1015.68 1564.38 Q1012.31 1566.68 1008.52 1567.82 Q1004.76 1568.97 1000.56 1568.97 Q989.77 1568.97 983.564 1562.38 Q977.357 1555.76 977.357 1544.33 Q977.357 1532.87 983.564 1526.28 Q989.77 1519.66 1000.56 1519.66 Q1004.83 1519.66 1008.58 1520.81 Q1012.37 1521.92 1015.68 1524.18 Z" fill="#000000" fill-rule="nonzero" fill-opacity="1" /><path clip-path="url(#clip640)" d="M1039.17 1536.5 Q1034.46 1536.5 1031.72 1540.19 Q1028.98 1543.85 1028.98 1550.25 Q1028.98 1556.65 1031.69 1560.34 Q1034.43 1564 1039.17 1564 Q1043.85 1564 1046.58 1560.31 Q1049.32 1556.62 1049.32 1550.25 Q1049.32 1543.92 1046.58 1540.23 Q1043.85 1536.5 1039.17 1536.5 M1039.17 1531.54 Q1046.81 1531.54 1051.17 1536.5 Q1055.53 1541.47 1055.53 1550.25 Q1055.53 1559 1051.17 1564 Q1046.81 1568.97 1039.17 1568.97 Q1031.5 1568.97 1027.14 1564 Q1022.81 1559 1022.81 1550.25 Q1022.81 1541.47 1027.14 1536.5 Q1031.5 1531.54 1039.17 1531.54 Z" fill="#000000" fill-rule="nonzero" fill-opacity="1" /><path clip-path="url(#clip640)" d="M1094.87 1546.53 L1094.87 1568.04 L1089.01 1568.04 L1089.01 1546.72 Q1089.01 1541.66 1087.04 1539.14 Q1085.07 1536.63 1081.12 1536.63 Q1076.38 1536.63 1073.64 1539.65 Q1070.9 1542.68 1070.9 1547.9 L1070.9 1568.04 L1065.01 1568.04 L1065.01 1532.4 L1070.9 1532.4 L1070.9 1537.93 Q1073 1534.72 1075.83 1533.13 Q1078.7 1531.54 1082.42 1531.54 Q1088.57 1531.54 1091.72 1535.36 Q1094.87 1539.14 1094.87 1546.53 Z" fill="#000000" fill-rule="nonzero" fill-opacity="1" /><path clip-path="url(#clip640)" d="M1132.2 1533.76 L1132.2 1539.24 Q1129.72 1537.87 1127.21 1537.2 Q1124.72 1536.5 1122.18 1536.5 Q1116.48 1536.5 1113.33 1540.13 Q1110.18 1543.73 1110.18 1550.25 Q1110.18 1556.78 1113.33 1560.4 Q1116.48 1564 1122.18 1564 Q1124.72 1564 1127.21 1563.33 Q1129.72 1562.63 1132.2 1561.26 L1132.2 1566.68 Q1129.75 1567.82 1127.11 1568.39 Q1124.5 1568.97 1121.54 1568.97 Q1113.49 1568.97 1108.75 1563.91 Q1104 1558.85 1104 1550.25 Q1104 1541.53 1108.78 1536.53 Q1113.58 1531.54 1121.92 1531.54 Q1124.63 1531.54 1127.21 1532.11 Q1129.78 1532.65 1132.2 1533.76 Z" fill="#000000" fill-rule="nonzero" fill-opacity="1" /><path clip-path="url(#clip640)" d="M1172.88 1548.76 L1172.88 1551.62 L1145.95 1551.62 Q1146.33 1557.67 1149.58 1560.85 Q1152.86 1564 1158.68 1564 Q1162.06 1564 1165.21 1563.17 Q1168.39 1562.35 1171.51 1560.69 L1171.51 1566.23 Q1168.36 1567.57 1165.05 1568.27 Q1161.74 1568.97 1158.33 1568.97 Q1149.8 1568.97 1144.81 1564 Q1139.84 1559.04 1139.84 1550.57 Q1139.84 1541.82 1144.55 1536.69 Q1149.3 1531.54 1157.32 1531.54 Q1164.51 1531.54 1168.68 1536.18 Q1172.88 1540.8 1172.88 1548.76 M1167.02 1547.04 Q1166.96 1542.23 1164.32 1539.37 Q1161.71 1536.5 1157.38 1536.5 Q1152.48 1536.5 1149.52 1539.27 Q1146.59 1542.04 1146.14 1547.07 L1167.02 1547.04 Z" fill="#000000" fill-rule="nonzero" fill-opacity="1" /><path clip-path="url(#clip640)" d="M1212.12 1546.53 L1212.12 1568.04 L1206.27 1568.04 L1206.27 1546.72 Q1206.27 1541.66 1204.29 1539.14 Q1202.32 1536.63 1198.37 1536.63 Q1193.63 1536.63 1190.89 1539.65 Q1188.16 1542.68 1188.16 1547.9 L1188.16 1568.04 L1182.27 1568.04 L1182.27 1532.4 L1188.16 1532.4 L1188.16 1537.93 Q1190.26 1534.72 1193.09 1533.13 Q1195.96 1531.54 1199.68 1531.54 Q1205.82 1531.54 1208.97 1535.36 Q1212.12 1539.14 1212.12 1546.53 Z" fill="#000000" fill-rule="nonzero" fill-opacity="1" /><path clip-path="url(#clip640)" d="M1229.6 1522.27 L1229.6 1532.4 L1241.66 1532.4 L1241.66 1536.95 L1229.6 1536.95 L1229.6 1556.3 Q1229.6 1560.66 1230.78 1561.9 Q1231.99 1563.14 1235.65 1563.14 L1241.66 1563.14 L1241.66 1568.04 L1235.65 1568.04 Q1228.87 1568.04 1226.29 1565.53 Q1223.71 1562.98 1223.71 1556.3 L1223.71 1536.95 L1219.41 1536.95 L1219.41 1532.4 L1223.71 1532.4 L1223.71 1522.27 L1229.6 1522.27 Z" fill="#000000" fill-rule="nonzero" fill-opacity="1" /><path clip-path="url(#clip640)" d="M1270.02 1537.87 Q1269.03 1537.3 1267.86 1537.04 Q1266.71 1536.76 1265.31 1536.76 Q1260.34 1536.76 1257.67 1540 Q1255.03 1543.22 1255.03 1549.27 L1255.03 1568.04 L1249.14 1568.04 L1249.14 1532.4 L1255.03 1532.4 L1255.03 1537.93 Q1256.88 1534.69 1259.84 1533.13 Q1262.8 1531.54 1267.03 1531.54 Q1267.63 1531.54 1268.37 1531.63 Q1269.1 1531.7 1269.99 1531.85 L1270.02 1537.87 Z" fill="#000000" fill-rule="nonzero" fill-opacity="1" /><path clip-path="url(#clip640)" d="M1292.36 1550.12 Q1285.27 1550.12 1282.53 1551.75 Q1279.79 1553.37 1279.79 1557.29 Q1279.79 1560.4 1281.83 1562.25 Q1283.9 1564.07 1287.43 1564.07 Q1292.3 1564.07 1295.23 1560.63 Q1298.19 1557.16 1298.19 1551.43 L1298.19 1550.12 L1292.36 1550.12 M1304.05 1547.71 L1304.05 1568.04 L1298.19 1568.04 L1298.19 1562.63 Q1296.18 1565.88 1293.19 1567.44 Q1290.2 1568.97 1285.87 1568.97 Q1280.4 1568.97 1277.15 1565.91 Q1273.94 1562.82 1273.94 1557.67 Q1273.94 1551.65 1277.95 1548.6 Q1281.99 1545.54 1289.98 1545.54 L1298.19 1545.54 L1298.19 1544.97 Q1298.19 1540.93 1295.52 1538.73 Q1292.87 1536.5 1288.07 1536.5 Q1285.01 1536.5 1282.12 1537.23 Q1279.22 1537.97 1276.55 1539.43 L1276.55 1534.02 Q1279.76 1532.78 1282.78 1532.17 Q1285.81 1531.54 1288.67 1531.54 Q1296.41 1531.54 1300.23 1535.55 Q1304.05 1539.56 1304.05 1547.71 Z" fill="#000000" fill-rule="nonzero" fill-opacity="1" /><path clip-path="url(#clip640)" d="M1321.9 1522.27 L1321.9 1532.4 L1333.96 1532.4 L1333.96 1536.95 L1321.9 1536.95 L1321.9 1556.3 Q1321.9 1560.66 1323.08 1561.9 Q1324.29 1563.14 1327.95 1563.14 L1333.96 1563.14 L1333.96 1568.04 L1327.95 1568.04 Q1321.17 1568.04 1318.59 1565.53 Q1316.01 1562.98 1316.01 1556.3 L1316.01 1536.95 L1311.72 1536.95 L1311.72 1532.4 L1316.01 1532.4 L1316.01 1522.27 L1321.9 1522.27 Z" fill="#000000" fill-rule="nonzero" fill-opacity="1" /><path clip-path="url(#clip640)" d="M1341.67 1532.4 L1347.52 1532.4 L1347.52 1568.04 L1341.67 1568.04 L1341.67 1532.4 M1341.67 1518.52 L1347.52 1518.52 L1347.52 1525.93 L1341.67 1525.93 L1341.67 1518.52 Z" fill="#000000" fill-rule="nonzero" fill-opacity="1" /><path clip-path="url(#clip640)" d="M1373.59 1536.5 Q1368.88 1536.5 1366.14 1540.19 Q1363.41 1543.85 1363.41 1550.25 Q1363.41 1556.65 1366.11 1560.34 Q1368.85 1564 1373.59 1564 Q1378.27 1564 1381.01 1560.31 Q1383.74 1556.62 1383.74 1550.25 Q1383.74 1543.92 1381.01 1540.23 Q1378.27 1536.5 1373.59 1536.5 M1373.59 1531.54 Q1381.23 1531.54 1385.59 1536.5 Q1389.95 1541.47 1389.95 1550.25 Q1389.95 1559 1385.59 1564 Q1381.23 1568.97 1373.59 1568.97 Q1365.92 1568.97 1361.56 1564 Q1357.23 1559 1357.23 1550.25 Q1357.23 1541.47 1361.56 1536.5 Q1365.92 1531.54 1373.59 1531.54 Z" fill="#000000" fill-rule="nonzero" fill-opacity="1" /><path clip-path="url(#clip640)" d="M1429.29 1546.53 L1429.29 1568.04 L1423.43 1568.04 L1423.43 1546.72 Q1423.43 1541.66 1421.46 1539.14 Q1419.49 1536.63 1415.54 1536.63 Q1410.8 1536.63 1408.06 1539.65 Q1405.32 1542.68 1405.32 1547.9 L1405.32 1568.04 L1399.44 1568.04 L1399.44 1532.4 L1405.32 1532.4 L1405.32 1537.93 Q1407.42 1534.72 1410.26 1533.13 Q1413.12 1531.54 1416.85 1531.54 Q1422.99 1531.54 1426.14 1535.36 Q1429.29 1539.14 1429.29 1546.53 Z" fill="#000000" fill-rule="nonzero" fill-opacity="1" /><path clip-path="url(#clip640)" d="M1475.76 1518.58 Q1471.5 1525.9 1469.43 1533.06 Q1467.36 1540.23 1467.36 1547.58 Q1467.36 1554.93 1469.43 1562.16 Q1471.53 1569.35 1475.76 1576.64 L1470.67 1576.64 Q1465.89 1569.16 1463.51 1561.93 Q1461.15 1554.71 1461.15 1547.58 Q1461.15 1540.48 1463.51 1533.29 Q1465.86 1526.09 1470.67 1518.58 L1475.76 1518.58 Z" fill="#000000" fill-rule="nonzero" fill-opacity="1" /><path clip-path="url(#clip640)" d="M1492.79 1562.7 L1492.79 1581.6 L1486.9 1581.6 L1486.9 1532.4 L1492.79 1532.4 L1492.79 1537.81 Q1494.63 1534.62 1497.44 1533.1 Q1500.27 1531.54 1504.18 1531.54 Q1510.68 1531.54 1514.72 1536.69 Q1518.79 1541.85 1518.79 1550.25 Q1518.79 1558.65 1514.72 1563.81 Q1510.68 1568.97 1504.18 1568.97 Q1500.27 1568.97 1497.44 1567.44 Q1494.63 1565.88 1492.79 1562.7 M1512.71 1550.25 Q1512.71 1543.79 1510.04 1540.13 Q1507.4 1536.44 1502.75 1536.44 Q1498.1 1536.44 1495.43 1540.13 Q1492.79 1543.79 1492.79 1550.25 Q1492.79 1556.71 1495.43 1560.4 Q1498.1 1564.07 1502.75 1564.07 Q1507.4 1564.07 1510.04 1560.4 Q1512.71 1556.71 1512.71 1550.25 Z" fill="#000000" fill-rule="nonzero" fill-opacity="1" /><path clip-path="url(#clip640)" d="M1534.17 1562.7 L1534.17 1581.6 L1528.28 1581.6 L1528.28 1532.4 L1534.17 1532.4 L1534.17 1537.81 Q1536.01 1534.62 1538.81 1533.1 Q1541.65 1531.54 1545.56 1531.54 Q1552.05 1531.54 1556.1 1536.69 Q1560.17 1541.85 1560.17 1550.25 Q1560.17 1558.65 1556.1 1563.81 Q1552.05 1568.97 1545.56 1568.97 Q1541.65 1568.97 1538.81 1567.44 Q1536.01 1565.88 1534.17 1562.7 M1554.09 1550.25 Q1554.09 1543.79 1551.42 1540.13 Q1548.77 1536.44 1544.13 1536.44 Q1539.48 1536.44 1536.81 1540.13 Q1534.17 1543.79 1534.17 1550.25 Q1534.17 1556.71 1536.81 1560.4 Q1539.48 1564.07 1544.13 1564.07 Q1548.77 1564.07 1551.42 1560.4 Q1554.09 1556.71 1554.09 1550.25 Z" fill="#000000" fill-rule="nonzero" fill-opacity="1" /><path clip-path="url(#clip640)" d="M1595.47 1550.25 Q1595.47 1543.79 1592.79 1540.13 Q1590.15 1536.44 1585.51 1536.44 Q1580.86 1536.44 1578.18 1540.13 Q1575.54 1543.79 1575.54 1550.25 Q1575.54 1556.71 1578.18 1560.4 Q1580.86 1564.07 1585.51 1564.07 Q1590.15 1564.07 1592.79 1560.4 Q1595.47 1556.71 1595.47 1550.25 M1575.54 1537.81 Q1577.39 1534.62 1580.19 1533.1 Q1583.02 1531.54 1586.94 1531.54 Q1593.43 1531.54 1597.47 1536.69 Q1601.55 1541.85 1601.55 1550.25 Q1601.55 1558.65 1597.47 1563.81 Q1593.43 1568.97 1586.94 1568.97 Q1583.02 1568.97 1580.19 1567.44 Q1577.39 1565.88 1575.54 1562.7 L1575.54 1568.04 L1569.65 1568.04 L1569.65 1518.52 L1575.54 1518.52 L1575.54 1537.81 Z" fill="#000000" fill-rule="nonzero" fill-opacity="1" /><path clip-path="url(#clip640)" d="M1610.33 1518.58 L1615.42 1518.58 Q1620.2 1526.09 1622.55 1533.29 Q1624.94 1540.48 1624.94 1547.58 Q1624.94 1554.71 1622.55 1561.93 Q1620.2 1569.16 1615.42 1576.64 L1610.33 1576.64 Q1614.56 1569.35 1616.63 1562.16 Q1618.73 1554.93 1618.73 1547.58 Q1618.73 1540.23 1616.63 1533.06 Q1614.56 1525.9 1610.33 1518.58 Z" fill="#000000" fill-rule="nonzero" fill-opacity="1" /><polyline clip-path="url(#clip642)" style="stroke:#000000; stroke-linecap:round; stroke-linejoin:round; stroke-width:2; stroke-opacity:0.1; fill:none" points="249.542,1423.18 2352.76,1423.18 "/>
<polyline clip-path="url(#clip642)" style="stroke:#000000; stroke-linecap:round; stroke-linejoin:round; stroke-width:2; stroke-opacity:0.1; fill:none" points="249.542,1226.62 2352.76,1226.62 "/>
<polyline clip-path="url(#clip642)" style="stroke:#000000; stroke-linecap:round; stroke-linejoin:round; stroke-width:2; stroke-opacity:0.1; fill:none" points="249.542,1030.06 2352.76,1030.06 "/>
<polyline clip-path="url(#clip642)" style="stroke:#000000; stroke-linecap:round; stroke-linejoin:round; stroke-width:2; stroke-opacity:0.1; fill:none" points="249.542,833.493 2352.76,833.493 "/>
<polyline clip-path="url(#clip642)" style="stroke:#000000; stroke-linecap:round; stroke-linejoin:round; stroke-width:2; stroke-opacity:0.1; fill:none" points="249.542,636.931 2352.76,636.931 "/>
<polyline clip-path="url(#clip642)" style="stroke:#000000; stroke-linecap:round; stroke-linejoin:round; stroke-width:2; stroke-opacity:0.1; fill:none" points="249.542,440.369 2352.76,440.369 "/>
<polyline clip-path="url(#clip642)" style="stroke:#000000; stroke-linecap:round; stroke-linejoin:round; stroke-width:2; stroke-opacity:0.1; fill:none" points="249.542,243.806 2352.76,243.806 "/>
<polyline clip-path="url(#clip642)" style="stroke:#000000; stroke-linecap:round; stroke-linejoin:round; stroke-width:2; stroke-opacity:0.1; fill:none" points="249.542,47.2441 2352.76,47.2441 "/>
<polyline clip-path="url(#clip640)" style="stroke:#000000; stroke-linecap:round; stroke-linejoin:round; stroke-width:4; stroke-opacity:1; fill:none" points="249.542,1423.18 249.542,47.2441 "/>
<polyline clip-path="url(#clip640)" style="stroke:#000000; stroke-linecap:round; stroke-linejoin:round; stroke-width:4; stroke-opacity:1; fill:none" points="249.542,1423.18 268.44,1423.18 "/>
<polyline clip-path="url(#clip640)" style="stroke:#000000; stroke-linecap:round; stroke-linejoin:round; stroke-width:4; stroke-opacity:1; fill:none" points="249.542,1226.62 268.44,1226.62 "/>
<polyline clip-path="url(#clip640)" style="stroke:#000000; stroke-linecap:round; stroke-linejoin:round; stroke-width:4; stroke-opacity:1; fill:none" points="249.542,1030.06 268.44,1030.06 "/>
<polyline clip-path="url(#clip640)" style="stroke:#000000; stroke-linecap:round; stroke-linejoin:round; stroke-width:4; stroke-opacity:1; fill:none" points="249.542,833.493 268.44,833.493 "/>
<polyline clip-path="url(#clip640)" style="stroke:#000000; stroke-linecap:round; stroke-linejoin:round; stroke-width:4; stroke-opacity:1; fill:none" points="249.542,636.931 268.44,636.931 "/>
<polyline clip-path="url(#clip640)" style="stroke:#000000; stroke-linecap:round; stroke-linejoin:round; stroke-width:4; stroke-opacity:1; fill:none" points="249.542,440.369 268.44,440.369 "/>
<polyline clip-path="url(#clip640)" style="stroke:#000000; stroke-linecap:round; stroke-linejoin:round; stroke-width:4; stroke-opacity:1; fill:none" points="249.542,243.806 268.44,243.806 "/>
<polyline clip-path="url(#clip640)" style="stroke:#000000; stroke-linecap:round; stroke-linejoin:round; stroke-width:4; stroke-opacity:1; fill:none" points="249.542,47.2441 268.44,47.2441 "/>
<path clip-path="url(#clip640)" d="M126.205 1408.98 Q122.593 1408.98 120.765 1412.54 Q118.959 1416.08 118.959 1423.21 Q118.959 1430.32 120.765 1433.89 Q122.593 1437.43 126.205 1437.43 Q129.839 1437.43 131.644 1433.89 Q133.473 1430.32 133.473 1423.21 Q133.473 1416.08 131.644 1412.54 Q129.839 1408.98 126.205 1408.98 M126.205 1405.27 Q132.015 1405.27 135.07 1409.88 Q138.149 1414.46 138.149 1423.21 Q138.149 1431.94 135.07 1436.55 Q132.015 1441.13 126.205 1441.13 Q120.394 1441.13 117.316 1436.55 Q114.26 1431.94 114.26 1423.21 Q114.26 1414.46 117.316 1409.88 Q120.394 1405.27 126.205 1405.27 Z" fill="#000000" fill-rule="nonzero" fill-opacity="1" /><path clip-path="url(#clip640)" d="M146.366 1434.58 L151.251 1434.58 L151.251 1440.46 L146.366 1440.46 L146.366 1434.58 Z" fill="#000000" fill-rule="nonzero" fill-opacity="1" /><path clip-path="url(#clip640)" d="M171.436 1408.98 Q167.825 1408.98 165.996 1412.54 Q164.19 1416.08 164.19 1423.21 Q164.19 1430.32 165.996 1433.89 Q167.825 1437.43 171.436 1437.43 Q175.07 1437.43 176.876 1433.89 Q178.704 1430.32 178.704 1423.21 Q178.704 1416.08 176.876 1412.54 Q175.07 1408.98 171.436 1408.98 M171.436 1405.27 Q177.246 1405.27 180.301 1409.88 Q183.38 1414.46 183.38 1423.21 Q183.38 1431.94 180.301 1436.55 Q177.246 1441.13 171.436 1441.13 Q165.626 1441.13 162.547 1436.55 Q159.491 1431.94 159.491 1423.21 Q159.491 1414.46 162.547 1409.88 Q165.626 1405.27 171.436 1405.27 Z" fill="#000000" fill-rule="nonzero" fill-opacity="1" /><path clip-path="url(#clip640)" d="M201.598 1408.98 Q197.987 1408.98 196.158 1412.54 Q194.352 1416.08 194.352 1423.21 Q194.352 1430.32 196.158 1433.89 Q197.987 1437.43 201.598 1437.43 Q205.232 1437.43 207.037 1433.89 Q208.866 1430.32 208.866 1423.21 Q208.866 1416.08 207.037 1412.54 Q205.232 1408.98 201.598 1408.98 M201.598 1405.27 Q207.408 1405.27 210.463 1409.88 Q213.542 1414.46 213.542 1423.21 Q213.542 1431.94 210.463 1436.55 Q207.408 1441.13 201.598 1441.13 Q195.787 1441.13 192.709 1436.55 Q189.653 1431.94 189.653 1423.21 Q189.653 1414.46 192.709 1409.88 Q195.787 1405.27 201.598 1405.27 Z" fill="#000000" fill-rule="nonzero" fill-opacity="1" /><path clip-path="url(#clip640)" d="M127.2 1212.42 Q123.589 1212.42 121.76 1215.98 Q119.955 1219.52 119.955 1226.65 Q119.955 1233.76 121.76 1237.32 Q123.589 1240.87 127.2 1240.87 Q130.834 1240.87 132.64 1237.32 Q134.468 1233.76 134.468 1226.65 Q134.468 1219.52 132.64 1215.98 Q130.834 1212.42 127.2 1212.42 M127.2 1208.71 Q133.01 1208.71 136.066 1213.32 Q139.144 1217.9 139.144 1226.65 Q139.144 1235.38 136.066 1239.99 Q133.01 1244.57 127.2 1244.57 Q121.39 1244.57 118.311 1239.99 Q115.256 1235.38 115.256 1226.65 Q115.256 1217.9 118.311 1213.32 Q121.39 1208.71 127.2 1208.71 Z" fill="#000000" fill-rule="nonzero" fill-opacity="1" /><path clip-path="url(#clip640)" d="M147.362 1238.02 L152.246 1238.02 L152.246 1243.9 L147.362 1243.9 L147.362 1238.02 Z" fill="#000000" fill-rule="nonzero" fill-opacity="1" /><path clip-path="url(#clip640)" d="M172.431 1212.42 Q168.82 1212.42 166.991 1215.98 Q165.186 1219.52 165.186 1226.65 Q165.186 1233.76 166.991 1237.32 Q168.82 1240.87 172.431 1240.87 Q176.065 1240.87 177.871 1237.32 Q179.7 1233.76 179.7 1226.65 Q179.7 1219.52 177.871 1215.98 Q176.065 1212.42 172.431 1212.42 M172.431 1208.71 Q178.241 1208.71 181.297 1213.32 Q184.376 1217.9 184.376 1226.65 Q184.376 1235.38 181.297 1239.99 Q178.241 1244.57 172.431 1244.57 Q166.621 1244.57 163.542 1239.99 Q160.487 1235.38 160.487 1226.65 Q160.487 1217.9 163.542 1213.32 Q166.621 1208.71 172.431 1208.71 Z" fill="#000000" fill-rule="nonzero" fill-opacity="1" /><path clip-path="url(#clip640)" d="M192.639 1209.34 L210.996 1209.34 L210.996 1213.27 L196.922 1213.27 L196.922 1221.74 Q197.94 1221.4 198.959 1221.24 Q199.977 1221.05 200.996 1221.05 Q206.783 1221.05 210.162 1224.22 Q213.542 1227.39 213.542 1232.81 Q213.542 1238.39 210.07 1241.49 Q206.598 1244.57 200.278 1244.57 Q198.102 1244.57 195.834 1244.2 Q193.588 1243.83 191.181 1243.09 L191.181 1238.39 Q193.264 1239.52 195.487 1240.08 Q197.709 1240.63 200.186 1240.63 Q204.19 1240.63 206.528 1238.53 Q208.866 1236.42 208.866 1232.81 Q208.866 1229.2 206.528 1227.09 Q204.19 1224.99 200.186 1224.99 Q198.311 1224.99 196.436 1225.4 Q194.584 1225.82 192.639 1226.7 L192.639 1209.34 Z" fill="#000000" fill-rule="nonzero" fill-opacity="1" /><path clip-path="url(#clip640)" d="M126.205 1015.85 Q122.593 1015.85 120.765 1019.42 Q118.959 1022.96 118.959 1030.09 Q118.959 1037.2 120.765 1040.76 Q122.593 1044.3 126.205 1044.3 Q129.839 1044.3 131.644 1040.76 Q133.473 1037.2 133.473 1030.09 Q133.473 1022.96 131.644 1019.42 Q129.839 1015.85 126.205 1015.85 M126.205 1012.15 Q132.015 1012.15 135.07 1016.76 Q138.149 1021.34 138.149 1030.09 Q138.149 1038.82 135.07 1043.42 Q132.015 1048.01 126.205 1048.01 Q120.394 1048.01 117.316 1043.42 Q114.26 1038.82 114.26 1030.09 Q114.26 1021.34 117.316 1016.76 Q120.394 1012.15 126.205 1012.15 Z" fill="#000000" fill-rule="nonzero" fill-opacity="1" /><path clip-path="url(#clip640)" d="M146.366 1041.46 L151.251 1041.46 L151.251 1047.34 L146.366 1047.34 L146.366 1041.46 Z" fill="#000000" fill-rule="nonzero" fill-opacity="1" /><path clip-path="url(#clip640)" d="M162.246 1043.4 L169.885 1043.4 L169.885 1017.03 L161.575 1018.7 L161.575 1014.44 L169.839 1012.78 L174.514 1012.78 L174.514 1043.4 L182.153 1043.4 L182.153 1047.34 L162.246 1047.34 L162.246 1043.4 Z" fill="#000000" fill-rule="nonzero" fill-opacity="1" /><path clip-path="url(#clip640)" d="M201.598 1015.85 Q197.987 1015.85 196.158 1019.42 Q194.352 1022.96 194.352 1030.09 Q194.352 1037.2 196.158 1040.76 Q197.987 1044.3 201.598 1044.3 Q205.232 1044.3 207.037 1040.76 Q208.866 1037.2 208.866 1030.09 Q208.866 1022.96 207.037 1019.42 Q205.232 1015.85 201.598 1015.85 M201.598 1012.15 Q207.408 1012.15 210.463 1016.76 Q213.542 1021.34 213.542 1030.09 Q213.542 1038.82 210.463 1043.42 Q207.408 1048.01 201.598 1048.01 Q195.787 1048.01 192.709 1043.42 Q189.653 1038.82 189.653 1030.09 Q189.653 1021.34 192.709 1016.76 Q195.787 1012.15 201.598 1012.15 Z" fill="#000000" fill-rule="nonzero" fill-opacity="1" /><path clip-path="url(#clip640)" d="M127.2 819.292 Q123.589 819.292 121.76 822.857 Q119.955 826.398 119.955 833.528 Q119.955 840.634 121.76 844.199 Q123.589 847.741 127.2 847.741 Q130.834 847.741 132.64 844.199 Q134.468 840.634 134.468 833.528 Q134.468 826.398 132.64 822.857 Q130.834 819.292 127.2 819.292 M127.2 815.588 Q133.01 815.588 136.066 820.195 Q139.144 824.778 139.144 833.528 Q139.144 842.255 136.066 846.861 Q133.01 851.444 127.2 851.444 Q121.39 851.444 118.311 846.861 Q115.256 842.255 115.256 833.528 Q115.256 824.778 118.311 820.195 Q121.39 815.588 127.2 815.588 Z" fill="#000000" fill-rule="nonzero" fill-opacity="1" /><path clip-path="url(#clip640)" d="M147.362 844.893 L152.246 844.893 L152.246 850.773 L147.362 850.773 L147.362 844.893 Z" fill="#000000" fill-rule="nonzero" fill-opacity="1" /><path clip-path="url(#clip640)" d="M163.241 846.838 L170.88 846.838 L170.88 820.472 L162.57 822.139 L162.57 817.88 L170.834 816.213 L175.51 816.213 L175.51 846.838 L183.149 846.838 L183.149 850.773 L163.241 850.773 L163.241 846.838 Z" fill="#000000" fill-rule="nonzero" fill-opacity="1" /><path clip-path="url(#clip640)" d="M192.639 816.213 L210.996 816.213 L210.996 820.148 L196.922 820.148 L196.922 828.62 Q197.94 828.273 198.959 828.111 Q199.977 827.926 200.996 827.926 Q206.783 827.926 210.162 831.097 Q213.542 834.269 213.542 839.685 Q213.542 845.264 210.07 848.366 Q206.598 851.444 200.278 851.444 Q198.102 851.444 195.834 851.074 Q193.588 850.704 191.181 849.963 L191.181 845.264 Q193.264 846.398 195.487 846.954 Q197.709 847.509 200.186 847.509 Q204.19 847.509 206.528 845.403 Q208.866 843.296 208.866 839.685 Q208.866 836.074 206.528 833.968 Q204.19 831.861 200.186 831.861 Q198.311 831.861 196.436 832.278 Q194.584 832.694 192.639 833.574 L192.639 816.213 Z" fill="#000000" fill-rule="nonzero" fill-opacity="1" /><path clip-path="url(#clip640)" d="M126.205 622.73 Q122.593 622.73 120.765 626.294 Q118.959 629.836 118.959 636.966 Q118.959 644.072 120.765 647.637 Q122.593 651.178 126.205 651.178 Q129.839 651.178 131.644 647.637 Q133.473 644.072 133.473 636.966 Q133.473 629.836 131.644 626.294 Q129.839 622.73 126.205 622.73 M126.205 619.026 Q132.015 619.026 135.07 623.632 Q138.149 628.216 138.149 636.966 Q138.149 645.692 135.07 650.299 Q132.015 654.882 126.205 654.882 Q120.394 654.882 117.316 650.299 Q114.26 645.692 114.26 636.966 Q114.26 628.216 117.316 623.632 Q120.394 619.026 126.205 619.026 Z" fill="#000000" fill-rule="nonzero" fill-opacity="1" /><path clip-path="url(#clip640)" d="M146.366 648.331 L151.251 648.331 L151.251 654.211 L146.366 654.211 L146.366 648.331 Z" fill="#000000" fill-rule="nonzero" fill-opacity="1" /><path clip-path="url(#clip640)" d="M165.464 650.276 L181.783 650.276 L181.783 654.211 L159.839 654.211 L159.839 650.276 Q162.501 647.521 167.084 642.891 Q171.69 638.239 172.871 636.896 Q175.116 634.373 175.996 632.637 Q176.899 630.878 176.899 629.188 Q176.899 626.433 174.954 624.697 Q173.033 622.961 169.931 622.961 Q167.732 622.961 165.278 623.725 Q162.848 624.489 160.07 626.04 L160.07 621.318 Q162.894 620.183 165.348 619.605 Q167.802 619.026 169.839 619.026 Q175.209 619.026 178.403 621.711 Q181.598 624.396 181.598 628.887 Q181.598 631.017 180.788 632.938 Q180.001 634.836 177.894 637.429 Q177.315 638.1 174.214 641.317 Q171.112 644.512 165.464 650.276 Z" fill="#000000" fill-rule="nonzero" fill-opacity="1" /><path clip-path="url(#clip640)" d="M201.598 622.73 Q197.987 622.73 196.158 626.294 Q194.352 629.836 194.352 636.966 Q194.352 644.072 196.158 647.637 Q197.987 651.178 201.598 651.178 Q205.232 651.178 207.037 647.637 Q208.866 644.072 208.866 636.966 Q208.866 629.836 207.037 626.294 Q205.232 622.73 201.598 622.73 M201.598 619.026 Q207.408 619.026 210.463 623.632 Q213.542 628.216 213.542 636.966 Q213.542 645.692 210.463 650.299 Q207.408 654.882 201.598 654.882 Q195.787 654.882 192.709 650.299 Q189.653 645.692 189.653 636.966 Q189.653 628.216 192.709 623.632 Q195.787 619.026 201.598 619.026 Z" fill="#000000" fill-rule="nonzero" fill-opacity="1" /><path clip-path="url(#clip640)" d="M127.2 426.167 Q123.589 426.167 121.76 429.732 Q119.955 433.274 119.955 440.403 Q119.955 447.51 121.76 451.075 Q123.589 454.616 127.2 454.616 Q130.834 454.616 132.64 451.075 Q134.468 447.51 134.468 440.403 Q134.468 433.274 132.64 429.732 Q130.834 426.167 127.2 426.167 M127.2 422.464 Q133.01 422.464 136.066 427.07 Q139.144 431.653 139.144 440.403 Q139.144 449.13 136.066 453.737 Q133.01 458.32 127.2 458.32 Q121.39 458.32 118.311 453.737 Q115.256 449.13 115.256 440.403 Q115.256 431.653 118.311 427.07 Q121.39 422.464 127.2 422.464 Z" fill="#000000" fill-rule="nonzero" fill-opacity="1" /><path clip-path="url(#clip640)" d="M147.362 451.769 L152.246 451.769 L152.246 457.649 L147.362 457.649 L147.362 451.769 Z" fill="#000000" fill-rule="nonzero" fill-opacity="1" /><path clip-path="url(#clip640)" d="M166.459 453.713 L182.778 453.713 L182.778 457.649 L160.834 457.649 L160.834 453.713 Q163.496 450.959 168.079 446.329 Q172.686 441.676 173.866 440.334 Q176.112 437.811 176.991 436.075 Q177.894 434.315 177.894 432.626 Q177.894 429.871 175.95 428.135 Q174.028 426.399 170.927 426.399 Q168.727 426.399 166.274 427.163 Q163.843 427.927 161.065 429.477 L161.065 424.755 Q163.89 423.621 166.343 423.042 Q168.797 422.464 170.834 422.464 Q176.204 422.464 179.399 425.149 Q182.593 427.834 182.593 432.325 Q182.593 434.454 181.783 436.376 Q180.996 438.274 178.889 440.866 Q178.311 441.538 175.209 444.755 Q172.107 447.95 166.459 453.713 Z" fill="#000000" fill-rule="nonzero" fill-opacity="1" /><path clip-path="url(#clip640)" d="M192.639 423.089 L210.996 423.089 L210.996 427.024 L196.922 427.024 L196.922 435.496 Q197.94 435.149 198.959 434.987 Q199.977 434.801 200.996 434.801 Q206.783 434.801 210.162 437.973 Q213.542 441.144 213.542 446.561 Q213.542 452.139 210.07 455.241 Q206.598 458.32 200.278 458.32 Q198.102 458.32 195.834 457.95 Q193.588 457.579 191.181 456.838 L191.181 452.139 Q193.264 453.274 195.487 453.829 Q197.709 454.385 200.186 454.385 Q204.19 454.385 206.528 452.278 Q208.866 450.172 208.866 446.561 Q208.866 442.95 206.528 440.843 Q204.19 438.737 200.186 438.737 Q198.311 438.737 196.436 439.153 Q194.584 439.57 192.639 440.45 L192.639 423.089 Z" fill="#000000" fill-rule="nonzero" fill-opacity="1" /><path clip-path="url(#clip640)" d="M126.205 229.605 Q122.593 229.605 120.765 233.17 Q118.959 236.711 118.959 243.841 Q118.959 250.948 120.765 254.512 Q122.593 258.054 126.205 258.054 Q129.839 258.054 131.644 254.512 Q133.473 250.948 133.473 243.841 Q133.473 236.711 131.644 233.17 Q129.839 229.605 126.205 229.605 M126.205 225.901 Q132.015 225.901 135.07 230.508 Q138.149 235.091 138.149 243.841 Q138.149 252.568 135.07 257.174 Q132.015 261.758 126.205 261.758 Q120.394 261.758 117.316 257.174 Q114.26 252.568 114.26 243.841 Q114.26 235.091 117.316 230.508 Q120.394 225.901 126.205 225.901 Z" fill="#000000" fill-rule="nonzero" fill-opacity="1" /><path clip-path="url(#clip640)" d="M146.366 255.207 L151.251 255.207 L151.251 261.086 L146.366 261.086 L146.366 255.207 Z" fill="#000000" fill-rule="nonzero" fill-opacity="1" /><path clip-path="url(#clip640)" d="M175.602 242.452 Q178.959 243.17 180.834 245.438 Q182.732 247.707 182.732 251.04 Q182.732 256.156 179.214 258.957 Q175.695 261.758 169.214 261.758 Q167.038 261.758 164.723 261.318 Q162.431 260.901 159.978 260.045 L159.978 255.531 Q161.922 256.665 164.237 257.244 Q166.552 257.822 169.075 257.822 Q173.473 257.822 175.764 256.086 Q178.079 254.35 178.079 251.04 Q178.079 247.985 175.926 246.272 Q173.797 244.536 169.977 244.536 L165.95 244.536 L165.95 240.693 L170.163 240.693 Q173.612 240.693 175.44 239.327 Q177.269 237.938 177.269 235.346 Q177.269 232.684 175.371 231.272 Q173.496 229.837 169.977 229.837 Q168.056 229.837 165.857 230.253 Q163.658 230.67 161.019 231.549 L161.019 227.383 Q163.681 226.642 165.996 226.272 Q168.334 225.901 170.394 225.901 Q175.718 225.901 178.82 228.332 Q181.922 230.739 181.922 234.86 Q181.922 237.73 180.278 239.721 Q178.635 241.688 175.602 242.452 Z" fill="#000000" fill-rule="nonzero" fill-opacity="1" /><path clip-path="url(#clip640)" d="M201.598 229.605 Q197.987 229.605 196.158 233.17 Q194.352 236.711 194.352 243.841 Q194.352 250.948 196.158 254.512 Q197.987 258.054 201.598 258.054 Q205.232 258.054 207.037 254.512 Q208.866 250.948 208.866 243.841 Q208.866 236.711 207.037 233.17 Q205.232 229.605 201.598 229.605 M201.598 225.901 Q207.408 225.901 210.463 230.508 Q213.542 235.091 213.542 243.841 Q213.542 252.568 210.463 257.174 Q207.408 261.758 201.598 261.758 Q195.787 261.758 192.709 257.174 Q189.653 252.568 189.653 243.841 Q189.653 235.091 192.709 230.508 Q195.787 225.901 201.598 225.901 Z" fill="#000000" fill-rule="nonzero" fill-opacity="1" /><path clip-path="url(#clip640)" d="M127.2 33.0428 Q123.589 33.0428 121.76 36.6076 Q119.955 40.1492 119.955 47.2788 Q119.955 54.3853 121.76 57.9501 Q123.589 61.4917 127.2 61.4917 Q130.834 61.4917 132.64 57.9501 Q134.468 54.3853 134.468 47.2788 Q134.468 40.1492 132.64 36.6076 Q130.834 33.0428 127.2 33.0428 M127.2 29.3391 Q133.01 29.3391 136.066 33.9456 Q139.144 38.5289 139.144 47.2788 Q139.144 56.0056 136.066 60.6121 Q133.01 65.1954 127.2 65.1954 Q121.39 65.1954 118.311 60.6121 Q115.256 56.0056 115.256 47.2788 Q115.256 38.5289 118.311 33.9456 Q121.39 29.3391 127.2 29.3391 Z" fill="#000000" fill-rule="nonzero" fill-opacity="1" /><path clip-path="url(#clip640)" d="M147.362 58.6445 L152.246 58.6445 L152.246 64.5241 L147.362 64.5241 L147.362 58.6445 Z" fill="#000000" fill-rule="nonzero" fill-opacity="1" /><path clip-path="url(#clip640)" d="M176.598 45.8899 Q179.954 46.6075 181.829 48.876 Q183.727 51.1445 183.727 54.4779 Q183.727 59.5936 180.209 62.3945 Q176.69 65.1954 170.209 65.1954 Q168.033 65.1954 165.718 64.7556 Q163.427 64.3389 160.973 63.4824 L160.973 58.9686 Q162.917 60.1028 165.232 60.6815 Q167.547 61.2602 170.07 61.2602 Q174.468 61.2602 176.76 59.5241 Q179.075 57.788 179.075 54.4779 Q179.075 51.4223 176.922 49.7094 Q174.792 47.9733 170.973 47.9733 L166.945 47.9733 L166.945 44.1307 L171.158 44.1307 Q174.607 44.1307 176.436 42.765 Q178.264 41.3761 178.264 38.7835 Q178.264 36.1215 176.366 34.7094 Q174.491 33.2743 170.973 33.2743 Q169.052 33.2743 166.852 33.6909 Q164.653 34.1076 162.015 34.9872 L162.015 30.8206 Q164.677 30.0798 166.991 29.7095 Q169.329 29.3391 171.389 29.3391 Q176.714 29.3391 179.815 31.7696 Q182.917 34.177 182.917 38.2974 Q182.917 41.1677 181.274 43.1585 Q179.63 45.1261 176.598 45.8899 Z" fill="#000000" fill-rule="nonzero" fill-opacity="1" /><path clip-path="url(#clip640)" d="M192.639 29.9641 L210.996 29.9641 L210.996 33.8993 L196.922 33.8993 L196.922 42.3714 Q197.94 42.0242 198.959 41.8622 Q199.977 41.677 200.996 41.677 Q206.783 41.677 210.162 44.8483 Q213.542 48.0196 213.542 53.4362 Q213.542 59.0149 210.07 62.1167 Q206.598 65.1954 200.278 65.1954 Q198.102 65.1954 195.834 64.825 Q193.588 64.4547 191.181 63.7139 L191.181 59.0149 Q193.264 60.1491 195.487 60.7047 Q197.709 61.2602 200.186 61.2602 Q204.19 61.2602 206.528 59.1538 Q208.866 57.0473 208.866 53.4362 Q208.866 49.8251 206.528 47.7186 Q204.19 45.6122 200.186 45.6122 Q198.311 45.6122 196.436 46.0288 Q194.584 46.4455 192.639 47.3251 L192.639 29.9641 Z" fill="#000000" fill-rule="nonzero" fill-opacity="1" /><path clip-path="url(#clip640)" d="M21.7677 896.901 L39.6235 896.901 L39.6235 888.816 Q39.6235 884.329 37.3 881.878 Q34.9765 879.427 30.6797 879.427 Q26.4147 879.427 24.0912 881.878 Q21.7677 884.329 21.7677 888.816 L21.7677 896.901 M16.4842 903.33 L16.4842 888.816 Q16.4842 880.828 20.1126 876.753 Q23.7092 872.648 30.6797 872.648 Q37.7138 872.648 41.3104 876.753 Q44.907 880.828 44.907 888.816 L44.907 896.901 L64.0042 896.901 L64.0042 903.33 L16.4842 903.33 Z" fill="#000000" fill-rule="nonzero" fill-opacity="1" /><path clip-path="url(#clip640)" d="M33.8307 844.766 Q33.2578 845.752 33.0032 846.93 Q32.7167 848.076 32.7167 849.476 Q32.7167 854.442 35.9632 857.115 Q39.1779 859.757 45.2253 859.757 L64.0042 859.757 L64.0042 865.645 L28.3562 865.645 L28.3562 859.757 L33.8944 859.757 Q30.6479 857.911 29.0883 854.951 Q27.4968 851.991 27.4968 847.758 Q27.4968 847.153 27.5923 846.421 Q27.656 845.689 27.8151 844.798 L33.8307 844.766 Z" fill="#000000" fill-rule="nonzero" fill-opacity="1" /><path clip-path="url(#clip640)" d="M32.4621 826.242 Q32.4621 830.952 36.1542 833.689 Q39.8145 836.427 46.212 836.427 Q52.6095 836.427 56.3017 833.721 Q59.9619 830.984 59.9619 826.242 Q59.9619 821.563 56.2698 818.826 Q52.5777 816.088 46.212 816.088 Q39.8781 816.088 36.186 818.826 Q32.4621 821.563 32.4621 826.242 M27.4968 826.242 Q27.4968 818.603 32.4621 814.242 Q37.4273 809.882 46.212 809.882 Q54.9649 809.882 59.9619 814.242 Q64.9272 818.603 64.9272 826.242 Q64.9272 833.912 59.9619 838.273 Q54.9649 842.601 46.212 842.601 Q37.4273 842.601 32.4621 838.273 Q27.4968 833.912 27.4968 826.242 Z" fill="#000000" fill-rule="nonzero" fill-opacity="1" /><path clip-path="url(#clip640)" d="M46.212 774.584 Q39.7508 774.584 36.0905 777.257 Q32.3984 779.899 32.3984 784.546 Q32.3984 789.193 36.0905 791.867 Q39.7508 794.509 46.212 794.509 Q52.6732 794.509 56.3653 791.867 Q60.0256 789.193 60.0256 784.546 Q60.0256 779.899 56.3653 777.257 Q52.6732 774.584 46.212 774.584 M33.7671 794.509 Q30.5842 792.662 29.0564 789.862 Q27.4968 787.029 27.4968 783.114 Q27.4968 776.621 32.6531 772.579 Q37.8093 768.505 46.212 768.505 Q54.6147 768.505 59.771 772.579 Q64.9272 776.621 64.9272 783.114 Q64.9272 787.029 63.3994 789.862 Q61.8398 792.662 58.657 794.509 L64.0042 794.509 L64.0042 800.397 L14.479 800.397 L14.479 794.509 L33.7671 794.509 Z" fill="#000000" fill-rule="nonzero" fill-opacity="1" /><path clip-path="url(#clip640)" d="M46.0847 742.596 Q46.0847 749.694 47.7079 752.431 Q49.3312 755.168 53.2461 755.168 Q56.3653 755.168 58.2114 753.131 Q60.0256 751.063 60.0256 747.53 Q60.0256 742.66 56.5881 739.732 Q53.1188 736.772 47.3897 736.772 L46.0847 736.772 L46.0847 742.596 M43.6657 730.915 L64.0042 730.915 L64.0042 736.772 L58.5933 736.772 Q61.8398 738.777 63.3994 741.769 Q64.9272 744.761 64.9272 749.089 Q64.9272 754.564 61.8716 757.81 Q58.7843 761.025 53.6281 761.025 Q47.6125 761.025 44.5569 757.015 Q41.5014 752.972 41.5014 744.983 L41.5014 736.772 L40.9285 736.772 Q36.8862 736.772 34.6901 739.445 Q32.4621 742.087 32.4621 746.893 Q32.4621 749.949 33.1941 752.845 Q33.9262 755.741 35.3903 758.415 L29.9795 758.415 Q28.7381 755.2 28.1334 752.177 Q27.4968 749.153 27.4968 746.288 Q27.4968 738.554 31.5072 734.735 Q35.5176 730.915 43.6657 730.915 Z" fill="#000000" fill-rule="nonzero" fill-opacity="1" /><path clip-path="url(#clip640)" d="M46.212 693.262 Q39.7508 693.262 36.0905 695.936 Q32.3984 698.577 32.3984 703.224 Q32.3984 707.871 36.0905 710.545 Q39.7508 713.187 46.212 713.187 Q52.6732 713.187 56.3653 710.545 Q60.0256 707.871 60.0256 703.224 Q60.0256 698.577 56.3653 695.936 Q52.6732 693.262 46.212 693.262 M33.7671 713.187 Q30.5842 711.341 29.0564 708.54 Q27.4968 705.707 27.4968 701.792 Q27.4968 695.299 32.6531 691.257 Q37.8093 687.183 46.212 687.183 Q54.6147 687.183 59.771 691.257 Q64.9272 695.299 64.9272 701.792 Q64.9272 705.707 63.3994 708.54 Q61.8398 711.341 58.657 713.187 L64.0042 713.187 L64.0042 719.075 L14.479 719.075 L14.479 713.187 L33.7671 713.187 Z" fill="#000000" fill-rule="nonzero" fill-opacity="1" /><path clip-path="url(#clip640)" d="M28.3562 677.475 L28.3562 671.619 L64.0042 671.619 L64.0042 677.475 L28.3562 677.475 M14.479 677.475 L14.479 671.619 L21.895 671.619 L21.895 677.475 L14.479 677.475 Z" fill="#000000" fill-rule="nonzero" fill-opacity="1" /><path clip-path="url(#clip640)" d="M14.479 659.365 L14.479 653.508 L64.0042 653.508 L64.0042 659.365 L14.479 659.365 Z" fill="#000000" fill-rule="nonzero" fill-opacity="1" /><path clip-path="url(#clip640)" d="M28.3562 641.254 L28.3562 635.398 L64.0042 635.398 L64.0042 641.254 L28.3562 641.254 M14.479 641.254 L14.479 635.398 L21.895 635.398 L21.895 641.254 L14.479 641.254 Z" fill="#000000" fill-rule="nonzero" fill-opacity="1" /><path clip-path="url(#clip640)" d="M18.2347 617.351 L28.3562 617.351 L28.3562 605.288 L32.9077 605.288 L32.9077 617.351 L52.2594 617.351 Q56.6199 617.351 57.8613 616.173 Q59.1026 614.964 59.1026 611.303 L59.1026 605.288 L64.0042 605.288 L64.0042 611.303 Q64.0042 618.083 61.4897 620.661 Q58.9434 623.239 52.2594 623.239 L32.9077 623.239 L32.9077 627.536 L28.3562 627.536 L28.3562 623.239 L18.2347 623.239 L18.2347 617.351 Z" fill="#000000" fill-rule="nonzero" fill-opacity="1" /><path clip-path="url(#clip640)" d="M67.3143 582.753 Q73.68 585.236 75.6216 587.591 Q77.5631 589.947 77.5631 593.893 L77.5631 598.572 L72.6615 598.572 L72.6615 595.135 Q72.6615 592.716 71.5157 591.379 Q70.3699 590.042 66.1048 588.419 L63.4312 587.368 L28.3562 601.787 L28.3562 595.58 L56.238 584.44 L28.3562 573.3 L28.3562 567.094 L67.3143 582.753 Z" fill="#000000" fill-rule="nonzero" fill-opacity="1" /><path clip-path="url(#clip642)" d="M893.206 833.493 L893.206 1423.18 L1051.35 1423.18 L1051.35 833.493 L893.206 833.493 L893.206 833.493  Z" fill="#009af9" fill-rule="evenodd" fill-opacity="1"/>
<polyline clip-path="url(#clip642)" style="stroke:#000000; stroke-linecap:round; stroke-linejoin:round; stroke-width:4; stroke-opacity:1; fill:none" points="893.206,833.493 893.206,1423.18 1051.35,1423.18 1051.35,833.493 893.206,833.493 "/>
<path clip-path="url(#clip642)" d="M1051.35 47.2441 L1051.35 1423.18 L1209.5 1423.18 L1209.5 47.2441 L1051.35 47.2441 L1051.35 47.2441  Z" fill="#009af9" fill-rule="evenodd" fill-opacity="1"/>
<polyline clip-path="url(#clip642)" style="stroke:#000000; stroke-linecap:round; stroke-linejoin:round; stroke-width:4; stroke-opacity:1; fill:none" points="1051.35,47.2441 1051.35,1423.18 1209.5,1423.18 1209.5,47.2441 1051.35,47.2441 "/>
<path clip-path="url(#clip642)" d="M1209.5 1030.06 L1209.5 1423.18 L1367.65 1423.18 L1367.65 1030.06 L1209.5 1030.06 L1209.5 1030.06  Z" fill="#009af9" fill-rule="evenodd" fill-opacity="1"/>
<polyline clip-path="url(#clip642)" style="stroke:#000000; stroke-linecap:round; stroke-linejoin:round; stroke-width:4; stroke-opacity:1; fill:none" points="1209.5,1030.06 1209.5,1423.18 1367.65,1423.18 1367.65,1030.06 1209.5,1030.06 "/>
<path clip-path="url(#clip642)" d="M1367.65 1030.06 L1367.65 1423.18 L1525.8 1423.18 L1525.8 1030.06 L1367.65 1030.06 L1367.65 1030.06  Z" fill="#009af9" fill-rule="evenodd" fill-opacity="1"/>
<polyline clip-path="url(#clip642)" style="stroke:#000000; stroke-linecap:round; stroke-linejoin:round; stroke-width:4; stroke-opacity:1; fill:none" points="1367.65,1030.06 1367.65,1423.18 1525.8,1423.18 1525.8,1030.06 1367.65,1030.06 "/>
<path clip-path="url(#clip642)" d="M1525.8 440.369 L1525.8 1423.18 L1683.94 1423.18 L1683.94 440.369 L1525.8 440.369 L1525.8 440.369  Z" fill="#009af9" fill-rule="evenodd" fill-opacity="1"/>
<polyline clip-path="url(#clip642)" style="stroke:#000000; stroke-linecap:round; stroke-linejoin:round; stroke-width:4; stroke-opacity:1; fill:none" points="1525.8,440.369 1525.8,1423.18 1683.94,1423.18 1683.94,440.369 1525.8,440.369 "/>
<path clip-path="url(#clip642)" d="M1683.94 1226.62 L1683.94 1423.18 L1842.09 1423.18 L1842.09 1226.62 L1683.94 1226.62 L1683.94 1226.62  Z" fill="#009af9" fill-rule="evenodd" fill-opacity="1"/>
<polyline clip-path="url(#clip642)" style="stroke:#000000; stroke-linecap:round; stroke-linejoin:round; stroke-width:4; stroke-opacity:1; fill:none" points="1683.94,1226.62 1683.94,1423.18 1842.09,1423.18 1842.09,1226.62 1683.94,1226.62 "/>
<circle clip-path="url(#clip642)" style="fill:#009af9; stroke:none; fill-opacity:0" cx="972.28" cy="833.493" r="2"/>
<circle clip-path="url(#clip642)" style="fill:#009af9; stroke:none; fill-opacity:0" cx="1130.43" cy="47.2441" r="2"/>
<circle clip-path="url(#clip642)" style="fill:#009af9; stroke:none; fill-opacity:0" cx="1288.57" cy="1030.06" r="2"/>
<circle clip-path="url(#clip642)" style="fill:#009af9; stroke:none; fill-opacity:0" cx="1446.72" cy="1030.06" r="2"/>
<circle clip-path="url(#clip642)" style="fill:#009af9; stroke:none; fill-opacity:0" cx="1604.87" cy="440.369" r="2"/>
<circle clip-path="url(#clip642)" style="fill:#009af9; stroke:none; fill-opacity:0" cx="1763.02" cy="1226.62" r="2"/>
<polyline clip-path="url(#clip642)" style="stroke:#e26f46; stroke-linecap:round; stroke-linejoin:round; stroke-width:4; stroke-opacity:1; fill:none" points="309.067,1422.72 315.526,1422.68 321.985,1422.63 381.708,1421.96 441.43,1420.6 477.321,1419.23 513.212,1417.25 543.557,1414.94 573.903,1411.87 590.384,1409.82 606.866,1407.46 623.348,1404.75 639.83,1401.66 655.024,1398.44 670.219,1394.82 685.414,1390.79 700.609,1386.3 716.899,1380.94 733.189,1374.98 749.48,1368.4 765.77,1361.14 784.644,1351.85 803.518,1341.58 822.392,1330.3 841.266,1317.99 858.039,1306.18 874.812,1293.55 891.584,1280.13 908.357,1265.94 923.066,1252.91 937.774,1239.35 952.482,1225.31 967.191,1210.84 999.263,1178.13 1031.34,1144.44 1063.6,1110.46 1095.86,1077.44 1104.78,1068.63 1113.7,1060 1122.61,1051.57 1131.53,1043.38 1140.45,1035.43 1149.37,1027.77 1158.28,1020.4 1167.2,1013.35 1175.69,1006.96 1184.17,1000.9 1192.66,995.189 1201.14,989.836 1209.63,984.859 1218.11,980.273 1226.6,976.093 1235.08,972.329 1243.9,968.869 1252.73,965.884 1261.55,963.381 1270.37,961.371 1279.19,959.859 1288.01,958.85 1296.84,958.348 1305.66,958.353 1313.09,958.752 1320.51,959.51 1327.94,960.625 1335.37,962.096 1342.79,963.917 1350.22,966.086 1357.65,968.597 1365.07,971.444 1374.14,975.368 1383.21,979.769 1392.27,984.634 1401.34,989.947 1410.41,995.689 1419.47,1001.84 1428.54,1008.39 1437.61,1015.3 1454.22,1028.85 1470.83,1043.43 1479.14,1051.06 1487.44,1058.89 1495.75,1066.9 1504.05,1075.07 1534.74,1106.33 1565.42,1138.58 1596.51,1171.32 1627.59,1203.31 1645.01,1220.62 1662.42,1237.37 1679.84,1253.46 1697.26,1268.81 1713.04,1282.04 1728.82,1294.59 1744.61,1306.43 1760.39,1317.55 1778.46,1329.39 1796.53,1340.29 1814.6,1350.26 1832.67,1359.32 1849.4,1366.93 1866.13,1373.83 1882.87,1380.05 1899.6,1385.64 1916.09,1390.57 1932.59,1394.95 1949.08,1398.84 1965.58,1402.28 1981.6,1405.21 1997.61,1407.79 2013.63,1410.05 2029.64,1412.01 2062.48,1415.26 2095.31,1417.65 2131.29,1419.51 2167.27,1420.79 2219.53,1421.94 2271.79,1422.56 2282.51,1422.64 2293.23,1422.72 "/>
<path clip-path="url(#clip640)" d="M1317.77 196.789 L2282.65 196.789 L2282.65 93.1086 L1317.77 93.1086  Z" fill="#ffffff" fill-rule="evenodd" fill-opacity="1"/>
<polyline clip-path="url(#clip640)" style="stroke:#000000; stroke-linecap:round; stroke-linejoin:round; stroke-width:4; stroke-opacity:1; fill:none" points="1317.77,196.789 2282.65,196.789 2282.65,93.1086 1317.77,93.1086 1317.77,196.789 "/>
<polyline clip-path="url(#clip640)" style="stroke:#e26f46; stroke-linecap:round; stroke-linejoin:round; stroke-width:4; stroke-opacity:1; fill:none" points="1341.14,144.949 1481.35,144.949 "/>
<path clip-path="url(#clip640)" d="M1509.4 131.511 L1509.4 158.386 L1515.05 158.386 Q1522.2 158.386 1525.51 155.145 Q1528.84 151.905 1528.84 144.914 Q1528.84 137.969 1525.51 134.752 Q1522.2 131.511 1515.05 131.511 L1509.4 131.511 M1504.72 127.669 L1514.33 127.669 Q1524.38 127.669 1529.08 131.858 Q1533.77 136.025 1533.77 144.914 Q1533.77 153.849 1529.05 158.039 Q1524.33 162.229 1514.33 162.229 L1504.72 162.229 L1504.72 127.669 Z" fill="#000000" fill-rule="nonzero" fill-opacity="1" /><path clip-path="url(#clip640)" d="M1541.04 136.303 L1545.3 136.303 L1545.3 162.229 L1541.04 162.229 L1541.04 136.303 M1541.04 126.21 L1545.3 126.21 L1545.3 131.604 L1541.04 131.604 L1541.04 126.21 Z" fill="#000000" fill-rule="nonzero" fill-opacity="1" /><path clip-path="url(#clip640)" d="M1570.74 137.067 L1570.74 141.094 Q1568.94 140.169 1566.99 139.706 Q1565.05 139.243 1562.96 139.243 Q1559.79 139.243 1558.2 140.215 Q1556.62 141.187 1556.62 143.131 Q1556.62 144.613 1557.76 145.469 Q1558.89 146.303 1562.32 147.067 L1563.77 147.391 Q1568.31 148.363 1570.21 150.145 Q1572.13 151.905 1572.13 155.076 Q1572.13 158.687 1569.26 160.793 Q1566.41 162.9 1561.41 162.9 Q1559.33 162.9 1557.06 162.483 Q1554.82 162.09 1552.32 161.28 L1552.32 156.881 Q1554.68 158.108 1556.97 158.733 Q1559.26 159.335 1561.51 159.335 Q1564.51 159.335 1566.14 158.317 Q1567.76 157.275 1567.76 155.4 Q1567.76 153.664 1566.58 152.738 Q1565.42 151.812 1561.46 150.956 L1559.98 150.608 Q1556.02 149.775 1554.26 148.062 Q1552.5 146.326 1552.5 143.317 Q1552.5 139.659 1555.09 137.669 Q1557.69 135.678 1562.45 135.678 Q1564.82 135.678 1566.9 136.025 Q1568.98 136.372 1570.74 137.067 Z" fill="#000000" fill-rule="nonzero" fill-opacity="1" /><path clip-path="url(#clip640)" d="M1583.13 128.942 L1583.13 136.303 L1591.9 136.303 L1591.9 139.613 L1583.13 139.613 L1583.13 153.687 Q1583.13 156.858 1583.98 157.761 Q1584.86 158.664 1587.52 158.664 L1591.9 158.664 L1591.9 162.229 L1587.52 162.229 Q1582.59 162.229 1580.72 160.4 Q1578.84 158.548 1578.84 153.687 L1578.84 139.613 L1575.72 139.613 L1575.72 136.303 L1578.84 136.303 L1578.84 128.942 L1583.13 128.942 Z" fill="#000000" fill-rule="nonzero" fill-opacity="1" /><path clip-path="url(#clip640)" d="M1612.52 140.284 Q1611.81 139.868 1610.95 139.682 Q1610.12 139.474 1609.1 139.474 Q1605.49 139.474 1603.54 141.835 Q1601.62 144.173 1601.62 148.571 L1601.62 162.229 L1597.34 162.229 L1597.34 136.303 L1601.62 136.303 L1601.62 140.331 Q1602.96 137.969 1605.12 136.835 Q1607.27 135.678 1610.35 135.678 Q1610.79 135.678 1611.32 135.747 Q1611.85 135.794 1612.5 135.909 L1612.52 140.284 Z" fill="#000000" fill-rule="nonzero" fill-opacity="1" /><path clip-path="url(#clip640)" d="M1616.99 136.303 L1621.25 136.303 L1621.25 162.229 L1616.99 162.229 L1616.99 136.303 M1616.99 126.21 L1621.25 126.21 L1621.25 131.604 L1616.99 131.604 L1616.99 126.21 Z" fill="#000000" fill-rule="nonzero" fill-opacity="1" /><path clip-path="url(#clip640)" d="M1648.77 149.289 Q1648.77 144.59 1646.83 141.928 Q1644.91 139.243 1641.53 139.243 Q1638.15 139.243 1636.2 141.928 Q1634.28 144.59 1634.28 149.289 Q1634.28 153.988 1636.2 156.673 Q1638.15 159.335 1641.53 159.335 Q1644.91 159.335 1646.83 156.673 Q1648.77 153.988 1648.77 149.289 M1634.28 140.238 Q1635.63 137.923 1637.66 136.812 Q1639.72 135.678 1642.57 135.678 Q1647.29 135.678 1650.23 139.428 Q1653.2 143.178 1653.2 149.289 Q1653.2 155.4 1650.23 159.15 Q1647.29 162.9 1642.57 162.9 Q1639.72 162.9 1637.66 161.789 Q1635.63 160.655 1634.28 158.34 L1634.28 162.229 L1630 162.229 L1630 126.21 L1634.28 126.21 L1634.28 140.238 Z" fill="#000000" fill-rule="nonzero" fill-opacity="1" /><path clip-path="url(#clip640)" d="M1659.82 151.997 L1659.82 136.303 L1664.07 136.303 L1664.07 151.835 Q1664.07 155.516 1665.51 157.368 Q1666.94 159.196 1669.82 159.196 Q1673.26 159.196 1675.26 156.997 Q1677.27 154.798 1677.27 151.002 L1677.27 136.303 L1681.53 136.303 L1681.53 162.229 L1677.27 162.229 L1677.27 158.247 Q1675.72 160.608 1673.66 161.766 Q1671.62 162.9 1668.91 162.9 Q1664.44 162.9 1662.13 160.122 Q1659.82 157.344 1659.82 151.997 M1670.53 135.678 L1670.53 135.678 Z" fill="#000000" fill-rule="nonzero" fill-opacity="1" /><path clip-path="url(#clip640)" d="M1694.51 128.942 L1694.51 136.303 L1703.29 136.303 L1703.29 139.613 L1694.51 139.613 L1694.51 153.687 Q1694.51 156.858 1695.37 157.761 Q1696.25 158.664 1698.91 158.664 L1703.29 158.664 L1703.29 162.229 L1698.91 162.229 Q1693.98 162.229 1692.11 160.4 Q1690.23 158.548 1690.23 153.687 L1690.23 139.613 L1687.11 139.613 L1687.11 136.303 L1690.23 136.303 L1690.23 128.942 L1694.51 128.942 Z" fill="#000000" fill-rule="nonzero" fill-opacity="1" /><path clip-path="url(#clip640)" d="M1708.89 136.303 L1713.15 136.303 L1713.15 162.229 L1708.89 162.229 L1708.89 136.303 M1708.89 126.21 L1713.15 126.21 L1713.15 131.604 L1708.89 131.604 L1708.89 126.21 Z" fill="#000000" fill-rule="nonzero" fill-opacity="1" /><path clip-path="url(#clip640)" d="M1732.11 139.289 Q1728.68 139.289 1726.69 141.974 Q1724.7 144.636 1724.7 149.289 Q1724.7 153.942 1726.67 156.627 Q1728.66 159.289 1732.11 159.289 Q1735.51 159.289 1737.5 156.604 Q1739.49 153.918 1739.49 149.289 Q1739.49 144.682 1737.5 141.997 Q1735.51 139.289 1732.11 139.289 M1732.11 135.678 Q1737.66 135.678 1740.83 139.289 Q1744 142.9 1744 149.289 Q1744 155.655 1740.83 159.289 Q1737.66 162.9 1732.11 162.9 Q1726.53 162.9 1723.36 159.289 Q1720.21 155.655 1720.21 149.289 Q1720.21 142.9 1723.36 139.289 Q1726.53 135.678 1732.11 135.678 Z" fill="#000000" fill-rule="nonzero" fill-opacity="1" /><path clip-path="url(#clip640)" d="M1772.62 146.581 L1772.62 162.229 L1768.36 162.229 L1768.36 146.719 Q1768.36 143.039 1766.92 141.21 Q1765.49 139.382 1762.62 139.382 Q1759.17 139.382 1757.18 141.581 Q1755.19 143.78 1755.19 147.576 L1755.19 162.229 L1750.9 162.229 L1750.9 136.303 L1755.19 136.303 L1755.19 140.331 Q1756.71 137.993 1758.77 136.835 Q1760.86 135.678 1763.56 135.678 Q1768.03 135.678 1770.32 138.456 Q1772.62 141.21 1772.62 146.581 Z" fill="#000000" fill-rule="nonzero" fill-opacity="1" /><path clip-path="url(#clip640)" d="M1807.96 149.196 Q1802.8 149.196 1800.81 150.377 Q1798.82 151.557 1798.82 154.405 Q1798.82 156.673 1800.3 158.016 Q1801.81 159.335 1804.37 159.335 Q1807.92 159.335 1810.05 156.835 Q1812.2 154.312 1812.2 150.145 L1812.2 149.196 L1807.96 149.196 M1816.46 147.437 L1816.46 162.229 L1812.2 162.229 L1812.2 158.293 Q1810.74 160.655 1808.56 161.789 Q1806.39 162.9 1803.24 162.9 Q1799.26 162.9 1796.9 160.678 Q1794.56 158.432 1794.56 154.682 Q1794.56 150.307 1797.48 148.085 Q1800.42 145.863 1806.23 145.863 L1812.2 145.863 L1812.2 145.446 Q1812.2 142.507 1810.25 140.909 Q1808.33 139.289 1804.84 139.289 Q1802.62 139.289 1800.51 139.821 Q1798.4 140.354 1796.46 141.419 L1796.46 137.483 Q1798.8 136.581 1801 136.141 Q1803.19 135.678 1805.28 135.678 Q1810.9 135.678 1813.68 138.594 Q1816.46 141.511 1816.46 147.437 Z" fill="#000000" fill-rule="nonzero" fill-opacity="1" /><path clip-path="url(#clip640)" d="M1841.76 137.067 L1841.76 141.094 Q1839.95 140.169 1838.01 139.706 Q1836.06 139.243 1833.98 139.243 Q1830.81 139.243 1829.21 140.215 Q1827.64 141.187 1827.64 143.131 Q1827.64 144.613 1828.77 145.469 Q1829.91 146.303 1833.33 147.067 L1834.79 147.391 Q1839.33 148.363 1841.23 150.145 Q1843.15 151.905 1843.15 155.076 Q1843.15 158.687 1840.28 160.793 Q1837.43 162.9 1832.43 162.9 Q1830.35 162.9 1828.08 162.483 Q1825.83 162.09 1823.33 161.28 L1823.33 156.881 Q1825.69 158.108 1827.99 158.733 Q1830.28 159.335 1832.52 159.335 Q1835.53 159.335 1837.15 158.317 Q1838.77 157.275 1838.77 155.4 Q1838.77 153.664 1837.59 152.738 Q1836.43 151.812 1832.48 150.956 L1830.99 150.608 Q1827.04 149.775 1825.28 148.062 Q1823.52 146.326 1823.52 143.317 Q1823.52 139.659 1826.11 137.669 Q1828.7 135.678 1833.47 135.678 Q1835.83 135.678 1837.92 136.025 Q1840 136.372 1841.76 137.067 Z" fill="#000000" fill-rule="nonzero" fill-opacity="1" /><path clip-path="url(#clip640)" d="M1866.46 137.067 L1866.46 141.094 Q1864.65 140.169 1862.71 139.706 Q1860.76 139.243 1858.68 139.243 Q1855.51 139.243 1853.91 140.215 Q1852.34 141.187 1852.34 143.131 Q1852.34 144.613 1853.47 145.469 Q1854.61 146.303 1858.03 147.067 L1859.49 147.391 Q1864.03 148.363 1865.93 150.145 Q1867.85 151.905 1867.85 155.076 Q1867.85 158.687 1864.98 160.793 Q1862.13 162.9 1857.13 162.9 Q1855.05 162.9 1852.78 162.483 Q1850.53 162.09 1848.03 161.28 L1848.03 156.881 Q1850.39 158.108 1852.68 158.733 Q1854.98 159.335 1857.22 159.335 Q1860.23 159.335 1861.85 158.317 Q1863.47 157.275 1863.47 155.4 Q1863.47 153.664 1862.29 152.738 Q1861.13 151.812 1857.18 150.956 L1855.69 150.608 Q1851.74 149.775 1849.98 148.062 Q1848.22 146.326 1848.22 143.317 Q1848.22 139.659 1850.81 137.669 Q1853.4 135.678 1858.17 135.678 Q1860.53 135.678 1862.62 136.025 Q1864.7 136.372 1866.46 137.067 Z" fill="#000000" fill-rule="nonzero" fill-opacity="1" /><path clip-path="url(#clip640)" d="M1874.19 151.997 L1874.19 136.303 L1878.45 136.303 L1878.45 151.835 Q1878.45 155.516 1879.88 157.368 Q1881.32 159.196 1884.19 159.196 Q1887.64 159.196 1889.63 156.997 Q1891.64 154.798 1891.64 151.002 L1891.64 136.303 L1895.9 136.303 L1895.9 162.229 L1891.64 162.229 L1891.64 158.247 Q1890.09 160.608 1888.03 161.766 Q1885.99 162.9 1883.29 162.9 Q1878.82 162.9 1876.5 160.122 Q1874.19 157.344 1874.19 151.997 M1884.91 135.678 L1884.91 135.678 Z" fill="#000000" fill-rule="nonzero" fill-opacity="1" /><path clip-path="url(#clip640)" d="M1924.86 141.28 Q1926.46 138.409 1928.68 137.044 Q1930.9 135.678 1933.91 135.678 Q1937.96 135.678 1940.16 138.525 Q1942.36 141.349 1942.36 146.581 L1942.36 162.229 L1938.08 162.229 L1938.08 146.719 Q1938.08 142.993 1936.76 141.187 Q1935.44 139.382 1932.73 139.382 Q1929.42 139.382 1927.5 141.581 Q1925.58 143.78 1925.58 147.576 L1925.58 162.229 L1921.3 162.229 L1921.3 146.719 Q1921.3 142.969 1919.98 141.187 Q1918.66 139.382 1915.9 139.382 Q1912.64 139.382 1910.72 141.604 Q1908.8 143.803 1908.8 147.576 L1908.8 162.229 L1904.51 162.229 L1904.51 136.303 L1908.8 136.303 L1908.8 140.331 Q1910.25 137.946 1912.29 136.812 Q1914.33 135.678 1917.13 135.678 Q1919.95 135.678 1921.92 137.113 Q1923.91 138.548 1924.86 141.28 Z" fill="#000000" fill-rule="nonzero" fill-opacity="1" /><path clip-path="url(#clip640)" d="M1950.86 136.303 L1955.11 136.303 L1955.11 162.229 L1950.86 162.229 L1950.86 136.303 M1950.86 126.21 L1955.11 126.21 L1955.11 131.604 L1950.86 131.604 L1950.86 126.21 Z" fill="#000000" fill-rule="nonzero" fill-opacity="1" /><path clip-path="url(#clip640)" d="M1985.58 146.581 L1985.58 162.229 L1981.32 162.229 L1981.32 146.719 Q1981.32 143.039 1979.88 141.21 Q1978.45 139.382 1975.58 139.382 Q1972.13 139.382 1970.14 141.581 Q1968.15 143.78 1968.15 147.576 L1968.15 162.229 L1963.86 162.229 L1963.86 136.303 L1968.15 136.303 L1968.15 140.331 Q1969.67 137.993 1971.73 136.835 Q1973.82 135.678 1976.53 135.678 Q1980.99 135.678 1983.29 138.456 Q1985.58 141.21 1985.58 146.581 Z" fill="#000000" fill-rule="nonzero" fill-opacity="1" /><path clip-path="url(#clip640)" d="M2011.13 148.965 Q2011.13 144.335 2009.21 141.789 Q2007.31 139.243 2003.86 139.243 Q2000.44 139.243 1998.52 141.789 Q1996.62 144.335 1996.62 148.965 Q1996.62 153.571 1998.52 156.118 Q2000.44 158.664 2003.86 158.664 Q2007.31 158.664 2009.21 156.118 Q2011.13 153.571 2011.13 148.965 M2015.39 159.011 Q2015.39 165.631 2012.45 168.849 Q2009.51 172.09 2003.45 172.09 Q2001.2 172.09 1999.21 171.742 Q1997.22 171.418 1995.35 170.724 L1995.35 166.58 Q1997.22 167.599 1999.05 168.085 Q2000.88 168.571 2002.78 168.571 Q2006.97 168.571 2009.05 166.372 Q2011.13 164.196 2011.13 159.775 L2011.13 157.668 Q2009.81 159.96 2007.75 161.094 Q2005.69 162.229 2002.82 162.229 Q1998.05 162.229 1995.14 158.594 Q1992.22 154.96 1992.22 148.965 Q1992.22 142.946 1995.14 139.312 Q1998.05 135.678 2002.82 135.678 Q2005.69 135.678 2007.75 136.812 Q2009.81 137.946 2011.13 140.238 L2011.13 136.303 L2015.39 136.303 L2015.39 159.011 Z" fill="#000000" fill-rule="nonzero" fill-opacity="1" /><path clip-path="url(#clip640)" d="M2060.79 146.581 L2060.79 162.229 L2056.53 162.229 L2056.53 146.719 Q2056.53 143.039 2055.09 141.21 Q2053.66 139.382 2050.79 139.382 Q2047.34 139.382 2045.35 141.581 Q2043.35 143.78 2043.35 147.576 L2043.35 162.229 L2039.07 162.229 L2039.07 136.303 L2043.35 136.303 L2043.35 140.331 Q2044.88 137.993 2046.94 136.835 Q2049.03 135.678 2051.73 135.678 Q2056.2 135.678 2058.49 138.456 Q2060.79 141.21 2060.79 146.581 Z" fill="#000000" fill-rule="nonzero" fill-opacity="1" /><path clip-path="url(#clip640)" d="M2079.33 139.289 Q2075.9 139.289 2073.91 141.974 Q2071.92 144.636 2071.92 149.289 Q2071.92 153.942 2073.89 156.627 Q2075.88 159.289 2079.33 159.289 Q2082.73 159.289 2084.72 156.604 Q2086.71 153.918 2086.71 149.289 Q2086.71 144.682 2084.72 141.997 Q2082.73 139.289 2079.33 139.289 M2079.33 135.678 Q2084.88 135.678 2088.05 139.289 Q2091.23 142.9 2091.23 149.289 Q2091.23 155.655 2088.05 159.289 Q2084.88 162.9 2079.33 162.9 Q2073.75 162.9 2070.58 159.289 Q2067.43 155.655 2067.43 149.289 Q2067.43 142.9 2070.58 139.289 Q2073.75 135.678 2079.33 135.678 Z" fill="#000000" fill-rule="nonzero" fill-opacity="1" /><path clip-path="url(#clip640)" d="M2113.31 140.284 Q2112.59 139.868 2111.73 139.682 Q2110.9 139.474 2109.88 139.474 Q2106.27 139.474 2104.33 141.835 Q2102.41 144.173 2102.41 148.571 L2102.41 162.229 L2098.12 162.229 L2098.12 136.303 L2102.41 136.303 L2102.41 140.331 Q2103.75 137.969 2105.9 136.835 Q2108.05 135.678 2111.13 135.678 Q2111.57 135.678 2112.1 135.747 Q2112.64 135.794 2113.29 135.909 L2113.31 140.284 Z" fill="#000000" fill-rule="nonzero" fill-opacity="1" /><path clip-path="url(#clip640)" d="M2137.13 141.28 Q2138.72 138.409 2140.95 137.044 Q2143.17 135.678 2146.18 135.678 Q2150.23 135.678 2152.43 138.525 Q2154.63 141.349 2154.63 146.581 L2154.63 162.229 L2150.35 162.229 L2150.35 146.719 Q2150.35 142.993 2149.03 141.187 Q2147.71 139.382 2145 139.382 Q2141.69 139.382 2139.77 141.581 Q2137.85 143.78 2137.85 147.576 L2137.85 162.229 L2133.56 162.229 L2133.56 146.719 Q2133.56 142.969 2132.24 141.187 Q2130.92 139.382 2128.17 139.382 Q2124.91 139.382 2122.98 141.604 Q2121.06 143.803 2121.06 147.576 L2121.06 162.229 L2116.78 162.229 L2116.78 136.303 L2121.06 136.303 L2121.06 140.331 Q2122.52 137.946 2124.56 136.812 Q2126.6 135.678 2129.4 135.678 Q2132.22 135.678 2134.19 137.113 Q2136.18 138.548 2137.13 141.28 Z" fill="#000000" fill-rule="nonzero" fill-opacity="1" /><path clip-path="url(#clip640)" d="M2174.91 149.196 Q2169.74 149.196 2167.75 150.377 Q2165.76 151.557 2165.76 154.405 Q2165.76 156.673 2167.24 158.016 Q2168.75 159.335 2171.32 159.335 Q2174.86 159.335 2176.99 156.835 Q2179.14 154.312 2179.14 150.145 L2179.14 149.196 L2174.91 149.196 M2183.4 147.437 L2183.4 162.229 L2179.14 162.229 L2179.14 158.293 Q2177.68 160.655 2175.51 161.789 Q2173.33 162.9 2170.18 162.9 Q2166.2 162.9 2163.84 160.678 Q2161.5 158.432 2161.5 154.682 Q2161.5 150.307 2164.42 148.085 Q2167.36 145.863 2173.17 145.863 L2179.14 145.863 L2179.14 145.446 Q2179.14 142.507 2177.2 140.909 Q2175.28 139.289 2171.78 139.289 Q2169.56 139.289 2167.45 139.821 Q2165.35 140.354 2163.4 141.419 L2163.4 137.483 Q2165.74 136.581 2167.94 136.141 Q2170.14 135.678 2172.22 135.678 Q2177.84 135.678 2180.62 138.594 Q2183.4 141.511 2183.4 147.437 Z" fill="#000000" fill-rule="nonzero" fill-opacity="1" /><path clip-path="url(#clip640)" d="M2192.17 126.21 L2196.43 126.21 L2196.43 162.229 L2192.17 162.229 L2192.17 126.21 Z" fill="#000000" fill-rule="nonzero" fill-opacity="1" /><path clip-path="url(#clip640)" d="M2205.34 136.303 L2209.6 136.303 L2209.6 162.229 L2205.34 162.229 L2205.34 136.303 M2205.34 126.21 L2209.6 126.21 L2209.6 131.604 L2205.34 131.604 L2205.34 126.21 Z" fill="#000000" fill-rule="nonzero" fill-opacity="1" /><path clip-path="url(#clip640)" d="M2222.73 128.942 L2222.73 136.303 L2231.5 136.303 L2231.5 139.613 L2222.73 139.613 L2222.73 153.687 Q2222.73 156.858 2223.59 157.761 Q2224.47 158.664 2227.13 158.664 L2231.5 158.664 L2231.5 162.229 L2227.13 162.229 Q2222.2 162.229 2220.32 160.4 Q2218.45 158.548 2218.45 153.687 L2218.45 139.613 L2215.32 139.613 L2215.32 136.303 L2218.45 136.303 L2218.45 128.942 L2222.73 128.942 Z" fill="#000000" fill-rule="nonzero" fill-opacity="1" /><path clip-path="url(#clip640)" d="M2247.89 164.636 Q2246.09 169.266 2244.37 170.678 Q2242.66 172.09 2239.79 172.09 L2236.39 172.09 L2236.39 168.525 L2238.89 168.525 Q2240.65 168.525 2241.62 167.692 Q2242.59 166.858 2243.77 163.756 L2244.53 161.812 L2234.05 136.303 L2238.56 136.303 L2246.66 156.581 L2254.77 136.303 L2259.28 136.303 L2247.89 164.636 Z" fill="#000000" fill-rule="nonzero" fill-opacity="1" /></svg>
