<?xml version="1.0" encoding="utf-8"?>
<svg xmlns="http://www.w3.org/2000/svg" xmlns:xlink="http://www.w3.org/1999/xlink" width="600" height="400" viewBox="0 0 2400 1600">
<defs>
  <clipPath id="clip820">
    <rect x="0" y="0" width="2400" height="1600"/>
  </clipPath>
</defs>
<path clip-path="url(#clip820)" d="M0 1600 L2400 1600 L2400 0 L0 0  Z" fill="#ffffff" fill-rule="evenodd" fill-opacity="1"/>
<defs>
  <clipPath id="clip821">
    <rect x="480" y="0" width="1681" height="1600"/>
  </clipPath>
</defs>
<path clip-path="url(#clip820)" d="M249.542 1423.18 L2352.76 1423.18 L2352.76 47.2441 L249.542 47.2441  Z" fill="#ffffff" fill-rule="evenodd" fill-opacity="1"/>
<defs>
  <clipPath id="clip822">
    <rect x="249" y="47" width="2104" height="1377"/>
  </clipPath>
</defs>
<polyline clip-path="url(#clip822)" style="stroke:#000000; stroke-linecap:round; stroke-linejoin:round; stroke-width:2; stroke-opacity:0.1; fill:none" points="331.424,1423.18 331.424,47.2441 "/>
<polyline clip-path="url(#clip822)" style="stroke:#000000; stroke-linecap:round; stroke-linejoin:round; stroke-width:2; stroke-opacity:0.1; fill:none" points="952.441,1423.18 952.441,47.2441 "/>
<polyline clip-path="url(#clip822)" style="stroke:#000000; stroke-linecap:round; stroke-linejoin:round; stroke-width:2; stroke-opacity:0.1; fill:none" points="1573.46,1423.18 1573.46,47.2441 "/>
<polyline clip-path="url(#clip822)" style="stroke:#000000; stroke-linecap:round; stroke-linejoin:round; stroke-width:2; stroke-opacity:0.1; fill:none" points="2194.48,1423.18 2194.48,47.2441 "/>
<polyline clip-path="url(#clip820)" style="stroke:#000000; stroke-linecap:round; stroke-linejoin:round; stroke-width:4; stroke-opacity:1; fill:none" points="249.542,1423.18 2352.76,1423.18 "/>
<polyline clip-path="url(#clip820)" style="stroke:#000000; stroke-linecap:round; stroke-linejoin:round; stroke-width:4; stroke-opacity:1; fill:none" points="331.424,1423.18 331.424,1404.28 "/>
<polyline clip-path="url(#clip820)" style="stroke:#000000; stroke-linecap:round; stroke-linejoin:round; stroke-width:4; stroke-opacity:1; fill:none" points="952.441,1423.18 952.441,1404.28 "/>
<polyline clip-path="url(#clip820)" style="stroke:#000000; stroke-linecap:round; stroke-linejoin:round; stroke-width:4; stroke-opacity:1; fill:none" points="1573.46,1423.18 1573.46,1404.28 "/>
<polyline clip-path="url(#clip820)" style="stroke:#000000; stroke-linecap:round; stroke-linejoin:round; stroke-width:4; stroke-opacity:1; fill:none" points="2194.48,1423.18 2194.48,1404.28 "/>
<path clip-path="url(#clip820)" d="M331.424 1454.1 Q327.812 1454.1 325.984 1457.66 Q324.178 1461.2 324.178 1468.33 Q324.178 1475.44 325.984 1479.01 Q327.812 1482.55 331.424 1482.55 Q335.058 1482.55 336.863 1479.01 Q338.692 1475.44 338.692 1468.33 Q338.692 1461.2 336.863 1457.66 Q335.058 1454.1 331.424 1454.1 M331.424 1450.39 Q337.234 1450.39 340.289 1455 Q343.368 1459.58 343.368 1468.33 Q343.368 1477.06 340.289 1481.67 Q337.234 1486.25 331.424 1486.25 Q325.613 1486.25 322.535 1481.67 Q319.479 1477.06 319.479 1468.33 Q319.479 1459.58 322.535 1455 Q325.613 1450.39 331.424 1450.39 Z" fill="#000000" fill-rule="nonzero" fill-opacity="1" /><path clip-path="url(#clip820)" d="M927.129 1481.64 L934.768 1481.64 L934.768 1455.28 L926.458 1456.95 L926.458 1452.69 L934.721 1451.02 L939.397 1451.02 L939.397 1481.64 L947.036 1481.64 L947.036 1485.58 L927.129 1485.58 L927.129 1481.64 Z" fill="#000000" fill-rule="nonzero" fill-opacity="1" /><path clip-path="url(#clip820)" d="M966.48 1454.1 Q962.869 1454.1 961.041 1457.66 Q959.235 1461.2 959.235 1468.33 Q959.235 1475.44 961.041 1479.01 Q962.869 1482.55 966.48 1482.55 Q970.115 1482.55 971.92 1479.01 Q973.749 1475.44 973.749 1468.33 Q973.749 1461.2 971.92 1457.66 Q970.115 1454.1 966.48 1454.1 M966.48 1450.39 Q972.291 1450.39 975.346 1455 Q978.425 1459.58 978.425 1468.33 Q978.425 1477.06 975.346 1481.67 Q972.291 1486.25 966.48 1486.25 Q960.67 1486.25 957.592 1481.67 Q954.536 1477.06 954.536 1468.33 Q954.536 1459.58 957.592 1455 Q960.67 1450.39 966.48 1450.39 Z" fill="#000000" fill-rule="nonzero" fill-opacity="1" /><path clip-path="url(#clip820)" d="M1552.23 1481.64 L1568.55 1481.64 L1568.55 1485.58 L1546.61 1485.58 L1546.61 1481.64 Q1549.27 1478.89 1553.85 1474.26 Q1558.46 1469.61 1559.64 1468.27 Q1561.88 1465.74 1562.76 1464.01 Q1563.67 1462.25 1563.67 1460.56 Q1563.67 1457.8 1561.72 1456.07 Q1559.8 1454.33 1556.7 1454.33 Q1554.5 1454.33 1552.05 1455.09 Q1549.62 1455.86 1546.84 1457.41 L1546.84 1452.69 Q1549.66 1451.55 1552.12 1450.97 Q1554.57 1450.39 1556.61 1450.39 Q1561.98 1450.39 1565.17 1453.08 Q1568.37 1455.77 1568.37 1460.26 Q1568.37 1462.39 1567.56 1464.31 Q1566.77 1466.2 1564.66 1468.8 Q1564.08 1469.47 1560.98 1472.69 Q1557.88 1475.88 1552.23 1481.64 Z" fill="#000000" fill-rule="nonzero" fill-opacity="1" /><path clip-path="url(#clip820)" d="M1588.37 1454.1 Q1584.76 1454.1 1582.93 1457.66 Q1581.12 1461.2 1581.12 1468.33 Q1581.12 1475.44 1582.93 1479.01 Q1584.76 1482.55 1588.37 1482.55 Q1592 1482.55 1593.81 1479.01 Q1595.63 1475.44 1595.63 1468.33 Q1595.63 1461.2 1593.81 1457.66 Q1592 1454.1 1588.37 1454.1 M1588.37 1450.39 Q1594.18 1450.39 1597.23 1455 Q1600.31 1459.58 1600.31 1468.33 Q1600.31 1477.06 1597.23 1481.67 Q1594.18 1486.25 1588.37 1486.25 Q1582.56 1486.25 1579.48 1481.67 Q1576.42 1477.06 1576.42 1468.33 Q1576.42 1459.58 1579.48 1455 Q1582.56 1450.39 1588.37 1450.39 Z" fill="#000000" fill-rule="nonzero" fill-opacity="1" /><path clip-path="url(#clip820)" d="M2183.32 1466.95 Q2186.68 1467.66 2188.55 1469.93 Q2190.45 1472.2 2190.45 1475.53 Q2190.45 1480.65 2186.93 1483.45 Q2183.41 1486.25 2176.93 1486.25 Q2174.75 1486.25 2172.44 1485.81 Q2170.15 1485.39 2167.69 1484.54 L2167.69 1480.02 Q2169.64 1481.16 2171.95 1481.74 Q2174.27 1482.32 2176.79 1482.32 Q2181.19 1482.32 2183.48 1480.58 Q2185.8 1478.84 2185.8 1475.53 Q2185.8 1472.48 2183.64 1470.77 Q2181.51 1469.03 2177.69 1469.03 L2173.67 1469.03 L2173.67 1465.19 L2177.88 1465.19 Q2181.33 1465.19 2183.16 1463.82 Q2184.99 1462.43 2184.99 1459.84 Q2184.99 1457.18 2183.09 1455.77 Q2181.21 1454.33 2177.69 1454.33 Q2175.77 1454.33 2173.57 1454.75 Q2171.37 1455.16 2168.74 1456.04 L2168.74 1451.88 Q2171.4 1451.14 2173.71 1450.77 Q2176.05 1450.39 2178.11 1450.39 Q2183.43 1450.39 2186.54 1452.83 Q2189.64 1455.23 2189.64 1459.35 Q2189.64 1462.22 2188 1464.21 Q2186.35 1466.18 2183.32 1466.95 Z" fill="#000000" fill-rule="nonzero" fill-opacity="1" /><path clip-path="url(#clip820)" d="M2209.31 1454.1 Q2205.7 1454.1 2203.87 1457.66 Q2202.07 1461.2 2202.07 1468.33 Q2202.07 1475.44 2203.87 1479.01 Q2205.7 1482.55 2209.31 1482.55 Q2212.95 1482.55 2214.75 1479.01 Q2216.58 1475.44 2216.58 1468.33 Q2216.58 1461.2 2214.75 1457.66 Q2212.95 1454.1 2209.31 1454.1 M2209.31 1450.39 Q2215.12 1450.39 2218.18 1455 Q2221.26 1459.58 2221.26 1468.33 Q2221.26 1477.06 2218.18 1481.67 Q2215.12 1486.25 2209.31 1486.25 Q2203.5 1486.25 2200.43 1481.67 Q2197.37 1477.06 2197.37 1468.33 Q2197.37 1459.58 2200.43 1455 Q2203.5 1450.39 2209.31 1450.39 Z" fill="#000000" fill-rule="nonzero" fill-opacity="1" /><path clip-path="url(#clip820)" d="M1015.68 1524.18 L1015.68 1530.96 Q1012.43 1527.94 1008.74 1526.44 Q1005.08 1524.95 1000.94 1524.95 Q992.794 1524.95 988.465 1529.95 Q984.137 1534.91 984.137 1544.33 Q984.137 1553.72 988.465 1558.72 Q992.794 1563.68 1000.94 1563.68 Q1005.08 1563.68 1008.74 1562.19 Q1012.43 1560.69 1015.68 1557.67 L1015.68 1564.38 Q1012.31 1566.68 1008.52 1567.82 Q1004.76 1568.97 1000.56 1568.97 Q989.77 1568.97 983.564 1562.38 Q977.357 1555.76 977.357 1544.33 Q977.357 1532.87 983.564 1526.28 Q989.77 1519.66 1000.56 1519.66 Q1004.83 1519.66 1008.58 1520.81 Q1012.37 1521.92 1015.68 1524.18 Z" fill="#000000" fill-rule="nonzero" fill-opacity="1" /><path clip-path="url(#clip820)" d="M1039.17 1536.5 Q1034.46 1536.5 1031.72 1540.19 Q1028.98 1543.85 1028.98 1550.25 Q1028.98 1556.65 1031.69 1560.34 Q1034.43 1564 1039.17 1564 Q1043.85 1564 1046.58 1560.31 Q1049.32 1556.62 1049.32 1550.25 Q1049.32 1543.92 1046.58 1540.23 Q1043.85 1536.5 1039.17 1536.5 M1039.17 1531.54 Q1046.81 1531.54 1051.17 1536.5 Q1055.53 1541.47 1055.53 1550.25 Q1055.53 1559 1051.17 1564 Q1046.81 1568.97 1039.17 1568.97 Q1031.5 1568.97 1027.14 1564 Q1022.81 1559 1022.81 1550.25 Q1022.81 1541.47 1027.14 1536.5 Q1031.5 1531.54 1039.17 1531.54 Z" fill="#000000" fill-rule="nonzero" fill-opacity="1" /><path clip-path="url(#clip820)" d="M1094.87 1546.53 L1094.87 1568.04 L1089.01 1568.04 L1089.01 1546.72 Q1089.01 1541.66 1087.04 1539.14 Q1085.07 1536.63 1081.12 1536.63 Q1076.38 1536.63 1073.64 1539.65 Q1070.9 1542.68 1070.9 1547.9 L1070.9 1568.04 L1065.01 1568.04 L1065.01 1532.4 L1070.9 1532.4 L1070.9 1537.93 Q1073 1534.72 1075.83 1533.13 Q1078.7 1531.54 1082.42 1531.54 Q1088.57 1531.54 1091.72 1535.36 Q1094.87 1539.14 1094.87 1546.53 Z" fill="#000000" fill-rule="nonzero" fill-opacity="1" /><path clip-path="url(#clip820)" d="M1132.2 1533.76 L1132.2 1539.24 Q1129.72 1537.87 1127.21 1537.2 Q1124.72 1536.5 1122.18 1536.5 Q1116.48 1536.5 1113.33 1540.13 Q1110.18 1543.73 1110.18 1550.25 Q1110.18 1556.78 1113.33 1560.4 Q1116.48 1564 1122.18 1564 Q1124.72 1564 1127.21 1563.33 Q1129.72 1562.63 1132.2 1561.26 L1132.2 1566.68 Q1129.75 1567.82 1127.11 1568.39 Q1124.5 1568.97 1121.54 1568.97 Q1113.49 1568.97 1108.75 1563.91 Q1104 1558.85 1104 1550.25 Q1104 1541.53 1108.78 1536.53 Q1113.58 1531.54 1121.92 1531.54 Q1124.63 1531.54 1127.21 1532.11 Q1129.78 1532.65 1132.2 1533.76 Z" fill="#000000" fill-rule="nonzero" fill-opacity="1" /><path clip-path="url(#clip820)" d="M1172.88 1548.76 L1172.88 1551.62 L1145.95 1551.62 Q1146.33 1557.67 1149.58 1560.85 Q1152.86 1564 1158.68 1564 Q1162.06 1564 1165.21 1563.17 Q1168.39 1562.35 1171.51 1560.69 L1171.51 1566.23 Q1168.36 1567.57 1165.05 1568.27 Q1161.74 1568.97 1158.33 1568.97 Q1149.8 1568.97 1144.81 1564 Q1139.84 1559.04 1139.84 1550.57 Q1139.84 1541.82 1144.55 1536.69 Q1149.3 1531.54 1157.32 1531.54 Q1164.51 1531.54 1168.68 1536.18 Q1172.88 1540.8 1172.88 1548.76 M1167.02 1547.04 Q1166.96 1542.23 1164.32 1539.37 Q1161.71 1536.5 1157.38 1536.5 Q1152.48 1536.5 1149.52 1539.27 Q1146.59 1542.04 1146.14 1547.07 L1167.02 1547.04 Z" fill="#000000" fill-rule="nonzero" fill-opacity="1" /><path clip-path="url(#clip820)" d="M1212.12 1546.53 L1212.12 1568.04 L1206.27 1568.04 L1206.27 1546.72 Q1206.27 1541.66 1204.29 1539.14 Q1202.32 1536.63 1198.37 1536.63 Q1193.63 1536.63 1190.89 1539.65 Q1188.16 1542.68 1188.16 1547.9 L1188.16 1568.04 L1182.27 1568.04 L1182.27 1532.4 L1188.16 1532.4 L1188.16 1537.93 Q1190.26 1534.72 1193.09 1533.13 Q1195.96 1531.54 1199.68 1531.54 Q1205.82 1531.54 1208.97 1535.36 Q1212.12 1539.14 1212.12 1546.53 Z" fill="#000000" fill-rule="nonzero" fill-opacity="1" /><path clip-path="url(#clip820)" d="M1229.6 1522.27 L1229.6 1532.4 L1241.66 1532.4 L1241.66 1536.95 L1229.6 1536.95 L1229.6 1556.3 Q1229.6 1560.66 1230.78 1561.9 Q1231.99 1563.14 1235.65 1563.14 L1241.66 1563.14 L1241.66 1568.04 L1235.65 1568.04 Q1228.87 1568.04 1226.29 1565.53 Q1223.71 1562.98 1223.71 1556.3 L1223.71 1536.95 L1219.41 1536.95 L1219.41 1532.4 L1223.71 1532.4 L1223.71 1522.27 L1229.6 1522.27 Z" fill="#000000" fill-rule="nonzero" fill-opacity="1" /><path clip-path="url(#clip820)" d="M1270.02 1537.87 Q1269.03 1537.3 1267.86 1537.04 Q1266.71 1536.76 1265.31 1536.76 Q1260.34 1536.76 1257.67 1540 Q1255.03 1543.22 1255.03 1549.27 L1255.03 1568.04 L1249.14 1568.04 L1249.14 1532.4 L1255.03 1532.4 L1255.03 1537.93 Q1256.88 1534.69 1259.84 1533.13 Q1262.8 1531.54 1267.03 1531.54 Q1267.63 1531.54 1268.37 1531.63 Q1269.1 1531.7 1269.99 1531.85 L1270.02 1537.87 Z" fill="#000000" fill-rule="nonzero" fill-opacity="1" /><path clip-path="url(#clip820)" d="M1292.36 1550.12 Q1285.27 1550.12 1282.53 1551.75 Q1279.79 1553.37 1279.79 1557.29 Q1279.79 1560.4 1281.83 1562.25 Q1283.9 1564.07 1287.43 1564.07 Q1292.3 1564.07 1295.23 1560.63 Q1298.19 1557.16 1298.19 1551.43 L1298.19 1550.12 L1292.36 1550.12 M1304.05 1547.71 L1304.05 1568.04 L1298.19 1568.04 L1298.19 1562.63 Q1296.18 1565.88 1293.19 1567.44 Q1290.2 1568.97 1285.87 1568.97 Q1280.4 1568.97 1277.15 1565.91 Q1273.94 1562.82 1273.94 1557.67 Q1273.94 1551.65 1277.95 1548.6 Q1281.99 1545.54 1289.98 1545.54 L1298.19 1545.54 L1298.19 1544.97 Q1298.19 1540.93 1295.52 1538.73 Q1292.87 1536.5 1288.07 1536.5 Q1285.01 1536.5 1282.12 1537.23 Q1279.22 1537.97 1276.55 1539.43 L1276.55 1534.02 Q1279.76 1532.78 1282.78 1532.17 Q1285.81 1531.54 1288.67 1531.54 Q1296.41 1531.54 1300.23 1535.55 Q1304.05 1539.56 1304.05 1547.71 Z" fill="#000000" fill-rule="nonzero" fill-opacity="1" /><path clip-path="url(#clip820)" d="M1321.9 1522.27 L1321.9 1532.4 L1333.96 1532.4 L1333.96 1536.95 L1321.9 1536.95 L1321.9 1556.3 Q1321.9 1560.66 1323.08 1561.9 Q1324.29 1563.14 1327.95 1563.14 L1333.96 1563.14 L1333.96 1568.04 L1327.95 1568.04 Q1321.17 1568.04 1318.59 1565.53 Q1316.01 1562.98 1316.01 1556.3 L1316.01 1536.95 L1311.72 1536.95 L1311.72 1532.4 L1316.01 1532.4 L1316.01 1522.27 L1321.9 1522.27 Z" fill="#000000" fill-rule="nonzero" fill-opacity="1" /><path clip-path="url(#clip820)" d="M1341.67 1532.4 L1347.52 1532.4 L1347.52 1568.04 L1341.67 1568.04 L1341.67 1532.4 M1341.67 1518.52 L1347.52 1518.52 L1347.52 1525.93 L1341.67 1525.93 L1341.67 1518.52 Z" fill="#000000" fill-rule="nonzero" fill-opacity="1" /><path clip-path="url(#clip820)" d="M1373.59 1536.5 Q1368.88 1536.5 1366.14 1540.19 Q1363.41 1543.85 1363.41 1550.25 Q1363.41 1556.65 1366.11 1560.34 Q1368.85 1564 1373.59 1564 Q1378.27 1564 1381.01 1560.31 Q1383.74 1556.62 1383.74 1550.25 Q1383.74 1543.92 1381.01 1540.23 Q1378.27 1536.5 1373.59 1536.5 M1373.59 1531.54 Q1381.23 1531.54 1385.59 1536.5 Q1389.95 1541.47 1389.95 1550.25 Q1389.95 1559 1385.59 1564 Q1381.23 1568.97 1373.59 1568.97 Q1365.92 1568.97 1361.56 1564 Q1357.23 1559 1357.23 1550.25 Q1357.23 1541.47 1361.56 1536.5 Q1365.92 1531.54 1373.59 1531.54 Z" fill="#000000" fill-rule="nonzero" fill-opacity="1" /><path clip-path="url(#clip820)" d="M1429.29 1546.53 L1429.29 1568.04 L1423.43 1568.04 L1423.43 1546.72 Q1423.43 1541.66 1421.46 1539.14 Q1419.49 1536.63 1415.54 1536.63 Q1410.8 1536.63 1408.06 1539.65 Q1405.32 1542.68 1405.32 1547.9 L1405.32 1568.04 L1399.44 1568.04 L1399.44 1532.4 L1405.32 1532.4 L1405.32 1537.93 Q1407.42 1534.72 1410.26 1533.13 Q1413.12 1531.54 1416.85 1531.54 Q1422.99 1531.54 1426.14 1535.36 Q1429.29 1539.14 1429.29 1546.53 Z" fill="#000000" fill-rule="nonzero" fill-opacity="1" /><path clip-path="url(#clip820)" d="M1475.76 1518.58 Q1471.5 1525.9 1469.43 1533.06 Q1467.36 1540.23 1467.36 1547.58 Q1467.36 1554.93 1469.43 1562.16 Q1471.53 1569.35 1475.76 1576.64 L1470.67 1576.64 Q1465.89 1569.16 1463.51 1561.93 Q1461.15 1554.71 1461.15 1547.58 Q1461.15 1540.48 1463.51 1533.29 Q1465.86 1526.09 1470.67 1518.58 L1475.76 1518.58 Z" fill="#000000" fill-rule="nonzero" fill-opacity="1" /><path clip-path="url(#clip820)" d="M1492.79 1562.7 L1492.79 1581.6 L1486.9 1581.6 L1486.9 1532.4 L1492.79 1532.4 L1492.79 1537.81 Q1494.63 1534.62 1497.44 1533.1 Q1500.27 1531.54 1504.18 1531.54 Q1510.68 1531.54 1514.72 1536.69 Q1518.79 1541.85 1518.79 1550.25 Q1518.79 1558.65 1514.72 1563.81 Q1510.68 1568.97 1504.18 1568.97 Q1500.27 1568.97 1497.44 1567.44 Q1494.63 1565.88 1492.79 1562.7 M1512.71 1550.25 Q1512.71 1543.79 1510.04 1540.13 Q1507.4 1536.44 1502.75 1536.44 Q1498.1 1536.44 1495.43 1540.13 Q1492.79 1543.79 1492.79 1550.25 Q1492.79 1556.71 1495.43 1560.4 Q1498.1 1564.07 1502.75 1564.07 Q1507.4 1564.07 1510.04 1560.4 Q1512.71 1556.71 1512.71 1550.25 Z" fill="#000000" fill-rule="nonzero" fill-opacity="1" /><path clip-path="url(#clip820)" d="M1534.17 1562.7 L1534.17 1581.6 L1528.28 1581.6 L1528.28 1532.4 L1534.17 1532.4 L1534.17 1537.81 Q1536.01 1534.62 1538.81 1533.1 Q1541.65 1531.54 1545.56 1531.54 Q1552.05 1531.54 1556.1 1536.69 Q1560.17 1541.85 1560.17 1550.25 Q1560.17 1558.65 1556.1 1563.81 Q1552.05 1568.97 1545.56 1568.97 Q1541.65 1568.97 1538.81 1567.44 Q1536.01 1565.88 1534.17 1562.7 M1554.09 1550.25 Q1554.09 1543.79 1551.42 1540.13 Q1548.77 1536.44 1544.13 1536.44 Q1539.48 1536.44 1536.81 1540.13 Q1534.17 1543.79 1534.17 1550.25 Q1534.17 1556.71 1536.81 1560.4 Q1539.48 1564.07 1544.13 1564.07 Q1548.77 1564.07 1551.42 1560.4 Q1554.09 1556.71 1554.09 1550.25 Z" fill="#000000" fill-rule="nonzero" fill-opacity="1" /><path clip-path="url(#clip820)" d="M1595.47 1550.25 Q1595.47 1543.79 1592.79 1540.13 Q1590.15 1536.44 1585.51 1536.44 Q1580.86 1536.44 1578.18 1540.13 Q1575.54 1543.79 1575.54 1550.25 Q1575.54 1556.71 1578.18 1560.4 Q1580.86 1564.07 1585.51 1564.07 Q1590.15 1564.07 1592.79 1560.4 Q1595.47 1556.71 1595.47 1550.25 M1575.54 1537.81 Q1577.39 1534.62 1580.19 1533.1 Q1583.02 1531.54 1586.94 1531.54 Q1593.43 1531.54 1597.47 1536.69 Q1601.55 1541.85 1601.55 1550.25 Q1601.55 1558.65 1597.47 1563.81 Q1593.43 1568.97 1586.94 1568.97 Q1583.02 1568.97 1580.19 1567.44 Q1577.39 1565.88 1575.54 1562.7 L1575.54 1568.04 L1569.65 1568.04 L1569.65 1518.52 L1575.54 1518.52 L1575.54 1537.81 Z" fill="#000000" fill-rule="nonzero" fill-opacity="1" /><path clip-path="url(#clip820)" d="M1610.33 1518.58 L1615.42 1518.58 Q1620.2 1526.09 1622.55 1533.29 Q1624.94 1540.48 1624.94 1547.58 Q1624.94 1554.71 1622.55 1561.93 Q1620.2 1569.16 1615.42 1576.64 L1610.33 1576.64 Q1614.56 1569.35 1616.63 1562.16 Q1618.73 1554.93 1618.73 1547.58 Q1618.73 1540.23 1616.63 1533.06 Q1614.56 1525.9 1610.33 1518.58 Z" fill="#000000" fill-rule="nonzero" fill-opacity="1" /><polyline clip-path="url(#clip822)" style="stroke:#000000; stroke-linecap:round; stroke-linejoin:round; stroke-width:2; stroke-opacity:0.1; fill:none" points="249.542,1423.18 2352.76,1423.18 "/>
<polyline clip-path="url(#clip822)" style="stroke:#000000; stroke-linecap:round; stroke-linejoin:round; stroke-width:2; stroke-opacity:0.1; fill:none" points="249.542,1030.06 2352.76,1030.06 "/>
<polyline clip-path="url(#clip822)" style="stroke:#000000; stroke-linecap:round; stroke-linejoin:round; stroke-width:2; stroke-opacity:0.1; fill:none" points="249.542,636.931 2352.76,636.931 "/>
<polyline clip-path="url(#clip822)" style="stroke:#000000; stroke-linecap:round; stroke-linejoin:round; stroke-width:2; stroke-opacity:0.1; fill:none" points="249.542,243.806 2352.76,243.806 "/>
<polyline clip-path="url(#clip820)" style="stroke:#000000; stroke-linecap:round; stroke-linejoin:round; stroke-width:4; stroke-opacity:1; fill:none" points="249.542,1423.18 249.542,47.2441 "/>
<polyline clip-path="url(#clip820)" style="stroke:#000000; stroke-linecap:round; stroke-linejoin:round; stroke-width:4; stroke-opacity:1; fill:none" points="249.542,1423.18 268.44,1423.18 "/>
<polyline clip-path="url(#clip820)" style="stroke:#000000; stroke-linecap:round; stroke-linejoin:round; stroke-width:4; stroke-opacity:1; fill:none" points="249.542,1030.06 268.44,1030.06 "/>
<polyline clip-path="url(#clip820)" style="stroke:#000000; stroke-linecap:round; stroke-linejoin:round; stroke-width:4; stroke-opacity:1; fill:none" points="249.542,636.931 268.44,636.931 "/>
<polyline clip-path="url(#clip820)" style="stroke:#000000; stroke-linecap:round; stroke-linejoin:round; stroke-width:4; stroke-opacity:1; fill:none" points="249.542,243.806 268.44,243.806 "/>
<path clip-path="url(#clip820)" d="M126.205 1408.98 Q122.593 1408.98 120.765 1412.54 Q118.959 1416.08 118.959 1423.21 Q118.959 1430.32 120.765 1433.89 Q122.593 1437.43 126.205 1437.43 Q129.839 1437.43 131.644 1433.89 Q133.473 1430.32 133.473 1423.21 Q133.473 1416.08 131.644 1412.54 Q129.839 1408.98 126.205 1408.98 M126.205 1405.27 Q132.015 1405.27 135.07 1409.88 Q138.149 1414.46 138.149 1423.21 Q138.149 1431.94 135.07 1436.55 Q132.015 1441.13 126.205 1441.13 Q120.394 1441.13 117.316 1436.55 Q114.26 1431.94 114.26 1423.21 Q114.26 1414.46 117.316 1409.88 Q120.394 1405.27 126.205 1405.27 Z" fill="#000000" fill-rule="nonzero" fill-opacity="1" /><path clip-path="url(#clip820)" d="M146.366 1434.58 L151.251 1434.58 L151.251 1440.46 L146.366 1440.46 L146.366 1434.58 Z" fill="#000000" fill-rule="nonzero" fill-opacity="1" /><path clip-path="url(#clip820)" d="M171.436 1408.98 Q167.825 1408.98 165.996 1412.54 Q164.19 1416.08 164.19 1423.21 Q164.19 1430.32 165.996 1433.89 Q167.825 1437.43 171.436 1437.43 Q175.07 1437.43 176.876 1433.89 Q178.704 1430.32 178.704 1423.21 Q178.704 1416.08 176.876 1412.54 Q175.07 1408.98 171.436 1408.98 M171.436 1405.27 Q177.246 1405.27 180.301 1409.88 Q183.38 1414.46 183.38 1423.21 Q183.38 1431.94 180.301 1436.55 Q177.246 1441.13 171.436 1441.13 Q165.626 1441.13 162.547 1436.55 Q159.491 1431.94 159.491 1423.21 Q159.491 1414.46 162.547 1409.88 Q165.626 1405.27 171.436 1405.27 Z" fill="#000000" fill-rule="nonzero" fill-opacity="1" /><path clip-path="url(#clip820)" d="M201.598 1408.98 Q197.987 1408.98 196.158 1412.54 Q194.352 1416.08 194.352 1423.21 Q194.352 1430.32 196.158 1433.89 Q197.987 1437.43 201.598 1437.43 Q205.232 1437.43 207.037 1433.89 Q208.866 1430.32 208.866 1423.21 Q208.866 1416.08 207.037 1412.54 Q205.232 1408.98 201.598 1408.98 M201.598 1405.27 Q207.408 1405.27 210.463 1409.88 Q213.542 1414.46 213.542 1423.21 Q213.542 1431.94 210.463 1436.55 Q207.408 1441.13 201.598 1441.13 Q195.787 1441.13 192.709 1436.55 Q189.653 1431.94 189.653 1423.21 Q189.653 1414.46 192.709 1409.88 Q195.787 1405.27 201.598 1405.27 Z" fill="#000000" fill-rule="nonzero" fill-opacity="1" /><path clip-path="url(#clip820)" d="M127.2 1015.85 Q123.589 1015.85 121.76 1019.42 Q119.955 1022.96 119.955 1030.09 Q119.955 1037.2 121.76 1040.76 Q123.589 1044.3 127.2 1044.3 Q130.834 1044.3 132.64 1040.76 Q134.468 1037.2 134.468 1030.09 Q134.468 1022.96 132.64 1019.42 Q130.834 1015.85 127.2 1015.85 M127.2 1012.15 Q133.01 1012.15 136.066 1016.76 Q139.144 1021.34 139.144 1030.09 Q139.144 1038.82 136.066 1043.42 Q133.01 1048.01 127.2 1048.01 Q121.39 1048.01 118.311 1043.42 Q115.256 1038.82 115.256 1030.09 Q115.256 1021.34 118.311 1016.76 Q121.39 1012.15 127.2 1012.15 Z" fill="#000000" fill-rule="nonzero" fill-opacity="1" /><path clip-path="url(#clip820)" d="M147.362 1041.46 L152.246 1041.46 L152.246 1047.34 L147.362 1047.34 L147.362 1041.46 Z" fill="#000000" fill-rule="nonzero" fill-opacity="1" /><path clip-path="url(#clip820)" d="M172.431 1015.85 Q168.82 1015.85 166.991 1019.42 Q165.186 1022.96 165.186 1030.09 Q165.186 1037.2 166.991 1040.76 Q168.82 1044.3 172.431 1044.3 Q176.065 1044.3 177.871 1040.76 Q179.7 1037.2 179.7 1030.09 Q179.7 1022.96 177.871 1019.42 Q176.065 1015.85 172.431 1015.85 M172.431 1012.15 Q178.241 1012.15 181.297 1016.76 Q184.376 1021.34 184.376 1030.09 Q184.376 1038.82 181.297 1043.42 Q178.241 1048.01 172.431 1048.01 Q166.621 1048.01 163.542 1043.42 Q160.487 1038.82 160.487 1030.09 Q160.487 1021.34 163.542 1016.76 Q166.621 1012.15 172.431 1012.15 Z" fill="#000000" fill-rule="nonzero" fill-opacity="1" /><path clip-path="url(#clip820)" d="M192.639 1012.78 L210.996 1012.78 L210.996 1016.71 L196.922 1016.71 L196.922 1025.18 Q197.94 1024.84 198.959 1024.67 Q199.977 1024.49 200.996 1024.49 Q206.783 1024.49 210.162 1027.66 Q213.542 1030.83 213.542 1036.25 Q213.542 1041.83 210.07 1044.93 Q206.598 1048.01 200.278 1048.01 Q198.102 1048.01 195.834 1047.64 Q193.588 1047.27 191.181 1046.53 L191.181 1041.83 Q193.264 1042.96 195.487 1043.52 Q197.709 1044.07 200.186 1044.07 Q204.19 1044.07 206.528 1041.97 Q208.866 1039.86 208.866 1036.25 Q208.866 1032.64 206.528 1030.53 Q204.19 1028.42 200.186 1028.42 Q198.311 1028.42 196.436 1028.84 Q194.584 1029.26 192.639 1030.14 L192.639 1012.78 Z" fill="#000000" fill-rule="nonzero" fill-opacity="1" /><path clip-path="url(#clip820)" d="M126.205 622.73 Q122.593 622.73 120.765 626.294 Q118.959 629.836 118.959 636.966 Q118.959 644.072 120.765 647.637 Q122.593 651.178 126.205 651.178 Q129.839 651.178 131.644 647.637 Q133.473 644.072 133.473 636.966 Q133.473 629.836 131.644 626.294 Q129.839 622.73 126.205 622.73 M126.205 619.026 Q132.015 619.026 135.07 623.632 Q138.149 628.216 138.149 636.966 Q138.149 645.692 135.07 650.299 Q132.015 654.882 126.205 654.882 Q120.394 654.882 117.316 650.299 Q114.26 645.692 114.26 636.966 Q114.26 628.216 117.316 623.632 Q120.394 619.026 126.205 619.026 Z" fill="#000000" fill-rule="nonzero" fill-opacity="1" /><path clip-path="url(#clip820)" d="M146.366 648.331 L151.251 648.331 L151.251 654.211 L146.366 654.211 L146.366 648.331 Z" fill="#000000" fill-rule="nonzero" fill-opacity="1" /><path clip-path="url(#clip820)" d="M162.246 650.276 L169.885 650.276 L169.885 623.91 L161.575 625.577 L161.575 621.318 L169.839 619.651 L174.514 619.651 L174.514 650.276 L182.153 650.276 L182.153 654.211 L162.246 654.211 L162.246 650.276 Z" fill="#000000" fill-rule="nonzero" fill-opacity="1" /><path clip-path="url(#clip820)" d="M201.598 622.73 Q197.987 622.73 196.158 626.294 Q194.352 629.836 194.352 636.966 Q194.352 644.072 196.158 647.637 Q197.987 651.178 201.598 651.178 Q205.232 651.178 207.037 647.637 Q208.866 644.072 208.866 636.966 Q208.866 629.836 207.037 626.294 Q205.232 622.73 201.598 622.73 M201.598 619.026 Q207.408 619.026 210.463 623.632 Q213.542 628.216 213.542 636.966 Q213.542 645.692 210.463 650.299 Q207.408 654.882 201.598 654.882 Q195.787 654.882 192.709 650.299 Q189.653 645.692 189.653 636.966 Q189.653 628.216 192.709 623.632 Q195.787 619.026 201.598 619.026 Z" fill="#000000" fill-rule="nonzero" fill-opacity="1" /><path clip-path="url(#clip820)" d="M127.2 229.605 Q123.589 229.605 121.76 233.17 Q119.955 236.711 119.955 243.841 Q119.955 250.948 121.76 254.512 Q123.589 258.054 127.2 258.054 Q130.834 258.054 132.64 254.512 Q134.468 250.948 134.468 243.841 Q134.468 236.711 132.64 233.17 Q130.834 229.605 127.2 229.605 M127.2 225.901 Q133.01 225.901 136.066 230.508 Q139.144 235.091 139.144 243.841 Q139.144 252.568 136.066 257.174 Q133.01 261.758 127.2 261.758 Q121.39 261.758 118.311 257.174 Q115.256 252.568 115.256 243.841 Q115.256 235.091 118.311 230.508 Q121.39 225.901 127.2 225.901 Z" fill="#000000" fill-rule="nonzero" fill-opacity="1" /><path clip-path="url(#clip820)" d="M147.362 255.207 L152.246 255.207 L152.246 261.086 L147.362 261.086 L147.362 255.207 Z" fill="#000000" fill-rule="nonzero" fill-opacity="1" /><path clip-path="url(#clip820)" d="M163.241 257.151 L170.88 257.151 L170.88 230.786 L162.57 232.452 L162.57 228.193 L170.834 226.526 L175.51 226.526 L175.51 257.151 L183.149 257.151 L183.149 261.086 L163.241 261.086 L163.241 257.151 Z" fill="#000000" fill-rule="nonzero" fill-opacity="1" /><path clip-path="url(#clip820)" d="M192.639 226.526 L210.996 226.526 L210.996 230.462 L196.922 230.462 L196.922 238.934 Q197.94 238.586 198.959 238.424 Q199.977 238.239 200.996 238.239 Q206.783 238.239 210.162 241.411 Q213.542 244.582 213.542 249.998 Q213.542 255.577 210.07 258.679 Q206.598 261.758 200.278 261.758 Q198.102 261.758 195.834 261.387 Q193.588 261.017 191.181 260.276 L191.181 255.577 Q193.264 256.711 195.487 257.267 Q197.709 257.822 200.186 257.822 Q204.19 257.822 206.528 255.716 Q208.866 253.61 208.866 249.998 Q208.866 246.387 206.528 244.281 Q204.19 242.174 200.186 242.174 Q198.311 242.174 196.436 242.591 Q194.584 243.008 192.639 243.887 L192.639 226.526 Z" fill="#000000" fill-rule="nonzero" fill-opacity="1" /><path clip-path="url(#clip820)" d="M21.7677 887.846 L39.6235 887.846 L39.6235 879.761 Q39.6235 875.273 37.3 872.823 Q34.9765 870.372 30.6797 870.372 Q26.4147 870.372 24.0912 872.823 Q21.7677 875.273 21.7677 879.761 L21.7677 887.846 M16.4842 894.275 L16.4842 879.761 Q16.4842 871.772 20.1126 867.698 Q23.7092 863.592 30.6797 863.592 Q37.7138 863.592 41.3104 867.698 Q44.907 871.772 44.907 879.761 L44.907 887.846 L64.0042 887.846 L64.0042 894.275 L16.4842 894.275 Z" fill="#000000" fill-rule="nonzero" fill-opacity="1" /><path clip-path="url(#clip820)" d="M33.8307 835.711 Q33.2578 836.697 33.0032 837.875 Q32.7167 839.021 32.7167 840.421 Q32.7167 845.386 35.9632 848.06 Q39.1779 850.702 45.2253 850.702 L64.0042 850.702 L64.0042 856.59 L28.3562 856.59 L28.3562 850.702 L33.8944 850.702 Q30.6479 848.856 29.0883 845.896 Q27.4968 842.936 27.4968 838.702 Q27.4968 838.098 27.5923 837.366 Q27.656 836.634 27.8151 835.742 L33.8307 835.711 Z" fill="#000000" fill-rule="nonzero" fill-opacity="1" /><path clip-path="url(#clip820)" d="M32.4621 817.186 Q32.4621 821.897 36.1542 824.634 Q39.8145 827.371 46.212 827.371 Q52.6095 827.371 56.3017 824.666 Q59.9619 821.929 59.9619 817.186 Q59.9619 812.508 56.2698 809.77 Q52.5777 807.033 46.212 807.033 Q39.8781 807.033 36.186 809.77 Q32.4621 812.508 32.4621 817.186 M27.4968 817.186 Q27.4968 809.548 32.4621 805.187 Q37.4273 800.826 46.212 800.826 Q54.9649 800.826 59.9619 805.187 Q64.9272 809.548 64.9272 817.186 Q64.9272 824.857 59.9619 829.218 Q54.9649 833.546 46.212 833.546 Q37.4273 833.546 32.4621 829.218 Q27.4968 824.857 27.4968 817.186 Z" fill="#000000" fill-rule="nonzero" fill-opacity="1" /><path clip-path="url(#clip820)" d="M46.212 765.529 Q39.7508 765.529 36.0905 768.202 Q32.3984 770.844 32.3984 775.491 Q32.3984 780.138 36.0905 782.812 Q39.7508 785.453 46.212 785.453 Q52.6732 785.453 56.3653 782.812 Q60.0256 780.138 60.0256 775.491 Q60.0256 770.844 56.3653 768.202 Q52.6732 765.529 46.212 765.529 M33.7671 785.453 Q30.5842 783.607 29.0564 780.806 Q27.4968 777.974 27.4968 774.059 Q27.4968 767.566 32.6531 763.523 Q37.8093 759.449 46.212 759.449 Q54.6147 759.449 59.771 763.523 Q64.9272 767.566 64.9272 774.059 Q64.9272 777.974 63.3994 780.806 Q61.8398 783.607 58.657 785.453 L64.0042 785.453 L64.0042 791.342 L14.479 791.342 L14.479 785.453 L33.7671 785.453 Z" fill="#000000" fill-rule="nonzero" fill-opacity="1" /><path clip-path="url(#clip820)" d="M46.0847 733.541 Q46.0847 740.639 47.7079 743.376 Q49.3312 746.113 53.2461 746.113 Q56.3653 746.113 58.2114 744.076 Q60.0256 742.007 60.0256 738.474 Q60.0256 733.605 56.5881 730.676 Q53.1188 727.716 47.3897 727.716 L46.0847 727.716 L46.0847 733.541 M43.6657 721.86 L64.0042 721.86 L64.0042 727.716 L58.5933 727.716 Q61.8398 729.722 63.3994 732.713 Q64.9272 735.705 64.9272 740.034 Q64.9272 745.508 61.8716 748.755 Q58.7843 751.97 53.6281 751.97 Q47.6125 751.97 44.5569 747.959 Q41.5014 743.917 41.5014 735.928 L41.5014 727.716 L40.9285 727.716 Q36.8862 727.716 34.6901 730.39 Q32.4621 733.032 32.4621 737.838 Q32.4621 740.893 33.1941 743.79 Q33.9262 746.686 35.3903 749.36 L29.9795 749.36 Q28.7381 746.145 28.1334 743.121 Q27.4968 740.098 27.4968 737.233 Q27.4968 729.499 31.5072 725.679 Q35.5176 721.86 43.6657 721.86 Z" fill="#000000" fill-rule="nonzero" fill-opacity="1" /><path clip-path="url(#clip820)" d="M46.212 684.207 Q39.7508 684.207 36.0905 686.88 Q32.3984 689.522 32.3984 694.169 Q32.3984 698.816 36.0905 701.49 Q39.7508 704.131 46.212 704.131 Q52.6732 704.131 56.3653 701.49 Q60.0256 698.816 60.0256 694.169 Q60.0256 689.522 56.3653 686.88 Q52.6732 684.207 46.212 684.207 M33.7671 704.131 Q30.5842 702.285 29.0564 699.484 Q27.4968 696.652 27.4968 692.737 Q27.4968 686.244 32.6531 682.202 Q37.8093 678.127 46.212 678.127 Q54.6147 678.127 59.771 682.202 Q64.9272 686.244 64.9272 692.737 Q64.9272 696.652 63.3994 699.484 Q61.8398 702.285 58.657 704.131 L64.0042 704.131 L64.0042 710.02 L14.479 710.02 L14.479 704.131 L33.7671 704.131 Z" fill="#000000" fill-rule="nonzero" fill-opacity="1" /><path clip-path="url(#clip820)" d="M14.479 668.42 L14.479 662.563 L64.0042 662.563 L64.0042 668.42 L14.479 668.42 Z" fill="#000000" fill-rule="nonzero" fill-opacity="1" /><path clip-path="url(#clip820)" d="M28.3562 650.309 L28.3562 644.453 L64.0042 644.453 L64.0042 650.309 L28.3562 650.309 M14.479 650.309 L14.479 644.453 L21.895 644.453 L21.895 650.309 L14.479 650.309 Z" fill="#000000" fill-rule="nonzero" fill-opacity="1" /><path clip-path="url(#clip820)" d="M18.2347 626.406 L28.3562 626.406 L28.3562 614.343 L32.9077 614.343 L32.9077 626.406 L52.2594 626.406 Q56.6199 626.406 57.8613 625.228 Q59.1026 624.019 59.1026 620.359 L59.1026 614.343 L64.0042 614.343 L64.0042 620.359 Q64.0042 627.138 61.4897 629.716 Q58.9434 632.294 52.2594 632.294 L32.9077 632.294 L32.9077 636.591 L28.3562 636.591 L28.3562 632.294 L18.2347 632.294 L18.2347 626.406 Z" fill="#000000" fill-rule="nonzero" fill-opacity="1" /><path clip-path="url(#clip820)" d="M67.3143 591.809 Q73.68 594.291 75.6216 596.646 Q77.5631 599.002 77.5631 602.948 L77.5631 607.627 L72.6615 607.627 L72.6615 604.19 Q72.6615 601.771 71.5157 600.434 Q70.3699 599.097 66.1048 597.474 L63.4312 596.424 L28.3562 610.842 L28.3562 604.635 L56.238 593.495 L28.3562 582.355 L28.3562 576.149 L67.3143 591.809 Z" fill="#000000" fill-rule="nonzero" fill-opacity="1" /><path clip-path="url(#clip822)" d="M331.424 833.493 L331.424 1423.18 L455.627 1423.18 L455.627 833.493 L331.424 833.493 L331.424 833.493  Z" fill="#009af9" fill-rule="evenodd" fill-opacity="1"/>
<polyline clip-path="url(#clip822)" style="stroke:#000000; stroke-linecap:round; stroke-linejoin:round; stroke-width:4; stroke-opacity:1; fill:none" points="331.424,833.493 331.424,1423.18 455.627,1423.18 455.627,833.493 331.424,833.493 "/>
<path clip-path="url(#clip822)" d="M455.627 47.2441 L455.627 1423.18 L579.831 1423.18 L579.831 47.2441 L455.627 47.2441 L455.627 47.2441  Z" fill="#009af9" fill-rule="evenodd" fill-opacity="1"/>
<polyline clip-path="url(#clip822)" style="stroke:#000000; stroke-linecap:round; stroke-linejoin:round; stroke-width:4; stroke-opacity:1; fill:none" points="455.627,47.2441 455.627,1423.18 579.831,1423.18 579.831,47.2441 455.627,47.2441 "/>
<path clip-path="url(#clip822)" d="M579.831 1030.06 L579.831 1423.18 L704.034 1423.18 L704.034 1030.06 L579.831 1030.06 L579.831 1030.06  Z" fill="#009af9" fill-rule="evenodd" fill-opacity="1"/>
<polyline clip-path="url(#clip822)" style="stroke:#000000; stroke-linecap:round; stroke-linejoin:round; stroke-width:4; stroke-opacity:1; fill:none" points="579.831,1030.06 579.831,1423.18 704.034,1423.18 704.034,1030.06 579.831,1030.06 "/>
<path clip-path="url(#clip822)" d="M704.034 1030.06 L704.034 1423.18 L828.238 1423.18 L828.238 1030.06 L704.034 1030.06 L704.034 1030.06  Z" fill="#009af9" fill-rule="evenodd" fill-opacity="1"/>
<polyline clip-path="url(#clip822)" style="stroke:#000000; stroke-linecap:round; stroke-linejoin:round; stroke-width:4; stroke-opacity:1; fill:none" points="704.034,1030.06 704.034,1423.18 828.238,1423.18 828.238,1030.06 704.034,1030.06 "/>
<path clip-path="url(#clip822)" d="M828.238 440.369 L828.238 1423.18 L952.441 1423.18 L952.441 440.369 L828.238 440.369 L828.238 440.369  Z" fill="#009af9" fill-rule="evenodd" fill-opacity="1"/>
<polyline clip-path="url(#clip822)" style="stroke:#000000; stroke-linecap:round; stroke-linejoin:round; stroke-width:4; stroke-opacity:1; fill:none" points="828.238,440.369 828.238,1423.18 952.441,1423.18 952.441,440.369 828.238,440.369 "/>
<path clip-path="url(#clip822)" d="M952.441 1226.62 L952.441 1423.18 L1076.64 1423.18 L1076.64 1226.62 L952.441 1226.62 L952.441 1226.62  Z" fill="#009af9" fill-rule="evenodd" fill-opacity="1"/>
<polyline clip-path="url(#clip822)" style="stroke:#000000; stroke-linecap:round; stroke-linejoin:round; stroke-width:4; stroke-opacity:1; fill:none" points="952.441,1226.62 952.441,1423.18 1076.64,1423.18 1076.64,1226.62 952.441,1226.62 "/>
<circle clip-path="url(#clip822)" style="fill:#009af9; stroke:none; fill-opacity:0" cx="393.525" cy="833.493" r="2"/>
<circle clip-path="url(#clip822)" style="fill:#009af9; stroke:none; fill-opacity:0" cx="517.729" cy="47.2441" r="2"/>
<circle clip-path="url(#clip822)" style="fill:#009af9; stroke:none; fill-opacity:0" cx="641.932" cy="1030.06" r="2"/>
<circle clip-path="url(#clip822)" style="fill:#009af9; stroke:none; fill-opacity:0" cx="766.136" cy="1030.06" r="2"/>
<circle clip-path="url(#clip822)" style="fill:#009af9; stroke:none; fill-opacity:0" cx="890.339" cy="440.369" r="2"/>
<circle clip-path="url(#clip822)" style="fill:#009af9; stroke:none; fill-opacity:0" cx="1014.54" cy="1226.62" r="2"/>
<polyline clip-path="url(#clip822)" style="stroke:#e26f46; stroke-linecap:round; stroke-linejoin:round; stroke-width:4; stroke-opacity:1; fill:none" points="331.424,1423.18 333.02,1372.57 334.617,1331.5 336.213,1293.89 337.81,1258.62 339.406,1225.18 341.003,1193.27 341.801,1177.82 342.599,1162.68 343.398,1147.84 344.196,1133.28 346.041,1100.62 347.887,1069.27 349.732,1039.13 351.577,1010.11 353.423,982.145 355.268,955.17 357.113,929.137 358.958,903.999 360.804,879.717 362.649,856.254 364.494,833.576 366.34,811.654 370.03,769.969 373.721,730.997 377.412,694.565 381.102,660.519 384.793,628.719 388.483,599.041 392.174,571.369 395.865,545.599 399.555,521.631 403.246,499.376 406.936,478.748 410.627,459.669 414.318,442.062 418.008,425.859 421.699,410.992 425.39,397.398 429.08,385.019 432.771,373.797 436.461,363.679 440.152,354.613 443.843,346.551 447.533,339.446 451.224,333.254 454.914,327.933 458.605,323.441 462.296,319.741 466.731,316.289 471.167,313.865 475.603,312.411 480.039,311.873 484.475,312.196 488.911,313.332 493.346,315.233 497.782,317.853 506.654,325.082 515.525,334.699 524.397,346.414 533.269,359.963 540.769,372.673 548.27,386.392 555.771,400.997 563.272,416.378 578.274,449.062 593.275,483.716 625.867,562.993 658.459,643.99 688.506,717.371 718.553,787.785 734.66,823.922 750.767,858.789 766.874,892.31 782.981,924.435 801.642,959.872 820.303,993.382 838.964,1024.97 857.626,1054.68 874.21,1079.53 890.794,1102.96 907.378,1125.03 923.961,1145.77 938.504,1162.92 953.047,1179.13 967.589,1194.44 982.132,1208.88 997.987,1223.69 1013.84,1237.57 1029.7,1250.57 1045.55,1262.72 1061.5,1274.15 1077.45,1284.83 1093.4,1294.79 1109.35,1304.08 1144.62,1322.43 1179.89,1338.09 1213.45,1350.83 1247,1361.74 1281.9,1371.4 1316.79,1379.6 1346.16,1385.52 1375.53,1390.66 1447.25,1400.51 1512.95,1406.94 1573.62,1411.28 1635.09,1414.51 1703.97,1417.12 1766.39,1418.8 1837.86,1420.17 1904.03,1421.06 1969.27,1421.68 2032.61,1422.11 2097.54,1422.42 2168.69,1422.66 2272.03,1422.88 2293.23,1422.91 "/>
<path clip-path="url(#clip820)" d="M1939.09 248.629 L2282.65 248.629 L2282.65 93.1086 L1939.09 93.1086  Z" fill="#ffffff" fill-rule="evenodd" fill-opacity="1"/>
<polyline clip-path="url(#clip820)" style="stroke:#000000; stroke-linecap:round; stroke-linejoin:round; stroke-width:4; stroke-opacity:1; fill:none" points="1939.09,248.629 2282.65,248.629 2282.65,93.1086 1939.09,93.1086 1939.09,248.629 "/>
<path clip-path="url(#clip820)" d="M1962.46 165.685 L2102.67 165.685 L2102.67 124.213 L1962.46 124.213 L1962.46 165.685  Z" fill="#009af9" fill-rule="evenodd" fill-opacity="1"/>
<polyline clip-path="url(#clip820)" style="stroke:#000000; stroke-linecap:round; stroke-linejoin:round; stroke-width:4; stroke-opacity:1; fill:none" points="1962.46,165.685 2102.67,165.685 2102.67,124.213 1962.46,124.213 1962.46,165.685 "/>
<path clip-path="url(#clip820)" d="M2130.72 131.511 L2130.72 158.386 L2136.36 158.386 Q2143.52 158.386 2146.83 155.145 Q2150.16 151.905 2150.16 144.914 Q2150.16 137.969 2146.83 134.752 Q2143.52 131.511 2136.36 131.511 L2130.72 131.511 M2126.04 127.669 L2135.65 127.669 Q2145.69 127.669 2150.39 131.858 Q2155.09 136.025 2155.09 144.914 Q2155.09 153.849 2150.37 158.039 Q2145.65 162.229 2135.65 162.229 L2126.04 162.229 L2126.04 127.669 Z" fill="#000000" fill-rule="nonzero" fill-opacity="1" /><path clip-path="url(#clip820)" d="M2174.14 149.196 Q2168.98 149.196 2166.99 150.377 Q2165 151.557 2165 154.405 Q2165 156.673 2166.48 158.016 Q2167.98 159.335 2170.55 159.335 Q2174.1 159.335 2176.22 156.835 Q2178.38 154.312 2178.38 150.145 L2178.38 149.196 L2174.14 149.196 M2182.64 147.437 L2182.64 162.229 L2178.38 162.229 L2178.38 158.293 Q2176.92 160.655 2174.74 161.789 Q2172.57 162.9 2169.42 162.9 Q2165.44 162.9 2163.08 160.678 Q2160.74 158.432 2160.74 154.682 Q2160.74 150.307 2163.66 148.085 Q2166.6 145.863 2172.41 145.863 L2178.38 145.863 L2178.38 145.446 Q2178.38 142.507 2176.43 140.909 Q2174.51 139.289 2171.02 139.289 Q2168.79 139.289 2166.69 139.821 Q2164.58 140.354 2162.64 141.419 L2162.64 137.483 Q2164.97 136.581 2167.17 136.141 Q2169.37 135.678 2171.46 135.678 Q2177.08 135.678 2179.86 138.594 Q2182.64 141.511 2182.64 147.437 Z" fill="#000000" fill-rule="nonzero" fill-opacity="1" /><path clip-path="url(#clip820)" d="M2195.62 128.942 L2195.62 136.303 L2204.4 136.303 L2204.4 139.613 L2195.62 139.613 L2195.62 153.687 Q2195.62 156.858 2196.48 157.761 Q2197.36 158.664 2200.02 158.664 L2204.4 158.664 L2204.4 162.229 L2200.02 162.229 Q2195.09 162.229 2193.22 160.4 Q2191.34 158.548 2191.34 153.687 L2191.34 139.613 L2188.22 139.613 L2188.22 136.303 L2191.34 136.303 L2191.34 128.942 L2195.62 128.942 Z" fill="#000000" fill-rule="nonzero" fill-opacity="1" /><path clip-path="url(#clip820)" d="M2221.78 149.196 Q2216.62 149.196 2214.63 150.377 Q2212.64 151.557 2212.64 154.405 Q2212.64 156.673 2214.12 158.016 Q2215.62 159.335 2218.19 159.335 Q2221.73 159.335 2223.86 156.835 Q2226.02 154.312 2226.02 150.145 L2226.02 149.196 L2221.78 149.196 M2230.28 147.437 L2230.28 162.229 L2226.02 162.229 L2226.02 158.293 Q2224.56 160.655 2222.38 161.789 Q2220.21 162.9 2217.06 162.9 Q2213.08 162.9 2210.72 160.678 Q2208.38 158.432 2208.38 154.682 Q2208.38 150.307 2211.29 148.085 Q2214.23 145.863 2220.04 145.863 L2226.02 145.863 L2226.02 145.446 Q2226.02 142.507 2224.07 140.909 Q2222.15 139.289 2218.65 139.289 Q2216.43 139.289 2214.33 139.821 Q2212.22 140.354 2210.28 141.419 L2210.28 137.483 Q2212.61 136.581 2214.81 136.141 Q2217.01 135.678 2219.09 135.678 Q2224.72 135.678 2227.5 138.594 Q2230.28 141.511 2230.28 147.437 Z" fill="#000000" fill-rule="nonzero" fill-opacity="1" /><polyline clip-path="url(#clip820)" style="stroke:#e26f46; stroke-linecap:round; stroke-linejoin:round; stroke-width:4; stroke-opacity:1; fill:none" points="1962.46,196.789 2102.67,196.789 "/>
<path clip-path="url(#clip820)" d="M2126.04 179.509 L2133.01 179.509 L2141.83 203.027 L2150.69 179.509 L2157.66 179.509 L2157.66 214.069 L2153.1 214.069 L2153.1 183.722 L2144.19 207.425 L2139.49 207.425 L2130.58 183.722 L2130.58 214.069 L2126.04 214.069 L2126.04 179.509 Z" fill="#000000" fill-rule="nonzero" fill-opacity="1" /><path clip-path="url(#clip820)" d="M2176.8 191.129 Q2173.38 191.129 2171.39 193.814 Q2169.4 196.476 2169.4 201.129 Q2169.4 205.782 2171.36 208.467 Q2173.35 211.129 2176.8 211.129 Q2180.21 211.129 2182.2 208.444 Q2184.19 205.758 2184.19 201.129 Q2184.19 196.522 2182.2 193.837 Q2180.21 191.129 2176.8 191.129 M2176.8 187.518 Q2182.36 187.518 2185.53 191.129 Q2188.7 194.74 2188.7 201.129 Q2188.7 207.495 2185.53 211.129 Q2182.36 214.74 2176.8 214.74 Q2171.22 214.74 2168.05 211.129 Q2164.91 207.495 2164.91 201.129 Q2164.91 194.74 2168.05 191.129 Q2171.22 187.518 2176.8 187.518 Z" fill="#000000" fill-rule="nonzero" fill-opacity="1" /><path clip-path="url(#clip820)" d="M2212.82 192.078 L2212.82 178.05 L2217.08 178.05 L2217.08 214.069 L2212.82 214.069 L2212.82 210.18 Q2211.48 212.495 2209.42 213.629 Q2207.38 214.74 2204.51 214.74 Q2199.81 214.74 2196.85 210.99 Q2193.91 207.24 2193.91 201.129 Q2193.91 195.018 2196.85 191.268 Q2199.81 187.518 2204.51 187.518 Q2207.38 187.518 2209.42 188.652 Q2211.48 189.763 2212.82 192.078 M2198.31 201.129 Q2198.31 205.828 2200.23 208.513 Q2202.17 211.175 2205.55 211.175 Q2208.93 211.175 2210.88 208.513 Q2212.82 205.828 2212.82 201.129 Q2212.82 196.43 2210.88 193.768 Q2208.93 191.083 2205.55 191.083 Q2202.17 191.083 2200.23 193.768 Q2198.31 196.43 2198.31 201.129 Z" fill="#000000" fill-rule="nonzero" fill-opacity="1" /><path clip-path="url(#clip820)" d="M2248.03 200.041 L2248.03 202.124 L2228.45 202.124 Q2228.72 206.522 2231.09 208.837 Q2233.47 211.129 2237.71 211.129 Q2240.16 211.129 2242.45 210.527 Q2244.77 209.925 2247.03 208.721 L2247.03 212.749 Q2244.74 213.721 2242.34 214.231 Q2239.93 214.74 2237.45 214.74 Q2231.25 214.74 2227.61 211.129 Q2224 207.518 2224 201.36 Q2224 194.995 2227.43 191.268 Q2230.88 187.518 2236.71 187.518 Q2241.94 187.518 2244.97 190.897 Q2248.03 194.254 2248.03 200.041 M2243.77 198.791 Q2243.72 195.296 2241.8 193.212 Q2239.9 191.129 2236.76 191.129 Q2233.19 191.129 2231.04 193.143 Q2228.91 195.157 2228.59 198.814 L2243.77 198.791 Z" fill="#000000" fill-rule="nonzero" fill-opacity="1" /><path clip-path="url(#clip820)" d="M2255.02 178.05 L2259.28 178.05 L2259.28 214.069 L2255.02 214.069 L2255.02 178.05 Z" fill="#000000" fill-rule="nonzero" fill-opacity="1" /></svg>
