<?xml version="1.0" encoding="utf-8"?>
<svg xmlns="http://www.w3.org/2000/svg" xmlns:xlink="http://www.w3.org/1999/xlink" width="600" height="400" viewBox="0 0 2400 1600">
<defs>
  <clipPath id="clip370">
    <rect x="0" y="0" width="2400" height="1600"/>
  </clipPath>
</defs>
<path clip-path="url(#clip370)" d="M0 1600 L2400 1600 L2400 0 L0 0  Z" fill="#ffffff" fill-rule="evenodd" fill-opacity="1"/>
<defs>
  <clipPath id="clip371">
    <rect x="480" y="0" width="1681" height="1600"/>
  </clipPath>
</defs>
<path clip-path="url(#clip370)" d="M219.866 1423.18 L2352.76 1423.18 L2352.76 47.2441 L219.866 47.2441  Z" fill="#ffffff" fill-rule="evenodd" fill-opacity="1"/>
<defs>
  <clipPath id="clip372">
    <rect x="219" y="47" width="2134" height="1377"/>
  </clipPath>
</defs>
<polyline clip-path="url(#clip372)" style="stroke:#000000; stroke-linecap:round; stroke-linejoin:round; stroke-width:2; stroke-opacity:0.1; fill:none" points="283.519,1423.18 283.519,47.2441 "/>
<polyline clip-path="url(#clip372)" style="stroke:#000000; stroke-linecap:round; stroke-linejoin:round; stroke-width:2; stroke-opacity:0.1; fill:none" points="638.664,1423.18 638.664,47.2441 "/>
<polyline clip-path="url(#clip372)" style="stroke:#000000; stroke-linecap:round; stroke-linejoin:round; stroke-width:2; stroke-opacity:0.1; fill:none" points="993.809,1423.18 993.809,47.2441 "/>
<polyline clip-path="url(#clip372)" style="stroke:#000000; stroke-linecap:round; stroke-linejoin:round; stroke-width:2; stroke-opacity:0.1; fill:none" points="1348.95,1423.18 1348.95,47.2441 "/>
<polyline clip-path="url(#clip372)" style="stroke:#000000; stroke-linecap:round; stroke-linejoin:round; stroke-width:2; stroke-opacity:0.1; fill:none" points="1704.1,1423.18 1704.1,47.2441 "/>
<polyline clip-path="url(#clip372)" style="stroke:#000000; stroke-linecap:round; stroke-linejoin:round; stroke-width:2; stroke-opacity:0.1; fill:none" points="2059.25,1423.18 2059.25,47.2441 "/>
<polyline clip-path="url(#clip370)" style="stroke:#000000; stroke-linecap:round; stroke-linejoin:round; stroke-width:4; stroke-opacity:1; fill:none" points="219.866,1423.18 2352.76,1423.18 "/>
<polyline clip-path="url(#clip370)" style="stroke:#000000; stroke-linecap:round; stroke-linejoin:round; stroke-width:4; stroke-opacity:1; fill:none" points="283.519,1423.18 283.519,1404.28 "/>
<polyline clip-path="url(#clip370)" style="stroke:#000000; stroke-linecap:round; stroke-linejoin:round; stroke-width:4; stroke-opacity:1; fill:none" points="638.664,1423.18 638.664,1404.28 "/>
<polyline clip-path="url(#clip370)" style="stroke:#000000; stroke-linecap:round; stroke-linejoin:round; stroke-width:4; stroke-opacity:1; fill:none" points="993.809,1423.18 993.809,1404.28 "/>
<polyline clip-path="url(#clip370)" style="stroke:#000000; stroke-linecap:round; stroke-linejoin:round; stroke-width:4; stroke-opacity:1; fill:none" points="1348.95,1423.18 1348.95,1404.28 "/>
<polyline clip-path="url(#clip370)" style="stroke:#000000; stroke-linecap:round; stroke-linejoin:round; stroke-width:4; stroke-opacity:1; fill:none" points="1704.1,1423.18 1704.1,1404.28 "/>
<polyline clip-path="url(#clip370)" style="stroke:#000000; stroke-linecap:round; stroke-linejoin:round; stroke-width:4; stroke-opacity:1; fill:none" points="2059.25,1423.18 2059.25,1404.28 "/>
<path clip-path="url(#clip370)" d="M237.582 1468.75 L267.257 1468.75 L267.257 1472.69 L237.582 1472.69 L237.582 1468.75 Z" fill="#000000" fill-rule="nonzero" fill-opacity="1" /><path clip-path="url(#clip370)" d="M278.16 1481.64 L285.799 1481.64 L285.799 1455.28 L277.489 1456.95 L277.489 1452.69 L285.753 1451.02 L290.429 1451.02 L290.429 1481.64 L298.067 1481.64 L298.067 1485.58 L278.16 1485.58 L278.16 1481.64 Z" fill="#000000" fill-rule="nonzero" fill-opacity="1" /><path clip-path="url(#clip370)" d="M317.512 1454.1 Q313.901 1454.1 312.072 1457.66 Q310.266 1461.2 310.266 1468.33 Q310.266 1475.44 312.072 1479.01 Q313.901 1482.55 317.512 1482.55 Q321.146 1482.55 322.952 1479.01 Q324.78 1475.44 324.78 1468.33 Q324.78 1461.2 322.952 1457.66 Q321.146 1454.1 317.512 1454.1 M317.512 1450.39 Q323.322 1450.39 326.377 1455 Q329.456 1459.58 329.456 1468.33 Q329.456 1477.06 326.377 1481.67 Q323.322 1486.25 317.512 1486.25 Q311.702 1486.25 308.623 1481.67 Q305.567 1477.06 305.567 1468.33 Q305.567 1459.58 308.623 1455 Q311.702 1450.39 317.512 1450.39 Z" fill="#000000" fill-rule="nonzero" fill-opacity="1" /><path clip-path="url(#clip370)" d="M608.306 1468.75 L637.981 1468.75 L637.981 1472.69 L608.306 1472.69 L608.306 1468.75 Z" fill="#000000" fill-rule="nonzero" fill-opacity="1" /><path clip-path="url(#clip370)" d="M648.12 1451.02 L666.477 1451.02 L666.477 1454.96 L652.403 1454.96 L652.403 1463.43 Q653.421 1463.08 654.44 1462.92 Q655.458 1462.73 656.477 1462.73 Q662.264 1462.73 665.643 1465.9 Q669.023 1469.08 669.023 1474.49 Q669.023 1480.07 665.551 1483.17 Q662.078 1486.25 655.759 1486.25 Q653.583 1486.25 651.315 1485.88 Q649.069 1485.51 646.662 1484.77 L646.662 1480.07 Q648.745 1481.2 650.967 1481.76 Q653.19 1482.32 655.666 1482.32 Q659.671 1482.32 662.009 1480.21 Q664.347 1478.1 664.347 1474.49 Q664.347 1470.88 662.009 1468.77 Q659.671 1466.67 655.666 1466.67 Q653.791 1466.67 651.916 1467.08 Q650.065 1467.5 648.12 1468.38 L648.12 1451.02 Z" fill="#000000" fill-rule="nonzero" fill-opacity="1" /><path clip-path="url(#clip370)" d="M993.809 1454.1 Q990.198 1454.1 988.37 1457.66 Q986.564 1461.2 986.564 1468.33 Q986.564 1475.44 988.37 1479.01 Q990.198 1482.55 993.809 1482.55 Q997.444 1482.55 999.249 1479.01 Q1001.08 1475.44 1001.08 1468.33 Q1001.08 1461.2 999.249 1457.66 Q997.444 1454.1 993.809 1454.1 M993.809 1450.39 Q999.62 1450.39 1002.68 1455 Q1005.75 1459.58 1005.75 1468.33 Q1005.75 1477.06 1002.68 1481.67 Q999.62 1486.25 993.809 1486.25 Q987.999 1486.25 984.921 1481.67 Q981.865 1477.06 981.865 1468.33 Q981.865 1459.58 984.921 1455 Q987.999 1450.39 993.809 1450.39 Z" fill="#000000" fill-rule="nonzero" fill-opacity="1" /><path clip-path="url(#clip370)" d="M1339.23 1451.02 L1357.59 1451.02 L1357.59 1454.96 L1343.51 1454.96 L1343.51 1463.43 Q1344.53 1463.08 1345.55 1462.92 Q1346.57 1462.73 1347.59 1462.73 Q1353.38 1462.73 1356.76 1465.9 Q1360.14 1469.08 1360.14 1474.49 Q1360.14 1480.07 1356.66 1483.17 Q1353.19 1486.25 1346.87 1486.25 Q1344.7 1486.25 1342.43 1485.88 Q1340.18 1485.51 1337.77 1484.77 L1337.77 1480.07 Q1339.86 1481.2 1342.08 1481.76 Q1344.3 1482.32 1346.78 1482.32 Q1350.78 1482.32 1353.12 1480.21 Q1355.46 1478.1 1355.46 1474.49 Q1355.46 1470.88 1353.12 1468.77 Q1350.78 1466.67 1346.78 1466.67 Q1344.9 1466.67 1343.03 1467.08 Q1341.18 1467.5 1339.23 1468.38 L1339.23 1451.02 Z" fill="#000000" fill-rule="nonzero" fill-opacity="1" /><path clip-path="url(#clip370)" d="M1678.79 1481.64 L1686.43 1481.64 L1686.43 1455.28 L1678.12 1456.95 L1678.12 1452.69 L1686.38 1451.02 L1691.06 1451.02 L1691.06 1481.64 L1698.69 1481.64 L1698.69 1485.58 L1678.79 1485.58 L1678.79 1481.64 Z" fill="#000000" fill-rule="nonzero" fill-opacity="1" /><path clip-path="url(#clip370)" d="M1718.14 1454.1 Q1714.53 1454.1 1712.7 1457.66 Q1710.89 1461.2 1710.89 1468.33 Q1710.89 1475.44 1712.7 1479.01 Q1714.53 1482.55 1718.14 1482.55 Q1721.77 1482.55 1723.58 1479.01 Q1725.41 1475.44 1725.41 1468.33 Q1725.41 1461.2 1723.58 1457.66 Q1721.77 1454.1 1718.14 1454.1 M1718.14 1450.39 Q1723.95 1450.39 1727 1455 Q1730.08 1459.58 1730.08 1468.33 Q1730.08 1477.06 1727 1481.67 Q1723.95 1486.25 1718.14 1486.25 Q1712.33 1486.25 1709.25 1481.67 Q1706.19 1477.06 1706.19 1468.33 Q1706.19 1459.58 1709.25 1455 Q1712.33 1450.39 1718.14 1450.39 Z" fill="#000000" fill-rule="nonzero" fill-opacity="1" /><path clip-path="url(#clip370)" d="M2034.43 1481.64 L2042.07 1481.64 L2042.07 1455.28 L2033.76 1456.95 L2033.76 1452.69 L2042.02 1451.02 L2046.7 1451.02 L2046.7 1481.64 L2054.34 1481.64 L2054.34 1485.58 L2034.43 1485.58 L2034.43 1481.64 Z" fill="#000000" fill-rule="nonzero" fill-opacity="1" /><path clip-path="url(#clip370)" d="M2063.83 1451.02 L2082.18 1451.02 L2082.18 1454.96 L2068.11 1454.96 L2068.11 1463.43 Q2069.13 1463.08 2070.15 1462.92 Q2071.17 1462.73 2072.18 1462.73 Q2077.97 1462.73 2081.35 1465.9 Q2084.73 1469.08 2084.73 1474.49 Q2084.73 1480.07 2081.26 1483.17 Q2077.79 1486.25 2071.47 1486.25 Q2069.29 1486.25 2067.02 1485.88 Q2064.78 1485.51 2062.37 1484.77 L2062.37 1480.07 Q2064.45 1481.2 2066.68 1481.76 Q2068.9 1482.32 2071.37 1482.32 Q2075.38 1482.32 2077.72 1480.21 Q2080.06 1478.1 2080.06 1474.49 Q2080.06 1470.88 2077.72 1468.77 Q2075.38 1466.67 2071.37 1466.67 Q2069.5 1466.67 2067.62 1467.08 Q2065.77 1467.5 2063.83 1468.38 L2063.83 1451.02 Z" fill="#000000" fill-rule="nonzero" fill-opacity="1" /><path clip-path="url(#clip370)" d="M1000.84 1524.18 L1000.84 1530.96 Q997.594 1527.94 993.902 1526.44 Q990.242 1524.95 986.104 1524.95 Q977.956 1524.95 973.628 1529.95 Q969.299 1534.91 969.299 1544.33 Q969.299 1553.72 973.628 1558.72 Q977.956 1563.68 986.104 1563.68 Q990.242 1563.68 993.902 1562.19 Q997.594 1560.69 1000.84 1557.67 L1000.84 1564.38 Q997.467 1566.68 993.68 1567.82 Q989.924 1568.97 985.722 1568.97 Q974.933 1568.97 968.726 1562.38 Q962.519 1555.76 962.519 1544.33 Q962.519 1532.87 968.726 1526.28 Q974.933 1519.66 985.722 1519.66 Q989.987 1519.66 993.743 1520.81 Q997.531 1521.92 1000.84 1524.18 Z" fill="#000000" fill-rule="nonzero" fill-opacity="1" /><path clip-path="url(#clip370)" d="M1024.33 1536.5 Q1019.62 1536.5 1016.88 1540.19 Q1014.15 1543.85 1014.15 1550.25 Q1014.15 1556.65 1016.85 1560.34 Q1019.59 1564 1024.33 1564 Q1029.01 1564 1031.75 1560.31 Q1034.48 1556.62 1034.48 1550.25 Q1034.48 1543.92 1031.75 1540.23 Q1029.01 1536.5 1024.33 1536.5 M1024.33 1531.54 Q1031.97 1531.54 1036.33 1536.5 Q1040.69 1541.47 1040.69 1550.25 Q1040.69 1559 1036.33 1564 Q1031.97 1568.97 1024.33 1568.97 Q1016.66 1568.97 1012.3 1564 Q1007.97 1559 1007.97 1550.25 Q1007.97 1541.47 1012.3 1536.5 Q1016.66 1531.54 1024.33 1531.54 Z" fill="#000000" fill-rule="nonzero" fill-opacity="1" /><path clip-path="url(#clip370)" d="M1080.03 1546.53 L1080.03 1568.04 L1074.17 1568.04 L1074.17 1546.72 Q1074.17 1541.66 1072.2 1539.14 Q1070.23 1536.63 1066.28 1536.63 Q1061.54 1536.63 1058.8 1539.65 Q1056.06 1542.68 1056.06 1547.9 L1056.06 1568.04 L1050.18 1568.04 L1050.18 1532.4 L1056.06 1532.4 L1056.06 1537.93 Q1058.16 1534.72 1061 1533.13 Q1063.86 1531.54 1067.59 1531.54 Q1073.73 1531.54 1076.88 1535.36 Q1080.03 1539.14 1080.03 1546.53 Z" fill="#000000" fill-rule="nonzero" fill-opacity="1" /><path clip-path="url(#clip370)" d="M1117.37 1533.76 L1117.37 1539.24 Q1114.88 1537.87 1112.37 1537.2 Q1109.89 1536.5 1107.34 1536.5 Q1101.64 1536.5 1098.49 1540.13 Q1095.34 1543.73 1095.34 1550.25 Q1095.34 1556.78 1098.49 1560.4 Q1101.64 1564 1107.34 1564 Q1109.89 1564 1112.37 1563.33 Q1114.88 1562.63 1117.37 1561.26 L1117.37 1566.68 Q1114.91 1567.82 1112.27 1568.39 Q1109.66 1568.97 1106.7 1568.97 Q1098.65 1568.97 1093.91 1563.91 Q1089.17 1558.85 1089.17 1550.25 Q1089.17 1541.53 1093.94 1536.53 Q1098.75 1531.54 1107.08 1531.54 Q1109.79 1531.54 1112.37 1532.11 Q1114.95 1532.65 1117.37 1533.76 Z" fill="#000000" fill-rule="nonzero" fill-opacity="1" /><path clip-path="url(#clip370)" d="M1158.04 1548.76 L1158.04 1551.62 L1131.12 1551.62 Q1131.5 1557.67 1134.74 1560.85 Q1138.02 1564 1143.85 1564 Q1147.22 1564 1150.37 1563.17 Q1153.55 1562.35 1156.67 1560.69 L1156.67 1566.23 Q1153.52 1567.57 1150.21 1568.27 Q1146.9 1568.97 1143.5 1568.97 Q1134.97 1568.97 1129.97 1564 Q1125 1559.04 1125 1550.57 Q1125 1541.82 1129.71 1536.69 Q1134.46 1531.54 1142.48 1531.54 Q1149.67 1531.54 1153.84 1536.18 Q1158.04 1540.8 1158.04 1548.76 M1152.19 1547.04 Q1152.12 1542.23 1149.48 1539.37 Q1146.87 1536.5 1142.54 1536.5 Q1137.64 1536.5 1134.68 1539.27 Q1131.75 1542.04 1131.31 1547.07 L1152.19 1547.04 Z" fill="#000000" fill-rule="nonzero" fill-opacity="1" /><path clip-path="url(#clip370)" d="M1197.29 1546.53 L1197.29 1568.04 L1191.43 1568.04 L1191.43 1546.72 Q1191.43 1541.66 1189.46 1539.14 Q1187.48 1536.63 1183.54 1536.63 Q1178.79 1536.63 1176.06 1539.65 Q1173.32 1542.68 1173.32 1547.9 L1173.32 1568.04 L1167.43 1568.04 L1167.43 1532.4 L1173.32 1532.4 L1173.32 1537.93 Q1175.42 1534.72 1178.25 1533.13 Q1181.12 1531.54 1184.84 1531.54 Q1190.98 1531.54 1194.14 1535.36 Q1197.29 1539.14 1197.29 1546.53 Z" fill="#000000" fill-rule="nonzero" fill-opacity="1" /><path clip-path="url(#clip370)" d="M1214.76 1522.27 L1214.76 1532.4 L1226.82 1532.4 L1226.82 1536.95 L1214.76 1536.95 L1214.76 1556.3 Q1214.76 1560.66 1215.94 1561.9 Q1217.15 1563.14 1220.81 1563.14 L1226.82 1563.14 L1226.82 1568.04 L1220.81 1568.04 Q1214.03 1568.04 1211.45 1565.53 Q1208.87 1562.98 1208.87 1556.3 L1208.87 1536.95 L1204.58 1536.95 L1204.58 1532.4 L1208.87 1532.4 L1208.87 1522.27 L1214.76 1522.27 Z" fill="#000000" fill-rule="nonzero" fill-opacity="1" /><path clip-path="url(#clip370)" d="M1255.18 1537.87 Q1254.2 1537.3 1253.02 1537.04 Q1251.87 1536.76 1250.47 1536.76 Q1245.51 1536.76 1242.83 1540 Q1240.19 1543.22 1240.19 1549.27 L1240.19 1568.04 L1234.3 1568.04 L1234.3 1532.4 L1240.19 1532.4 L1240.19 1537.93 Q1242.04 1534.69 1245 1533.13 Q1247.96 1531.54 1252.19 1531.54 Q1252.8 1531.54 1253.53 1531.63 Q1254.26 1531.7 1255.15 1531.85 L1255.18 1537.87 Z" fill="#000000" fill-rule="nonzero" fill-opacity="1" /><path clip-path="url(#clip370)" d="M1277.53 1550.12 Q1270.43 1550.12 1267.69 1551.75 Q1264.95 1553.37 1264.95 1557.29 Q1264.95 1560.4 1266.99 1562.25 Q1269.06 1564.07 1272.59 1564.07 Q1277.46 1564.07 1280.39 1560.63 Q1283.35 1557.16 1283.35 1551.43 L1283.35 1550.12 L1277.53 1550.12 M1289.21 1547.71 L1289.21 1568.04 L1283.35 1568.04 L1283.35 1562.63 Q1281.35 1565.88 1278.35 1567.44 Q1275.36 1568.97 1271.03 1568.97 Q1265.56 1568.97 1262.31 1565.91 Q1259.1 1562.82 1259.1 1557.67 Q1259.1 1551.65 1263.11 1548.6 Q1267.15 1545.54 1275.14 1545.54 L1283.35 1545.54 L1283.35 1544.97 Q1283.35 1540.93 1280.68 1538.73 Q1278.04 1536.5 1273.23 1536.5 Q1270.17 1536.5 1267.28 1537.23 Q1264.38 1537.97 1261.71 1539.43 L1261.71 1534.02 Q1264.92 1532.78 1267.95 1532.17 Q1270.97 1531.54 1273.83 1531.54 Q1281.57 1531.54 1285.39 1535.55 Q1289.21 1539.56 1289.21 1547.71 Z" fill="#000000" fill-rule="nonzero" fill-opacity="1" /><path clip-path="url(#clip370)" d="M1307.06 1522.27 L1307.06 1532.4 L1319.13 1532.4 L1319.13 1536.95 L1307.06 1536.95 L1307.06 1556.3 Q1307.06 1560.66 1308.24 1561.9 Q1309.45 1563.14 1313.11 1563.14 L1319.13 1563.14 L1319.13 1568.04 L1313.11 1568.04 Q1306.33 1568.04 1303.75 1565.53 Q1301.18 1562.98 1301.18 1556.3 L1301.18 1536.95 L1296.88 1536.95 L1296.88 1532.4 L1301.18 1532.4 L1301.18 1522.27 L1307.06 1522.27 Z" fill="#000000" fill-rule="nonzero" fill-opacity="1" /><path clip-path="url(#clip370)" d="M1326.83 1532.4 L1332.69 1532.4 L1332.69 1568.04 L1326.83 1568.04 L1326.83 1532.4 M1326.83 1518.52 L1332.69 1518.52 L1332.69 1525.93 L1326.83 1525.93 L1326.83 1518.52 Z" fill="#000000" fill-rule="nonzero" fill-opacity="1" /><path clip-path="url(#clip370)" d="M1358.75 1536.5 Q1354.04 1536.5 1351.3 1540.19 Q1348.57 1543.85 1348.57 1550.25 Q1348.57 1556.65 1351.27 1560.34 Q1354.01 1564 1358.75 1564 Q1363.43 1564 1366.17 1560.31 Q1368.91 1556.62 1368.91 1550.25 Q1368.91 1543.92 1366.17 1540.23 Q1363.43 1536.5 1358.75 1536.5 M1358.75 1531.54 Q1366.39 1531.54 1370.75 1536.5 Q1375.11 1541.47 1375.11 1550.25 Q1375.11 1559 1370.75 1564 Q1366.39 1568.97 1358.75 1568.97 Q1351.08 1568.97 1346.72 1564 Q1342.39 1559 1342.39 1550.25 Q1342.39 1541.47 1346.72 1536.5 Q1351.08 1531.54 1358.75 1531.54 Z" fill="#000000" fill-rule="nonzero" fill-opacity="1" /><path clip-path="url(#clip370)" d="M1414.45 1546.53 L1414.45 1568.04 L1408.6 1568.04 L1408.6 1546.72 Q1408.6 1541.66 1406.62 1539.14 Q1404.65 1536.63 1400.7 1536.63 Q1395.96 1536.63 1393.22 1539.65 Q1390.49 1542.68 1390.49 1547.9 L1390.49 1568.04 L1384.6 1568.04 L1384.6 1532.4 L1390.49 1532.4 L1390.49 1537.93 Q1392.59 1534.72 1395.42 1533.13 Q1398.28 1531.54 1402.01 1531.54 Q1408.15 1531.54 1411.3 1535.36 Q1414.45 1539.14 1414.45 1546.53 Z" fill="#000000" fill-rule="nonzero" fill-opacity="1" /><path clip-path="url(#clip370)" d="M1460.92 1518.58 Q1456.66 1525.9 1454.59 1533.06 Q1452.52 1540.23 1452.52 1547.58 Q1452.52 1554.93 1454.59 1562.16 Q1456.69 1569.35 1460.92 1576.64 L1455.83 1576.64 Q1451.06 1569.16 1448.67 1561.93 Q1446.31 1554.71 1446.31 1547.58 Q1446.31 1540.48 1448.67 1533.29 Q1451.02 1526.09 1455.83 1518.58 L1460.92 1518.58 Z" fill="#000000" fill-rule="nonzero" fill-opacity="1" /><path clip-path="url(#clip370)" d="M1477.95 1562.7 L1477.95 1581.6 L1472.06 1581.6 L1472.06 1532.4 L1477.95 1532.4 L1477.95 1537.81 Q1479.8 1534.62 1482.6 1533.1 Q1485.43 1531.54 1489.35 1531.54 Q1495.84 1531.54 1499.88 1536.69 Q1503.95 1541.85 1503.95 1550.25 Q1503.95 1558.65 1499.88 1563.81 Q1495.84 1568.97 1489.35 1568.97 Q1485.43 1568.97 1482.6 1567.44 Q1479.8 1565.88 1477.95 1562.7 M1497.88 1550.25 Q1497.88 1543.79 1495.2 1540.13 Q1492.56 1536.44 1487.91 1536.44 Q1483.27 1536.44 1480.59 1540.13 Q1477.95 1543.79 1477.95 1550.25 Q1477.95 1556.71 1480.59 1560.4 Q1483.27 1564.07 1487.91 1564.07 Q1492.56 1564.07 1495.2 1560.4 Q1497.88 1556.71 1497.88 1550.25 Z" fill="#000000" fill-rule="nonzero" fill-opacity="1" /><path clip-path="url(#clip370)" d="M1519.33 1562.7 L1519.33 1581.6 L1513.44 1581.6 L1513.44 1532.4 L1519.33 1532.4 L1519.33 1537.81 Q1521.17 1534.62 1523.97 1533.1 Q1526.81 1531.54 1530.72 1531.54 Q1537.22 1531.54 1541.26 1536.69 Q1545.33 1541.85 1545.33 1550.25 Q1545.33 1558.65 1541.26 1563.81 Q1537.22 1568.97 1530.72 1568.97 Q1526.81 1568.97 1523.97 1567.44 Q1521.17 1565.88 1519.33 1562.7 M1539.25 1550.25 Q1539.25 1543.79 1536.58 1540.13 Q1533.94 1536.44 1529.29 1536.44 Q1524.64 1536.44 1521.97 1540.13 Q1519.33 1543.79 1519.33 1550.25 Q1519.33 1556.71 1521.97 1560.4 Q1524.64 1564.07 1529.29 1564.07 Q1533.94 1564.07 1536.58 1560.4 Q1539.25 1556.71 1539.25 1550.25 Z" fill="#000000" fill-rule="nonzero" fill-opacity="1" /><path clip-path="url(#clip370)" d="M1580.63 1550.25 Q1580.63 1543.79 1577.96 1540.13 Q1575.31 1536.44 1570.67 1536.44 Q1566.02 1536.44 1563.35 1540.13 Q1560.7 1543.79 1560.7 1550.25 Q1560.7 1556.71 1563.35 1560.4 Q1566.02 1564.07 1570.67 1564.07 Q1575.31 1564.07 1577.96 1560.4 Q1580.63 1556.71 1580.63 1550.25 M1560.7 1537.81 Q1562.55 1534.62 1565.35 1533.1 Q1568.18 1531.54 1572.1 1531.54 Q1578.59 1531.54 1582.63 1536.69 Q1586.71 1541.85 1586.71 1550.25 Q1586.71 1558.65 1582.63 1563.81 Q1578.59 1568.97 1572.1 1568.97 Q1568.18 1568.97 1565.35 1567.44 Q1562.55 1565.88 1560.7 1562.7 L1560.7 1568.04 L1554.82 1568.04 L1554.82 1518.52 L1560.7 1518.52 L1560.7 1537.81 Z" fill="#000000" fill-rule="nonzero" fill-opacity="1" /><path clip-path="url(#clip370)" d="M1595.49 1518.58 L1600.59 1518.58 Q1605.36 1526.09 1607.72 1533.29 Q1610.1 1540.48 1610.1 1547.58 Q1610.1 1554.71 1607.72 1561.93 Q1605.36 1569.16 1600.59 1576.64 L1595.49 1576.64 Q1599.73 1569.35 1601.8 1562.16 Q1603.9 1554.93 1603.9 1547.58 Q1603.9 1540.23 1601.8 1533.06 Q1599.73 1525.9 1595.49 1518.58 Z" fill="#000000" fill-rule="nonzero" fill-opacity="1" /><polyline clip-path="url(#clip372)" style="stroke:#000000; stroke-linecap:round; stroke-linejoin:round; stroke-width:2; stroke-opacity:0.1; fill:none" points="219.866,1423.18 2352.76,1423.18 "/>
<polyline clip-path="url(#clip372)" style="stroke:#000000; stroke-linecap:round; stroke-linejoin:round; stroke-width:2; stroke-opacity:0.1; fill:none" points="219.866,1079.2 2352.76,1079.2 "/>
<polyline clip-path="url(#clip372)" style="stroke:#000000; stroke-linecap:round; stroke-linejoin:round; stroke-width:2; stroke-opacity:0.1; fill:none" points="219.866,735.212 2352.76,735.212 "/>
<polyline clip-path="url(#clip372)" style="stroke:#000000; stroke-linecap:round; stroke-linejoin:round; stroke-width:2; stroke-opacity:0.1; fill:none" points="219.866,391.228 2352.76,391.228 "/>
<polyline clip-path="url(#clip372)" style="stroke:#000000; stroke-linecap:round; stroke-linejoin:round; stroke-width:2; stroke-opacity:0.1; fill:none" points="219.866,47.2441 2352.76,47.2441 "/>
<polyline clip-path="url(#clip370)" style="stroke:#000000; stroke-linecap:round; stroke-linejoin:round; stroke-width:4; stroke-opacity:1; fill:none" points="219.866,1423.18 219.866,47.2441 "/>
<polyline clip-path="url(#clip370)" style="stroke:#000000; stroke-linecap:round; stroke-linejoin:round; stroke-width:4; stroke-opacity:1; fill:none" points="219.866,1423.18 238.764,1423.18 "/>
<polyline clip-path="url(#clip370)" style="stroke:#000000; stroke-linecap:round; stroke-linejoin:round; stroke-width:4; stroke-opacity:1; fill:none" points="219.866,1079.2 238.764,1079.2 "/>
<polyline clip-path="url(#clip370)" style="stroke:#000000; stroke-linecap:round; stroke-linejoin:round; stroke-width:4; stroke-opacity:1; fill:none" points="219.866,735.212 238.764,735.212 "/>
<polyline clip-path="url(#clip370)" style="stroke:#000000; stroke-linecap:round; stroke-linejoin:round; stroke-width:4; stroke-opacity:1; fill:none" points="219.866,391.228 238.764,391.228 "/>
<polyline clip-path="url(#clip370)" style="stroke:#000000; stroke-linecap:round; stroke-linejoin:round; stroke-width:4; stroke-opacity:1; fill:none" points="219.866,47.2441 238.764,47.2441 "/>
<path clip-path="url(#clip370)" d="M126.691 1408.98 Q123.08 1408.98 121.251 1412.54 Q119.445 1416.08 119.445 1423.21 Q119.445 1430.32 121.251 1433.89 Q123.08 1437.43 126.691 1437.43 Q130.325 1437.43 132.13 1433.89 Q133.959 1430.32 133.959 1423.21 Q133.959 1416.08 132.13 1412.54 Q130.325 1408.98 126.691 1408.98 M126.691 1405.27 Q132.501 1405.27 135.556 1409.88 Q138.635 1414.46 138.635 1423.21 Q138.635 1431.94 135.556 1436.55 Q132.501 1441.13 126.691 1441.13 Q120.88 1441.13 117.802 1436.55 Q114.746 1431.94 114.746 1423.21 Q114.746 1414.46 117.802 1409.88 Q120.88 1405.27 126.691 1405.27 Z" fill="#000000" fill-rule="nonzero" fill-opacity="1" /><path clip-path="url(#clip370)" d="M146.853 1434.58 L151.737 1434.58 L151.737 1440.46 L146.853 1440.46 L146.853 1434.58 Z" fill="#000000" fill-rule="nonzero" fill-opacity="1" /><path clip-path="url(#clip370)" d="M171.922 1408.98 Q168.311 1408.98 166.482 1412.54 Q164.677 1416.08 164.677 1423.21 Q164.677 1430.32 166.482 1433.89 Q168.311 1437.43 171.922 1437.43 Q175.556 1437.43 177.362 1433.89 Q179.19 1430.32 179.19 1423.21 Q179.19 1416.08 177.362 1412.54 Q175.556 1408.98 171.922 1408.98 M171.922 1405.27 Q177.732 1405.27 180.788 1409.88 Q183.866 1414.46 183.866 1423.21 Q183.866 1431.94 180.788 1436.55 Q177.732 1441.13 171.922 1441.13 Q166.112 1441.13 163.033 1436.55 Q159.978 1431.94 159.978 1423.21 Q159.978 1414.46 163.033 1409.88 Q166.112 1405.27 171.922 1405.27 Z" fill="#000000" fill-rule="nonzero" fill-opacity="1" /><path clip-path="url(#clip370)" d="M127.917 1064.99 Q124.306 1064.99 122.478 1068.56 Q120.672 1072.1 120.672 1079.23 Q120.672 1086.34 122.478 1089.9 Q124.306 1093.44 127.917 1093.44 Q131.552 1093.44 133.357 1089.9 Q135.186 1086.34 135.186 1079.23 Q135.186 1072.1 133.357 1068.56 Q131.552 1064.99 127.917 1064.99 M127.917 1061.29 Q133.728 1061.29 136.783 1065.9 Q139.862 1070.48 139.862 1079.23 Q139.862 1087.96 136.783 1092.56 Q133.728 1097.15 127.917 1097.15 Q122.107 1097.15 119.029 1092.56 Q115.973 1087.96 115.973 1079.23 Q115.973 1070.48 119.029 1065.9 Q122.107 1061.29 127.917 1061.29 Z" fill="#000000" fill-rule="nonzero" fill-opacity="1" /><path clip-path="url(#clip370)" d="M148.079 1090.6 L152.964 1090.6 L152.964 1096.48 L148.079 1096.48 L148.079 1090.6 Z" fill="#000000" fill-rule="nonzero" fill-opacity="1" /><path clip-path="url(#clip370)" d="M163.959 1092.54 L171.598 1092.54 L171.598 1066.18 L163.288 1067.84 L163.288 1063.58 L171.552 1061.92 L176.227 1061.92 L176.227 1092.54 L183.866 1092.54 L183.866 1096.48 L163.959 1096.48 L163.959 1092.54 Z" fill="#000000" fill-rule="nonzero" fill-opacity="1" /><path clip-path="url(#clip370)" d="M128.288 721.011 Q124.677 721.011 122.848 724.575 Q121.043 728.117 121.043 735.247 Q121.043 742.353 122.848 745.918 Q124.677 749.46 128.288 749.46 Q131.922 749.46 133.728 745.918 Q135.556 742.353 135.556 735.247 Q135.556 728.117 133.728 724.575 Q131.922 721.011 128.288 721.011 M128.288 717.307 Q134.098 717.307 137.154 721.913 Q140.232 726.497 140.232 735.247 Q140.232 743.973 137.154 748.58 Q134.098 753.163 128.288 753.163 Q122.478 753.163 119.399 748.58 Q116.343 743.973 116.343 735.247 Q116.343 726.497 119.399 721.913 Q122.478 717.307 128.288 717.307 Z" fill="#000000" fill-rule="nonzero" fill-opacity="1" /><path clip-path="url(#clip370)" d="M148.45 746.612 L153.334 746.612 L153.334 752.492 L148.45 752.492 L148.45 746.612 Z" fill="#000000" fill-rule="nonzero" fill-opacity="1" /><path clip-path="url(#clip370)" d="M167.547 748.557 L183.866 748.557 L183.866 752.492 L161.922 752.492 L161.922 748.557 Q164.584 745.802 169.167 741.173 Q173.774 736.52 174.954 735.177 Q177.2 732.654 178.079 730.918 Q178.982 729.159 178.982 727.469 Q178.982 724.714 177.038 722.978 Q175.116 721.242 172.014 721.242 Q169.815 721.242 167.362 722.006 Q164.931 722.77 162.153 724.321 L162.153 719.599 Q164.977 718.464 167.431 717.886 Q169.885 717.307 171.922 717.307 Q177.292 717.307 180.487 719.992 Q183.681 722.677 183.681 727.168 Q183.681 729.298 182.871 731.219 Q182.084 733.117 179.977 735.71 Q179.399 736.381 176.297 739.599 Q173.195 742.793 167.547 748.557 Z" fill="#000000" fill-rule="nonzero" fill-opacity="1" /><path clip-path="url(#clip370)" d="M127.339 377.027 Q123.728 377.027 121.899 380.592 Q120.093 384.133 120.093 391.263 Q120.093 398.369 121.899 401.934 Q123.728 405.476 127.339 405.476 Q130.973 405.476 132.779 401.934 Q134.607 398.369 134.607 391.263 Q134.607 384.133 132.779 380.592 Q130.973 377.027 127.339 377.027 M127.339 373.323 Q133.149 373.323 136.204 377.929 Q139.283 382.513 139.283 391.263 Q139.283 399.99 136.204 404.596 Q133.149 409.179 127.339 409.179 Q121.529 409.179 118.45 404.596 Q115.394 399.99 115.394 391.263 Q115.394 382.513 118.45 377.929 Q121.529 373.323 127.339 373.323 Z" fill="#000000" fill-rule="nonzero" fill-opacity="1" /><path clip-path="url(#clip370)" d="M147.501 402.628 L152.385 402.628 L152.385 408.508 L147.501 408.508 L147.501 402.628 Z" fill="#000000" fill-rule="nonzero" fill-opacity="1" /><path clip-path="url(#clip370)" d="M176.737 389.874 Q180.093 390.591 181.968 392.86 Q183.866 395.128 183.866 398.462 Q183.866 403.578 180.348 406.378 Q176.829 409.179 170.348 409.179 Q168.172 409.179 165.857 408.74 Q163.565 408.323 161.112 407.466 L161.112 402.953 Q163.056 404.087 165.371 404.665 Q167.686 405.244 170.209 405.244 Q174.607 405.244 176.899 403.508 Q179.214 401.772 179.214 398.462 Q179.214 395.406 177.061 393.693 Q174.931 391.957 171.112 391.957 L167.084 391.957 L167.084 388.115 L171.297 388.115 Q174.746 388.115 176.575 386.749 Q178.403 385.36 178.403 382.767 Q178.403 380.105 176.505 378.693 Q174.63 377.258 171.112 377.258 Q169.19 377.258 166.991 377.675 Q164.792 378.092 162.153 378.971 L162.153 374.805 Q164.815 374.064 167.13 373.693 Q169.468 373.323 171.528 373.323 Q176.852 373.323 179.954 375.754 Q183.056 378.161 183.056 382.281 Q183.056 385.152 181.413 387.142 Q179.769 389.11 176.737 389.874 Z" fill="#000000" fill-rule="nonzero" fill-opacity="1" /><path clip-path="url(#clip370)" d="M126.205 33.0428 Q122.593 33.0428 120.765 36.6076 Q118.959 40.1492 118.959 47.2788 Q118.959 54.3853 120.765 57.9501 Q122.593 61.4917 126.205 61.4917 Q129.839 61.4917 131.644 57.9501 Q133.473 54.3853 133.473 47.2788 Q133.473 40.1492 131.644 36.6076 Q129.839 33.0428 126.205 33.0428 M126.205 29.3391 Q132.015 29.3391 135.07 33.9456 Q138.149 38.5289 138.149 47.2788 Q138.149 56.0056 135.07 60.6121 Q132.015 65.1954 126.205 65.1954 Q120.394 65.1954 117.316 60.6121 Q114.26 56.0056 114.26 47.2788 Q114.26 38.5289 117.316 33.9456 Q120.394 29.3391 126.205 29.3391 Z" fill="#000000" fill-rule="nonzero" fill-opacity="1" /><path clip-path="url(#clip370)" d="M146.366 58.6445 L151.251 58.6445 L151.251 64.5241 L146.366 64.5241 L146.366 58.6445 Z" fill="#000000" fill-rule="nonzero" fill-opacity="1" /><path clip-path="url(#clip370)" d="M174.283 34.0381 L162.477 52.4871 L174.283 52.4871 L174.283 34.0381 M173.056 29.9641 L178.936 29.9641 L178.936 52.4871 L183.866 52.4871 L183.866 56.376 L178.936 56.376 L178.936 64.5241 L174.283 64.5241 L174.283 56.376 L158.681 56.376 L158.681 51.8621 L173.056 29.9641 Z" fill="#000000" fill-rule="nonzero" fill-opacity="1" /><path clip-path="url(#clip370)" d="M21.7677 896.901 L39.6235 896.901 L39.6235 888.816 Q39.6235 884.329 37.3 881.878 Q34.9765 879.427 30.6797 879.427 Q26.4147 879.427 24.0912 881.878 Q21.7677 884.329 21.7677 888.816 L21.7677 896.901 M16.4842 903.33 L16.4842 888.816 Q16.4842 880.828 20.1126 876.753 Q23.7092 872.648 30.6797 872.648 Q37.7138 872.648 41.3104 876.753 Q44.907 880.828 44.907 888.816 L44.907 896.901 L64.0042 896.901 L64.0042 903.33 L16.4842 903.33 Z" fill="#000000" fill-rule="nonzero" fill-opacity="1" /><path clip-path="url(#clip370)" d="M33.8307 844.766 Q33.2578 845.752 33.0032 846.93 Q32.7167 848.076 32.7167 849.476 Q32.7167 854.442 35.9632 857.115 Q39.1779 859.757 45.2253 859.757 L64.0042 859.757 L64.0042 865.645 L28.3562 865.645 L28.3562 859.757 L33.8944 859.757 Q30.6479 857.911 29.0883 854.951 Q27.4968 851.991 27.4968 847.758 Q27.4968 847.153 27.5923 846.421 Q27.656 845.689 27.8151 844.798 L33.8307 844.766 Z" fill="#000000" fill-rule="nonzero" fill-opacity="1" /><path clip-path="url(#clip370)" d="M32.4621 826.242 Q32.4621 830.952 36.1542 833.689 Q39.8145 836.427 46.212 836.427 Q52.6095 836.427 56.3017 833.721 Q59.9619 830.984 59.9619 826.242 Q59.9619 821.563 56.2698 818.826 Q52.5777 816.088 46.212 816.088 Q39.8781 816.088 36.186 818.826 Q32.4621 821.563 32.4621 826.242 M27.4968 826.242 Q27.4968 818.603 32.4621 814.242 Q37.4273 809.882 46.212 809.882 Q54.9649 809.882 59.9619 814.242 Q64.9272 818.603 64.9272 826.242 Q64.9272 833.912 59.9619 838.273 Q54.9649 842.601 46.212 842.601 Q37.4273 842.601 32.4621 838.273 Q27.4968 833.912 27.4968 826.242 Z" fill="#000000" fill-rule="nonzero" fill-opacity="1" /><path clip-path="url(#clip370)" d="M46.212 774.584 Q39.7508 774.584 36.0905 777.257 Q32.3984 779.899 32.3984 784.546 Q32.3984 789.193 36.0905 791.867 Q39.7508 794.509 46.212 794.509 Q52.6732 794.509 56.3653 791.867 Q60.0256 789.193 60.0256 784.546 Q60.0256 779.899 56.3653 777.257 Q52.6732 774.584 46.212 774.584 M33.7671 794.509 Q30.5842 792.662 29.0564 789.862 Q27.4968 787.029 27.4968 783.114 Q27.4968 776.621 32.6531 772.579 Q37.8093 768.505 46.212 768.505 Q54.6147 768.505 59.771 772.579 Q64.9272 776.621 64.9272 783.114 Q64.9272 787.029 63.3994 789.862 Q61.8398 792.662 58.657 794.509 L64.0042 794.509 L64.0042 800.397 L14.479 800.397 L14.479 794.509 L33.7671 794.509 Z" fill="#000000" fill-rule="nonzero" fill-opacity="1" /><path clip-path="url(#clip370)" d="M46.0847 742.596 Q46.0847 749.694 47.7079 752.431 Q49.3312 755.168 53.2461 755.168 Q56.3653 755.168 58.2114 753.131 Q60.0256 751.063 60.0256 747.53 Q60.0256 742.66 56.5881 739.732 Q53.1188 736.772 47.3897 736.772 L46.0847 736.772 L46.0847 742.596 M43.6657 730.915 L64.0042 730.915 L64.0042 736.772 L58.5933 736.772 Q61.8398 738.777 63.3994 741.769 Q64.9272 744.761 64.9272 749.089 Q64.9272 754.564 61.8716 757.81 Q58.7843 761.025 53.6281 761.025 Q47.6125 761.025 44.5569 757.015 Q41.5014 752.972 41.5014 744.983 L41.5014 736.772 L40.9285 736.772 Q36.8862 736.772 34.6901 739.445 Q32.4621 742.087 32.4621 746.893 Q32.4621 749.949 33.1941 752.845 Q33.9262 755.741 35.3903 758.415 L29.9795 758.415 Q28.7381 755.2 28.1334 752.177 Q27.4968 749.153 27.4968 746.288 Q27.4968 738.554 31.5072 734.735 Q35.5176 730.915 43.6657 730.915 Z" fill="#000000" fill-rule="nonzero" fill-opacity="1" /><path clip-path="url(#clip370)" d="M46.212 693.262 Q39.7508 693.262 36.0905 695.936 Q32.3984 698.577 32.3984 703.224 Q32.3984 707.871 36.0905 710.545 Q39.7508 713.187 46.212 713.187 Q52.6732 713.187 56.3653 710.545 Q60.0256 707.871 60.0256 703.224 Q60.0256 698.577 56.3653 695.936 Q52.6732 693.262 46.212 693.262 M33.7671 713.187 Q30.5842 711.341 29.0564 708.54 Q27.4968 705.707 27.4968 701.792 Q27.4968 695.299 32.6531 691.257 Q37.8093 687.183 46.212 687.183 Q54.6147 687.183 59.771 691.257 Q64.9272 695.299 64.9272 701.792 Q64.9272 705.707 63.3994 708.54 Q61.8398 711.341 58.657 713.187 L64.0042 713.187 L64.0042 719.075 L14.479 719.075 L14.479 713.187 L33.7671 713.187 Z" fill="#000000" fill-rule="nonzero" fill-opacity="1" /><path clip-path="url(#clip370)" d="M28.3562 677.475 L28.3562 671.619 L64.0042 671.619 L64.0042 677.475 L28.3562 677.475 M14.479 677.475 L14.479 671.619 L21.895 671.619 L21.895 677.475 L14.479 677.475 Z" fill="#000000" fill-rule="nonzero" fill-opacity="1" /><path clip-path="url(#clip370)" d="M14.479 659.365 L14.479 653.508 L64.0042 653.508 L64.0042 659.365 L14.479 659.365 Z" fill="#000000" fill-rule="nonzero" fill-opacity="1" /><path clip-path="url(#clip370)" d="M28.3562 641.254 L28.3562 635.398 L64.0042 635.398 L64.0042 641.254 L28.3562 641.254 M14.479 641.254 L14.479 635.398 L21.895 635.398 L21.895 641.254 L14.479 641.254 Z" fill="#000000" fill-rule="nonzero" fill-opacity="1" /><path clip-path="url(#clip370)" d="M18.2347 617.351 L28.3562 617.351 L28.3562 605.288 L32.9077 605.288 L32.9077 617.351 L52.2594 617.351 Q56.6199 617.351 57.8613 616.173 Q59.1026 614.964 59.1026 611.303 L59.1026 605.288 L64.0042 605.288 L64.0042 611.303 Q64.0042 618.083 61.4897 620.661 Q58.9434 623.239 52.2594 623.239 L32.9077 623.239 L32.9077 627.536 L28.3562 627.536 L28.3562 623.239 L18.2347 623.239 L18.2347 617.351 Z" fill="#000000" fill-rule="nonzero" fill-opacity="1" /><path clip-path="url(#clip370)" d="M67.3143 582.753 Q73.68 585.236 75.6216 587.591 Q77.5631 589.947 77.5631 593.893 L77.5631 598.572 L72.6615 598.572 L72.6615 595.135 Q72.6615 592.716 71.5157 591.379 Q70.3699 590.042 66.1048 588.419 L63.4312 587.368 L28.3562 601.787 L28.3562 595.58 L56.238 584.44 L28.3562 573.3 L28.3562 567.094 L67.3143 582.753 Z" fill="#000000" fill-rule="nonzero" fill-opacity="1" /><path clip-path="url(#clip372)" d="M993.809 907.204 L993.809 1423.18 L1135.87 1423.18 L1135.87 907.204 L993.809 907.204 L993.809 907.204  Z" fill="#009af9" fill-rule="evenodd" fill-opacity="1"/>
<polyline clip-path="url(#clip372)" style="stroke:#000000; stroke-linecap:round; stroke-linejoin:round; stroke-width:4; stroke-opacity:1; fill:none" points="993.809,907.204 993.809,1423.18 1135.87,1423.18 1135.87,907.204 993.809,907.204 "/>
<path clip-path="url(#clip372)" d="M1135.87 219.236 L1135.87 1423.18 L1277.93 1423.18 L1277.93 219.236 L1135.87 219.236 L1135.87 219.236  Z" fill="#009af9" fill-rule="evenodd" fill-opacity="1"/>
<polyline clip-path="url(#clip372)" style="stroke:#000000; stroke-linecap:round; stroke-linejoin:round; stroke-width:4; stroke-opacity:1; fill:none" points="1135.87,219.236 1135.87,1423.18 1277.93,1423.18 1277.93,219.236 1135.87,219.236 "/>
<path clip-path="url(#clip372)" d="M1277.93 1079.2 L1277.93 1423.18 L1419.98 1423.18 L1419.98 1079.2 L1277.93 1079.2 L1277.93 1079.2  Z" fill="#009af9" fill-rule="evenodd" fill-opacity="1"/>
<polyline clip-path="url(#clip372)" style="stroke:#000000; stroke-linecap:round; stroke-linejoin:round; stroke-width:4; stroke-opacity:1; fill:none" points="1277.93,1079.2 1277.93,1423.18 1419.98,1423.18 1419.98,1079.2 1277.93,1079.2 "/>
<path clip-path="url(#clip372)" d="M1419.98 1079.2 L1419.98 1423.18 L1562.04 1423.18 L1562.04 1079.2 L1419.98 1079.2 L1419.98 1079.2  Z" fill="#009af9" fill-rule="evenodd" fill-opacity="1"/>
<polyline clip-path="url(#clip372)" style="stroke:#000000; stroke-linecap:round; stroke-linejoin:round; stroke-width:4; stroke-opacity:1; fill:none" points="1419.98,1079.2 1419.98,1423.18 1562.04,1423.18 1562.04,1079.2 1419.98,1079.2 "/>
<path clip-path="url(#clip372)" d="M1562.04 563.22 L1562.04 1423.18 L1704.1 1423.18 L1704.1 563.22 L1562.04 563.22 L1562.04 563.22  Z" fill="#009af9" fill-rule="evenodd" fill-opacity="1"/>
<polyline clip-path="url(#clip372)" style="stroke:#000000; stroke-linecap:round; stroke-linejoin:round; stroke-width:4; stroke-opacity:1; fill:none" points="1562.04,563.22 1562.04,1423.18 1704.1,1423.18 1704.1,563.22 1562.04,563.22 "/>
<path clip-path="url(#clip372)" d="M1704.1 1251.19 L1704.1 1423.18 L1846.16 1423.18 L1846.16 1251.19 L1704.1 1251.19 L1704.1 1251.19  Z" fill="#009af9" fill-rule="evenodd" fill-opacity="1"/>
<polyline clip-path="url(#clip372)" style="stroke:#000000; stroke-linecap:round; stroke-linejoin:round; stroke-width:4; stroke-opacity:1; fill:none" points="1704.1,1251.19 1704.1,1423.18 1846.16,1423.18 1846.16,1251.19 1704.1,1251.19 "/>
<circle clip-path="url(#clip372)" style="fill:#009af9; stroke:none; fill-opacity:0" cx="1064.84" cy="907.204" r="2"/>
<circle clip-path="url(#clip372)" style="fill:#009af9; stroke:none; fill-opacity:0" cx="1206.9" cy="219.236" r="2"/>
<circle clip-path="url(#clip372)" style="fill:#009af9; stroke:none; fill-opacity:0" cx="1348.95" cy="1079.2" r="2"/>
<circle clip-path="url(#clip372)" style="fill:#009af9; stroke:none; fill-opacity:0" cx="1491.01" cy="1079.2" r="2"/>
<circle clip-path="url(#clip372)" style="fill:#009af9; stroke:none; fill-opacity:0" cx="1633.07" cy="563.22" r="2"/>
<circle clip-path="url(#clip372)" style="fill:#009af9; stroke:none; fill-opacity:0" cx="1775.13" cy="1251.19" r="2"/>
<polyline clip-path="url(#clip372)" style="stroke:#e26f46; stroke-linecap:round; stroke-linejoin:round; stroke-width:4; stroke-opacity:1; fill:none" points="1044.78,1422.6 1048.84,1422.55 1052.9,1422.49 1090.46,1421.65 1128.01,1419.95 1150.58,1418.25 1173.14,1415.77 1192.22,1412.88 1211.3,1409.04 1221.67,1406.48 1232.03,1403.53 1242.39,1400.15 1252.76,1396.28 1262.31,1392.25 1271.87,1387.74 1281.42,1382.69 1290.97,1377.08 1301.22,1370.38 1311.46,1362.94 1321.7,1354.7 1331.95,1345.63 1343.82,1334.02 1355.68,1321.18 1367.55,1307.08 1379.42,1291.69 1389.96,1276.93 1400.51,1261.14 1411.06,1244.37 1421.6,1226.64 1430.85,1210.34 1440.1,1193.39 1449.35,1175.84 1458.6,1157.76 1478.76,1116.87 1498.93,1074.75 1519.22,1032.28 1539.5,991.003 1545.11,979.988 1550.72,969.2 1556.33,958.669 1561.93,948.424 1567.54,938.496 1573.15,928.912 1578.75,919.702 1584.36,910.893 1589.7,902.909 1595.03,895.334 1600.37,888.191 1605.7,881.499 1611.04,875.279 1616.37,869.547 1621.71,864.321 1627.04,859.616 1632.59,855.291 1638.14,851.559 1643.68,848.432 1649.23,845.919 1654.78,844.029 1660.33,842.768 1665.87,842.14 1671.42,842.147 1676.09,842.645 1680.76,843.593 1685.43,844.987 1690.1,846.824 1694.77,849.101 1699.44,851.812 1704.11,854.951 1708.78,858.511 1714.48,863.414 1720.18,868.916 1725.88,874.998 1731.58,881.639 1737.28,888.817 1742.99,896.508 1748.69,904.689 1754.39,913.331 1764.83,930.273 1775.28,948.497 1780.5,958.031 1785.72,967.815 1790.95,977.826 1796.17,988.039 1815.46,1027.12 1834.76,1067.43 1854.3,1108.36 1873.85,1148.34 1884.8,1169.98 1895.75,1190.92 1906.7,1211.03 1917.65,1230.22 1927.58,1246.76 1937.5,1262.44 1947.43,1277.24 1957.35,1291.14 1968.71,1305.95 1980.07,1319.57 1991.44,1332.02 2002.8,1343.35 2013.32,1352.87 2023.84,1361.49 2034.36,1369.27 2044.88,1376.26 2055.25,1382.41 2065.63,1387.9 2076,1392.76 2086.37,1397.05 2096.44,1400.72 2106.51,1403.94 2116.58,1406.76 2126.65,1409.22 2147.3,1413.28 2167.94,1416.27 2190.57,1418.59 2213.19,1420.19 2246.05,1421.63 2278.91,1422.4 2285.65,1422.51 2292.39,1422.6 "/>
<polyline clip-path="url(#clip372)" style="stroke:#000000; stroke-linecap:round; stroke-linejoin:round; stroke-width:4; stroke-opacity:1; fill:none" points="280.231,1422.78 286.033,1422.74 291.835,1422.7 345.482,1422.11 399.128,1420.92 431.368,1419.73 463.607,1417.99 490.865,1415.97 518.123,1413.28 532.928,1411.49 547.733,1409.43 562.538,1407.06 577.343,1404.35 590.992,1401.53 604.641,1398.37 618.29,1394.84 631.939,1390.91 646.572,1386.22 661.205,1381.01 675.838,1375.24 690.471,1368.89 707.424,1360.77 724.378,1351.78 741.332,1341.91 758.286,1331.14 773.352,1320.8 788.419,1309.76 803.485,1298.01 818.552,1285.6 831.764,1274.19 844.976,1262.32 858.188,1250.04 871.4,1237.39 900.209,1208.76 929.018,1179.28 957.998,1149.55 986.979,1120.66 994.989,1112.95 1003,1105.39 1011.01,1098.02 1019.02,1090.85 1027.03,1083.9 1035.04,1077.19 1043.05,1070.75 1051.06,1064.58 1058.68,1058.99 1066.31,1053.69 1073.93,1048.69 1081.55,1044 1089.17,1039.65 1096.79,1035.64 1104.41,1031.98 1112.04,1028.69 1119.96,1025.66 1127.89,1023.05 1135.81,1020.86 1143.73,1019.1 1151.66,1017.77 1159.58,1016.89 1167.51,1016.45 1175.43,1016.46 1182.1,1016.81 1188.78,1017.47 1195.45,1018.44 1202.12,1019.73 1208.79,1021.32 1215.46,1023.22 1222.13,1025.42 1228.8,1027.91 1236.95,1031.34 1245.09,1035.2 1253.24,1039.45 1261.38,1044.1 1269.52,1049.13 1277.67,1054.51 1285.81,1060.24 1293.96,1066.29 1308.88,1078.15 1323.8,1090.9 1331.26,1097.58 1338.72,1104.42 1346.18,1111.43 1353.64,1118.58 1381.21,1145.94 1408.77,1174.16 1436.69,1202.81 1464.61,1230.79 1480.26,1245.94 1495.9,1260.6 1511.55,1274.67 1527.19,1288.11 1541.37,1299.68 1555.55,1310.66 1569.72,1321.02 1583.9,1330.75 1600.13,1341.12 1616.37,1350.65 1632.6,1359.37 1648.83,1367.3 1663.86,1373.96 1678.89,1380 1693.92,1385.44 1708.95,1390.33 1723.76,1394.64 1738.58,1398.48 1753.4,1401.89 1768.22,1404.89 1782.6,1407.46 1796.99,1409.72 1811.37,1411.69 1825.76,1413.41 1855.26,1416.25 1884.75,1418.34 1917.07,1419.97 1949.38,1421.09 1996.33,1422.09 2043.27,1422.64 2052.9,1422.71 2062.53,1422.78 "/>
<polyline clip-path="url(#clip372)" style="stroke:#0000ff; stroke-linecap:round; stroke-linejoin:round; stroke-width:4; stroke-opacity:1; fill:none" points="1597.56,1423.18 1597.56,47.2441 "/>
<path clip-path="url(#clip370)" d="M1748.7 300.469 L2281.66 300.469 L2281.66 93.1086 L1748.7 93.1086  Z" fill="#ffffff" fill-rule="evenodd" fill-opacity="1"/>
<polyline clip-path="url(#clip370)" style="stroke:#000000; stroke-linecap:round; stroke-linejoin:round; stroke-width:4; stroke-opacity:1; fill:none" points="1748.7,300.469 2281.66,300.469 2281.66,93.1086 1748.7,93.1086 1748.7,300.469 "/>
<polyline clip-path="url(#clip370)" style="stroke:#e26f46; stroke-linecap:round; stroke-linejoin:round; stroke-width:4; stroke-opacity:1; fill:none" points="1772.4,144.949 1914.59,144.949 "/>
<path clip-path="url(#clip370)" d="M1938.29 127.669 L1967.52 127.669 L1967.52 131.604 L1955.25 131.604 L1955.25 162.229 L1950.56 162.229 L1950.56 131.604 L1938.29 131.604 L1938.29 127.669 Z" fill="#000000" fill-rule="nonzero" fill-opacity="1" /><path clip-path="url(#clip370)" d="M1973.84 139.289 Q1970.42 139.289 1968.43 141.974 Q1966.43 144.636 1966.43 149.289 Q1966.43 153.942 1968.4 156.627 Q1970.39 159.289 1973.84 159.289 Q1977.24 159.289 1979.24 156.604 Q1981.23 153.918 1981.23 149.289 Q1981.23 144.682 1979.24 141.997 Q1977.24 139.289 1973.84 139.289 M1973.84 135.678 Q1979.4 135.678 1982.57 139.289 Q1985.74 142.9 1985.74 149.289 Q1985.74 155.655 1982.57 159.289 Q1979.4 162.9 1973.84 162.9 Q1968.26 162.9 1965.09 159.289 Q1961.94 155.655 1961.94 149.289 Q1961.94 142.9 1965.09 139.289 Q1968.26 135.678 1973.84 135.678 Z" fill="#000000" fill-rule="nonzero" fill-opacity="1" /><path clip-path="url(#clip370)" d="M2012.89 136.303 L2003.52 148.919 L2013.38 162.229 L2008.36 162.229 L2000.81 152.043 L1993.26 162.229 L1988.24 162.229 L1998.31 148.664 L1989.1 136.303 L1994.12 136.303 L2000.99 145.539 L2007.87 136.303 L2012.89 136.303 Z" fill="#000000" fill-rule="nonzero" fill-opacity="1" /><path clip-path="url(#clip370)" d="M2019.4 136.303 L2023.66 136.303 L2023.66 162.229 L2019.4 162.229 L2019.4 136.303 M2019.4 126.21 L2023.66 126.21 L2023.66 131.604 L2019.4 131.604 L2019.4 126.21 Z" fill="#000000" fill-rule="nonzero" fill-opacity="1" /><path clip-path="url(#clip370)" d="M2051.23 137.298 L2051.23 141.28 Q2049.42 140.284 2047.59 139.798 Q2045.79 139.289 2043.93 139.289 Q2039.79 139.289 2037.5 141.928 Q2035.21 144.544 2035.21 149.289 Q2035.21 154.034 2037.5 156.673 Q2039.79 159.289 2043.93 159.289 Q2045.79 159.289 2047.59 158.803 Q2049.42 158.293 2051.23 157.298 L2051.23 161.233 Q2049.44 162.067 2047.52 162.483 Q2045.62 162.9 2043.47 162.9 Q2037.61 162.9 2034.17 159.219 Q2030.72 155.539 2030.72 149.289 Q2030.72 142.946 2034.19 139.312 Q2037.68 135.678 2043.75 135.678 Q2045.72 135.678 2047.59 136.095 Q2049.47 136.488 2051.23 137.298 Z" fill="#000000" fill-rule="nonzero" fill-opacity="1" /><polyline clip-path="url(#clip370)" style="stroke:#000000; stroke-linecap:round; stroke-linejoin:round; stroke-width:4; stroke-opacity:1; fill:none" points="1772.4,196.789 1914.59,196.789 "/>
<path clip-path="url(#clip370)" d="M1938.29 179.509 L1944.58 179.509 L1959.91 208.421 L1959.91 179.509 L1964.44 179.509 L1964.44 214.069 L1958.15 214.069 L1942.82 185.157 L1942.82 214.069 L1938.29 214.069 L1938.29 179.509 Z" fill="#000000" fill-rule="nonzero" fill-opacity="1" /><path clip-path="url(#clip370)" d="M1983.61 191.129 Q1980.18 191.129 1978.19 193.814 Q1976.2 196.476 1976.2 201.129 Q1976.2 205.782 1978.17 208.467 Q1980.16 211.129 1983.61 211.129 Q1987.01 211.129 1989 208.444 Q1990.99 205.758 1990.99 201.129 Q1990.99 196.522 1989 193.837 Q1987.01 191.129 1983.61 191.129 M1983.61 187.518 Q1989.17 187.518 1992.34 191.129 Q1995.51 194.74 1995.51 201.129 Q1995.51 207.495 1992.34 211.129 Q1989.17 214.74 1983.61 214.74 Q1978.03 214.74 1974.86 211.129 Q1971.71 207.495 1971.71 201.129 Q1971.71 194.74 1974.86 191.129 Q1978.03 187.518 1983.61 187.518 Z" fill="#000000" fill-rule="nonzero" fill-opacity="1" /><path clip-path="url(#clip370)" d="M2039.81 200.041 L2039.81 202.124 L2020.23 202.124 Q2020.51 206.522 2022.87 208.837 Q2025.25 211.129 2029.49 211.129 Q2031.94 211.129 2034.24 210.527 Q2036.55 209.925 2038.82 208.721 L2038.82 212.749 Q2036.53 213.721 2034.12 214.231 Q2031.71 214.74 2029.24 214.74 Q2023.03 214.74 2019.4 211.129 Q2015.79 207.518 2015.79 201.36 Q2015.79 194.995 2019.21 191.268 Q2022.66 187.518 2028.49 187.518 Q2033.73 187.518 2036.76 190.897 Q2039.81 194.254 2039.81 200.041 M2035.55 198.791 Q2035.51 195.296 2033.59 193.212 Q2031.69 191.129 2028.54 191.129 Q2024.98 191.129 2022.82 193.143 Q2020.69 195.157 2020.37 198.814 L2035.55 198.791 Z" fill="#000000" fill-rule="nonzero" fill-opacity="1" /><path clip-path="url(#clip370)" d="M2059.93 178.05 L2059.93 181.592 L2055.86 181.592 Q2053.56 181.592 2052.66 182.518 Q2051.78 183.444 2051.78 185.851 L2051.78 188.143 L2058.8 188.143 L2058.8 191.453 L2051.78 191.453 L2051.78 214.069 L2047.5 214.069 L2047.5 191.453 L2043.42 191.453 L2043.42 188.143 L2047.5 188.143 L2047.5 186.337 Q2047.5 182.009 2049.51 180.041 Q2051.53 178.05 2055.9 178.05 L2059.93 178.05 Z" fill="#000000" fill-rule="nonzero" fill-opacity="1" /><path clip-path="url(#clip370)" d="M2076.62 178.05 L2076.62 181.592 L2072.55 181.592 Q2070.25 181.592 2069.35 182.518 Q2068.47 183.444 2068.47 185.851 L2068.47 188.143 L2075.48 188.143 L2075.48 191.453 L2068.47 191.453 L2068.47 214.069 L2064.19 214.069 L2064.19 191.453 L2060.11 191.453 L2060.11 188.143 L2064.19 188.143 L2064.19 186.337 Q2064.19 182.009 2066.2 180.041 Q2068.22 178.05 2072.59 178.05 L2076.62 178.05 Z" fill="#000000" fill-rule="nonzero" fill-opacity="1" /><path clip-path="url(#clip370)" d="M2102.36 200.041 L2102.36 202.124 L2082.78 202.124 Q2083.05 206.522 2085.42 208.837 Q2087.8 211.129 2092.04 211.129 Q2094.49 211.129 2096.78 210.527 Q2099.1 209.925 2101.36 208.721 L2101.36 212.749 Q2099.07 213.721 2096.67 214.231 Q2094.26 214.74 2091.78 214.74 Q2085.58 214.74 2081.94 211.129 Q2078.33 207.518 2078.33 201.36 Q2078.33 194.995 2081.76 191.268 Q2085.21 187.518 2091.04 187.518 Q2096.27 187.518 2099.3 190.897 Q2102.36 194.254 2102.36 200.041 M2098.1 198.791 Q2098.05 195.296 2096.13 193.212 Q2094.23 191.129 2091.09 191.129 Q2087.52 191.129 2085.37 193.143 Q2083.24 195.157 2082.92 198.814 L2098.1 198.791 Z" fill="#000000" fill-rule="nonzero" fill-opacity="1" /><path clip-path="url(#clip370)" d="M2128.01 189.138 L2128.01 193.12 Q2126.2 192.124 2124.37 191.638 Q2122.57 191.129 2120.72 191.129 Q2116.57 191.129 2114.28 193.768 Q2111.99 196.384 2111.99 201.129 Q2111.99 205.874 2114.28 208.513 Q2116.57 211.129 2120.72 211.129 Q2122.57 211.129 2124.37 210.643 Q2126.2 210.133 2128.01 209.138 L2128.01 213.073 Q2126.23 213.907 2124.3 214.323 Q2122.41 214.74 2120.25 214.74 Q2114.4 214.74 2110.95 211.059 Q2107.5 207.379 2107.5 201.129 Q2107.5 194.786 2110.97 191.152 Q2114.47 187.518 2120.53 187.518 Q2122.5 187.518 2124.37 187.935 Q2126.25 188.328 2128.01 189.138 Z" fill="#000000" fill-rule="nonzero" fill-opacity="1" /><path clip-path="url(#clip370)" d="M2139.63 180.782 L2139.63 188.143 L2148.4 188.143 L2148.4 191.453 L2139.63 191.453 L2139.63 205.527 Q2139.63 208.698 2140.48 209.601 Q2141.36 210.504 2144.03 210.504 L2148.4 210.504 L2148.4 214.069 L2144.03 214.069 Q2139.1 214.069 2137.22 212.24 Q2135.35 210.388 2135.35 205.527 L2135.35 191.453 L2132.22 191.453 L2132.22 188.143 L2135.35 188.143 L2135.35 180.782 L2139.63 180.782 Z" fill="#000000" fill-rule="nonzero" fill-opacity="1" /><polyline clip-path="url(#clip370)" style="stroke:#0000ff; stroke-linecap:round; stroke-linejoin:round; stroke-width:4; stroke-opacity:1; fill:none" points="1772.4,248.629 1914.59,248.629 "/>
<path clip-path="url(#clip370)" d="M1938.29 231.349 L1945.25 231.349 L1954.07 254.867 L1962.94 231.349 L1969.91 231.349 L1969.91 265.909 L1965.35 265.909 L1965.35 235.562 L1956.43 259.265 L1951.74 259.265 L1942.82 235.562 L1942.82 265.909 L1938.29 265.909 L1938.29 231.349 Z" fill="#000000" fill-rule="nonzero" fill-opacity="1" /><path clip-path="url(#clip370)" d="M2001.18 251.881 L2001.18 253.964 L1981.6 253.964 Q1981.87 258.362 1984.24 260.677 Q1986.62 262.969 1990.86 262.969 Q1993.31 262.969 1995.6 262.367 Q1997.92 261.765 2000.18 260.561 L2000.18 264.589 Q1997.89 265.561 1995.49 266.071 Q1993.08 266.58 1990.6 266.58 Q1984.4 266.58 1980.76 262.969 Q1977.15 259.358 1977.15 253.2 Q1977.15 246.835 1980.58 243.108 Q1984.03 239.358 1989.86 239.358 Q1995.09 239.358 1998.12 242.737 Q2001.18 246.094 2001.18 251.881 M1996.92 250.631 Q1996.87 247.136 1994.95 245.052 Q1993.05 242.969 1989.91 242.969 Q1986.34 242.969 1984.19 244.983 Q1982.06 246.997 1981.74 250.654 L1996.92 250.631 Z" fill="#000000" fill-rule="nonzero" fill-opacity="1" /><path clip-path="url(#clip370)" d="M2019.95 252.876 Q2014.79 252.876 2012.8 254.057 Q2010.81 255.237 2010.81 258.085 Q2010.81 260.353 2012.29 261.696 Q2013.8 263.015 2016.36 263.015 Q2019.91 263.015 2022.04 260.515 Q2024.19 257.992 2024.19 253.825 L2024.19 252.876 L2019.95 252.876 M2028.45 251.117 L2028.45 265.909 L2024.19 265.909 L2024.19 261.973 Q2022.73 264.335 2020.55 265.469 Q2018.38 266.58 2015.23 266.58 Q2011.25 266.58 2008.89 264.358 Q2006.55 262.112 2006.55 258.362 Q2006.55 253.987 2009.47 251.765 Q2012.41 249.543 2018.22 249.543 L2024.19 249.543 L2024.19 249.126 Q2024.19 246.187 2022.24 244.589 Q2020.32 242.969 2016.83 242.969 Q2014.61 242.969 2012.5 243.501 Q2010.39 244.034 2008.45 245.099 L2008.45 241.163 Q2010.79 240.261 2012.99 239.821 Q2015.18 239.358 2017.27 239.358 Q2022.89 239.358 2025.67 242.274 Q2028.45 245.191 2028.45 251.117 Z" fill="#000000" fill-rule="nonzero" fill-opacity="1" /><path clip-path="url(#clip370)" d="M2053.75 240.747 L2053.75 244.774 Q2051.94 243.849 2050 243.386 Q2048.05 242.923 2045.97 242.923 Q2042.8 242.923 2041.2 243.895 Q2039.63 244.867 2039.63 246.811 Q2039.63 248.293 2040.76 249.149 Q2041.9 249.983 2045.32 250.747 L2046.78 251.071 Q2051.32 252.043 2053.22 253.825 Q2055.14 255.585 2055.14 258.756 Q2055.14 262.367 2052.27 264.473 Q2049.42 266.58 2044.42 266.58 Q2042.34 266.58 2040.07 266.163 Q2037.82 265.77 2035.32 264.96 L2035.32 260.561 Q2037.68 261.788 2039.98 262.413 Q2042.27 263.015 2044.51 263.015 Q2047.52 263.015 2049.14 261.997 Q2050.76 260.955 2050.76 259.08 Q2050.76 257.344 2049.58 256.418 Q2048.42 255.492 2044.47 254.636 L2042.99 254.288 Q2039.03 253.455 2037.27 251.742 Q2035.51 250.006 2035.51 246.997 Q2035.51 243.339 2038.1 241.349 Q2040.69 239.358 2045.46 239.358 Q2047.82 239.358 2049.91 239.705 Q2051.99 240.052 2053.75 240.747 Z" fill="#000000" fill-rule="nonzero" fill-opacity="1" /><path clip-path="url(#clip370)" d="M2061.48 255.677 L2061.48 239.983 L2065.74 239.983 L2065.74 255.515 Q2065.74 259.196 2067.17 261.048 Q2068.61 262.876 2071.48 262.876 Q2074.93 262.876 2076.92 260.677 Q2078.93 258.478 2078.93 254.682 L2078.93 239.983 L2083.19 239.983 L2083.19 265.909 L2078.93 265.909 L2078.93 261.927 Q2077.38 264.288 2075.32 265.446 Q2073.29 266.58 2070.58 266.58 Q2066.11 266.58 2063.8 263.802 Q2061.48 261.024 2061.48 255.677 M2072.2 239.358 L2072.2 239.358 Z" fill="#000000" fill-rule="nonzero" fill-opacity="1" /><path clip-path="url(#clip370)" d="M2106.99 243.964 Q2106.27 243.548 2105.42 243.362 Q2104.58 243.154 2103.56 243.154 Q2099.95 243.154 2098.01 245.515 Q2096.09 247.853 2096.09 252.251 L2096.09 265.909 L2091.8 265.909 L2091.8 239.983 L2096.09 239.983 L2096.09 244.011 Q2097.43 241.649 2099.58 240.515 Q2101.73 239.358 2104.81 239.358 Q2105.25 239.358 2105.79 239.427 Q2106.32 239.474 2106.97 239.589 L2106.99 243.964 Z" fill="#000000" fill-rule="nonzero" fill-opacity="1" /><path clip-path="url(#clip370)" d="M2132.59 251.881 L2132.59 253.964 L2113.01 253.964 Q2113.29 258.362 2115.65 260.677 Q2118.03 262.969 2122.27 262.969 Q2124.72 262.969 2127.01 262.367 Q2129.33 261.765 2131.6 260.561 L2131.6 264.589 Q2129.3 265.561 2126.9 266.071 Q2124.49 266.58 2122.01 266.58 Q2115.81 266.58 2112.17 262.969 Q2108.56 259.358 2108.56 253.2 Q2108.56 246.835 2111.99 243.108 Q2115.44 239.358 2121.27 239.358 Q2126.5 239.358 2129.54 242.737 Q2132.59 246.094 2132.59 251.881 M2128.33 250.631 Q2128.29 247.136 2126.36 245.052 Q2124.47 242.969 2121.32 242.969 Q2117.75 242.969 2115.6 244.983 Q2113.47 246.997 2113.15 250.654 L2128.33 250.631 Z" fill="#000000" fill-rule="nonzero" fill-opacity="1" /><path clip-path="url(#clip370)" d="M2159.77 244.96 Q2161.36 242.089 2163.59 240.724 Q2165.81 239.358 2168.82 239.358 Q2172.87 239.358 2175.07 242.205 Q2177.27 245.029 2177.27 250.261 L2177.27 265.909 L2172.98 265.909 L2172.98 250.399 Q2172.98 246.673 2171.66 244.867 Q2170.35 243.062 2167.64 243.062 Q2164.33 243.062 2162.41 245.261 Q2160.48 247.46 2160.48 251.256 L2160.48 265.909 L2156.2 265.909 L2156.2 250.399 Q2156.2 246.649 2154.88 244.867 Q2153.56 243.062 2150.81 243.062 Q2147.54 243.062 2145.62 245.284 Q2143.7 247.483 2143.7 251.256 L2143.7 265.909 L2139.42 265.909 L2139.42 239.983 L2143.7 239.983 L2143.7 244.011 Q2145.16 241.626 2147.2 240.492 Q2149.23 239.358 2152.04 239.358 Q2154.86 239.358 2156.83 240.793 Q2158.82 242.228 2159.77 244.96 Z" fill="#000000" fill-rule="nonzero" fill-opacity="1" /><path clip-path="url(#clip370)" d="M2207.94 251.881 L2207.94 253.964 L2188.35 253.964 Q2188.63 258.362 2190.99 260.677 Q2193.38 262.969 2197.61 262.969 Q2200.07 262.969 2202.36 262.367 Q2204.67 261.765 2206.94 260.561 L2206.94 264.589 Q2204.65 265.561 2202.24 266.071 Q2199.84 266.58 2197.36 266.58 Q2191.16 266.58 2187.52 262.969 Q2183.91 259.358 2183.91 253.2 Q2183.91 246.835 2187.34 243.108 Q2190.79 239.358 2196.62 239.358 Q2201.85 239.358 2204.88 242.737 Q2207.94 246.094 2207.94 251.881 M2203.68 250.631 Q2203.63 247.136 2201.71 245.052 Q2199.81 242.969 2196.66 242.969 Q2193.1 242.969 2190.95 244.983 Q2188.82 246.997 2188.49 250.654 L2203.68 250.631 Z" fill="#000000" fill-rule="nonzero" fill-opacity="1" /><path clip-path="url(#clip370)" d="M2236.48 250.261 L2236.48 265.909 L2232.22 265.909 L2232.22 250.399 Q2232.22 246.719 2230.79 244.89 Q2229.35 243.062 2226.48 243.062 Q2223.03 243.062 2221.04 245.261 Q2219.05 247.46 2219.05 251.256 L2219.05 265.909 L2214.77 265.909 L2214.77 239.983 L2219.05 239.983 L2219.05 244.011 Q2220.58 241.673 2222.64 240.515 Q2224.72 239.358 2227.43 239.358 Q2231.9 239.358 2234.19 242.136 Q2236.48 244.89 2236.48 250.261 Z" fill="#000000" fill-rule="nonzero" fill-opacity="1" /><path clip-path="url(#clip370)" d="M2249.19 232.622 L2249.19 239.983 L2257.96 239.983 L2257.96 243.293 L2249.19 243.293 L2249.19 257.367 Q2249.19 260.538 2250.04 261.441 Q2250.92 262.344 2253.59 262.344 L2257.96 262.344 L2257.96 265.909 L2253.59 265.909 Q2248.66 265.909 2246.78 264.08 Q2244.91 262.228 2244.91 257.367 L2244.91 243.293 L2241.78 243.293 L2241.78 239.983 L2244.91 239.983 L2244.91 232.622 L2249.19 232.622 Z" fill="#000000" fill-rule="nonzero" fill-opacity="1" /></svg>
