<?xml version="1.0" encoding="utf-8"?>
<svg xmlns="http://www.w3.org/2000/svg" xmlns:xlink="http://www.w3.org/1999/xlink" width="600" height="400" viewBox="0 0 2400 1600">
<defs>
  <clipPath id="clip550">
    <rect x="0" y="0" width="2400" height="1600"/>
  </clipPath>
</defs>
<path clip-path="url(#clip550)" d="M0 1600 L2400 1600 L2400 0 L0 0  Z" fill="#ffffff" fill-rule="evenodd" fill-opacity="1"/>
<defs>
  <clipPath id="clip551">
    <rect x="480" y="0" width="1681" height="1600"/>
  </clipPath>
</defs>
<path clip-path="url(#clip550)" d="M219.866 1423.18 L2352.76 1423.18 L2352.76 47.2441 L219.866 47.2441  Z" fill="#ffffff" fill-rule="evenodd" fill-opacity="1"/>
<defs>
  <clipPath id="clip552">
    <rect x="219" y="47" width="2134" height="1377"/>
  </clipPath>
</defs>
<polyline clip-path="url(#clip552)" style="stroke:#000000; stroke-linecap:round; stroke-linejoin:round; stroke-width:2; stroke-opacity:0.1; fill:none" points="283.519,1423.18 283.519,47.2441 "/>
<polyline clip-path="url(#clip552)" style="stroke:#000000; stroke-linecap:round; stroke-linejoin:round; stroke-width:2; stroke-opacity:0.1; fill:none" points="638.664,1423.18 638.664,47.2441 "/>
<polyline clip-path="url(#clip552)" style="stroke:#000000; stroke-linecap:round; stroke-linejoin:round; stroke-width:2; stroke-opacity:0.1; fill:none" points="993.809,1423.18 993.809,47.2441 "/>
<polyline clip-path="url(#clip552)" style="stroke:#000000; stroke-linecap:round; stroke-linejoin:round; stroke-width:2; stroke-opacity:0.1; fill:none" points="1348.95,1423.18 1348.95,47.2441 "/>
<polyline clip-path="url(#clip552)" style="stroke:#000000; stroke-linecap:round; stroke-linejoin:round; stroke-width:2; stroke-opacity:0.1; fill:none" points="1704.1,1423.18 1704.1,47.2441 "/>
<polyline clip-path="url(#clip552)" style="stroke:#000000; stroke-linecap:round; stroke-linejoin:round; stroke-width:2; stroke-opacity:0.1; fill:none" points="2059.25,1423.18 2059.25,47.2441 "/>
<polyline clip-path="url(#clip550)" style="stroke:#000000; stroke-linecap:round; stroke-linejoin:round; stroke-width:4; stroke-opacity:1; fill:none" points="219.866,1423.18 2352.76,1423.18 "/>
<polyline clip-path="url(#clip550)" style="stroke:#000000; stroke-linecap:round; stroke-linejoin:round; stroke-width:4; stroke-opacity:1; fill:none" points="283.519,1423.18 283.519,1404.28 "/>
<polyline clip-path="url(#clip550)" style="stroke:#000000; stroke-linecap:round; stroke-linejoin:round; stroke-width:4; stroke-opacity:1; fill:none" points="638.664,1423.18 638.664,1404.28 "/>
<polyline clip-path="url(#clip550)" style="stroke:#000000; stroke-linecap:round; stroke-linejoin:round; stroke-width:4; stroke-opacity:1; fill:none" points="993.809,1423.18 993.809,1404.28 "/>
<polyline clip-path="url(#clip550)" style="stroke:#000000; stroke-linecap:round; stroke-linejoin:round; stroke-width:4; stroke-opacity:1; fill:none" points="1348.95,1423.18 1348.95,1404.28 "/>
<polyline clip-path="url(#clip550)" style="stroke:#000000; stroke-linecap:round; stroke-linejoin:round; stroke-width:4; stroke-opacity:1; fill:none" points="1704.1,1423.18 1704.1,1404.28 "/>
<polyline clip-path="url(#clip550)" style="stroke:#000000; stroke-linecap:round; stroke-linejoin:round; stroke-width:4; stroke-opacity:1; fill:none" points="2059.25,1423.18 2059.25,1404.28 "/>
<path clip-path="url(#clip550)" d="M237.582 1468.75 L267.257 1468.75 L267.257 1472.69 L237.582 1472.69 L237.582 1468.75 Z" fill="#000000" fill-rule="nonzero" fill-opacity="1" /><path clip-path="url(#clip550)" d="M278.16 1481.64 L285.799 1481.64 L285.799 1455.28 L277.489 1456.95 L277.489 1452.69 L285.753 1451.02 L290.429 1451.02 L290.429 1481.64 L298.067 1481.64 L298.067 1485.58 L278.16 1485.58 L278.16 1481.64 Z" fill="#000000" fill-rule="nonzero" fill-opacity="1" /><path clip-path="url(#clip550)" d="M317.512 1454.1 Q313.901 1454.1 312.072 1457.66 Q310.266 1461.2 310.266 1468.33 Q310.266 1475.44 312.072 1479.01 Q313.901 1482.55 317.512 1482.55 Q321.146 1482.55 322.952 1479.01 Q324.78 1475.44 324.78 1468.33 Q324.78 1461.2 322.952 1457.66 Q321.146 1454.1 317.512 1454.1 M317.512 1450.39 Q323.322 1450.39 326.377 1455 Q329.456 1459.58 329.456 1468.33 Q329.456 1477.06 326.377 1481.67 Q323.322 1486.25 317.512 1486.25 Q311.702 1486.25 308.623 1481.67 Q305.567 1477.06 305.567 1468.33 Q305.567 1459.58 308.623 1455 Q311.702 1450.39 317.512 1450.39 Z" fill="#000000" fill-rule="nonzero" fill-opacity="1" /><path clip-path="url(#clip550)" d="M608.306 1468.75 L637.981 1468.75 L637.981 1472.69 L608.306 1472.69 L608.306 1468.75 Z" fill="#000000" fill-rule="nonzero" fill-opacity="1" /><path clip-path="url(#clip550)" d="M648.12 1451.02 L666.477 1451.02 L666.477 1454.96 L652.403 1454.96 L652.403 1463.43 Q653.421 1463.08 654.44 1462.92 Q655.458 1462.73 656.477 1462.73 Q662.264 1462.73 665.643 1465.9 Q669.023 1469.08 669.023 1474.49 Q669.023 1480.07 665.551 1483.17 Q662.078 1486.25 655.759 1486.25 Q653.583 1486.25 651.315 1485.88 Q649.069 1485.51 646.662 1484.77 L646.662 1480.07 Q648.745 1481.2 650.967 1481.76 Q653.19 1482.32 655.666 1482.32 Q659.671 1482.32 662.009 1480.21 Q664.347 1478.1 664.347 1474.49 Q664.347 1470.88 662.009 1468.77 Q659.671 1466.67 655.666 1466.67 Q653.791 1466.67 651.916 1467.08 Q650.065 1467.5 648.12 1468.38 L648.12 1451.02 Z" fill="#000000" fill-rule="nonzero" fill-opacity="1" /><path clip-path="url(#clip550)" d="M993.809 1454.1 Q990.198 1454.1 988.37 1457.66 Q986.564 1461.2 986.564 1468.33 Q986.564 1475.44 988.37 1479.01 Q990.198 1482.55 993.809 1482.55 Q997.444 1482.55 999.249 1479.01 Q1001.08 1475.44 1001.08 1468.33 Q1001.08 1461.2 999.249 1457.66 Q997.444 1454.1 993.809 1454.1 M993.809 1450.39 Q999.62 1450.39 1002.68 1455 Q1005.75 1459.58 1005.75 1468.33 Q1005.75 1477.06 1002.68 1481.67 Q999.62 1486.25 993.809 1486.25 Q987.999 1486.25 984.921 1481.67 Q981.865 1477.06 981.865 1468.33 Q981.865 1459.58 984.921 1455 Q987.999 1450.39 993.809 1450.39 Z" fill="#000000" fill-rule="nonzero" fill-opacity="1" /><path clip-path="url(#clip550)" d="M1339.23 1451.02 L1357.59 1451.02 L1357.59 1454.96 L1343.51 1454.96 L1343.51 1463.43 Q1344.53 1463.08 1345.55 1462.92 Q1346.57 1462.73 1347.59 1462.73 Q1353.38 1462.73 1356.76 1465.9 Q1360.14 1469.08 1360.14 1474.49 Q1360.14 1480.07 1356.66 1483.17 Q1353.19 1486.25 1346.87 1486.25 Q1344.7 1486.25 1342.43 1485.88 Q1340.18 1485.51 1337.77 1484.77 L1337.77 1480.07 Q1339.86 1481.2 1342.08 1481.76 Q1344.3 1482.32 1346.78 1482.32 Q1350.78 1482.32 1353.12 1480.21 Q1355.46 1478.1 1355.46 1474.49 Q1355.46 1470.88 1353.12 1468.77 Q1350.78 1466.67 1346.78 1466.67 Q1344.9 1466.67 1343.03 1467.08 Q1341.18 1467.5 1339.23 1468.38 L1339.23 1451.02 Z" fill="#000000" fill-rule="nonzero" fill-opacity="1" /><path clip-path="url(#clip550)" d="M1678.79 1481.64 L1686.43 1481.64 L1686.43 1455.28 L1678.12 1456.95 L1678.12 1452.69 L1686.38 1451.02 L1691.06 1451.02 L1691.06 1481.64 L1698.69 1481.64 L1698.69 1485.58 L1678.79 1485.58 L1678.79 1481.64 Z" fill="#000000" fill-rule="nonzero" fill-opacity="1" /><path clip-path="url(#clip550)" d="M1718.14 1454.1 Q1714.53 1454.1 1712.7 1457.66 Q1710.89 1461.2 1710.89 1468.33 Q1710.89 1475.44 1712.7 1479.01 Q1714.53 1482.55 1718.14 1482.55 Q1721.77 1482.55 1723.58 1479.01 Q1725.41 1475.44 1725.41 1468.33 Q1725.41 1461.2 1723.58 1457.66 Q1721.77 1454.1 1718.14 1454.1 M1718.14 1450.39 Q1723.95 1450.39 1727 1455 Q1730.08 1459.58 1730.08 1468.33 Q1730.08 1477.06 1727 1481.67 Q1723.95 1486.25 1718.14 1486.25 Q1712.33 1486.25 1709.25 1481.67 Q1706.19 1477.06 1706.19 1468.33 Q1706.19 1459.58 1709.25 1455 Q1712.33 1450.39 1718.14 1450.39 Z" fill="#000000" fill-rule="nonzero" fill-opacity="1" /><path clip-path="url(#clip550)" d="M2034.43 1481.64 L2042.07 1481.64 L2042.07 1455.28 L2033.76 1456.95 L2033.76 1452.69 L2042.02 1451.02 L2046.7 1451.02 L2046.7 1481.64 L2054.34 1481.64 L2054.34 1485.58 L2034.43 1485.58 L2034.43 1481.64 Z" fill="#000000" fill-rule="nonzero" fill-opacity="1" /><path clip-path="url(#clip550)" d="M2063.83 1451.02 L2082.18 1451.02 L2082.18 1454.96 L2068.11 1454.96 L2068.11 1463.43 Q2069.13 1463.08 2070.15 1462.92 Q2071.17 1462.73 2072.18 1462.73 Q2077.97 1462.73 2081.35 1465.9 Q2084.73 1469.08 2084.73 1474.49 Q2084.73 1480.07 2081.26 1483.17 Q2077.79 1486.25 2071.47 1486.25 Q2069.29 1486.25 2067.02 1485.88 Q2064.78 1485.51 2062.37 1484.77 L2062.37 1480.07 Q2064.45 1481.2 2066.68 1481.76 Q2068.9 1482.32 2071.37 1482.32 Q2075.38 1482.32 2077.72 1480.21 Q2080.06 1478.1 2080.06 1474.49 Q2080.06 1470.88 2077.72 1468.77 Q2075.38 1466.67 2071.37 1466.67 Q2069.5 1466.67 2067.62 1467.08 Q2065.77 1467.5 2063.83 1468.38 L2063.83 1451.02 Z" fill="#000000" fill-rule="nonzero" fill-opacity="1" /><path clip-path="url(#clip550)" d="M1000.84 1524.18 L1000.84 1530.96 Q997.594 1527.94 993.902 1526.44 Q990.242 1524.95 986.104 1524.95 Q977.956 1524.95 973.628 1529.95 Q969.299 1534.91 969.299 1544.33 Q969.299 1553.72 973.628 1558.72 Q977.956 1563.68 986.104 1563.68 Q990.242 1563.68 993.902 1562.19 Q997.594 1560.69 1000.84 1557.67 L1000.84 1564.38 Q997.467 1566.68 993.68 1567.82 Q989.924 1568.97 985.722 1568.97 Q974.933 1568.97 968.726 1562.38 Q962.519 1555.76 962.519 1544.33 Q962.519 1532.87 968.726 1526.28 Q974.933 1519.66 985.722 1519.66 Q989.987 1519.66 993.743 1520.81 Q997.531 1521.92 1000.84 1524.18 Z" fill="#000000" fill-rule="nonzero" fill-opacity="1" /><path clip-path="url(#clip550)" d="M1024.33 1536.5 Q1019.62 1536.5 1016.88 1540.19 Q1014.15 1543.85 1014.15 1550.25 Q1014.15 1556.65 1016.85 1560.34 Q1019.59 1564 1024.33 1564 Q1029.01 1564 1031.75 1560.31 Q1034.48 1556.62 1034.48 1550.25 Q1034.48 1543.92 1031.75 1540.23 Q1029.01 1536.5 1024.33 1536.5 M1024.33 1531.54 Q1031.97 1531.54 1036.33 1536.5 Q1040.69 1541.47 1040.69 1550.25 Q1040.69 1559 1036.33 1564 Q1031.97 1568.97 1024.33 1568.97 Q1016.66 1568.97 1012.3 1564 Q1007.97 1559 1007.97 1550.25 Q1007.97 1541.47 1012.3 1536.5 Q1016.66 1531.54 1024.33 1531.54 Z" fill="#000000" fill-rule="nonzero" fill-opacity="1" /><path clip-path="url(#clip550)" d="M1080.03 1546.53 L1080.03 1568.04 L1074.17 1568.04 L1074.17 1546.72 Q1074.17 1541.66 1072.2 1539.14 Q1070.23 1536.63 1066.28 1536.63 Q1061.54 1536.63 1058.8 1539.65 Q1056.06 1542.68 1056.06 1547.9 L1056.06 1568.04 L1050.18 1568.04 L1050.18 1532.4 L1056.06 1532.4 L1056.06 1537.93 Q1058.16 1534.72 1061 1533.13 Q1063.86 1531.54 1067.59 1531.54 Q1073.73 1531.54 1076.88 1535.36 Q1080.03 1539.14 1080.03 1546.53 Z" fill="#000000" fill-rule="nonzero" fill-opacity="1" /><path clip-path="url(#clip550)" d="M1117.37 1533.76 L1117.37 1539.24 Q1114.88 1537.87 1112.37 1537.2 Q1109.89 1536.5 1107.34 1536.5 Q1101.64 1536.5 1098.49 1540.13 Q1095.34 1543.73 1095.34 1550.25 Q1095.34 1556.78 1098.49 1560.4 Q1101.64 1564 1107.34 1564 Q1109.89 1564 1112.37 1563.33 Q1114.88 1562.63 1117.37 1561.26 L1117.37 1566.68 Q1114.91 1567.82 1112.27 1568.39 Q1109.66 1568.97 1106.7 1568.97 Q1098.65 1568.97 1093.91 1563.91 Q1089.17 1558.85 1089.17 1550.25 Q1089.17 1541.53 1093.94 1536.53 Q1098.75 1531.54 1107.08 1531.54 Q1109.79 1531.54 1112.37 1532.11 Q1114.95 1532.65 1117.37 1533.76 Z" fill="#000000" fill-rule="nonzero" fill-opacity="1" /><path clip-path="url(#clip550)" d="M1158.04 1548.76 L1158.04 1551.62 L1131.12 1551.62 Q1131.5 1557.67 1134.74 1560.85 Q1138.02 1564 1143.85 1564 Q1147.22 1564 1150.37 1563.17 Q1153.55 1562.35 1156.67 1560.69 L1156.67 1566.23 Q1153.52 1567.57 1150.21 1568.27 Q1146.9 1568.97 1143.5 1568.97 Q1134.97 1568.97 1129.97 1564 Q1125 1559.04 1125 1550.57 Q1125 1541.82 1129.71 1536.69 Q1134.46 1531.54 1142.48 1531.54 Q1149.67 1531.54 1153.84 1536.18 Q1158.04 1540.8 1158.04 1548.76 M1152.19 1547.04 Q1152.12 1542.23 1149.48 1539.37 Q1146.87 1536.5 1142.54 1536.5 Q1137.64 1536.5 1134.68 1539.27 Q1131.75 1542.04 1131.31 1547.07 L1152.19 1547.04 Z" fill="#000000" fill-rule="nonzero" fill-opacity="1" /><path clip-path="url(#clip550)" d="M1197.29 1546.53 L1197.29 1568.04 L1191.43 1568.04 L1191.43 1546.72 Q1191.43 1541.66 1189.46 1539.14 Q1187.48 1536.63 1183.54 1536.63 Q1178.79 1536.63 1176.06 1539.65 Q1173.32 1542.68 1173.32 1547.9 L1173.32 1568.04 L1167.43 1568.04 L1167.43 1532.4 L1173.32 1532.4 L1173.32 1537.93 Q1175.42 1534.72 1178.25 1533.13 Q1181.12 1531.54 1184.84 1531.54 Q1190.98 1531.54 1194.14 1535.36 Q1197.29 1539.14 1197.29 1546.53 Z" fill="#000000" fill-rule="nonzero" fill-opacity="1" /><path clip-path="url(#clip550)" d="M1214.76 1522.27 L1214.76 1532.4 L1226.82 1532.4 L1226.82 1536.95 L1214.76 1536.95 L1214.76 1556.3 Q1214.76 1560.66 1215.94 1561.9 Q1217.15 1563.14 1220.81 1563.14 L1226.82 1563.14 L1226.82 1568.04 L1220.81 1568.04 Q1214.03 1568.04 1211.45 1565.53 Q1208.87 1562.98 1208.87 1556.3 L1208.87 1536.95 L1204.58 1536.95 L1204.58 1532.4 L1208.87 1532.4 L1208.87 1522.27 L1214.76 1522.27 Z" fill="#000000" fill-rule="nonzero" fill-opacity="1" /><path clip-path="url(#clip550)" d="M1255.18 1537.87 Q1254.2 1537.3 1253.02 1537.04 Q1251.87 1536.76 1250.47 1536.76 Q1245.51 1536.76 1242.83 1540 Q1240.19 1543.22 1240.19 1549.27 L1240.19 1568.04 L1234.3 1568.04 L1234.3 1532.4 L1240.19 1532.4 L1240.19 1537.93 Q1242.04 1534.69 1245 1533.13 Q1247.96 1531.54 1252.19 1531.54 Q1252.8 1531.54 1253.53 1531.63 Q1254.26 1531.7 1255.15 1531.85 L1255.18 1537.87 Z" fill="#000000" fill-rule="nonzero" fill-opacity="1" /><path clip-path="url(#clip550)" d="M1277.53 1550.12 Q1270.43 1550.12 1267.69 1551.75 Q1264.95 1553.37 1264.95 1557.29 Q1264.95 1560.4 1266.99 1562.25 Q1269.06 1564.07 1272.59 1564.07 Q1277.46 1564.07 1280.39 1560.63 Q1283.35 1557.16 1283.35 1551.43 L1283.35 1550.12 L1277.53 1550.12 M1289.21 1547.71 L1289.21 1568.04 L1283.35 1568.04 L1283.35 1562.63 Q1281.35 1565.88 1278.35 1567.44 Q1275.36 1568.97 1271.03 1568.97 Q1265.56 1568.97 1262.31 1565.91 Q1259.1 1562.82 1259.1 1557.67 Q1259.1 1551.65 1263.11 1548.6 Q1267.15 1545.54 1275.14 1545.54 L1283.35 1545.54 L1283.35 1544.97 Q1283.35 1540.93 1280.68 1538.73 Q1278.04 1536.5 1273.23 1536.5 Q1270.17 1536.5 1267.28 1537.23 Q1264.38 1537.97 1261.71 1539.43 L1261.71 1534.02 Q1264.92 1532.78 1267.95 1532.17 Q1270.97 1531.54 1273.83 1531.54 Q1281.57 1531.54 1285.39 1535.55 Q1289.21 1539.56 1289.21 1547.71 Z" fill="#000000" fill-rule="nonzero" fill-opacity="1" /><path clip-path="url(#clip550)" d="M1307.06 1522.27 L1307.06 1532.4 L1319.13 1532.4 L1319.13 1536.95 L1307.06 1536.95 L1307.06 1556.3 Q1307.06 1560.66 1308.24 1561.9 Q1309.45 1563.14 1313.11 1563.14 L1319.13 1563.14 L1319.13 1568.04 L1313.11 1568.04 Q1306.33 1568.04 1303.75 1565.53 Q1301.18 1562.98 1301.18 1556.3 L1301.18 1536.95 L1296.88 1536.95 L1296.88 1532.4 L1301.18 1532.4 L1301.18 1522.27 L1307.06 1522.27 Z" fill="#000000" fill-rule="nonzero" fill-opacity="1" /><path clip-path="url(#clip550)" d="M1326.83 1532.4 L1332.69 1532.4 L1332.69 1568.04 L1326.83 1568.04 L1326.83 1532.4 M1326.83 1518.52 L1332.69 1518.52 L1332.69 1525.93 L1326.83 1525.93 L1326.83 1518.52 Z" fill="#000000" fill-rule="nonzero" fill-opacity="1" /><path clip-path="url(#clip550)" d="M1358.75 1536.5 Q1354.04 1536.5 1351.3 1540.19 Q1348.57 1543.85 1348.57 1550.25 Q1348.57 1556.65 1351.27 1560.34 Q1354.01 1564 1358.75 1564 Q1363.43 1564 1366.17 1560.31 Q1368.91 1556.62 1368.91 1550.25 Q1368.91 1543.92 1366.17 1540.23 Q1363.43 1536.5 1358.75 1536.5 M1358.75 1531.54 Q1366.39 1531.54 1370.75 1536.5 Q1375.11 1541.47 1375.11 1550.25 Q1375.11 1559 1370.75 1564 Q1366.39 1568.97 1358.75 1568.97 Q1351.08 1568.97 1346.72 1564 Q1342.39 1559 1342.39 1550.25 Q1342.39 1541.47 1346.72 1536.5 Q1351.08 1531.54 1358.75 1531.54 Z" fill="#000000" fill-rule="nonzero" fill-opacity="1" /><path clip-path="url(#clip550)" d="M1414.45 1546.53 L1414.45 1568.04 L1408.6 1568.04 L1408.6 1546.72 Q1408.6 1541.66 1406.62 1539.14 Q1404.65 1536.63 1400.7 1536.63 Q1395.96 1536.63 1393.22 1539.65 Q1390.49 1542.68 1390.49 1547.9 L1390.49 1568.04 L1384.6 1568.04 L1384.6 1532.4 L1390.49 1532.4 L1390.49 1537.93 Q1392.59 1534.72 1395.42 1533.13 Q1398.28 1531.54 1402.01 1531.54 Q1408.15 1531.54 1411.3 1535.36 Q1414.45 1539.14 1414.45 1546.53 Z" fill="#000000" fill-rule="nonzero" fill-opacity="1" /><path clip-path="url(#clip550)" d="M1460.92 1518.58 Q1456.66 1525.9 1454.59 1533.06 Q1452.52 1540.23 1452.52 1547.58 Q1452.52 1554.93 1454.59 1562.16 Q1456.69 1569.35 1460.92 1576.64 L1455.83 1576.64 Q1451.06 1569.16 1448.67 1561.93 Q1446.31 1554.71 1446.31 1547.58 Q1446.31 1540.48 1448.67 1533.29 Q1451.02 1526.09 1455.83 1518.58 L1460.92 1518.58 Z" fill="#000000" fill-rule="nonzero" fill-opacity="1" /><path clip-path="url(#clip550)" d="M1477.95 1562.7 L1477.95 1581.6 L1472.06 1581.6 L1472.06 1532.4 L1477.95 1532.4 L1477.95 1537.81 Q1479.8 1534.62 1482.6 1533.1 Q1485.43 1531.54 1489.35 1531.54 Q1495.84 1531.54 1499.88 1536.69 Q1503.95 1541.85 1503.95 1550.25 Q1503.95 1558.65 1499.88 1563.81 Q1495.84 1568.97 1489.35 1568.97 Q1485.43 1568.97 1482.6 1567.44 Q1479.8 1565.88 1477.95 1562.7 M1497.88 1550.25 Q1497.88 1543.79 1495.2 1540.13 Q1492.56 1536.44 1487.91 1536.44 Q1483.27 1536.44 1480.59 1540.13 Q1477.95 1543.79 1477.95 1550.25 Q1477.95 1556.71 1480.59 1560.4 Q1483.27 1564.07 1487.91 1564.07 Q1492.56 1564.07 1495.2 1560.4 Q1497.88 1556.71 1497.88 1550.25 Z" fill="#000000" fill-rule="nonzero" fill-opacity="1" /><path clip-path="url(#clip550)" d="M1519.33 1562.7 L1519.33 1581.6 L1513.44 1581.6 L1513.44 1532.4 L1519.33 1532.4 L1519.33 1537.81 Q1521.17 1534.62 1523.97 1533.1 Q1526.81 1531.54 1530.72 1531.54 Q1537.22 1531.54 1541.26 1536.69 Q1545.33 1541.85 1545.33 1550.25 Q1545.33 1558.65 1541.26 1563.81 Q1537.22 1568.97 1530.72 1568.97 Q1526.81 1568.97 1523.97 1567.44 Q1521.17 1565.88 1519.33 1562.7 M1539.25 1550.25 Q1539.25 1543.79 1536.58 1540.13 Q1533.94 1536.44 1529.29 1536.44 Q1524.64 1536.44 1521.97 1540.13 Q1519.33 1543.79 1519.33 1550.25 Q1519.33 1556.71 1521.97 1560.4 Q1524.64 1564.07 1529.29 1564.07 Q1533.94 1564.07 1536.58 1560.4 Q1539.25 1556.71 1539.25 1550.25 Z" fill="#000000" fill-rule="nonzero" fill-opacity="1" /><path clip-path="url(#clip550)" d="M1580.63 1550.25 Q1580.63 1543.79 1577.96 1540.13 Q1575.31 1536.44 1570.67 1536.44 Q1566.02 1536.44 1563.35 1540.13 Q1560.7 1543.79 1560.7 1550.25 Q1560.7 1556.71 1563.35 1560.4 Q1566.02 1564.07 1570.67 1564.07 Q1575.31 1564.07 1577.96 1560.4 Q1580.63 1556.71 1580.63 1550.25 M1560.7 1537.81 Q1562.55 1534.62 1565.35 1533.1 Q1568.18 1531.54 1572.1 1531.54 Q1578.59 1531.54 1582.63 1536.69 Q1586.71 1541.85 1586.71 1550.25 Q1586.71 1558.65 1582.63 1563.81 Q1578.59 1568.97 1572.1 1568.97 Q1568.18 1568.97 1565.35 1567.44 Q1562.55 1565.88 1560.7 1562.7 L1560.7 1568.04 L1554.82 1568.04 L1554.82 1518.52 L1560.7 1518.52 L1560.7 1537.81 Z" fill="#000000" fill-rule="nonzero" fill-opacity="1" /><path clip-path="url(#clip550)" d="M1595.49 1518.58 L1600.59 1518.58 Q1605.36 1526.09 1607.72 1533.29 Q1610.1 1540.48 1610.1 1547.58 Q1610.1 1554.71 1607.72 1561.93 Q1605.36 1569.16 1600.59 1576.64 L1595.49 1576.64 Q1599.73 1569.35 1601.8 1562.16 Q1603.9 1554.93 1603.9 1547.58 Q1603.9 1540.23 1601.8 1533.06 Q1599.73 1525.9 1595.49 1518.58 Z" fill="#000000" fill-rule="nonzero" fill-opacity="1" /><polyline clip-path="url(#clip552)" style="stroke:#000000; stroke-linecap:round; stroke-linejoin:round; stroke-width:2; stroke-opacity:0.1; fill:none" points="219.866,1423.18 2352.76,1423.18 "/>
<polyline clip-path="url(#clip552)" style="stroke:#000000; stroke-linecap:round; stroke-linejoin:round; stroke-width:2; stroke-opacity:0.1; fill:none" points="219.866,1079.2 2352.76,1079.2 "/>
<polyline clip-path="url(#clip552)" style="stroke:#000000; stroke-linecap:round; stroke-linejoin:round; stroke-width:2; stroke-opacity:0.1; fill:none" points="219.866,735.212 2352.76,735.212 "/>
<polyline clip-path="url(#clip552)" style="stroke:#000000; stroke-linecap:round; stroke-linejoin:round; stroke-width:2; stroke-opacity:0.1; fill:none" points="219.866,391.228 2352.76,391.228 "/>
<polyline clip-path="url(#clip552)" style="stroke:#000000; stroke-linecap:round; stroke-linejoin:round; stroke-width:2; stroke-opacity:0.1; fill:none" points="219.866,47.2441 2352.76,47.2441 "/>
<polyline clip-path="url(#clip550)" style="stroke:#000000; stroke-linecap:round; stroke-linejoin:round; stroke-width:4; stroke-opacity:1; fill:none" points="219.866,1423.18 219.866,47.2441 "/>
<polyline clip-path="url(#clip550)" style="stroke:#000000; stroke-linecap:round; stroke-linejoin:round; stroke-width:4; stroke-opacity:1; fill:none" points="219.866,1423.18 238.764,1423.18 "/>
<polyline clip-path="url(#clip550)" style="stroke:#000000; stroke-linecap:round; stroke-linejoin:round; stroke-width:4; stroke-opacity:1; fill:none" points="219.866,1079.2 238.764,1079.2 "/>
<polyline clip-path="url(#clip550)" style="stroke:#000000; stroke-linecap:round; stroke-linejoin:round; stroke-width:4; stroke-opacity:1; fill:none" points="219.866,735.212 238.764,735.212 "/>
<polyline clip-path="url(#clip550)" style="stroke:#000000; stroke-linecap:round; stroke-linejoin:round; stroke-width:4; stroke-opacity:1; fill:none" points="219.866,391.228 238.764,391.228 "/>
<polyline clip-path="url(#clip550)" style="stroke:#000000; stroke-linecap:round; stroke-linejoin:round; stroke-width:4; stroke-opacity:1; fill:none" points="219.866,47.2441 238.764,47.2441 "/>
<path clip-path="url(#clip550)" d="M126.691 1408.98 Q123.08 1408.98 121.251 1412.54 Q119.445 1416.08 119.445 1423.21 Q119.445 1430.32 121.251 1433.89 Q123.08 1437.43 126.691 1437.43 Q130.325 1437.43 132.13 1433.89 Q133.959 1430.32 133.959 1423.21 Q133.959 1416.08 132.13 1412.54 Q130.325 1408.98 126.691 1408.98 M126.691 1405.27 Q132.501 1405.27 135.556 1409.88 Q138.635 1414.46 138.635 1423.21 Q138.635 1431.94 135.556 1436.55 Q132.501 1441.13 126.691 1441.13 Q120.88 1441.13 117.802 1436.55 Q114.746 1431.94 114.746 1423.21 Q114.746 1414.46 117.802 1409.88 Q120.88 1405.27 126.691 1405.27 Z" fill="#000000" fill-rule="nonzero" fill-opacity="1" /><path clip-path="url(#clip550)" d="M146.853 1434.58 L151.737 1434.58 L151.737 1440.46 L146.853 1440.46 L146.853 1434.58 Z" fill="#000000" fill-rule="nonzero" fill-opacity="1" /><path clip-path="url(#clip550)" d="M171.922 1408.98 Q168.311 1408.98 166.482 1412.54 Q164.677 1416.08 164.677 1423.21 Q164.677 1430.32 166.482 1433.89 Q168.311 1437.43 171.922 1437.43 Q175.556 1437.43 177.362 1433.89 Q179.19 1430.32 179.19 1423.21 Q179.19 1416.08 177.362 1412.54 Q175.556 1408.98 171.922 1408.98 M171.922 1405.27 Q177.732 1405.27 180.788 1409.88 Q183.866 1414.46 183.866 1423.21 Q183.866 1431.94 180.788 1436.55 Q177.732 1441.13 171.922 1441.13 Q166.112 1441.13 163.033 1436.55 Q159.978 1431.94 159.978 1423.21 Q159.978 1414.46 163.033 1409.88 Q166.112 1405.27 171.922 1405.27 Z" fill="#000000" fill-rule="nonzero" fill-opacity="1" /><path clip-path="url(#clip550)" d="M127.917 1064.99 Q124.306 1064.99 122.478 1068.56 Q120.672 1072.1 120.672 1079.23 Q120.672 1086.34 122.478 1089.9 Q124.306 1093.44 127.917 1093.44 Q131.552 1093.44 133.357 1089.9 Q135.186 1086.34 135.186 1079.23 Q135.186 1072.1 133.357 1068.56 Q131.552 1064.99 127.917 1064.99 M127.917 1061.29 Q133.728 1061.29 136.783 1065.9 Q139.862 1070.48 139.862 1079.23 Q139.862 1087.96 136.783 1092.56 Q133.728 1097.15 127.917 1097.15 Q122.107 1097.15 119.029 1092.56 Q115.973 1087.96 115.973 1079.23 Q115.973 1070.48 119.029 1065.9 Q122.107 1061.29 127.917 1061.29 Z" fill="#000000" fill-rule="nonzero" fill-opacity="1" /><path clip-path="url(#clip550)" d="M148.079 1090.6 L152.964 1090.6 L152.964 1096.48 L148.079 1096.48 L148.079 1090.6 Z" fill="#000000" fill-rule="nonzero" fill-opacity="1" /><path clip-path="url(#clip550)" d="M163.959 1092.54 L171.598 1092.54 L171.598 1066.18 L163.288 1067.84 L163.288 1063.58 L171.552 1061.92 L176.227 1061.92 L176.227 1092.54 L183.866 1092.54 L183.866 1096.48 L163.959 1096.48 L163.959 1092.54 Z" fill="#000000" fill-rule="nonzero" fill-opacity="1" /><path clip-path="url(#clip550)" d="M128.288 721.011 Q124.677 721.011 122.848 724.575 Q121.043 728.117 121.043 735.247 Q121.043 742.353 122.848 745.918 Q124.677 749.46 128.288 749.46 Q131.922 749.46 133.728 745.918 Q135.556 742.353 135.556 735.247 Q135.556 728.117 133.728 724.575 Q131.922 721.011 128.288 721.011 M128.288 717.307 Q134.098 717.307 137.154 721.913 Q140.232 726.497 140.232 735.247 Q140.232 743.973 137.154 748.58 Q134.098 753.163 128.288 753.163 Q122.478 753.163 119.399 748.58 Q116.343 743.973 116.343 735.247 Q116.343 726.497 119.399 721.913 Q122.478 717.307 128.288 717.307 Z" fill="#000000" fill-rule="nonzero" fill-opacity="1" /><path clip-path="url(#clip550)" d="M148.45 746.612 L153.334 746.612 L153.334 752.492 L148.45 752.492 L148.45 746.612 Z" fill="#000000" fill-rule="nonzero" fill-opacity="1" /><path clip-path="url(#clip550)" d="M167.547 748.557 L183.866 748.557 L183.866 752.492 L161.922 752.492 L161.922 748.557 Q164.584 745.802 169.167 741.173 Q173.774 736.52 174.954 735.177 Q177.2 732.654 178.079 730.918 Q178.982 729.159 178.982 727.469 Q178.982 724.714 177.038 722.978 Q175.116 721.242 172.014 721.242 Q169.815 721.242 167.362 722.006 Q164.931 722.77 162.153 724.321 L162.153 719.599 Q164.977 718.464 167.431 717.886 Q169.885 717.307 171.922 717.307 Q177.292 717.307 180.487 719.992 Q183.681 722.677 183.681 727.168 Q183.681 729.298 182.871 731.219 Q182.084 733.117 179.977 735.71 Q179.399 736.381 176.297 739.599 Q173.195 742.793 167.547 748.557 Z" fill="#000000" fill-rule="nonzero" fill-opacity="1" /><path clip-path="url(#clip550)" d="M127.339 377.027 Q123.728 377.027 121.899 380.592 Q120.093 384.133 120.093 391.263 Q120.093 398.369 121.899 401.934 Q123.728 405.476 127.339 405.476 Q130.973 405.476 132.779 401.934 Q134.607 398.369 134.607 391.263 Q134.607 384.133 132.779 380.592 Q130.973 377.027 127.339 377.027 M127.339 373.323 Q133.149 373.323 136.204 377.929 Q139.283 382.513 139.283 391.263 Q139.283 399.99 136.204 404.596 Q133.149 409.179 127.339 409.179 Q121.529 409.179 118.45 404.596 Q115.394 399.99 115.394 391.263 Q115.394 382.513 118.45 377.929 Q121.529 373.323 127.339 373.323 Z" fill="#000000" fill-rule="nonzero" fill-opacity="1" /><path clip-path="url(#clip550)" d="M147.501 402.628 L152.385 402.628 L152.385 408.508 L147.501 408.508 L147.501 402.628 Z" fill="#000000" fill-rule="nonzero" fill-opacity="1" /><path clip-path="url(#clip550)" d="M176.737 389.874 Q180.093 390.591 181.968 392.86 Q183.866 395.128 183.866 398.462 Q183.866 403.578 180.348 406.378 Q176.829 409.179 170.348 409.179 Q168.172 409.179 165.857 408.74 Q163.565 408.323 161.112 407.466 L161.112 402.953 Q163.056 404.087 165.371 404.665 Q167.686 405.244 170.209 405.244 Q174.607 405.244 176.899 403.508 Q179.214 401.772 179.214 398.462 Q179.214 395.406 177.061 393.693 Q174.931 391.957 171.112 391.957 L167.084 391.957 L167.084 388.115 L171.297 388.115 Q174.746 388.115 176.575 386.749 Q178.403 385.36 178.403 382.767 Q178.403 380.105 176.505 378.693 Q174.63 377.258 171.112 377.258 Q169.19 377.258 166.991 377.675 Q164.792 378.092 162.153 378.971 L162.153 374.805 Q164.815 374.064 167.13 373.693 Q169.468 373.323 171.528 373.323 Q176.852 373.323 179.954 375.754 Q183.056 378.161 183.056 382.281 Q183.056 385.152 181.413 387.142 Q179.769 389.11 176.737 389.874 Z" fill="#000000" fill-rule="nonzero" fill-opacity="1" /><path clip-path="url(#clip550)" d="M126.205 33.0428 Q122.593 33.0428 120.765 36.6076 Q118.959 40.1492 118.959 47.2788 Q118.959 54.3853 120.765 57.9501 Q122.593 61.4917 126.205 61.4917 Q129.839 61.4917 131.644 57.9501 Q133.473 54.3853 133.473 47.2788 Q133.473 40.1492 131.644 36.6076 Q129.839 33.0428 126.205 33.0428 M126.205 29.3391 Q132.015 29.3391 135.07 33.9456 Q138.149 38.5289 138.149 47.2788 Q138.149 56.0056 135.07 60.6121 Q132.015 65.1954 126.205 65.1954 Q120.394 65.1954 117.316 60.6121 Q114.26 56.0056 114.26 47.2788 Q114.26 38.5289 117.316 33.9456 Q120.394 29.3391 126.205 29.3391 Z" fill="#000000" fill-rule="nonzero" fill-opacity="1" /><path clip-path="url(#clip550)" d="M146.366 58.6445 L151.251 58.6445 L151.251 64.5241 L146.366 64.5241 L146.366 58.6445 Z" fill="#000000" fill-rule="nonzero" fill-opacity="1" /><path clip-path="url(#clip550)" d="M174.283 34.0381 L162.477 52.4871 L174.283 52.4871 L174.283 34.0381 M173.056 29.9641 L178.936 29.9641 L178.936 52.4871 L183.866 52.4871 L183.866 56.376 L178.936 56.376 L178.936 64.5241 L174.283 64.5241 L174.283 56.376 L158.681 56.376 L158.681 51.8621 L173.056 29.9641 Z" fill="#000000" fill-rule="nonzero" fill-opacity="1" /><path clip-path="url(#clip550)" d="M21.7677 896.901 L39.6235 896.901 L39.6235 888.816 Q39.6235 884.329 37.3 881.878 Q34.9765 879.427 30.6797 879.427 Q26.4147 879.427 24.0912 881.878 Q21.7677 884.329 21.7677 888.816 L21.7677 896.901 M16.4842 903.33 L16.4842 888.816 Q16.4842 880.828 20.1126 876.753 Q23.7092 872.648 30.6797 872.648 Q37.7138 872.648 41.3104 876.753 Q44.907 880.828 44.907 888.816 L44.907 896.901 L64.0042 896.901 L64.0042 903.33 L16.4842 903.33 Z" fill="#000000" fill-rule="nonzero" fill-opacity="1" /><path clip-path="url(#clip550)" d="M33.8307 844.766 Q33.2578 845.752 33.0032 846.93 Q32.7167 848.076 32.7167 849.476 Q32.7167 854.442 35.9632 857.115 Q39.1779 859.757 45.2253 859.757 L64.0042 859.757 L64.0042 865.645 L28.3562 865.645 L28.3562 859.757 L33.8944 859.757 Q30.6479 857.911 29.0883 854.951 Q27.4968 851.991 27.4968 847.758 Q27.4968 847.153 27.5923 846.421 Q27.656 845.689 27.8151 844.798 L33.8307 844.766 Z" fill="#000000" fill-rule="nonzero" fill-opacity="1" /><path clip-path="url(#clip550)" d="M32.4621 826.242 Q32.4621 830.952 36.1542 833.689 Q39.8145 836.427 46.212 836.427 Q52.6095 836.427 56.3017 833.721 Q59.9619 830.984 59.9619 826.242 Q59.9619 821.563 56.2698 818.826 Q52.5777 816.088 46.212 816.088 Q39.8781 816.088 36.186 818.826 Q32.4621 821.563 32.4621 826.242 M27.4968 826.242 Q27.4968 818.603 32.4621 814.242 Q37.4273 809.882 46.212 809.882 Q54.9649 809.882 59.9619 814.242 Q64.9272 818.603 64.9272 826.242 Q64.9272 833.912 59.9619 838.273 Q54.9649 842.601 46.212 842.601 Q37.4273 842.601 32.4621 838.273 Q27.4968 833.912 27.4968 826.242 Z" fill="#000000" fill-rule="nonzero" fill-opacity="1" /><path clip-path="url(#clip550)" d="M46.212 774.584 Q39.7508 774.584 36.0905 777.257 Q32.3984 779.899 32.3984 784.546 Q32.3984 789.193 36.0905 791.867 Q39.7508 794.509 46.212 794.509 Q52.6732 794.509 56.3653 791.867 Q60.0256 789.193 60.0256 784.546 Q60.0256 779.899 56.3653 777.257 Q52.6732 774.584 46.212 774.584 M33.7671 794.509 Q30.5842 792.662 29.0564 789.862 Q27.4968 787.029 27.4968 783.114 Q27.4968 776.621 32.6531 772.579 Q37.8093 768.505 46.212 768.505 Q54.6147 768.505 59.771 772.579 Q64.9272 776.621 64.9272 783.114 Q64.9272 787.029 63.3994 789.862 Q61.8398 792.662 58.657 794.509 L64.0042 794.509 L64.0042 800.397 L14.479 800.397 L14.479 794.509 L33.7671 794.509 Z" fill="#000000" fill-rule="nonzero" fill-opacity="1" /><path clip-path="url(#clip550)" d="M46.0847 742.596 Q46.0847 749.694 47.7079 752.431 Q49.3312 755.168 53.2461 755.168 Q56.3653 755.168 58.2114 753.131 Q60.0256 751.063 60.0256 747.53 Q60.0256 742.66 56.5881 739.732 Q53.1188 736.772 47.3897 736.772 L46.0847 736.772 L46.0847 742.596 M43.6657 730.915 L64.0042 730.915 L64.0042 736.772 L58.5933 736.772 Q61.8398 738.777 63.3994 741.769 Q64.9272 744.761 64.9272 749.089 Q64.9272 754.564 61.8716 757.81 Q58.7843 761.025 53.6281 761.025 Q47.6125 761.025 44.5569 757.015 Q41.5014 752.972 41.5014 744.983 L41.5014 736.772 L40.9285 736.772 Q36.8862 736.772 34.6901 739.445 Q32.4621 742.087 32.4621 746.893 Q32.4621 749.949 33.1941 752.845 Q33.9262 755.741 35.3903 758.415 L29.9795 758.415 Q28.7381 755.2 28.1334 752.177 Q27.4968 749.153 27.4968 746.288 Q27.4968 738.554 31.5072 734.735 Q35.5176 730.915 43.6657 730.915 Z" fill="#000000" fill-rule="nonzero" fill-opacity="1" /><path clip-path="url(#clip550)" d="M46.212 693.262 Q39.7508 693.262 36.0905 695.936 Q32.3984 698.577 32.3984 703.224 Q32.3984 707.871 36.0905 710.545 Q39.7508 713.187 46.212 713.187 Q52.6732 713.187 56.3653 710.545 Q60.0256 707.871 60.0256 703.224 Q60.0256 698.577 56.3653 695.936 Q52.6732 693.262 46.212 693.262 M33.7671 713.187 Q30.5842 711.341 29.0564 708.54 Q27.4968 705.707 27.4968 701.792 Q27.4968 695.299 32.6531 691.257 Q37.8093 687.183 46.212 687.183 Q54.6147 687.183 59.771 691.257 Q64.9272 695.299 64.9272 701.792 Q64.9272 705.707 63.3994 708.54 Q61.8398 711.341 58.657 713.187 L64.0042 713.187 L64.0042 719.075 L14.479 719.075 L14.479 713.187 L33.7671 713.187 Z" fill="#000000" fill-rule="nonzero" fill-opacity="1" /><path clip-path="url(#clip550)" d="M28.3562 677.475 L28.3562 671.619 L64.0042 671.619 L64.0042 677.475 L28.3562 677.475 M14.479 677.475 L14.479 671.619 L21.895 671.619 L21.895 677.475 L14.479 677.475 Z" fill="#000000" fill-rule="nonzero" fill-opacity="1" /><path clip-path="url(#clip550)" d="M14.479 659.365 L14.479 653.508 L64.0042 653.508 L64.0042 659.365 L14.479 659.365 Z" fill="#000000" fill-rule="nonzero" fill-opacity="1" /><path clip-path="url(#clip550)" d="M28.3562 641.254 L28.3562 635.398 L64.0042 635.398 L64.0042 641.254 L28.3562 641.254 M14.479 641.254 L14.479 635.398 L21.895 635.398 L21.895 641.254 L14.479 641.254 Z" fill="#000000" fill-rule="nonzero" fill-opacity="1" /><path clip-path="url(#clip550)" d="M18.2347 617.351 L28.3562 617.351 L28.3562 605.288 L32.9077 605.288 L32.9077 617.351 L52.2594 617.351 Q56.6199 617.351 57.8613 616.173 Q59.1026 614.964 59.1026 611.303 L59.1026 605.288 L64.0042 605.288 L64.0042 611.303 Q64.0042 618.083 61.4897 620.661 Q58.9434 623.239 52.2594 623.239 L32.9077 623.239 L32.9077 627.536 L28.3562 627.536 L28.3562 623.239 L18.2347 623.239 L18.2347 617.351 Z" fill="#000000" fill-rule="nonzero" fill-opacity="1" /><path clip-path="url(#clip550)" d="M67.3143 582.753 Q73.68 585.236 75.6216 587.591 Q77.5631 589.947 77.5631 593.893 L77.5631 598.572 L72.6615 598.572 L72.6615 595.135 Q72.6615 592.716 71.5157 591.379 Q70.3699 590.042 66.1048 588.419 L63.4312 587.368 L28.3562 601.787 L28.3562 595.58 L56.238 584.44 L28.3562 573.3 L28.3562 567.094 L67.3143 582.753 Z" fill="#000000" fill-rule="nonzero" fill-opacity="1" /><path clip-path="url(#clip552)" d="M993.809 907.204 L993.809 1423.18 L1135.87 1423.18 L1135.87 907.204 L993.809 907.204 L993.809 907.204  Z" fill="#009af9" fill-rule="evenodd" fill-opacity="1"/>
<polyline clip-path="url(#clip552)" style="stroke:#000000; stroke-linecap:round; stroke-linejoin:round; stroke-width:4; stroke-opacity:1; fill:none" points="993.809,907.204 993.809,1423.18 1135.87,1423.18 1135.87,907.204 993.809,907.204 "/>
<path clip-path="url(#clip552)" d="M1135.87 219.236 L1135.87 1423.18 L1277.93 1423.18 L1277.93 219.236 L1135.87 219.236 L1135.87 219.236  Z" fill="#009af9" fill-rule="evenodd" fill-opacity="1"/>
<polyline clip-path="url(#clip552)" style="stroke:#000000; stroke-linecap:round; stroke-linejoin:round; stroke-width:4; stroke-opacity:1; fill:none" points="1135.87,219.236 1135.87,1423.18 1277.93,1423.18 1277.93,219.236 1135.87,219.236 "/>
<path clip-path="url(#clip552)" d="M1277.93 1079.2 L1277.93 1423.18 L1419.98 1423.18 L1419.98 1079.2 L1277.93 1079.2 L1277.93 1079.2  Z" fill="#009af9" fill-rule="evenodd" fill-opacity="1"/>
<polyline clip-path="url(#clip552)" style="stroke:#000000; stroke-linecap:round; stroke-linejoin:round; stroke-width:4; stroke-opacity:1; fill:none" points="1277.93,1079.2 1277.93,1423.18 1419.98,1423.18 1419.98,1079.2 1277.93,1079.2 "/>
<path clip-path="url(#clip552)" d="M1419.98 1079.2 L1419.98 1423.18 L1562.04 1423.18 L1562.04 1079.2 L1419.98 1079.2 L1419.98 1079.2  Z" fill="#009af9" fill-rule="evenodd" fill-opacity="1"/>
<polyline clip-path="url(#clip552)" style="stroke:#000000; stroke-linecap:round; stroke-linejoin:round; stroke-width:4; stroke-opacity:1; fill:none" points="1419.98,1079.2 1419.98,1423.18 1562.04,1423.18 1562.04,1079.2 1419.98,1079.2 "/>
<path clip-path="url(#clip552)" d="M1562.04 563.22 L1562.04 1423.18 L1704.1 1423.18 L1704.1 563.22 L1562.04 563.22 L1562.04 563.22  Z" fill="#009af9" fill-rule="evenodd" fill-opacity="1"/>
<polyline clip-path="url(#clip552)" style="stroke:#000000; stroke-linecap:round; stroke-linejoin:round; stroke-width:4; stroke-opacity:1; fill:none" points="1562.04,563.22 1562.04,1423.18 1704.1,1423.18 1704.1,563.22 1562.04,563.22 "/>
<path clip-path="url(#clip552)" d="M1704.1 1251.19 L1704.1 1423.18 L1846.16 1423.18 L1846.16 1251.19 L1704.1 1251.19 L1704.1 1251.19  Z" fill="#009af9" fill-rule="evenodd" fill-opacity="1"/>
<polyline clip-path="url(#clip552)" style="stroke:#000000; stroke-linecap:round; stroke-linejoin:round; stroke-width:4; stroke-opacity:1; fill:none" points="1704.1,1251.19 1704.1,1423.18 1846.16,1423.18 1846.16,1251.19 1704.1,1251.19 "/>
<circle clip-path="url(#clip552)" style="fill:#009af9; stroke:none; fill-opacity:0" cx="1064.84" cy="907.204" r="2"/>
<circle clip-path="url(#clip552)" style="fill:#009af9; stroke:none; fill-opacity:0" cx="1206.9" cy="219.236" r="2"/>
<circle clip-path="url(#clip552)" style="fill:#009af9; stroke:none; fill-opacity:0" cx="1348.95" cy="1079.2" r="2"/>
<circle clip-path="url(#clip552)" style="fill:#009af9; stroke:none; fill-opacity:0" cx="1491.01" cy="1079.2" r="2"/>
<circle clip-path="url(#clip552)" style="fill:#009af9; stroke:none; fill-opacity:0" cx="1633.07" cy="563.22" r="2"/>
<circle clip-path="url(#clip552)" style="fill:#009af9; stroke:none; fill-opacity:0" cx="1775.13" cy="1251.19" r="2"/>
<polyline clip-path="url(#clip552)" style="stroke:#e26f46; stroke-linecap:round; stroke-linejoin:round; stroke-width:4; stroke-opacity:1; fill:none" points="1044.78,1422.6 1048.84,1422.55 1052.9,1422.49 1090.46,1421.65 1128.01,1419.95 1150.58,1418.25 1173.14,1415.77 1192.22,1412.88 1211.3,1409.04 1221.67,1406.48 1232.03,1403.53 1242.39,1400.15 1252.76,1396.28 1262.31,1392.25 1271.87,1387.74 1281.42,1382.69 1290.97,1377.08 1301.22,1370.38 1311.46,1362.94 1321.7,1354.7 1331.95,1345.63 1343.82,1334.02 1355.68,1321.18 1367.55,1307.08 1379.42,1291.69 1389.96,1276.93 1400.51,1261.14 1411.06,1244.37 1421.6,1226.64 1430.85,1210.34 1440.1,1193.39 1449.35,1175.84 1458.6,1157.76 1478.76,1116.87 1498.93,1074.75 1519.22,1032.28 1539.5,991.003 1545.11,979.988 1550.72,969.2 1556.33,958.669 1561.93,948.424 1567.54,938.496 1573.15,928.912 1578.75,919.702 1584.36,910.893 1589.7,902.909 1595.03,895.334 1600.37,888.191 1605.7,881.499 1611.04,875.279 1616.37,869.547 1621.71,864.321 1627.04,859.616 1632.59,855.291 1638.14,851.559 1643.68,848.432 1649.23,845.919 1654.78,844.029 1660.33,842.768 1665.87,842.14 1671.42,842.147 1676.09,842.645 1680.76,843.593 1685.43,844.987 1690.1,846.824 1694.77,849.101 1699.44,851.812 1704.11,854.951 1708.78,858.511 1714.48,863.414 1720.18,868.916 1725.88,874.998 1731.58,881.639 1737.28,888.817 1742.99,896.508 1748.69,904.689 1754.39,913.331 1764.83,930.273 1775.28,948.497 1780.5,958.031 1785.72,967.815 1790.95,977.826 1796.17,988.039 1815.46,1027.12 1834.76,1067.43 1854.3,1108.36 1873.85,1148.34 1884.8,1169.98 1895.75,1190.92 1906.7,1211.03 1917.65,1230.22 1927.58,1246.76 1937.5,1262.44 1947.43,1277.24 1957.35,1291.14 1968.71,1305.95 1980.07,1319.57 1991.44,1332.02 2002.8,1343.35 2013.32,1352.87 2023.84,1361.49 2034.36,1369.27 2044.88,1376.26 2055.25,1382.41 2065.63,1387.9 2076,1392.76 2086.37,1397.05 2096.44,1400.72 2106.51,1403.94 2116.58,1406.76 2126.65,1409.22 2147.3,1413.28 2167.94,1416.27 2190.57,1418.59 2213.19,1420.19 2246.05,1421.63 2278.91,1422.4 2285.65,1422.51 2292.39,1422.6 "/>
<polyline clip-path="url(#clip552)" style="stroke:#000000; stroke-linecap:round; stroke-linejoin:round; stroke-width:4; stroke-opacity:1; fill:none" points="280.231,1422.78 286.033,1422.74 291.835,1422.7 345.482,1422.11 399.128,1420.92 431.368,1419.73 463.607,1417.99 490.865,1415.97 518.123,1413.28 532.928,1411.49 547.733,1409.43 562.538,1407.06 577.343,1404.35 590.992,1401.53 604.641,1398.37 618.29,1394.84 631.939,1390.91 646.572,1386.22 661.205,1381.01 675.838,1375.24 690.471,1368.89 707.424,1360.77 724.378,1351.78 741.332,1341.91 758.286,1331.14 773.352,1320.8 788.419,1309.76 803.485,1298.01 818.552,1285.6 831.764,1274.19 844.976,1262.32 858.188,1250.04 871.4,1237.39 900.209,1208.76 929.018,1179.28 957.998,1149.55 986.979,1120.66 994.989,1112.95 1003,1105.39 1011.01,1098.02 1019.02,1090.85 1027.03,1083.9 1035.04,1077.19 1043.05,1070.75 1051.06,1064.58 1058.68,1058.99 1066.31,1053.69 1073.93,1048.69 1081.55,1044 1089.17,1039.65 1096.79,1035.64 1104.41,1031.98 1112.04,1028.69 1119.96,1025.66 1127.89,1023.05 1135.81,1020.86 1143.73,1019.1 1151.66,1017.77 1159.58,1016.89 1167.51,1016.45 1175.43,1016.46 1182.1,1016.81 1188.78,1017.47 1195.45,1018.44 1202.12,1019.73 1208.79,1021.32 1215.46,1023.22 1222.13,1025.42 1228.8,1027.91 1236.95,1031.34 1245.09,1035.2 1253.24,1039.45 1261.38,1044.1 1269.52,1049.13 1277.67,1054.51 1285.81,1060.24 1293.96,1066.29 1308.88,1078.15 1323.8,1090.9 1331.26,1097.58 1338.72,1104.42 1346.18,1111.43 1353.64,1118.58 1381.21,1145.94 1408.77,1174.16 1436.69,1202.81 1464.61,1230.79 1480.26,1245.94 1495.9,1260.6 1511.55,1274.67 1527.19,1288.11 1541.37,1299.68 1555.55,1310.66 1569.72,1321.02 1583.9,1330.75 1600.13,1341.12 1616.37,1350.65 1632.6,1359.37 1648.83,1367.3 1663.86,1373.96 1678.89,1380 1693.92,1385.44 1708.95,1390.33 1723.76,1394.64 1738.58,1398.48 1753.4,1401.89 1768.22,1404.89 1782.6,1407.46 1796.99,1409.72 1811.37,1411.69 1825.76,1413.41 1855.26,1416.25 1884.75,1418.34 1917.07,1419.97 1949.38,1421.09 1996.33,1422.09 2043.27,1422.64 2052.9,1422.71 2062.53,1422.78 "/>
<polyline clip-path="url(#clip552)" style="stroke:#0000ff; stroke-linecap:round; stroke-linejoin:round; stroke-width:4; stroke-opacity:1; fill:none" points="1597.56,1423.18 1597.56,47.2441 "/>
<path clip-path="url(#clip550)" d="M1777.65 300.469 L2281.66 300.469 L2281.66 93.1086 L1777.65 93.1086  Z" fill="#ffffff" fill-rule="evenodd" fill-opacity="1"/>
<polyline clip-path="url(#clip550)" style="stroke:#000000; stroke-linecap:round; stroke-linejoin:round; stroke-width:4; stroke-opacity:1; fill:none" points="1777.65,300.469 2281.66,300.469 2281.66,93.1086 1777.65,93.1086 1777.65,300.469 "/>
<polyline clip-path="url(#clip550)" style="stroke:#e26f46; stroke-linecap:round; stroke-linejoin:round; stroke-width:4; stroke-opacity:1; fill:none" points="1801.35,144.949 1943.55,144.949 "/>
<path clip-path="url(#clip550)" d="M1967.24 127.669 L1996.48 127.669 L1996.48 131.604 L1984.21 131.604 L1984.21 162.229 L1979.51 162.229 L1979.51 131.604 L1967.24 131.604 L1967.24 127.669 Z" fill="#000000" fill-rule="nonzero" fill-opacity="1" /><path clip-path="url(#clip550)" d="M2002.8 139.289 Q1999.37 139.289 1997.38 141.974 Q1995.39 144.636 1995.39 149.289 Q1995.39 153.942 1997.36 156.627 Q1999.35 159.289 2002.8 159.289 Q2006.2 159.289 2008.19 156.604 Q2010.18 153.918 2010.18 149.289 Q2010.18 144.682 2008.19 141.997 Q2006.2 139.289 2002.8 139.289 M2002.8 135.678 Q2008.36 135.678 2011.53 139.289 Q2014.7 142.9 2014.7 149.289 Q2014.7 155.655 2011.53 159.289 Q2008.36 162.9 2002.8 162.9 Q1997.22 162.9 1994.05 159.289 Q1990.9 155.655 1990.9 149.289 Q1990.9 142.9 1994.05 139.289 Q1997.22 135.678 2002.8 135.678 Z" fill="#000000" fill-rule="nonzero" fill-opacity="1" /><path clip-path="url(#clip550)" d="M2041.85 136.303 L2032.48 148.919 L2042.34 162.229 L2037.31 162.229 L2029.77 152.043 L2022.22 162.229 L2017.2 162.229 L2027.27 148.664 L2018.05 136.303 L2023.08 136.303 L2029.95 145.539 L2036.83 136.303 L2041.85 136.303 Z" fill="#000000" fill-rule="nonzero" fill-opacity="1" /><path clip-path="url(#clip550)" d="M2048.36 136.303 L2052.61 136.303 L2052.61 162.229 L2048.36 162.229 L2048.36 136.303 M2048.36 126.21 L2052.61 126.21 L2052.61 131.604 L2048.36 131.604 L2048.36 126.21 Z" fill="#000000" fill-rule="nonzero" fill-opacity="1" /><path clip-path="url(#clip550)" d="M2080.18 137.298 L2080.18 141.28 Q2078.38 140.284 2076.55 139.798 Q2074.74 139.289 2072.89 139.289 Q2068.75 139.289 2066.46 141.928 Q2064.17 144.544 2064.17 149.289 Q2064.17 154.034 2066.46 156.673 Q2068.75 159.289 2072.89 159.289 Q2074.74 159.289 2076.55 158.803 Q2078.38 158.293 2080.18 157.298 L2080.18 161.233 Q2078.4 162.067 2076.48 162.483 Q2074.58 162.9 2072.43 162.9 Q2066.57 162.9 2063.12 159.219 Q2059.67 155.539 2059.67 149.289 Q2059.67 142.946 2063.15 139.312 Q2066.64 135.678 2072.71 135.678 Q2074.67 135.678 2076.55 136.095 Q2078.42 136.488 2080.18 137.298 Z" fill="#000000" fill-rule="nonzero" fill-opacity="1" /><polyline clip-path="url(#clip550)" style="stroke:#000000; stroke-linecap:round; stroke-linejoin:round; stroke-width:4; stroke-opacity:1; fill:none" points="1801.35,196.789 1943.55,196.789 "/>
<path clip-path="url(#clip550)" d="M1967.24 179.509 L1973.54 179.509 L1988.87 208.421 L1988.87 179.509 L1993.4 179.509 L1993.4 214.069 L1987.11 214.069 L1971.78 185.157 L1971.78 214.069 L1967.24 214.069 L1967.24 179.509 Z" fill="#000000" fill-rule="nonzero" fill-opacity="1" /><path clip-path="url(#clip550)" d="M2012.57 191.129 Q2009.14 191.129 2007.15 193.814 Q2005.16 196.476 2005.16 201.129 Q2005.16 205.782 2007.13 208.467 Q2009.12 211.129 2012.57 211.129 Q2015.97 211.129 2017.96 208.444 Q2019.95 205.758 2019.95 201.129 Q2019.95 196.522 2017.96 193.837 Q2015.97 191.129 2012.57 191.129 M2012.57 187.518 Q2018.12 187.518 2021.3 191.129 Q2024.47 194.74 2024.47 201.129 Q2024.47 207.495 2021.3 211.129 Q2018.12 214.74 2012.57 214.74 Q2006.99 214.74 2003.82 211.129 Q2000.67 207.495 2000.67 201.129 Q2000.67 194.74 2003.82 191.129 Q2006.99 187.518 2012.57 187.518 Z" fill="#000000" fill-rule="nonzero" fill-opacity="1" /><path clip-path="url(#clip550)" d="M2068.77 200.041 L2068.77 202.124 L2049.19 202.124 Q2049.47 206.522 2051.83 208.837 Q2054.21 211.129 2058.45 211.129 Q2060.9 211.129 2063.19 210.527 Q2065.51 209.925 2067.78 208.721 L2067.78 212.749 Q2065.48 213.721 2063.08 214.231 Q2060.67 214.74 2058.19 214.74 Q2051.99 214.74 2048.36 211.129 Q2044.74 207.518 2044.74 201.36 Q2044.74 194.995 2048.17 191.268 Q2051.62 187.518 2057.45 187.518 Q2062.68 187.518 2065.72 190.897 Q2068.77 194.254 2068.77 200.041 M2064.51 198.791 Q2064.47 195.296 2062.55 193.212 Q2060.65 191.129 2057.5 191.129 Q2053.93 191.129 2051.78 193.143 Q2049.65 195.157 2049.33 198.814 L2064.51 198.791 Z" fill="#000000" fill-rule="nonzero" fill-opacity="1" /><path clip-path="url(#clip550)" d="M2088.89 178.05 L2088.89 181.592 L2084.81 181.592 Q2082.52 181.592 2081.62 182.518 Q2080.74 183.444 2080.74 185.851 L2080.74 188.143 L2087.75 188.143 L2087.75 191.453 L2080.74 191.453 L2080.74 214.069 L2076.46 214.069 L2076.46 191.453 L2072.38 191.453 L2072.38 188.143 L2076.46 188.143 L2076.46 186.337 Q2076.46 182.009 2078.47 180.041 Q2080.48 178.05 2084.86 178.05 L2088.89 178.05 Z" fill="#000000" fill-rule="nonzero" fill-opacity="1" /><path clip-path="url(#clip550)" d="M2105.58 178.05 L2105.58 181.592 L2101.5 181.592 Q2099.21 181.592 2098.31 182.518 Q2097.43 183.444 2097.43 185.851 L2097.43 188.143 L2104.44 188.143 L2104.44 191.453 L2097.43 191.453 L2097.43 214.069 L2093.15 214.069 L2093.15 191.453 L2089.07 191.453 L2089.07 188.143 L2093.15 188.143 L2093.15 186.337 Q2093.15 182.009 2095.16 180.041 Q2097.17 178.05 2101.55 178.05 L2105.58 178.05 Z" fill="#000000" fill-rule="nonzero" fill-opacity="1" /><path clip-path="url(#clip550)" d="M2131.32 200.041 L2131.32 202.124 L2111.73 202.124 Q2112.01 206.522 2114.37 208.837 Q2116.76 211.129 2120.99 211.129 Q2123.45 211.129 2125.74 210.527 Q2128.05 209.925 2130.32 208.721 L2130.32 212.749 Q2128.03 213.721 2125.62 214.231 Q2123.22 214.74 2120.74 214.74 Q2114.54 214.74 2110.9 211.129 Q2107.29 207.518 2107.29 201.36 Q2107.29 194.995 2110.72 191.268 Q2114.17 187.518 2120 187.518 Q2125.23 187.518 2128.26 190.897 Q2131.32 194.254 2131.32 200.041 M2127.06 198.791 Q2127.01 195.296 2125.09 193.212 Q2123.19 191.129 2120.04 191.129 Q2116.48 191.129 2114.33 193.143 Q2112.2 195.157 2111.87 198.814 L2127.06 198.791 Z" fill="#000000" fill-rule="nonzero" fill-opacity="1" /><path clip-path="url(#clip550)" d="M2156.97 189.138 L2156.97 193.12 Q2155.16 192.124 2153.33 191.638 Q2151.53 191.129 2149.67 191.129 Q2145.53 191.129 2143.24 193.768 Q2140.95 196.384 2140.95 201.129 Q2140.95 205.874 2143.24 208.513 Q2145.53 211.129 2149.67 211.129 Q2151.53 211.129 2153.33 210.643 Q2155.16 210.133 2156.97 209.138 L2156.97 213.073 Q2155.18 213.907 2153.26 214.323 Q2151.36 214.74 2149.21 214.74 Q2143.35 214.74 2139.91 211.059 Q2136.46 207.379 2136.46 201.129 Q2136.46 194.786 2139.93 191.152 Q2143.42 187.518 2149.49 187.518 Q2151.46 187.518 2153.33 187.935 Q2155.21 188.328 2156.97 189.138 Z" fill="#000000" fill-rule="nonzero" fill-opacity="1" /><path clip-path="url(#clip550)" d="M2168.59 180.782 L2168.59 188.143 L2177.36 188.143 L2177.36 191.453 L2168.59 191.453 L2168.59 205.527 Q2168.59 208.698 2169.44 209.601 Q2170.32 210.504 2172.98 210.504 L2177.36 210.504 L2177.36 214.069 L2172.98 214.069 Q2168.05 214.069 2166.18 212.24 Q2164.3 210.388 2164.3 205.527 L2164.3 191.453 L2161.18 191.453 L2161.18 188.143 L2164.3 188.143 L2164.3 180.782 L2168.59 180.782 Z" fill="#000000" fill-rule="nonzero" fill-opacity="1" /><polyline clip-path="url(#clip550)" style="stroke:#0000ff; stroke-linecap:round; stroke-linejoin:round; stroke-width:4; stroke-opacity:1; fill:none" points="1801.35,248.629 1943.55,248.629 "/>
<path clip-path="url(#clip550)" d="M1967.24 231.349 L1974.21 231.349 L1983.03 254.867 L1991.9 231.349 L1998.86 231.349 L1998.86 265.909 L1994.3 265.909 L1994.3 235.562 L1985.39 259.265 L1980.69 259.265 L1971.78 235.562 L1971.78 265.909 L1967.24 265.909 L1967.24 231.349 Z" fill="#000000" fill-rule="nonzero" fill-opacity="1" /><path clip-path="url(#clip550)" d="M2030.14 251.881 L2030.14 253.964 L2010.55 253.964 Q2010.83 258.362 2013.19 260.677 Q2015.58 262.969 2019.81 262.969 Q2022.27 262.969 2024.56 262.367 Q2026.87 261.765 2029.14 260.561 L2029.14 264.589 Q2026.85 265.561 2024.44 266.071 Q2022.04 266.58 2019.56 266.58 Q2013.36 266.58 2009.72 262.969 Q2006.11 259.358 2006.11 253.2 Q2006.11 246.835 2009.54 243.108 Q2012.99 239.358 2018.82 239.358 Q2024.05 239.358 2027.08 242.737 Q2030.14 246.094 2030.14 251.881 M2025.88 250.631 Q2025.83 247.136 2023.91 245.052 Q2022.01 242.969 2018.86 242.969 Q2015.3 242.969 2013.15 244.983 Q2011.02 246.997 2010.69 250.654 L2025.88 250.631 Z" fill="#000000" fill-rule="nonzero" fill-opacity="1" /><path clip-path="url(#clip550)" d="M2048.91 252.876 Q2043.75 252.876 2041.76 254.057 Q2039.77 255.237 2039.77 258.085 Q2039.77 260.353 2041.25 261.696 Q2042.75 263.015 2045.32 263.015 Q2048.86 263.015 2050.99 260.515 Q2053.15 257.992 2053.15 253.825 L2053.15 252.876 L2048.91 252.876 M2057.41 251.117 L2057.41 265.909 L2053.15 265.909 L2053.15 261.973 Q2051.69 264.335 2049.51 265.469 Q2047.34 266.58 2044.19 266.58 Q2040.21 266.58 2037.85 264.358 Q2035.51 262.112 2035.51 258.362 Q2035.51 253.987 2038.42 251.765 Q2041.36 249.543 2047.17 249.543 L2053.15 249.543 L2053.15 249.126 Q2053.15 246.187 2051.2 244.589 Q2049.28 242.969 2045.79 242.969 Q2043.56 242.969 2041.46 243.501 Q2039.35 244.034 2037.41 245.099 L2037.41 241.163 Q2039.74 240.261 2041.94 239.821 Q2044.14 239.358 2046.23 239.358 Q2051.85 239.358 2054.63 242.274 Q2057.41 245.191 2057.41 251.117 Z" fill="#000000" fill-rule="nonzero" fill-opacity="1" /><path clip-path="url(#clip550)" d="M2082.71 240.747 L2082.71 244.774 Q2080.9 243.849 2078.96 243.386 Q2077.01 242.923 2074.93 242.923 Q2071.76 242.923 2070.16 243.895 Q2068.59 244.867 2068.59 246.811 Q2068.59 248.293 2069.72 249.149 Q2070.86 249.983 2074.28 250.747 L2075.74 251.071 Q2080.28 252.043 2082.17 253.825 Q2084.1 255.585 2084.1 258.756 Q2084.1 262.367 2081.23 264.473 Q2078.38 266.58 2073.38 266.58 Q2071.3 266.58 2069.03 266.163 Q2066.78 265.77 2064.28 264.96 L2064.28 260.561 Q2066.64 261.788 2068.93 262.413 Q2071.23 263.015 2073.47 263.015 Q2076.48 263.015 2078.1 261.997 Q2079.72 260.955 2079.72 259.08 Q2079.72 257.344 2078.54 256.418 Q2077.38 255.492 2073.42 254.636 L2071.94 254.288 Q2067.98 253.455 2066.23 251.742 Q2064.47 250.006 2064.47 246.997 Q2064.47 243.339 2067.06 241.349 Q2069.65 239.358 2074.42 239.358 Q2076.78 239.358 2078.86 239.705 Q2080.95 240.052 2082.71 240.747 Z" fill="#000000" fill-rule="nonzero" fill-opacity="1" /><path clip-path="url(#clip550)" d="M2090.44 255.677 L2090.44 239.983 L2094.7 239.983 L2094.7 255.515 Q2094.7 259.196 2096.13 261.048 Q2097.57 262.876 2100.44 262.876 Q2103.89 262.876 2105.88 260.677 Q2107.89 258.478 2107.89 254.682 L2107.89 239.983 L2112.15 239.983 L2112.15 265.909 L2107.89 265.909 L2107.89 261.927 Q2106.34 264.288 2104.28 265.446 Q2102.24 266.58 2099.54 266.58 Q2095.07 266.58 2092.75 263.802 Q2090.44 261.024 2090.44 255.677 M2101.16 239.358 L2101.16 239.358 Z" fill="#000000" fill-rule="nonzero" fill-opacity="1" /><path clip-path="url(#clip550)" d="M2135.95 243.964 Q2135.23 243.548 2134.37 243.362 Q2133.54 243.154 2132.52 243.154 Q2128.91 243.154 2126.97 245.515 Q2125.04 247.853 2125.04 252.251 L2125.04 265.909 L2120.76 265.909 L2120.76 239.983 L2125.04 239.983 L2125.04 244.011 Q2126.39 241.649 2128.54 240.515 Q2130.69 239.358 2133.77 239.358 Q2134.21 239.358 2134.74 239.427 Q2135.28 239.474 2135.92 239.589 L2135.95 243.964 Z" fill="#000000" fill-rule="nonzero" fill-opacity="1" /><path clip-path="url(#clip550)" d="M2159.77 244.96 Q2161.36 242.089 2163.59 240.724 Q2165.81 239.358 2168.82 239.358 Q2172.87 239.358 2175.07 242.205 Q2177.27 245.029 2177.27 250.261 L2177.27 265.909 L2172.98 265.909 L2172.98 250.399 Q2172.98 246.673 2171.66 244.867 Q2170.35 243.062 2167.64 243.062 Q2164.33 243.062 2162.41 245.261 Q2160.48 247.46 2160.48 251.256 L2160.48 265.909 L2156.2 265.909 L2156.2 250.399 Q2156.2 246.649 2154.88 244.867 Q2153.56 243.062 2150.81 243.062 Q2147.54 243.062 2145.62 245.284 Q2143.7 247.483 2143.7 251.256 L2143.7 265.909 L2139.42 265.909 L2139.42 239.983 L2143.7 239.983 L2143.7 244.011 Q2145.16 241.626 2147.2 240.492 Q2149.23 239.358 2152.04 239.358 Q2154.86 239.358 2156.83 240.793 Q2158.82 242.228 2159.77 244.96 Z" fill="#000000" fill-rule="nonzero" fill-opacity="1" /><path clip-path="url(#clip550)" d="M2207.94 251.881 L2207.94 253.964 L2188.35 253.964 Q2188.63 258.362 2190.99 260.677 Q2193.38 262.969 2197.61 262.969 Q2200.07 262.969 2202.36 262.367 Q2204.67 261.765 2206.94 260.561 L2206.94 264.589 Q2204.65 265.561 2202.24 266.071 Q2199.84 266.58 2197.36 266.58 Q2191.16 266.58 2187.52 262.969 Q2183.91 259.358 2183.91 253.2 Q2183.91 246.835 2187.34 243.108 Q2190.79 239.358 2196.62 239.358 Q2201.85 239.358 2204.88 242.737 Q2207.94 246.094 2207.94 251.881 M2203.68 250.631 Q2203.63 247.136 2201.71 245.052 Q2199.81 242.969 2196.66 242.969 Q2193.1 242.969 2190.95 244.983 Q2188.82 246.997 2188.49 250.654 L2203.68 250.631 Z" fill="#000000" fill-rule="nonzero" fill-opacity="1" /><path clip-path="url(#clip550)" d="M2236.48 250.261 L2236.48 265.909 L2232.22 265.909 L2232.22 250.399 Q2232.22 246.719 2230.79 244.89 Q2229.35 243.062 2226.48 243.062 Q2223.03 243.062 2221.04 245.261 Q2219.05 247.46 2219.05 251.256 L2219.05 265.909 L2214.77 265.909 L2214.77 239.983 L2219.05 239.983 L2219.05 244.011 Q2220.58 241.673 2222.64 240.515 Q2224.72 239.358 2227.43 239.358 Q2231.9 239.358 2234.19 242.136 Q2236.48 244.89 2236.48 250.261 Z" fill="#000000" fill-rule="nonzero" fill-opacity="1" /><path clip-path="url(#clip550)" d="M2249.19 232.622 L2249.19 239.983 L2257.96 239.983 L2257.96 243.293 L2249.19 243.293 L2249.19 257.367 Q2249.19 260.538 2250.04 261.441 Q2250.92 262.344 2253.59 262.344 L2257.96 262.344 L2257.96 265.909 L2253.59 265.909 Q2248.66 265.909 2246.78 264.08 Q2244.91 262.228 2244.91 257.367 L2244.91 243.293 L2241.78 243.293 L2241.78 239.983 L2244.91 239.983 L2244.91 232.622 L2249.19 232.622 Z" fill="#000000" fill-rule="nonzero" fill-opacity="1" /><path clip-path="url(#clip550)" d="M1390.93 435.173 Q1384.61 435.173 1381.41 441.411 Q1378.25 447.609 1378.25 460.086 Q1378.25 472.522 1381.41 478.76 Q1384.61 484.958 1390.93 484.958 Q1397.29 484.958 1400.45 478.76 Q1403.65 472.522 1403.65 460.086 Q1403.65 447.609 1400.45 441.411 Q1397.29 435.173 1390.93 435.173 M1390.93 428.691 Q1401.09 428.691 1406.44 436.752 Q1411.83 444.773 1411.83 460.086 Q1411.83 475.357 1406.44 483.419 Q1401.09 491.44 1390.93 491.44 Q1380.76 491.44 1375.37 483.419 Q1370.02 475.357 1370.02 460.086 Q1370.02 444.773 1375.37 436.752 Q1380.76 428.691 1390.93 428.691 Z" fill="#000000" fill-rule="nonzero" fill-opacity="1" /><path clip-path="url(#clip550)" d="M1426.21 479.976 L1434.76 479.976 L1434.76 490.265 L1426.21 490.265 L1426.21 479.976 Z" fill="#000000" fill-rule="nonzero" fill-opacity="1" /><path clip-path="url(#clip550)" d="M1470.08 435.173 Q1463.76 435.173 1460.56 441.411 Q1457.4 447.609 1457.4 460.086 Q1457.4 472.522 1460.56 478.76 Q1463.76 484.958 1470.08 484.958 Q1476.44 484.958 1479.6 478.76 Q1482.8 472.522 1482.8 460.086 Q1482.8 447.609 1479.6 441.411 Q1476.44 435.173 1470.08 435.173 M1470.08 428.691 Q1480.25 428.691 1485.6 436.752 Q1490.98 444.773 1490.98 460.086 Q1490.98 475.357 1485.6 483.419 Q1480.25 491.44 1470.08 491.44 Q1459.91 491.44 1454.53 483.419 Q1449.18 475.357 1449.18 460.086 Q1449.18 444.773 1454.53 436.752 Q1459.91 428.691 1470.08 428.691 Z" fill="#000000" fill-rule="nonzero" fill-opacity="1" /><path clip-path="url(#clip550)" d="M1512.41 483.378 L1540.97 483.378 L1540.97 490.265 L1502.57 490.265 L1502.57 483.378 Q1507.23 478.558 1515.25 470.456 Q1523.31 462.314 1525.38 459.964 Q1529.31 455.549 1530.85 452.51 Q1532.42 449.432 1532.42 446.475 Q1532.42 441.654 1529.02 438.616 Q1525.66 435.578 1520.23 435.578 Q1516.38 435.578 1512.09 436.914 Q1507.84 438.251 1502.97 440.965 L1502.97 432.701 Q1507.92 430.717 1512.21 429.704 Q1516.5 428.691 1520.07 428.691 Q1529.47 428.691 1535.06 433.39 Q1540.65 438.089 1540.65 445.948 Q1540.65 449.675 1539.23 453.037 Q1537.85 456.359 1534.17 460.896 Q1533.15 462.071 1527.73 467.701 Q1522.3 473.292 1512.41 483.378 Z" fill="#000000" fill-rule="nonzero" fill-opacity="1" /><path clip-path="url(#clip550)" d="M1639 435.173 Q1632.68 435.173 1629.48 441.411 Q1626.32 447.609 1626.32 460.086 Q1626.32 472.522 1629.48 478.76 Q1632.68 484.958 1639 484.958 Q1645.36 484.958 1648.52 478.76 Q1651.72 472.522 1651.72 460.086 Q1651.72 447.609 1648.52 441.411 Q1645.36 435.173 1639 435.173 M1639 428.691 Q1649.17 428.691 1654.52 436.752 Q1659.9 444.773 1659.9 460.086 Q1659.9 475.357 1654.52 483.419 Q1649.17 491.44 1639 491.44 Q1628.83 491.44 1623.45 483.419 Q1618.1 475.357 1618.1 460.086 Q1618.1 444.773 1623.45 436.752 Q1628.83 428.691 1639 428.691 Z" fill="#000000" fill-rule="nonzero" fill-opacity="1" /><path clip-path="url(#clip550)" d="M1674.29 479.976 L1682.83 479.976 L1682.83 490.265 L1674.29 490.265 L1674.29 479.976 Z" fill="#000000" fill-rule="nonzero" fill-opacity="1" /><path clip-path="url(#clip550)" d="M1702.07 483.378 L1715.44 483.378 L1715.44 437.238 L1700.9 440.155 L1700.9 432.701 L1715.36 429.785 L1723.54 429.785 L1723.54 483.378 L1736.91 483.378 L1736.91 490.265 L1702.07 490.265 L1702.07 483.378 Z" fill="#000000" fill-rule="nonzero" fill-opacity="1" /><path clip-path="url(#clip550)" d="M1753.52 429.785 L1785.64 429.785 L1785.64 436.671 L1761.02 436.671 L1761.02 451.498 Q1762.8 450.89 1764.58 450.606 Q1766.36 450.282 1768.14 450.282 Q1778.27 450.282 1784.19 455.832 Q1790.1 461.382 1790.1 470.861 Q1790.1 480.624 1784.02 486.052 Q1777.95 491.44 1766.89 491.44 Q1763.08 491.44 1759.11 490.791 Q1755.18 490.143 1750.97 488.847 L1750.97 480.624 Q1754.61 482.609 1758.5 483.581 Q1762.39 484.553 1766.73 484.553 Q1773.73 484.553 1777.83 480.867 Q1781.92 477.18 1781.92 470.861 Q1781.92 464.542 1777.83 460.855 Q1773.73 457.169 1766.73 457.169 Q1763.45 457.169 1760.16 457.898 Q1756.92 458.627 1753.52 460.167 L1753.52 429.785 Z" fill="#000000" fill-rule="nonzero" fill-opacity="1" /></svg>
