<?xml version="1.0" encoding="utf-8"?>
<svg xmlns="http://www.w3.org/2000/svg" xmlns:xlink="http://www.w3.org/1999/xlink" width="600" height="400" viewBox="0 0 2400 1600">
<defs>
  <clipPath id="clip710">
    <rect x="0" y="0" width="2400" height="1600"/>
  </clipPath>
</defs>
<path clip-path="url(#clip710)" d="M0 1600 L2400 1600 L2400 0 L0 0  Z" fill="#ffffff" fill-rule="evenodd" fill-opacity="1"/>
<defs>
  <clipPath id="clip711">
    <rect x="480" y="0" width="1681" height="1600"/>
  </clipPath>
</defs>
<path clip-path="url(#clip710)" d="M249.542 1423.18 L2352.76 1423.18 L2352.76 47.2441 L249.542 47.2441  Z" fill="#ffffff" fill-rule="evenodd" fill-opacity="1"/>
<defs>
  <clipPath id="clip712">
    <rect x="249" y="47" width="2104" height="1377"/>
  </clipPath>
</defs>
<polyline clip-path="url(#clip712)" style="stroke:#000000; stroke-linecap:round; stroke-linejoin:round; stroke-width:2; stroke-opacity:0.1; fill:none" points="309.067,1423.18 309.067,47.2441 "/>
<polyline clip-path="url(#clip712)" style="stroke:#000000; stroke-linecap:round; stroke-linejoin:round; stroke-width:2; stroke-opacity:0.1; fill:none" points="970.455,1423.18 970.455,47.2441 "/>
<polyline clip-path="url(#clip712)" style="stroke:#000000; stroke-linecap:round; stroke-linejoin:round; stroke-width:2; stroke-opacity:0.1; fill:none" points="1631.84,1423.18 1631.84,47.2441 "/>
<polyline clip-path="url(#clip712)" style="stroke:#000000; stroke-linecap:round; stroke-linejoin:round; stroke-width:2; stroke-opacity:0.1; fill:none" points="2293.23,1423.18 2293.23,47.2441 "/>
<polyline clip-path="url(#clip710)" style="stroke:#000000; stroke-linecap:round; stroke-linejoin:round; stroke-width:4; stroke-opacity:1; fill:none" points="249.542,1423.18 2352.76,1423.18 "/>
<polyline clip-path="url(#clip710)" style="stroke:#000000; stroke-linecap:round; stroke-linejoin:round; stroke-width:4; stroke-opacity:1; fill:none" points="309.067,1423.18 309.067,1404.28 "/>
<polyline clip-path="url(#clip710)" style="stroke:#000000; stroke-linecap:round; stroke-linejoin:round; stroke-width:4; stroke-opacity:1; fill:none" points="970.455,1423.18 970.455,1404.28 "/>
<polyline clip-path="url(#clip710)" style="stroke:#000000; stroke-linecap:round; stroke-linejoin:round; stroke-width:4; stroke-opacity:1; fill:none" points="1631.84,1423.18 1631.84,1404.28 "/>
<polyline clip-path="url(#clip710)" style="stroke:#000000; stroke-linecap:round; stroke-linejoin:round; stroke-width:4; stroke-opacity:1; fill:none" points="2293.23,1423.18 2293.23,1404.28 "/>
<path clip-path="url(#clip710)" d="M299.449 1481.64 L307.088 1481.64 L307.088 1455.28 L298.778 1456.95 L298.778 1452.69 L307.042 1451.02 L311.717 1451.02 L311.717 1481.64 L319.356 1481.64 L319.356 1485.58 L299.449 1485.58 L299.449 1481.64 Z" fill="#000000" fill-rule="nonzero" fill-opacity="1" /><path clip-path="url(#clip710)" d="M965.108 1481.64 L981.427 1481.64 L981.427 1485.58 L959.483 1485.58 L959.483 1481.64 Q962.145 1478.89 966.728 1474.26 Q971.335 1469.61 972.515 1468.27 Q974.76 1465.74 975.64 1464.01 Q976.543 1462.25 976.543 1460.56 Q976.543 1457.8 974.598 1456.07 Q972.677 1454.33 969.575 1454.33 Q967.376 1454.33 964.923 1455.09 Q962.492 1455.86 959.714 1457.41 L959.714 1452.69 Q962.538 1451.55 964.992 1450.97 Q967.446 1450.39 969.483 1450.39 Q974.853 1450.39 978.048 1453.08 Q981.242 1455.77 981.242 1460.26 Q981.242 1462.39 980.432 1464.31 Q979.645 1466.2 977.538 1468.8 Q976.96 1469.47 973.858 1472.69 Q970.756 1475.88 965.108 1481.64 Z" fill="#000000" fill-rule="nonzero" fill-opacity="1" /><path clip-path="url(#clip710)" d="M1636.09 1466.95 Q1639.45 1467.66 1641.32 1469.93 Q1643.22 1472.2 1643.22 1475.53 Q1643.22 1480.65 1639.7 1483.45 Q1636.18 1486.25 1629.7 1486.25 Q1627.53 1486.25 1625.21 1485.81 Q1622.92 1485.39 1620.47 1484.54 L1620.47 1480.02 Q1622.41 1481.16 1624.72 1481.74 Q1627.04 1482.32 1629.56 1482.32 Q1633.96 1482.32 1636.25 1480.58 Q1638.57 1478.84 1638.57 1475.53 Q1638.57 1472.48 1636.41 1470.77 Q1634.29 1469.03 1630.47 1469.03 L1626.44 1469.03 L1626.44 1465.19 L1630.65 1465.19 Q1634.1 1465.19 1635.93 1463.82 Q1637.76 1462.43 1637.76 1459.84 Q1637.76 1457.18 1635.86 1455.77 Q1633.98 1454.33 1630.47 1454.33 Q1628.54 1454.33 1626.35 1454.75 Q1624.15 1455.16 1621.51 1456.04 L1621.51 1451.88 Q1624.17 1451.14 1626.48 1450.77 Q1628.82 1450.39 1630.88 1450.39 Q1636.21 1450.39 1639.31 1452.83 Q1642.41 1455.23 1642.41 1459.35 Q1642.41 1462.22 1640.77 1464.21 Q1639.12 1466.18 1636.09 1466.95 Z" fill="#000000" fill-rule="nonzero" fill-opacity="1" /><path clip-path="url(#clip710)" d="M2296.24 1455.09 L2284.43 1473.54 L2296.24 1473.54 L2296.24 1455.09 M2295.01 1451.02 L2300.89 1451.02 L2300.89 1473.54 L2305.82 1473.54 L2305.82 1477.43 L2300.89 1477.43 L2300.89 1485.58 L2296.24 1485.58 L2296.24 1477.43 L2280.64 1477.43 L2280.64 1472.92 L2295.01 1451.02 Z" fill="#000000" fill-rule="nonzero" fill-opacity="1" /><path clip-path="url(#clip710)" d="M1006.78 1520.52 L1015.44 1520.52 L1036.51 1560.28 L1036.51 1520.52 L1042.75 1520.52 L1042.75 1568.04 L1034.09 1568.04 L1013.02 1528.29 L1013.02 1568.04 L1006.78 1568.04 L1006.78 1520.52 Z" fill="#000000" fill-rule="nonzero" fill-opacity="1" /><path clip-path="url(#clip710)" d="M1075.95 1537.87 Q1074.96 1537.3 1073.78 1537.04 Q1072.64 1536.76 1071.24 1536.76 Q1066.27 1536.76 1063.6 1540 Q1060.95 1543.22 1060.95 1549.27 L1060.95 1568.04 L1055.07 1568.04 L1055.07 1532.4 L1060.95 1532.4 L1060.95 1537.93 Q1062.8 1534.69 1065.76 1533.13 Q1068.72 1531.54 1072.95 1531.54 Q1073.56 1531.54 1074.29 1531.63 Q1075.02 1531.7 1075.91 1531.85 L1075.95 1537.87 Z" fill="#000000" fill-rule="nonzero" fill-opacity="1" /><path clip-path="url(#clip710)" d="M1131.55 1522.08 L1131.55 1528.35 Q1127.89 1526.6 1124.64 1525.74 Q1121.4 1524.88 1118.37 1524.88 Q1113.12 1524.88 1110.26 1526.92 Q1107.42 1528.96 1107.42 1532.71 Q1107.42 1535.87 1109.3 1537.49 Q1111.21 1539.08 1116.5 1540.07 L1120.38 1540.86 Q1127.57 1542.23 1130.98 1545.7 Q1134.42 1549.14 1134.42 1554.93 Q1134.42 1561.84 1129.77 1565.4 Q1125.15 1568.97 1116.21 1568.97 Q1112.84 1568.97 1109.02 1568.2 Q1105.23 1567.44 1101.15 1565.94 L1101.15 1559.32 Q1105.07 1561.52 1108.83 1562.63 Q1112.58 1563.75 1116.21 1563.75 Q1121.72 1563.75 1124.71 1561.58 Q1127.7 1559.42 1127.7 1555.41 Q1127.7 1551.91 1125.54 1549.93 Q1123.4 1547.96 1118.5 1546.97 L1114.59 1546.21 Q1107.39 1544.78 1104.18 1541.72 Q1100.96 1538.67 1100.96 1533.22 Q1100.96 1526.92 1105.39 1523.29 Q1109.84 1519.66 1117.64 1519.66 Q1120.98 1519.66 1124.45 1520.27 Q1127.92 1520.87 1131.55 1522.08 Z" fill="#000000" fill-rule="nonzero" fill-opacity="1" /><path clip-path="url(#clip710)" d="M1144.19 1532.4 L1150.04 1532.4 L1150.04 1568.04 L1144.19 1568.04 L1144.19 1532.4 M1144.19 1518.52 L1150.04 1518.52 L1150.04 1525.93 L1144.19 1525.93 L1144.19 1518.52 Z" fill="#000000" fill-rule="nonzero" fill-opacity="1" /><path clip-path="url(#clip710)" d="M1191.93 1546.53 L1191.93 1568.04 L1186.07 1568.04 L1186.07 1546.72 Q1186.07 1541.66 1184.1 1539.14 Q1182.13 1536.63 1178.18 1536.63 Q1173.44 1536.63 1170.7 1539.65 Q1167.96 1542.68 1167.96 1547.9 L1167.96 1568.04 L1162.07 1568.04 L1162.07 1532.4 L1167.96 1532.4 L1167.96 1537.93 Q1170.06 1534.72 1172.9 1533.13 Q1175.76 1531.54 1179.48 1531.54 Q1185.63 1531.54 1188.78 1535.36 Q1191.93 1539.14 1191.93 1546.53 Z" fill="#000000" fill-rule="nonzero" fill-opacity="1" /><path clip-path="url(#clip710)" d="M1227.07 1549.81 Q1227.07 1543.44 1224.43 1539.94 Q1221.82 1536.44 1217.07 1536.44 Q1212.36 1536.44 1209.72 1539.94 Q1207.11 1543.44 1207.11 1549.81 Q1207.11 1556.14 1209.72 1559.64 Q1212.36 1563.14 1217.07 1563.14 Q1221.82 1563.14 1224.43 1559.64 Q1227.07 1556.14 1227.07 1549.81 M1232.92 1563.62 Q1232.92 1572.72 1228.88 1577.15 Q1224.84 1581.6 1216.5 1581.6 Q1213.41 1581.6 1210.68 1581.13 Q1207.94 1580.68 1205.36 1579.72 L1205.36 1574.03 Q1207.94 1575.43 1210.45 1576.1 Q1212.97 1576.76 1215.58 1576.76 Q1221.34 1576.76 1224.2 1573.74 Q1227.07 1570.75 1227.07 1564.67 L1227.07 1561.77 Q1225.25 1564.92 1222.42 1566.48 Q1219.59 1568.04 1215.64 1568.04 Q1209.08 1568.04 1205.07 1563.05 Q1201.06 1558.05 1201.06 1549.81 Q1201.06 1541.53 1205.07 1536.53 Q1209.08 1531.54 1215.64 1531.54 Q1219.59 1531.54 1222.42 1533.1 Q1225.25 1534.66 1227.07 1537.81 L1227.07 1532.4 L1232.92 1532.4 L1232.92 1563.62 Z" fill="#000000" fill-rule="nonzero" fill-opacity="1" /><path clip-path="url(#clip710)" d="M1244.38 1553.98 L1244.38 1532.4 L1250.24 1532.4 L1250.24 1553.75 Q1250.24 1558.81 1252.21 1561.36 Q1254.19 1563.87 1258.13 1563.87 Q1262.88 1563.87 1265.61 1560.85 Q1268.38 1557.83 1268.38 1552.61 L1268.38 1532.4 L1274.24 1532.4 L1274.24 1568.04 L1268.38 1568.04 L1268.38 1562.57 Q1266.25 1565.82 1263.42 1567.41 Q1260.62 1568.97 1256.89 1568.97 Q1250.75 1568.97 1247.57 1565.15 Q1244.38 1561.33 1244.38 1553.98 M1259.12 1531.54 L1259.12 1531.54 Z" fill="#000000" fill-rule="nonzero" fill-opacity="1" /><path clip-path="url(#clip710)" d="M1286.3 1518.52 L1292.16 1518.52 L1292.16 1568.04 L1286.3 1568.04 L1286.3 1518.52 Z" fill="#000000" fill-rule="nonzero" fill-opacity="1" /><path clip-path="url(#clip710)" d="M1320.61 1550.12 Q1313.51 1550.12 1310.78 1551.75 Q1308.04 1553.37 1308.04 1557.29 Q1308.04 1560.4 1310.08 1562.25 Q1312.15 1564.07 1315.68 1564.07 Q1320.55 1564.07 1323.48 1560.63 Q1326.44 1557.16 1326.44 1551.43 L1326.44 1550.12 L1320.61 1550.12 M1332.29 1547.71 L1332.29 1568.04 L1326.44 1568.04 L1326.44 1562.63 Q1324.43 1565.88 1321.44 1567.44 Q1318.45 1568.97 1314.12 1568.97 Q1308.64 1568.97 1305.4 1565.91 Q1302.18 1562.82 1302.18 1557.67 Q1302.18 1551.65 1306.19 1548.6 Q1310.24 1545.54 1318.22 1545.54 L1326.44 1545.54 L1326.44 1544.97 Q1326.44 1540.93 1323.76 1538.73 Q1321.12 1536.5 1316.32 1536.5 Q1313.26 1536.5 1310.36 1537.23 Q1307.47 1537.97 1304.79 1539.43 L1304.79 1534.02 Q1308.01 1532.78 1311.03 1532.17 Q1314.06 1531.54 1316.92 1531.54 Q1324.65 1531.54 1328.47 1535.55 Q1332.29 1539.56 1332.29 1547.71 Z" fill="#000000" fill-rule="nonzero" fill-opacity="1" /><path clip-path="url(#clip710)" d="M1365.01 1537.87 Q1364.03 1537.3 1362.85 1537.04 Q1361.7 1536.76 1360.3 1536.76 Q1355.34 1536.76 1352.66 1540 Q1350.02 1543.22 1350.02 1549.27 L1350.02 1568.04 L1344.13 1568.04 L1344.13 1532.4 L1350.02 1532.4 L1350.02 1537.93 Q1351.87 1534.69 1354.83 1533.13 Q1357.79 1531.54 1362.02 1531.54 Q1362.63 1531.54 1363.36 1531.63 Q1364.09 1531.7 1364.98 1531.85 L1365.01 1537.87 Z" fill="#000000" fill-rule="nonzero" fill-opacity="1" /><path clip-path="url(#clip710)" d="M1404.38 1568.04 L1386.24 1520.52 L1392.96 1520.52 L1408.01 1560.53 L1423.1 1520.52 L1429.78 1520.52 L1411.67 1568.04 L1404.38 1568.04 Z" fill="#000000" fill-rule="nonzero" fill-opacity="1" /><path clip-path="url(#clip710)" d="M1447.61 1550.12 Q1440.51 1550.12 1437.77 1551.75 Q1435.04 1553.37 1435.04 1557.29 Q1435.04 1560.4 1437.07 1562.25 Q1439.14 1564.07 1442.67 1564.07 Q1447.54 1564.07 1450.47 1560.63 Q1453.43 1557.16 1453.43 1551.43 L1453.43 1550.12 L1447.61 1550.12 M1459.29 1547.71 L1459.29 1568.04 L1453.43 1568.04 L1453.43 1562.63 Q1451.43 1565.88 1448.44 1567.44 Q1445.44 1568.97 1441.11 1568.97 Q1435.64 1568.97 1432.39 1565.91 Q1429.18 1562.82 1429.18 1557.67 Q1429.18 1551.65 1433.19 1548.6 Q1437.23 1545.54 1445.22 1545.54 L1453.43 1545.54 L1453.43 1544.97 Q1453.43 1540.93 1450.76 1538.73 Q1448.12 1536.5 1443.31 1536.5 Q1440.26 1536.5 1437.36 1537.23 Q1434.46 1537.97 1431.79 1539.43 L1431.79 1534.02 Q1435 1532.78 1438.03 1532.17 Q1441.05 1531.54 1443.92 1531.54 Q1451.65 1531.54 1455.47 1535.55 Q1459.29 1539.56 1459.29 1547.71 Z" fill="#000000" fill-rule="nonzero" fill-opacity="1" /><path clip-path="url(#clip710)" d="M1471.35 1518.52 L1477.21 1518.52 L1477.21 1568.04 L1471.35 1568.04 L1471.35 1518.52 Z" fill="#000000" fill-rule="nonzero" fill-opacity="1" /><path clip-path="url(#clip710)" d="M1488.86 1553.98 L1488.86 1532.4 L1494.71 1532.4 L1494.71 1553.75 Q1494.71 1558.81 1496.69 1561.36 Q1498.66 1563.87 1502.61 1563.87 Q1507.35 1563.87 1510.09 1560.85 Q1512.86 1557.83 1512.86 1552.61 L1512.86 1532.4 L1518.71 1532.4 L1518.71 1568.04 L1512.86 1568.04 L1512.86 1562.57 Q1510.72 1565.82 1507.89 1567.41 Q1505.09 1568.97 1501.37 1568.97 Q1495.22 1568.97 1492.04 1565.15 Q1488.86 1561.33 1488.86 1553.98 M1503.59 1531.54 L1503.59 1531.54 Z" fill="#000000" fill-rule="nonzero" fill-opacity="1" /><path clip-path="url(#clip710)" d="M1561.27 1548.76 L1561.27 1551.62 L1534.34 1551.62 Q1534.72 1557.67 1537.97 1560.85 Q1541.25 1564 1547.07 1564 Q1550.45 1564 1553.6 1563.17 Q1556.78 1562.35 1559.9 1560.69 L1559.9 1566.23 Q1556.75 1567.57 1553.44 1568.27 Q1550.13 1568.97 1546.72 1568.97 Q1538.19 1568.97 1533.19 1564 Q1528.23 1559.04 1528.23 1550.57 Q1528.23 1541.82 1532.94 1536.69 Q1537.68 1531.54 1545.7 1531.54 Q1552.9 1531.54 1557.07 1536.18 Q1561.27 1540.8 1561.27 1548.76 M1555.41 1547.04 Q1555.35 1542.23 1552.71 1539.37 Q1550.1 1536.5 1545.77 1536.5 Q1540.87 1536.5 1537.91 1539.27 Q1534.98 1542.04 1534.53 1547.07 L1555.41 1547.04 Z" fill="#000000" fill-rule="nonzero" fill-opacity="1" /><path clip-path="url(#clip710)" d="M1593.61 1533.45 L1593.61 1538.98 Q1591.12 1537.71 1588.45 1537.07 Q1585.78 1536.44 1582.91 1536.44 Q1578.55 1536.44 1576.35 1537.77 Q1574.19 1539.11 1574.19 1541.79 Q1574.19 1543.82 1575.75 1545 Q1577.31 1546.15 1582.02 1547.2 L1584.03 1547.64 Q1590.26 1548.98 1592.87 1551.43 Q1595.52 1553.85 1595.52 1558.21 Q1595.52 1563.17 1591.57 1566.07 Q1587.65 1568.97 1580.78 1568.97 Q1577.91 1568.97 1574.79 1568.39 Q1571.71 1567.85 1568.27 1566.74 L1568.27 1560.69 Q1571.52 1562.38 1574.67 1563.24 Q1577.82 1564.07 1580.91 1564.07 Q1585.04 1564.07 1587.27 1562.66 Q1589.5 1561.23 1589.5 1558.65 Q1589.5 1556.27 1587.88 1554.99 Q1586.28 1553.72 1580.84 1552.54 L1578.81 1552.07 Q1573.36 1550.92 1570.94 1548.56 Q1568.52 1546.18 1568.52 1542.04 Q1568.52 1537.01 1572.09 1534.27 Q1575.65 1531.54 1582.21 1531.54 Q1585.46 1531.54 1588.32 1532.01 Q1591.19 1532.49 1593.61 1533.45 Z" fill="#000000" fill-rule="nonzero" fill-opacity="1" /><polyline clip-path="url(#clip712)" style="stroke:#000000; stroke-linecap:round; stroke-linejoin:round; stroke-width:2; stroke-opacity:0.1; fill:none" points="249.542,1405.12 2352.76,1405.12 "/>
<polyline clip-path="url(#clip712)" style="stroke:#000000; stroke-linecap:round; stroke-linejoin:round; stroke-width:2; stroke-opacity:0.1; fill:none" points="249.542,1075.38 2352.76,1075.38 "/>
<polyline clip-path="url(#clip712)" style="stroke:#000000; stroke-linecap:round; stroke-linejoin:round; stroke-width:2; stroke-opacity:0.1; fill:none" points="249.542,745.651 2352.76,745.651 "/>
<polyline clip-path="url(#clip712)" style="stroke:#000000; stroke-linecap:round; stroke-linejoin:round; stroke-width:2; stroke-opacity:0.1; fill:none" points="249.542,415.918 2352.76,415.918 "/>
<polyline clip-path="url(#clip712)" style="stroke:#000000; stroke-linecap:round; stroke-linejoin:round; stroke-width:2; stroke-opacity:0.1; fill:none" points="249.542,86.1857 2352.76,86.1857 "/>
<polyline clip-path="url(#clip710)" style="stroke:#000000; stroke-linecap:round; stroke-linejoin:round; stroke-width:4; stroke-opacity:1; fill:none" points="249.542,1423.18 249.542,47.2441 "/>
<polyline clip-path="url(#clip710)" style="stroke:#000000; stroke-linecap:round; stroke-linejoin:round; stroke-width:4; stroke-opacity:1; fill:none" points="249.542,1405.12 268.44,1405.12 "/>
<polyline clip-path="url(#clip710)" style="stroke:#000000; stroke-linecap:round; stroke-linejoin:round; stroke-width:4; stroke-opacity:1; fill:none" points="249.542,1075.38 268.44,1075.38 "/>
<polyline clip-path="url(#clip710)" style="stroke:#000000; stroke-linecap:round; stroke-linejoin:round; stroke-width:4; stroke-opacity:1; fill:none" points="249.542,745.651 268.44,745.651 "/>
<polyline clip-path="url(#clip710)" style="stroke:#000000; stroke-linecap:round; stroke-linejoin:round; stroke-width:4; stroke-opacity:1; fill:none" points="249.542,415.918 268.44,415.918 "/>
<polyline clip-path="url(#clip710)" style="stroke:#000000; stroke-linecap:round; stroke-linejoin:round; stroke-width:4; stroke-opacity:1; fill:none" points="249.542,86.1857 268.44,86.1857 "/>
<path clip-path="url(#clip710)" d="M126.205 1390.92 Q122.593 1390.92 120.765 1394.48 Q118.959 1398.02 118.959 1405.15 Q118.959 1412.26 120.765 1415.82 Q122.593 1419.36 126.205 1419.36 Q129.839 1419.36 131.644 1415.82 Q133.473 1412.26 133.473 1405.15 Q133.473 1398.02 131.644 1394.48 Q129.839 1390.92 126.205 1390.92 M126.205 1387.21 Q132.015 1387.21 135.07 1391.82 Q138.149 1396.4 138.149 1405.15 Q138.149 1413.88 135.07 1418.48 Q132.015 1423.07 126.205 1423.07 Q120.394 1423.07 117.316 1418.48 Q114.26 1413.88 114.26 1405.15 Q114.26 1396.4 117.316 1391.82 Q120.394 1387.21 126.205 1387.21 Z" fill="#000000" fill-rule="nonzero" fill-opacity="1" /><path clip-path="url(#clip710)" d="M146.366 1416.52 L151.251 1416.52 L151.251 1422.4 L146.366 1422.4 L146.366 1416.52 Z" fill="#000000" fill-rule="nonzero" fill-opacity="1" /><path clip-path="url(#clip710)" d="M171.436 1390.92 Q167.825 1390.92 165.996 1394.48 Q164.19 1398.02 164.19 1405.15 Q164.19 1412.26 165.996 1415.82 Q167.825 1419.36 171.436 1419.36 Q175.07 1419.36 176.876 1415.82 Q178.704 1412.26 178.704 1405.15 Q178.704 1398.02 176.876 1394.48 Q175.07 1390.92 171.436 1390.92 M171.436 1387.21 Q177.246 1387.21 180.301 1391.82 Q183.38 1396.4 183.38 1405.15 Q183.38 1413.88 180.301 1418.48 Q177.246 1423.07 171.436 1423.07 Q165.626 1423.07 162.547 1418.48 Q159.491 1413.88 159.491 1405.15 Q159.491 1396.4 162.547 1391.82 Q165.626 1387.21 171.436 1387.21 Z" fill="#000000" fill-rule="nonzero" fill-opacity="1" /><path clip-path="url(#clip710)" d="M201.598 1390.92 Q197.987 1390.92 196.158 1394.48 Q194.352 1398.02 194.352 1405.15 Q194.352 1412.26 196.158 1415.82 Q197.987 1419.36 201.598 1419.36 Q205.232 1419.36 207.037 1415.82 Q208.866 1412.26 208.866 1405.15 Q208.866 1398.02 207.037 1394.48 Q205.232 1390.92 201.598 1390.92 M201.598 1387.21 Q207.408 1387.21 210.463 1391.82 Q213.542 1396.4 213.542 1405.15 Q213.542 1413.88 210.463 1418.48 Q207.408 1423.07 201.598 1423.07 Q195.787 1423.07 192.709 1418.48 Q189.653 1413.88 189.653 1405.15 Q189.653 1396.4 192.709 1391.82 Q195.787 1387.21 201.598 1387.21 Z" fill="#000000" fill-rule="nonzero" fill-opacity="1" /><path clip-path="url(#clip710)" d="M127.2 1061.18 Q123.589 1061.18 121.76 1064.75 Q119.955 1068.29 119.955 1075.42 Q119.955 1082.53 121.76 1086.09 Q123.589 1089.63 127.2 1089.63 Q130.834 1089.63 132.64 1086.09 Q134.468 1082.53 134.468 1075.42 Q134.468 1068.29 132.64 1064.75 Q130.834 1061.18 127.2 1061.18 M127.2 1057.48 Q133.01 1057.48 136.066 1062.09 Q139.144 1066.67 139.144 1075.42 Q139.144 1084.15 136.066 1088.75 Q133.01 1093.34 127.2 1093.34 Q121.39 1093.34 118.311 1088.75 Q115.256 1084.15 115.256 1075.42 Q115.256 1066.67 118.311 1062.09 Q121.39 1057.48 127.2 1057.48 Z" fill="#000000" fill-rule="nonzero" fill-opacity="1" /><path clip-path="url(#clip710)" d="M147.362 1086.78 L152.246 1086.78 L152.246 1092.66 L147.362 1092.66 L147.362 1086.78 Z" fill="#000000" fill-rule="nonzero" fill-opacity="1" /><path clip-path="url(#clip710)" d="M166.459 1088.73 L182.778 1088.73 L182.778 1092.66 L160.834 1092.66 L160.834 1088.73 Q163.496 1085.97 168.079 1081.34 Q172.686 1076.69 173.866 1075.35 Q176.112 1072.83 176.991 1071.09 Q177.894 1069.33 177.894 1067.64 Q177.894 1064.89 175.95 1063.15 Q174.028 1061.41 170.927 1061.41 Q168.727 1061.41 166.274 1062.18 Q163.843 1062.94 161.065 1064.49 L161.065 1059.77 Q163.89 1058.64 166.343 1058.06 Q168.797 1057.48 170.834 1057.48 Q176.204 1057.48 179.399 1060.16 Q182.593 1062.85 182.593 1067.34 Q182.593 1069.47 181.783 1071.39 Q180.996 1073.29 178.889 1075.88 Q178.311 1076.55 175.209 1079.77 Q172.107 1082.97 166.459 1088.73 Z" fill="#000000" fill-rule="nonzero" fill-opacity="1" /><path clip-path="url(#clip710)" d="M192.639 1058.1 L210.996 1058.1 L210.996 1062.04 L196.922 1062.04 L196.922 1070.51 Q197.94 1070.16 198.959 1070 Q199.977 1069.82 200.996 1069.82 Q206.783 1069.82 210.162 1072.99 Q213.542 1076.16 213.542 1081.58 Q213.542 1087.15 210.07 1090.26 Q206.598 1093.34 200.278 1093.34 Q198.102 1093.34 195.834 1092.97 Q193.588 1092.59 191.181 1091.85 L191.181 1087.15 Q193.264 1088.29 195.487 1088.84 Q197.709 1089.4 200.186 1089.4 Q204.19 1089.4 206.528 1087.29 Q208.866 1085.19 208.866 1081.58 Q208.866 1077.97 206.528 1075.86 Q204.19 1073.75 200.186 1073.75 Q198.311 1073.75 196.436 1074.17 Q194.584 1074.59 192.639 1075.47 L192.639 1058.1 Z" fill="#000000" fill-rule="nonzero" fill-opacity="1" /><path clip-path="url(#clip710)" d="M126.205 731.45 Q122.593 731.45 120.765 735.015 Q118.959 738.556 118.959 745.686 Q118.959 752.792 120.765 756.357 Q122.593 759.899 126.205 759.899 Q129.839 759.899 131.644 756.357 Q133.473 752.792 133.473 745.686 Q133.473 738.556 131.644 735.015 Q129.839 731.45 126.205 731.45 M126.205 727.746 Q132.015 727.746 135.07 732.353 Q138.149 736.936 138.149 745.686 Q138.149 754.413 135.07 759.019 Q132.015 763.603 126.205 763.603 Q120.394 763.603 117.316 759.019 Q114.26 754.413 114.26 745.686 Q114.26 736.936 117.316 732.353 Q120.394 727.746 126.205 727.746 Z" fill="#000000" fill-rule="nonzero" fill-opacity="1" /><path clip-path="url(#clip710)" d="M146.366 757.052 L151.251 757.052 L151.251 762.931 L146.366 762.931 L146.366 757.052 Z" fill="#000000" fill-rule="nonzero" fill-opacity="1" /><path clip-path="url(#clip710)" d="M161.482 728.371 L179.839 728.371 L179.839 732.306 L165.765 732.306 L165.765 740.779 Q166.783 740.431 167.802 740.269 Q168.82 740.084 169.839 740.084 Q175.626 740.084 179.005 743.255 Q182.385 746.427 182.385 751.843 Q182.385 757.422 178.913 760.524 Q175.44 763.603 169.121 763.603 Q166.945 763.603 164.677 763.232 Q162.431 762.862 160.024 762.121 L160.024 757.422 Q162.107 758.556 164.329 759.112 Q166.552 759.667 169.028 759.667 Q173.033 759.667 175.371 757.561 Q177.709 755.454 177.709 751.843 Q177.709 748.232 175.371 746.126 Q173.033 744.019 169.028 744.019 Q167.153 744.019 165.278 744.436 Q163.427 744.853 161.482 745.732 L161.482 728.371 Z" fill="#000000" fill-rule="nonzero" fill-opacity="1" /><path clip-path="url(#clip710)" d="M201.598 731.45 Q197.987 731.45 196.158 735.015 Q194.352 738.556 194.352 745.686 Q194.352 752.792 196.158 756.357 Q197.987 759.899 201.598 759.899 Q205.232 759.899 207.037 756.357 Q208.866 752.792 208.866 745.686 Q208.866 738.556 207.037 735.015 Q205.232 731.45 201.598 731.45 M201.598 727.746 Q207.408 727.746 210.463 732.353 Q213.542 736.936 213.542 745.686 Q213.542 754.413 210.463 759.019 Q207.408 763.603 201.598 763.603 Q195.787 763.603 192.709 759.019 Q189.653 754.413 189.653 745.686 Q189.653 736.936 192.709 732.353 Q195.787 727.746 201.598 727.746 Z" fill="#000000" fill-rule="nonzero" fill-opacity="1" /><path clip-path="url(#clip710)" d="M127.2 401.717 Q123.589 401.717 121.76 405.282 Q119.955 408.824 119.955 415.953 Q119.955 423.06 121.76 426.624 Q123.589 430.166 127.2 430.166 Q130.834 430.166 132.64 426.624 Q134.468 423.06 134.468 415.953 Q134.468 408.824 132.64 405.282 Q130.834 401.717 127.2 401.717 M127.2 398.013 Q133.01 398.013 136.066 402.62 Q139.144 407.203 139.144 415.953 Q139.144 424.68 136.066 429.286 Q133.01 433.87 127.2 433.87 Q121.39 433.87 118.311 429.286 Q115.256 424.68 115.256 415.953 Q115.256 407.203 118.311 402.62 Q121.39 398.013 127.2 398.013 Z" fill="#000000" fill-rule="nonzero" fill-opacity="1" /><path clip-path="url(#clip710)" d="M147.362 427.319 L152.246 427.319 L152.246 433.198 L147.362 433.198 L147.362 427.319 Z" fill="#000000" fill-rule="nonzero" fill-opacity="1" /><path clip-path="url(#clip710)" d="M161.251 398.638 L183.473 398.638 L183.473 400.629 L170.927 433.198 L166.042 433.198 L177.848 402.574 L161.251 402.574 L161.251 398.638 Z" fill="#000000" fill-rule="nonzero" fill-opacity="1" /><path clip-path="url(#clip710)" d="M192.639 398.638 L210.996 398.638 L210.996 402.574 L196.922 402.574 L196.922 411.046 Q197.94 410.699 198.959 410.537 Q199.977 410.351 200.996 410.351 Q206.783 410.351 210.162 413.523 Q213.542 416.694 213.542 422.111 Q213.542 427.689 210.07 430.791 Q206.598 433.87 200.278 433.87 Q198.102 433.87 195.834 433.499 Q193.588 433.129 191.181 432.388 L191.181 427.689 Q193.264 428.824 195.487 429.379 Q197.709 429.935 200.186 429.935 Q204.19 429.935 206.528 427.828 Q208.866 425.722 208.866 422.111 Q208.866 418.499 206.528 416.393 Q204.19 414.287 200.186 414.287 Q198.311 414.287 196.436 414.703 Q194.584 415.12 192.639 416 L192.639 398.638 Z" fill="#000000" fill-rule="nonzero" fill-opacity="1" /><path clip-path="url(#clip710)" d="M117.015 99.5305 L124.654 99.5305 L124.654 73.1649 L116.343 74.8316 L116.343 70.5723 L124.607 68.9057 L129.283 68.9057 L129.283 99.5305 L136.922 99.5305 L136.922 103.466 L117.015 103.466 L117.015 99.5305 Z" fill="#000000" fill-rule="nonzero" fill-opacity="1" /><path clip-path="url(#clip710)" d="M146.366 97.5861 L151.251 97.5861 L151.251 103.466 L146.366 103.466 L146.366 97.5861 Z" fill="#000000" fill-rule="nonzero" fill-opacity="1" /><path clip-path="url(#clip710)" d="M171.436 71.9844 Q167.825 71.9844 165.996 75.5492 Q164.19 79.0908 164.19 86.2204 Q164.19 93.3268 165.996 96.8916 Q167.825 100.433 171.436 100.433 Q175.07 100.433 176.876 96.8916 Q178.704 93.3268 178.704 86.2204 Q178.704 79.0908 176.876 75.5492 Q175.07 71.9844 171.436 71.9844 M171.436 68.2807 Q177.246 68.2807 180.301 72.8871 Q183.38 77.4704 183.38 86.2204 Q183.38 94.9472 180.301 99.5537 Q177.246 104.137 171.436 104.137 Q165.626 104.137 162.547 99.5537 Q159.491 94.9472 159.491 86.2204 Q159.491 77.4704 162.547 72.8871 Q165.626 68.2807 171.436 68.2807 Z" fill="#000000" fill-rule="nonzero" fill-opacity="1" /><path clip-path="url(#clip710)" d="M201.598 71.9844 Q197.987 71.9844 196.158 75.5492 Q194.352 79.0908 194.352 86.2204 Q194.352 93.3268 196.158 96.8916 Q197.987 100.433 201.598 100.433 Q205.232 100.433 207.037 96.8916 Q208.866 93.3268 208.866 86.2204 Q208.866 79.0908 207.037 75.5492 Q205.232 71.9844 201.598 71.9844 M201.598 68.2807 Q207.408 68.2807 210.463 72.8871 Q213.542 77.4704 213.542 86.2204 Q213.542 94.9472 210.463 99.5537 Q207.408 104.137 201.598 104.137 Q195.787 104.137 192.709 99.5537 Q189.653 94.9472 189.653 86.2204 Q189.653 77.4704 192.709 72.8871 Q195.787 68.2807 201.598 68.2807 Z" fill="#000000" fill-rule="nonzero" fill-opacity="1" /><path clip-path="url(#clip710)" d="M64.0042 1025.06 L16.4842 1043.2 L16.4842 1036.48 L56.4926 1021.43 L16.4842 1006.34 L16.4842 999.659 L64.0042 1017.77 L64.0042 1025.06 Z" fill="#000000" fill-rule="nonzero" fill-opacity="1" /><path clip-path="url(#clip710)" d="M46.0847 981.835 Q46.0847 988.933 47.7079 991.67 Q49.3312 994.408 53.2461 994.408 Q56.3653 994.408 58.2114 992.371 Q60.0256 990.302 60.0256 986.769 Q60.0256 981.899 56.5881 978.971 Q53.1188 976.011 47.3897 976.011 L46.0847 976.011 L46.0847 981.835 M43.6657 970.154 L64.0042 970.154 L64.0042 976.011 L58.5933 976.011 Q61.8398 978.016 63.3994 981.008 Q64.9272 984 64.9272 988.328 Q64.9272 993.803 61.8716 997.049 Q58.7843 1000.26 53.6281 1000.26 Q47.6125 1000.26 44.5569 996.254 Q41.5014 992.211 41.5014 984.222 L41.5014 976.011 L40.9285 976.011 Q36.8862 976.011 34.6901 978.684 Q32.4621 981.326 32.4621 986.132 Q32.4621 989.188 33.1941 992.084 Q33.9262 994.981 35.3903 997.654 L29.9795 997.654 Q28.7381 994.439 28.1334 991.416 Q27.4968 988.392 27.4968 985.527 Q27.4968 977.793 31.5072 973.974 Q35.5176 970.154 43.6657 970.154 Z" fill="#000000" fill-rule="nonzero" fill-opacity="1" /><path clip-path="url(#clip710)" d="M33.8307 937.435 Q33.2578 938.421 33.0032 939.599 Q32.7167 940.745 32.7167 942.145 Q32.7167 947.11 35.9632 949.784 Q39.1779 952.426 45.2253 952.426 L64.0042 952.426 L64.0042 958.314 L28.3562 958.314 L28.3562 952.426 L33.8944 952.426 Q30.6479 950.58 29.0883 947.62 Q27.4968 944.66 27.4968 940.426 Q27.4968 939.822 27.5923 939.09 Q27.656 938.358 27.8151 937.466 L33.8307 937.435 Z" fill="#000000" fill-rule="nonzero" fill-opacity="1" /><path clip-path="url(#clip710)" d="M28.3562 931.292 L28.3562 925.435 L64.0042 925.435 L64.0042 931.292 L28.3562 931.292 M14.479 931.292 L14.479 925.435 L21.895 925.435 L21.895 931.292 L14.479 931.292 Z" fill="#000000" fill-rule="nonzero" fill-opacity="1" /><path clip-path="url(#clip710)" d="M46.0847 896.98 Q46.0847 904.078 47.7079 906.816 Q49.3312 909.553 53.2461 909.553 Q56.3653 909.553 58.2114 907.516 Q60.0256 905.447 60.0256 901.914 Q60.0256 897.044 56.5881 894.116 Q53.1188 891.156 47.3897 891.156 L46.0847 891.156 L46.0847 896.98 M43.6657 885.299 L64.0042 885.299 L64.0042 891.156 L58.5933 891.156 Q61.8398 893.161 63.3994 896.153 Q64.9272 899.145 64.9272 903.474 Q64.9272 908.948 61.8716 912.195 Q58.7843 915.409 53.6281 915.409 Q47.6125 915.409 44.5569 911.399 Q41.5014 907.357 41.5014 899.368 L41.5014 891.156 L40.9285 891.156 Q36.8862 891.156 34.6901 893.829 Q32.4621 896.471 32.4621 901.277 Q32.4621 904.333 33.1941 907.229 Q33.9262 910.126 35.3903 912.799 L29.9795 912.799 Q28.7381 909.585 28.1334 906.561 Q27.4968 903.537 27.4968 900.673 Q27.4968 892.938 31.5072 889.119 Q35.5176 885.299 43.6657 885.299 Z" fill="#000000" fill-rule="nonzero" fill-opacity="1" /><path clip-path="url(#clip710)" d="M42.4881 843.604 L64.0042 843.604 L64.0042 849.46 L42.679 849.46 Q37.6183 849.46 35.1038 851.434 Q32.5894 853.407 32.5894 857.354 Q32.5894 862.096 35.6131 864.834 Q38.6368 867.571 43.8567 867.571 L64.0042 867.571 L64.0042 873.459 L28.3562 873.459 L28.3562 867.571 L33.8944 867.571 Q30.6797 865.47 29.0883 862.638 Q27.4968 859.773 27.4968 856.049 Q27.4968 849.906 31.3163 846.755 Q35.1038 843.604 42.4881 843.604 Z" fill="#000000" fill-rule="nonzero" fill-opacity="1" /><path clip-path="url(#clip710)" d="M29.7248 806.269 L35.1993 806.269 Q33.8307 808.752 33.1623 811.266 Q32.4621 813.749 32.4621 816.295 Q32.4621 821.992 36.0905 825.143 Q39.6872 828.295 46.212 828.295 Q52.7369 828.295 56.3653 825.143 Q59.9619 821.992 59.9619 816.295 Q59.9619 813.749 59.2935 811.266 Q58.5933 808.752 57.2247 806.269 L62.6355 806.269 Q63.7814 808.72 64.3543 811.362 Q64.9272 813.972 64.9272 816.932 Q64.9272 824.984 59.8664 829.727 Q54.8057 834.469 46.212 834.469 Q37.491 834.469 32.4939 829.695 Q27.4968 824.889 27.4968 816.55 Q27.4968 813.844 28.0697 811.266 Q28.6108 808.688 29.7248 806.269 Z" fill="#000000" fill-rule="nonzero" fill-opacity="1" /><path clip-path="url(#clip710)" d="M44.7161 765.592 L47.5806 765.592 L47.5806 792.519 Q53.6281 792.137 56.8109 788.891 Q59.9619 785.612 59.9619 779.788 Q59.9619 776.414 59.1344 773.263 Q58.3069 770.08 56.6518 766.961 L62.1899 766.961 Q63.5267 770.112 64.227 773.422 Q64.9272 776.732 64.9272 780.138 Q64.9272 788.668 59.9619 793.665 Q54.9967 798.63 46.5303 798.63 Q37.7774 798.63 32.6531 793.92 Q27.4968 789.177 27.4968 781.156 Q27.4968 773.963 32.1438 769.794 Q36.7589 765.592 44.7161 765.592 M42.9973 771.449 Q38.1912 771.512 35.3266 774.154 Q32.4621 776.764 32.4621 781.093 Q32.4621 785.994 35.2312 788.954 Q38.0002 791.883 43.0292 792.328 L42.9973 771.449 Z" fill="#000000" fill-rule="nonzero" fill-opacity="1" /><path clip-path="url(#clip710)" d="M16.4842 735.005 L16.4842 704.959 L21.895 704.959 L21.895 728.576 L35.9632 728.576 L35.9632 705.946 L41.3741 705.946 L41.3741 728.576 L58.5933 728.576 L58.5933 704.386 L64.0042 704.386 L64.0042 735.005 L16.4842 735.005 Z" fill="#000000" fill-rule="nonzero" fill-opacity="1" /><path clip-path="url(#clip710)" d="M28.3562 664.441 L45.7028 677.332 L64.0042 663.773 L64.0042 670.68 L49.9996 681.056 L64.0042 691.432 L64.0042 698.339 L45.3526 684.493 L28.3562 697.161 L28.3562 690.254 L41.0558 680.801 L28.3562 671.348 L28.3562 664.441 Z" fill="#000000" fill-rule="nonzero" fill-opacity="1" /><path clip-path="url(#clip710)" d="M58.657 649.832 L77.5631 649.832 L77.5631 655.72 L28.3562 655.72 L28.3562 649.832 L33.7671 649.832 Q30.5842 647.986 29.0564 645.185 Q27.4968 642.352 27.4968 638.437 Q27.4968 631.944 32.6531 627.902 Q37.8093 623.828 46.212 623.828 Q54.6147 623.828 59.771 627.902 Q64.9272 631.944 64.9272 638.437 Q64.9272 642.352 63.3994 645.185 Q61.8398 647.986 58.657 649.832 M46.212 629.907 Q39.7508 629.907 36.0905 632.581 Q32.3984 635.223 32.3984 639.87 Q32.3984 644.517 36.0905 647.19 Q39.7508 649.832 46.212 649.832 Q52.6732 649.832 56.3653 647.19 Q60.0256 644.517 60.0256 639.87 Q60.0256 635.223 56.3653 632.581 Q52.6732 629.907 46.212 629.907 Z" fill="#000000" fill-rule="nonzero" fill-opacity="1" /><path clip-path="url(#clip710)" d="M14.479 614.12 L14.479 608.264 L64.0042 608.264 L64.0042 614.12 L14.479 614.12 Z" fill="#000000" fill-rule="nonzero" fill-opacity="1" /><path clip-path="url(#clip710)" d="M46.0847 579.809 Q46.0847 586.907 47.7079 589.644 Q49.3312 592.381 53.2461 592.381 Q56.3653 592.381 58.2114 590.344 Q60.0256 588.276 60.0256 584.743 Q60.0256 579.873 56.5881 576.945 Q53.1188 573.985 47.3897 573.985 L46.0847 573.985 L46.0847 579.809 M43.6657 568.128 L64.0042 568.128 L64.0042 573.985 L58.5933 573.985 Q61.8398 575.99 63.3994 578.982 Q64.9272 581.973 64.9272 586.302 Q64.9272 591.777 61.8716 595.023 Q58.7843 598.238 53.6281 598.238 Q47.6125 598.238 44.5569 594.227 Q41.5014 590.185 41.5014 582.196 L41.5014 573.985 L40.9285 573.985 Q36.8862 573.985 34.6901 576.658 Q32.4621 579.3 32.4621 584.106 Q32.4621 587.162 33.1941 590.058 Q33.9262 592.954 35.3903 595.628 L29.9795 595.628 Q28.7381 592.413 28.1334 589.39 Q27.4968 586.366 27.4968 583.501 Q27.4968 575.767 31.5072 571.948 Q35.5176 568.128 43.6657 568.128 Z" fill="#000000" fill-rule="nonzero" fill-opacity="1" /><path clip-path="url(#clip710)" d="M28.3562 556.065 L28.3562 550.209 L64.0042 550.209 L64.0042 556.065 L28.3562 556.065 M14.479 556.065 L14.479 550.209 L21.895 550.209 L21.895 556.065 L14.479 556.065 Z" fill="#000000" fill-rule="nonzero" fill-opacity="1" /><path clip-path="url(#clip710)" d="M42.4881 508.322 L64.0042 508.322 L64.0042 514.179 L42.679 514.179 Q37.6183 514.179 35.1038 516.152 Q32.5894 518.125 32.5894 522.072 Q32.5894 526.815 35.6131 529.552 Q38.6368 532.289 43.8567 532.289 L64.0042 532.289 L64.0042 538.177 L28.3562 538.177 L28.3562 532.289 L33.8944 532.289 Q30.6797 530.188 29.0883 527.356 Q27.4968 524.491 27.4968 520.767 Q27.4968 514.624 31.3163 511.473 Q35.1038 508.322 42.4881 508.322 Z" fill="#000000" fill-rule="nonzero" fill-opacity="1" /><path clip-path="url(#clip710)" d="M44.7161 466.149 L47.5806 466.149 L47.5806 493.076 Q53.6281 492.694 56.8109 489.448 Q59.9619 486.17 59.9619 480.345 Q59.9619 476.971 59.1344 473.82 Q58.3069 470.637 56.6518 467.518 L62.1899 467.518 Q63.5267 470.669 64.227 473.979 Q64.9272 477.289 64.9272 480.695 Q64.9272 489.225 59.9619 494.222 Q54.9967 499.187 46.5303 499.187 Q37.7774 499.187 32.6531 494.477 Q27.4968 489.734 27.4968 481.714 Q27.4968 474.52 32.1438 470.351 Q36.7589 466.149 44.7161 466.149 M42.9973 472.006 Q38.1912 472.07 35.3266 474.711 Q32.4621 477.321 32.4621 481.65 Q32.4621 486.552 35.2312 489.512 Q38.0002 492.44 43.0292 492.885 L42.9973 472.006 Z" fill="#000000" fill-rule="nonzero" fill-opacity="1" /><path clip-path="url(#clip710)" d="M33.7671 433.08 L14.479 433.08 L14.479 427.223 L64.0042 427.223 L64.0042 433.08 L58.657 433.08 Q61.8398 434.926 63.3994 437.758 Q64.9272 440.559 64.9272 444.506 Q64.9272 450.967 59.771 455.041 Q54.6147 459.084 46.212 459.084 Q37.8093 459.084 32.6531 455.041 Q27.4968 450.967 27.4968 444.506 Q27.4968 440.559 29.0564 437.758 Q30.5842 434.926 33.7671 433.08 M46.212 453.036 Q52.6732 453.036 56.3653 450.394 Q60.0256 447.721 60.0256 443.074 Q60.0256 438.427 56.3653 435.753 Q52.6732 433.08 46.212 433.08 Q39.7508 433.08 36.0905 435.753 Q32.3984 438.427 32.3984 443.074 Q32.3984 447.721 36.0905 450.394 Q39.7508 453.036 46.212 453.036 Z" fill="#000000" fill-rule="nonzero" fill-opacity="1" /><circle clip-path="url(#clip712)" cx="309.067" cy="342.145" r="14.4" fill="#009af9" fill-rule="evenodd" fill-opacity="1" stroke="#000000" stroke-opacity="1" stroke-width="3.2"/>
<circle clip-path="url(#clip712)" cx="970.455" cy="1208.37" r="14.4" fill="#009af9" fill-rule="evenodd" fill-opacity="1" stroke="#000000" stroke-opacity="1" stroke-width="3.2"/>
<circle clip-path="url(#clip712)" cx="1631.84" cy="1366.78" r="14.4" fill="#009af9" fill-rule="evenodd" fill-opacity="1" stroke="#000000" stroke-opacity="1" stroke-width="3.2"/>
<circle clip-path="url(#clip712)" cx="2293.23" cy="1384.24" r="14.4" fill="#009af9" fill-rule="evenodd" fill-opacity="1" stroke="#000000" stroke-opacity="1" stroke-width="3.2"/>
<polyline clip-path="url(#clip712)" style="stroke:#e26f46; stroke-linecap:round; stroke-linejoin:round; stroke-width:4; stroke-opacity:1; fill:none" points="309.067,342.145 970.455,1208.37 1631.84,1366.78 2293.23,1384.24 "/>
<circle clip-path="url(#clip712)" cx="309.067" cy="342.145" r="14.4" fill="#3da44d" fill-rule="evenodd" fill-opacity="1" stroke="#000000" stroke-opacity="1" stroke-width="3.2"/>
<circle clip-path="url(#clip712)" cx="970.455" cy="145.402" r="14.4" fill="#3da44d" fill-rule="evenodd" fill-opacity="1" stroke="#000000" stroke-opacity="1" stroke-width="3.2"/>
<circle clip-path="url(#clip712)" cx="1631.84" cy="107.064" r="14.4" fill="#3da44d" fill-rule="evenodd" fill-opacity="1" stroke="#000000" stroke-opacity="1" stroke-width="3.2"/>
<circle clip-path="url(#clip712)" cx="2293.23" cy="86.1857" r="14.4" fill="#3da44d" fill-rule="evenodd" fill-opacity="1" stroke="#000000" stroke-opacity="1" stroke-width="3.2"/>
<polyline clip-path="url(#clip712)" style="stroke:#c271d2; stroke-linecap:round; stroke-linejoin:round; stroke-width:4; stroke-opacity:1; fill:none" points="309.067,342.145 970.455,145.402 1631.84,107.064 2293.23,86.1857 "/>
<path clip-path="url(#clip710)" d="M319.649 1377.32 L795.363 1377.32 L795.363 1221.8 L319.649 1221.8  Z" fill="#ffffff" fill-rule="evenodd" fill-opacity="1"/>
<polyline clip-path="url(#clip710)" style="stroke:#000000; stroke-linecap:round; stroke-linejoin:round; stroke-width:4; stroke-opacity:1; fill:none" points="319.649,1377.32 795.363,1377.32 795.363,1221.8 319.649,1221.8 319.649,1377.32 "/>
<circle clip-path="url(#clip710)" cx="413.125" cy="1273.64" r="20.48" fill="#009af9" fill-rule="evenodd" fill-opacity="1" stroke="#000000" stroke-opacity="1" stroke-width="4.55111"/>
<path clip-path="url(#clip710)" d="M506.602 1256.36 L511.277 1256.36 L511.277 1290.92 L506.602 1290.92 L506.602 1256.36 Z" fill="#000000" fill-rule="nonzero" fill-opacity="1" /><path clip-path="url(#clip710)" d="M541.949 1275.27 L541.949 1290.92 L537.689 1290.92 L537.689 1275.41 Q537.689 1271.73 536.254 1269.9 Q534.819 1268.07 531.949 1268.07 Q528.5 1268.07 526.509 1270.27 Q524.518 1272.47 524.518 1276.26 L524.518 1290.92 L520.236 1290.92 L520.236 1264.99 L524.518 1264.99 L524.518 1269.02 Q526.046 1266.68 528.106 1265.52 Q530.189 1264.36 532.898 1264.36 Q537.365 1264.36 539.657 1267.14 Q541.949 1269.9 541.949 1275.27 Z" fill="#000000" fill-rule="nonzero" fill-opacity="1" /><path clip-path="url(#clip710)" d="M567.504 1268.92 L567.504 1254.9 L571.763 1254.9 L571.763 1290.92 L567.504 1290.92 L567.504 1287.03 Q566.161 1289.34 564.101 1290.48 Q562.064 1291.59 559.194 1291.59 Q554.495 1291.59 551.532 1287.84 Q548.592 1284.09 548.592 1277.98 Q548.592 1271.86 551.532 1268.11 Q554.495 1264.36 559.194 1264.36 Q562.064 1264.36 564.101 1265.5 Q566.161 1266.61 567.504 1268.92 M552.99 1277.98 Q552.99 1282.67 554.911 1285.36 Q556.856 1288.02 560.235 1288.02 Q563.615 1288.02 565.56 1285.36 Q567.504 1282.67 567.504 1277.98 Q567.504 1273.28 565.56 1270.61 Q563.615 1267.93 560.235 1267.93 Q556.856 1267.93 554.911 1270.61 Q552.99 1273.28 552.99 1277.98 Z" fill="#000000" fill-rule="nonzero" fill-opacity="1" /><path clip-path="url(#clip710)" d="M580.536 1264.99 L584.796 1264.99 L584.796 1290.92 L580.536 1290.92 L580.536 1264.99 M580.536 1254.9 L584.796 1254.9 L584.796 1260.29 L580.536 1260.29 L580.536 1254.9 Z" fill="#000000" fill-rule="nonzero" fill-opacity="1" /><path clip-path="url(#clip710)" d="M590.652 1264.99 L595.166 1264.99 L603.268 1286.75 L611.369 1264.99 L615.883 1264.99 L606.161 1290.92 L600.374 1290.92 L590.652 1264.99 Z" fill="#000000" fill-rule="nonzero" fill-opacity="1" /><path clip-path="url(#clip710)" d="M621.763 1264.99 L626.022 1264.99 L626.022 1290.92 L621.763 1290.92 L621.763 1264.99 M621.763 1254.9 L626.022 1254.9 L626.022 1260.29 L621.763 1260.29 L621.763 1254.9 Z" fill="#000000" fill-rule="nonzero" fill-opacity="1" /><path clip-path="url(#clip710)" d="M651.994 1268.92 L651.994 1254.9 L656.253 1254.9 L656.253 1290.92 L651.994 1290.92 L651.994 1287.03 Q650.652 1289.34 648.591 1290.48 Q646.554 1291.59 643.684 1291.59 Q638.985 1291.59 636.022 1287.84 Q633.082 1284.09 633.082 1277.98 Q633.082 1271.86 636.022 1268.11 Q638.985 1264.36 643.684 1264.36 Q646.554 1264.36 648.591 1265.5 Q650.652 1266.61 651.994 1268.92 M637.48 1277.98 Q637.48 1282.67 639.402 1285.36 Q641.346 1288.02 644.726 1288.02 Q648.105 1288.02 650.05 1285.36 Q651.994 1282.67 651.994 1277.98 Q651.994 1273.28 650.05 1270.61 Q648.105 1267.93 644.726 1267.93 Q641.346 1267.93 639.402 1270.61 Q637.48 1273.28 637.48 1277.98 Z" fill="#000000" fill-rule="nonzero" fill-opacity="1" /><path clip-path="url(#clip710)" d="M664.587 1280.68 L664.587 1264.99 L668.846 1264.99 L668.846 1280.52 Q668.846 1284.2 670.281 1286.05 Q671.716 1287.88 674.587 1287.88 Q678.036 1287.88 680.027 1285.68 Q682.04 1283.48 682.04 1279.69 L682.04 1264.99 L686.3 1264.99 L686.3 1290.92 L682.04 1290.92 L682.04 1286.93 Q680.489 1289.29 678.429 1290.45 Q676.392 1291.59 673.684 1291.59 Q669.216 1291.59 666.902 1288.81 Q664.587 1286.03 664.587 1280.68 M675.304 1264.36 L675.304 1264.36 Z" fill="#000000" fill-rule="nonzero" fill-opacity="1" /><path clip-path="url(#clip710)" d="M706.855 1277.88 Q701.693 1277.88 699.702 1279.06 Q697.712 1280.24 697.712 1283.09 Q697.712 1285.36 699.193 1286.7 Q700.698 1288.02 703.267 1288.02 Q706.809 1288.02 708.938 1285.52 Q711.091 1283 711.091 1278.83 L711.091 1277.88 L706.855 1277.88 M715.35 1276.12 L715.35 1290.92 L711.091 1290.92 L711.091 1286.98 Q709.633 1289.34 707.457 1290.48 Q705.281 1291.59 702.133 1291.59 Q698.151 1291.59 695.79 1289.36 Q693.452 1287.12 693.452 1283.37 Q693.452 1278.99 696.369 1276.77 Q699.309 1274.55 705.119 1274.55 L711.091 1274.55 L711.091 1274.13 Q711.091 1271.19 709.147 1269.6 Q707.225 1267.98 703.73 1267.98 Q701.508 1267.98 699.401 1268.51 Q697.295 1269.04 695.35 1270.11 L695.35 1266.17 Q697.688 1265.27 699.888 1264.83 Q702.087 1264.36 704.17 1264.36 Q709.795 1264.36 712.573 1267.28 Q715.35 1270.2 715.35 1276.12 Z" fill="#000000" fill-rule="nonzero" fill-opacity="1" /><path clip-path="url(#clip710)" d="M724.123 1254.9 L728.383 1254.9 L728.383 1290.92 L724.123 1290.92 L724.123 1254.9 Z" fill="#000000" fill-rule="nonzero" fill-opacity="1" /><circle clip-path="url(#clip710)" cx="413.125" cy="1325.48" r="20.48" fill="#3da44d" fill-rule="evenodd" fill-opacity="1" stroke="#000000" stroke-opacity="1" stroke-width="4.55111"/>
<path clip-path="url(#clip710)" d="M534.472 1310.86 L534.472 1315.79 Q532.111 1313.59 529.425 1312.5 Q526.763 1311.41 523.754 1311.41 Q517.828 1311.41 514.68 1315.05 Q511.532 1318.66 511.532 1325.51 Q511.532 1332.34 514.68 1335.97 Q517.828 1339.58 523.754 1339.58 Q526.763 1339.58 529.425 1338.5 Q532.111 1337.41 534.472 1335.21 L534.472 1340.09 Q532.018 1341.76 529.263 1342.59 Q526.532 1343.43 523.476 1343.43 Q515.629 1343.43 511.115 1338.63 Q506.602 1333.82 506.602 1325.51 Q506.602 1317.18 511.115 1312.39 Q515.629 1307.57 523.476 1307.57 Q526.578 1307.57 529.31 1308.4 Q532.064 1309.21 534.472 1310.86 Z" fill="#000000" fill-rule="nonzero" fill-opacity="1" /><path clip-path="url(#clip710)" d="M541.069 1332.52 L541.069 1316.83 L545.328 1316.83 L545.328 1332.36 Q545.328 1336.04 546.763 1337.89 Q548.199 1339.72 551.069 1339.72 Q554.518 1339.72 556.509 1337.52 Q558.523 1335.32 558.523 1331.53 L558.523 1316.83 L562.782 1316.83 L562.782 1342.76 L558.523 1342.76 L558.523 1338.77 Q556.972 1341.13 554.911 1342.29 Q552.874 1343.43 550.166 1343.43 Q545.699 1343.43 543.384 1340.65 Q541.069 1337.87 541.069 1332.52 M551.786 1316.2 L551.786 1316.2 Z" fill="#000000" fill-rule="nonzero" fill-opacity="1" /><path clip-path="url(#clip710)" d="M591.74 1321.81 Q593.337 1318.94 595.559 1317.57 Q597.782 1316.2 600.791 1316.2 Q604.842 1316.2 607.041 1319.05 Q609.24 1321.88 609.24 1327.11 L609.24 1342.76 L604.957 1342.76 L604.957 1327.25 Q604.957 1323.52 603.638 1321.71 Q602.319 1319.91 599.61 1319.91 Q596.3 1319.91 594.379 1322.11 Q592.458 1324.31 592.458 1328.1 L592.458 1342.76 L588.175 1342.76 L588.175 1327.25 Q588.175 1323.5 586.856 1321.71 Q585.536 1319.91 582.782 1319.91 Q579.518 1319.91 577.596 1322.13 Q575.675 1324.33 575.675 1328.1 L575.675 1342.76 L571.393 1342.76 L571.393 1316.83 L575.675 1316.83 L575.675 1320.86 Q577.134 1318.47 579.171 1317.34 Q581.208 1316.2 584.008 1316.2 Q586.833 1316.2 588.8 1317.64 Q590.791 1319.07 591.74 1321.81 Z" fill="#000000" fill-rule="nonzero" fill-opacity="1" /><path clip-path="url(#clip710)" d="M617.295 1332.52 L617.295 1316.83 L621.555 1316.83 L621.555 1332.36 Q621.555 1336.04 622.99 1337.89 Q624.425 1339.72 627.295 1339.72 Q630.744 1339.72 632.735 1337.52 Q634.749 1335.32 634.749 1331.53 L634.749 1316.83 L639.008 1316.83 L639.008 1342.76 L634.749 1342.76 L634.749 1338.77 Q633.198 1341.13 631.138 1342.29 Q629.101 1343.43 626.393 1343.43 Q621.925 1343.43 619.61 1340.65 Q617.295 1337.87 617.295 1332.52 M628.013 1316.2 L628.013 1316.2 Z" fill="#000000" fill-rule="nonzero" fill-opacity="1" /><path clip-path="url(#clip710)" d="M647.781 1306.74 L652.041 1306.74 L652.041 1342.76 L647.781 1342.76 L647.781 1306.74 Z" fill="#000000" fill-rule="nonzero" fill-opacity="1" /><path clip-path="url(#clip710)" d="M672.735 1329.72 Q667.573 1329.72 665.582 1330.9 Q663.591 1332.08 663.591 1334.93 Q663.591 1337.2 665.073 1338.54 Q666.578 1339.86 669.147 1339.86 Q672.689 1339.86 674.818 1337.36 Q676.971 1334.84 676.971 1330.67 L676.971 1329.72 L672.735 1329.72 M681.23 1327.96 L681.23 1342.76 L676.971 1342.76 L676.971 1338.82 Q675.513 1341.18 673.337 1342.32 Q671.161 1343.43 668.013 1343.43 Q664.031 1343.43 661.67 1341.2 Q659.332 1338.96 659.332 1335.21 Q659.332 1330.83 662.249 1328.61 Q665.189 1326.39 670.999 1326.39 L676.971 1326.39 L676.971 1325.97 Q676.971 1323.03 675.027 1321.44 Q673.105 1319.82 669.61 1319.82 Q667.388 1319.82 665.281 1320.35 Q663.175 1320.88 661.23 1321.95 L661.23 1318.01 Q663.568 1317.11 665.767 1316.67 Q667.966 1316.2 670.05 1316.2 Q675.675 1316.2 678.452 1319.12 Q681.23 1322.04 681.23 1327.96 Z" fill="#000000" fill-rule="nonzero" fill-opacity="1" /><path clip-path="url(#clip710)" d="M694.216 1309.47 L694.216 1316.83 L702.989 1316.83 L702.989 1320.14 L694.216 1320.14 L694.216 1334.21 Q694.216 1337.38 695.073 1338.29 Q695.952 1339.19 698.614 1339.19 L702.989 1339.19 L702.989 1342.76 L698.614 1342.76 Q693.684 1342.76 691.809 1340.93 Q689.934 1339.07 689.934 1334.21 L689.934 1320.14 L686.809 1320.14 L686.809 1316.83 L689.934 1316.83 L689.934 1309.47 L694.216 1309.47 Z" fill="#000000" fill-rule="nonzero" fill-opacity="1" /><path clip-path="url(#clip710)" d="M708.591 1316.83 L712.85 1316.83 L712.85 1342.76 L708.591 1342.76 L708.591 1316.83 M708.591 1306.74 L712.85 1306.74 L712.85 1312.13 L708.591 1312.13 L708.591 1306.74 Z" fill="#000000" fill-rule="nonzero" fill-opacity="1" /><path clip-path="url(#clip710)" d="M718.707 1316.83 L723.221 1316.83 L731.323 1338.59 L739.424 1316.83 L743.938 1316.83 L734.216 1342.76 L728.429 1342.76 L718.707 1316.83 Z" fill="#000000" fill-rule="nonzero" fill-opacity="1" /><path clip-path="url(#clip710)" d="M771.994 1328.73 L771.994 1330.81 L752.41 1330.81 Q752.688 1335.21 755.049 1337.52 Q757.433 1339.82 761.67 1339.82 Q764.123 1339.82 766.415 1339.21 Q768.73 1338.61 770.998 1337.41 L770.998 1341.44 Q768.707 1342.41 766.299 1342.92 Q763.892 1343.43 761.415 1343.43 Q755.211 1343.43 751.577 1339.82 Q747.966 1336.2 747.966 1330.05 Q747.966 1323.68 751.392 1319.95 Q754.841 1316.2 760.674 1316.2 Q765.906 1316.2 768.938 1319.58 Q771.994 1322.94 771.994 1328.73 M767.734 1327.48 Q767.688 1323.98 765.767 1321.9 Q763.869 1319.82 760.721 1319.82 Q757.156 1319.82 755.003 1321.83 Q752.873 1323.84 752.549 1327.5 L767.734 1327.48 Z" fill="#000000" fill-rule="nonzero" fill-opacity="1" /></svg>
