<?xml version="1.0" encoding="utf-8"?>
<svg xmlns="http://www.w3.org/2000/svg" xmlns:xlink="http://www.w3.org/1999/xlink" width="600" height="400" viewBox="0 0 2400 1600">
<defs>
  <clipPath id="clip250">
    <rect x="0" y="0" width="2400" height="1600"/>
  </clipPath>
</defs>
<path clip-path="url(#clip250)" d="M0 1600 L2400 1600 L2400 0 L0 0  Z" fill="#ffffff" fill-rule="evenodd" fill-opacity="1"/>
<defs>
  <clipPath id="clip251">
    <rect x="480" y="0" width="1681" height="1600"/>
  </clipPath>
</defs>
<path clip-path="url(#clip250)" d="M287.366 1423.18 L2352.76 1423.18 L2352.76 47.2441 L287.366 47.2441  Z" fill="#ffffff" fill-rule="evenodd" fill-opacity="1"/>
<defs>
  <clipPath id="clip252">
    <rect x="287" y="47" width="2066" height="1377"/>
  </clipPath>
</defs>
<polyline clip-path="url(#clip252)" style="stroke:#000000; stroke-linecap:round; stroke-linejoin:round; stroke-width:2; stroke-opacity:0.1; fill:none" points="594.46,1423.18 594.46,47.2441 "/>
<polyline clip-path="url(#clip252)" style="stroke:#000000; stroke-linecap:round; stroke-linejoin:round; stroke-width:2; stroke-opacity:0.1; fill:none" points="1078.19,1423.18 1078.19,47.2441 "/>
<polyline clip-path="url(#clip252)" style="stroke:#000000; stroke-linecap:round; stroke-linejoin:round; stroke-width:2; stroke-opacity:0.1; fill:none" points="1561.93,1423.18 1561.93,47.2441 "/>
<polyline clip-path="url(#clip252)" style="stroke:#000000; stroke-linecap:round; stroke-linejoin:round; stroke-width:2; stroke-opacity:0.1; fill:none" points="2045.66,1423.18 2045.66,47.2441 "/>
<polyline clip-path="url(#clip250)" style="stroke:#000000; stroke-linecap:round; stroke-linejoin:round; stroke-width:4; stroke-opacity:1; fill:none" points="287.366,1423.18 2352.76,1423.18 "/>
<polyline clip-path="url(#clip250)" style="stroke:#000000; stroke-linecap:round; stroke-linejoin:round; stroke-width:4; stroke-opacity:1; fill:none" points="594.46,1423.18 594.46,1404.28 "/>
<polyline clip-path="url(#clip250)" style="stroke:#000000; stroke-linecap:round; stroke-linejoin:round; stroke-width:4; stroke-opacity:1; fill:none" points="1078.19,1423.18 1078.19,1404.28 "/>
<polyline clip-path="url(#clip250)" style="stroke:#000000; stroke-linecap:round; stroke-linejoin:round; stroke-width:4; stroke-opacity:1; fill:none" points="1561.93,1423.18 1561.93,1404.28 "/>
<polyline clip-path="url(#clip250)" style="stroke:#000000; stroke-linecap:round; stroke-linejoin:round; stroke-width:4; stroke-opacity:1; fill:none" points="2045.66,1423.18 2045.66,1404.28 "/>
<path clip-path="url(#clip250)" d="M584.842 1481.64 L592.481 1481.64 L592.481 1455.28 L584.17 1456.95 L584.17 1452.69 L592.434 1451.02 L597.11 1451.02 L597.11 1481.64 L604.749 1481.64 L604.749 1485.58 L584.842 1485.58 L584.842 1481.64 Z" fill="#000000" fill-rule="nonzero" fill-opacity="1" /><path clip-path="url(#clip250)" d="M1072.85 1481.64 L1089.17 1481.64 L1089.17 1485.58 L1067.22 1485.58 L1067.22 1481.64 Q1069.88 1478.89 1074.47 1474.26 Q1079.07 1469.61 1080.25 1468.27 Q1082.5 1465.74 1083.38 1464.01 Q1084.28 1462.25 1084.28 1460.56 Q1084.28 1457.8 1082.34 1456.07 Q1080.42 1454.33 1077.31 1454.33 Q1075.12 1454.33 1072.66 1455.09 Q1070.23 1455.86 1067.45 1457.41 L1067.45 1452.69 Q1070.28 1451.55 1072.73 1450.97 Q1075.18 1450.39 1077.22 1450.39 Q1082.59 1450.39 1085.79 1453.08 Q1088.98 1455.77 1088.98 1460.26 Q1088.98 1462.39 1088.17 1464.31 Q1087.38 1466.2 1085.28 1468.8 Q1084.7 1469.47 1081.6 1472.69 Q1078.49 1475.88 1072.85 1481.64 Z" fill="#000000" fill-rule="nonzero" fill-opacity="1" /><path clip-path="url(#clip250)" d="M1566.18 1466.95 Q1569.53 1467.66 1571.41 1469.93 Q1573.31 1472.2 1573.31 1475.53 Q1573.31 1480.65 1569.79 1483.45 Q1566.27 1486.25 1559.79 1486.25 Q1557.61 1486.25 1555.3 1485.81 Q1553 1485.39 1550.55 1484.54 L1550.55 1480.02 Q1552.5 1481.16 1554.81 1481.74 Q1557.12 1482.32 1559.65 1482.32 Q1564.05 1482.32 1566.34 1480.58 Q1568.65 1478.84 1568.65 1475.53 Q1568.65 1472.48 1566.5 1470.77 Q1564.37 1469.03 1560.55 1469.03 L1556.52 1469.03 L1556.52 1465.19 L1560.74 1465.19 Q1564.18 1465.19 1566.01 1463.82 Q1567.84 1462.43 1567.84 1459.84 Q1567.84 1457.18 1565.94 1455.77 Q1564.07 1454.33 1560.55 1454.33 Q1558.63 1454.33 1556.43 1454.75 Q1554.23 1455.16 1551.59 1456.04 L1551.59 1451.88 Q1554.25 1451.14 1556.57 1450.77 Q1558.91 1450.39 1560.97 1450.39 Q1566.29 1450.39 1569.39 1452.83 Q1572.5 1455.23 1572.5 1459.35 Q1572.5 1462.22 1570.85 1464.21 Q1569.21 1466.18 1566.18 1466.95 Z" fill="#000000" fill-rule="nonzero" fill-opacity="1" /><path clip-path="url(#clip250)" d="M2048.67 1455.09 L2036.87 1473.54 L2048.67 1473.54 L2048.67 1455.09 M2047.44 1451.02 L2053.32 1451.02 L2053.32 1473.54 L2058.25 1473.54 L2058.25 1477.43 L2053.32 1477.43 L2053.32 1485.58 L2048.67 1485.58 L2048.67 1477.43 L2033.07 1477.43 L2033.07 1472.92 L2047.44 1451.02 Z" fill="#000000" fill-rule="nonzero" fill-opacity="1" /><path clip-path="url(#clip250)" d="M1158.36 1568.04 L1140.21 1520.52 L1146.93 1520.52 L1161.98 1560.53 L1177.07 1520.52 L1183.76 1520.52 L1165.64 1568.04 L1158.36 1568.04 Z" fill="#000000" fill-rule="nonzero" fill-opacity="1" /><path clip-path="url(#clip250)" d="M1201.58 1550.12 Q1194.48 1550.12 1191.74 1551.75 Q1189.01 1553.37 1189.01 1557.29 Q1189.01 1560.4 1191.04 1562.25 Q1193.11 1564.07 1196.65 1564.07 Q1201.52 1564.07 1204.44 1560.63 Q1207.4 1557.16 1207.4 1551.43 L1207.4 1550.12 L1201.58 1550.12 M1213.26 1547.71 L1213.26 1568.04 L1207.4 1568.04 L1207.4 1562.63 Q1205.4 1565.88 1202.41 1567.44 Q1199.41 1568.97 1195.09 1568.97 Q1189.61 1568.97 1186.37 1565.91 Q1183.15 1562.82 1183.15 1557.67 Q1183.15 1551.65 1187.16 1548.6 Q1191.2 1545.54 1199.19 1545.54 L1207.4 1545.54 L1207.4 1544.97 Q1207.4 1540.93 1204.73 1538.73 Q1202.09 1536.5 1197.28 1536.5 Q1194.23 1536.5 1191.33 1537.23 Q1188.43 1537.97 1185.76 1539.43 L1185.76 1534.02 Q1188.98 1532.78 1192 1532.17 Q1195.02 1531.54 1197.89 1531.54 Q1205.62 1531.54 1209.44 1535.55 Q1213.26 1539.56 1213.26 1547.71 Z" fill="#000000" fill-rule="nonzero" fill-opacity="1" /><path clip-path="url(#clip250)" d="M1245.98 1537.87 Q1244.99 1537.3 1243.82 1537.04 Q1242.67 1536.76 1241.27 1536.76 Q1236.3 1536.76 1233.63 1540 Q1230.99 1543.22 1230.99 1549.27 L1230.99 1568.04 L1225.1 1568.04 L1225.1 1532.4 L1230.99 1532.4 L1230.99 1537.93 Q1232.83 1534.69 1235.79 1533.13 Q1238.75 1531.54 1242.99 1531.54 Q1243.59 1531.54 1244.32 1531.63 Q1245.06 1531.7 1245.95 1531.85 L1245.98 1537.87 Z" fill="#000000" fill-rule="nonzero" fill-opacity="1" /><path clip-path="url(#clip250)" d="M1252.12 1532.4 L1257.98 1532.4 L1257.98 1568.04 L1252.12 1568.04 L1252.12 1532.4 M1252.12 1518.52 L1257.98 1518.52 L1257.98 1525.93 L1252.12 1525.93 L1252.12 1518.52 Z" fill="#000000" fill-rule="nonzero" fill-opacity="1" /><path clip-path="url(#clip250)" d="M1286.43 1550.12 Q1279.34 1550.12 1276.6 1551.75 Q1273.86 1553.37 1273.86 1557.29 Q1273.86 1560.4 1275.9 1562.25 Q1277.97 1564.07 1281.5 1564.07 Q1286.37 1564.07 1289.3 1560.63 Q1292.26 1557.16 1292.26 1551.43 L1292.26 1550.12 L1286.43 1550.12 M1298.12 1547.71 L1298.12 1568.04 L1292.26 1568.04 L1292.26 1562.63 Q1290.25 1565.88 1287.26 1567.44 Q1284.27 1568.97 1279.94 1568.97 Q1274.47 1568.97 1271.22 1565.91 Q1268.01 1562.82 1268.01 1557.67 Q1268.01 1551.65 1272.02 1548.6 Q1276.06 1545.54 1284.05 1545.54 L1292.26 1545.54 L1292.26 1544.97 Q1292.26 1540.93 1289.59 1538.73 Q1286.94 1536.5 1282.14 1536.5 Q1279.08 1536.5 1276.19 1537.23 Q1273.29 1537.97 1270.62 1539.43 L1270.62 1534.02 Q1273.83 1532.78 1276.85 1532.17 Q1279.88 1531.54 1282.74 1531.54 Q1290.48 1531.54 1294.3 1535.55 Q1298.12 1539.56 1298.12 1547.71 Z" fill="#000000" fill-rule="nonzero" fill-opacity="1" /><path clip-path="url(#clip250)" d="M1335.77 1550.25 Q1335.77 1543.79 1333.09 1540.13 Q1330.45 1536.44 1325.81 1536.44 Q1321.16 1536.44 1318.49 1540.13 Q1315.84 1543.79 1315.84 1550.25 Q1315.84 1556.71 1318.49 1560.4 Q1321.16 1564.07 1325.81 1564.07 Q1330.45 1564.07 1333.09 1560.4 Q1335.77 1556.71 1335.77 1550.25 M1315.84 1537.81 Q1317.69 1534.62 1320.49 1533.1 Q1323.32 1531.54 1327.24 1531.54 Q1333.73 1531.54 1337.77 1536.69 Q1341.85 1541.85 1341.85 1550.25 Q1341.85 1558.65 1337.77 1563.81 Q1333.73 1568.97 1327.24 1568.97 Q1323.32 1568.97 1320.49 1567.44 Q1317.69 1565.88 1315.84 1562.7 L1315.84 1568.04 L1309.96 1568.04 L1309.96 1518.52 L1315.84 1518.52 L1315.84 1537.81 Z" fill="#000000" fill-rule="nonzero" fill-opacity="1" /><path clip-path="url(#clip250)" d="M1351.56 1518.52 L1357.41 1518.52 L1357.41 1568.04 L1351.56 1568.04 L1351.56 1518.52 Z" fill="#000000" fill-rule="nonzero" fill-opacity="1" /><path clip-path="url(#clip250)" d="M1400.16 1548.76 L1400.16 1551.62 L1373.23 1551.62 Q1373.61 1557.67 1376.86 1560.85 Q1380.14 1564 1385.96 1564 Q1389.34 1564 1392.49 1563.17 Q1395.67 1562.35 1398.79 1560.69 L1398.79 1566.23 Q1395.64 1567.57 1392.33 1568.27 Q1389.02 1568.97 1385.61 1568.97 Q1377.08 1568.97 1372.08 1564 Q1367.12 1559.04 1367.12 1550.57 Q1367.12 1541.82 1371.83 1536.69 Q1376.57 1531.54 1384.59 1531.54 Q1391.79 1531.54 1395.96 1536.18 Q1400.16 1540.8 1400.16 1548.76 M1394.3 1547.04 Q1394.24 1542.23 1391.6 1539.37 Q1388.99 1536.5 1384.66 1536.5 Q1379.76 1536.5 1376.8 1539.27 Q1373.87 1542.04 1373.42 1547.07 L1394.3 1547.04 Z" fill="#000000" fill-rule="nonzero" fill-opacity="1" /><path clip-path="url(#clip250)" d="M1430.74 1520.52 L1439.4 1520.52 L1460.47 1560.28 L1460.47 1520.52 L1466.71 1520.52 L1466.71 1568.04 L1458.05 1568.04 L1436.98 1528.29 L1436.98 1568.04 L1430.74 1568.04 L1430.74 1520.52 Z" fill="#000000" fill-rule="nonzero" fill-opacity="1" /><path clip-path="url(#clip250)" d="M1499.91 1537.87 Q1498.92 1537.3 1497.74 1537.04 Q1496.6 1536.76 1495.2 1536.76 Q1490.23 1536.76 1487.56 1540 Q1484.92 1543.22 1484.92 1549.27 L1484.92 1568.04 L1479.03 1568.04 L1479.03 1532.4 L1484.92 1532.4 L1484.92 1537.93 Q1486.76 1534.69 1489.72 1533.13 Q1492.68 1531.54 1496.92 1531.54 Q1497.52 1531.54 1498.25 1531.63 Q1498.99 1531.7 1499.88 1531.85 L1499.91 1537.87 Z" fill="#000000" fill-rule="nonzero" fill-opacity="1" /><polyline clip-path="url(#clip252)" style="stroke:#000000; stroke-linecap:round; stroke-linejoin:round; stroke-width:2; stroke-opacity:0.1; fill:none" points="287.366,1405 2352.76,1405 "/>
<polyline clip-path="url(#clip252)" style="stroke:#000000; stroke-linecap:round; stroke-linejoin:round; stroke-width:2; stroke-opacity:0.1; fill:none" points="287.366,1015.94 2352.76,1015.94 "/>
<polyline clip-path="url(#clip252)" style="stroke:#000000; stroke-linecap:round; stroke-linejoin:round; stroke-width:2; stroke-opacity:0.1; fill:none" points="287.366,626.883 2352.76,626.883 "/>
<polyline clip-path="url(#clip252)" style="stroke:#000000; stroke-linecap:round; stroke-linejoin:round; stroke-width:2; stroke-opacity:0.1; fill:none" points="287.366,237.822 2352.76,237.822 "/>
<polyline clip-path="url(#clip250)" style="stroke:#000000; stroke-linecap:round; stroke-linejoin:round; stroke-width:4; stroke-opacity:1; fill:none" points="287.366,1423.18 287.366,47.2441 "/>
<polyline clip-path="url(#clip250)" style="stroke:#000000; stroke-linecap:round; stroke-linejoin:round; stroke-width:4; stroke-opacity:1; fill:none" points="287.366,1405 306.264,1405 "/>
<polyline clip-path="url(#clip250)" style="stroke:#000000; stroke-linecap:round; stroke-linejoin:round; stroke-width:4; stroke-opacity:1; fill:none" points="287.366,1015.94 306.264,1015.94 "/>
<polyline clip-path="url(#clip250)" style="stroke:#000000; stroke-linecap:round; stroke-linejoin:round; stroke-width:4; stroke-opacity:1; fill:none" points="287.366,626.883 306.264,626.883 "/>
<polyline clip-path="url(#clip250)" style="stroke:#000000; stroke-linecap:round; stroke-linejoin:round; stroke-width:4; stroke-opacity:1; fill:none" points="287.366,237.822 306.264,237.822 "/>
<path clip-path="url(#clip250)" d="M114.26 1405.45 L143.936 1405.45 L143.936 1409.39 L114.26 1409.39 L114.26 1405.45 Z" fill="#000000" fill-rule="nonzero" fill-opacity="1" /><path clip-path="url(#clip250)" d="M164.028 1390.8 Q160.417 1390.8 158.589 1394.37 Q156.783 1397.91 156.783 1405.04 Q156.783 1412.14 158.589 1415.71 Q160.417 1419.25 164.028 1419.25 Q167.663 1419.25 169.468 1415.71 Q171.297 1412.14 171.297 1405.04 Q171.297 1397.91 169.468 1394.37 Q167.663 1390.8 164.028 1390.8 M164.028 1387.1 Q169.839 1387.1 172.894 1391.7 Q175.973 1396.29 175.973 1405.04 Q175.973 1413.77 172.894 1418.37 Q169.839 1422.95 164.028 1422.95 Q158.218 1422.95 155.14 1418.37 Q152.084 1413.77 152.084 1405.04 Q152.084 1396.29 155.14 1391.7 Q158.218 1387.1 164.028 1387.1 Z" fill="#000000" fill-rule="nonzero" fill-opacity="1" /><path clip-path="url(#clip250)" d="M184.19 1416.4 L189.075 1416.4 L189.075 1422.28 L184.19 1422.28 L184.19 1416.4 Z" fill="#000000" fill-rule="nonzero" fill-opacity="1" /><path clip-path="url(#clip250)" d="M200.07 1418.35 L207.709 1418.35 L207.709 1391.98 L199.399 1393.65 L199.399 1389.39 L207.662 1387.72 L212.338 1387.72 L212.338 1418.35 L219.977 1418.35 L219.977 1422.28 L200.07 1422.28 L200.07 1418.35 Z" fill="#000000" fill-rule="nonzero" fill-opacity="1" /><path clip-path="url(#clip250)" d="M239.422 1390.8 Q235.81 1390.8 233.982 1394.37 Q232.176 1397.91 232.176 1405.04 Q232.176 1412.14 233.982 1415.71 Q235.81 1419.25 239.422 1419.25 Q243.056 1419.25 244.861 1415.71 Q246.69 1412.14 246.69 1405.04 Q246.69 1397.91 244.861 1394.37 Q243.056 1390.8 239.422 1390.8 M239.422 1387.1 Q245.232 1387.1 248.287 1391.7 Q251.366 1396.29 251.366 1405.04 Q251.366 1413.77 248.287 1418.37 Q245.232 1422.95 239.422 1422.95 Q233.611 1422.95 230.533 1418.37 Q227.477 1413.77 227.477 1405.04 Q227.477 1396.29 230.533 1391.7 Q233.611 1387.1 239.422 1387.1 Z" fill="#000000" fill-rule="nonzero" fill-opacity="1" /><path clip-path="url(#clip250)" d="M115.256 1016.39 L144.931 1016.39 L144.931 1020.33 L115.256 1020.33 L115.256 1016.39 Z" fill="#000000" fill-rule="nonzero" fill-opacity="1" /><path clip-path="url(#clip250)" d="M165.024 1001.74 Q161.413 1001.74 159.584 1005.31 Q157.778 1008.85 157.778 1015.98 Q157.778 1023.08 159.584 1026.65 Q161.413 1030.19 165.024 1030.19 Q168.658 1030.19 170.464 1026.65 Q172.292 1023.08 172.292 1015.98 Q172.292 1008.85 170.464 1005.31 Q168.658 1001.74 165.024 1001.74 M165.024 998.038 Q170.834 998.038 173.889 1002.64 Q176.968 1007.23 176.968 1015.98 Q176.968 1024.7 173.889 1029.31 Q170.834 1033.89 165.024 1033.89 Q159.214 1033.89 156.135 1029.31 Q153.079 1024.7 153.079 1015.98 Q153.079 1007.23 156.135 1002.64 Q159.214 998.038 165.024 998.038 Z" fill="#000000" fill-rule="nonzero" fill-opacity="1" /><path clip-path="url(#clip250)" d="M185.186 1027.34 L190.07 1027.34 L190.07 1033.22 L185.186 1033.22 L185.186 1027.34 Z" fill="#000000" fill-rule="nonzero" fill-opacity="1" /><path clip-path="url(#clip250)" d="M210.255 1001.74 Q206.644 1001.74 204.815 1005.31 Q203.01 1008.85 203.01 1015.98 Q203.01 1023.08 204.815 1026.65 Q206.644 1030.19 210.255 1030.19 Q213.889 1030.19 215.695 1026.65 Q217.523 1023.08 217.523 1015.98 Q217.523 1008.85 215.695 1005.31 Q213.889 1001.74 210.255 1001.74 M210.255 998.038 Q216.065 998.038 219.121 1002.64 Q222.199 1007.23 222.199 1015.98 Q222.199 1024.7 219.121 1029.31 Q216.065 1033.89 210.255 1033.89 Q204.445 1033.89 201.366 1029.31 Q198.311 1024.7 198.311 1015.98 Q198.311 1007.23 201.366 1002.64 Q204.445 998.038 210.255 998.038 Z" fill="#000000" fill-rule="nonzero" fill-opacity="1" /><path clip-path="url(#clip250)" d="M230.463 998.663 L248.82 998.663 L248.82 1002.6 L234.746 1002.6 L234.746 1011.07 Q235.764 1010.72 236.783 1010.56 Q237.801 1010.38 238.82 1010.38 Q244.607 1010.38 247.986 1013.55 Q251.366 1016.72 251.366 1022.14 Q251.366 1027.71 247.894 1030.82 Q244.421 1033.89 238.102 1033.89 Q235.926 1033.89 233.658 1033.52 Q231.412 1033.15 229.005 1032.41 L229.005 1027.71 Q231.088 1028.85 233.31 1029.4 Q235.533 1029.96 238.009 1029.96 Q242.014 1029.96 244.352 1027.85 Q246.69 1025.75 246.69 1022.14 Q246.69 1018.52 244.352 1016.42 Q242.014 1014.31 238.009 1014.31 Q236.135 1014.31 234.26 1014.73 Q232.408 1015.14 230.463 1016.02 L230.463 998.663 Z" fill="#000000" fill-rule="nonzero" fill-opacity="1" /><path clip-path="url(#clip250)" d="M164.028 612.681 Q160.417 612.681 158.589 616.246 Q156.783 619.788 156.783 626.917 Q156.783 634.024 158.589 637.589 Q160.417 641.13 164.028 641.13 Q167.663 641.13 169.468 637.589 Q171.297 634.024 171.297 626.917 Q171.297 619.788 169.468 616.246 Q167.663 612.681 164.028 612.681 M164.028 608.978 Q169.839 608.978 172.894 613.584 Q175.973 618.167 175.973 626.917 Q175.973 635.644 172.894 640.251 Q169.839 644.834 164.028 644.834 Q158.218 644.834 155.14 640.251 Q152.084 635.644 152.084 626.917 Q152.084 618.167 155.14 613.584 Q158.218 608.978 164.028 608.978 Z" fill="#000000" fill-rule="nonzero" fill-opacity="1" /><path clip-path="url(#clip250)" d="M184.19 638.283 L189.075 638.283 L189.075 644.163 L184.19 644.163 L184.19 638.283 Z" fill="#000000" fill-rule="nonzero" fill-opacity="1" /><path clip-path="url(#clip250)" d="M209.26 612.681 Q205.649 612.681 203.82 616.246 Q202.014 619.788 202.014 626.917 Q202.014 634.024 203.82 637.589 Q205.649 641.13 209.26 641.13 Q212.894 641.13 214.699 637.589 Q216.528 634.024 216.528 626.917 Q216.528 619.788 214.699 616.246 Q212.894 612.681 209.26 612.681 M209.26 608.978 Q215.07 608.978 218.125 613.584 Q221.204 618.167 221.204 626.917 Q221.204 635.644 218.125 640.251 Q215.07 644.834 209.26 644.834 Q203.449 644.834 200.371 640.251 Q197.315 635.644 197.315 626.917 Q197.315 618.167 200.371 613.584 Q203.449 608.978 209.26 608.978 Z" fill="#000000" fill-rule="nonzero" fill-opacity="1" /><path clip-path="url(#clip250)" d="M239.422 612.681 Q235.81 612.681 233.982 616.246 Q232.176 619.788 232.176 626.917 Q232.176 634.024 233.982 637.589 Q235.81 641.13 239.422 641.13 Q243.056 641.13 244.861 637.589 Q246.69 634.024 246.69 626.917 Q246.69 619.788 244.861 616.246 Q243.056 612.681 239.422 612.681 M239.422 608.978 Q245.232 608.978 248.287 613.584 Q251.366 618.167 251.366 626.917 Q251.366 635.644 248.287 640.251 Q245.232 644.834 239.422 644.834 Q233.611 644.834 230.533 640.251 Q227.477 635.644 227.477 626.917 Q227.477 618.167 230.533 613.584 Q233.611 608.978 239.422 608.978 Z" fill="#000000" fill-rule="nonzero" fill-opacity="1" /><path clip-path="url(#clip250)" d="M165.024 223.621 Q161.413 223.621 159.584 227.186 Q157.778 230.727 157.778 237.857 Q157.778 244.963 159.584 248.528 Q161.413 252.07 165.024 252.07 Q168.658 252.07 170.464 248.528 Q172.292 244.963 172.292 237.857 Q172.292 230.727 170.464 227.186 Q168.658 223.621 165.024 223.621 M165.024 219.917 Q170.834 219.917 173.889 224.524 Q176.968 229.107 176.968 237.857 Q176.968 246.584 173.889 251.19 Q170.834 255.773 165.024 255.773 Q159.214 255.773 156.135 251.19 Q153.079 246.584 153.079 237.857 Q153.079 229.107 156.135 224.524 Q159.214 219.917 165.024 219.917 Z" fill="#000000" fill-rule="nonzero" fill-opacity="1" /><path clip-path="url(#clip250)" d="M185.186 249.222 L190.07 249.222 L190.07 255.102 L185.186 255.102 L185.186 249.222 Z" fill="#000000" fill-rule="nonzero" fill-opacity="1" /><path clip-path="url(#clip250)" d="M210.255 223.621 Q206.644 223.621 204.815 227.186 Q203.01 230.727 203.01 237.857 Q203.01 244.963 204.815 248.528 Q206.644 252.07 210.255 252.07 Q213.889 252.07 215.695 248.528 Q217.523 244.963 217.523 237.857 Q217.523 230.727 215.695 227.186 Q213.889 223.621 210.255 223.621 M210.255 219.917 Q216.065 219.917 219.121 224.524 Q222.199 229.107 222.199 237.857 Q222.199 246.584 219.121 251.19 Q216.065 255.773 210.255 255.773 Q204.445 255.773 201.366 251.19 Q198.311 246.584 198.311 237.857 Q198.311 229.107 201.366 224.524 Q204.445 219.917 210.255 219.917 Z" fill="#000000" fill-rule="nonzero" fill-opacity="1" /><path clip-path="url(#clip250)" d="M230.463 220.542 L248.82 220.542 L248.82 224.477 L234.746 224.477 L234.746 232.949 Q235.764 232.602 236.783 232.44 Q237.801 232.255 238.82 232.255 Q244.607 232.255 247.986 235.426 Q251.366 238.598 251.366 244.014 Q251.366 249.593 247.894 252.695 Q244.421 255.773 238.102 255.773 Q235.926 255.773 233.658 255.403 Q231.412 255.033 229.005 254.292 L229.005 249.593 Q231.088 250.727 233.31 251.283 Q235.533 251.838 238.009 251.838 Q242.014 251.838 244.352 249.732 Q246.69 247.625 246.69 244.014 Q246.69 240.403 244.352 238.297 Q242.014 236.19 238.009 236.19 Q236.135 236.19 234.26 236.607 Q232.408 237.023 230.463 237.903 L230.463 220.542 Z" fill="#000000" fill-rule="nonzero" fill-opacity="1" /><path clip-path="url(#clip250)" d="M16.4842 917.048 L16.4842 910.619 L64.0042 910.619 L64.0042 917.048 L16.4842 917.048 Z" fill="#000000" fill-rule="nonzero" fill-opacity="1" /><path clip-path="url(#clip250)" d="M35.1993 870.324 Q31.2526 868.128 29.3747 865.072 Q27.4968 862.017 27.4968 857.879 Q27.4968 852.309 31.4117 849.285 Q35.2948 846.262 42.4881 846.262 L64.0042 846.262 L64.0042 852.15 L42.679 852.15 Q37.5546 852.15 35.072 853.964 Q32.5894 855.778 32.5894 859.502 Q32.5894 864.054 35.6131 866.696 Q38.6368 869.337 43.8567 869.337 L64.0042 869.337 L64.0042 875.226 L42.679 875.226 Q37.5228 875.226 35.072 877.04 Q32.5894 878.854 32.5894 882.642 Q32.5894 887.13 35.6449 889.771 Q38.6686 892.413 43.8567 892.413 L64.0042 892.413 L64.0042 898.301 L28.3562 898.301 L28.3562 892.413 L33.8944 892.413 Q30.616 890.408 29.0564 887.607 Q27.4968 884.806 27.4968 880.955 Q27.4968 877.072 29.4702 874.366 Q31.4436 871.629 35.1993 870.324 Z" fill="#000000" fill-rule="nonzero" fill-opacity="1" /><path clip-path="url(#clip250)" d="M58.657 828.915 L77.5631 828.915 L77.5631 834.803 L28.3562 834.803 L28.3562 828.915 L33.7671 828.915 Q30.5842 827.069 29.0564 824.268 Q27.4968 821.435 27.4968 817.521 Q27.4968 811.028 32.6531 806.985 Q37.8093 802.911 46.212 802.911 Q54.6147 802.911 59.771 806.985 Q64.9272 811.028 64.9272 817.521 Q64.9272 821.435 63.3994 824.268 Q61.8398 827.069 58.657 828.915 M46.212 808.991 Q39.7508 808.991 36.0905 811.664 Q32.3984 814.306 32.3984 818.953 Q32.3984 823.6 36.0905 826.273 Q39.7508 828.915 46.212 828.915 Q52.6732 828.915 56.3653 826.273 Q60.0256 823.6 60.0256 818.953 Q60.0256 814.306 56.3653 811.664 Q52.6732 808.991 46.212 808.991 Z" fill="#000000" fill-rule="nonzero" fill-opacity="1" /><path clip-path="url(#clip250)" d="M32.4621 779.39 Q32.4621 784.101 36.1542 786.838 Q39.8145 789.575 46.212 789.575 Q52.6095 789.575 56.3017 786.87 Q59.9619 784.132 59.9619 779.39 Q59.9619 774.711 56.2698 771.974 Q52.5777 769.237 46.212 769.237 Q39.8781 769.237 36.186 771.974 Q32.4621 774.711 32.4621 779.39 M27.4968 779.39 Q27.4968 771.751 32.4621 767.391 Q37.4273 763.03 46.212 763.03 Q54.9649 763.03 59.9619 767.391 Q64.9272 771.751 64.9272 779.39 Q64.9272 787.061 59.9619 791.421 Q54.9649 795.75 46.212 795.75 Q37.4273 795.75 32.4621 791.421 Q27.4968 787.061 27.4968 779.39 Z" fill="#000000" fill-rule="nonzero" fill-opacity="1" /><path clip-path="url(#clip250)" d="M33.8307 732.666 Q33.2578 733.652 33.0032 734.83 Q32.7167 735.976 32.7167 737.376 Q32.7167 742.342 35.9632 745.015 Q39.1779 747.657 45.2253 747.657 L64.0042 747.657 L64.0042 753.545 L28.3562 753.545 L28.3562 747.657 L33.8944 747.657 Q30.6479 745.811 29.0883 742.851 Q27.4968 739.891 27.4968 735.658 Q27.4968 735.053 27.5923 734.321 Q27.656 733.589 27.8151 732.698 L33.8307 732.666 Z" fill="#000000" fill-rule="nonzero" fill-opacity="1" /><path clip-path="url(#clip250)" d="M18.2347 720.73 L28.3562 720.73 L28.3562 708.667 L32.9077 708.667 L32.9077 720.73 L52.2594 720.73 Q56.6199 720.73 57.8613 719.552 Q59.1026 718.343 59.1026 714.683 L59.1026 708.667 L64.0042 708.667 L64.0042 714.683 Q64.0042 721.462 61.4897 724.04 Q58.9434 726.618 52.2594 726.618 L32.9077 726.618 L32.9077 730.915 L28.3562 730.915 L28.3562 726.618 L18.2347 726.618 L18.2347 720.73 Z" fill="#000000" fill-rule="nonzero" fill-opacity="1" /><path clip-path="url(#clip250)" d="M46.0847 684.764 Q46.0847 691.862 47.7079 694.599 Q49.3312 697.336 53.2461 697.336 Q56.3653 697.336 58.2114 695.299 Q60.0256 693.23 60.0256 689.697 Q60.0256 684.827 56.5881 681.899 Q53.1188 678.939 47.3897 678.939 L46.0847 678.939 L46.0847 684.764 M43.6657 673.083 L64.0042 673.083 L64.0042 678.939 L58.5933 678.939 Q61.8398 680.944 63.3994 683.936 Q64.9272 686.928 64.9272 691.257 Q64.9272 696.731 61.8716 699.978 Q58.7843 703.192 53.6281 703.192 Q47.6125 703.192 44.5569 699.182 Q41.5014 695.14 41.5014 687.151 L41.5014 678.939 L40.9285 678.939 Q36.8862 678.939 34.6901 681.613 Q32.4621 684.254 32.4621 689.061 Q32.4621 692.116 33.1941 695.013 Q33.9262 697.909 35.3903 700.583 L29.9795 700.583 Q28.7381 697.368 28.1334 694.344 Q27.4968 691.32 27.4968 688.456 Q27.4968 680.722 31.5072 676.902 Q35.5176 673.083 43.6657 673.083 Z" fill="#000000" fill-rule="nonzero" fill-opacity="1" /><path clip-path="url(#clip250)" d="M42.4881 631.387 L64.0042 631.387 L64.0042 637.244 L42.679 637.244 Q37.6183 637.244 35.1038 639.217 Q32.5894 641.19 32.5894 645.137 Q32.5894 649.88 35.6131 652.617 Q38.6368 655.354 43.8567 655.354 L64.0042 655.354 L64.0042 661.242 L28.3562 661.242 L28.3562 655.354 L33.8944 655.354 Q30.6797 653.253 29.0883 650.421 Q27.4968 647.556 27.4968 643.832 Q27.4968 637.689 31.3163 634.538 Q35.1038 631.387 42.4881 631.387 Z" fill="#000000" fill-rule="nonzero" fill-opacity="1" /><path clip-path="url(#clip250)" d="M29.7248 594.052 L35.1993 594.052 Q33.8307 596.535 33.1623 599.05 Q32.4621 601.532 32.4621 604.078 Q32.4621 609.776 36.0905 612.927 Q39.6872 616.078 46.212 616.078 Q52.7369 616.078 56.3653 612.927 Q59.9619 609.776 59.9619 604.078 Q59.9619 601.532 59.2935 599.05 Q58.5933 596.535 57.2247 594.052 L62.6355 594.052 Q63.7814 596.503 64.3543 599.145 Q64.9272 601.755 64.9272 604.715 Q64.9272 612.768 59.8664 617.51 Q54.8057 622.253 46.212 622.253 Q37.491 622.253 32.4939 617.478 Q27.4968 612.672 27.4968 604.333 Q27.4968 601.628 28.0697 599.05 Q28.6108 596.471 29.7248 594.052 Z" fill="#000000" fill-rule="nonzero" fill-opacity="1" /><path clip-path="url(#clip250)" d="M44.7161 553.376 L47.5806 553.376 L47.5806 580.302 Q53.6281 579.921 56.8109 576.674 Q59.9619 573.396 59.9619 567.571 Q59.9619 564.197 59.1344 561.046 Q58.3069 557.863 56.6518 554.744 L62.1899 554.744 Q63.5267 557.895 64.227 561.205 Q64.9272 564.516 64.9272 567.921 Q64.9272 576.451 59.9619 581.448 Q54.9967 586.414 46.5303 586.414 Q37.7774 586.414 32.6531 581.703 Q27.4968 576.961 27.4968 568.94 Q27.4968 561.746 32.1438 557.577 Q36.7589 553.376 44.7161 553.376 M42.9973 559.232 Q38.1912 559.296 35.3266 561.937 Q32.4621 564.547 32.4621 568.876 Q32.4621 573.778 35.2312 576.738 Q38.0002 579.666 43.0292 580.112 L42.9973 559.232 Z" fill="#000000" fill-rule="nonzero" fill-opacity="1" /><path clip-path="url(#clip252)" d="M400.966 1423.18 L400.966 626.883 L787.953 626.883 L787.953 1423.18 L400.966 1423.18 L400.966 1423.18  Z" fill="#009af9" fill-rule="evenodd" fill-opacity="1"/>
<polyline clip-path="url(#clip252)" style="stroke:#000000; stroke-linecap:round; stroke-linejoin:round; stroke-width:4; stroke-opacity:1; fill:none" points="400.966,1423.18 400.966,626.883 787.953,626.883 787.953,1423.18 400.966,1423.18 "/>
<path clip-path="url(#clip252)" d="M884.7 1029.84 L884.7 626.883 L1271.69 626.883 L1271.69 1029.84 L884.7 1029.84 L884.7 1029.84  Z" fill="#009af9" fill-rule="evenodd" fill-opacity="1"/>
<polyline clip-path="url(#clip252)" style="stroke:#000000; stroke-linecap:round; stroke-linejoin:round; stroke-width:4; stroke-opacity:1; fill:none" points="884.7,1029.84 884.7,626.883 1271.69,626.883 1271.69,1029.84 884.7,1029.84 "/>
<path clip-path="url(#clip252)" d="M1368.43 1170.76 L1368.43 626.883 L1755.42 626.883 L1755.42 1170.76 L1368.43 1170.76 L1368.43 1170.76  Z" fill="#009af9" fill-rule="evenodd" fill-opacity="1"/>
<polyline clip-path="url(#clip252)" style="stroke:#000000; stroke-linecap:round; stroke-linejoin:round; stroke-width:4; stroke-opacity:1; fill:none" points="1368.43,1170.76 1368.43,626.883 1755.42,626.883 1755.42,1170.76 1368.43,1170.76 "/>
<path clip-path="url(#clip252)" d="M1852.17 804.892 L1852.17 626.883 L2239.16 626.883 L2239.16 804.892 L1852.17 804.892 L1852.17 804.892  Z" fill="#009af9" fill-rule="evenodd" fill-opacity="1"/>
<polyline clip-path="url(#clip252)" style="stroke:#000000; stroke-linecap:round; stroke-linejoin:round; stroke-width:4; stroke-opacity:1; fill:none" points="1852.17,804.892 1852.17,626.883 2239.16,626.883 2239.16,804.892 1852.17,804.892 "/>
<circle clip-path="url(#clip252)" style="fill:#009af9; stroke:none; fill-opacity:0" cx="594.46" cy="1423.18" r="2"/>
<circle clip-path="url(#clip252)" style="fill:#009af9; stroke:none; fill-opacity:0" cx="1078.19" cy="1029.84" r="2"/>
<circle clip-path="url(#clip252)" style="fill:#009af9; stroke:none; fill-opacity:0" cx="1561.93" cy="1170.76" r="2"/>
<circle clip-path="url(#clip252)" style="fill:#009af9; stroke:none; fill-opacity:0" cx="2045.66" cy="804.892" r="2"/>
<path clip-path="url(#clip252)" d="M400.966 325.611 L400.966 626.883 L787.953 626.883 L787.953 325.611 L400.966 325.611 L400.966 325.611  Z" fill="#e26f46" fill-rule="evenodd" fill-opacity="1"/>
<polyline clip-path="url(#clip252)" style="stroke:#000000; stroke-linecap:round; stroke-linejoin:round; stroke-width:4; stroke-opacity:1; fill:none" points="400.966,325.611 400.966,626.883 787.953,626.883 787.953,325.611 400.966,325.611 "/>
<path clip-path="url(#clip252)" d="M884.7 47.2441 L884.7 626.883 L1271.69 626.883 L1271.69 47.2441 L884.7 47.2441 L884.7 47.2441  Z" fill="#e26f46" fill-rule="evenodd" fill-opacity="1"/>
<polyline clip-path="url(#clip252)" style="stroke:#000000; stroke-linecap:round; stroke-linejoin:round; stroke-width:4; stroke-opacity:1; fill:none" points="884.7,47.2441 884.7,626.883 1271.69,626.883 1271.69,47.2441 884.7,47.2441 "/>
<path clip-path="url(#clip252)" d="M1368.43 1378.18 L1368.43 626.883 L1755.42 626.883 L1755.42 1378.18 L1368.43 1378.18 L1368.43 1378.18  Z" fill="#e26f46" fill-rule="evenodd" fill-opacity="1"/>
<polyline clip-path="url(#clip252)" style="stroke:#000000; stroke-linecap:round; stroke-linejoin:round; stroke-width:4; stroke-opacity:1; fill:none" points="1368.43,1378.18 1368.43,626.883 1755.42,626.883 1755.42,1378.18 1368.43,1378.18 "/>
<path clip-path="url(#clip252)" d="M1852.17 991.23 L1852.17 626.883 L2239.16 626.883 L2239.16 991.23 L1852.17 991.23 L1852.17 991.23  Z" fill="#e26f46" fill-rule="evenodd" fill-opacity="1"/>
<polyline clip-path="url(#clip252)" style="stroke:#000000; stroke-linecap:round; stroke-linejoin:round; stroke-width:4; stroke-opacity:1; fill:none" points="1852.17,991.23 1852.17,626.883 2239.16,626.883 2239.16,991.23 1852.17,991.23 "/>
<circle clip-path="url(#clip252)" style="fill:#e26f46; stroke:none; fill-opacity:0" cx="594.46" cy="325.611" r="2"/>
<circle clip-path="url(#clip252)" style="fill:#e26f46; stroke:none; fill-opacity:0" cx="1078.19" cy="47.2441" r="2"/>
<circle clip-path="url(#clip252)" style="fill:#e26f46; stroke:none; fill-opacity:0" cx="1561.93" cy="1378.18" r="2"/>
<circle clip-path="url(#clip252)" style="fill:#e26f46; stroke:none; fill-opacity:0" cx="2045.66" cy="991.23" r="2"/>
<path clip-path="url(#clip250)" d="M1828.83 248.629 L2283.91 248.629 L2283.91 93.1086 L1828.83 93.1086  Z" fill="#ffffff" fill-rule="evenodd" fill-opacity="1"/>
<polyline clip-path="url(#clip250)" style="stroke:#000000; stroke-linecap:round; stroke-linejoin:round; stroke-width:4; stroke-opacity:1; fill:none" points="1828.83,248.629 2283.91,248.629 2283.91,93.1086 1828.83,93.1086 1828.83,248.629 "/>
<path clip-path="url(#clip250)" d="M1851.78 165.685 L1989.47 165.685 L1989.47 124.213 L1851.78 124.213 L1851.78 165.685  Z" fill="#009af9" fill-rule="evenodd" fill-opacity="1"/>
<polyline clip-path="url(#clip250)" style="stroke:#000000; stroke-linecap:round; stroke-linejoin:round; stroke-width:4; stroke-opacity:1; fill:none" points="1851.78,165.685 1989.47,165.685 1989.47,124.213 1851.78,124.213 1851.78,165.685 "/>
<path clip-path="url(#clip250)" d="M2012.42 127.669 L2032.28 127.669 L2032.28 131.604 L2017.1 131.604 L2017.1 141.789 L2030.8 141.789 L2030.8 145.724 L2017.1 145.724 L2017.1 162.229 L2012.42 162.229 L2012.42 127.669 Z" fill="#000000" fill-rule="nonzero" fill-opacity="1" /><path clip-path="url(#clip250)" d="M2036.05 136.303 L2040.31 136.303 L2040.31 162.229 L2036.05 162.229 L2036.05 136.303 M2036.05 126.21 L2040.31 126.21 L2040.31 131.604 L2036.05 131.604 L2036.05 126.21 Z" fill="#000000" fill-rule="nonzero" fill-opacity="1" /><path clip-path="url(#clip250)" d="M2064.25 140.284 Q2063.53 139.868 2062.67 139.682 Q2061.84 139.474 2060.82 139.474 Q2057.21 139.474 2055.27 141.835 Q2053.35 144.173 2053.35 148.571 L2053.35 162.229 L2049.06 162.229 L2049.06 136.303 L2053.35 136.303 L2053.35 140.331 Q2054.69 137.969 2056.84 136.835 Q2058.99 135.678 2062.07 135.678 Q2062.51 135.678 2063.05 135.747 Q2063.58 135.794 2064.23 135.909 L2064.25 140.284 Z" fill="#000000" fill-rule="nonzero" fill-opacity="1" /><path clip-path="url(#clip250)" d="M2085.24 137.067 L2085.24 141.094 Q2083.44 140.169 2081.49 139.706 Q2079.55 139.243 2077.47 139.243 Q2074.3 139.243 2072.7 140.215 Q2071.12 141.187 2071.12 143.131 Q2071.12 144.613 2072.26 145.469 Q2073.39 146.303 2076.82 147.067 L2078.28 147.391 Q2082.81 148.363 2084.71 150.145 Q2086.63 151.905 2086.63 155.076 Q2086.63 158.687 2083.76 160.793 Q2080.92 162.9 2075.92 162.9 Q2073.83 162.9 2071.56 162.483 Q2069.32 162.09 2066.82 161.28 L2066.82 156.881 Q2069.18 158.108 2071.47 158.733 Q2073.76 159.335 2076.01 159.335 Q2079.02 159.335 2080.64 158.317 Q2082.26 157.275 2082.26 155.4 Q2082.26 153.664 2081.08 152.738 Q2079.92 151.812 2075.96 150.956 L2074.48 150.608 Q2070.52 149.775 2068.76 148.062 Q2067 146.326 2067 143.317 Q2067 139.659 2069.6 137.669 Q2072.19 135.678 2076.96 135.678 Q2079.32 135.678 2081.4 136.025 Q2083.48 136.372 2085.24 137.067 Z" fill="#000000" fill-rule="nonzero" fill-opacity="1" /><path clip-path="url(#clip250)" d="M2097.63 128.942 L2097.63 136.303 L2106.4 136.303 L2106.4 139.613 L2097.63 139.613 L2097.63 153.687 Q2097.63 156.858 2098.48 157.761 Q2099.36 158.664 2102.03 158.664 L2106.4 158.664 L2106.4 162.229 L2102.03 162.229 Q2097.1 162.229 2095.22 160.4 Q2093.35 158.548 2093.35 153.687 L2093.35 139.613 L2090.22 139.613 L2090.22 136.303 L2093.35 136.303 L2093.35 128.942 L2097.63 128.942 Z" fill="#000000" fill-rule="nonzero" fill-opacity="1" /><path clip-path="url(#clip250)" d="M2147.98 128.803 L2147.98 133.363 Q2145.31 132.09 2142.95 131.465 Q2140.59 130.84 2138.39 130.84 Q2134.57 130.84 2132.49 132.321 Q2130.43 133.803 2130.43 136.534 Q2130.43 138.826 2131.79 140.007 Q2133.18 141.164 2137.03 141.882 L2139.85 142.46 Q2145.08 143.456 2147.56 145.979 Q2150.06 148.479 2150.06 152.692 Q2150.06 157.715 2146.68 160.307 Q2143.32 162.9 2136.82 162.9 Q2134.36 162.9 2131.59 162.344 Q2128.83 161.789 2125.87 160.701 L2125.87 155.886 Q2128.72 157.483 2131.45 158.293 Q2134.18 159.104 2136.82 159.104 Q2140.82 159.104 2143 157.53 Q2145.17 155.956 2145.17 153.039 Q2145.17 150.493 2143.6 149.057 Q2142.05 147.622 2138.48 146.905 L2135.64 146.349 Q2130.41 145.307 2128.07 143.085 Q2125.73 140.863 2125.73 136.905 Q2125.73 132.321 2128.95 129.682 Q2132.19 127.044 2137.86 127.044 Q2140.29 127.044 2142.81 127.483 Q2145.34 127.923 2147.98 128.803 Z" fill="#000000" fill-rule="nonzero" fill-opacity="1" /><path clip-path="url(#clip250)" d="M2166.26 162.229 L2153.07 127.669 L2157.95 127.669 L2168.9 156.766 L2179.87 127.669 L2184.73 127.669 L2171.56 162.229 L2166.26 162.229 Z" fill="#000000" fill-rule="nonzero" fill-opacity="1" /><path clip-path="url(#clip250)" d="M1851.78 217.525 L1989.47 217.525 L1989.47 176.053 L1851.78 176.053 L1851.78 217.525  Z" fill="#e26f46" fill-rule="evenodd" fill-opacity="1"/>
<polyline clip-path="url(#clip250)" style="stroke:#000000; stroke-linecap:round; stroke-linejoin:round; stroke-width:4; stroke-opacity:1; fill:none" points="1851.78,217.525 1989.47,217.525 1989.47,176.053 1851.78,176.053 1851.78,217.525 "/>
<path clip-path="url(#clip250)" d="M2034.67 180.643 L2034.67 185.203 Q2032 183.93 2029.64 183.305 Q2027.28 182.68 2025.08 182.68 Q2021.26 182.68 2019.18 184.161 Q2017.12 185.643 2017.12 188.374 Q2017.12 190.666 2018.49 191.847 Q2019.87 193.004 2023.72 193.722 L2026.54 194.3 Q2031.77 195.296 2034.25 197.819 Q2036.75 200.319 2036.75 204.532 Q2036.75 209.555 2033.37 212.147 Q2030.01 214.74 2023.51 214.74 Q2021.05 214.74 2018.28 214.184 Q2015.52 213.629 2012.56 212.541 L2012.56 207.726 Q2015.41 209.323 2018.14 210.133 Q2020.87 210.944 2023.51 210.944 Q2027.51 210.944 2029.69 209.37 Q2031.86 207.796 2031.86 204.879 Q2031.86 202.333 2030.29 200.897 Q2028.74 199.462 2025.18 198.745 L2022.33 198.189 Q2017.1 197.147 2014.76 194.925 Q2012.42 192.703 2012.42 188.745 Q2012.42 184.161 2015.64 181.522 Q2018.88 178.884 2024.55 178.884 Q2026.98 178.884 2029.5 179.323 Q2032.03 179.763 2034.67 180.643 Z" fill="#000000" fill-rule="nonzero" fill-opacity="1" /><path clip-path="url(#clip250)" d="M2066.03 200.041 L2066.03 202.124 L2046.45 202.124 Q2046.73 206.522 2049.09 208.837 Q2051.47 211.129 2055.71 211.129 Q2058.16 211.129 2060.45 210.527 Q2062.77 209.925 2065.04 208.721 L2065.04 212.749 Q2062.74 213.721 2060.34 214.231 Q2057.93 214.74 2055.45 214.74 Q2049.25 214.74 2045.61 211.129 Q2042 207.518 2042 201.36 Q2042 194.995 2045.43 191.268 Q2048.88 187.518 2054.71 187.518 Q2059.94 187.518 2062.98 190.897 Q2066.03 194.254 2066.03 200.041 M2061.77 198.791 Q2061.73 195.296 2059.8 193.212 Q2057.91 191.129 2054.76 191.129 Q2051.19 191.129 2049.04 193.143 Q2046.91 195.157 2046.59 198.814 L2061.77 198.791 Z" fill="#000000" fill-rule="nonzero" fill-opacity="1" /><path clip-path="url(#clip250)" d="M2091.68 189.138 L2091.68 193.12 Q2089.87 192.124 2088.05 191.638 Q2086.24 191.129 2084.39 191.129 Q2080.24 191.129 2077.95 193.768 Q2075.66 196.384 2075.66 201.129 Q2075.66 205.874 2077.95 208.513 Q2080.24 211.129 2084.39 211.129 Q2086.24 211.129 2088.05 210.643 Q2089.87 210.133 2091.68 209.138 L2091.68 213.073 Q2089.9 213.907 2087.98 214.323 Q2086.08 214.74 2083.92 214.74 Q2078.07 214.74 2074.62 211.059 Q2071.17 207.379 2071.17 201.129 Q2071.17 194.786 2074.64 191.152 Q2078.14 187.518 2084.2 187.518 Q2086.17 187.518 2088.05 187.935 Q2089.92 188.328 2091.68 189.138 Z" fill="#000000" fill-rule="nonzero" fill-opacity="1" /><path clip-path="url(#clip250)" d="M2109.13 191.129 Q2105.71 191.129 2103.72 193.814 Q2101.73 196.476 2101.73 201.129 Q2101.73 205.782 2103.69 208.467 Q2105.68 211.129 2109.13 211.129 Q2112.54 211.129 2114.53 208.444 Q2116.52 205.758 2116.52 201.129 Q2116.52 196.522 2114.53 193.837 Q2112.54 191.129 2109.13 191.129 M2109.13 187.518 Q2114.69 187.518 2117.86 191.129 Q2121.03 194.74 2121.03 201.129 Q2121.03 207.495 2117.86 211.129 Q2114.69 214.74 2109.13 214.74 Q2103.55 214.74 2100.38 211.129 Q2097.23 207.495 2097.23 201.129 Q2097.23 194.74 2100.38 191.129 Q2103.55 187.518 2109.13 187.518 Z" fill="#000000" fill-rule="nonzero" fill-opacity="1" /><path clip-path="url(#clip250)" d="M2149.64 198.421 L2149.64 214.069 L2145.38 214.069 L2145.38 198.559 Q2145.38 194.879 2143.95 193.05 Q2142.51 191.222 2139.64 191.222 Q2136.19 191.222 2134.2 193.421 Q2132.21 195.62 2132.21 199.416 L2132.21 214.069 L2127.93 214.069 L2127.93 188.143 L2132.21 188.143 L2132.21 192.171 Q2133.74 189.833 2135.8 188.675 Q2137.88 187.518 2140.59 187.518 Q2145.06 187.518 2147.35 190.296 Q2149.64 193.05 2149.64 198.421 Z" fill="#000000" fill-rule="nonzero" fill-opacity="1" /><path clip-path="url(#clip250)" d="M2175.2 192.078 L2175.2 178.05 L2179.46 178.05 L2179.46 214.069 L2175.2 214.069 L2175.2 210.18 Q2173.85 212.495 2171.79 213.629 Q2169.76 214.74 2166.89 214.74 Q2162.19 214.74 2159.23 210.99 Q2156.29 207.24 2156.29 201.129 Q2156.29 195.018 2159.23 191.268 Q2162.19 187.518 2166.89 187.518 Q2169.76 187.518 2171.79 188.652 Q2173.85 189.763 2175.2 192.078 M2160.68 201.129 Q2160.68 205.828 2162.6 208.513 Q2164.55 211.175 2167.93 211.175 Q2171.31 211.175 2173.25 208.513 Q2175.2 205.828 2175.2 201.129 Q2175.2 196.43 2173.25 193.768 Q2171.31 191.083 2167.93 191.083 Q2164.55 191.083 2162.6 193.768 Q2160.68 196.43 2160.68 201.129 Z" fill="#000000" fill-rule="nonzero" fill-opacity="1" /><path clip-path="url(#clip250)" d="M2224.2 180.643 L2224.2 185.203 Q2221.54 183.93 2219.18 183.305 Q2216.82 182.68 2214.62 182.68 Q2210.8 182.68 2208.72 184.161 Q2206.66 185.643 2206.66 188.374 Q2206.66 190.666 2208.02 191.847 Q2209.41 193.004 2213.25 193.722 L2216.08 194.3 Q2221.31 195.296 2223.79 197.819 Q2226.29 200.319 2226.29 204.532 Q2226.29 209.555 2222.91 212.147 Q2219.55 214.74 2213.04 214.74 Q2210.59 214.74 2207.81 214.184 Q2205.06 213.629 2202.1 212.541 L2202.1 207.726 Q2204.94 209.323 2207.67 210.133 Q2210.41 210.944 2213.04 210.944 Q2217.05 210.944 2219.22 209.37 Q2221.4 207.796 2221.4 204.879 Q2221.4 202.333 2219.83 200.897 Q2218.28 199.462 2214.71 198.745 L2211.86 198.189 Q2206.63 197.147 2204.29 194.925 Q2201.96 192.703 2201.96 188.745 Q2201.96 184.161 2205.17 181.522 Q2208.41 178.884 2214.09 178.884 Q2216.52 178.884 2219.04 179.323 Q2221.56 179.763 2224.2 180.643 Z" fill="#000000" fill-rule="nonzero" fill-opacity="1" /><path clip-path="url(#clip250)" d="M2242.49 214.069 L2229.29 179.509 L2234.18 179.509 L2245.13 208.606 L2256.1 179.509 L2260.96 179.509 L2247.79 214.069 L2242.49 214.069 Z" fill="#000000" fill-rule="nonzero" fill-opacity="1" /></svg>
