<?xml version="1.0" encoding="utf-8"?>
<svg xmlns="http://www.w3.org/2000/svg" xmlns:xlink="http://www.w3.org/1999/xlink" width="600" height="400" viewBox="0 0 2400 1600">
<defs>
  <clipPath id="clip160">
    <rect x="0" y="0" width="2400" height="1600"/>
  </clipPath>
</defs>
<path clip-path="url(#clip160)" d="M0 1600 L2400 1600 L2400 0 L0 0  Z" fill="#ffffff" fill-rule="evenodd" fill-opacity="1"/>
<defs>
  <clipPath id="clip161">
    <rect x="480" y="0" width="1681" height="1600"/>
  </clipPath>
</defs>
<path clip-path="url(#clip160)" d="M287.366 1423.18 L2352.76 1423.18 L2352.76 47.2441 L287.366 47.2441  Z" fill="#ffffff" fill-rule="evenodd" fill-opacity="1"/>
<defs>
  <clipPath id="clip162">
    <rect x="287" y="47" width="2066" height="1377"/>
  </clipPath>
</defs>
<polyline clip-path="url(#clip162)" style="stroke:#000000; stroke-linecap:round; stroke-linejoin:round; stroke-width:2; stroke-opacity:0.1; fill:none" points="499.188,1423.18 499.188,47.2441 "/>
<polyline clip-path="url(#clip162)" style="stroke:#000000; stroke-linecap:round; stroke-linejoin:round; stroke-width:2; stroke-opacity:0.1; fill:none" points="806.548,1423.18 806.548,47.2441 "/>
<polyline clip-path="url(#clip162)" style="stroke:#000000; stroke-linecap:round; stroke-linejoin:round; stroke-width:2; stroke-opacity:0.1; fill:none" points="1113.91,1423.18 1113.91,47.2441 "/>
<polyline clip-path="url(#clip162)" style="stroke:#000000; stroke-linecap:round; stroke-linejoin:round; stroke-width:2; stroke-opacity:0.1; fill:none" points="1421.27,1423.18 1421.27,47.2441 "/>
<polyline clip-path="url(#clip162)" style="stroke:#000000; stroke-linecap:round; stroke-linejoin:round; stroke-width:2; stroke-opacity:0.1; fill:none" points="1728.63,1423.18 1728.63,47.2441 "/>
<polyline clip-path="url(#clip162)" style="stroke:#000000; stroke-linecap:round; stroke-linejoin:round; stroke-width:2; stroke-opacity:0.1; fill:none" points="2035.99,1423.18 2035.99,47.2441 "/>
<polyline clip-path="url(#clip162)" style="stroke:#000000; stroke-linecap:round; stroke-linejoin:round; stroke-width:2; stroke-opacity:0.1; fill:none" points="2343.35,1423.18 2343.35,47.2441 "/>
<polyline clip-path="url(#clip160)" style="stroke:#000000; stroke-linecap:round; stroke-linejoin:round; stroke-width:4; stroke-opacity:1; fill:none" points="287.366,1423.18 2352.76,1423.18 "/>
<polyline clip-path="url(#clip160)" style="stroke:#000000; stroke-linecap:round; stroke-linejoin:round; stroke-width:4; stroke-opacity:1; fill:none" points="499.188,1423.18 499.188,1404.28 "/>
<polyline clip-path="url(#clip160)" style="stroke:#000000; stroke-linecap:round; stroke-linejoin:round; stroke-width:4; stroke-opacity:1; fill:none" points="806.548,1423.18 806.548,1404.28 "/>
<polyline clip-path="url(#clip160)" style="stroke:#000000; stroke-linecap:round; stroke-linejoin:round; stroke-width:4; stroke-opacity:1; fill:none" points="1113.91,1423.18 1113.91,1404.28 "/>
<polyline clip-path="url(#clip160)" style="stroke:#000000; stroke-linecap:round; stroke-linejoin:round; stroke-width:4; stroke-opacity:1; fill:none" points="1421.27,1423.18 1421.27,1404.28 "/>
<polyline clip-path="url(#clip160)" style="stroke:#000000; stroke-linecap:round; stroke-linejoin:round; stroke-width:4; stroke-opacity:1; fill:none" points="1728.63,1423.18 1728.63,1404.28 "/>
<polyline clip-path="url(#clip160)" style="stroke:#000000; stroke-linecap:round; stroke-linejoin:round; stroke-width:4; stroke-opacity:1; fill:none" points="2035.99,1423.18 2035.99,1404.28 "/>
<polyline clip-path="url(#clip160)" style="stroke:#000000; stroke-linecap:round; stroke-linejoin:round; stroke-width:4; stroke-opacity:1; fill:none" points="2343.35,1423.18 2343.35,1404.28 "/>
<path clip-path="url(#clip160)" d="M431.249 1468.75 L460.925 1468.75 L460.925 1472.69 L431.249 1472.69 L431.249 1468.75 Z" fill="#000000" fill-rule="nonzero" fill-opacity="1" /><path clip-path="url(#clip160)" d="M481.017 1454.1 Q477.406 1454.1 475.577 1457.66 Q473.772 1461.2 473.772 1468.33 Q473.772 1475.44 475.577 1479.01 Q477.406 1482.55 481.017 1482.55 Q484.651 1482.55 486.457 1479.01 Q488.286 1475.44 488.286 1468.33 Q488.286 1461.2 486.457 1457.66 Q484.651 1454.1 481.017 1454.1 M481.017 1450.39 Q486.827 1450.39 489.883 1455 Q492.962 1459.58 492.962 1468.33 Q492.962 1477.06 489.883 1481.67 Q486.827 1486.25 481.017 1486.25 Q475.207 1486.25 472.128 1481.67 Q469.073 1477.06 469.073 1468.33 Q469.073 1459.58 472.128 1455 Q475.207 1450.39 481.017 1450.39 Z" fill="#000000" fill-rule="nonzero" fill-opacity="1" /><path clip-path="url(#clip160)" d="M501.179 1479.7 L506.063 1479.7 L506.063 1485.58 L501.179 1485.58 L501.179 1479.7 Z" fill="#000000" fill-rule="nonzero" fill-opacity="1" /><path clip-path="url(#clip160)" d="M517.059 1481.64 L524.698 1481.64 L524.698 1455.28 L516.387 1456.95 L516.387 1452.69 L524.651 1451.02 L529.327 1451.02 L529.327 1481.64 L536.966 1481.64 L536.966 1485.58 L517.059 1485.58 L517.059 1481.64 Z" fill="#000000" fill-rule="nonzero" fill-opacity="1" /><path clip-path="url(#clip160)" d="M547.221 1481.64 L554.859 1481.64 L554.859 1455.28 L546.549 1456.95 L546.549 1452.69 L554.813 1451.02 L559.489 1451.02 L559.489 1481.64 L567.128 1481.64 L567.128 1485.58 L547.221 1485.58 L547.221 1481.64 Z" fill="#000000" fill-rule="nonzero" fill-opacity="1" /><path clip-path="url(#clip160)" d="M737.996 1468.75 L767.671 1468.75 L767.671 1472.69 L737.996 1472.69 L737.996 1468.75 Z" fill="#000000" fill-rule="nonzero" fill-opacity="1" /><path clip-path="url(#clip160)" d="M787.764 1454.1 Q784.153 1454.1 782.324 1457.66 Q780.518 1461.2 780.518 1468.33 Q780.518 1475.44 782.324 1479.01 Q784.153 1482.55 787.764 1482.55 Q791.398 1482.55 793.204 1479.01 Q795.032 1475.44 795.032 1468.33 Q795.032 1461.2 793.204 1457.66 Q791.398 1454.1 787.764 1454.1 M787.764 1450.39 Q793.574 1450.39 796.63 1455 Q799.708 1459.58 799.708 1468.33 Q799.708 1477.06 796.63 1481.67 Q793.574 1486.25 787.764 1486.25 Q781.954 1486.25 778.875 1481.67 Q775.819 1477.06 775.819 1468.33 Q775.819 1459.58 778.875 1455 Q781.954 1450.39 787.764 1450.39 Z" fill="#000000" fill-rule="nonzero" fill-opacity="1" /><path clip-path="url(#clip160)" d="M807.926 1479.7 L812.81 1479.7 L812.81 1485.58 L807.926 1485.58 L807.926 1479.7 Z" fill="#000000" fill-rule="nonzero" fill-opacity="1" /><path clip-path="url(#clip160)" d="M823.805 1481.64 L831.444 1481.64 L831.444 1455.28 L823.134 1456.95 L823.134 1452.69 L831.398 1451.02 L836.074 1451.02 L836.074 1481.64 L843.713 1481.64 L843.713 1485.58 L823.805 1485.58 L823.805 1481.64 Z" fill="#000000" fill-rule="nonzero" fill-opacity="1" /><path clip-path="url(#clip160)" d="M863.157 1454.1 Q859.546 1454.1 857.717 1457.66 Q855.912 1461.2 855.912 1468.33 Q855.912 1475.44 857.717 1479.01 Q859.546 1482.55 863.157 1482.55 Q866.791 1482.55 868.597 1479.01 Q870.425 1475.44 870.425 1468.33 Q870.425 1461.2 868.597 1457.66 Q866.791 1454.1 863.157 1454.1 M863.157 1450.39 Q868.967 1450.39 872.023 1455 Q875.101 1459.58 875.101 1468.33 Q875.101 1477.06 872.023 1481.67 Q868.967 1486.25 863.157 1486.25 Q857.347 1486.25 854.268 1481.67 Q851.213 1477.06 851.213 1468.33 Q851.213 1459.58 854.268 1455 Q857.347 1450.39 863.157 1450.39 Z" fill="#000000" fill-rule="nonzero" fill-opacity="1" /><path clip-path="url(#clip160)" d="M1045.45 1468.75 L1075.12 1468.75 L1075.12 1472.69 L1045.45 1472.69 L1045.45 1468.75 Z" fill="#000000" fill-rule="nonzero" fill-opacity="1" /><path clip-path="url(#clip160)" d="M1095.22 1454.1 Q1091.61 1454.1 1089.78 1457.66 Q1087.97 1461.2 1087.97 1468.33 Q1087.97 1475.44 1089.78 1479.01 Q1091.61 1482.55 1095.22 1482.55 Q1098.85 1482.55 1100.66 1479.01 Q1102.48 1475.44 1102.48 1468.33 Q1102.48 1461.2 1100.66 1457.66 Q1098.85 1454.1 1095.22 1454.1 M1095.22 1450.39 Q1101.03 1450.39 1104.08 1455 Q1107.16 1459.58 1107.16 1468.33 Q1107.16 1477.06 1104.08 1481.67 Q1101.03 1486.25 1095.22 1486.25 Q1089.41 1486.25 1086.33 1481.67 Q1083.27 1477.06 1083.27 1468.33 Q1083.27 1459.58 1086.33 1455 Q1089.41 1450.39 1095.22 1450.39 Z" fill="#000000" fill-rule="nonzero" fill-opacity="1" /><path clip-path="url(#clip160)" d="M1115.38 1479.7 L1120.26 1479.7 L1120.26 1485.58 L1115.38 1485.58 L1115.38 1479.7 Z" fill="#000000" fill-rule="nonzero" fill-opacity="1" /><path clip-path="url(#clip160)" d="M1140.45 1454.1 Q1136.84 1454.1 1135.01 1457.66 Q1133.2 1461.2 1133.2 1468.33 Q1133.2 1475.44 1135.01 1479.01 Q1136.84 1482.55 1140.45 1482.55 Q1144.08 1482.55 1145.89 1479.01 Q1147.72 1475.44 1147.72 1468.33 Q1147.72 1461.2 1145.89 1457.66 Q1144.08 1454.1 1140.45 1454.1 M1140.45 1450.39 Q1146.26 1450.39 1149.31 1455 Q1152.39 1459.58 1152.39 1468.33 Q1152.39 1477.06 1149.31 1481.67 Q1146.26 1486.25 1140.45 1486.25 Q1134.64 1486.25 1131.56 1481.67 Q1128.5 1477.06 1128.5 1468.33 Q1128.5 1459.58 1131.56 1455 Q1134.64 1450.39 1140.45 1450.39 Z" fill="#000000" fill-rule="nonzero" fill-opacity="1" /><path clip-path="url(#clip160)" d="M1160.75 1484.86 L1160.75 1480.6 Q1162.51 1481.44 1164.31 1481.88 Q1166.12 1482.32 1167.85 1482.32 Q1172.48 1482.32 1174.92 1479.21 Q1177.37 1476.09 1177.72 1469.75 Q1176.37 1471.74 1174.31 1472.8 Q1172.25 1473.87 1169.75 1473.87 Q1164.57 1473.87 1161.54 1470.74 Q1158.53 1467.59 1158.53 1462.15 Q1158.53 1456.83 1161.67 1453.61 Q1164.82 1450.39 1170.05 1450.39 Q1176.05 1450.39 1179.2 1455 Q1182.37 1459.58 1182.37 1468.33 Q1182.37 1476.51 1178.48 1481.39 Q1174.61 1486.25 1168.06 1486.25 Q1166.3 1486.25 1164.5 1485.9 Q1162.69 1485.56 1160.75 1484.86 M1170.05 1470.21 Q1173.2 1470.21 1175.03 1468.06 Q1176.88 1465.9 1176.88 1462.15 Q1176.88 1458.43 1175.03 1456.27 Q1173.2 1454.1 1170.05 1454.1 Q1166.91 1454.1 1165.05 1456.27 Q1163.23 1458.43 1163.23 1462.15 Q1163.23 1465.9 1165.05 1468.06 Q1166.91 1470.21 1170.05 1470.21 Z" fill="#000000" fill-rule="nonzero" fill-opacity="1" /><path clip-path="url(#clip160)" d="M1352.76 1468.75 L1382.44 1468.75 L1382.44 1472.69 L1352.76 1472.69 L1352.76 1468.75 Z" fill="#000000" fill-rule="nonzero" fill-opacity="1" /><path clip-path="url(#clip160)" d="M1402.53 1454.1 Q1398.92 1454.1 1397.09 1457.66 Q1395.28 1461.2 1395.28 1468.33 Q1395.28 1475.44 1397.09 1479.01 Q1398.92 1482.55 1402.53 1482.55 Q1406.16 1482.55 1407.97 1479.01 Q1409.8 1475.44 1409.8 1468.33 Q1409.8 1461.2 1407.97 1457.66 Q1406.16 1454.1 1402.53 1454.1 M1402.53 1450.39 Q1408.34 1450.39 1411.4 1455 Q1414.47 1459.58 1414.47 1468.33 Q1414.47 1477.06 1411.4 1481.67 Q1408.34 1486.25 1402.53 1486.25 Q1396.72 1486.25 1393.64 1481.67 Q1390.59 1477.06 1390.59 1468.33 Q1390.59 1459.58 1393.64 1455 Q1396.72 1450.39 1402.53 1450.39 Z" fill="#000000" fill-rule="nonzero" fill-opacity="1" /><path clip-path="url(#clip160)" d="M1422.69 1479.7 L1427.58 1479.7 L1427.58 1485.58 L1422.69 1485.58 L1422.69 1479.7 Z" fill="#000000" fill-rule="nonzero" fill-opacity="1" /><path clip-path="url(#clip160)" d="M1447.76 1454.1 Q1444.15 1454.1 1442.32 1457.66 Q1440.52 1461.2 1440.52 1468.33 Q1440.52 1475.44 1442.32 1479.01 Q1444.15 1482.55 1447.76 1482.55 Q1451.4 1482.55 1453.2 1479.01 Q1455.03 1475.44 1455.03 1468.33 Q1455.03 1461.2 1453.2 1457.66 Q1451.4 1454.1 1447.76 1454.1 M1447.76 1450.39 Q1453.57 1450.39 1456.63 1455 Q1459.71 1459.58 1459.71 1468.33 Q1459.71 1477.06 1456.63 1481.67 Q1453.57 1486.25 1447.76 1486.25 Q1441.95 1486.25 1438.87 1481.67 Q1435.82 1477.06 1435.82 1468.33 Q1435.82 1459.58 1438.87 1455 Q1441.95 1450.39 1447.76 1450.39 Z" fill="#000000" fill-rule="nonzero" fill-opacity="1" /><path clip-path="url(#clip160)" d="M1477.92 1469.17 Q1474.59 1469.17 1472.67 1470.95 Q1470.77 1472.73 1470.77 1475.86 Q1470.77 1478.98 1472.67 1480.77 Q1474.59 1482.55 1477.92 1482.55 Q1481.26 1482.55 1483.18 1480.77 Q1485.1 1478.96 1485.1 1475.86 Q1485.1 1472.73 1483.18 1470.95 Q1481.28 1469.17 1477.92 1469.17 M1473.25 1467.18 Q1470.24 1466.44 1468.55 1464.38 Q1466.88 1462.32 1466.88 1459.35 Q1466.88 1455.21 1469.82 1452.8 Q1472.78 1450.39 1477.92 1450.39 Q1483.09 1450.39 1486.03 1452.8 Q1488.96 1455.21 1488.96 1459.35 Q1488.96 1462.32 1487.28 1464.38 Q1485.61 1466.44 1482.62 1467.18 Q1486 1467.96 1487.88 1470.26 Q1489.78 1472.55 1489.78 1475.86 Q1489.78 1480.88 1486.7 1483.57 Q1483.64 1486.25 1477.92 1486.25 Q1472.21 1486.25 1469.13 1483.57 Q1466.07 1480.88 1466.07 1475.86 Q1466.07 1472.55 1467.97 1470.26 Q1469.87 1467.96 1473.25 1467.18 M1471.53 1459.79 Q1471.53 1462.48 1473.2 1463.98 Q1474.89 1465.49 1477.92 1465.49 Q1480.93 1465.49 1482.62 1463.98 Q1484.34 1462.48 1484.34 1459.79 Q1484.34 1457.11 1482.62 1455.6 Q1480.93 1454.1 1477.92 1454.1 Q1474.89 1454.1 1473.2 1455.6 Q1471.53 1457.11 1471.53 1459.79 Z" fill="#000000" fill-rule="nonzero" fill-opacity="1" /><path clip-path="url(#clip160)" d="M1660.53 1468.75 L1690.2 1468.75 L1690.2 1472.69 L1660.53 1472.69 L1660.53 1468.75 Z" fill="#000000" fill-rule="nonzero" fill-opacity="1" /><path clip-path="url(#clip160)" d="M1710.3 1454.1 Q1706.68 1454.1 1704.86 1457.66 Q1703.05 1461.2 1703.05 1468.33 Q1703.05 1475.44 1704.86 1479.01 Q1706.68 1482.55 1710.3 1482.55 Q1713.93 1482.55 1715.74 1479.01 Q1717.56 1475.44 1717.56 1468.33 Q1717.56 1461.2 1715.74 1457.66 Q1713.93 1454.1 1710.3 1454.1 M1710.3 1450.39 Q1716.11 1450.39 1719.16 1455 Q1722.24 1459.58 1722.24 1468.33 Q1722.24 1477.06 1719.16 1481.67 Q1716.11 1486.25 1710.3 1486.25 Q1704.49 1486.25 1701.41 1481.67 Q1698.35 1477.06 1698.35 1468.33 Q1698.35 1459.58 1701.41 1455 Q1704.49 1450.39 1710.3 1450.39 Z" fill="#000000" fill-rule="nonzero" fill-opacity="1" /><path clip-path="url(#clip160)" d="M1730.46 1479.7 L1735.34 1479.7 L1735.34 1485.58 L1730.46 1485.58 L1730.46 1479.7 Z" fill="#000000" fill-rule="nonzero" fill-opacity="1" /><path clip-path="url(#clip160)" d="M1755.53 1454.1 Q1751.92 1454.1 1750.09 1457.66 Q1748.28 1461.2 1748.28 1468.33 Q1748.28 1475.44 1750.09 1479.01 Q1751.92 1482.55 1755.53 1482.55 Q1759.16 1482.55 1760.97 1479.01 Q1762.8 1475.44 1762.8 1468.33 Q1762.8 1461.2 1760.97 1457.66 Q1759.16 1454.1 1755.53 1454.1 M1755.53 1450.39 Q1761.34 1450.39 1764.39 1455 Q1767.47 1459.58 1767.47 1468.33 Q1767.47 1477.06 1764.39 1481.67 Q1761.34 1486.25 1755.53 1486.25 Q1749.72 1486.25 1746.64 1481.67 Q1743.58 1477.06 1743.58 1468.33 Q1743.58 1459.58 1746.64 1455 Q1749.72 1450.39 1755.53 1450.39 Z" fill="#000000" fill-rule="nonzero" fill-opacity="1" /><path clip-path="url(#clip160)" d="M1774.51 1451.02 L1796.73 1451.02 L1796.73 1453.01 L1784.18 1485.58 L1779.3 1485.58 L1791.11 1454.96 L1774.51 1454.96 L1774.51 1451.02 Z" fill="#000000" fill-rule="nonzero" fill-opacity="1" /><path clip-path="url(#clip160)" d="M1967.35 1468.75 L1997.03 1468.75 L1997.03 1472.69 L1967.35 1472.69 L1967.35 1468.75 Z" fill="#000000" fill-rule="nonzero" fill-opacity="1" /><path clip-path="url(#clip160)" d="M2017.12 1454.1 Q2013.51 1454.1 2011.68 1457.66 Q2009.88 1461.2 2009.88 1468.33 Q2009.88 1475.44 2011.68 1479.01 Q2013.51 1482.55 2017.12 1482.55 Q2020.76 1482.55 2022.56 1479.01 Q2024.39 1475.44 2024.39 1468.33 Q2024.39 1461.2 2022.56 1457.66 Q2020.76 1454.1 2017.12 1454.1 M2017.12 1450.39 Q2022.93 1450.39 2025.99 1455 Q2029.07 1459.58 2029.07 1468.33 Q2029.07 1477.06 2025.99 1481.67 Q2022.93 1486.25 2017.12 1486.25 Q2011.31 1486.25 2008.23 1481.67 Q2005.18 1477.06 2005.18 1468.33 Q2005.18 1459.58 2008.23 1455 Q2011.31 1450.39 2017.12 1450.39 Z" fill="#000000" fill-rule="nonzero" fill-opacity="1" /><path clip-path="url(#clip160)" d="M2037.28 1479.7 L2042.17 1479.7 L2042.17 1485.58 L2037.28 1485.58 L2037.28 1479.7 Z" fill="#000000" fill-rule="nonzero" fill-opacity="1" /><path clip-path="url(#clip160)" d="M2062.35 1454.1 Q2058.74 1454.1 2056.91 1457.66 Q2055.11 1461.2 2055.11 1468.33 Q2055.11 1475.44 2056.91 1479.01 Q2058.74 1482.55 2062.35 1482.55 Q2065.99 1482.55 2067.79 1479.01 Q2069.62 1475.44 2069.62 1468.33 Q2069.62 1461.2 2067.79 1457.66 Q2065.99 1454.1 2062.35 1454.1 M2062.35 1450.39 Q2068.16 1450.39 2071.22 1455 Q2074.3 1459.58 2074.3 1468.33 Q2074.3 1477.06 2071.22 1481.67 Q2068.16 1486.25 2062.35 1486.25 Q2056.54 1486.25 2053.47 1481.67 Q2050.41 1477.06 2050.41 1468.33 Q2050.41 1459.58 2053.47 1455 Q2056.54 1450.39 2062.35 1450.39 Z" fill="#000000" fill-rule="nonzero" fill-opacity="1" /><path clip-path="url(#clip160)" d="M2093.09 1466.44 Q2089.95 1466.44 2088.09 1468.59 Q2086.27 1470.74 2086.27 1474.49 Q2086.27 1478.22 2088.09 1480.39 Q2089.95 1482.55 2093.09 1482.55 Q2096.24 1482.55 2098.07 1480.39 Q2099.92 1478.22 2099.92 1474.49 Q2099.92 1470.74 2098.07 1468.59 Q2096.24 1466.44 2093.09 1466.44 M2102.38 1451.78 L2102.38 1456.04 Q2100.62 1455.21 2098.81 1454.77 Q2097.03 1454.33 2095.27 1454.33 Q2090.64 1454.33 2088.19 1457.45 Q2085.76 1460.58 2085.41 1466.9 Q2086.78 1464.89 2088.84 1463.82 Q2090.9 1462.73 2093.37 1462.73 Q2098.58 1462.73 2101.59 1465.9 Q2104.62 1469.05 2104.62 1474.49 Q2104.62 1479.82 2101.47 1483.03 Q2098.33 1486.25 2093.09 1486.25 Q2087.1 1486.25 2083.93 1481.67 Q2080.76 1477.06 2080.76 1468.33 Q2080.76 1460.14 2084.65 1455.28 Q2088.53 1450.39 2095.09 1450.39 Q2096.84 1450.39 2098.63 1450.74 Q2100.43 1451.09 2102.38 1451.78 Z" fill="#000000" fill-rule="nonzero" fill-opacity="1" /><path clip-path="url(#clip160)" d="M2275.29 1468.75 L2304.97 1468.75 L2304.97 1472.69 L2275.29 1472.69 L2275.29 1468.75 Z" fill="#000000" fill-rule="nonzero" fill-opacity="1" /><path clip-path="url(#clip160)" d="M2325.06 1454.1 Q2321.45 1454.1 2319.62 1457.66 Q2317.82 1461.2 2317.82 1468.33 Q2317.82 1475.44 2319.62 1479.01 Q2321.45 1482.55 2325.06 1482.55 Q2328.7 1482.55 2330.5 1479.01 Q2332.33 1475.44 2332.33 1468.33 Q2332.33 1461.2 2330.5 1457.66 Q2328.7 1454.1 2325.06 1454.1 M2325.06 1450.39 Q2330.87 1450.39 2333.93 1455 Q2337.01 1459.58 2337.01 1468.33 Q2337.01 1477.06 2333.93 1481.67 Q2330.87 1486.25 2325.06 1486.25 Q2319.25 1486.25 2316.17 1481.67 Q2313.12 1477.06 2313.12 1468.33 Q2313.12 1459.58 2316.17 1455 Q2319.25 1450.39 2325.06 1450.39 Z" fill="#000000" fill-rule="nonzero" fill-opacity="1" /><path clip-path="url(#clip160)" d="M2345.22 1479.7 L2350.11 1479.7 L2350.11 1485.58 L2345.22 1485.58 L2345.22 1479.7 Z" fill="#000000" fill-rule="nonzero" fill-opacity="1" /><path clip-path="url(#clip160)" d="M2370.29 1454.1 Q2366.68 1454.1 2364.85 1457.66 Q2363.05 1461.2 2363.05 1468.33 Q2363.05 1475.44 2364.85 1479.01 Q2366.68 1482.55 2370.29 1482.55 Q2373.93 1482.55 2375.73 1479.01 Q2377.56 1475.44 2377.56 1468.33 Q2377.56 1461.2 2375.73 1457.66 Q2373.93 1454.1 2370.29 1454.1 M2370.29 1450.39 Q2376.1 1450.39 2379.16 1455 Q2382.24 1459.58 2382.24 1468.33 Q2382.24 1477.06 2379.16 1481.67 Q2376.1 1486.25 2370.29 1486.25 Q2364.48 1486.25 2361.4 1481.67 Q2358.35 1477.06 2358.35 1468.33 Q2358.35 1459.58 2361.4 1455 Q2364.48 1450.39 2370.29 1450.39 Z" fill="#000000" fill-rule="nonzero" fill-opacity="1" /><path clip-path="url(#clip160)" d="M2390.5 1451.02 L2408.86 1451.02 L2408.86 1454.96 L2394.78 1454.96 L2394.78 1463.43 Q2395.8 1463.08 2396.82 1462.92 Q2397.84 1462.73 2398.86 1462.73 Q2404.64 1462.73 2408.02 1465.9 Q2411.4 1469.08 2411.4 1474.49 Q2411.4 1480.07 2407.93 1483.17 Q2404.46 1486.25 2398.14 1486.25 Q2395.96 1486.25 2393.7 1485.88 Q2391.45 1485.51 2389.04 1484.77 L2389.04 1480.07 Q2391.13 1481.2 2393.35 1481.76 Q2395.57 1482.32 2398.05 1482.32 Q2402.05 1482.32 2404.39 1480.21 Q2406.73 1478.1 2406.73 1474.49 Q2406.73 1470.88 2404.39 1468.77 Q2402.05 1466.67 2398.05 1466.67 Q2396.17 1466.67 2394.3 1467.08 Q2392.45 1467.5 2390.5 1468.38 L2390.5 1451.02 Z" fill="#000000" fill-rule="nonzero" fill-opacity="1" /><path clip-path="url(#clip160)" d="M905.319 1520.52 L932.628 1520.52 L932.628 1525.93 L911.749 1525.93 L911.749 1539.94 L930.591 1539.94 L930.591 1545.35 L911.749 1545.35 L911.749 1568.04 L905.319 1568.04 L905.319 1520.52 Z" fill="#000000" fill-rule="nonzero" fill-opacity="1" /><path clip-path="url(#clip160)" d="M937.816 1532.4 L943.673 1532.4 L943.673 1568.04 L937.816 1568.04 L937.816 1532.4 M937.816 1518.52 L943.673 1518.52 L943.673 1525.93 L937.816 1525.93 L937.816 1518.52 Z" fill="#000000" fill-rule="nonzero" fill-opacity="1" /><path clip-path="url(#clip160)" d="M976.583 1537.87 Q975.597 1537.3 974.419 1537.04 Q973.273 1536.76 971.873 1536.76 Q966.907 1536.76 964.234 1540 Q961.592 1543.22 961.592 1549.27 L961.592 1568.04 L955.704 1568.04 L955.704 1532.4 L961.592 1532.4 L961.592 1537.93 Q963.438 1534.69 966.398 1533.13 Q969.358 1531.54 973.591 1531.54 Q974.196 1531.54 974.928 1531.63 Q975.66 1531.7 976.551 1531.85 L976.583 1537.87 Z" fill="#000000" fill-rule="nonzero" fill-opacity="1" /><path clip-path="url(#clip160)" d="M1005.45 1533.45 L1005.45 1538.98 Q1002.97 1537.71 1000.3 1537.07 Q997.622 1536.44 994.757 1536.44 Q990.397 1536.44 988.201 1537.77 Q986.036 1539.11 986.036 1541.79 Q986.036 1543.82 987.596 1545 Q989.156 1546.15 993.866 1547.2 L995.871 1547.64 Q1002.11 1548.98 1004.72 1551.43 Q1007.36 1553.85 1007.36 1558.21 Q1007.36 1563.17 1003.41 1566.07 Q999.5 1568.97 992.625 1568.97 Q989.76 1568.97 986.641 1568.39 Q983.554 1567.85 980.116 1566.74 L980.116 1560.69 Q983.363 1562.38 986.514 1563.24 Q989.665 1564.07 992.752 1564.07 Q996.89 1564.07 999.118 1562.66 Q1001.35 1561.23 1001.35 1558.65 Q1001.35 1556.27 999.723 1554.99 Q998.131 1553.72 992.689 1552.54 L990.652 1552.07 Q985.209 1550.92 982.79 1548.56 Q980.371 1546.18 980.371 1542.04 Q980.371 1537.01 983.936 1534.27 Q987.5 1531.54 994.057 1531.54 Q997.304 1531.54 1000.17 1532.01 Q1003.03 1532.49 1005.45 1533.45 Z" fill="#000000" fill-rule="nonzero" fill-opacity="1" /><path clip-path="url(#clip160)" d="M1022.48 1522.27 L1022.48 1532.4 L1034.54 1532.4 L1034.54 1536.95 L1022.48 1536.95 L1022.48 1556.3 Q1022.48 1560.66 1023.66 1561.9 Q1024.87 1563.14 1028.53 1563.14 L1034.54 1563.14 L1034.54 1568.04 L1028.53 1568.04 Q1021.75 1568.04 1019.17 1565.53 Q1016.59 1562.98 1016.59 1556.3 L1016.59 1536.95 L1012.29 1536.95 L1012.29 1532.4 L1016.59 1532.4 L1016.59 1522.27 L1022.48 1522.27 Z" fill="#000000" fill-rule="nonzero" fill-opacity="1" /><path clip-path="url(#clip160)" d="M1091.71 1522.08 L1091.71 1528.35 Q1088.05 1526.6 1084.8 1525.74 Q1081.55 1524.88 1078.53 1524.88 Q1073.28 1524.88 1070.41 1526.92 Q1067.58 1528.96 1067.58 1532.71 Q1067.58 1535.87 1069.46 1537.49 Q1071.37 1539.08 1076.65 1540.07 L1080.54 1540.86 Q1087.73 1542.23 1091.13 1545.7 Q1094.57 1549.14 1094.57 1554.93 Q1094.57 1561.84 1089.92 1565.4 Q1085.31 1568.97 1076.37 1568.97 Q1072.99 1568.97 1069.17 1568.2 Q1065.38 1567.44 1061.31 1565.94 L1061.31 1559.32 Q1065.23 1561.52 1068.98 1562.63 Q1072.74 1563.75 1076.37 1563.75 Q1081.87 1563.75 1084.86 1561.58 Q1087.86 1559.42 1087.86 1555.41 Q1087.86 1551.91 1085.69 1549.93 Q1083.56 1547.96 1078.66 1546.97 L1074.74 1546.21 Q1067.55 1544.78 1064.33 1541.72 Q1061.12 1538.67 1061.12 1533.22 Q1061.12 1526.92 1065.54 1523.29 Q1070 1519.66 1077.8 1519.66 Q1081.14 1519.66 1084.61 1520.27 Q1088.08 1520.87 1091.71 1522.08 Z" fill="#000000" fill-rule="nonzero" fill-opacity="1" /><path clip-path="url(#clip160)" d="M1104.34 1532.4 L1110.2 1532.4 L1110.2 1568.04 L1104.34 1568.04 L1104.34 1532.4 M1104.34 1518.52 L1110.2 1518.52 L1110.2 1525.93 L1104.34 1525.93 L1104.34 1518.52 Z" fill="#000000" fill-rule="nonzero" fill-opacity="1" /><path clip-path="url(#clip160)" d="M1152.09 1546.53 L1152.09 1568.04 L1146.23 1568.04 L1146.23 1546.72 Q1146.23 1541.66 1144.26 1539.14 Q1142.28 1536.63 1138.34 1536.63 Q1133.59 1536.63 1130.86 1539.65 Q1128.12 1542.68 1128.12 1547.9 L1128.12 1568.04 L1122.23 1568.04 L1122.23 1532.4 L1128.12 1532.4 L1128.12 1537.93 Q1130.22 1534.72 1133.05 1533.13 Q1135.92 1531.54 1139.64 1531.54 Q1145.78 1531.54 1148.93 1535.36 Q1152.09 1539.14 1152.09 1546.53 Z" fill="#000000" fill-rule="nonzero" fill-opacity="1" /><path clip-path="url(#clip160)" d="M1187.22 1549.81 Q1187.22 1543.44 1184.58 1539.94 Q1181.97 1536.44 1177.23 1536.44 Q1172.52 1536.44 1169.88 1539.94 Q1167.27 1543.44 1167.27 1549.81 Q1167.27 1556.14 1169.88 1559.64 Q1172.52 1563.14 1177.23 1563.14 Q1181.97 1563.14 1184.58 1559.64 Q1187.22 1556.14 1187.22 1549.81 M1193.08 1563.62 Q1193.08 1572.72 1189.04 1577.15 Q1185 1581.6 1176.66 1581.6 Q1173.57 1581.6 1170.83 1581.13 Q1168.1 1580.68 1165.52 1579.72 L1165.52 1574.03 Q1168.1 1575.43 1170.61 1576.1 Q1173.12 1576.76 1175.73 1576.76 Q1181.5 1576.76 1184.36 1573.74 Q1187.22 1570.75 1187.22 1564.67 L1187.22 1561.77 Q1185.41 1564.92 1182.58 1566.48 Q1179.74 1568.04 1175.8 1568.04 Q1169.24 1568.04 1165.23 1563.05 Q1161.22 1558.05 1161.22 1549.81 Q1161.22 1541.53 1165.23 1536.53 Q1169.24 1531.54 1175.8 1531.54 Q1179.74 1531.54 1182.58 1533.1 Q1185.41 1534.66 1187.22 1537.81 L1187.22 1532.4 L1193.08 1532.4 L1193.08 1563.62 Z" fill="#000000" fill-rule="nonzero" fill-opacity="1" /><path clip-path="url(#clip160)" d="M1204.54 1553.98 L1204.54 1532.4 L1210.4 1532.4 L1210.4 1553.75 Q1210.4 1558.81 1212.37 1561.36 Q1214.34 1563.87 1218.29 1563.87 Q1223.03 1563.87 1225.77 1560.85 Q1228.54 1557.83 1228.54 1552.61 L1228.54 1532.4 L1234.39 1532.4 L1234.39 1568.04 L1228.54 1568.04 L1228.54 1562.57 Q1226.41 1565.82 1223.57 1567.41 Q1220.77 1568.97 1217.05 1568.97 Q1210.9 1568.97 1207.72 1565.15 Q1204.54 1561.33 1204.54 1553.98 M1219.28 1531.54 L1219.28 1531.54 Z" fill="#000000" fill-rule="nonzero" fill-opacity="1" /><path clip-path="url(#clip160)" d="M1246.46 1518.52 L1252.31 1518.52 L1252.31 1568.04 L1246.46 1568.04 L1246.46 1518.52 Z" fill="#000000" fill-rule="nonzero" fill-opacity="1" /><path clip-path="url(#clip160)" d="M1280.77 1550.12 Q1273.67 1550.12 1270.93 1551.75 Q1268.2 1553.37 1268.2 1557.29 Q1268.2 1560.4 1270.23 1562.25 Q1272.3 1564.07 1275.84 1564.07 Q1280.7 1564.07 1283.63 1560.63 Q1286.59 1557.16 1286.59 1551.43 L1286.59 1550.12 L1280.77 1550.12 M1292.45 1547.71 L1292.45 1568.04 L1286.59 1568.04 L1286.59 1562.63 Q1284.59 1565.88 1281.6 1567.44 Q1278.6 1568.97 1274.28 1568.97 Q1268.8 1568.97 1265.55 1565.91 Q1262.34 1562.82 1262.34 1557.67 Q1262.34 1551.65 1266.35 1548.6 Q1270.39 1545.54 1278.38 1545.54 L1286.59 1545.54 L1286.59 1544.97 Q1286.59 1540.93 1283.92 1538.73 Q1281.28 1536.5 1276.47 1536.5 Q1273.42 1536.5 1270.52 1537.23 Q1267.62 1537.97 1264.95 1539.43 L1264.95 1534.02 Q1268.16 1532.78 1271.19 1532.17 Q1274.21 1531.54 1277.08 1531.54 Q1284.81 1531.54 1288.63 1535.55 Q1292.45 1539.56 1292.45 1547.71 Z" fill="#000000" fill-rule="nonzero" fill-opacity="1" /><path clip-path="url(#clip160)" d="M1325.17 1537.87 Q1324.18 1537.3 1323.01 1537.04 Q1321.86 1536.76 1320.46 1536.76 Q1315.49 1536.76 1312.82 1540 Q1310.18 1543.22 1310.18 1549.27 L1310.18 1568.04 L1304.29 1568.04 L1304.29 1532.4 L1310.18 1532.4 L1310.18 1537.93 Q1312.02 1534.69 1314.98 1533.13 Q1317.94 1531.54 1322.18 1531.54 Q1322.78 1531.54 1323.51 1531.63 Q1324.25 1531.7 1325.14 1531.85 L1325.17 1537.87 Z" fill="#000000" fill-rule="nonzero" fill-opacity="1" /><path clip-path="url(#clip160)" d="M1347.83 1532.4 L1354.04 1532.4 L1365.18 1562.31 L1376.32 1532.4 L1382.52 1532.4 L1369.16 1568.04 L1361.2 1568.04 L1347.83 1532.4 Z" fill="#000000" fill-rule="nonzero" fill-opacity="1" /><path clip-path="url(#clip160)" d="M1406.81 1550.12 Q1399.71 1550.12 1396.97 1551.75 Q1394.24 1553.37 1394.24 1557.29 Q1394.24 1560.4 1396.27 1562.25 Q1398.34 1564.07 1401.88 1564.07 Q1406.75 1564.07 1409.67 1560.63 Q1412.63 1557.16 1412.63 1551.43 L1412.63 1550.12 L1406.81 1550.12 M1418.49 1547.71 L1418.49 1568.04 L1412.63 1568.04 L1412.63 1562.63 Q1410.63 1565.88 1407.64 1567.44 Q1404.65 1568.97 1400.32 1568.97 Q1394.84 1568.97 1391.6 1565.91 Q1388.38 1562.82 1388.38 1557.67 Q1388.38 1551.65 1392.39 1548.6 Q1396.43 1545.54 1404.42 1545.54 L1412.63 1545.54 L1412.63 1544.97 Q1412.63 1540.93 1409.96 1538.73 Q1407.32 1536.5 1402.51 1536.5 Q1399.46 1536.5 1396.56 1537.23 Q1393.66 1537.97 1390.99 1539.43 L1390.99 1534.02 Q1394.21 1532.78 1397.23 1532.17 Q1400.25 1531.54 1403.12 1531.54 Q1410.85 1531.54 1414.67 1535.55 Q1418.49 1539.56 1418.49 1547.71 Z" fill="#000000" fill-rule="nonzero" fill-opacity="1" /><path clip-path="url(#clip160)" d="M1430.55 1518.52 L1436.41 1518.52 L1436.41 1568.04 L1430.55 1568.04 L1430.55 1518.52 Z" fill="#000000" fill-rule="nonzero" fill-opacity="1" /><path clip-path="url(#clip160)" d="M1448.06 1553.98 L1448.06 1532.4 L1453.92 1532.4 L1453.92 1553.75 Q1453.92 1558.81 1455.89 1561.36 Q1457.86 1563.87 1461.81 1563.87 Q1466.55 1563.87 1469.29 1560.85 Q1472.06 1557.83 1472.06 1552.61 L1472.06 1532.4 L1477.91 1532.4 L1477.91 1568.04 L1472.06 1568.04 L1472.06 1562.57 Q1469.93 1565.82 1467.09 1567.41 Q1464.29 1568.97 1460.57 1568.97 Q1454.43 1568.97 1451.24 1565.15 Q1448.06 1561.33 1448.06 1553.98 M1462.8 1531.54 L1462.8 1531.54 Z" fill="#000000" fill-rule="nonzero" fill-opacity="1" /><path clip-path="url(#clip160)" d="M1520.47 1548.76 L1520.47 1551.62 L1493.54 1551.62 Q1493.92 1557.67 1497.17 1560.85 Q1500.45 1564 1506.27 1564 Q1509.65 1564 1512.8 1563.17 Q1515.98 1562.35 1519.1 1560.69 L1519.1 1566.23 Q1515.95 1567.57 1512.64 1568.27 Q1509.33 1568.97 1505.92 1568.97 Q1497.39 1568.97 1492.4 1564 Q1487.43 1559.04 1487.43 1550.57 Q1487.43 1541.82 1492.14 1536.69 Q1496.88 1531.54 1504.91 1531.54 Q1512.1 1531.54 1516.27 1536.18 Q1520.47 1540.8 1520.47 1548.76 M1514.61 1547.04 Q1514.55 1542.23 1511.91 1539.37 Q1509.3 1536.5 1504.97 1536.5 Q1500.07 1536.5 1497.11 1539.27 Q1494.18 1542.04 1493.73 1547.07 L1514.61 1547.04 Z" fill="#000000" fill-rule="nonzero" fill-opacity="1" /><path clip-path="url(#clip160)" d="M1564.87 1518.58 Q1560.61 1525.9 1558.54 1533.06 Q1556.47 1540.23 1556.47 1547.58 Q1556.47 1554.93 1558.54 1562.16 Q1560.64 1569.35 1564.87 1576.64 L1559.78 1576.64 Q1555 1569.16 1552.62 1561.93 Q1550.26 1554.71 1550.26 1547.58 Q1550.26 1540.48 1552.62 1533.29 Q1554.97 1526.09 1559.78 1518.58 L1564.87 1518.58 Z" fill="#000000" fill-rule="nonzero" fill-opacity="1" /><path clip-path="url(#clip160)" d="M1590.81 1545.48 Q1586.23 1545.48 1583.59 1547.93 Q1580.98 1550.38 1580.98 1554.68 Q1580.98 1558.97 1583.59 1561.42 Q1586.23 1563.87 1590.81 1563.87 Q1595.39 1563.87 1598.04 1561.42 Q1600.68 1558.94 1600.68 1554.68 Q1600.68 1550.38 1598.04 1547.93 Q1595.43 1545.48 1590.81 1545.48 M1584.38 1542.74 Q1580.24 1541.72 1577.92 1538.89 Q1575.63 1536.06 1575.63 1531.98 Q1575.63 1526.28 1579.67 1522.97 Q1583.74 1519.66 1590.81 1519.66 Q1597.91 1519.66 1601.95 1522.97 Q1605.99 1526.28 1605.99 1531.98 Q1605.99 1536.06 1603.67 1538.89 Q1601.38 1541.72 1597.27 1542.74 Q1601.92 1543.82 1604.5 1546.97 Q1607.11 1550.12 1607.11 1554.68 Q1607.11 1561.58 1602.87 1565.27 Q1598.67 1568.97 1590.81 1568.97 Q1582.95 1568.97 1578.72 1565.27 Q1574.51 1561.58 1574.51 1554.68 Q1574.51 1550.12 1577.12 1546.97 Q1579.73 1543.82 1584.38 1542.74 M1582.03 1532.59 Q1582.03 1536.28 1584.32 1538.35 Q1586.64 1540.42 1590.81 1540.42 Q1594.95 1540.42 1597.27 1538.35 Q1599.63 1536.28 1599.63 1532.59 Q1599.63 1528.89 1597.27 1526.83 Q1594.95 1524.76 1590.81 1524.76 Q1586.64 1524.76 1584.32 1526.83 Q1582.03 1528.89 1582.03 1532.59 Z" fill="#000000" fill-rule="nonzero" fill-opacity="1" /><path clip-path="url(#clip160)" d="M1619.65 1562.63 L1630.15 1562.63 L1630.15 1526.38 L1618.72 1528.67 L1618.72 1522.82 L1630.09 1520.52 L1636.52 1520.52 L1636.52 1562.63 L1647.02 1562.63 L1647.02 1568.04 L1619.65 1568.04 L1619.65 1562.63 Z" fill="#000000" fill-rule="nonzero" fill-opacity="1" /><path clip-path="url(#clip160)" d="M1700.43 1547.13 Q1697.66 1547.13 1696.07 1549.49 Q1694.51 1551.84 1694.51 1556.04 Q1694.51 1560.18 1696.07 1562.57 Q1697.66 1564.92 1700.43 1564.92 Q1703.13 1564.92 1704.69 1562.57 Q1706.28 1560.18 1706.28 1556.04 Q1706.28 1551.87 1704.69 1549.52 Q1703.13 1547.13 1700.43 1547.13 M1700.43 1543.09 Q1705.46 1543.09 1708.42 1546.59 Q1711.38 1550.09 1711.38 1556.04 Q1711.38 1562 1708.38 1565.5 Q1705.42 1568.97 1700.43 1568.97 Q1695.34 1568.97 1692.38 1565.5 Q1689.42 1562 1689.42 1556.04 Q1689.42 1550.06 1692.38 1546.59 Q1695.37 1543.09 1700.43 1543.09 M1667.58 1523.71 Q1664.84 1523.71 1663.25 1526.09 Q1661.69 1528.45 1661.69 1532.59 Q1661.69 1536.79 1663.25 1539.14 Q1664.81 1541.5 1667.58 1541.5 Q1670.35 1541.5 1671.91 1539.14 Q1673.5 1536.79 1673.5 1532.59 Q1673.5 1528.48 1671.91 1526.09 Q1670.32 1523.71 1667.58 1523.71 M1696.32 1519.66 L1701.41 1519.66 L1671.69 1568.97 L1666.59 1568.97 L1696.32 1519.66 M1667.58 1519.66 Q1672.61 1519.66 1675.6 1523.17 Q1678.59 1526.63 1678.59 1532.59 Q1678.59 1538.6 1675.6 1542.07 Q1672.64 1545.54 1667.58 1545.54 Q1662.52 1545.54 1659.56 1542.07 Q1656.63 1538.57 1656.63 1532.59 Q1656.63 1526.67 1659.59 1523.17 Q1662.55 1519.66 1667.58 1519.66 Z" fill="#000000" fill-rule="nonzero" fill-opacity="1" /><path clip-path="url(#clip160)" d="M1720.19 1518.58 L1725.29 1518.58 Q1730.06 1526.09 1732.42 1533.29 Q1734.8 1540.48 1734.8 1547.58 Q1734.8 1554.71 1732.42 1561.93 Q1730.06 1569.16 1725.29 1576.64 L1720.19 1576.64 Q1724.43 1569.35 1726.5 1562.16 Q1728.6 1554.93 1728.6 1547.58 Q1728.6 1540.23 1726.5 1533.06 Q1724.43 1525.9 1720.19 1518.58 Z" fill="#000000" fill-rule="nonzero" fill-opacity="1" /><polyline clip-path="url(#clip162)" style="stroke:#000000; stroke-linecap:round; stroke-linejoin:round; stroke-width:2; stroke-opacity:0.1; fill:none" points="287.366,1307.59 2352.76,1307.59 "/>
<polyline clip-path="url(#clip162)" style="stroke:#000000; stroke-linecap:round; stroke-linejoin:round; stroke-width:2; stroke-opacity:0.1; fill:none" points="287.366,1076.43 2352.76,1076.43 "/>
<polyline clip-path="url(#clip162)" style="stroke:#000000; stroke-linecap:round; stroke-linejoin:round; stroke-width:2; stroke-opacity:0.1; fill:none" points="287.366,845.259 2352.76,845.259 "/>
<polyline clip-path="url(#clip162)" style="stroke:#000000; stroke-linecap:round; stroke-linejoin:round; stroke-width:2; stroke-opacity:0.1; fill:none" points="287.366,614.092 2352.76,614.092 "/>
<polyline clip-path="url(#clip162)" style="stroke:#000000; stroke-linecap:round; stroke-linejoin:round; stroke-width:2; stroke-opacity:0.1; fill:none" points="287.366,382.925 2352.76,382.925 "/>
<polyline clip-path="url(#clip162)" style="stroke:#000000; stroke-linecap:round; stroke-linejoin:round; stroke-width:2; stroke-opacity:0.1; fill:none" points="287.366,151.759 2352.76,151.759 "/>
<polyline clip-path="url(#clip160)" style="stroke:#000000; stroke-linecap:round; stroke-linejoin:round; stroke-width:4; stroke-opacity:1; fill:none" points="287.366,1423.18 287.366,47.2441 "/>
<polyline clip-path="url(#clip160)" style="stroke:#000000; stroke-linecap:round; stroke-linejoin:round; stroke-width:4; stroke-opacity:1; fill:none" points="287.366,1307.59 306.264,1307.59 "/>
<polyline clip-path="url(#clip160)" style="stroke:#000000; stroke-linecap:round; stroke-linejoin:round; stroke-width:4; stroke-opacity:1; fill:none" points="287.366,1076.43 306.264,1076.43 "/>
<polyline clip-path="url(#clip160)" style="stroke:#000000; stroke-linecap:round; stroke-linejoin:round; stroke-width:4; stroke-opacity:1; fill:none" points="287.366,845.259 306.264,845.259 "/>
<polyline clip-path="url(#clip160)" style="stroke:#000000; stroke-linecap:round; stroke-linejoin:round; stroke-width:4; stroke-opacity:1; fill:none" points="287.366,614.092 306.264,614.092 "/>
<polyline clip-path="url(#clip160)" style="stroke:#000000; stroke-linecap:round; stroke-linejoin:round; stroke-width:4; stroke-opacity:1; fill:none" points="287.366,382.925 306.264,382.925 "/>
<polyline clip-path="url(#clip160)" style="stroke:#000000; stroke-linecap:round; stroke-linejoin:round; stroke-width:4; stroke-opacity:1; fill:none" points="287.366,151.759 306.264,151.759 "/>
<path clip-path="url(#clip160)" d="M114.26 1308.04 L143.936 1308.04 L143.936 1311.98 L114.26 1311.98 L114.26 1308.04 Z" fill="#000000" fill-rule="nonzero" fill-opacity="1" /><path clip-path="url(#clip160)" d="M164.028 1293.39 Q160.417 1293.39 158.589 1296.96 Q156.783 1300.5 156.783 1307.63 Q156.783 1314.73 158.589 1318.3 Q160.417 1321.84 164.028 1321.84 Q167.663 1321.84 169.468 1318.3 Q171.297 1314.73 171.297 1307.63 Q171.297 1300.5 169.468 1296.96 Q167.663 1293.39 164.028 1293.39 M164.028 1289.69 Q169.839 1289.69 172.894 1294.29 Q175.973 1298.88 175.973 1307.63 Q175.973 1316.35 172.894 1320.96 Q169.839 1325.54 164.028 1325.54 Q158.218 1325.54 155.14 1320.96 Q152.084 1316.35 152.084 1307.63 Q152.084 1298.88 155.14 1294.29 Q158.218 1289.69 164.028 1289.69 Z" fill="#000000" fill-rule="nonzero" fill-opacity="1" /><path clip-path="url(#clip160)" d="M184.19 1318.99 L189.075 1318.99 L189.075 1324.87 L184.19 1324.87 L184.19 1318.99 Z" fill="#000000" fill-rule="nonzero" fill-opacity="1" /><path clip-path="url(#clip160)" d="M200.07 1320.94 L207.709 1320.94 L207.709 1294.57 L199.399 1296.24 L199.399 1291.98 L207.662 1290.31 L212.338 1290.31 L212.338 1320.94 L219.977 1320.94 L219.977 1324.87 L200.07 1324.87 L200.07 1320.94 Z" fill="#000000" fill-rule="nonzero" fill-opacity="1" /><path clip-path="url(#clip160)" d="M239.422 1293.39 Q235.81 1293.39 233.982 1296.96 Q232.176 1300.5 232.176 1307.63 Q232.176 1314.73 233.982 1318.3 Q235.81 1321.84 239.422 1321.84 Q243.056 1321.84 244.861 1318.3 Q246.69 1314.73 246.69 1307.63 Q246.69 1300.5 244.861 1296.96 Q243.056 1293.39 239.422 1293.39 M239.422 1289.69 Q245.232 1289.69 248.287 1294.29 Q251.366 1298.88 251.366 1307.63 Q251.366 1316.35 248.287 1320.96 Q245.232 1325.54 239.422 1325.54 Q233.611 1325.54 230.533 1320.96 Q227.477 1316.35 227.477 1307.63 Q227.477 1298.88 230.533 1294.29 Q233.611 1289.69 239.422 1289.69 Z" fill="#000000" fill-rule="nonzero" fill-opacity="1" /><path clip-path="url(#clip160)" d="M115.256 1076.88 L144.931 1076.88 L144.931 1080.81 L115.256 1080.81 L115.256 1076.88 Z" fill="#000000" fill-rule="nonzero" fill-opacity="1" /><path clip-path="url(#clip160)" d="M165.024 1062.22 Q161.413 1062.22 159.584 1065.79 Q157.778 1069.33 157.778 1076.46 Q157.778 1083.57 159.584 1087.13 Q161.413 1090.67 165.024 1090.67 Q168.658 1090.67 170.464 1087.13 Q172.292 1083.57 172.292 1076.46 Q172.292 1069.33 170.464 1065.79 Q168.658 1062.22 165.024 1062.22 M165.024 1058.52 Q170.834 1058.52 173.889 1063.13 Q176.968 1067.71 176.968 1076.46 Q176.968 1085.19 173.889 1089.79 Q170.834 1094.38 165.024 1094.38 Q159.214 1094.38 156.135 1089.79 Q153.079 1085.19 153.079 1076.46 Q153.079 1067.71 156.135 1063.13 Q159.214 1058.52 165.024 1058.52 Z" fill="#000000" fill-rule="nonzero" fill-opacity="1" /><path clip-path="url(#clip160)" d="M185.186 1087.83 L190.07 1087.83 L190.07 1093.71 L185.186 1093.71 L185.186 1087.83 Z" fill="#000000" fill-rule="nonzero" fill-opacity="1" /><path clip-path="url(#clip160)" d="M210.255 1062.22 Q206.644 1062.22 204.815 1065.79 Q203.01 1069.33 203.01 1076.46 Q203.01 1083.57 204.815 1087.13 Q206.644 1090.67 210.255 1090.67 Q213.889 1090.67 215.695 1087.13 Q217.523 1083.57 217.523 1076.46 Q217.523 1069.33 215.695 1065.79 Q213.889 1062.22 210.255 1062.22 M210.255 1058.52 Q216.065 1058.52 219.121 1063.13 Q222.199 1067.71 222.199 1076.46 Q222.199 1085.19 219.121 1089.79 Q216.065 1094.38 210.255 1094.38 Q204.445 1094.38 201.366 1089.79 Q198.311 1085.19 198.311 1076.46 Q198.311 1067.71 201.366 1063.13 Q204.445 1058.52 210.255 1058.52 Z" fill="#000000" fill-rule="nonzero" fill-opacity="1" /><path clip-path="url(#clip160)" d="M230.463 1059.15 L248.82 1059.15 L248.82 1063.08 L234.746 1063.08 L234.746 1071.55 Q235.764 1071.21 236.783 1071.04 Q237.801 1070.86 238.82 1070.86 Q244.607 1070.86 247.986 1074.03 Q251.366 1077.2 251.366 1082.62 Q251.366 1088.2 247.894 1091.3 Q244.421 1094.38 238.102 1094.38 Q235.926 1094.38 233.658 1094.01 Q231.412 1093.64 229.005 1092.9 L229.005 1088.2 Q231.088 1089.33 233.31 1089.89 Q235.533 1090.44 238.009 1090.44 Q242.014 1090.44 244.352 1088.34 Q246.69 1086.23 246.69 1082.62 Q246.69 1079.01 244.352 1076.9 Q242.014 1074.79 238.009 1074.79 Q236.135 1074.79 234.26 1075.21 Q232.408 1075.63 230.463 1076.51 L230.463 1059.15 Z" fill="#000000" fill-rule="nonzero" fill-opacity="1" /><path clip-path="url(#clip160)" d="M164.028 831.058 Q160.417 831.058 158.589 834.623 Q156.783 838.164 156.783 845.294 Q156.783 852.4 158.589 855.965 Q160.417 859.507 164.028 859.507 Q167.663 859.507 169.468 855.965 Q171.297 852.4 171.297 845.294 Q171.297 838.164 169.468 834.623 Q167.663 831.058 164.028 831.058 M164.028 827.354 Q169.839 827.354 172.894 831.96 Q175.973 836.544 175.973 845.294 Q175.973 854.021 172.894 858.627 Q169.839 863.21 164.028 863.21 Q158.218 863.21 155.14 858.627 Q152.084 854.021 152.084 845.294 Q152.084 836.544 155.14 831.96 Q158.218 827.354 164.028 827.354 Z" fill="#000000" fill-rule="nonzero" fill-opacity="1" /><path clip-path="url(#clip160)" d="M184.19 856.659 L189.075 856.659 L189.075 862.539 L184.19 862.539 L184.19 856.659 Z" fill="#000000" fill-rule="nonzero" fill-opacity="1" /><path clip-path="url(#clip160)" d="M209.26 831.058 Q205.649 831.058 203.82 834.623 Q202.014 838.164 202.014 845.294 Q202.014 852.4 203.82 855.965 Q205.649 859.507 209.26 859.507 Q212.894 859.507 214.699 855.965 Q216.528 852.4 216.528 845.294 Q216.528 838.164 214.699 834.623 Q212.894 831.058 209.26 831.058 M209.26 827.354 Q215.07 827.354 218.125 831.96 Q221.204 836.544 221.204 845.294 Q221.204 854.021 218.125 858.627 Q215.07 863.21 209.26 863.21 Q203.449 863.21 200.371 858.627 Q197.315 854.021 197.315 845.294 Q197.315 836.544 200.371 831.96 Q203.449 827.354 209.26 827.354 Z" fill="#000000" fill-rule="nonzero" fill-opacity="1" /><path clip-path="url(#clip160)" d="M239.422 831.058 Q235.81 831.058 233.982 834.623 Q232.176 838.164 232.176 845.294 Q232.176 852.4 233.982 855.965 Q235.81 859.507 239.422 859.507 Q243.056 859.507 244.861 855.965 Q246.69 852.4 246.69 845.294 Q246.69 838.164 244.861 834.623 Q243.056 831.058 239.422 831.058 M239.422 827.354 Q245.232 827.354 248.287 831.96 Q251.366 836.544 251.366 845.294 Q251.366 854.021 248.287 858.627 Q245.232 863.21 239.422 863.21 Q233.611 863.21 230.533 858.627 Q227.477 854.021 227.477 845.294 Q227.477 836.544 230.533 831.96 Q233.611 827.354 239.422 827.354 Z" fill="#000000" fill-rule="nonzero" fill-opacity="1" /><path clip-path="url(#clip160)" d="M165.024 599.891 Q161.413 599.891 159.584 603.456 Q157.778 606.997 157.778 614.127 Q157.778 621.233 159.584 624.798 Q161.413 628.34 165.024 628.34 Q168.658 628.34 170.464 624.798 Q172.292 621.233 172.292 614.127 Q172.292 606.997 170.464 603.456 Q168.658 599.891 165.024 599.891 M165.024 596.187 Q170.834 596.187 173.889 600.794 Q176.968 605.377 176.968 614.127 Q176.968 622.854 173.889 627.46 Q170.834 632.044 165.024 632.044 Q159.214 632.044 156.135 627.46 Q153.079 622.854 153.079 614.127 Q153.079 605.377 156.135 600.794 Q159.214 596.187 165.024 596.187 Z" fill="#000000" fill-rule="nonzero" fill-opacity="1" /><path clip-path="url(#clip160)" d="M185.186 625.493 L190.07 625.493 L190.07 631.372 L185.186 631.372 L185.186 625.493 Z" fill="#000000" fill-rule="nonzero" fill-opacity="1" /><path clip-path="url(#clip160)" d="M210.255 599.891 Q206.644 599.891 204.815 603.456 Q203.01 606.997 203.01 614.127 Q203.01 621.233 204.815 624.798 Q206.644 628.34 210.255 628.34 Q213.889 628.34 215.695 624.798 Q217.523 621.233 217.523 614.127 Q217.523 606.997 215.695 603.456 Q213.889 599.891 210.255 599.891 M210.255 596.187 Q216.065 596.187 219.121 600.794 Q222.199 605.377 222.199 614.127 Q222.199 622.854 219.121 627.46 Q216.065 632.044 210.255 632.044 Q204.445 632.044 201.366 627.46 Q198.311 622.854 198.311 614.127 Q198.311 605.377 201.366 600.794 Q204.445 596.187 210.255 596.187 Z" fill="#000000" fill-rule="nonzero" fill-opacity="1" /><path clip-path="url(#clip160)" d="M230.463 596.812 L248.82 596.812 L248.82 600.747 L234.746 600.747 L234.746 609.22 Q235.764 608.872 236.783 608.71 Q237.801 608.525 238.82 608.525 Q244.607 608.525 247.986 611.696 Q251.366 614.868 251.366 620.284 Q251.366 625.863 247.894 628.965 Q244.421 632.044 238.102 632.044 Q235.926 632.044 233.658 631.673 Q231.412 631.303 229.005 630.562 L229.005 625.863 Q231.088 626.997 233.31 627.553 Q235.533 628.108 238.009 628.108 Q242.014 628.108 244.352 626.002 Q246.69 623.895 246.69 620.284 Q246.69 616.673 244.352 614.567 Q242.014 612.46 238.009 612.46 Q236.135 612.46 234.26 612.877 Q232.408 613.294 230.463 614.173 L230.463 596.812 Z" fill="#000000" fill-rule="nonzero" fill-opacity="1" /><path clip-path="url(#clip160)" d="M164.028 368.724 Q160.417 368.724 158.589 372.289 Q156.783 375.831 156.783 382.96 Q156.783 390.067 158.589 393.631 Q160.417 397.173 164.028 397.173 Q167.663 397.173 169.468 393.631 Q171.297 390.067 171.297 382.96 Q171.297 375.831 169.468 372.289 Q167.663 368.724 164.028 368.724 M164.028 365.02 Q169.839 365.02 172.894 369.627 Q175.973 374.21 175.973 382.96 Q175.973 391.687 172.894 396.293 Q169.839 400.877 164.028 400.877 Q158.218 400.877 155.14 396.293 Q152.084 391.687 152.084 382.96 Q152.084 374.21 155.14 369.627 Q158.218 365.02 164.028 365.02 Z" fill="#000000" fill-rule="nonzero" fill-opacity="1" /><path clip-path="url(#clip160)" d="M184.19 394.326 L189.075 394.326 L189.075 400.205 L184.19 400.205 L184.19 394.326 Z" fill="#000000" fill-rule="nonzero" fill-opacity="1" /><path clip-path="url(#clip160)" d="M200.07 396.27 L207.709 396.27 L207.709 369.905 L199.399 371.571 L199.399 367.312 L207.662 365.645 L212.338 365.645 L212.338 396.27 L219.977 396.27 L219.977 400.205 L200.07 400.205 L200.07 396.27 Z" fill="#000000" fill-rule="nonzero" fill-opacity="1" /><path clip-path="url(#clip160)" d="M239.422 368.724 Q235.81 368.724 233.982 372.289 Q232.176 375.831 232.176 382.96 Q232.176 390.067 233.982 393.631 Q235.81 397.173 239.422 397.173 Q243.056 397.173 244.861 393.631 Q246.69 390.067 246.69 382.96 Q246.69 375.831 244.861 372.289 Q243.056 368.724 239.422 368.724 M239.422 365.02 Q245.232 365.02 248.287 369.627 Q251.366 374.21 251.366 382.96 Q251.366 391.687 248.287 396.293 Q245.232 400.877 239.422 400.877 Q233.611 400.877 230.533 396.293 Q227.477 391.687 227.477 382.96 Q227.477 374.21 230.533 369.627 Q233.611 365.02 239.422 365.02 Z" fill="#000000" fill-rule="nonzero" fill-opacity="1" /><path clip-path="url(#clip160)" d="M165.024 137.557 Q161.413 137.557 159.584 141.122 Q157.778 144.664 157.778 151.793 Q157.778 158.9 159.584 162.465 Q161.413 166.006 165.024 166.006 Q168.658 166.006 170.464 162.465 Q172.292 158.9 172.292 151.793 Q172.292 144.664 170.464 141.122 Q168.658 137.557 165.024 137.557 M165.024 133.854 Q170.834 133.854 173.889 138.46 Q176.968 143.043 176.968 151.793 Q176.968 160.52 173.889 165.127 Q170.834 169.71 165.024 169.71 Q159.214 169.71 156.135 165.127 Q153.079 160.52 153.079 151.793 Q153.079 143.043 156.135 138.46 Q159.214 133.854 165.024 133.854 Z" fill="#000000" fill-rule="nonzero" fill-opacity="1" /><path clip-path="url(#clip160)" d="M185.186 163.159 L190.07 163.159 L190.07 169.039 L185.186 169.039 L185.186 163.159 Z" fill="#000000" fill-rule="nonzero" fill-opacity="1" /><path clip-path="url(#clip160)" d="M201.065 165.104 L208.704 165.104 L208.704 138.738 L200.394 140.405 L200.394 136.145 L208.658 134.479 L213.334 134.479 L213.334 165.104 L220.973 165.104 L220.973 169.039 L201.065 169.039 L201.065 165.104 Z" fill="#000000" fill-rule="nonzero" fill-opacity="1" /><path clip-path="url(#clip160)" d="M230.463 134.479 L248.82 134.479 L248.82 138.414 L234.746 138.414 L234.746 146.886 Q235.764 146.539 236.783 146.377 Q237.801 146.192 238.82 146.192 Q244.607 146.192 247.986 149.363 Q251.366 152.534 251.366 157.951 Q251.366 163.529 247.894 166.631 Q244.421 169.71 238.102 169.71 Q235.926 169.71 233.658 169.34 Q231.412 168.969 229.005 168.229 L229.005 163.529 Q231.088 164.664 233.31 165.219 Q235.533 165.775 238.009 165.775 Q242.014 165.775 244.352 163.668 Q246.69 161.562 246.69 157.951 Q246.69 154.34 244.352 152.233 Q242.014 150.127 238.009 150.127 Q236.135 150.127 234.26 150.543 Q232.408 150.96 230.463 151.84 L230.463 134.479 Z" fill="#000000" fill-rule="nonzero" fill-opacity="1" /><path clip-path="url(#clip160)" d="M18.0438 1171.77 L24.314 1171.77 Q22.5634 1175.43 21.704 1178.68 Q20.8447 1181.93 20.8447 1184.95 Q20.8447 1190.2 22.8817 1193.07 Q24.9187 1195.9 28.6745 1195.9 Q31.8255 1195.9 33.4488 1194.02 Q35.0402 1192.11 36.0269 1186.83 L36.8226 1182.94 Q38.1912 1175.75 41.6605 1172.35 Q45.098 1168.91 50.8908 1168.91 Q57.7976 1168.91 61.3624 1173.55 Q64.9272 1178.17 64.9272 1187.11 Q64.9272 1190.49 64.1633 1194.31 Q63.3994 1198.09 61.9035 1202.17 L55.2831 1202.17 Q57.4793 1198.25 58.5933 1194.5 Q59.7073 1190.74 59.7073 1187.11 Q59.7073 1181.61 57.543 1178.62 Q55.3786 1175.62 51.3682 1175.62 Q47.8671 1175.62 45.8937 1177.79 Q43.9204 1179.92 42.9337 1184.82 L42.1698 1188.74 Q40.7375 1195.93 37.682 1199.14 Q34.6264 1202.36 29.1837 1202.36 Q22.8817 1202.36 19.2532 1197.94 Q15.6248 1193.48 15.6248 1185.68 Q15.6248 1182.34 16.2295 1178.87 Q16.8343 1175.4 18.0438 1171.77 Z" fill="#000000" fill-rule="nonzero" fill-opacity="1" /><path clip-path="url(#clip160)" d="M44.7161 1128.64 L47.5806 1128.64 L47.5806 1155.57 Q53.6281 1155.19 56.8109 1151.94 Q59.9619 1148.66 59.9619 1142.84 Q59.9619 1139.47 59.1344 1136.32 Q58.3069 1133.13 56.6518 1130.01 L62.1899 1130.01 Q63.5267 1133.16 64.227 1136.47 Q64.9272 1139.78 64.9272 1143.19 Q64.9272 1151.72 59.9619 1156.72 Q54.9967 1161.68 46.5303 1161.68 Q37.7774 1161.68 32.6531 1156.97 Q27.4968 1152.23 27.4968 1144.21 Q27.4968 1137.02 32.1438 1132.85 Q36.7589 1128.64 44.7161 1128.64 M42.9973 1134.5 Q38.1912 1134.56 35.3266 1137.21 Q32.4621 1139.82 32.4621 1144.14 Q32.4621 1149.05 35.2312 1152.01 Q38.0002 1154.93 43.0292 1155.38 L42.9973 1134.5 Z" fill="#000000" fill-rule="nonzero" fill-opacity="1" /><path clip-path="url(#clip160)" d="M29.7248 1093.38 L35.1993 1093.38 Q33.8307 1095.86 33.1623 1098.38 Q32.4621 1100.86 32.4621 1103.4 Q32.4621 1109.1 36.0905 1112.25 Q39.6872 1115.4 46.212 1115.4 Q52.7369 1115.4 56.3653 1112.25 Q59.9619 1109.1 59.9619 1103.4 Q59.9619 1100.86 59.2935 1098.38 Q58.5933 1095.86 57.2247 1093.38 L62.6355 1093.38 Q63.7814 1095.83 64.3543 1098.47 Q64.9272 1101.08 64.9272 1104.04 Q64.9272 1112.09 59.8664 1116.84 Q54.8057 1121.58 46.212 1121.58 Q37.491 1121.58 32.4939 1116.8 Q27.4968 1112 27.4968 1103.66 Q27.4968 1100.95 28.0697 1098.38 Q28.6108 1095.8 29.7248 1093.38 Z" fill="#000000" fill-rule="nonzero" fill-opacity="1" /><path clip-path="url(#clip160)" d="M32.4621 1069.38 Q32.4621 1074.09 36.1542 1076.83 Q39.8145 1079.56 46.212 1079.56 Q52.6095 1079.56 56.3017 1076.86 Q59.9619 1074.12 59.9619 1069.38 Q59.9619 1064.7 56.2698 1061.96 Q52.5777 1059.23 46.212 1059.23 Q39.8781 1059.23 36.186 1061.96 Q32.4621 1064.7 32.4621 1069.38 M27.4968 1069.38 Q27.4968 1061.74 32.4621 1057.38 Q37.4273 1053.02 46.212 1053.02 Q54.9649 1053.02 59.9619 1057.38 Q64.9272 1061.74 64.9272 1069.38 Q64.9272 1077.05 59.9619 1081.41 Q54.9649 1085.74 46.212 1085.74 Q37.4273 1085.74 32.4621 1081.41 Q27.4968 1077.05 27.4968 1069.38 Z" fill="#000000" fill-rule="nonzero" fill-opacity="1" /><path clip-path="url(#clip160)" d="M42.4881 1013.68 L64.0042 1013.68 L64.0042 1019.54 L42.679 1019.54 Q37.6183 1019.54 35.1038 1021.51 Q32.5894 1023.48 32.5894 1027.43 Q32.5894 1032.17 35.6131 1034.91 Q38.6368 1037.65 43.8567 1037.65 L64.0042 1037.65 L64.0042 1043.53 L28.3562 1043.53 L28.3562 1037.65 L33.8944 1037.65 Q30.6797 1035.55 29.0883 1032.71 Q27.4968 1029.85 27.4968 1026.12 Q27.4968 1019.98 31.3163 1016.83 Q35.1038 1013.68 42.4881 1013.68 Z" fill="#000000" fill-rule="nonzero" fill-opacity="1" /><path clip-path="url(#clip160)" d="M33.7671 978.541 L14.479 978.541 L14.479 972.685 L64.0042 972.685 L64.0042 978.541 L58.657 978.541 Q61.8398 980.387 63.3994 983.22 Q64.9272 986.021 64.9272 989.968 Q64.9272 996.429 59.771 1000.5 Q54.6147 1004.55 46.212 1004.55 Q37.8093 1004.55 32.6531 1000.5 Q27.4968 996.429 27.4968 989.968 Q27.4968 986.021 29.0564 983.22 Q30.5842 980.387 33.7671 978.541 M46.212 998.498 Q52.6732 998.498 56.3653 995.856 Q60.0256 993.182 60.0256 988.535 Q60.0256 983.888 56.3653 981.215 Q52.6732 978.541 46.212 978.541 Q39.7508 978.541 36.0905 981.215 Q32.3984 983.888 32.3984 988.535 Q32.3984 993.182 36.0905 995.856 Q39.7508 998.498 46.212 998.498 Z" fill="#000000" fill-rule="nonzero" fill-opacity="1" /><path clip-path="url(#clip160)" d="M18.0438 911.16 L24.314 911.16 Q22.5634 914.82 21.704 918.067 Q20.8447 921.313 20.8447 924.337 Q20.8447 929.589 22.8817 932.453 Q24.9187 935.286 28.6745 935.286 Q31.8255 935.286 33.4488 933.408 Q35.0402 931.499 36.0269 926.215 L36.8226 922.332 Q38.1912 915.139 41.6605 911.733 Q45.098 908.296 50.8908 908.296 Q57.7976 908.296 61.3624 912.942 Q64.9272 917.558 64.9272 926.501 Q64.9272 929.875 64.1633 933.695 Q63.3994 937.482 61.9035 941.556 L55.2831 941.556 Q57.4793 937.641 58.5933 933.886 Q59.7073 930.13 59.7073 926.501 Q59.7073 920.995 57.543 918.003 Q55.3786 915.011 51.3682 915.011 Q47.8671 915.011 45.8937 917.176 Q43.9204 919.308 42.9337 924.21 L42.1698 928.125 Q40.7375 935.318 37.682 938.533 Q34.6264 941.747 29.1837 941.747 Q22.8817 941.747 19.2532 937.323 Q15.6248 932.867 15.6248 925.069 Q15.6248 921.727 16.2295 918.258 Q16.8343 914.789 18.0438 911.16 Z" fill="#000000" fill-rule="nonzero" fill-opacity="1" /><path clip-path="url(#clip160)" d="M28.3562 898.524 L28.3562 892.668 L64.0042 892.668 L64.0042 898.524 L28.3562 898.524 M14.479 898.524 L14.479 892.668 L21.895 892.668 L21.895 898.524 L14.479 898.524 Z" fill="#000000" fill-rule="nonzero" fill-opacity="1" /><path clip-path="url(#clip160)" d="M42.4881 850.781 L64.0042 850.781 L64.0042 856.638 L42.679 856.638 Q37.6183 856.638 35.1038 858.611 Q32.5894 860.585 32.5894 864.531 Q32.5894 869.274 35.6131 872.011 Q38.6368 874.748 43.8567 874.748 L64.0042 874.748 L64.0042 880.637 L28.3562 880.637 L28.3562 874.748 L33.8944 874.748 Q30.6797 872.648 29.0883 869.815 Q27.4968 866.95 27.4968 863.226 Q27.4968 857.083 31.3163 853.932 Q35.1038 850.781 42.4881 850.781 Z" fill="#000000" fill-rule="nonzero" fill-opacity="1" /><path clip-path="url(#clip160)" d="M45.7664 815.643 Q39.4007 815.643 35.8996 818.284 Q32.3984 820.894 32.3984 825.637 Q32.3984 830.347 35.8996 832.989 Q39.4007 835.599 45.7664 835.599 Q52.1003 835.599 55.6014 832.989 Q59.1026 830.347 59.1026 825.637 Q59.1026 820.894 55.6014 818.284 Q52.1003 815.643 45.7664 815.643 M59.58 809.786 Q68.683 809.786 73.1071 813.828 Q77.5631 817.871 77.5631 826.21 Q77.5631 829.297 77.0857 832.034 Q76.6401 834.772 75.6852 837.35 L69.9879 837.35 Q71.3884 834.772 72.0568 832.257 Q72.7252 829.743 72.7252 827.133 Q72.7252 821.372 69.7015 818.507 Q66.7096 815.643 60.6303 815.643 L57.7339 815.643 Q60.885 817.457 62.4446 820.29 Q64.0042 823.122 64.0042 827.069 Q64.0042 833.626 59.0071 837.636 Q54.01 841.647 45.7664 841.647 Q37.491 841.647 32.4939 837.636 Q27.4968 833.626 27.4968 827.069 Q27.4968 823.122 29.0564 820.29 Q30.616 817.457 33.7671 815.643 L28.3562 815.643 L28.3562 809.786 L59.58 809.786 Z" fill="#000000" fill-rule="nonzero" fill-opacity="1" /><path clip-path="url(#clip160)" d="M49.9359 798.328 L28.3562 798.328 L28.3562 792.471 L49.7131 792.471 Q54.7739 792.471 57.3202 790.498 Q59.8346 788.525 59.8346 784.578 Q59.8346 779.836 56.8109 777.098 Q53.7872 774.329 48.5673 774.329 L28.3562 774.329 L28.3562 768.473 L64.0042 768.473 L64.0042 774.329 L58.5296 774.329 Q61.7762 776.462 63.3676 779.294 Q64.9272 782.095 64.9272 785.819 Q64.9272 791.962 61.1078 795.145 Q57.2883 798.328 49.9359 798.328 M27.4968 783.591 L27.4968 783.591 Z" fill="#000000" fill-rule="nonzero" fill-opacity="1" /><path clip-path="url(#clip160)" d="M14.479 756.41 L14.479 750.553 L64.0042 750.553 L64.0042 756.41 L14.479 756.41 Z" fill="#000000" fill-rule="nonzero" fill-opacity="1" /><path clip-path="url(#clip160)" d="M46.0847 722.099 Q46.0847 729.196 47.7079 731.934 Q49.3312 734.671 53.2461 734.671 Q56.3653 734.671 58.2114 732.634 Q60.0256 730.565 60.0256 727.032 Q60.0256 722.162 56.5881 719.234 Q53.1188 716.274 47.3897 716.274 L46.0847 716.274 L46.0847 722.099 M43.6657 710.418 L64.0042 710.418 L64.0042 716.274 L58.5933 716.274 Q61.8398 718.279 63.3994 721.271 Q64.9272 724.263 64.9272 728.592 Q64.9272 734.066 61.8716 737.313 Q58.7843 740.527 53.6281 740.527 Q47.6125 740.527 44.5569 736.517 Q41.5014 732.475 41.5014 724.486 L41.5014 716.274 L40.9285 716.274 Q36.8862 716.274 34.6901 718.948 Q32.4621 721.589 32.4621 726.395 Q32.4621 729.451 33.1941 732.347 Q33.9262 735.244 35.3903 737.917 L29.9795 737.917 Q28.7381 734.703 28.1334 731.679 Q27.4968 728.655 27.4968 725.791 Q27.4968 718.056 31.5072 714.237 Q35.5176 710.418 43.6657 710.418 Z" fill="#000000" fill-rule="nonzero" fill-opacity="1" /><path clip-path="url(#clip160)" d="M33.8307 677.698 Q33.2578 678.684 33.0032 679.862 Q32.7167 681.008 32.7167 682.408 Q32.7167 687.374 35.9632 690.047 Q39.1779 692.689 45.2253 692.689 L64.0042 692.689 L64.0042 698.577 L28.3562 698.577 L28.3562 692.689 L33.8944 692.689 Q30.6479 690.843 29.0883 687.883 Q27.4968 684.923 27.4968 680.69 Q27.4968 680.085 27.5923 679.353 Q27.656 678.621 27.8151 677.73 L33.8307 677.698 Z" fill="#000000" fill-rule="nonzero" fill-opacity="1" /><path clip-path="url(#clip160)" d="M28.3562 655.036 L28.3562 648.829 L58.275 637.689 L28.3562 626.549 L28.3562 620.343 L64.0042 633.711 L64.0042 641.668 L28.3562 655.036 Z" fill="#000000" fill-rule="nonzero" fill-opacity="1" /><path clip-path="url(#clip160)" d="M46.0847 596.058 Q46.0847 603.155 47.7079 605.893 Q49.3312 608.63 53.2461 608.63 Q56.3653 608.63 58.2114 606.593 Q60.0256 604.524 60.0256 600.991 Q60.0256 596.121 56.5881 593.193 Q53.1188 590.233 47.3897 590.233 L46.0847 590.233 L46.0847 596.058 M43.6657 584.377 L64.0042 584.377 L64.0042 590.233 L58.5933 590.233 Q61.8398 592.238 63.3994 595.23 Q64.9272 598.222 64.9272 602.551 Q64.9272 608.025 61.8716 611.272 Q58.7843 614.486 53.6281 614.486 Q47.6125 614.486 44.5569 610.476 Q41.5014 606.434 41.5014 598.445 L41.5014 590.233 L40.9285 590.233 Q36.8862 590.233 34.6901 592.907 Q32.4621 595.548 32.4621 600.354 Q32.4621 603.41 33.1941 606.306 Q33.9262 609.203 35.3903 611.876 L29.9795 611.876 Q28.7381 608.662 28.1334 605.638 Q27.4968 602.614 27.4968 599.75 Q27.4968 592.015 31.5072 588.196 Q35.5176 584.377 43.6657 584.377 Z" fill="#000000" fill-rule="nonzero" fill-opacity="1" /><path clip-path="url(#clip160)" d="M14.479 572.314 L14.479 566.457 L64.0042 566.457 L64.0042 572.314 L14.479 572.314 Z" fill="#000000" fill-rule="nonzero" fill-opacity="1" /><path clip-path="url(#clip160)" d="M49.9359 554.808 L28.3562 554.808 L28.3562 548.951 L49.7131 548.951 Q54.7739 548.951 57.3202 546.978 Q59.8346 545.005 59.8346 541.058 Q59.8346 536.315 56.8109 533.578 Q53.7872 530.809 48.5673 530.809 L28.3562 530.809 L28.3562 524.953 L64.0042 524.953 L64.0042 530.809 L58.5296 530.809 Q61.7762 532.942 63.3676 535.774 Q64.9272 538.575 64.9272 542.299 Q64.9272 548.442 61.1078 551.625 Q57.2883 554.808 49.9359 554.808 M27.4968 540.071 L27.4968 540.071 Z" fill="#000000" fill-rule="nonzero" fill-opacity="1" /><path clip-path="url(#clip160)" d="M44.7161 482.398 L47.5806 482.398 L47.5806 509.325 Q53.6281 508.943 56.8109 505.696 Q59.9619 502.418 59.9619 496.593 Q59.9619 493.22 59.1344 490.069 Q58.3069 486.886 56.6518 483.767 L62.1899 483.767 Q63.5267 486.918 64.227 490.228 Q64.9272 493.538 64.9272 496.944 Q64.9272 505.474 59.9619 510.471 Q54.9967 515.436 46.5303 515.436 Q37.7774 515.436 32.6531 510.725 Q27.4968 505.983 27.4968 497.962 Q27.4968 490.769 32.1438 486.599 Q36.7589 482.398 44.7161 482.398 M42.9973 488.254 Q38.1912 488.318 35.3266 490.96 Q32.4621 493.57 32.4621 497.898 Q32.4621 502.8 35.2312 505.76 Q38.0002 508.688 43.0292 509.134 L42.9973 488.254 Z" fill="#000000" fill-rule="nonzero" fill-opacity="1" /><path clip-path="url(#clip160)" d="M14.5426 437.997 Q21.8632 442.262 29.0246 444.331 Q36.186 446.4 43.5384 446.4 Q50.8908 446.4 58.1159 444.331 Q65.3091 442.23 72.5979 437.997 L72.5979 443.09 Q65.1182 447.864 57.8931 450.251 Q50.668 452.606 43.5384 452.606 Q36.4406 452.606 29.2474 450.251 Q22.0542 447.896 14.5426 443.09 L14.5426 437.997 Z" fill="#000000" fill-rule="nonzero" fill-opacity="1" /><path clip-path="url(#clip160)" d="M58.5933 424.693 L58.5933 414.189 L22.3406 414.189 L24.6323 425.616 L18.7758 425.616 L16.4842 414.253 L16.4842 407.824 L58.5933 407.824 L58.5933 397.32 L64.0042 397.32 L64.0042 424.693 L58.5933 424.693 Z" fill="#000000" fill-rule="nonzero" fill-opacity="1" /><path clip-path="url(#clip160)" d="M16.4842 384.271 L16.4842 359.031 L21.895 359.031 L21.895 378.382 L33.5443 378.382 Q33.0668 376.982 32.844 375.581 Q32.5894 374.181 32.5894 372.78 Q32.5894 364.823 36.9499 360.176 Q41.3104 355.529 48.7583 355.529 Q56.429 355.529 60.694 360.304 Q64.9272 365.078 64.9272 373.767 Q64.9272 376.759 64.4179 379.878 Q63.9087 382.966 62.8902 386.276 L56.429 386.276 Q57.9886 383.411 58.7524 380.356 Q59.5163 377.3 59.5163 373.894 Q59.5163 368.388 56.6199 365.173 Q53.7235 361.959 48.7583 361.959 Q43.793 361.959 40.8966 365.173 Q38.0002 368.388 38.0002 373.894 Q38.0002 376.473 38.5732 379.051 Q39.1461 381.597 40.3556 384.271 L16.4842 384.271 Z" fill="#000000" fill-rule="nonzero" fill-opacity="1" /><path clip-path="url(#clip160)" d="M43.0928 302.439 Q43.0928 305.208 45.4481 306.8 Q47.8034 308.36 52.0048 308.36 Q56.1425 308.36 58.5296 306.8 Q60.885 305.208 60.885 302.439 Q60.885 299.734 58.5296 298.174 Q56.1425 296.583 52.0048 296.583 Q47.8353 296.583 45.48 298.174 Q43.0928 299.734 43.0928 302.439 M39.0506 302.439 Q39.0506 297.41 42.5517 294.45 Q46.0529 291.49 52.0048 291.49 Q57.9567 291.49 61.4579 294.482 Q64.9272 297.442 64.9272 302.439 Q64.9272 307.532 61.4579 310.492 Q57.9567 313.452 52.0048 313.452 Q46.021 313.452 42.5517 310.492 Q39.0506 307.5 39.0506 302.439 M19.667 335.286 Q19.667 338.024 22.0542 339.615 Q24.4095 341.175 28.5472 341.175 Q32.7485 341.175 35.1038 339.615 Q37.4592 338.056 37.4592 335.286 Q37.4592 332.517 35.1038 330.958 Q32.7485 329.366 28.5472 329.366 Q24.4413 329.366 22.0542 330.958 Q19.667 332.549 19.667 335.286 M15.6248 306.545 L15.6248 301.453 L64.9272 331.181 L64.9272 336.273 L15.6248 306.545 M15.6248 335.286 Q15.6248 330.258 19.1259 327.266 Q22.5952 324.274 28.5472 324.274 Q34.5628 324.274 38.0321 327.266 Q41.5014 330.226 41.5014 335.286 Q41.5014 340.347 38.0321 343.307 Q34.5309 346.235 28.5472 346.235 Q22.6271 346.235 19.1259 343.275 Q15.6248 340.315 15.6248 335.286 Z" fill="#000000" fill-rule="nonzero" fill-opacity="1" /><path clip-path="url(#clip160)" d="M14.5426 282.674 L14.5426 277.581 Q22.0542 272.807 29.2474 270.452 Q36.4406 268.065 43.5384 268.065 Q50.668 268.065 57.8931 270.452 Q65.1182 272.807 72.5979 277.581 L72.5979 282.674 Q65.3091 278.441 58.1159 276.372 Q50.8908 274.271 43.5384 274.271 Q36.186 274.271 29.0246 276.372 Q21.8632 278.441 14.5426 282.674 Z" fill="#000000" fill-rule="nonzero" fill-opacity="1" /><circle clip-path="url(#clip162)" cx="1986.29" cy="246.022" r="14.4" fill="#009af9" fill-rule="evenodd" fill-opacity="1" stroke="#000000" stroke-opacity="1" stroke-width="3.2"/>
<circle clip-path="url(#clip162)" cx="2095.28" cy="331.977" r="14.4" fill="#009af9" fill-rule="evenodd" fill-opacity="1" stroke="#000000" stroke-opacity="1" stroke-width="3.2"/>
<circle clip-path="url(#clip162)" cx="2135.48" cy="299.86" r="14.4" fill="#009af9" fill-rule="evenodd" fill-opacity="1" stroke="#000000" stroke-opacity="1" stroke-width="3.2"/>
<circle clip-path="url(#clip162)" cx="2138.85" cy="358.384" r="14.4" fill="#009af9" fill-rule="evenodd" fill-opacity="1" stroke="#000000" stroke-opacity="1" stroke-width="3.2"/>
<circle clip-path="url(#clip162)" cx="1998.18" cy="239.187" r="14.4" fill="#009af9" fill-rule="evenodd" fill-opacity="1" stroke="#000000" stroke-opacity="1" stroke-width="3.2"/>
<circle clip-path="url(#clip162)" cx="1805.37" cy="240.135" r="14.4" fill="#009af9" fill-rule="evenodd" fill-opacity="1" stroke="#000000" stroke-opacity="1" stroke-width="3.2"/>
<circle clip-path="url(#clip162)" cx="2113.38" cy="306.187" r="14.4" fill="#009af9" fill-rule="evenodd" fill-opacity="1" stroke="#000000" stroke-opacity="1" stroke-width="3.2"/>
<circle clip-path="url(#clip162)" cx="2006.09" cy="286.098" r="14.4" fill="#009af9" fill-rule="evenodd" fill-opacity="1" stroke="#000000" stroke-opacity="1" stroke-width="3.2"/>
<circle clip-path="url(#clip162)" cx="2227.74" cy="383.196" r="14.4" fill="#009af9" fill-rule="evenodd" fill-opacity="1" stroke="#000000" stroke-opacity="1" stroke-width="3.2"/>
<circle clip-path="url(#clip162)" cx="2072.05" cy="327.246" r="14.4" fill="#009af9" fill-rule="evenodd" fill-opacity="1" stroke="#000000" stroke-opacity="1" stroke-width="3.2"/>
<circle clip-path="url(#clip162)" cx="1873.34" cy="213.813" r="14.4" fill="#009af9" fill-rule="evenodd" fill-opacity="1" stroke="#000000" stroke-opacity="1" stroke-width="3.2"/>
<circle clip-path="url(#clip162)" cx="2037.78" cy="319.34" r="14.4" fill="#009af9" fill-rule="evenodd" fill-opacity="1" stroke="#000000" stroke-opacity="1" stroke-width="3.2"/>
<circle clip-path="url(#clip162)" cx="2124.72" cy="330.429" r="14.4" fill="#009af9" fill-rule="evenodd" fill-opacity="1" stroke="#000000" stroke-opacity="1" stroke-width="3.2"/>
<circle clip-path="url(#clip162)" cx="2294.3" cy="312.074" r="14.4" fill="#009af9" fill-rule="evenodd" fill-opacity="1" stroke="#000000" stroke-opacity="1" stroke-width="3.2"/>
<circle clip-path="url(#clip162)" cx="1789.88" cy="86.1857" r="14.4" fill="#009af9" fill-rule="evenodd" fill-opacity="1" stroke="#000000" stroke-opacity="1" stroke-width="3.2"/>
<circle clip-path="url(#clip162)" cx="1705.19" cy="109.888" r="14.4" fill="#009af9" fill-rule="evenodd" fill-opacity="1" stroke="#000000" stroke-opacity="1" stroke-width="3.2"/>
<circle clip-path="url(#clip162)" cx="1871.1" cy="166.346" r="14.4" fill="#009af9" fill-rule="evenodd" fill-opacity="1" stroke="#000000" stroke-opacity="1" stroke-width="3.2"/>
<circle clip-path="url(#clip162)" cx="1980.92" cy="254.968" r="14.4" fill="#009af9" fill-rule="evenodd" fill-opacity="1" stroke="#000000" stroke-opacity="1" stroke-width="3.2"/>
<circle clip-path="url(#clip162)" cx="1750.75" cy="223.229" r="14.4" fill="#009af9" fill-rule="evenodd" fill-opacity="1" stroke="#000000" stroke-opacity="1" stroke-width="3.2"/>
<circle clip-path="url(#clip162)" cx="1927.96" cy="230.718" r="14.4" fill="#009af9" fill-rule="evenodd" fill-opacity="1" stroke="#000000" stroke-opacity="1" stroke-width="3.2"/>
<circle clip-path="url(#clip162)" cx="1877" cy="293.403" r="14.4" fill="#009af9" fill-rule="evenodd" fill-opacity="1" stroke="#000000" stroke-opacity="1" stroke-width="3.2"/>
<circle clip-path="url(#clip162)" cx="1934.76" cy="253.897" r="14.4" fill="#009af9" fill-rule="evenodd" fill-opacity="1" stroke="#000000" stroke-opacity="1" stroke-width="3.2"/>
<circle clip-path="url(#clip162)" cx="2160.14" cy="194.988" r="14.4" fill="#009af9" fill-rule="evenodd" fill-opacity="1" stroke="#000000" stroke-opacity="1" stroke-width="3.2"/>
<circle clip-path="url(#clip162)" cx="1945.21" cy="356.666" r="14.4" fill="#009af9" fill-rule="evenodd" fill-opacity="1" stroke="#000000" stroke-opacity="1" stroke-width="3.2"/>
<circle clip-path="url(#clip162)" cx="1988.48" cy="374.681" r="14.4" fill="#009af9" fill-rule="evenodd" fill-opacity="1" stroke="#000000" stroke-opacity="1" stroke-width="3.2"/>
<circle clip-path="url(#clip162)" cx="2038.36" cy="361.474" r="14.4" fill="#009af9" fill-rule="evenodd" fill-opacity="1" stroke="#000000" stroke-opacity="1" stroke-width="3.2"/>
<circle clip-path="url(#clip162)" cx="1978.91" cy="322.438" r="14.4" fill="#009af9" fill-rule="evenodd" fill-opacity="1" stroke="#000000" stroke-opacity="1" stroke-width="3.2"/>
<circle clip-path="url(#clip162)" cx="1945.8" cy="257.072" r="14.4" fill="#009af9" fill-rule="evenodd" fill-opacity="1" stroke="#000000" stroke-opacity="1" stroke-width="3.2"/>
<circle clip-path="url(#clip162)" cx="1974.41" cy="252.857" r="14.4" fill="#009af9" fill-rule="evenodd" fill-opacity="1" stroke="#000000" stroke-opacity="1" stroke-width="3.2"/>
<circle clip-path="url(#clip162)" cx="2086.18" cy="355.202" r="14.4" fill="#009af9" fill-rule="evenodd" fill-opacity="1" stroke="#000000" stroke-opacity="1" stroke-width="3.2"/>
<circle clip-path="url(#clip162)" cx="2074.3" cy="362.037" r="14.4" fill="#009af9" fill-rule="evenodd" fill-opacity="1" stroke="#000000" stroke-opacity="1" stroke-width="3.2"/>
<circle clip-path="url(#clip162)" cx="1899.11" cy="274.401" r="14.4" fill="#009af9" fill-rule="evenodd" fill-opacity="1" stroke="#000000" stroke-opacity="1" stroke-width="3.2"/>
<circle clip-path="url(#clip162)" cx="1878.14" cy="162.733" r="14.4" fill="#009af9" fill-rule="evenodd" fill-opacity="1" stroke="#000000" stroke-opacity="1" stroke-width="3.2"/>
<circle clip-path="url(#clip162)" cx="1804.84" cy="116.807" r="14.4" fill="#009af9" fill-rule="evenodd" fill-opacity="1" stroke="#000000" stroke-opacity="1" stroke-width="3.2"/>
<circle clip-path="url(#clip162)" cx="2066.67" cy="336.192" r="14.4" fill="#009af9" fill-rule="evenodd" fill-opacity="1" stroke="#000000" stroke-opacity="1" stroke-width="3.2"/>
<circle clip-path="url(#clip162)" cx="2079.74" cy="259.222" r="14.4" fill="#009af9" fill-rule="evenodd" fill-opacity="1" stroke="#000000" stroke-opacity="1" stroke-width="3.2"/>
<circle clip-path="url(#clip162)" cx="1906.49" cy="197.986" r="14.4" fill="#009af9" fill-rule="evenodd" fill-opacity="1" stroke="#000000" stroke-opacity="1" stroke-width="3.2"/>
<circle clip-path="url(#clip162)" cx="2027.61" cy="237.638" r="14.4" fill="#009af9" fill-rule="evenodd" fill-opacity="1" stroke="#000000" stroke-opacity="1" stroke-width="3.2"/>
<circle clip-path="url(#clip162)" cx="2232" cy="350.517" r="14.4" fill="#009af9" fill-rule="evenodd" fill-opacity="1" stroke="#000000" stroke-opacity="1" stroke-width="3.2"/>
<circle clip-path="url(#clip162)" cx="1982.04" cy="278.701" r="14.4" fill="#009af9" fill-rule="evenodd" fill-opacity="1" stroke="#000000" stroke-opacity="1" stroke-width="3.2"/>
<circle clip-path="url(#clip162)" cx="2021.4" cy="243.918" r="14.4" fill="#009af9" fill-rule="evenodd" fill-opacity="1" stroke="#000000" stroke-opacity="1" stroke-width="3.2"/>
<circle clip-path="url(#clip162)" cx="2287.79" cy="451.691" r="14.4" fill="#009af9" fill-rule="evenodd" fill-opacity="1" stroke="#000000" stroke-opacity="1" stroke-width="3.2"/>
<circle clip-path="url(#clip162)" cx="2207.65" cy="322.052" r="14.4" fill="#009af9" fill-rule="evenodd" fill-opacity="1" stroke="#000000" stroke-opacity="1" stroke-width="3.2"/>
<circle clip-path="url(#clip162)" cx="1955.98" cy="326.097" r="14.4" fill="#009af9" fill-rule="evenodd" fill-opacity="1" stroke="#000000" stroke-opacity="1" stroke-width="3.2"/>
<circle clip-path="url(#clip162)" cx="1856.86" cy="313.453" r="14.4" fill="#009af9" fill-rule="evenodd" fill-opacity="1" stroke="#000000" stroke-opacity="1" stroke-width="3.2"/>
<circle clip-path="url(#clip162)" cx="2113.96" cy="348.321" r="14.4" fill="#009af9" fill-rule="evenodd" fill-opacity="1" stroke="#000000" stroke-opacity="1" stroke-width="3.2"/>
<circle clip-path="url(#clip162)" cx="1916.91" cy="240.219" r="14.4" fill="#009af9" fill-rule="evenodd" fill-opacity="1" stroke="#000000" stroke-opacity="1" stroke-width="3.2"/>
<circle clip-path="url(#clip162)" cx="2143.11" cy="325.705" r="14.4" fill="#009af9" fill-rule="evenodd" fill-opacity="1" stroke="#000000" stroke-opacity="1" stroke-width="3.2"/>
<circle clip-path="url(#clip162)" cx="1897.4" cy="221.21" r="14.4" fill="#009af9" fill-rule="evenodd" fill-opacity="1" stroke="#000000" stroke-opacity="1" stroke-width="3.2"/>
<circle clip-path="url(#clip162)" cx="2034.7" cy="281.884" r="14.4" fill="#009af9" fill-rule="evenodd" fill-opacity="1" stroke="#000000" stroke-opacity="1" stroke-width="3.2"/>
<circle clip-path="url(#clip162)" cx="958.93" cy="864.276" r="14.4" fill="#009af9" fill-rule="evenodd" fill-opacity="1" stroke="#000000" stroke-opacity="1" stroke-width="3.2"/>
<circle clip-path="url(#clip162)" cx="1130.76" cy="880.712" r="14.4" fill="#009af9" fill-rule="evenodd" fill-opacity="1" stroke="#000000" stroke-opacity="1" stroke-width="3.2"/>
<circle clip-path="url(#clip162)" cx="956.921" cy="931.746" r="14.4" fill="#009af9" fill-rule="evenodd" fill-opacity="1" stroke="#000000" stroke-opacity="1" stroke-width="3.2"/>
<circle clip-path="url(#clip162)" cx="1549.77" cy="965.249" r="14.4" fill="#009af9" fill-rule="evenodd" fill-opacity="1" stroke="#000000" stroke-opacity="1" stroke-width="3.2"/>
<circle clip-path="url(#clip162)" cx="1138.97" cy="948.69" r="14.4" fill="#009af9" fill-rule="evenodd" fill-opacity="1" stroke="#000000" stroke-opacity="1" stroke-width="3.2"/>
<circle clip-path="url(#clip162)" cx="1358.62" cy="971.529" r="14.4" fill="#009af9" fill-rule="evenodd" fill-opacity="1" stroke="#000000" stroke-opacity="1" stroke-width="3.2"/>
<circle clip-path="url(#clip162)" cx="1104.41" cy="919.717" r="14.4" fill="#009af9" fill-rule="evenodd" fill-opacity="1" stroke="#000000" stroke-opacity="1" stroke-width="3.2"/>
<circle clip-path="url(#clip162)" cx="1813.1" cy="839.433" r="14.4" fill="#009af9" fill-rule="evenodd" fill-opacity="1" stroke="#000000" stroke-opacity="1" stroke-width="3.2"/>
<circle clip-path="url(#clip162)" cx="1113.49" cy="909.169" r="14.4" fill="#009af9" fill-rule="evenodd" fill-opacity="1" stroke="#000000" stroke-opacity="1" stroke-width="3.2"/>
<circle clip-path="url(#clip162)" cx="1584.3" cy="921.012" r="14.4" fill="#009af9" fill-rule="evenodd" fill-opacity="1" stroke="#000000" stroke-opacity="1" stroke-width="3.2"/>
<circle clip-path="url(#clip162)" cx="1804.87" cy="925.859" r="14.4" fill="#009af9" fill-rule="evenodd" fill-opacity="1" stroke="#000000" stroke-opacity="1" stroke-width="3.2"/>
<circle clip-path="url(#clip162)" cx="1324.7" cy="890.821" r="14.4" fill="#009af9" fill-rule="evenodd" fill-opacity="1" stroke="#000000" stroke-opacity="1" stroke-width="3.2"/>
<circle clip-path="url(#clip162)" cx="1457.79" cy="915.657" r="14.4" fill="#009af9" fill-rule="evenodd" fill-opacity="1" stroke="#000000" stroke-opacity="1" stroke-width="3.2"/>
<circle clip-path="url(#clip162)" cx="1211.97" cy="973.548" r="14.4" fill="#009af9" fill-rule="evenodd" fill-opacity="1" stroke="#000000" stroke-opacity="1" stroke-width="3.2"/>
<circle clip-path="url(#clip162)" cx="1518.39" cy="798.671" r="14.4" fill="#009af9" fill-rule="evenodd" fill-opacity="1" stroke="#000000" stroke-opacity="1" stroke-width="3.2"/>
<circle clip-path="url(#clip162)" cx="1092.57" cy="845.359" r="14.4" fill="#009af9" fill-rule="evenodd" fill-opacity="1" stroke="#000000" stroke-opacity="1" stroke-width="3.2"/>
<circle clip-path="url(#clip162)" cx="1347.58" cy="968.354" r="14.4" fill="#009af9" fill-rule="evenodd" fill-opacity="1" stroke="#000000" stroke-opacity="1" stroke-width="3.2"/>
<circle clip-path="url(#clip162)" cx="1428.6" cy="877.738" r="14.4" fill="#009af9" fill-rule="evenodd" fill-opacity="1" stroke="#000000" stroke-opacity="1" stroke-width="3.2"/>
<circle clip-path="url(#clip162)" cx="1300.62" cy="1037.83" r="14.4" fill="#009af9" fill-rule="evenodd" fill-opacity="1" stroke="#000000" stroke-opacity="1" stroke-width="3.2"/>
<circle clip-path="url(#clip162)" cx="1528.55" cy="893.049" r="14.4" fill="#009af9" fill-rule="evenodd" fill-opacity="1" stroke="#000000" stroke-opacity="1" stroke-width="3.2"/>
<circle clip-path="url(#clip162)" cx="1185.62" cy="999.877" r="14.4" fill="#009af9" fill-rule="evenodd" fill-opacity="1" stroke="#000000" stroke-opacity="1" stroke-width="3.2"/>
<circle clip-path="url(#clip162)" cx="1344.55" cy="849.705" r="14.4" fill="#009af9" fill-rule="evenodd" fill-opacity="1" stroke="#000000" stroke-opacity="1" stroke-width="3.2"/>
<circle clip-path="url(#clip162)" cx="1174.31" cy="1061.52" r="14.4" fill="#009af9" fill-rule="evenodd" fill-opacity="1" stroke="#000000" stroke-opacity="1" stroke-width="3.2"/>
<circle clip-path="url(#clip162)" cx="1234.91" cy="969.888" r="14.4" fill="#009af9" fill-rule="evenodd" fill-opacity="1" stroke="#000000" stroke-opacity="1" stroke-width="3.2"/>
<circle clip-path="url(#clip162)" cx="1210.91" cy="868.622" r="14.4" fill="#009af9" fill-rule="evenodd" fill-opacity="1" stroke="#000000" stroke-opacity="1" stroke-width="3.2"/>
<circle clip-path="url(#clip162)" cx="1128.81" cy="866.988" r="14.4" fill="#009af9" fill-rule="evenodd" fill-opacity="1" stroke="#000000" stroke-opacity="1" stroke-width="3.2"/>
<circle clip-path="url(#clip162)" cx="1039.31" cy="954.446" r="14.4" fill="#009af9" fill-rule="evenodd" fill-opacity="1" stroke="#000000" stroke-opacity="1" stroke-width="3.2"/>
<circle clip-path="url(#clip162)" cx="990.023" cy="997.112" r="14.4" fill="#009af9" fill-rule="evenodd" fill-opacity="1" stroke="#000000" stroke-opacity="1" stroke-width="3.2"/>
<circle clip-path="url(#clip162)" cx="1263.52" cy="952.997" r="14.4" fill="#009af9" fill-rule="evenodd" fill-opacity="1" stroke="#000000" stroke-opacity="1" stroke-width="3.2"/>
<circle clip-path="url(#clip162)" cx="1563.42" cy="788.685" r="14.4" fill="#009af9" fill-rule="evenodd" fill-opacity="1" stroke="#000000" stroke-opacity="1" stroke-width="3.2"/>
<circle clip-path="url(#clip162)" cx="1581.21" cy="896.231" r="14.4" fill="#009af9" fill-rule="evenodd" fill-opacity="1" stroke="#000000" stroke-opacity="1" stroke-width="3.2"/>
<circle clip-path="url(#clip162)" cx="1603.02" cy="868.838" r="14.4" fill="#009af9" fill-rule="evenodd" fill-opacity="1" stroke="#000000" stroke-opacity="1" stroke-width="3.2"/>
<circle clip-path="url(#clip162)" cx="1450.71" cy="858.736" r="14.4" fill="#009af9" fill-rule="evenodd" fill-opacity="1" stroke="#000000" stroke-opacity="1" stroke-width="3.2"/>
<circle clip-path="url(#clip162)" cx="1183.9" cy="1101.09" r="14.4" fill="#009af9" fill-rule="evenodd" fill-opacity="1" stroke="#000000" stroke-opacity="1" stroke-width="3.2"/>
<circle clip-path="url(#clip162)" cx="1395.69" cy="983.149" r="14.4" fill="#009af9" fill-rule="evenodd" fill-opacity="1" stroke="#000000" stroke-opacity="1" stroke-width="3.2"/>
<circle clip-path="url(#clip162)" cx="1197.27" cy="890.782" r="14.4" fill="#009af9" fill-rule="evenodd" fill-opacity="1" stroke="#000000" stroke-opacity="1" stroke-width="3.2"/>
<circle clip-path="url(#clip162)" cx="1037.9" cy="909.646" r="14.4" fill="#009af9" fill-rule="evenodd" fill-opacity="1" stroke="#000000" stroke-opacity="1" stroke-width="3.2"/>
<circle clip-path="url(#clip162)" cx="1291.58" cy="979.859" r="14.4" fill="#009af9" fill-rule="evenodd" fill-opacity="1" stroke="#000000" stroke-opacity="1" stroke-width="3.2"/>
<circle clip-path="url(#clip162)" cx="1424.06" cy="876.674" r="14.4" fill="#009af9" fill-rule="evenodd" fill-opacity="1" stroke="#000000" stroke-opacity="1" stroke-width="3.2"/>
<circle clip-path="url(#clip162)" cx="1525.42" cy="936.785" r="14.4" fill="#009af9" fill-rule="evenodd" fill-opacity="1" stroke="#000000" stroke-opacity="1" stroke-width="3.2"/>
<circle clip-path="url(#clip162)" cx="1452.9" cy="987.395" r="14.4" fill="#009af9" fill-rule="evenodd" fill-opacity="1" stroke="#000000" stroke-opacity="1" stroke-width="3.2"/>
<circle clip-path="url(#clip162)" cx="1216.23" cy="940.869" r="14.4" fill="#009af9" fill-rule="evenodd" fill-opacity="1" stroke="#000000" stroke-opacity="1" stroke-width="3.2"/>
<circle clip-path="url(#clip162)" cx="1446.45" cy="891.415" r="14.4" fill="#009af9" fill-rule="evenodd" fill-opacity="1" stroke="#000000" stroke-opacity="1" stroke-width="3.2"/>
<circle clip-path="url(#clip162)" cx="1801.21" cy="846.268" r="14.4" fill="#009af9" fill-rule="evenodd" fill-opacity="1" stroke="#000000" stroke-opacity="1" stroke-width="3.2"/>
<circle clip-path="url(#clip162)" cx="1444.15" cy="937.818" r="14.4" fill="#009af9" fill-rule="evenodd" fill-opacity="1" stroke="#000000" stroke-opacity="1" stroke-width="3.2"/>
<circle clip-path="url(#clip162)" cx="1388.95" cy="878.778" r="14.4" fill="#009af9" fill-rule="evenodd" fill-opacity="1" stroke="#000000" stroke-opacity="1" stroke-width="3.2"/>
<circle clip-path="url(#clip162)" cx="1395.74" cy="901.956" r="14.4" fill="#009af9" fill-rule="evenodd" fill-opacity="1" stroke="#000000" stroke-opacity="1" stroke-width="3.2"/>
<circle clip-path="url(#clip162)" cx="1259.02" cy="883.417" r="14.4" fill="#009af9" fill-rule="evenodd" fill-opacity="1" stroke="#000000" stroke-opacity="1" stroke-width="3.2"/>
<circle clip-path="url(#clip162)" cx="1796.73" cy="764.011" r="14.4" fill="#009af9" fill-rule="evenodd" fill-opacity="1" stroke="#000000" stroke-opacity="1" stroke-width="3.2"/>
<circle clip-path="url(#clip162)" cx="1424.35" cy="897.741" r="14.4" fill="#009af9" fill-rule="evenodd" fill-opacity="1" stroke="#000000" stroke-opacity="1" stroke-width="3.2"/>
<circle clip-path="url(#clip162)" cx="842.391" cy="1240.04" r="14.4" fill="#009af9" fill-rule="evenodd" fill-opacity="1" stroke="#000000" stroke-opacity="1" stroke-width="3.2"/>
<circle clip-path="url(#clip162)" cx="1215.88" cy="1142.72" r="14.4" fill="#009af9" fill-rule="evenodd" fill-opacity="1" stroke="#000000" stroke-opacity="1" stroke-width="3.2"/>
<circle clip-path="url(#clip162)" cx="724.394" cy="1169.33" r="14.4" fill="#009af9" fill-rule="evenodd" fill-opacity="1" stroke="#000000" stroke-opacity="1" stroke-width="3.2"/>
<circle clip-path="url(#clip162)" cx="994.461" cy="1160.56" r="14.4" fill="#009af9" fill-rule="evenodd" fill-opacity="1" stroke="#000000" stroke-opacity="1" stroke-width="3.2"/>
<circle clip-path="url(#clip162)" cx="879.795" cy="1204.21" r="14.4" fill="#009af9" fill-rule="evenodd" fill-opacity="1" stroke="#000000" stroke-opacity="1" stroke-width="3.2"/>
<circle clip-path="url(#clip162)" cx="489.082" cy="1261.47" r="14.4" fill="#009af9" fill-rule="evenodd" fill-opacity="1" stroke="#000000" stroke-opacity="1" stroke-width="3.2"/>
<circle clip-path="url(#clip162)" cx="1566.1" cy="1109.19" r="14.4" fill="#009af9" fill-rule="evenodd" fill-opacity="1" stroke="#000000" stroke-opacity="1" stroke-width="3.2"/>
<circle clip-path="url(#clip162)" cx="638.859" cy="1215.72" r="14.4" fill="#009af9" fill-rule="evenodd" fill-opacity="1" stroke="#000000" stroke-opacity="1" stroke-width="3.2"/>
<circle clip-path="url(#clip162)" cx="914.063" cy="1224.8" r="14.4" fill="#009af9" fill-rule="evenodd" fill-opacity="1" stroke="#000000" stroke-opacity="1" stroke-width="3.2"/>
<circle clip-path="url(#clip162)" cx="572.915" cy="1149.22" r="14.4" fill="#009af9" fill-rule="evenodd" fill-opacity="1" stroke="#000000" stroke-opacity="1" stroke-width="3.2"/>
<circle clip-path="url(#clip162)" cx="981.225" cy="1028.73" r="14.4" fill="#009af9" fill-rule="evenodd" fill-opacity="1" stroke="#000000" stroke-opacity="1" stroke-width="3.2"/>
<circle clip-path="url(#clip162)" cx="1038.67" cy="1135.23" r="14.4" fill="#009af9" fill-rule="evenodd" fill-opacity="1" stroke="#000000" stroke-opacity="1" stroke-width="3.2"/>
<circle clip-path="url(#clip162)" cx="862.294" cy="1117.73" r="14.4" fill="#009af9" fill-rule="evenodd" fill-opacity="1" stroke="#000000" stroke-opacity="1" stroke-width="3.2"/>
<circle clip-path="url(#clip162)" cx="1275.34" cy="1169.08" r="14.4" fill="#009af9" fill-rule="evenodd" fill-opacity="1" stroke="#000000" stroke-opacity="1" stroke-width="3.2"/>
<circle clip-path="url(#clip162)" cx="1176.82" cy="1173.22" r="14.4" fill="#009af9" fill-rule="evenodd" fill-opacity="1" stroke="#000000" stroke-opacity="1" stroke-width="3.2"/>
<circle clip-path="url(#clip162)" cx="956.285" cy="1099.86" r="14.4" fill="#009af9" fill-rule="evenodd" fill-opacity="1" stroke="#000000" stroke-opacity="1" stroke-width="3.2"/>
<circle clip-path="url(#clip162)" cx="950.603" cy="1113.09" r="14.4" fill="#009af9" fill-rule="evenodd" fill-opacity="1" stroke="#000000" stroke-opacity="1" stroke-width="3.2"/>
<circle clip-path="url(#clip162)" cx="345.82" cy="1167.61" r="14.4" fill="#009af9" fill-rule="evenodd" fill-opacity="1" stroke="#000000" stroke-opacity="1" stroke-width="3.2"/>
<circle clip-path="url(#clip162)" cx="453.669" cy="1384.24" r="14.4" fill="#009af9" fill-rule="evenodd" fill-opacity="1" stroke="#000000" stroke-opacity="1" stroke-width="3.2"/>
<circle clip-path="url(#clip162)" cx="1266.58" cy="1144.86" r="14.4" fill="#009af9" fill-rule="evenodd" fill-opacity="1" stroke="#000000" stroke-opacity="1" stroke-width="3.2"/>
<circle clip-path="url(#clip162)" cx="770.268" cy="1136.66" r="14.4" fill="#009af9" fill-rule="evenodd" fill-opacity="1" stroke="#000000" stroke-opacity="1" stroke-width="3.2"/>
<circle clip-path="url(#clip162)" cx="1279.31" cy="1115.34" r="14.4" fill="#009af9" fill-rule="evenodd" fill-opacity="1" stroke="#000000" stroke-opacity="1" stroke-width="3.2"/>
<circle clip-path="url(#clip162)" cx="478.318" cy="1292.04" r="14.4" fill="#009af9" fill-rule="evenodd" fill-opacity="1" stroke="#000000" stroke-opacity="1" stroke-width="3.2"/>
<circle clip-path="url(#clip162)" cx="1133.83" cy="1059.9" r="14.4" fill="#009af9" fill-rule="evenodd" fill-opacity="1" stroke="#000000" stroke-opacity="1" stroke-width="3.2"/>
<circle clip-path="url(#clip162)" cx="816.967" cy="1119.33" r="14.4" fill="#009af9" fill-rule="evenodd" fill-opacity="1" stroke="#000000" stroke-opacity="1" stroke-width="3.2"/>
<circle clip-path="url(#clip162)" cx="675.69" cy="1125.08" r="14.4" fill="#009af9" fill-rule="evenodd" fill-opacity="1" stroke="#000000" stroke-opacity="1" stroke-width="3.2"/>
<circle clip-path="url(#clip162)" cx="1162.15" cy="1034.61" r="14.4" fill="#009af9" fill-rule="evenodd" fill-opacity="1" stroke="#000000" stroke-opacity="1" stroke-width="3.2"/>
<circle clip-path="url(#clip162)" cx="1145.43" cy="1031.99" r="14.4" fill="#009af9" fill-rule="evenodd" fill-opacity="1" stroke="#000000" stroke-opacity="1" stroke-width="3.2"/>
<circle clip-path="url(#clip162)" cx="966.443" cy="1194.23" r="14.4" fill="#009af9" fill-rule="evenodd" fill-opacity="1" stroke="#000000" stroke-opacity="1" stroke-width="3.2"/>
<circle clip-path="url(#clip162)" cx="743.658" cy="1098.76" r="14.4" fill="#009af9" fill-rule="evenodd" fill-opacity="1" stroke="#000000" stroke-opacity="1" stroke-width="3.2"/>
<circle clip-path="url(#clip162)" cx="654.461" cy="1194.6" r="14.4" fill="#009af9" fill-rule="evenodd" fill-opacity="1" stroke="#000000" stroke-opacity="1" stroke-width="3.2"/>
<circle clip-path="url(#clip162)" cx="357.756" cy="1079.58" r="14.4" fill="#009af9" fill-rule="evenodd" fill-opacity="1" stroke="#000000" stroke-opacity="1" stroke-width="3.2"/>
<circle clip-path="url(#clip162)" cx="961.065" cy="1203.18" r="14.4" fill="#009af9" fill-rule="evenodd" fill-opacity="1" stroke="#000000" stroke-opacity="1" stroke-width="3.2"/>
<circle clip-path="url(#clip162)" cx="1104.93" cy="1055.72" r="14.4" fill="#009af9" fill-rule="evenodd" fill-opacity="1" stroke="#000000" stroke-opacity="1" stroke-width="3.2"/>
<circle clip-path="url(#clip162)" cx="1100.61" cy="1182.27" r="14.4" fill="#009af9" fill-rule="evenodd" fill-opacity="1" stroke="#000000" stroke-opacity="1" stroke-width="3.2"/>
<circle clip-path="url(#clip162)" cx="536.426" cy="1179.73" r="14.4" fill="#009af9" fill-rule="evenodd" fill-opacity="1" stroke="#000000" stroke-opacity="1" stroke-width="3.2"/>
<circle clip-path="url(#clip162)" cx="901.322" cy="1143.08" r="14.4" fill="#009af9" fill-rule="evenodd" fill-opacity="1" stroke="#000000" stroke-opacity="1" stroke-width="3.2"/>
<circle clip-path="url(#clip162)" cx="962.487" cy="1106.25" r="14.4" fill="#009af9" fill-rule="evenodd" fill-opacity="1" stroke="#000000" stroke-opacity="1" stroke-width="3.2"/>
<circle clip-path="url(#clip162)" cx="1185.91" cy="1020.94" r="14.4" fill="#009af9" fill-rule="evenodd" fill-opacity="1" stroke="#000000" stroke-opacity="1" stroke-width="3.2"/>
<circle clip-path="url(#clip162)" cx="842.494" cy="1077.66" r="14.4" fill="#009af9" fill-rule="evenodd" fill-opacity="1" stroke="#000000" stroke-opacity="1" stroke-width="3.2"/>
<circle clip-path="url(#clip162)" cx="841.612" cy="1156.18" r="14.4" fill="#009af9" fill-rule="evenodd" fill-opacity="1" stroke="#000000" stroke-opacity="1" stroke-width="3.2"/>
<circle clip-path="url(#clip162)" cx="881.033" cy="1040.21" r="14.4" fill="#009af9" fill-rule="evenodd" fill-opacity="1" stroke="#000000" stroke-opacity="1" stroke-width="3.2"/>
<circle clip-path="url(#clip162)" cx="1215.88" cy="1142.72" r="14.4" fill="#009af9" fill-rule="evenodd" fill-opacity="1" stroke="#000000" stroke-opacity="1" stroke-width="3.2"/>
<circle clip-path="url(#clip162)" cx="761.463" cy="1180.95" r="14.4" fill="#009af9" fill-rule="evenodd" fill-opacity="1" stroke="#000000" stroke-opacity="1" stroke-width="3.2"/>
<circle clip-path="url(#clip162)" cx="795.454" cy="1155.11" r="14.4" fill="#009af9" fill-rule="evenodd" fill-opacity="1" stroke="#000000" stroke-opacity="1" stroke-width="3.2"/>
<circle clip-path="url(#clip162)" cx="924.891" cy="1087.68" r="14.4" fill="#009af9" fill-rule="evenodd" fill-opacity="1" stroke="#000000" stroke-opacity="1" stroke-width="3.2"/>
<circle clip-path="url(#clip162)" cx="1136.37" cy="1115.75" r="14.4" fill="#009af9" fill-rule="evenodd" fill-opacity="1" stroke="#000000" stroke-opacity="1" stroke-width="3.2"/>
<circle clip-path="url(#clip162)" cx="989.142" cy="1075.64" r="14.4" fill="#009af9" fill-rule="evenodd" fill-opacity="1" stroke="#000000" stroke-opacity="1" stroke-width="3.2"/>
<circle clip-path="url(#clip162)" cx="963.621" cy="1104.63" r="14.4" fill="#009af9" fill-rule="evenodd" fill-opacity="1" stroke="#000000" stroke-opacity="1" stroke-width="3.2"/>
<circle clip-path="url(#clip162)" cx="1160.68" cy="1083.68" r="14.4" fill="#009af9" fill-rule="evenodd" fill-opacity="1" stroke="#000000" stroke-opacity="1" stroke-width="3.2"/>
</svg>
